<?xml version="1.0" encoding="UTF-8" standalone="no"?>
<!DOCTYPE svg PUBLIC "-//W3C//DTD SVG 1.1//EN"
 "http://www.w3.org/Graphics/SVG/1.1/DTD/svg11.dtd">
<!-- Generated by graphviz version 2.36.0 (20140111.2315)
 -->
<!-- Title: %3 Pages: 1 -->
<svg width="105pt" height="166pt"
 viewBox="0.00 0.00 104.90 166.16" xmlns="http://www.w3.org/2000/svg" xmlns:xlink="http://www.w3.org/1999/xlink">
<g id="graph0" class="graph" transform="scale(1 1) rotate(0) translate(4 162.162)">
<title>%3</title>
<!-- 0 -->
<g id="node1" class="node"><title>0</title>
<ellipse fill="black" stroke="black" cx="4.27849" cy="-84.8241" rx="1.8" ry="1.8"/>
</g>
<!-- 1 -->
<g id="node2" class="node"><title>1</title>
<ellipse fill="black" stroke="black" cx="95.102" cy="-99.5003" rx="1.8" ry="1.8"/>
</g>
<!-- 0&#45;&#45;1 -->
<g id="edge1" class="edge"><title>0&#45;&#45;1</title>
<path fill="none" stroke="black" d="M6.17547,-85.1306C17.9953,-87.0406 81.4261,-97.2904 93.2155,-99.1955"/>
</g>
<!-- 2 -->
<g id="node3" class="node"><title>2</title>
<ellipse fill="black" stroke="black" cx="53.0073" cy="-76.0612" rx="1.8" ry="1.8"/>
</g>
<!-- 0&#45;&#45;2 -->
<g id="edge2" class="edge"><title>0&#45;&#45;2</title>
<path fill="none" stroke="black" d="M6.37231,-84.4475C14.3877,-83.0061 43.0678,-77.8486 50.9755,-76.4266"/>
</g>
<!-- 3 -->
<g id="node4" class="node"><title>3</title>
<ellipse fill="black" stroke="black" cx="50.4555" cy="-118.857" rx="1.8" ry="1.8"/>
</g>
<!-- 0&#45;&#45;3 -->
<g id="edge3" class="edge"><title>0&#45;&#45;3</title>
<path fill="none" stroke="black" d="M5.81488,-85.9564C12.8257,-91.1235 41.7455,-112.438 48.8659,-117.686"/>
</g>
<!-- 4 -->
<g id="node5" class="node"><title>4</title>
<ellipse fill="black" stroke="black" cx="78.1053" cy="-156.362" rx="1.8" ry="1.8"/>
</g>
<!-- 0&#45;&#45;4 -->
<g id="edge4" class="edge"><title>0&#45;&#45;4</title>
<path fill="none" stroke="black" d="M5.82047,-86.3182C15.4283,-95.6282 66.9887,-145.59 76.5718,-154.876"/>
</g>
<!-- 5 -->
<g id="node6" class="node"><title>5</title>
<ellipse fill="black" stroke="black" cx="1.8" cy="-141.516" rx="1.8" ry="1.8"/>
</g>
<!-- 0&#45;&#45;5 -->
<g id="edge5" class="edge"><title>0&#45;&#45;5</title>
<path fill="none" stroke="black" d="M4.19603,-86.7103C3.81973,-95.3177 2.26749,-130.823 1.88532,-139.565"/>
</g>
<!-- 7 -->
<g id="node7" class="node"><title>7</title>
<ellipse fill="black" stroke="black" cx="6.65354" cy="-1.8" rx="1.8" ry="1.8"/>
</g>
<!-- 0&#45;&#45;7 -->
<g id="edge6" class="edge"><title>0&#45;&#45;7</title>
<path fill="none" stroke="black" d="M4.3372,-82.7718C4.66579,-71.2852 6.27367,-15.079 6.59688,-3.78055"/>
</g>
<!-- 1&#45;&#45;2 -->
<g id="edge7" class="edge"><title>1&#45;&#45;2</title>
<path fill="none" stroke="black" d="M93.2933,-98.4932C86.3691,-94.6377 61.5937,-80.8422 54.7625,-77.0385"/>
</g>
<!-- 1&#45;&#45;3 -->
<g id="edge8" class="edge"><title>1&#45;&#45;3</title>
<path fill="none" stroke="black" d="M93.1836,-100.332C85.8397,-103.516 59.5623,-114.909 52.317,-118.05"/>
</g>
<!-- 1&#45;&#45;4 -->
<g id="edge9" class="edge"><title>1&#45;&#45;4</title>
<path fill="none" stroke="black" d="M94.5365,-101.392C91.956,-110.025 81.3112,-145.637 78.6904,-154.405"/>
</g>
<!-- 1&#45;&#45;5 -->
<g id="edge10" class="edge"><title>1&#45;&#45;5</title>
<path fill="none" stroke="black" d="M93.1533,-100.378C81.0109,-105.846 15.8491,-135.19 3.73802,-140.644"/>
</g>
<!-- 6 -->
<g id="node8" class="node"><title>6</title>
<ellipse fill="black" stroke="black" cx="83.7364" cy="-26.9306" rx="1.8" ry="1.8"/>
</g>
<!-- 1&#45;&#45;6 -->
<g id="edge11" class="edge"><title>1&#45;&#45;6</title>
<path fill="none" stroke="black" d="M94.8211,-97.7064C93.2623,-87.7536 85.6876,-39.3889 84.0493,-28.9282"/>
</g>
<!-- 2&#45;&#45;3 -->
<g id="edge12" class="edge"><title>2&#45;&#45;3</title>
<path fill="none" stroke="black" d="M52.8977,-77.9001C52.4855,-84.8116 51.0302,-109.218 50.5855,-116.676"/>
</g>
<!-- 2&#45;&#45;4 -->
<g id="edge13" class="edge"><title>2&#45;&#45;4</title>
<path fill="none" stroke="black" d="M53.6277,-78.0462C57.1001,-89.156 74.0911,-143.519 77.5066,-154.446"/>
</g>
<!-- 2&#45;&#45;5 -->
<g id="edge14" class="edge"><title>2&#45;&#45;5</title>
<path fill="none" stroke="black" d="M51.7415,-77.6792C44.7185,-86.6563 10.591,-130.279 3.2096,-139.715"/>
</g>
<!-- 2&#45;&#45;6 -->
<g id="edge15" class="edge"><title>2&#45;&#45;6</title>
<path fill="none" stroke="black" d="M54.0297,-74.4265C58.6952,-66.9672 77.9403,-36.1976 82.6787,-28.6218"/>
</g>
<!-- 3&#45;&#45;4 -->
<g id="edge16" class="edge"><title>3&#45;&#45;4</title>
<path fill="none" stroke="black" d="M51.6435,-120.469C56.1916,-126.638 72.4654,-148.712 76.9524,-154.798"/>
</g>
<!-- 3&#45;&#45;5 -->
<g id="edge17" class="edge"><title>3&#45;&#45;5</title>
<path fill="none" stroke="black" d="M48.3648,-119.831C40.3615,-123.558 11.7246,-136.894 3.82872,-140.572"/>
</g>
<!-- 3&#45;&#45;6 -->
<g id="edge18" class="edge"><title>3&#45;&#45;6</title>
<path fill="none" stroke="black" d="M51.1506,-116.937C55.4818,-104.974 78.7251,-40.7726 83.0451,-28.84"/>
</g>
<!-- 6&#45;&#45;7 -->
<g id="edge19" class="edge"><title>6&#45;&#45;7</title>
<path fill="none" stroke="black" d="M81.831,-26.3094C71.1664,-22.8325 18.9823,-5.81942 8.49237,-2.39949"/>
</g>
</g>
</svg>
