<?xml version="1.0" encoding="UTF-8" standalone="no"?>
<!DOCTYPE svg PUBLIC "-//W3C//DTD SVG 1.1//EN"
 "http://www.w3.org/Graphics/SVG/1.1/DTD/svg11.dtd">
<!-- Generated by graphviz version 2.36.0 (20140111.2315)
 -->
<!-- Title: %3 Pages: 1 -->
<svg width="153pt" height="142pt"
 viewBox="0.00 0.00 153.17 142.15" xmlns="http://www.w3.org/2000/svg" xmlns:xlink="http://www.w3.org/1999/xlink">
<g id="graph0" class="graph" transform="scale(1 1) rotate(0) translate(4 138.147)">
<title>%3</title>
<!-- 0 -->
<g id="node1" class="node"><title>0</title>
<ellipse fill="black" stroke="black" cx="1.8" cy="-87.7272" rx="1.8" ry="1.8"/>
</g>
<!-- 1 -->
<g id="node2" class="node"><title>1</title>
<ellipse fill="black" stroke="black" cx="13.6798" cy="-54.9229" rx="1.8" ry="1.8"/>
</g>
<!-- 0&#45;&#45;1 -->
<g id="edge1" class="edge"><title>0&#45;&#45;1</title>
<path fill="none" stroke="black" d="M2.43871,-85.9635C4.48215,-80.3208 10.8502,-62.7365 12.9788,-56.8585"/>
</g>
<!-- 2 -->
<g id="node3" class="node"><title>2</title>
<ellipse fill="black" stroke="black" cx="74.0396" cy="-47.8732" rx="1.8" ry="1.8"/>
</g>
<!-- 0&#45;&#45;2 -->
<g id="edge2" class="edge"><title>0&#45;&#45;2</title>
<path fill="none" stroke="black" d="M3.58571,-86.7421C13.5802,-81.2282 62.4855,-54.2475 72.3163,-48.8239"/>
</g>
<!-- 3 -->
<g id="node4" class="node"><title>3</title>
<ellipse fill="black" stroke="black" cx="67.5629" cy="-74.1508" rx="1.8" ry="1.8"/>
</g>
<!-- 0&#45;&#45;3 -->
<g id="edge3" class="edge"><title>0&#45;&#45;3</title>
<path fill="none" stroke="black" d="M3.69723,-87.3356C13.3004,-85.353 56.457,-76.4435 65.7826,-74.5183"/>
</g>
<!-- 4 -->
<g id="node5" class="node"><title>4</title>
<ellipse fill="black" stroke="black" cx="84.4873" cy="-117.981" rx="1.8" ry="1.8"/>
</g>
<!-- 0&#45;&#45;4 -->
<g id="edge4" class="edge"><title>0&#45;&#45;4</title>
<path fill="none" stroke="black" d="M3.52704,-88.3591C14.288,-92.2963 72.0365,-113.425 82.7698,-117.352"/>
</g>
<!-- 5 -->
<g id="node6" class="node"><title>5</title>
<ellipse fill="black" stroke="black" cx="24.2019" cy="-132.347" rx="1.8" ry="1.8"/>
</g>
<!-- 0&#45;&#45;5 -->
<g id="edge5" class="edge"><title>0&#45;&#45;5</title>
<path fill="none" stroke="black" d="M2.76258,-89.6445C6.44747,-96.9841 19.6325,-123.246 23.2679,-130.487"/>
</g>
<!-- 6 -->
<g id="node7" class="node"><title>6</title>
<ellipse fill="black" stroke="black" cx="23.7484" cy="-1.8" rx="1.8" ry="1.8"/>
</g>
<!-- 0&#45;&#45;6 -->
<g id="edge6" class="edge"><title>0&#45;&#45;6</title>
<path fill="none" stroke="black" d="M2.25842,-85.9325C5.1148,-74.7499 20.4435,-14.7387 23.2925,-3.58484"/>
</g>
<!-- 1&#45;&#45;2 -->
<g id="edge7" class="edge"><title>1&#45;&#45;2</title>
<path fill="none" stroke="black" d="M15.6881,-54.6883C24.8522,-53.618 62.6545,-49.2029 71.9618,-48.1159"/>
</g>
<!-- 1&#45;&#45;3 -->
<g id="edge8" class="edge"><title>1&#45;&#45;3</title>
<path fill="none" stroke="black" d="M15.4726,-55.5626C23.6534,-58.4819 57.3994,-70.524 65.7081,-73.4889"/>
</g>
<!-- 1&#45;&#45;4 -->
<g id="edge9" class="edge"><title>1&#45;&#45;4</title>
<path fill="none" stroke="black" d="M15.1587,-56.2399C24.3736,-64.4463 73.8254,-108.486 83.0166,-116.671"/>
</g>
<!-- 1&#45;&#45;5 -->
<g id="edge10" class="edge"><title>1&#45;&#45;5</title>
<path fill="none" stroke="black" d="M13.9399,-56.8367C15.3956,-67.5486 22.519,-119.964 23.9509,-130.501"/>
</g>
<!-- 1&#45;&#45;6 -->
<g id="edge11" class="edge"><title>1&#45;&#45;6</title>
<path fill="none" stroke="black" d="M14.1124,-52.6402C15.7686,-43.9021 21.6947,-12.6358 23.3286,-4.01499"/>
</g>
<!-- 2&#45;&#45;4 -->
<g id="edge12" class="edge"><title>2&#45;&#45;4</title>
<path fill="none" stroke="black" d="M74.341,-49.8958C75.8666,-60.1334 82.7229,-106.141 84.2045,-116.083"/>
</g>
<!-- 2&#45;&#45;5 -->
<g id="edge13" class="edge"><title>2&#45;&#45;5</title>
<path fill="none" stroke="black" d="M72.9986,-49.6376C66.5127,-60.6311 31.7063,-119.628 25.2371,-130.593"/>
</g>
<!-- 2&#45;&#45;6 -->
<g id="edge14" class="edge"><title>2&#45;&#45;6</title>
<path fill="none" stroke="black" d="M72.3663,-46.3403C64.5944,-39.2202 32.1019,-9.45285 25.0871,-3.02641"/>
</g>
<!-- 7 -->
<g id="node8" class="node"><title>7</title>
<ellipse fill="black" stroke="black" cx="143.374" cy="-73.1595" rx="1.8" ry="1.8"/>
</g>
<!-- 2&#45;&#45;7 -->
<g id="edge15" class="edge"><title>2&#45;&#45;7</title>
<path fill="none" stroke="black" d="M75.7535,-48.4983C85.2626,-51.9662 131.471,-68.8185 141.466,-72.4634"/>
</g>
<!-- 3&#45;&#45;5 -->
<g id="edge16" class="edge"><title>3&#45;&#45;5</title>
<path fill="none" stroke="black" d="M66.1202,-76.0871C59.4193,-85.0806 31.4043,-122.681 25.3561,-130.798"/>
</g>
<!-- 3&#45;&#45;6 -->
<g id="edge17" class="edge"><title>3&#45;&#45;6</title>
<path fill="none" stroke="black" d="M66.4798,-72.3623C60.418,-62.3525 30.7562,-13.3719 24.7936,-3.52594"/>
</g>
<!-- 3&#45;&#45;7 -->
<g id="edge18" class="edge"><title>3&#45;&#45;7</title>
<path fill="none" stroke="black" d="M69.4369,-74.1263C79.9255,-73.9891 131.249,-73.318 141.566,-73.1831"/>
</g>
<!-- 4&#45;&#45;7 -->
<g id="edge19" class="edge"><title>4&#45;&#45;7</title>
<path fill="none" stroke="black" d="M85.943,-116.873C94.0193,-110.726 133.265,-80.8541 141.753,-74.3933"/>
</g>
</g>
</svg>
