<?xml version="1.0" encoding="UTF-8" standalone="no"?>
<!DOCTYPE svg PUBLIC "-//W3C//DTD SVG 1.1//EN"
 "http://www.w3.org/Graphics/SVG/1.1/DTD/svg11.dtd">
<!-- Generated by graphviz version 2.36.0 (20140111.2315)
 -->
<!-- Title: %3 Pages: 1 -->
<svg width="119pt" height="163pt"
 viewBox="0.00 0.00 119.26 163.36" xmlns="http://www.w3.org/2000/svg" xmlns:xlink="http://www.w3.org/1999/xlink">
<g id="graph0" class="graph" transform="scale(1 1) rotate(0) translate(4 159.357)">
<title>%3</title>
<!-- 0 -->
<g id="node1" class="node"><title>0</title>
<ellipse fill="black" stroke="black" cx="58.6417" cy="-56.6093" rx="1.8" ry="1.8"/>
</g>
<!-- 1 -->
<g id="node2" class="node"><title>1</title>
<ellipse fill="black" stroke="black" cx="63.819" cy="-103.775" rx="1.8" ry="1.8"/>
</g>
<!-- 0&#45;&#45;1 -->
<g id="edge1" class="edge"><title>0&#45;&#45;1</title>
<path fill="none" stroke="black" d="M58.8642,-58.636C59.7158,-66.3942 62.763,-94.154 63.6032,-101.808"/>
</g>
<!-- 2 -->
<g id="node3" class="node"><title>2</title>
<ellipse fill="black" stroke="black" cx="100.573" cy="-91.1776" rx="1.8" ry="1.8"/>
</g>
<!-- 0&#45;&#45;2 -->
<g id="edge2" class="edge"><title>0&#45;&#45;2</title>
<path fill="none" stroke="black" d="M60.0368,-57.7595C66.403,-63.0078 92.6636,-84.6573 99.1293,-89.9877"/>
</g>
<!-- 3 -->
<g id="node4" class="node"><title>3</title>
<ellipse fill="black" stroke="black" cx="11.5257" cy="-101.452" rx="1.8" ry="1.8"/>
</g>
<!-- 0&#45;&#45;3 -->
<g id="edge3" class="edge"><title>0&#45;&#45;3</title>
<path fill="none" stroke="black" d="M57.0741,-58.1013C49.9207,-64.9097 20.4128,-92.994 13.1476,-99.9087"/>
</g>
<!-- 4 -->
<g id="node5" class="node"><title>4</title>
<ellipse fill="black" stroke="black" cx="29.0865" cy="-1.8" rx="1.8" ry="1.8"/>
</g>
<!-- 0&#45;&#45;4 -->
<g id="edge4" class="edge"><title>0&#45;&#45;4</title>
<path fill="none" stroke="black" d="M57.6584,-54.7857C53.1711,-46.4643 34.6612,-12.1382 30.1038,-3.68666"/>
</g>
<!-- 5 -->
<g id="node6" class="node"><title>5</title>
<ellipse fill="black" stroke="black" cx="62.654" cy="-153.557" rx="1.8" ry="1.8"/>
</g>
<!-- 0&#45;&#45;5 -->
<g id="edge5" class="edge"><title>0&#45;&#45;5</title>
<path fill="none" stroke="black" d="M58.7255,-58.6342C59.2477,-71.2511 62.0499,-138.959 62.5707,-151.544"/>
</g>
<!-- 6 -->
<g id="node7" class="node"><title>6</title>
<ellipse fill="black" stroke="black" cx="1.8" cy="-54.3367" rx="1.8" ry="1.8"/>
</g>
<!-- 0&#45;&#45;6 -->
<g id="edge6" class="edge"><title>0&#45;&#45;6</title>
<path fill="none" stroke="black" d="M56.7505,-56.5337C48.1205,-56.1887 12.5215,-54.7654 3.75662,-54.4149"/>
</g>
<!-- 7 -->
<g id="node8" class="node"><title>7</title>
<ellipse fill="black" stroke="black" cx="109.46" cy="-22.7631" rx="1.8" ry="1.8"/>
</g>
<!-- 0&#45;&#45;7 -->
<g id="edge7" class="edge"><title>0&#45;&#45;7</title>
<path fill="none" stroke="black" d="M60.3326,-55.4832C68.0481,-50.3445 99.875,-29.1472 107.711,-23.9281"/>
</g>
<!-- 1&#45;&#45;2 -->
<g id="edge8" class="edge"><title>1&#45;&#45;2</title>
<path fill="none" stroke="black" d="M65.7951,-103.097C72.2363,-100.89 92.5666,-93.9216 98.7626,-91.798"/>
</g>
<!-- 1&#45;&#45;3 -->
<g id="edge9" class="edge"><title>1&#45;&#45;3</title>
<path fill="none" stroke="black" d="M61.5721,-103.675C52.9704,-103.293 22.1923,-101.926 13.7061,-101.549"/>
</g>
<!-- 1&#45;&#45;5 -->
<g id="edge10" class="edge"><title>1&#45;&#45;5</title>
<path fill="none" stroke="black" d="M63.769,-105.914C63.5773,-114.102 62.8916,-143.403 62.7026,-151.482"/>
</g>
<!-- 1&#45;&#45;6 -->
<g id="edge11" class="edge"><title>1&#45;&#45;6</title>
<path fill="none" stroke="black" d="M62.286,-102.553C53.7801,-95.7722 12.4471,-62.8239 3.50721,-55.6976"/>
</g>
<!-- 1&#45;&#45;7 -->
<g id="edge12" class="edge"><title>1&#45;&#45;7</title>
<path fill="none" stroke="black" d="M64.7723,-102.083C70.7121,-91.5397 102.588,-34.9615 108.512,-24.4458"/>
</g>
<!-- 2&#45;&#45;3 -->
<g id="edge13" class="edge"><title>2&#45;&#45;3</title>
<path fill="none" stroke="black" d="M98.7128,-91.3922C87.1242,-92.7293 24.9341,-99.9052 13.3754,-101.239"/>
</g>
<!-- 2&#45;&#45;5 -->
<g id="edge14" class="edge"><title>2&#45;&#45;5</title>
<path fill="none" stroke="black" d="M99.6353,-92.7196C94.4348,-101.275 69.1637,-142.848 63.6978,-151.84"/>
</g>
<!-- 2&#45;&#45;6 -->
<g id="edge15" class="edge"><title>2&#45;&#45;6</title>
<path fill="none" stroke="black" d="M98.8582,-90.5381C86.8694,-86.0665 15.7045,-59.5229 3.56158,-54.9938"/>
</g>
<!-- 2&#45;&#45;7 -->
<g id="edge16" class="edge"><title>2&#45;&#45;7</title>
<path fill="none" stroke="black" d="M100.829,-89.2039C102.127,-79.2135 107.959,-34.3168 109.22,-24.6151"/>
</g>
<!-- 3&#45;&#45;4 -->
<g id="edge17" class="edge"><title>3&#45;&#45;4</title>
<path fill="none" stroke="black" d="M11.8925,-99.3709C14.1779,-86.4021 26.4422,-16.8053 28.7217,-3.86993"/>
</g>
<!-- 3&#45;&#45;5 -->
<g id="edge18" class="edge"><title>3&#45;&#45;5</title>
<path fill="none" stroke="black" d="M12.7896,-102.74C19.8018,-109.886 53.8766,-144.612 61.2466,-152.123"/>
</g>
<!-- 4&#45;&#45;6 -->
<g id="edge19" class="edge"><title>4&#45;&#45;6</title>
<path fill="none" stroke="black" d="M28.1786,-3.54799C24.0358,-11.5244 6.94679,-44.4272 2.73926,-52.5283"/>
</g>
<!-- 4&#45;&#45;7 -->
<g id="edge20" class="edge"><title>4&#45;&#45;7</title>
<path fill="none" stroke="black" d="M31.0733,-2.31819C42.1931,-5.21847 96.6053,-19.4102 107.543,-22.263"/>
</g>
</g>
</svg>
