<?xml version="1.0" encoding="UTF-8" standalone="no"?>
<!DOCTYPE svg PUBLIC "-//W3C//DTD SVG 1.1//EN"
 "http://www.w3.org/Graphics/SVG/1.1/DTD/svg11.dtd">
<!-- Generated by graphviz version 2.36.0 (20140111.2315)
 -->
<!-- Title: %3 Pages: 1 -->
<svg width="138pt" height="154pt"
 viewBox="0.00 0.00 137.90 153.58" xmlns="http://www.w3.org/2000/svg" xmlns:xlink="http://www.w3.org/1999/xlink">
<g id="graph0" class="graph" transform="scale(1 1) rotate(0) translate(4 149.577)">
<title>%3</title>
<!-- 0 -->
<g id="node1" class="node"><title>0</title>
<ellipse fill="black" stroke="black" cx="43.2633" cy="-129.71" rx="1.8" ry="1.8"/>
</g>
<!-- 1 -->
<g id="node2" class="node"><title>1</title>
<ellipse fill="black" stroke="black" cx="128.096" cy="-85.648" rx="1.8" ry="1.8"/>
</g>
<!-- 0&#45;&#45;1 -->
<g id="edge1" class="edge"><title>0&#45;&#45;1</title>
<path fill="none" stroke="black" d="M45.0352,-128.789C56.0753,-123.055 115.322,-92.2827 126.334,-86.5633"/>
</g>
<!-- 2 -->
<g id="node3" class="node"><title>2</title>
<ellipse fill="black" stroke="black" cx="45.3933" cy="-84.2363" rx="1.8" ry="1.8"/>
</g>
<!-- 0&#45;&#45;2 -->
<g id="edge2" class="edge"><title>0&#45;&#45;2</title>
<path fill="none" stroke="black" d="M43.3548,-127.756C43.7052,-120.276 44.9589,-93.5118 45.3045,-86.1324"/>
</g>
<!-- 4 -->
<g id="node4" class="node"><title>4</title>
<ellipse fill="black" stroke="black" cx="1.8" cy="-47.6291" rx="1.8" ry="1.8"/>
</g>
<!-- 0&#45;&#45;4 -->
<g id="edge3" class="edge"><title>0&#45;&#45;4</title>
<path fill="none" stroke="black" d="M42.3973,-127.995C37.0012,-117.313 8.04342,-59.9885 2.66126,-49.334"/>
</g>
<!-- 5 -->
<g id="node5" class="node"><title>5</title>
<ellipse fill="black" stroke="black" cx="102.355" cy="-143.777" rx="1.8" ry="1.8"/>
</g>
<!-- 0&#45;&#45;5 -->
<g id="edge4" class="edge"><title>0&#45;&#45;5</title>
<path fill="none" stroke="black" d="M45.2294,-130.178C54.2011,-132.313 91.2092,-141.123 100.321,-143.292"/>
</g>
<!-- 6 -->
<g id="node6" class="node"><title>6</title>
<ellipse fill="black" stroke="black" cx="87.6211" cy="-71.2583" rx="1.8" ry="1.8"/>
</g>
<!-- 0&#45;&#45;6 -->
<g id="edge5" class="edge"><title>0&#45;&#45;6</title>
<path fill="none" stroke="black" d="M44.3598,-128.265C50.4434,-120.248 80.006,-81.2929 86.4,-72.8673"/>
</g>
<!-- 1&#45;&#45;2 -->
<g id="edge6" class="edge"><title>1&#45;&#45;2</title>
<path fill="none" stroke="black" d="M126.051,-85.6131C114.609,-85.4178 58.6209,-84.4621 47.3662,-84.27"/>
</g>
<!-- 1&#45;&#45;5 -->
<g id="edge7" class="edge"><title>1&#45;&#45;5</title>
<path fill="none" stroke="black" d="M127.239,-87.5821C123.331,-96.4075 107.21,-132.812 103.241,-141.776"/>
</g>
<!-- 1&#45;&#45;6 -->
<g id="edge8" class="edge"><title>1&#45;&#45;6</title>
<path fill="none" stroke="black" d="M126.357,-85.0297C119.82,-82.7058 96.7375,-74.4994 89.6839,-71.9917"/>
</g>
<!-- 7 -->
<g id="node7" class="node"><title>7</title>
<ellipse fill="black" stroke="black" cx="96.0053" cy="-1.8" rx="1.8" ry="1.8"/>
</g>
<!-- 1&#45;&#45;7 -->
<g id="edge9" class="edge"><title>1&#45;&#45;7</title>
<path fill="none" stroke="black" d="M127.426,-83.8967C123.249,-72.9847 100.837,-14.4256 96.6719,-3.54165"/>
</g>
<!-- 2&#45;&#45;4 -->
<g id="edge11" class="edge"><title>2&#45;&#45;4</title>
<path fill="none" stroke="black" d="M43.9429,-83.0183C37.3243,-77.4604 10.0226,-54.5339 3.30058,-48.8892"/>
</g>
<!-- 2&#45;&#45;5 -->
<g id="edge12" class="edge"><title>2&#45;&#45;5</title>
<path fill="none" stroke="black" d="M46.8014,-85.7081C54.6136,-93.874 92.5763,-133.555 100.787,-142.138"/>
</g>
<!-- 3 -->
<g id="node8" class="node"><title>3</title>
<ellipse fill="black" stroke="black" cx="38.2216" cy="-4.24698" rx="1.8" ry="1.8"/>
</g>
<!-- 2&#45;&#45;3 -->
<g id="edge10" class="edge"><title>2&#45;&#45;3</title>
<path fill="none" stroke="black" d="M45.2161,-82.2591C44.2238,-71.1924 39.3687,-17.0406 38.3927,-6.15514"/>
</g>
<!-- 4&#45;&#45;7 -->
<g id="edge16" class="edge"><title>4&#45;&#45;7</title>
<path fill="none" stroke="black" d="M3.43511,-46.8336C14.8696,-41.271 82.7437,-8.25149 94.3252,-2.61735"/>
</g>
<!-- 5&#45;&#45;6 -->
<g id="edge17" class="edge"><title>5&#45;&#45;6</title>
<path fill="none" stroke="black" d="M101.991,-141.984C99.9701,-132.038 90.1505,-83.7078 88.0267,-73.2545"/>
</g>
<!-- 3&#45;&#45;4 -->
<g id="edge13" class="edge"><title>3&#45;&#45;4</title>
<path fill="none" stroke="black" d="M37.0098,-5.69038C31.4801,-12.2769 8.66987,-39.4463 3.05372,-46.1358"/>
</g>
<!-- 3&#45;&#45;6 -->
<g id="edge14" class="edge"><title>3&#45;&#45;6</title>
<path fill="none" stroke="black" d="M39.4428,-5.90345C46.2178,-15.094 79.1405,-59.7542 86.2612,-69.4137"/>
</g>
<!-- 3&#45;&#45;7 -->
<g id="edge15" class="edge"><title>3&#45;&#45;7</title>
<path fill="none" stroke="black" d="M40.1442,-4.16557C48.9173,-3.79405 85.1061,-2.26155 94.0162,-1.88423"/>
</g>
</g>
</svg>
