<?xml version="1.0" encoding="UTF-8" standalone="no"?>
<!DOCTYPE svg PUBLIC "-//W3C//DTD SVG 1.1//EN"
 "http://www.w3.org/Graphics/SVG/1.1/DTD/svg11.dtd">
<!-- Generated by graphviz version 2.36.0 (20140111.2315)
 -->
<!-- Title: %3 Pages: 1 -->
<svg width="187pt" height="171pt"
 viewBox="0.00 0.00 186.87 171.03" xmlns="http://www.w3.org/2000/svg" xmlns:xlink="http://www.w3.org/1999/xlink">
<g id="graph0" class="graph" transform="scale(1 1) rotate(0) translate(4 167.026)">
<title>%3</title>
<!-- 0 -->
<g id="node1" class="node"><title>0</title>
<ellipse fill="black" stroke="black" cx="63.9676" cy="-85.0767" rx="1.8" ry="1.8"/>
</g>
<!-- 1 -->
<g id="node2" class="node"><title>1</title>
<ellipse fill="black" stroke="black" cx="132.642" cy="-51.2832" rx="1.8" ry="1.8"/>
</g>
<!-- 0&#45;&#45;1 -->
<g id="edge1" class="edge"><title>0&#45;&#45;1</title>
<path fill="none" stroke="black" d="M65.6652,-84.2414C75.0838,-79.6066 120.852,-57.0846 130.752,-52.2134"/>
</g>
<!-- 2 -->
<g id="node3" class="node"><title>2</title>
<ellipse fill="black" stroke="black" cx="85.5675" cy="-1.8" rx="1.8" ry="1.8"/>
</g>
<!-- 0&#45;&#45;2 -->
<g id="edge2" class="edge"><title>0&#45;&#45;2</title>
<path fill="none" stroke="black" d="M64.5015,-83.0182C67.4899,-71.4967 82.1128,-15.1194 85.0522,-3.78658"/>
</g>
<!-- 3 -->
<g id="node4" class="node"><title>3</title>
<ellipse fill="black" stroke="black" cx="124.199" cy="-117.757" rx="1.8" ry="1.8"/>
</g>
<!-- 0&#45;&#45;3 -->
<g id="edge3" class="edge"><title>0&#45;&#45;3</title>
<path fill="none" stroke="black" d="M65.7053,-86.0195C74.5007,-90.7917 114.027,-112.238 122.569,-116.872"/>
</g>
<!-- 4 -->
<g id="node5" class="node"><title>4</title>
<ellipse fill="black" stroke="black" cx="53.3081" cy="-27.2401" rx="1.8" ry="1.8"/>
</g>
<!-- 0&#45;&#45;4 -->
<g id="edge4" class="edge"><title>0&#45;&#45;4</title>
<path fill="none" stroke="black" d="M63.6129,-83.1524C61.9946,-74.3713 55.3187,-38.1493 53.675,-29.231"/>
</g>
<!-- 5 -->
<g id="node6" class="node"><title>5</title>
<ellipse fill="black" stroke="black" cx="94.3193" cy="-161.226" rx="1.8" ry="1.8"/>
</g>
<!-- 0&#45;&#45;5 -->
<g id="edge5" class="edge"><title>0&#45;&#45;5</title>
<path fill="none" stroke="black" d="M64.7179,-86.9591C68.9171,-97.4944 89.4648,-149.046 93.5952,-159.409"/>
</g>
<!-- 6 -->
<g id="node7" class="node"><title>6</title>
<ellipse fill="black" stroke="black" cx="1.8" cy="-39.0466" rx="1.8" ry="1.8"/>
</g>
<!-- 0&#45;&#45;6 -->
<g id="edge6" class="edge"><title>0&#45;&#45;6</title>
<path fill="none" stroke="black" d="M62.4309,-83.9389C53.9047,-77.6259 12.4726,-46.9488 3.5113,-40.3137"/>
</g>
<!-- 1&#45;&#45;2 -->
<g id="edge7" class="edge"><title>1&#45;&#45;2</title>
<path fill="none" stroke="black" d="M131.076,-49.6368C123.801,-41.9898 93.3867,-10.0192 86.8206,-3.11717"/>
</g>
<!-- 1&#45;&#45;3 -->
<g id="edge8" class="edge"><title>1&#45;&#45;3</title>
<path fill="none" stroke="black" d="M132.399,-53.2009C131.166,-62.9079 125.625,-106.531 124.428,-115.957"/>
</g>
<!-- 1&#45;&#45;4 -->
<g id="edge9" class="edge"><title>1&#45;&#45;4</title>
<path fill="none" stroke="black" d="M130.681,-50.6888C119.705,-47.3624 65.9969,-31.0856 55.2006,-27.8137"/>
</g>
<!-- 7 -->
<g id="node8" class="node"><title>7</title>
<ellipse fill="black" stroke="black" cx="177.072" cy="-121.708" rx="1.8" ry="1.8"/>
</g>
<!-- 1&#45;&#45;7 -->
<g id="edge10" class="edge"><title>1&#45;&#45;7</title>
<path fill="none" stroke="black" d="M133.74,-53.024C139.834,-62.6827 169.444,-109.618 175.849,-119.769"/>
</g>
<!-- 2&#45;&#45;4 -->
<g id="edge11" class="edge"><title>2&#45;&#45;4</title>
<path fill="none" stroke="black" d="M83.8331,-3.16777C78.1794,-7.62629 60.3351,-21.6985 54.8968,-25.9872"/>
</g>
<!-- 2&#45;&#45;6 -->
<g id="edge12" class="edge"><title>2&#45;&#45;6</title>
<path fill="none" stroke="black" d="M83.8179,-2.57795C72.9164,-7.42525 14.4135,-33.4382 3.53998,-38.273"/>
</g>
<!-- 3&#45;&#45;5 -->
<g id="edge13" class="edge"><title>3&#45;&#45;5</title>
<path fill="none" stroke="black" d="M122.915,-119.625C118,-126.775 100.414,-152.359 95.5651,-159.413"/>
</g>
<!-- 3&#45;&#45;7 -->
<g id="edge14" class="edge"><title>3&#45;&#45;7</title>
<path fill="none" stroke="black" d="M126.471,-117.927C135.168,-118.577 166.287,-120.902 174.867,-121.543"/>
</g>
<!-- 4&#45;&#45;6 -->
<g id="edge15" class="edge"><title>4&#45;&#45;6</title>
<path fill="none" stroke="black" d="M51.0948,-27.7474C42.6223,-29.6895 12.3064,-36.6384 3.94766,-38.5544"/>
</g>
<!-- 5&#45;&#45;7 -->
<g id="edge16" class="edge"><title>5&#45;&#45;7</title>
<path fill="none" stroke="black" d="M96.0477,-160.4C106.817,-155.257 164.611,-127.658 175.353,-122.529"/>
</g>
</g>
</svg>
