<?xml version="1.0" encoding="UTF-8" standalone="no"?>
<!DOCTYPE svg PUBLIC "-//W3C//DTD SVG 1.1//EN"
 "http://www.w3.org/Graphics/SVG/1.1/DTD/svg11.dtd">
<!-- Generated by graphviz version 2.36.0 (20140111.2315)
 -->
<!-- Title: %3 Pages: 1 -->
<svg width="129pt" height="162pt"
 viewBox="0.00 0.00 129.19 162.10" xmlns="http://www.w3.org/2000/svg" xmlns:xlink="http://www.w3.org/1999/xlink">
<g id="graph0" class="graph" transform="scale(1 1) rotate(0) translate(4 158.099)">
<title>%3</title>
<!-- 0 -->
<g id="node1" class="node"><title>0</title>
<ellipse fill="black" stroke="black" cx="23.8881" cy="-95.2416" rx="1.8" ry="1.8"/>
</g>
<!-- 1 -->
<g id="node2" class="node"><title>1</title>
<ellipse fill="black" stroke="black" cx="58.3479" cy="-71.2518" rx="1.8" ry="1.8"/>
</g>
<!-- 0&#45;&#45;1 -->
<g id="edge1" class="edge"><title>0&#45;&#45;1</title>
<path fill="none" stroke="black" d="M25.3688,-94.2108C30.934,-90.3365 50.5862,-76.6552 56.5917,-72.4745"/>
</g>
<!-- 2 -->
<g id="node3" class="node"><title>2</title>
<ellipse fill="black" stroke="black" cx="119.389" cy="-90.0154" rx="1.8" ry="1.8"/>
</g>
<!-- 0&#45;&#45;2 -->
<g id="edge2" class="edge"><title>0&#45;&#45;2</title>
<path fill="none" stroke="black" d="M25.8827,-95.1324C38.3112,-94.4523 105.008,-90.8023 117.405,-90.1239"/>
</g>
<!-- 3 -->
<g id="node4" class="node"><title>3</title>
<ellipse fill="black" stroke="black" cx="97.5353" cy="-121.793" rx="1.8" ry="1.8"/>
</g>
<!-- 0&#45;&#45;3 -->
<g id="edge3" class="edge"><title>0&#45;&#45;3</title>
<path fill="none" stroke="black" d="M25.7086,-95.8979C35.8978,-99.5714 85.7561,-117.546 95.7784,-121.16"/>
</g>
<!-- 5 -->
<g id="node5" class="node"><title>5</title>
<ellipse fill="black" stroke="black" cx="55.6803" cy="-152.299" rx="1.8" ry="1.8"/>
</g>
<!-- 0&#45;&#45;5 -->
<g id="edge4" class="edge"><title>0&#45;&#45;5</title>
<path fill="none" stroke="black" d="M24.9458,-97.14C29.7727,-105.803 49.6836,-141.537 54.586,-150.335"/>
</g>
<!-- 6 -->
<g id="node6" class="node"><title>6</title>
<ellipse fill="black" stroke="black" cx="1.8" cy="-31.0651" rx="1.8" ry="1.8"/>
</g>
<!-- 0&#45;&#45;6 -->
<g id="edge5" class="edge"><title>0&#45;&#45;6</title>
<path fill="none" stroke="black" d="M23.2508,-93.3901C20.0254,-84.0186 5.53018,-41.9031 2.39795,-32.8024"/>
</g>
<!-- 7 -->
<g id="node7" class="node"><title>7</title>
<ellipse fill="black" stroke="black" cx="42.2372" cy="-1.8" rx="1.8" ry="1.8"/>
</g>
<!-- 0&#45;&#45;7 -->
<g id="edge6" class="edge"><title>0&#45;&#45;7</title>
<path fill="none" stroke="black" d="M24.2713,-93.2899C26.6593,-81.1294 39.4742,-15.8702 41.8561,-3.74092"/>
</g>
<!-- 1&#45;&#45;2 -->
<g id="edge7" class="edge"><title>1&#45;&#45;2</title>
<path fill="none" stroke="black" d="M60.1089,-71.7931C68.8661,-74.4851 107.684,-86.4175 117.252,-89.3586"/>
</g>
<!-- 1&#45;&#45;3 -->
<g id="edge8" class="edge"><title>1&#45;&#45;3</title>
<path fill="none" stroke="black" d="M59.6518,-72.9334C65.6014,-80.6069 90.1438,-112.26 96.1864,-120.053"/>
</g>
<!-- 1&#45;&#45;5 -->
<g id="edge9" class="edge"><title>1&#45;&#45;5</title>
<path fill="none" stroke="black" d="M58.282,-73.2552C57.9129,-84.4683 56.107,-139.336 55.744,-150.366"/>
</g>
<!-- 1&#45;&#45;6 -->
<g id="edge10" class="edge"><title>1&#45;&#45;6</title>
<path fill="none" stroke="black" d="M56.4665,-69.9147C47.7277,-63.7044 11.1927,-37.7402 3.30523,-32.1348"/>
</g>
<!-- 1&#45;&#45;7 -->
<g id="edge11" class="edge"><title>1&#45;&#45;7</title>
<path fill="none" stroke="black" d="M57.8831,-69.2482C55.5305,-59.1063 44.9579,-13.5289 42.6733,-3.68014"/>
</g>
<!-- 2&#45;&#45;3 -->
<g id="edge12" class="edge"><title>2&#45;&#45;3</title>
<path fill="none" stroke="black" d="M118.214,-91.7239C114.384,-97.2931 102.296,-114.871 98.6116,-120.228"/>
</g>
<!-- 2&#45;&#45;5 -->
<g id="edge14" class="edge"><title>2&#45;&#45;5</title>
<path fill="none" stroke="black" d="M117.814,-91.555C108.923,-100.247 65.1172,-143.073 56.9818,-151.027"/>
</g>
<!-- 4 -->
<g id="node8" class="node"><title>4</title>
<ellipse fill="black" stroke="black" cx="101.239" cy="-25.733" rx="1.8" ry="1.8"/>
</g>
<!-- 2&#45;&#45;4 -->
<g id="edge13" class="edge"><title>2&#45;&#45;4</title>
<path fill="none" stroke="black" d="M118.865,-88.1609C116.215,-78.7739 104.304,-36.5889 101.73,-27.4732"/>
</g>
<!-- 3&#45;&#45;5 -->
<g id="edge16" class="edge"><title>3&#45;&#45;5</title>
<path fill="none" stroke="black" d="M95.7368,-123.104C88.8521,-128.122 64.2178,-146.076 57.4255,-151.027"/>
</g>
<!-- 3&#45;&#45;4 -->
<g id="edge15" class="edge"><title>3&#45;&#45;4</title>
<path fill="none" stroke="black" d="M97.6127,-119.787C98.0946,-107.285 100.681,-40.1974 101.162,-27.7283"/>
</g>
<!-- 6&#45;&#45;7 -->
<g id="edge19" class="edge"><title>6&#45;&#45;7</title>
<path fill="none" stroke="black" d="M3.53754,-29.8076C10.189,-24.9938 33.989,-7.7694 40.5511,-3.02023"/>
</g>
<!-- 4&#45;&#45;6 -->
<g id="edge17" class="edge"><title>4&#45;&#45;6</title>
<path fill="none" stroke="black" d="M99.1619,-25.8444C86.2209,-26.5383 16.7732,-30.2622 3.86549,-30.9544"/>
</g>
<!-- 4&#45;&#45;7 -->
<g id="edge18" class="edge"><title>4&#45;&#45;7</title>
<path fill="none" stroke="black" d="M99.5367,-25.0425C91.072,-21.609 53.5506,-6.38908 44.3025,-2.63775"/>
</g>
</g>
</svg>
