<?xml version="1.0" encoding="UTF-8" standalone="no"?>
<!DOCTYPE svg PUBLIC "-//W3C//DTD SVG 1.1//EN"
 "http://www.w3.org/Graphics/SVG/1.1/DTD/svg11.dtd">
<!-- Generated by graphviz version 2.36.0 (20140111.2315)
 -->
<!-- Title: %3 Pages: 1 -->
<svg width="159pt" height="123pt"
 viewBox="0.00 0.00 159.37 123.43" xmlns="http://www.w3.org/2000/svg" xmlns:xlink="http://www.w3.org/1999/xlink">
<g id="graph0" class="graph" transform="scale(1 1) rotate(0) translate(4 119.426)">
<title>%3</title>
<!-- 0 -->
<g id="node1" class="node"><title>0</title>
<ellipse fill="black" stroke="black" cx="58.2588" cy="-55.6411" rx="1.8" ry="1.8"/>
</g>
<!-- 1 -->
<g id="node2" class="node"><title>1</title>
<ellipse fill="black" stroke="black" cx="73.7968" cy="-1.8" rx="1.8" ry="1.8"/>
</g>
<!-- 0&#45;&#45;1 -->
<g id="edge1" class="edge"><title>0&#45;&#45;1</title>
<path fill="none" stroke="black" d="M58.7758,-53.8497C61.1348,-45.6753 70.866,-11.9555 73.2619,-3.65333"/>
</g>
<!-- 2 -->
<g id="node3" class="node"><title>2</title>
<ellipse fill="black" stroke="black" cx="96.7627" cy="-112.951" rx="1.8" ry="1.8"/>
</g>
<!-- 0&#45;&#45;2 -->
<g id="edge2" class="edge"><title>0&#45;&#45;2</title>
<path fill="none" stroke="black" d="M59.5399,-57.5479C65.4902,-66.4044 90.3671,-103.432 95.7378,-111.426"/>
</g>
<!-- 3 -->
<g id="node4" class="node"><title>3</title>
<ellipse fill="black" stroke="black" cx="37.9478" cy="-113.626" rx="1.8" ry="1.8"/>
</g>
<!-- 0&#45;&#45;3 -->
<g id="edge3" class="edge"><title>0&#45;&#45;3</title>
<path fill="none" stroke="black" d="M57.583,-57.5704C54.4993,-66.3739 41.7789,-102.689 38.6469,-111.63"/>
</g>
<!-- 4 -->
<g id="node5" class="node"><title>4</title>
<ellipse fill="black" stroke="black" cx="118.316" cy="-70.2833" rx="1.8" ry="1.8"/>
</g>
<!-- 0&#45;&#45;4 -->
<g id="edge4" class="edge"><title>0&#45;&#45;4</title>
<path fill="none" stroke="black" d="M60.257,-56.1283C69.3752,-58.3514 106.988,-67.5215 116.248,-69.7793"/>
</g>
<!-- 5 -->
<g id="node6" class="node"><title>5</title>
<ellipse fill="black" stroke="black" cx="9.72035" cy="-72.6558" rx="1.8" ry="1.8"/>
</g>
<!-- 0&#45;&#45;5 -->
<g id="edge5" class="edge"><title>0&#45;&#45;5</title>
<path fill="none" stroke="black" d="M56.1731,-56.3722C48.1891,-59.171 19.6211,-69.1852 11.7442,-71.9464"/>
</g>
<!-- 6 -->
<g id="node7" class="node"><title>6</title>
<ellipse fill="black" stroke="black" cx="1.8" cy="-20.4093" rx="1.8" ry="1.8"/>
</g>
<!-- 0&#45;&#45;6 -->
<g id="edge6" class="edge"><title>0&#45;&#45;6</title>
<path fill="none" stroke="black" d="M56.3803,-54.4689C47.8084,-49.1198 12.4493,-27.0547 3.74344,-21.6221"/>
</g>
<!-- 1&#45;&#45;4 -->
<g id="edge7" class="edge"><title>1&#45;&#45;4</title>
<path fill="none" stroke="black" d="M74.8973,-3.49286C81.003,-12.8853 110.673,-58.5265 117.09,-68.3982"/>
</g>
<!-- 1&#45;&#45;5 -->
<g id="edge8" class="edge"><title>1&#45;&#45;5</title>
<path fill="none" stroke="black" d="M72.4585,-3.27993C64.1195,-12.5011 19.3688,-61.9866 11.0513,-71.1841"/>
</g>
<!-- 1&#45;&#45;6 -->
<g id="edge9" class="edge"><title>1&#45;&#45;6</title>
<path fill="none" stroke="black" d="M72.0171,-2.26001C62.1428,-4.81225 14.16,-17.2146 3.78187,-19.897"/>
</g>
<!-- 7 -->
<g id="node8" class="node"><title>7</title>
<ellipse fill="black" stroke="black" cx="149.573" cy="-28.7618" rx="1.8" ry="1.8"/>
</g>
<!-- 1&#45;&#45;7 -->
<g id="edge10" class="edge"><title>1&#45;&#45;7</title>
<path fill="none" stroke="black" d="M75.6699,-2.46648C86.1537,-6.1967 137.453,-24.4495 147.765,-28.1186"/>
</g>
<!-- 2&#45;&#45;3 -->
<g id="edge11" class="edge"><title>2&#45;&#45;3</title>
<path fill="none" stroke="black" d="M94.8058,-112.973C85.8762,-113.076 49.0415,-113.498 39.9723,-113.602"/>
</g>
<!-- 2&#45;&#45;4 -->
<g id="edge12" class="edge"><title>2&#45;&#45;4</title>
<path fill="none" stroke="black" d="M97.6888,-111.118C101.234,-104.099 113.919,-78.9866 117.417,-72.0624"/>
</g>
<!-- 2&#45;&#45;5 -->
<g id="edge13" class="edge"><title>2&#45;&#45;5</title>
<path fill="none" stroke="black" d="M94.9447,-112.109C83.617,-106.865 22.8269,-78.7234 11.5283,-73.4928"/>
</g>
<!-- 2&#45;&#45;7 -->
<g id="edge14" class="edge"><title>2&#45;&#45;7</title>
<path fill="none" stroke="black" d="M97.8657,-111.193C104.738,-100.236 141.621,-41.4388 148.476,-30.5106"/>
</g>
<!-- 3&#45;&#45;4 -->
<g id="edge15" class="edge"><title>3&#45;&#45;4</title>
<path fill="none" stroke="black" d="M39.6264,-112.72C50.0855,-107.08 106.214,-76.8097 116.646,-71.1836"/>
</g>
<!-- 3&#45;&#45;5 -->
<g id="edge16" class="edge"><title>3&#45;&#45;5</title>
<path fill="none" stroke="black" d="M36.7349,-111.865C32.0918,-105.126 15.4781,-81.0127 10.8973,-74.3641"/>
</g>
<!-- 3&#45;&#45;6 -->
<g id="edge17" class="edge"><title>3&#45;&#45;6</title>
<path fill="none" stroke="black" d="M37.1928,-111.679C32.4885,-99.5475 7.24302,-34.4455 2.55084,-22.3455"/>
</g>
<!-- 4&#45;&#45;7 -->
<g id="edge18" class="edge"><title>4&#45;&#45;7</title>
<path fill="none" stroke="black" d="M119.659,-68.4992C124.8,-61.6693 143.197,-37.2312 148.27,-30.4931"/>
</g>
<!-- 5&#45;&#45;6 -->
<g id="edge19" class="edge"><title>5&#45;&#45;6</title>
<path fill="none" stroke="black" d="M9.38002,-70.4109C8.07721,-61.8169 3.41557,-31.0664 2.13024,-22.5877"/>
</g>
</g>
</svg>
