<?xml version="1.0" encoding="UTF-8" standalone="no"?>
<!DOCTYPE svg PUBLIC "-//W3C//DTD SVG 1.1//EN"
 "http://www.w3.org/Graphics/SVG/1.1/DTD/svg11.dtd">
<!-- Generated by graphviz version 2.36.0 (20140111.2315)
 -->
<!-- Title: %3 Pages: 1 -->
<svg width="142pt" height="154pt"
 viewBox="0.00 0.00 141.62 153.98" xmlns="http://www.w3.org/2000/svg" xmlns:xlink="http://www.w3.org/1999/xlink">
<g id="graph0" class="graph" transform="scale(1 1) rotate(0) translate(4 149.977)">
<title>%3</title>
<!-- 0 -->
<g id="node1" class="node"><title>0</title>
<ellipse fill="black" stroke="black" cx="50.5274" cy="-82.3904" rx="1.8" ry="1.8"/>
</g>
<!-- 1 -->
<g id="node2" class="node"><title>1</title>
<ellipse fill="black" stroke="black" cx="3.84868" cy="-86.7583" rx="1.8" ry="1.8"/>
</g>
<!-- 0&#45;&#45;1 -->
<g id="edge1" class="edge"><title>0&#45;&#45;1</title>
<path fill="none" stroke="black" d="M48.5217,-82.578C40.8435,-83.2965 13.37,-85.8673 5.79497,-86.5761"/>
</g>
<!-- 2 -->
<g id="node3" class="node"><title>2</title>
<ellipse fill="black" stroke="black" cx="95.7128" cy="-16.8886" rx="1.8" ry="1.8"/>
</g>
<!-- 0&#45;&#45;2 -->
<g id="edge2" class="edge"><title>0&#45;&#45;2</title>
<path fill="none" stroke="black" d="M51.6444,-80.7712C57.8415,-71.7877 87.9557,-28.1336 94.469,-18.6917"/>
</g>
<!-- 3 -->
<g id="node4" class="node"><title>3</title>
<ellipse fill="black" stroke="black" cx="97.2133" cy="-104.499" rx="1.8" ry="1.8"/>
</g>
<!-- 0&#45;&#45;3 -->
<g id="edge3" class="edge"><title>0&#45;&#45;3</title>
<path fill="none" stroke="black" d="M52.5334,-83.3404C60.2128,-86.9771 87.6904,-99.9897 95.2667,-103.578"/>
</g>
<!-- 4 -->
<g id="node5" class="node"><title>4</title>
<ellipse fill="black" stroke="black" cx="50.0566" cy="-22.3284" rx="1.8" ry="1.8"/>
</g>
<!-- 0&#45;&#45;4 -->
<g id="edge4" class="edge"><title>0&#45;&#45;4</title>
<path fill="none" stroke="black" d="M50.5117,-80.392C50.4403,-71.273 50.1454,-33.6573 50.0728,-24.3959"/>
</g>
<!-- 6 -->
<g id="node6" class="node"><title>6</title>
<ellipse fill="black" stroke="black" cx="63.8448" cy="-144.177" rx="1.8" ry="1.8"/>
</g>
<!-- 0&#45;&#45;6 -->
<g id="edge5" class="edge"><title>0&#45;&#45;6</title>
<path fill="none" stroke="black" d="M50.9116,-84.1729C52.8222,-93.0371 61.2912,-132.33 63.3787,-142.014"/>
</g>
<!-- 1&#45;&#45;3 -->
<g id="edge6" class="edge"><title>1&#45;&#45;3</title>
<path fill="none" stroke="black" d="M5.79873,-87.1288C17.9492,-89.4377 83.1547,-101.828 95.2739,-104.131"/>
</g>
<!-- 1&#45;&#45;4 -->
<g id="edge7" class="edge"><title>1&#45;&#45;4</title>
<path fill="none" stroke="black" d="M4.9909,-85.1656C11.3283,-76.3291 42.1239,-33.3893 48.7846,-24.102"/>
</g>
<!-- 1&#45;&#45;6 -->
<g id="edge8" class="edge"><title>1&#45;&#45;6</title>
<path fill="none" stroke="black" d="M5.33173,-88.1776C13.5601,-96.0525 53.545,-134.32 62.1933,-142.596"/>
</g>
<!-- 7 -->
<g id="node7" class="node"><title>7</title>
<ellipse fill="black" stroke="black" cx="1.8" cy="-1.8" rx="1.8" ry="1.8"/>
</g>
<!-- 1&#45;&#45;7 -->
<g id="edge9" class="edge"><title>1&#45;&#45;7</title>
<path fill="none" stroke="black" d="M3.79803,-84.6582C3.5146,-72.904 2.12767,-15.3883 1.84887,-3.82669"/>
</g>
<!-- 2&#45;&#45;3 -->
<g id="edge10" class="edge"><title>2&#45;&#45;3</title>
<path fill="none" stroke="black" d="M95.7442,-18.7185C95.9394,-30.1202 96.9873,-91.3073 97.1821,-102.68"/>
</g>
<!-- 2&#45;&#45;4 -->
<g id="edge11" class="edge"><title>2&#45;&#45;4</title>
<path fill="none" stroke="black" d="M93.751,-17.1223C86.2411,-18.0171 59.3694,-21.2188 51.9603,-22.1016"/>
</g>
<!-- 2&#45;&#45;7 -->
<g id="edge13" class="edge"><title>2&#45;&#45;7</title>
<path fill="none" stroke="black" d="M93.7513,-16.5734C81.5295,-14.6098 15.9411,-4.07199 3.75071,-2.11341"/>
</g>
<!-- 5 -->
<g id="node8" class="node"><title>5</title>
<ellipse fill="black" stroke="black" cx="131.816" cy="-68.2088" rx="1.8" ry="1.8"/>
</g>
<!-- 2&#45;&#45;5 -->
<g id="edge12" class="edge"><title>2&#45;&#45;5</title>
<path fill="none" stroke="black" d="M96.9141,-18.5961C102.395,-26.3878 125.006,-58.5287 130.573,-66.4422"/>
</g>
<!-- 3&#45;&#45;6 -->
<g id="edge15" class="edge"><title>3&#45;&#45;6</title>
<path fill="none" stroke="black" d="M95.7795,-106.204C90.2907,-112.731 70.6512,-136.084 65.2361,-142.523"/>
</g>
<!-- 3&#45;&#45;5 -->
<g id="edge14" class="edge"><title>3&#45;&#45;5</title>
<path fill="none" stroke="black" d="M98.7001,-102.94C104.392,-96.9706 124.758,-75.6112 130.373,-69.7219"/>
</g>
<!-- 4&#45;&#45;7 -->
<g id="edge17" class="edge"><title>4&#45;&#45;7</title>
<path fill="none" stroke="black" d="M47.9831,-21.4463C40.0454,-18.0696 11.6432,-5.98732 3.81209,-2.65594"/>
</g>
<!-- 4&#45;&#45;5 -->
<g id="edge16" class="edge"><title>4&#45;&#45;5</title>
<path fill="none" stroke="black" d="M51.7643,-23.2867C62.4045,-29.2576 119.505,-61.3002 130.118,-67.2558"/>
</g>
<!-- 5&#45;&#45;6 -->
<g id="edge18" class="edge"><title>5&#45;&#45;6</title>
<path fill="none" stroke="black" d="M130.397,-69.7955C121.551,-79.682 74.0798,-132.738 65.2567,-142.599"/>
</g>
</g>
</svg>
