<?xml version="1.0" encoding="UTF-8" standalone="no"?>
<!DOCTYPE svg PUBLIC "-//W3C//DTD SVG 1.1//EN"
 "http://www.w3.org/Graphics/SVG/1.1/DTD/svg11.dtd">
<!-- Generated by graphviz version 2.36.0 (20140111.2315)
 -->
<!-- Title: %3 Pages: 1 -->
<svg width="139pt" height="158pt"
 viewBox="0.00 0.00 139.48 158.21" xmlns="http://www.w3.org/2000/svg" xmlns:xlink="http://www.w3.org/1999/xlink">
<g id="graph0" class="graph" transform="scale(1 1) rotate(0) translate(4 154.211)">
<title>%3</title>
<!-- 0 -->
<g id="node1" class="node"><title>0</title>
<ellipse fill="black" stroke="black" cx="86.0863" cy="-92.2719" rx="1.8" ry="1.8"/>
</g>
<!-- 1 -->
<g id="node2" class="node"><title>1</title>
<ellipse fill="black" stroke="black" cx="62.7407" cy="-33.4557" rx="1.8" ry="1.8"/>
</g>
<!-- 0&#45;&#45;1 -->
<g id="edge1" class="edge"><title>0&#45;&#45;1</title>
<path fill="none" stroke="black" d="M85.4128,-90.5751C82.0635,-82.137 67.2172,-44.7335 63.5579,-35.5145"/>
</g>
<!-- 2 -->
<g id="node3" class="node"><title>2</title>
<ellipse fill="black" stroke="black" cx="42.006" cy="-54.0733" rx="1.8" ry="1.8"/>
</g>
<!-- 0&#45;&#45;2 -->
<g id="edge2" class="edge"><title>0&#45;&#45;2</title>
<path fill="none" stroke="black" d="M84.6197,-91.001C77.9271,-85.2014 50.3204,-61.2784 43.5233,-55.3882"/>
</g>
<!-- 3 -->
<g id="node4" class="node"><title>3</title>
<ellipse fill="black" stroke="black" cx="16.2315" cy="-103.364" rx="1.8" ry="1.8"/>
</g>
<!-- 0&#45;&#45;3 -->
<g id="edge3" class="edge"><title>0&#45;&#45;3</title>
<path fill="none" stroke="black" d="M84.071,-92.5919C73.8703,-94.2116 28.0284,-101.491 18.1226,-103.064"/>
</g>
<!-- 4 -->
<g id="node5" class="node"><title>4</title>
<ellipse fill="black" stroke="black" cx="93.0904" cy="-1.8" rx="1.8" ry="1.8"/>
</g>
<!-- 0&#45;&#45;4 -->
<g id="edge4" class="edge"><title>0&#45;&#45;4</title>
<path fill="none" stroke="black" d="M86.2326,-90.3823C87.1441,-78.6082 92.0358,-15.423 92.9449,-3.67924"/>
</g>
<!-- 7 -->
<g id="node6" class="node"><title>7</title>
<ellipse fill="black" stroke="black" cx="91.3808" cy="-148.411" rx="1.8" ry="1.8"/>
</g>
<!-- 0&#45;&#45;7 -->
<g id="edge5" class="edge"><title>0&#45;&#45;7</title>
<path fill="none" stroke="black" d="M86.2624,-94.1397C87.0663,-102.663 90.3821,-137.822 91.1985,-146.479"/>
</g>
<!-- 1&#45;&#45;3 -->
<g id="edge6" class="edge"><title>1&#45;&#45;3</title>
<path fill="none" stroke="black" d="M61.5911,-35.1838C55.2124,-44.7716 24.2159,-91.3626 17.5118,-101.44"/>
</g>
<!-- 1&#45;&#45;4 -->
<g id="edge7" class="edge"><title>1&#45;&#45;4</title>
<path fill="none" stroke="black" d="M64.0448,-32.0955C69.037,-26.8885 86.8998,-8.25703 91.825,-3.1199"/>
</g>
<!-- 5 -->
<g id="node7" class="node"><title>5</title>
<ellipse fill="black" stroke="black" cx="1.8" cy="-14.1819" rx="1.8" ry="1.8"/>
</g>
<!-- 1&#45;&#45;5 -->
<g id="edge8" class="edge"><title>1&#45;&#45;5</title>
<path fill="none" stroke="black" d="M60.9826,-32.8997C52.2397,-30.1345 13.4852,-17.8776 3.93318,-14.8566"/>
</g>
<!-- 6 -->
<g id="node8" class="node"><title>6</title>
<ellipse fill="black" stroke="black" cx="129.684" cy="-65.2807" rx="1.8" ry="1.8"/>
</g>
<!-- 1&#45;&#45;6 -->
<g id="edge9" class="edge"><title>1&#45;&#45;6</title>
<path fill="none" stroke="black" d="M64.3955,-34.2424C73.5767,-38.6072 118.191,-59.8172 127.841,-64.4047"/>
</g>
<!-- 2&#45;&#45;3 -->
<g id="edge10" class="edge"><title>2&#45;&#45;3</title>
<path fill="none" stroke="black" d="M41.1484,-55.7133C37.2352,-63.1969 21.0931,-94.0668 17.1187,-101.667"/>
</g>
<!-- 2&#45;&#45;4 -->
<g id="edge11" class="edge"><title>2&#45;&#45;4</title>
<path fill="none" stroke="black" d="M43.2687,-52.7812C50.2749,-45.612 84.3205,-10.774 91.6842,-3.23894"/>
</g>
<!-- 2&#45;&#45;5 -->
<g id="edge12" class="edge"><title>2&#45;&#45;5</title>
<path fill="none" stroke="black" d="M40.6682,-52.7461C34.5639,-46.6895 9.38367,-21.7063 3.18398,-15.5551"/>
</g>
<!-- 2&#45;&#45;6 -->
<g id="edge13" class="edge"><title>2&#45;&#45;6</title>
<path fill="none" stroke="black" d="M43.8372,-54.3074C55.2477,-55.766 116.482,-63.5931 127.863,-65.0479"/>
</g>
<!-- 3&#45;&#45;7 -->
<g id="edge15" class="edge"><title>3&#45;&#45;7</title>
<path fill="none" stroke="black" d="M17.8011,-104.305C27.5811,-110.167 80.065,-141.628 89.8198,-147.475"/>
</g>
<!-- 3&#45;&#45;5 -->
<g id="edge14" class="edge"><title>3&#45;&#45;5</title>
<path fill="none" stroke="black" d="M15.9301,-101.501C14.052,-89.8951 3.97305,-27.6107 2.09976,-16.0344"/>
</g>
<!-- 4&#45;&#45;5 -->
<g id="edge16" class="edge"><title>4&#45;&#45;5</title>
<path fill="none" stroke="black" d="M91.1837,-2.05861C79.3031,-3.67 15.5462,-12.3175 3.69624,-13.9247"/>
</g>
<!-- 4&#45;&#45;6 -->
<g id="edge17" class="edge"><title>4&#45;&#45;6</title>
<path fill="none" stroke="black" d="M93.995,-3.36919C99.0137,-12.0755 123.402,-54.3827 128.677,-63.5333"/>
</g>
<!-- 6&#45;&#45;7 -->
<g id="edge18" class="edge"><title>6&#45;&#45;7</title>
<path fill="none" stroke="black" d="M128.884,-67.017C123.899,-77.8356 97.1483,-135.894 92.1764,-146.684"/>
</g>
</g>
</svg>
