<?xml version="1.0" encoding="UTF-8" standalone="no"?>
<!DOCTYPE svg PUBLIC "-//W3C//DTD SVG 1.1//EN"
 "http://www.w3.org/Graphics/SVG/1.1/DTD/svg11.dtd">
<!-- Generated by graphviz version 2.36.0 (20140111.2315)
 -->
<!-- Title: %3 Pages: 1 -->
<svg width="129pt" height="142pt"
 viewBox="0.00 0.00 129.07 142.20" xmlns="http://www.w3.org/2000/svg" xmlns:xlink="http://www.w3.org/1999/xlink">
<g id="graph0" class="graph" transform="scale(1 1) rotate(0) translate(4 138.198)">
<title>%3</title>
<!-- 0 -->
<g id="node1" class="node"><title>0</title>
<ellipse fill="black" stroke="black" cx="8.39381" cy="-85.4575" rx="1.8" ry="1.8"/>
</g>
<!-- 1 -->
<g id="node2" class="node"><title>1</title>
<ellipse fill="black" stroke="black" cx="61.7942" cy="-67.5708" rx="1.8" ry="1.8"/>
</g>
<!-- 0&#45;&#45;1 -->
<g id="edge1" class="edge"><title>0&#45;&#45;1</title>
<path fill="none" stroke="black" d="M10.1705,-84.8623C18.2781,-82.1467 51.7218,-70.9446 59.9561,-68.1865"/>
</g>
<!-- 2 -->
<g id="node3" class="node"><title>2</title>
<ellipse fill="black" stroke="black" cx="78.7508" cy="-24.3571" rx="1.8" ry="1.8"/>
</g>
<!-- 0&#45;&#45;2 -->
<g id="edge2" class="edge"><title>0&#45;&#45;2</title>
<path fill="none" stroke="black" d="M9.86332,-84.1813C19.0196,-76.2297 68.1566,-33.5574 77.2894,-25.6262"/>
</g>
<!-- 3 -->
<g id="node4" class="node"><title>3</title>
<ellipse fill="black" stroke="black" cx="81.3262" cy="-108.152" rx="1.8" ry="1.8"/>
</g>
<!-- 0&#45;&#45;3 -->
<g id="edge3" class="edge"><title>0&#45;&#45;3</title>
<path fill="none" stroke="black" d="M10.1966,-86.0185C20.287,-89.1584 69.6613,-104.523 79.5864,-107.611"/>
</g>
<!-- 5 -->
<g id="node5" class="node"><title>5</title>
<ellipse fill="black" stroke="black" cx="1.8" cy="-48.9322" rx="1.8" ry="1.8"/>
</g>
<!-- 0&#45;&#45;5 -->
<g id="edge4" class="edge"><title>0&#45;&#45;5</title>
<path fill="none" stroke="black" d="M8.0393,-83.4937C6.8837,-77.0925 3.23633,-56.8885 2.12474,-50.731"/>
</g>
<!-- 6 -->
<g id="node6" class="node"><title>6</title>
<ellipse fill="black" stroke="black" cx="40.4394" cy="-132.398" rx="1.8" ry="1.8"/>
</g>
<!-- 0&#45;&#45;6 -->
<g id="edge5" class="edge"><title>0&#45;&#45;6</title>
<path fill="none" stroke="black" d="M9.46003,-87.0193C14.3254,-94.1461 34.3949,-123.544 39.3363,-130.783"/>
</g>
<!-- 7 -->
<g id="node7" class="node"><title>7</title>
<ellipse fill="black" stroke="black" cx="38.3992" cy="-1.8" rx="1.8" ry="1.8"/>
</g>
<!-- 0&#45;&#45;7 -->
<g id="edge6" class="edge"><title>0&#45;&#45;7</title>
<path fill="none" stroke="black" d="M9.02052,-83.7102C12.9254,-72.8229 33.8811,-14.3969 37.7759,-3.53769"/>
</g>
<!-- 1&#45;&#45;2 -->
<g id="edge7" class="edge"><title>1&#45;&#45;2</title>
<path fill="none" stroke="black" d="M62.5228,-65.714C65.312,-58.6058 75.292,-33.1717 78.0438,-26.1589"/>
</g>
<!-- 1&#45;&#45;3 -->
<g id="edge8" class="edge"><title>1&#45;&#45;3</title>
<path fill="none" stroke="black" d="M62.6335,-69.3146C65.8463,-75.9898 77.3422,-99.8748 80.5118,-106.46"/>
</g>
<!-- 1&#45;&#45;6 -->
<g id="edge10" class="edge"><title>1&#45;&#45;6</title>
<path fill="none" stroke="black" d="M61.1781,-69.4411C58.0597,-78.9077 44.0457,-121.45 41.0175,-130.643"/>
</g>
<!-- 1&#45;&#45;7 -->
<g id="edge11" class="edge"><title>1&#45;&#45;7</title>
<path fill="none" stroke="black" d="M61.1193,-65.6734C57.703,-56.069 42.3501,-12.9072 39.0325,-3.58049"/>
</g>
<!-- 4 -->
<g id="node8" class="node"><title>4</title>
<ellipse fill="black" stroke="black" cx="119.268" cy="-64.8388" rx="1.8" ry="1.8"/>
</g>
<!-- 1&#45;&#45;4 -->
<g id="edge9" class="edge"><title>1&#45;&#45;4</title>
<path fill="none" stroke="black" d="M63.7065,-67.4799C72.4325,-67.0651 108.427,-65.3541 117.29,-64.9329"/>
</g>
<!-- 2&#45;&#45;3 -->
<g id="edge12" class="edge"><title>2&#45;&#45;3</title>
<path fill="none" stroke="black" d="M78.8144,-26.4284C79.1708,-38.0217 80.9143,-94.7502 81.2648,-106.154"/>
</g>
<!-- 2&#45;&#45;5 -->
<g id="edge14" class="edge"><title>2&#45;&#45;5</title>
<path fill="none" stroke="black" d="M76.8486,-24.9646C66.2023,-28.3646 14.1076,-45.0016 3.63568,-48.3459"/>
</g>
<!-- 2&#45;&#45;7 -->
<g id="edge15" class="edge"><title>2&#45;&#45;7</title>
<path fill="none" stroke="black" d="M77.0169,-23.3878C70.3795,-19.6774 46.63,-6.40112 40.0817,-2.74053"/>
</g>
<!-- 2&#45;&#45;4 -->
<g id="edge13" class="edge"><title>2&#45;&#45;4</title>
<path fill="none" stroke="black" d="M80.0989,-25.704C86.2505,-31.8502 111.626,-57.2031 117.873,-63.4453"/>
</g>
<!-- 3&#45;&#45;5 -->
<g id="edge17" class="edge"><title>3&#45;&#45;5</title>
<path fill="none" stroke="black" d="M79.6652,-106.916C69.3156,-99.2086 13.7748,-57.8494 3.45188,-50.1623"/>
</g>
<!-- 3&#45;&#45;6 -->
<g id="edge18" class="edge"><title>3&#45;&#45;6</title>
<path fill="none" stroke="black" d="M79.5694,-109.194C72.8439,-113.183 48.7793,-127.453 42.1442,-131.387"/>
</g>
<!-- 3&#45;&#45;4 -->
<g id="edge16" class="edge"><title>3&#45;&#45;4</title>
<path fill="none" stroke="black" d="M82.5886,-106.711C88.3492,-100.135 112.112,-73.0087 117.962,-66.3298"/>
</g>
<!-- 5&#45;&#45;6 -->
<g id="edge21" class="edge"><title>5&#45;&#45;6</title>
<path fill="none" stroke="black" d="M2.60704,-50.6755C7.63558,-61.5378 34.6212,-119.83 39.6368,-130.665"/>
</g>
<!-- 5&#45;&#45;7 -->
<g id="edge22" class="edge"><title>5&#45;&#45;7</title>
<path fill="none" stroke="black" d="M3.01772,-47.364C8.57442,-40.2081 31.4958,-10.6901 37.1394,-3.4224"/>
</g>
<!-- 4&#45;&#45;6 -->
<g id="edge19" class="edge"><title>4&#45;&#45;6</title>
<path fill="none" stroke="black" d="M117.9,-66.0114C108.414,-74.1416 52.5037,-122.059 42.104,-130.972"/>
</g>
<!-- 4&#45;&#45;7 -->
<g id="edge20" class="edge"><title>4&#45;&#45;7</title>
<path fill="none" stroke="black" d="M117.579,-63.5222C107.055,-55.3183 50.5762,-11.2922 40.079,-3.10941"/>
</g>
</g>
</svg>
