<?xml version="1.0" encoding="UTF-8" standalone="no"?>
<!DOCTYPE svg PUBLIC "-//W3C//DTD SVG 1.1//EN"
 "http://www.w3.org/Graphics/SVG/1.1/DTD/svg11.dtd">
<!-- Generated by graphviz version 2.36.0 (20140111.2315)
 -->
<!-- Title: %3 Pages: 1 -->
<svg width="207pt" height="221pt"
 viewBox="0.00 0.00 207.04 220.73" xmlns="http://www.w3.org/2000/svg" xmlns:xlink="http://www.w3.org/1999/xlink">
<g id="graph0" class="graph" transform="scale(1 1) rotate(0) translate(4 216.732)">
<title>%3</title>
<!-- 0 -->
<g id="node1" class="node"><title>0</title>
<ellipse fill="black" stroke="black" cx="80.3284" cy="-133.355" rx="1.8" ry="1.8"/>
</g>
<!-- 1 -->
<g id="node2" class="node"><title>1</title>
<ellipse fill="black" stroke="black" cx="133.953" cy="-72.2398" rx="1.8" ry="1.8"/>
</g>
<!-- 0&#45;&#45;1 -->
<g id="edge1" class="edge"><title>0&#45;&#45;1</title>
<path fill="none" stroke="black" d="M81.654,-131.844C89.0086,-123.462 124.747,-82.7316 132.477,-73.9221"/>
</g>
<!-- 2 -->
<g id="node3" class="node"><title>2</title>
<ellipse fill="black" stroke="black" cx="108.705" cy="-60.2683" rx="1.8" ry="1.8"/>
</g>
<!-- 0&#45;&#45;2 -->
<g id="edge2" class="edge"><title>0&#45;&#45;2</title>
<path fill="none" stroke="black" d="M81.0298,-131.548C84.9558,-121.436 104.167,-71.9578 108.028,-62.0117"/>
</g>
<!-- 6 -->
<g id="node4" class="node"><title>6</title>
<ellipse fill="black" stroke="black" cx="1.8" cy="-150.189" rx="1.8" ry="1.8"/>
</g>
<!-- 0&#45;&#45;6 -->
<g id="edge3" class="edge"><title>0&#45;&#45;6</title>
<path fill="none" stroke="black" d="M78.3872,-133.771C67.5227,-136.1 14.3599,-147.496 3.67331,-149.787"/>
</g>
<!-- 7 -->
<g id="node5" class="node"><title>7</title>
<ellipse fill="black" stroke="black" cx="101.295" cy="-210.932" rx="1.8" ry="1.8"/>
</g>
<!-- 0&#45;&#45;7 -->
<g id="edge4" class="edge"><title>0&#45;&#45;7</title>
<path fill="none" stroke="black" d="M80.8467,-135.272C83.7475,-146.005 97.9419,-198.524 100.795,-209.081"/>
</g>
<!-- 3 -->
<g id="node6" class="node"><title>3</title>
<ellipse fill="black" stroke="black" cx="197.237" cy="-87.3917" rx="1.8" ry="1.8"/>
</g>
<!-- 1&#45;&#45;3 -->
<g id="edge5" class="edge"><title>1&#45;&#45;3</title>
<path fill="none" stroke="black" d="M135.779,-72.6769C144.858,-74.8507 185.103,-84.4863 195.022,-86.8613"/>
</g>
<!-- 4 -->
<g id="node7" class="node"><title>4</title>
<ellipse fill="black" stroke="black" cx="72.3536" cy="-5.0693" rx="1.8" ry="1.8"/>
</g>
<!-- 1&#45;&#45;4 -->
<g id="edge6" class="edge"><title>1&#45;&#45;4</title>
<path fill="none" stroke="black" d="M132.431,-70.5794C123.834,-61.2054 81.4782,-15.019 73.612,-6.44149"/>
</g>
<!-- 5 -->
<g id="node8" class="node"><title>5</title>
<ellipse fill="black" stroke="black" cx="162.955" cy="-1.8" rx="1.8" ry="1.8"/>
</g>
<!-- 1&#45;&#45;5 -->
<g id="edge7" class="edge"><title>1&#45;&#45;5</title>
<path fill="none" stroke="black" d="M134.67,-70.4986C138.683,-60.7531 158.317,-13.0662 162.263,-3.48035"/>
</g>
<!-- 2&#45;&#45;3 -->
<g id="edge8" class="edge"><title>2&#45;&#45;3</title>
<path fill="none" stroke="black" d="M110.554,-60.8348C122.076,-64.3646 183.906,-83.3075 195.398,-86.8283"/>
</g>
<!-- 2&#45;&#45;4 -->
<g id="edge9" class="edge"><title>2&#45;&#45;4</title>
<path fill="none" stroke="black" d="M107.496,-58.4317C101.977,-50.0511 79.2103,-15.481 73.6049,-6.96937"/>
</g>
<!-- 2&#45;&#45;5 -->
<g id="edge10" class="edge"><title>2&#45;&#45;5</title>
<path fill="none" stroke="black" d="M110.046,-58.823C117.487,-50.8041 153.642,-11.8375 161.462,-3.40947"/>
</g>
</g>
</svg>
