<?xml version="1.0" encoding="UTF-8" standalone="no"?>
<!DOCTYPE svg PUBLIC "-//W3C//DTD SVG 1.1//EN"
 "http://www.w3.org/Graphics/SVG/1.1/DTD/svg11.dtd">
<!-- Generated by graphviz version 2.36.0 (20140111.2315)
 -->
<!-- Title: %3 Pages: 1 -->
<svg width="165pt" height="205pt"
 viewBox="0.00 0.00 165.00 205.09" xmlns="http://www.w3.org/2000/svg" xmlns:xlink="http://www.w3.org/1999/xlink">
<g id="graph0" class="graph" transform="scale(1 1) rotate(0) translate(4 201.089)">
<title>%3</title>
<!-- 0 -->
<g id="node1" class="node"><title>0</title>
<ellipse fill="black" stroke="black" cx="93.9838" cy="-133.393" rx="1.8" ry="1.8"/>
</g>
<!-- 1 -->
<g id="node2" class="node"><title>1</title>
<ellipse fill="black" stroke="black" cx="43.3531" cy="-101.037" rx="1.8" ry="1.8"/>
</g>
<!-- 0&#45;&#45;1 -->
<g id="edge1" class="edge"><title>0&#45;&#45;1</title>
<path fill="none" stroke="black" d="M92.2992,-132.316C84.6122,-127.404 52.9031,-107.14 45.096,-102.15"/>
</g>
<!-- 2 -->
<g id="node3" class="node"><title>2</title>
<ellipse fill="black" stroke="black" cx="99.7021" cy="-54.7454" rx="1.8" ry="1.8"/>
</g>
<!-- 0&#45;&#45;2 -->
<g id="edge2" class="edge"><title>0&#45;&#45;2</title>
<path fill="none" stroke="black" d="M94.1252,-131.449C94.9163,-120.568 98.7875,-67.3244 99.5657,-56.6215"/>
</g>
<!-- 3 -->
<g id="node4" class="node"><title>3</title>
<ellipse fill="black" stroke="black" cx="70.5835" cy="-187.516" rx="1.8" ry="1.8"/>
</g>
<!-- 0&#45;&#45;3 -->
<g id="edge3" class="edge"><title>0&#45;&#45;3</title>
<path fill="none" stroke="black" d="M93.2052,-135.194C89.6525,-143.411 74.9973,-177.307 71.389,-185.653"/>
</g>
<!-- 4 -->
<g id="node5" class="node"><title>4</title>
<ellipse fill="black" stroke="black" cx="140.643" cy="-195.289" rx="1.8" ry="1.8"/>
</g>
<!-- 0&#45;&#45;4 -->
<g id="edge4" class="edge"><title>0&#45;&#45;4</title>
<path fill="none" stroke="black" d="M95.1372,-134.923C101.536,-143.412 132.633,-184.663 139.359,-193.585"/>
</g>
<!-- 5 -->
<g id="node6" class="node"><title>5</title>
<ellipse fill="black" stroke="black" cx="1.8" cy="-150.421" rx="1.8" ry="1.8"/>
</g>
<!-- 0&#45;&#45;5 -->
<g id="edge5" class="edge"><title>0&#45;&#45;5</title>
<path fill="none" stroke="black" d="M92.0584,-133.749C80.0616,-135.965 15.6808,-147.857 3.7148,-150.067"/>
</g>
<!-- 1&#45;&#45;2 -->
<g id="edge6" class="edge"><title>1&#45;&#45;2</title>
<path fill="none" stroke="black" d="M44.746,-99.8924C52.4742,-93.5436 90.0285,-62.6924 98.151,-56.0196"/>
</g>
<!-- 1&#45;&#45;3 -->
<g id="edge7" class="edge"><title>1&#45;&#45;3</title>
<path fill="none" stroke="black" d="M43.9219,-102.843C47.4657,-114.097 66.4833,-174.494 70.0179,-185.72"/>
</g>
<!-- 1&#45;&#45;5 -->
<g id="edge8" class="edge"><title>1&#45;&#45;5</title>
<path fill="none" stroke="black" d="M41.9706,-102.68C35.6617,-110.178 9.63777,-141.106 3.23035,-148.721"/>
</g>
<!-- 6 -->
<g id="node7" class="node"><title>6</title>
<ellipse fill="black" stroke="black" cx="28.2407" cy="-27.8425" rx="1.8" ry="1.8"/>
</g>
<!-- 1&#45;&#45;6 -->
<g id="edge9" class="edge"><title>1&#45;&#45;6</title>
<path fill="none" stroke="black" d="M42.9796,-99.2274C40.9069,-89.1889 30.8351,-40.408 28.6567,-29.8573"/>
</g>
<!-- 2&#45;&#45;6 -->
<g id="edge10" class="edge"><title>2&#45;&#45;6</title>
<path fill="none" stroke="black" d="M97.9357,-54.0804C88.0488,-50.3583 39.6703,-32.1454 29.9454,-28.4843"/>
</g>
<!-- 7 -->
<g id="node8" class="node"><title>7</title>
<ellipse fill="black" stroke="black" cx="155.2" cy="-1.8" rx="1.8" ry="1.8"/>
</g>
<!-- 2&#45;&#45;7 -->
<g id="edge11" class="edge"><title>2&#45;&#45;7</title>
<path fill="none" stroke="black" d="M101.074,-53.4366C108.685,-46.1752 145.672,-10.8894 153.672,-3.25744"/>
</g>
<!-- 3&#45;&#45;4 -->
<g id="edge12" class="edge"><title>3&#45;&#45;4</title>
<path fill="none" stroke="black" d="M72.6047,-187.74C82.8353,-188.875 128.811,-193.976 138.746,-195.078"/>
</g>
</g>
</svg>
