<?xml version="1.0" encoding="UTF-8" standalone="no"?>
<!DOCTYPE svg PUBLIC "-//W3C//DTD SVG 1.1//EN"
 "http://www.w3.org/Graphics/SVG/1.1/DTD/svg11.dtd">
<!-- Generated by graphviz version 2.36.0 (20140111.2315)
 -->
<!-- Title: %3 Pages: 1 -->
<svg width="194pt" height="147pt"
 viewBox="0.00 0.00 193.55 147.44" xmlns="http://www.w3.org/2000/svg" xmlns:xlink="http://www.w3.org/1999/xlink">
<g id="graph0" class="graph" transform="scale(1 1) rotate(0) translate(4 143.441)">
<title>%3</title>
<!-- 0 -->
<g id="node1" class="node"><title>0</title>
<ellipse fill="black" stroke="black" cx="60.26" cy="-85.5129" rx="1.8" ry="1.8"/>
</g>
<!-- 1 -->
<g id="node2" class="node"><title>1</title>
<ellipse fill="black" stroke="black" cx="82.7098" cy="-50.2904" rx="1.8" ry="1.8"/>
</g>
<!-- 0&#45;&#45;1 -->
<g id="edge1" class="edge"><title>0&#45;&#45;1</title>
<path fill="none" stroke="black" d="M61.467,-83.6191C65.4015,-77.4462 77.8196,-57.9629 81.6042,-52.025"/>
</g>
<!-- 2 -->
<g id="node3" class="node"><title>2</title>
<ellipse fill="black" stroke="black" cx="48.7871" cy="-1.8" rx="1.8" ry="1.8"/>
</g>
<!-- 0&#45;&#45;2 -->
<g id="edge2" class="edge"><title>0&#45;&#45;2</title>
<path fill="none" stroke="black" d="M59.9764,-83.4435C58.3891,-71.8617 50.6221,-15.1891 49.0608,-3.79699"/>
</g>
<!-- 3 -->
<g id="node4" class="node"><title>3</title>
<ellipse fill="black" stroke="black" cx="105.237" cy="-137.058" rx="1.8" ry="1.8"/>
</g>
<!-- 0&#45;&#45;3 -->
<g id="edge3" class="edge"><title>0&#45;&#45;3</title>
<path fill="none" stroke="black" d="M61.7565,-87.2279C68.7071,-95.1935 97.766,-128.496 104.039,-135.686"/>
</g>
<!-- 4 -->
<g id="node5" class="node"><title>4</title>
<ellipse fill="black" stroke="black" cx="148.411" cy="-67.9688" rx="1.8" ry="1.8"/>
</g>
<!-- 0&#45;&#45;4 -->
<g id="edge4" class="edge"><title>0&#45;&#45;4</title>
<path fill="none" stroke="black" d="M62.1012,-85.1464C73.5732,-82.8632 135.137,-70.6106 146.58,-68.3333"/>
</g>
<!-- 5 -->
<g id="node6" class="node"><title>5</title>
<ellipse fill="black" stroke="black" cx="1.8" cy="-76.0485" rx="1.8" ry="1.8"/>
</g>
<!-- 0&#45;&#45;5 -->
<g id="edge5" class="edge"><title>0&#45;&#45;5</title>
<path fill="none" stroke="black" d="M58.315,-85.198C49.4392,-83.761 12.8268,-77.8337 3.81233,-76.3743"/>
</g>
<!-- 7 -->
<g id="node7" class="node"><title>7</title>
<ellipse fill="black" stroke="black" cx="4.29875" cy="-24.5805" rx="1.8" ry="1.8"/>
</g>
<!-- 0&#45;&#45;7 -->
<g id="edge6" class="edge"><title>0&#45;&#45;7</title>
<path fill="none" stroke="black" d="M58.8767,-84.0067C51.2017,-75.6498 13.9059,-35.041 5.83921,-26.2578"/>
</g>
<!-- 1&#45;&#45;2 -->
<g id="edge7" class="edge"><title>1&#45;&#45;2</title>
<path fill="none" stroke="black" d="M81.5812,-48.677C76.4308,-41.3149 55.1856,-10.9463 49.9548,-3.46915"/>
</g>
<!-- 1&#45;&#45;3 -->
<g id="edge8" class="edge"><title>1&#45;&#45;3</title>
<path fill="none" stroke="black" d="M83.1803,-52.1026C86.112,-63.3946 101.845,-123.993 104.769,-135.256"/>
</g>
<!-- 1&#45;&#45;4 -->
<g id="edge9" class="edge"><title>1&#45;&#45;4</title>
<path fill="none" stroke="black" d="M84.6053,-50.8004C94.1994,-53.3819 137.315,-64.9833 146.632,-67.4903"/>
</g>
<!-- 1&#45;&#45;5 -->
<g id="edge10" class="edge"><title>1&#45;&#45;5</title>
<path fill="none" stroke="black" d="M80.7098,-50.9271C69.5158,-54.4908 14.7408,-71.9287 3.73012,-75.434"/>
</g>
<!-- 1&#45;&#45;7 -->
<g id="edge11" class="edge"><title>1&#45;&#45;7</title>
<path fill="none" stroke="black" d="M80.7716,-49.6548C69.9232,-46.0978 16.8399,-28.6925 6.16926,-25.1938"/>
</g>
<!-- 2&#45;&#45;5 -->
<g id="edge12" class="edge"><title>2&#45;&#45;5</title>
<path fill="none" stroke="black" d="M47.8057,-3.35078C41.6908,-13.0135 8.87518,-64.8684 2.77599,-74.5062"/>
</g>
<!-- 6 -->
<g id="node8" class="node"><title>6</title>
<ellipse fill="black" stroke="black" cx="183.751" cy="-137.641" rx="1.8" ry="1.8"/>
</g>
<!-- 3&#45;&#45;6 -->
<g id="edge13" class="edge"><title>3&#45;&#45;6</title>
<path fill="none" stroke="black" d="M107.178,-137.072C118.04,-137.153 171.193,-137.548 181.878,-137.627"/>
</g>
<!-- 4&#45;&#45;6 -->
<g id="edge14" class="edge"><title>4&#45;&#45;6</title>
<path fill="none" stroke="black" d="M149.284,-69.6911C154.131,-79.2466 177.684,-125.68 182.778,-135.723"/>
</g>
</g>
</svg>
