<?xml version="1.0" encoding="UTF-8" standalone="no"?>
<!DOCTYPE svg PUBLIC "-//W3C//DTD SVG 1.1//EN"
 "http://www.w3.org/Graphics/SVG/1.1/DTD/svg11.dtd">
<!-- Generated by graphviz version 2.36.0 (20140111.2315)
 -->
<!-- Title: %3 Pages: 1 -->
<svg width="227pt" height="186pt"
 viewBox="0.00 0.00 226.52 185.89" xmlns="http://www.w3.org/2000/svg" xmlns:xlink="http://www.w3.org/1999/xlink">
<g id="graph0" class="graph" transform="scale(1 1) rotate(0) translate(4 181.891)">
<title>%3</title>
<!-- 0 -->
<g id="node1" class="node"><title>0</title>
<ellipse fill="black" stroke="black" cx="106.609" cy="-113.101" rx="1.8" ry="1.8"/>
</g>
<!-- 1 -->
<g id="node2" class="node"><title>1</title>
<ellipse fill="black" stroke="black" cx="74.6483" cy="-42.0209" rx="1.8" ry="1.8"/>
</g>
<!-- 0&#45;&#45;1 -->
<g id="edge1" class="edge"><title>0&#45;&#45;1</title>
<path fill="none" stroke="black" d="M105.819,-111.344C101.397,-101.51 79.7601,-53.3895 75.4108,-43.7165"/>
</g>
<!-- 2 -->
<g id="node3" class="node"><title>2</title>
<ellipse fill="black" stroke="black" cx="148.296" cy="-43.7431" rx="1.8" ry="1.8"/>
</g>
<!-- 0&#45;&#45;2 -->
<g id="edge2" class="edge"><title>0&#45;&#45;2</title>
<path fill="none" stroke="black" d="M107.639,-111.386C113.356,-101.874 141.139,-55.65 147.148,-45.6523"/>
</g>
<!-- 3 -->
<g id="node4" class="node"><title>3</title>
<ellipse fill="black" stroke="black" cx="59.3848" cy="-89.1536" rx="1.8" ry="1.8"/>
</g>
<!-- 0&#45;&#45;3 -->
<g id="edge3" class="edge"><title>0&#45;&#45;3</title>
<path fill="none" stroke="black" d="M104.579,-112.072C96.8116,-108.133 69.0174,-94.0383 61.3539,-90.1521"/>
</g>
<!-- 5 -->
<g id="node5" class="node"><title>5</title>
<ellipse fill="black" stroke="black" cx="146.867" cy="-176.091" rx="1.8" ry="1.8"/>
</g>
<!-- 0&#45;&#45;5 -->
<g id="edge4" class="edge"><title>0&#45;&#45;5</title>
<path fill="none" stroke="black" d="M107.604,-114.658C113.125,-123.297 139.956,-165.277 145.759,-174.357"/>
</g>
<!-- 1&#45;&#45;3 -->
<g id="edge5" class="edge"><title>1&#45;&#45;3</title>
<path fill="none" stroke="black" d="M73.9925,-44.0461C71.4818,-51.799 62.4982,-79.5396 60.0213,-87.1884"/>
</g>
<!-- 4 -->
<g id="node6" class="node"><title>4</title>
<ellipse fill="black" stroke="black" cx="156.839" cy="-99.9515" rx="1.8" ry="1.8"/>
</g>
<!-- 1&#45;&#45;4 -->
<g id="edge6" class="edge"><title>1&#45;&#45;4</title>
<path fill="none" stroke="black" d="M76.365,-43.2309C87.0614,-50.77 144.463,-91.2285 155.132,-98.7482"/>
</g>
<!-- 6 -->
<g id="node7" class="node"><title>6</title>
<ellipse fill="black" stroke="black" cx="1.8" cy="-6.19445" rx="1.8" ry="1.8"/>
</g>
<!-- 1&#45;&#45;6 -->
<g id="edge7" class="edge"><title>1&#45;&#45;6</title>
<path fill="none" stroke="black" d="M72.8476,-41.1353C62.7689,-36.1786 13.4515,-11.9246 3.53781,-7.04909"/>
</g>
<!-- 2&#45;&#45;3 -->
<g id="edge8" class="edge"><title>2&#45;&#45;3</title>
<path fill="none" stroke="black" d="M146.439,-44.6915C134.868,-50.6013 72.7728,-82.3158 61.2317,-88.2103"/>
</g>
<!-- 2&#45;&#45;4 -->
<g id="edge9" class="edge"><title>2&#45;&#45;4</title>
<path fill="none" stroke="black" d="M148.58,-45.6132C149.877,-54.1471 155.228,-89.3495 156.545,-98.0167"/>
</g>
<!-- 7 -->
<g id="node8" class="node"><title>7</title>
<ellipse fill="black" stroke="black" cx="216.715" cy="-1.8" rx="1.8" ry="1.8"/>
</g>
<!-- 2&#45;&#45;7 -->
<g id="edge10" class="edge"><title>2&#45;&#45;7</title>
<path fill="none" stroke="black" d="M149.987,-42.7063C159.371,-36.9538 204.97,-9.00054 214.832,-2.95458"/>
</g>
<!-- 4&#45;&#45;5 -->
<g id="edge11" class="edge"><title>4&#45;&#45;5</title>
<path fill="none" stroke="black" d="M156.593,-101.834C155.213,-112.368 148.462,-163.913 147.105,-174.275"/>
</g>
</g>
</svg>
