<?xml version="1.0" encoding="UTF-8" standalone="no"?>
<!DOCTYPE svg PUBLIC "-//W3C//DTD SVG 1.1//EN"
 "http://www.w3.org/Graphics/SVG/1.1/DTD/svg11.dtd">
<!-- Generated by graphviz version 2.36.0 (20140111.2315)
 -->
<!-- Title: %3 Pages: 1 -->
<svg width="186pt" height="195pt"
 viewBox="0.00 0.00 185.59 195.48" xmlns="http://www.w3.org/2000/svg" xmlns:xlink="http://www.w3.org/1999/xlink">
<g id="graph0" class="graph" transform="scale(1 1) rotate(0) translate(4 191.481)">
<title>%3</title>
<!-- 0 -->
<g id="node1" class="node"><title>0</title>
<ellipse fill="black" stroke="black" cx="63.8743" cy="-1.8" rx="1.8" ry="1.8"/>
</g>
<!-- 3 -->
<g id="node2" class="node"><title>3</title>
<ellipse fill="black" stroke="black" cx="1.8" cy="-51.9909" rx="1.8" ry="1.8"/>
</g>
<!-- 0&#45;&#45;3 -->
<g id="edge1" class="edge"><title>0&#45;&#45;3</title>
<path fill="none" stroke="black" d="M62.3399,-3.04068C53.8265,-9.9243 12.4566,-43.3744 3.50873,-50.6093"/>
</g>
<!-- 4 -->
<g id="node3" class="node"><title>4</title>
<ellipse fill="black" stroke="black" cx="129.563" cy="-38.0489" rx="1.8" ry="1.8"/>
</g>
<!-- 0&#45;&#45;4 -->
<g id="edge2" class="edge"><title>0&#45;&#45;4</title>
<path fill="none" stroke="black" d="M65.4981,-2.69605C74.5072,-7.66754 118.286,-31.8259 127.755,-37.0511"/>
</g>
<!-- 5 -->
<g id="node4" class="node"><title>5</title>
<ellipse fill="black" stroke="black" cx="90.1941" cy="-78.1695" rx="1.8" ry="1.8"/>
</g>
<!-- 0&#45;&#45;5 -->
<g id="edge3" class="edge"><title>0&#45;&#45;5</title>
<path fill="none" stroke="black" d="M64.5249,-3.6878C68.1663,-14.2537 85.9845,-65.9549 89.5662,-76.3477"/>
</g>
<!-- 6 -->
<g id="node8" class="node"><title>6</title>
<ellipse fill="black" stroke="black" cx="175.791" cy="-86.2445" rx="1.8" ry="1.8"/>
</g>
<!-- 4&#45;&#45;6 -->
<g id="edge10" class="edge"><title>4&#45;&#45;6</title>
<path fill="none" stroke="black" d="M131.101,-39.6525C138.12,-46.9698 167.071,-77.1538 174.199,-84.5855"/>
</g>
<!-- 5&#45;&#45;6 -->
<g id="edge11" class="edge"><title>5&#45;&#45;6</title>
<path fill="none" stroke="black" d="M92.31,-78.3691C104.152,-79.4863 162.1,-84.9529 173.749,-86.0518"/>
</g>
<!-- 1 -->
<g id="node5" class="node"><title>1</title>
<ellipse fill="black" stroke="black" cx="69.9379" cy="-113.468" rx="1.8" ry="1.8"/>
</g>
<!-- 1&#45;&#45;3 -->
<g id="edge4" class="edge"><title>1&#45;&#45;3</title>
<path fill="none" stroke="black" d="M68.5147,-112.184C59.6472,-104.183 12.06,-61.2479 3.21533,-53.2679"/>
</g>
<!-- 1&#45;&#45;4 -->
<g id="edge5" class="edge"><title>1&#45;&#45;4</title>
<path fill="none" stroke="black" d="M71.1832,-111.893C78.9429,-102.077 120.585,-49.4053 128.324,-39.6155"/>
</g>
<!-- 7 -->
<g id="node6" class="node"><title>7</title>
<ellipse fill="black" stroke="black" cx="36.805" cy="-185.681" rx="1.8" ry="1.8"/>
</g>
<!-- 1&#45;&#45;7 -->
<g id="edge6" class="edge"><title>1&#45;&#45;7</title>
<path fill="none" stroke="black" d="M69.1189,-115.253C64.5349,-125.244 42.1044,-174.131 37.5954,-183.958"/>
</g>
<!-- 2 -->
<g id="node7" class="node"><title>2</title>
<ellipse fill="black" stroke="black" cx="5.96379" cy="-120.94" rx="1.8" ry="1.8"/>
</g>
<!-- 2&#45;&#45;3 -->
<g id="edge7" class="edge"><title>2&#45;&#45;3</title>
<path fill="none" stroke="black" d="M5.84367,-118.95C5.23564,-108.882 2.50317,-63.6348 1.91272,-53.8574"/>
</g>
<!-- 2&#45;&#45;5 -->
<g id="edge8" class="edge"><title>2&#45;&#45;5</title>
<path fill="none" stroke="black" d="M7.72306,-120.046C18.6848,-114.48 77.511,-84.6097 88.4445,-79.0579"/>
</g>
<!-- 2&#45;&#45;7 -->
<g id="edge9" class="edge"><title>2&#45;&#45;7</title>
<path fill="none" stroke="black" d="M6.85355,-122.807C11.3572,-132.261 31.5966,-174.748 35.9701,-183.928"/>
</g>
</g>
</svg>
