<?xml version="1.0" encoding="UTF-8" standalone="no"?>
<!DOCTYPE svg PUBLIC "-//W3C//DTD SVG 1.1//EN"
 "http://www.w3.org/Graphics/SVG/1.1/DTD/svg11.dtd">
<!-- Generated by graphviz version 2.36.0 (20140111.2315)
 -->
<!-- Title: %3 Pages: 1 -->
<svg width="233pt" height="228pt"
 viewBox="0.00 0.00 233.39 228.05" xmlns="http://www.w3.org/2000/svg" xmlns:xlink="http://www.w3.org/1999/xlink">
<g id="graph0" class="graph" transform="scale(1 1) rotate(0) translate(4 224.049)">
<title>%3</title>
<!-- 0 -->
<g id="node1" class="node"><title>0</title>
<ellipse fill="black" stroke="black" cx="152.577" cy="-78.8699" rx="1.8" ry="1.8"/>
</g>
<!-- 1 -->
<g id="node2" class="node"><title>1</title>
<ellipse fill="black" stroke="black" cx="71.4412" cy="-75.5419" rx="1.8" ry="1.8"/>
</g>
<!-- 0&#45;&#45;1 -->
<g id="edge1" class="edge"><title>0&#45;&#45;1</title>
<path fill="none" stroke="black" d="M150.571,-78.7877C139.346,-78.3272 84.4182,-76.0742 73.3767,-75.6213"/>
</g>
<!-- 3 -->
<g id="node3" class="node"><title>3</title>
<ellipse fill="black" stroke="black" cx="175.237" cy="-1.8" rx="1.8" ry="1.8"/>
</g>
<!-- 0&#45;&#45;3 -->
<g id="edge2" class="edge"><title>0&#45;&#45;3</title>
<path fill="none" stroke="black" d="M153.137,-76.9648C156.272,-66.302 171.613,-14.1267 174.696,-3.63852"/>
</g>
<!-- 5 -->
<g id="node4" class="node"><title>5</title>
<ellipse fill="black" stroke="black" cx="184.376" cy="-154.011" rx="1.8" ry="1.8"/>
</g>
<!-- 0&#45;&#45;5 -->
<g id="edge3" class="edge"><title>0&#45;&#45;5</title>
<path fill="none" stroke="black" d="M153.363,-80.7273C157.763,-91.1232 179.29,-141.992 183.618,-152.218"/>
</g>
<!-- 6 -->
<g id="node5" class="node"><title>6</title>
<ellipse fill="black" stroke="black" cx="222.131" cy="-42.33" rx="1.8" ry="1.8"/>
</g>
<!-- 0&#45;&#45;6 -->
<g id="edge4" class="edge"><title>0&#45;&#45;6</title>
<path fill="none" stroke="black" d="M154.296,-77.9667C163.836,-72.9553 210.19,-48.6029 220.216,-43.3358"/>
</g>
<!-- 2 -->
<g id="node6" class="node"><title>2</title>
<ellipse fill="black" stroke="black" cx="1.8" cy="-104.333" rx="1.8" ry="1.8"/>
</g>
<!-- 1&#45;&#45;2 -->
<g id="edge5" class="edge"><title>1&#45;&#45;2</title>
<path fill="none" stroke="black" d="M69.7198,-76.2536C60.1685,-80.2023 13.7556,-99.3902 3.71703,-103.54"/>
</g>
<!-- 4 -->
<g id="node7" class="node"><title>4</title>
<ellipse fill="black" stroke="black" cx="6.93952" cy="-35.6803" rx="1.8" ry="1.8"/>
</g>
<!-- 1&#45;&#45;4 -->
<g id="edge6" class="edge"><title>1&#45;&#45;4</title>
<path fill="none" stroke="black" d="M69.8468,-74.5566C61.0005,-69.0896 18.0128,-42.5235 8.71507,-36.7776"/>
</g>
<!-- 3&#45;&#45;6 -->
<g id="edge8" class="edge"><title>3&#45;&#45;6</title>
<path fill="none" stroke="black" d="M176.797,-3.1485C183.917,-9.302 213.286,-34.6852 220.517,-40.9348"/>
</g>
<!-- 7 -->
<g id="node8" class="node"><title>7</title>
<ellipse fill="black" stroke="black" cx="223.589" cy="-218.249" rx="1.8" ry="1.8"/>
</g>
<!-- 5&#45;&#45;7 -->
<g id="edge9" class="edge"><title>5&#45;&#45;7</title>
<path fill="none" stroke="black" d="M185.345,-155.598C190.723,-164.409 216.857,-207.221 222.509,-216.481"/>
</g>
<!-- 2&#45;&#45;4 -->
<g id="edge7" class="edge"><title>2&#45;&#45;4</title>
<path fill="none" stroke="black" d="M1.94827,-102.352C2.69878,-92.3271 6.07157,-47.2742 6.80038,-37.5388"/>
</g>
</g>
</svg>
