<?xml version="1.0" encoding="UTF-8" standalone="no"?>
<!DOCTYPE svg PUBLIC "-//W3C//DTD SVG 1.1//EN"
 "http://www.w3.org/Graphics/SVG/1.1/DTD/svg11.dtd">
<!-- Generated by graphviz version 2.36.0 (20140111.2315)
 -->
<!-- Title: %3 Pages: 1 -->
<svg width="197pt" height="189pt"
 viewBox="0.00 0.00 196.92 188.65" xmlns="http://www.w3.org/2000/svg" xmlns:xlink="http://www.w3.org/1999/xlink">
<g id="graph0" class="graph" transform="scale(1 1) rotate(0) translate(4 184.646)">
<title>%3</title>
<!-- 0 -->
<g id="node1" class="node"><title>0</title>
<ellipse fill="black" stroke="black" cx="37.2982" cy="-109.244" rx="1.8" ry="1.8"/>
</g>
<!-- 1 -->
<g id="node2" class="node"><title>1</title>
<ellipse fill="black" stroke="black" cx="113.244" cy="-74.2115" rx="1.8" ry="1.8"/>
</g>
<!-- 0&#45;&#45;1 -->
<g id="edge1" class="edge"><title>0&#45;&#45;1</title>
<path fill="none" stroke="black" d="M39.1755,-108.378C49.6828,-103.531 101.097,-79.8146 111.432,-75.0472"/>
</g>
<!-- 3 -->
<g id="node3" class="node"><title>3</title>
<ellipse fill="black" stroke="black" cx="72.7342" cy="-178.846" rx="1.8" ry="1.8"/>
</g>
<!-- 0&#45;&#45;3 -->
<g id="edge2" class="edge"><title>0&#45;&#45;3</title>
<path fill="none" stroke="black" d="M38.1741,-110.964C43.0341,-120.51 66.6508,-166.897 71.7588,-176.93"/>
</g>
<!-- 5 -->
<g id="node4" class="node"><title>5</title>
<ellipse fill="black" stroke="black" cx="1.8" cy="-175.822" rx="1.8" ry="1.8"/>
</g>
<!-- 0&#45;&#45;5 -->
<g id="edge3" class="edge"><title>0&#45;&#45;5</title>
<path fill="none" stroke="black" d="M36.4207,-110.89C31.5521,-120.021 7.89412,-164.392 2.77717,-173.989"/>
</g>
<!-- 7 -->
<g id="node5" class="node"><title>7</title>
<ellipse fill="black" stroke="black" cx="5.21894" cy="-35.6733" rx="1.8" ry="1.8"/>
</g>
<!-- 0&#45;&#45;7 -->
<g id="edge4" class="edge"><title>0&#45;&#45;7</title>
<path fill="none" stroke="black" d="M36.5052,-107.425C32.067,-97.2466 10.3497,-47.4403 5.98419,-37.4284"/>
</g>
<!-- 2 -->
<g id="node6" class="node"><title>2</title>
<ellipse fill="black" stroke="black" cx="144.123" cy="-145.882" rx="1.8" ry="1.8"/>
</g>
<!-- 1&#45;&#45;2 -->
<g id="edge5" class="edge"><title>1&#45;&#45;2</title>
<path fill="none" stroke="black" d="M114.007,-75.9832C118.28,-85.8988 139.184,-134.419 143.386,-144.172"/>
</g>
<!-- 4 -->
<g id="node7" class="node"><title>4</title>
<ellipse fill="black" stroke="black" cx="78.7546" cy="-1.8" rx="1.8" ry="1.8"/>
</g>
<!-- 1&#45;&#45;4 -->
<g id="edge6" class="edge"><title>1&#45;&#45;4</title>
<path fill="none" stroke="black" d="M112.392,-72.4216C107.62,-62.4033 84.2709,-13.3816 79.5773,-3.52739"/>
</g>
<!-- 6 -->
<g id="node8" class="node"><title>6</title>
<ellipse fill="black" stroke="black" cx="187.124" cy="-89.2656" rx="1.8" ry="1.8"/>
</g>
<!-- 1&#45;&#45;6 -->
<g id="edge7" class="edge"><title>1&#45;&#45;6</title>
<path fill="none" stroke="black" d="M115.07,-74.5837C125.203,-76.6483 174.441,-86.6812 185.091,-88.8513"/>
</g>
<!-- 3&#45;&#45;5 -->
<g id="edge10" class="edge"><title>3&#45;&#45;5</title>
<path fill="none" stroke="black" d="M70.6878,-178.758C60.3295,-178.317 13.7792,-176.333 3.72027,-175.904"/>
</g>
<!-- 2&#45;&#45;3 -->
<g id="edge8" class="edge"><title>2&#45;&#45;3</title>
<path fill="none" stroke="black" d="M142.358,-146.696C132.481,-151.257 84.1522,-173.573 74.4372,-178.059"/>
</g>
<!-- 2&#45;&#45;6 -->
<g id="edge9" class="edge"><title>2&#45;&#45;6</title>
<path fill="none" stroke="black" d="M145.553,-143.998C152.199,-135.249 179.982,-98.6697 185.98,-90.7727"/>
</g>
<!-- 4&#45;&#45;7 -->
<g id="edge11" class="edge"><title>4&#45;&#45;7</title>
<path fill="none" stroke="black" d="M76.9368,-2.63732C66.763,-7.32376 16.9803,-30.2556 6.97314,-34.8653"/>
</g>
</g>
</svg>
