<?xml version="1.0" encoding="UTF-8" standalone="no"?>
<!DOCTYPE svg PUBLIC "-//W3C//DTD SVG 1.1//EN"
 "http://www.w3.org/Graphics/SVG/1.1/DTD/svg11.dtd">
<!-- Generated by graphviz version 2.36.0 (20140111.2315)
 -->
<!-- Title: %3 Pages: 1 -->
<svg width="175pt" height="177pt"
 viewBox="0.00 0.00 174.92 176.86" xmlns="http://www.w3.org/2000/svg" xmlns:xlink="http://www.w3.org/1999/xlink">
<g id="graph0" class="graph" transform="scale(1 1) rotate(0) translate(4 172.858)">
<title>%3</title>
<!-- 0 -->
<g id="node1" class="node"><title>0</title>
<ellipse fill="black" stroke="black" cx="82.5861" cy="-99.6517" rx="1.8" ry="1.8"/>
</g>
<!-- 1 -->
<g id="node2" class="node"><title>1</title>
<ellipse fill="black" stroke="black" cx="84.0774" cy="-39.366" rx="1.8" ry="1.8"/>
</g>
<!-- 0&#45;&#45;1 -->
<g id="edge1" class="edge"><title>0&#45;&#45;1</title>
<path fill="none" stroke="black" d="M82.6357,-97.6459C82.8621,-88.493 83.7961,-50.7371 84.026,-41.4411"/>
</g>
<!-- 2 -->
<g id="node3" class="node"><title>2</title>
<ellipse fill="black" stroke="black" cx="66.8429" cy="-1.8" rx="1.8" ry="1.8"/>
</g>
<!-- 0&#45;&#45;2 -->
<g id="edge2" class="edge"><title>0&#45;&#45;2</title>
<path fill="none" stroke="black" d="M82.2573,-97.6079C80.2084,-84.8735 69.2135,-16.5342 67.1699,-3.83253"/>
</g>
<!-- 5 -->
<g id="node4" class="node"><title>5</title>
<ellipse fill="black" stroke="black" cx="3.72295" cy="-114.095" rx="1.8" ry="1.8"/>
</g>
<!-- 0&#45;&#45;5 -->
<g id="edge3" class="edge"><title>0&#45;&#45;5</title>
<path fill="none" stroke="black" d="M80.6366,-100.009C69.7258,-102.007 16.3364,-111.785 5.60425,-113.75"/>
</g>
<!-- 6 -->
<g id="node5" class="node"><title>6</title>
<ellipse fill="black" stroke="black" cx="49.78" cy="-167.058" rx="1.8" ry="1.8"/>
</g>
<!-- 0&#45;&#45;6 -->
<g id="edge4" class="edge"><title>0&#45;&#45;6</title>
<path fill="none" stroke="black" d="M81.7751,-101.318C77.2758,-110.563 55.412,-155.486 50.6831,-165.203"/>
</g>
<!-- 7 -->
<g id="node6" class="node"><title>7</title>
<ellipse fill="black" stroke="black" cx="165.121" cy="-89.776" rx="1.8" ry="1.8"/>
</g>
<!-- 0&#45;&#45;7 -->
<g id="edge5" class="edge"><title>0&#45;&#45;7</title>
<path fill="none" stroke="black" d="M84.6263,-99.4076C96.0452,-98.0413 151.921,-91.3555 163.152,-90.0116"/>
</g>
<!-- 1&#45;&#45;2 -->
<g id="edge6" class="edge"><title>1&#45;&#45;2</title>
<path fill="none" stroke="black" d="M83.1508,-37.3463C80.1303,-30.7626 70.5971,-9.98299 67.6917,-3.65009"/>
</g>
<!-- 3 -->
<g id="node7" class="node"><title>3</title>
<ellipse fill="black" stroke="black" cx="1.8" cy="-34.003" rx="1.8" ry="1.8"/>
</g>
<!-- 1&#45;&#45;3 -->
<g id="edge7" class="edge"><title>1&#45;&#45;3</title>
<path fill="none" stroke="black" d="M82.0435,-39.2334C70.6603,-38.4914 14.9595,-34.8608 3.76274,-34.131"/>
</g>
<!-- 4 -->
<g id="node8" class="node"><title>4</title>
<ellipse fill="black" stroke="black" cx="148.898" cy="-7.59728" rx="1.8" ry="1.8"/>
</g>
<!-- 1&#45;&#45;4 -->
<g id="edge8" class="edge"><title>1&#45;&#45;4</title>
<path fill="none" stroke="black" d="M85.9474,-38.4494C95.413,-33.8104 137.951,-12.9623 147.143,-8.4573"/>
</g>
<!-- 2&#45;&#45;3 -->
<g id="edge9" class="edge"><title>2&#45;&#45;3</title>
<path fill="none" stroke="black" d="M64.9665,-2.72904C55.4684,-7.43157 12.7843,-28.5646 3.56079,-33.1313"/>
</g>
<!-- 2&#45;&#45;4 -->
<g id="edge10" class="edge"><title>2&#45;&#45;4</title>
<path fill="none" stroke="black" d="M68.8713,-1.9433C80.2238,-2.74537 135.774,-6.67006 146.941,-7.45899"/>
</g>
<!-- 5&#45;&#45;6 -->
<g id="edge13" class="edge"><title>5&#45;&#45;6</title>
<path fill="none" stroke="black" d="M5.25535,-115.857C12.3729,-124.042 42.1299,-158.261 48.5541,-165.648"/>
</g>
<!-- 3&#45;&#45;5 -->
<g id="edge11" class="edge"><title>3&#45;&#45;5</title>
<path fill="none" stroke="black" d="M1.84753,-35.9828C2.11358,-47.0637 3.41539,-101.285 3.67708,-112.184"/>
</g>
<!-- 4&#45;&#45;7 -->
<g id="edge12" class="edge"><title>4&#45;&#45;7</title>
<path fill="none" stroke="black" d="M149.299,-9.62868C151.544,-20.9983 162.527,-76.6322 164.734,-87.8156"/>
</g>
</g>
</svg>
