<?xml version="1.0" encoding="UTF-8" standalone="no"?>
<!DOCTYPE svg PUBLIC "-//W3C//DTD SVG 1.1//EN"
 "http://www.w3.org/Graphics/SVG/1.1/DTD/svg11.dtd">
<!-- Generated by graphviz version 2.36.0 (20140111.2315)
 -->
<!-- Title: %3 Pages: 1 -->
<svg width="202pt" height="152pt"
 viewBox="0.00 0.00 201.93 152.37" xmlns="http://www.w3.org/2000/svg" xmlns:xlink="http://www.w3.org/1999/xlink">
<g id="graph0" class="graph" transform="scale(1 1) rotate(0) translate(4 148.371)">
<title>%3</title>
<!-- 0 -->
<g id="node1" class="node"><title>0</title>
<ellipse fill="black" stroke="black" cx="82.3697" cy="-55.5958" rx="1.8" ry="1.8"/>
</g>
<!-- 1 -->
<g id="node2" class="node"><title>1</title>
<ellipse fill="black" stroke="black" cx="129.275" cy="-109.188" rx="1.8" ry="1.8"/>
</g>
<!-- 0&#45;&#45;1 -->
<g id="edge1" class="edge"><title>0&#45;&#45;1</title>
<path fill="none" stroke="black" d="M83.9303,-57.3789C91.1789,-65.6609 121.484,-100.286 128.027,-107.761"/>
</g>
<!-- 2 -->
<g id="node3" class="node"><title>2</title>
<ellipse fill="black" stroke="black" cx="63.5739" cy="-1.8" rx="1.8" ry="1.8"/>
</g>
<!-- 0&#45;&#45;2 -->
<g id="edge2" class="edge"><title>0&#45;&#45;2</title>
<path fill="none" stroke="black" d="M81.7443,-53.8059C78.8906,-45.6383 67.1192,-11.947 64.2209,-3.65177"/>
</g>
<!-- 3 -->
<g id="node4" class="node"><title>3</title>
<ellipse fill="black" stroke="black" cx="76.6784" cy="-142.571" rx="1.8" ry="1.8"/>
</g>
<!-- 0&#45;&#45;3 -->
<g id="edge3" class="edge"><title>0&#45;&#45;3</title>
<path fill="none" stroke="black" d="M82.2508,-57.4124C81.5101,-68.7315 77.5353,-129.475 76.7966,-140.765"/>
</g>
<!-- 4 -->
<g id="node5" class="node"><title>4</title>
<ellipse fill="black" stroke="black" cx="139.51" cy="-2.34501" rx="1.8" ry="1.8"/>
</g>
<!-- 0&#45;&#45;4 -->
<g id="edge4" class="edge"><title>0&#45;&#45;4</title>
<path fill="none" stroke="black" d="M83.7821,-54.2795C91.6189,-46.9762 129.701,-11.4868 137.937,-3.81086"/>
</g>
<!-- 7 -->
<g id="node6" class="node"><title>7</title>
<ellipse fill="black" stroke="black" cx="1.8" cy="-16.6911" rx="1.8" ry="1.8"/>
</g>
<!-- 0&#45;&#45;7 -->
<g id="edge5" class="edge"><title>0&#45;&#45;7</title>
<path fill="none" stroke="black" d="M80.6868,-54.7832C70.2015,-49.7202 13.9319,-22.5492 3.47355,-17.4992"/>
</g>
<!-- 1&#45;&#45;3 -->
<g id="edge6" class="edge"><title>1&#45;&#45;3</title>
<path fill="none" stroke="black" d="M127.525,-110.298C119.54,-115.367 86.5992,-136.275 78.4889,-141.422"/>
</g>
<!-- 5 -->
<g id="node7" class="node"><title>5</title>
<ellipse fill="black" stroke="black" cx="45.5144" cy="-93.4131" rx="1.8" ry="1.8"/>
</g>
<!-- 1&#45;&#45;5 -->
<g id="edge7" class="edge"><title>1&#45;&#45;5</title>
<path fill="none" stroke="black" d="M127.205,-108.798C115.616,-106.615 58.9112,-95.9361 47.5125,-93.7894"/>
</g>
<!-- 6 -->
<g id="node8" class="node"><title>6</title>
<ellipse fill="black" stroke="black" cx="192.133" cy="-61.4329" rx="1.8" ry="1.8"/>
</g>
<!-- 1&#45;&#45;6 -->
<g id="edge8" class="edge"><title>1&#45;&#45;6</title>
<path fill="none" stroke="black" d="M130.829,-108.007C139.45,-101.458 181.342,-69.6312 190.403,-62.7475"/>
</g>
<!-- 2&#45;&#45;4 -->
<g id="edge9" class="edge"><title>2&#45;&#45;4</title>
<path fill="none" stroke="black" d="M65.451,-1.81347C75.9569,-1.88888 127.365,-2.25784 137.699,-2.33201"/>
</g>
<!-- 2&#45;&#45;7 -->
<g id="edge11" class="edge"><title>2&#45;&#45;7</title>
<path fill="none" stroke="black" d="M61.7918,-2.2296C52.9294,-4.36596 13.645,-13.8358 3.96235,-16.1698"/>
</g>
<!-- 2&#45;&#45;5 -->
<g id="edge10" class="edge"><title>2&#45;&#45;5</title>
<path fill="none" stroke="black" d="M63.1967,-3.71347C60.8465,-15.636 48.2338,-79.6183 45.8895,-91.5102"/>
</g>
<!-- 3&#45;&#45;5 -->
<g id="edge12" class="edge"><title>3&#45;&#45;5</title>
<path fill="none" stroke="black" d="M75.6415,-140.936C70.91,-133.472 51.3926,-102.685 46.5872,-95.1052"/>
</g>
<!-- 4&#45;&#45;6 -->
<g id="edge13" class="edge"><title>4&#45;&#45;6</title>
<path fill="none" stroke="black" d="M140.811,-3.80562C148.028,-11.9095 183.099,-51.289 190.685,-59.8064"/>
</g>
</g>
</svg>
