<?xml version="1.0" encoding="UTF-8" standalone="no"?>
<!DOCTYPE svg PUBLIC "-//W3C//DTD SVG 1.1//EN"
 "http://www.w3.org/Graphics/SVG/1.1/DTD/svg11.dtd">
<!-- Generated by graphviz version 2.36.0 (20140111.2315)
 -->
<!-- Title: %3 Pages: 1 -->
<svg width="133pt" height="211pt"
 viewBox="0.00 0.00 133.18 210.59" xmlns="http://www.w3.org/2000/svg" xmlns:xlink="http://www.w3.org/1999/xlink">
<g id="graph0" class="graph" transform="scale(1 1) rotate(0) translate(4 206.593)">
<title>%3</title>
<!-- 0 -->
<g id="node1" class="node"><title>0</title>
<ellipse fill="black" stroke="black" cx="63.8475" cy="-129.929" rx="1.8" ry="1.8"/>
</g>
<!-- 2 -->
<g id="node2" class="node"><title>2</title>
<ellipse fill="black" stroke="black" cx="104.639" cy="-155.901" rx="1.8" ry="1.8"/>
</g>
<!-- 0&#45;&#45;2 -->
<g id="edge1" class="edge"><title>0&#45;&#45;2</title>
<path fill="none" stroke="black" d="M65.6003,-131.045C72.3101,-135.317 96.3188,-150.603 102.939,-154.818"/>
</g>
<!-- 3 -->
<g id="node3" class="node"><title>3</title>
<ellipse fill="black" stroke="black" cx="1.8" cy="-123.759" rx="1.8" ry="1.8"/>
</g>
<!-- 0&#45;&#45;3 -->
<g id="edge2" class="edge"><title>0&#45;&#45;3</title>
<path fill="none" stroke="black" d="M61.7831,-129.724C52.3627,-128.787 13.5034,-124.923 3.93582,-123.972"/>
</g>
<!-- 4 -->
<g id="node4" class="node"><title>4</title>
<ellipse fill="black" stroke="black" cx="15.979" cy="-183.558" rx="1.8" ry="1.8"/>
</g>
<!-- 0&#45;&#45;4 -->
<g id="edge3" class="edge"><title>0&#45;&#45;4</title>
<path fill="none" stroke="black" d="M62.2549,-131.713C54.8574,-140.001 23.9301,-174.65 17.2532,-182.13"/>
</g>
<!-- 5 -->
<g id="node5" class="node"><title>5</title>
<ellipse fill="black" stroke="black" cx="61.8956" cy="-200.793" rx="1.8" ry="1.8"/>
</g>
<!-- 0&#45;&#45;5 -->
<g id="edge4" class="edge"><title>0&#45;&#45;5</title>
<path fill="none" stroke="black" d="M63.7912,-131.973C63.5062,-142.321 62.2252,-188.826 61.9484,-198.875"/>
</g>
<!-- 6 -->
<g id="node6" class="node"><title>6</title>
<ellipse fill="black" stroke="black" cx="123.376" cy="-67.316" rx="1.8" ry="1.8"/>
</g>
<!-- 0&#45;&#45;6 -->
<g id="edge5" class="edge"><title>0&#45;&#45;6</title>
<path fill="none" stroke="black" d="M65.319,-128.381C73.4834,-119.794 113.157,-78.065 121.738,-69.0395"/>
</g>
<!-- 2&#45;&#45;4 -->
<g id="edge10" class="edge"><title>2&#45;&#45;4</title>
<path fill="none" stroke="black" d="M102.788,-156.478C91.2493,-160.078 29.3292,-179.393 17.8206,-182.983"/>
</g>
<!-- 2&#45;&#45;5 -->
<g id="edge11" class="edge"><title>2&#45;&#45;5</title>
<path fill="none" stroke="black" d="M103.217,-157.394C96.7276,-164.21 69.9579,-192.325 63.3669,-199.248"/>
</g>
<!-- 3&#45;&#45;4 -->
<g id="edge12" class="edge"><title>3&#45;&#45;4</title>
<path fill="none" stroke="black" d="M2.27176,-125.749C4.4245,-134.828 13.3046,-172.278 15.4909,-181.499"/>
</g>
<!-- 3&#45;&#45;5 -->
<g id="edge13" class="edge"><title>3&#45;&#45;5</title>
<path fill="none" stroke="black" d="M3.05518,-125.368C10.8761,-135.393 52.8466,-189.194 60.6473,-199.193"/>
</g>
<!-- 7 -->
<g id="node8" class="node"><title>7</title>
<ellipse fill="black" stroke="black" cx="93.8673" cy="-1.8" rx="1.8" ry="1.8"/>
</g>
<!-- 6&#45;&#45;7 -->
<g id="edge14" class="edge"><title>6&#45;&#45;7</title>
<path fill="none" stroke="black" d="M122.525,-65.4259C118.216,-55.8588 98.8507,-12.8642 94.6661,-3.5736"/>
</g>
<!-- 1 -->
<g id="node7" class="node"><title>1</title>
<ellipse fill="black" stroke="black" cx="59.0337" cy="-67.5525" rx="1.8" ry="1.8"/>
</g>
<!-- 1&#45;&#45;2 -->
<g id="edge6" class="edge"><title>1&#45;&#45;2</title>
<path fill="none" stroke="black" d="M59.9862,-69.3978C65.9214,-80.8955 97.7722,-142.597 103.692,-154.066"/>
</g>
<!-- 1&#45;&#45;3 -->
<g id="edge7" class="edge"><title>1&#45;&#45;3</title>
<path fill="none" stroke="black" d="M57.6189,-68.9419C49.7694,-76.6506 11.6255,-114.11 3.37549,-122.212"/>
</g>
<!-- 1&#45;&#45;6 -->
<g id="edge8" class="edge"><title>1&#45;&#45;6</title>
<path fill="none" stroke="black" d="M60.8899,-67.5457C70.1209,-67.5118 111.039,-67.3613 121.124,-67.3243"/>
</g>
<!-- 1&#45;&#45;7 -->
<g id="edge9" class="edge"><title>1&#45;&#45;7</title>
<path fill="none" stroke="black" d="M59.8947,-65.9272C64.6721,-56.9093 87.8872,-13.088 92.9084,-3.60999"/>
</g>
</g>
</svg>
