<?xml version="1.0" encoding="UTF-8" standalone="no"?>
<!DOCTYPE svg PUBLIC "-//W3C//DTD SVG 1.1//EN"
 "http://www.w3.org/Graphics/SVG/1.1/DTD/svg11.dtd">
<!-- Generated by graphviz version 2.36.0 (20140111.2315)
 -->
<!-- Title: %3 Pages: 1 -->
<svg width="171pt" height="322pt"
 viewBox="0.00 0.00 171.35 321.86" xmlns="http://www.w3.org/2000/svg" xmlns:xlink="http://www.w3.org/1999/xlink">
<g id="graph0" class="graph" transform="scale(1 1) rotate(0) translate(4 317.863)">
<title>%3</title>
<!-- 0 -->
<g id="node1" class="node"><title>0</title>
<ellipse fill="black" stroke="black" cx="35.9714" cy="-179.149" rx="1.8" ry="1.8"/>
</g>
<!-- 1 -->
<g id="node2" class="node"><title>1</title>
<ellipse fill="black" stroke="black" cx="89.273" cy="-205.951" rx="1.8" ry="1.8"/>
</g>
<!-- 0&#45;&#45;1 -->
<g id="edge1" class="edge"><title>0&#45;&#45;1</title>
<path fill="none" stroke="black" d="M37.7449,-180.041C45.8374,-184.11 79.2192,-200.896 87.4382,-205.028"/>
</g>
<!-- 2 -->
<g id="node3" class="node"><title>2</title>
<ellipse fill="black" stroke="black" cx="6.35634" cy="-237.155" rx="1.8" ry="1.8"/>
</g>
<!-- 0&#45;&#45;2 -->
<g id="edge2" class="edge"><title>0&#45;&#45;2</title>
<path fill="none" stroke="black" d="M34.9861,-181.079C30.4897,-189.886 11.9424,-226.214 7.37576,-235.159"/>
</g>
<!-- 3 -->
<g id="node4" class="node"><title>3</title>
<ellipse fill="black" stroke="black" cx="59.9282" cy="-264.302" rx="1.8" ry="1.8"/>
</g>
<!-- 0&#45;&#45;3 -->
<g id="edge3" class="edge"><title>0&#45;&#45;3</title>
<path fill="none" stroke="black" d="M36.4718,-180.928C39.5895,-192.009 56.3208,-251.48 59.4305,-262.533"/>
</g>
<!-- 4 -->
<g id="node5" class="node"><title>4</title>
<ellipse fill="black" stroke="black" cx="93.9277" cy="-130.676" rx="1.8" ry="1.8"/>
</g>
<!-- 0&#45;&#45;4 -->
<g id="edge4" class="edge"><title>0&#45;&#45;4</title>
<path fill="none" stroke="black" d="M37.4041,-177.951C45.3527,-171.303 83.9781,-138.998 92.3323,-132.011"/>
</g>
<!-- 1&#45;&#45;2 -->
<g id="edge5" class="edge"><title>1&#45;&#45;2</title>
<path fill="none" stroke="black" d="M87.5411,-206.603C76.7503,-210.664 18.8417,-232.457 8.07864,-236.507"/>
</g>
<!-- 1&#45;&#45;3 -->
<g id="edge6" class="edge"><title>1&#45;&#45;3</title>
<path fill="none" stroke="black" d="M88.2966,-207.892C83.8413,-216.751 65.4632,-253.295 60.9383,-262.293"/>
</g>
<!-- 1&#45;&#45;4 -->
<g id="edge7" class="edge"><title>1&#45;&#45;4</title>
<path fill="none" stroke="black" d="M89.388,-204.09C90.0264,-193.766 93.1286,-143.599 93.7995,-132.748"/>
</g>
<!-- 2&#45;&#45;3 -->
<g id="edge8" class="edge"><title>2&#45;&#45;3</title>
<path fill="none" stroke="black" d="M8.13877,-238.059C16.2724,-242.18 49.8234,-259.181 58.0841,-263.367"/>
</g>
<!-- 6 -->
<g id="node6" class="node"><title>6</title>
<ellipse fill="black" stroke="black" cx="1.8" cy="-312.063" rx="1.8" ry="1.8"/>
</g>
<!-- 2&#45;&#45;6 -->
<g id="edge9" class="edge"><title>2&#45;&#45;6</title>
<path fill="none" stroke="black" d="M6.24371,-239.007C5.61881,-249.281 2.58221,-299.203 1.92542,-310.001"/>
</g>
<!-- 3&#45;&#45;6 -->
<g id="edge10" class="edge"><title>3&#45;&#45;6</title>
<path fill="none" stroke="black" d="M58.4913,-265.482C50.5191,-272.033 11.7791,-303.863 3.40011,-310.748"/>
</g>
<!-- 5 -->
<g id="node7" class="node"><title>5</title>
<ellipse fill="black" stroke="black" cx="121.681" cy="-62.4738" rx="1.8" ry="1.8"/>
</g>
<!-- 4&#45;&#45;5 -->
<g id="edge11" class="edge"><title>4&#45;&#45;5</title>
<path fill="none" stroke="black" d="M94.6137,-128.99C98.4201,-119.636 116.916,-74.1824 120.917,-64.3512"/>
</g>
<!-- 7 -->
<g id="node8" class="node"><title>7</title>
<ellipse fill="black" stroke="black" cx="161.55" cy="-1.8" rx="1.8" ry="1.8"/>
</g>
<!-- 5&#45;&#45;7 -->
<g id="edge12" class="edge"><title>5&#45;&#45;7</title>
<path fill="none" stroke="black" d="M122.831,-60.7234C128.653,-51.8633 154.817,-12.0465 160.471,-3.44251"/>
</g>
</g>
</svg>
