<?xml version="1.0" encoding="UTF-8" standalone="no"?>
<!DOCTYPE svg PUBLIC "-//W3C//DTD SVG 1.1//EN"
 "http://www.w3.org/Graphics/SVG/1.1/DTD/svg11.dtd">
<!-- Generated by graphviz version 2.36.0 (20140111.2315)
 -->
<!-- Title: %3 Pages: 1 -->
<svg width="116pt" height="235pt"
 viewBox="0.00 0.00 116.17 235.24" xmlns="http://www.w3.org/2000/svg" xmlns:xlink="http://www.w3.org/1999/xlink">
<g id="graph0" class="graph" transform="scale(1 1) rotate(0) translate(4 231.24)">
<title>%3</title>
<!-- 0 -->
<g id="node1" class="node"><title>0</title>
<ellipse fill="black" stroke="black" cx="13.4783" cy="-139.942" rx="1.8" ry="1.8"/>
</g>
<!-- 2 -->
<g id="node2" class="node"><title>2</title>
<ellipse fill="black" stroke="black" cx="64.8347" cy="-131.61" rx="1.8" ry="1.8"/>
</g>
<!-- 0&#45;&#45;2 -->
<g id="edge1" class="edge"><title>0&#45;&#45;2</title>
<path fill="none" stroke="black" d="M15.685,-139.584C24.1326,-138.213 54.3592,-133.309 62.6934,-131.957"/>
</g>
<!-- 3 -->
<g id="node3" class="node"><title>3</title>
<ellipse fill="black" stroke="black" cx="46.8168" cy="-48.8922" rx="1.8" ry="1.8"/>
</g>
<!-- 0&#45;&#45;3 -->
<g id="edge2" class="edge"><title>0&#45;&#45;3</title>
<path fill="none" stroke="black" d="M14.1746,-138.04C18.5133,-126.191 41.7967,-62.6021 46.1243,-50.7834"/>
</g>
<!-- 4 -->
<g id="node4" class="node"><title>4</title>
<ellipse fill="black" stroke="black" cx="1.8" cy="-192.753" rx="1.8" ry="1.8"/>
</g>
<!-- 0&#45;&#45;4 -->
<g id="edge3" class="edge"><title>0&#45;&#45;4</title>
<path fill="none" stroke="black" d="M12.9765,-142.211C11.0555,-150.898 4.1821,-181.98 2.28693,-190.551"/>
</g>
<!-- 7 -->
<g id="node5" class="node"><title>7</title>
<ellipse fill="black" stroke="black" cx="51.9403" cy="-225.44" rx="1.8" ry="1.8"/>
</g>
<!-- 0&#45;&#45;7 -->
<g id="edge4" class="edge"><title>0&#45;&#45;7</title>
<path fill="none" stroke="black" d="M14.2816,-141.727C19.2871,-152.854 46.1488,-212.566 51.1413,-223.664"/>
</g>
<!-- 2&#45;&#45;4 -->
<g id="edge9" class="edge"><title>2&#45;&#45;4</title>
<path fill="none" stroke="black" d="M63.2766,-133.121C54.6314,-141.507 12.6214,-182.256 3.53517,-191.069"/>
</g>
<!-- 5 -->
<g id="node7" class="node"><title>5</title>
<ellipse fill="black" stroke="black" cx="4.55417" cy="-65.5495" rx="1.8" ry="1.8"/>
</g>
<!-- 2&#45;&#45;5 -->
<g id="edge10" class="edge"><title>2&#45;&#45;5</title>
<path fill="none" stroke="black" d="M63.3446,-129.977C54.9322,-120.758 13.4833,-75.3348 5.78561,-66.899"/>
</g>
<!-- 3&#45;&#45;5 -->
<g id="edge11" class="edge"><title>3&#45;&#45;5</title>
<path fill="none" stroke="black" d="M45.0008,-49.6079C38.049,-52.3479 13.1747,-62.1518 6.31633,-64.8549"/>
</g>
<!-- 6 -->
<g id="node8" class="node"><title>6</title>
<ellipse fill="black" stroke="black" cx="106.365" cy="-1.8" rx="1.8" ry="1.8"/>
</g>
<!-- 3&#45;&#45;6 -->
<g id="edge12" class="edge"><title>3&#45;&#45;6</title>
<path fill="none" stroke="black" d="M48.2888,-47.7281C56.4558,-41.2695 96.1425,-9.88451 104.726,-3.09632"/>
</g>
<!-- 4&#45;&#45;7 -->
<g id="edge13" class="edge"><title>4&#45;&#45;7</title>
<path fill="none" stroke="black" d="M3.46826,-193.84C11.0808,-198.803 42.4828,-219.274 50.2143,-224.314"/>
</g>
<!-- 1 -->
<g id="node6" class="node"><title>1</title>
<ellipse fill="black" stroke="black" cx="98.1087" cy="-69.1485" rx="1.8" ry="1.8"/>
</g>
<!-- 1&#45;&#45;2 -->
<g id="edge5" class="edge"><title>1&#45;&#45;2</title>
<path fill="none" stroke="black" d="M97.1487,-70.9504C92.2898,-80.0715 70.454,-121.061 65.7355,-129.919"/>
</g>
<!-- 1&#45;&#45;3 -->
<g id="edge6" class="edge"><title>1&#45;&#45;3</title>
<path fill="none" stroke="black" d="M96.4021,-68.4745C88.6147,-65.3991 56.4915,-52.7129 48.5823,-49.5895"/>
</g>
<!-- 1&#45;&#45;5 -->
<g id="edge7" class="edge"><title>1&#45;&#45;5</title>
<path fill="none" stroke="black" d="M96.1547,-69.0733C83.9794,-68.6049 18.6413,-66.0914 6.49743,-65.6242"/>
</g>
<!-- 1&#45;&#45;6 -->
<g id="edge8" class="edge"><title>1&#45;&#45;6</title>
<path fill="none" stroke="black" d="M98.3469,-67.2055C99.5526,-57.3708 104.971,-13.1737 106.142,-3.6232"/>
</g>
</g>
</svg>
