<?xml version="1.0" encoding="UTF-8" standalone="no"?>
<!DOCTYPE svg PUBLIC "-//W3C//DTD SVG 1.1//EN"
 "http://www.w3.org/Graphics/SVG/1.1/DTD/svg11.dtd">
<!-- Generated by graphviz version 2.36.0 (20140111.2315)
 -->
<!-- Title: %3 Pages: 1 -->
<svg width="126pt" height="209pt"
 viewBox="0.00 0.00 126.30 208.53" xmlns="http://www.w3.org/2000/svg" xmlns:xlink="http://www.w3.org/1999/xlink">
<g id="graph0" class="graph" transform="scale(1 1) rotate(0) translate(4 204.529)">
<title>%3</title>
<!-- 0 -->
<g id="node1" class="node"><title>0</title>
<ellipse fill="black" stroke="black" cx="58.3307" cy="-103.395" rx="1.8" ry="1.8"/>
</g>
<!-- 1 -->
<g id="node2" class="node"><title>1</title>
<ellipse fill="black" stroke="black" cx="104.052" cy="-138.364" rx="1.8" ry="1.8"/>
</g>
<!-- 0&#45;&#45;1 -->
<g id="edge1" class="edge"><title>0&#45;&#45;1</title>
<path fill="none" stroke="black" d="M59.8519,-104.558C66.7936,-109.867 95.428,-131.768 102.478,-137.161"/>
</g>
<!-- 2 -->
<g id="node3" class="node"><title>2</title>
<ellipse fill="black" stroke="black" cx="51.7282" cy="-152.604" rx="1.8" ry="1.8"/>
</g>
<!-- 0&#45;&#45;2 -->
<g id="edge2" class="edge"><title>0&#45;&#45;2</title>
<path fill="none" stroke="black" d="M58.047,-105.509C56.9609,-113.604 53.075,-142.567 52.0035,-150.552"/>
</g>
<!-- 3 -->
<g id="node4" class="node"><title>3</title>
<ellipse fill="black" stroke="black" cx="1.8" cy="-114.97" rx="1.8" ry="1.8"/>
</g>
<!-- 0&#45;&#45;3 -->
<g id="edge3" class="edge"><title>0&#45;&#45;3</title>
<path fill="none" stroke="black" d="M56.4498,-103.78C47.867,-105.537 12.4628,-112.787 3.74591,-114.572"/>
</g>
<!-- 4 -->
<g id="node5" class="node"><title>4</title>
<ellipse fill="black" stroke="black" cx="116.505" cy="-75.1606" rx="1.8" ry="1.8"/>
</g>
<!-- 0&#45;&#45;4 -->
<g id="edge4" class="edge"><title>0&#45;&#45;4</title>
<path fill="none" stroke="black" d="M60.2662,-102.455C69.0985,-98.1686 105.532,-80.4861 114.502,-76.1324"/>
</g>
<!-- 5 -->
<g id="node6" class="node"><title>5</title>
<ellipse fill="black" stroke="black" cx="82.8304" cy="-198.729" rx="1.8" ry="1.8"/>
</g>
<!-- 0&#45;&#45;5 -->
<g id="edge5" class="edge"><title>0&#45;&#45;5</title>
<path fill="none" stroke="black" d="M58.8424,-105.386C62.0308,-117.793 79.1413,-184.374 82.3215,-196.749"/>
</g>
<!-- 6 -->
<g id="node7" class="node"><title>6</title>
<ellipse fill="black" stroke="black" cx="12.3257" cy="-40.8498" rx="1.8" ry="1.8"/>
</g>
<!-- 0&#45;&#45;6 -->
<g id="edge6" class="edge"><title>0&#45;&#45;6</title>
<path fill="none" stroke="black" d="M57.1935,-101.849C50.8839,-93.2706 20.2236,-51.5871 13.5921,-42.5715"/>
</g>
<!-- 1&#45;&#45;2 -->
<g id="edge7" class="edge"><title>1&#45;&#45;2</title>
<path fill="none" stroke="black" d="M102.311,-138.838C94.367,-141 61.5976,-149.918 53.5293,-152.114"/>
</g>
<!-- 1&#45;&#45;3 -->
<g id="edge8" class="edge"><title>1&#45;&#45;3</title>
<path fill="none" stroke="black" d="M102.277,-137.958C89.8661,-135.119 16.1943,-118.263 3.62363,-115.387"/>
</g>
<!-- 1&#45;&#45;4 -->
<g id="edge9" class="edge"><title>1&#45;&#45;4</title>
<path fill="none" stroke="black" d="M104.411,-136.541C106.198,-127.473 114.117,-87.2797 116.069,-77.373"/>
</g>
<!-- 1&#45;&#45;5 -->
<g id="edge10" class="edge"><title>1&#45;&#45;5</title>
<path fill="none" stroke="black" d="M103.44,-140.106C100.395,-148.766 86.8996,-187.154 83.5733,-196.616"/>
</g>
<!-- 2&#45;&#45;3 -->
<g id="edge11" class="edge"><title>2&#45;&#45;3</title>
<path fill="none" stroke="black" d="M50.067,-151.352C42.4866,-145.638 11.2175,-122.069 3.51864,-116.265"/>
</g>
<!-- 2&#45;&#45;4 -->
<g id="edge12" class="edge"><title>2&#45;&#45;4</title>
<path fill="none" stroke="black" d="M53.0812,-150.987C61.5112,-140.908 106.751,-86.8218 115.159,-76.7692"/>
</g>
<!-- 2&#45;&#45;5 -->
<g id="edge13" class="edge"><title>2&#45;&#45;5</title>
<path fill="none" stroke="black" d="M52.7631,-154.139C57.4852,-161.142 76.9639,-190.029 81.7598,-197.141"/>
</g>
<!-- 3&#45;&#45;6 -->
<g id="edge14" class="edge"><title>3&#45;&#45;6</title>
<path fill="none" stroke="black" d="M2.06019,-113.138C3.50378,-102.972 10.5187,-53.5743 12.036,-42.8901"/>
</g>
<!-- 7 -->
<g id="node8" class="node"><title>7</title>
<ellipse fill="black" stroke="black" cx="81.2197" cy="-1.8" rx="1.8" ry="1.8"/>
</g>
<!-- 4&#45;&#45;7 -->
<g id="edge15" class="edge"><title>4&#45;&#45;7</title>
<path fill="none" stroke="black" d="M115.632,-73.3471C110.751,-63.1976 86.8632,-13.5334 82.0614,-3.55003"/>
</g>
<!-- 6&#45;&#45;7 -->
<g id="edge16" class="edge"><title>6&#45;&#45;7</title>
<path fill="none" stroke="black" d="M14.0287,-39.8845C23.4774,-34.5289 69.3924,-8.50384 79.3232,-2.87493"/>
</g>
</g>
</svg>
