<?xml version="1.0" encoding="UTF-8" standalone="no"?>
<!DOCTYPE svg PUBLIC "-//W3C//DTD SVG 1.1//EN"
 "http://www.w3.org/Graphics/SVG/1.1/DTD/svg11.dtd">
<!-- Generated by graphviz version 2.36.0 (20140111.2315)
 -->
<!-- Title: %3 Pages: 1 -->
<svg width="104pt" height="173pt"
 viewBox="0.00 0.00 103.53 173.44" xmlns="http://www.w3.org/2000/svg" xmlns:xlink="http://www.w3.org/1999/xlink">
<g id="graph0" class="graph" transform="scale(1 1) rotate(0) translate(4 169.445)">
<title>%3</title>
<!-- 0 -->
<g id="node1" class="node"><title>0</title>
<ellipse fill="black" stroke="black" cx="31.4289" cy="-95.6392" rx="1.8" ry="1.8"/>
</g>
<!-- 2 -->
<g id="node2" class="node"><title>2</title>
<ellipse fill="black" stroke="black" cx="64.7872" cy="-163.645" rx="1.8" ry="1.8"/>
</g>
<!-- 0&#45;&#45;2 -->
<g id="edge1" class="edge"><title>0&#45;&#45;2</title>
<path fill="none" stroke="black" d="M32.2535,-97.3203C36.8285,-106.647 59.0604,-151.97 63.8689,-161.773"/>
</g>
<!-- 3 -->
<g id="node3" class="node"><title>3</title>
<ellipse fill="black" stroke="black" cx="3.61817" cy="-59.8593" rx="1.8" ry="1.8"/>
</g>
<!-- 0&#45;&#45;3 -->
<g id="edge2" class="edge"><title>0&#45;&#45;3</title>
<path fill="none" stroke="black" d="M30.2339,-94.1018C25.6593,-88.2164 9.2909,-67.1576 4.77776,-61.3512"/>
</g>
<!-- 4 -->
<g id="node4" class="node"><title>4</title>
<ellipse fill="black" stroke="black" cx="92.1605" cy="-119.476" rx="1.8" ry="1.8"/>
</g>
<!-- 0&#45;&#45;4 -->
<g id="edge3" class="edge"><title>0&#45;&#45;4</title>
<path fill="none" stroke="black" d="M33.1809,-96.3269C41.8938,-99.7466 80.5154,-114.905 90.0347,-118.641"/>
</g>
<!-- 5 -->
<g id="node5" class="node"><title>5</title>
<ellipse fill="black" stroke="black" cx="93.7285" cy="-79.864" rx="1.8" ry="1.8"/>
</g>
<!-- 0&#45;&#45;5 -->
<g id="edge4" class="edge"><title>0&#45;&#45;5</title>
<path fill="none" stroke="black" d="M33.2262,-95.1841C42.164,-92.9209 81.7828,-82.8889 91.5478,-80.4162"/>
</g>
<!-- 6 -->
<g id="node6" class="node"><title>6</title>
<ellipse fill="black" stroke="black" cx="1.8" cy="-143.411" rx="1.8" ry="1.8"/>
</g>
<!-- 0&#45;&#45;6 -->
<g id="edge5" class="edge"><title>0&#45;&#45;6</title>
<path fill="none" stroke="black" d="M30.4431,-97.2287C25.9446,-104.482 7.38861,-134.4 2.81989,-141.766"/>
</g>
<!-- 7 -->
<g id="node7" class="node"><title>7</title>
<ellipse fill="black" stroke="black" cx="15.7484" cy="-1.8" rx="1.8" ry="1.8"/>
</g>
<!-- 0&#45;&#45;7 -->
<g id="edge6" class="edge"><title>0&#45;&#45;7</title>
<path fill="none" stroke="black" d="M31.1014,-93.6793C29.0607,-81.467 18.1095,-15.93 16.0741,-3.74918"/>
</g>
<!-- 2&#45;&#45;4 -->
<g id="edge11" class="edge"><title>2&#45;&#45;4</title>
<path fill="none" stroke="black" d="M65.9634,-161.747C70.466,-154.482 86.577,-128.485 91.0192,-121.317"/>
</g>
<!-- 2&#45;&#45;5 -->
<g id="edge12" class="edge"><title>2&#45;&#45;5</title>
<path fill="none" stroke="black" d="M65.3917,-161.895C69.1581,-150.992 89.3706,-92.4795 93.1274,-81.6043"/>
</g>
<!-- 2&#45;&#45;6 -->
<g id="edge13" class="edge"><title>2&#45;&#45;6</title>
<path fill="none" stroke="black" d="M62.97,-163.061C53.9335,-160.158 13.8776,-147.291 4.00481,-144.119"/>
</g>
<!-- 3&#45;&#45;5 -->
<g id="edge14" class="edge"><title>3&#45;&#45;5</title>
<path fill="none" stroke="black" d="M5.50026,-60.2772C17.2273,-62.8806 80.16,-76.8518 91.8568,-79.4485"/>
</g>
<!-- 3&#45;&#45;6 -->
<g id="edge15" class="edge"><title>3&#45;&#45;6</title>
<path fill="none" stroke="black" d="M3.57323,-61.9247C3.32168,-73.4842 2.0908,-130.047 1.84337,-141.418"/>
</g>
<!-- 4&#45;&#45;6 -->
<g id="edge16" class="edge"><title>4&#45;&#45;6</title>
<path fill="none" stroke="black" d="M90.2732,-119.976C78.5136,-123.091 15.4062,-139.807 3.67692,-142.914"/>
</g>
<!-- 1 -->
<g id="node8" class="node"><title>1</title>
<ellipse fill="black" stroke="black" cx="80.2724" cy="-25.2096" rx="1.8" ry="1.8"/>
</g>
<!-- 1&#45;&#45;3 -->
<g id="edge7" class="edge"><title>1&#45;&#45;3</title>
<path fill="none" stroke="black" d="M78.3776,-26.0661C67.7723,-30.86 15.8783,-54.3174 5.44677,-59.0328"/>
</g>
<!-- 1&#45;&#45;4 -->
<g id="edge8" class="edge"><title>1&#45;&#45;4</title>
<path fill="none" stroke="black" d="M80.5207,-27.1785C82.0678,-39.4463 90.3704,-105.281 91.9136,-117.518"/>
</g>
<!-- 1&#45;&#45;5 -->
<g id="edge9" class="edge"><title>1&#45;&#45;5</title>
<path fill="none" stroke="black" d="M80.7201,-27.028C82.7631,-35.326 91.1904,-69.5551 93.2654,-77.9827"/>
</g>
<!-- 1&#45;&#45;7 -->
<g id="edge10" class="edge"><title>1&#45;&#45;7</title>
<path fill="none" stroke="black" d="M78.4109,-24.5342C68.9886,-21.1158 26.6451,-5.75336 17.4952,-2.43373"/>
</g>
</g>
</svg>
