<?xml version="1.0" encoding="UTF-8" standalone="no"?>
<!DOCTYPE svg PUBLIC "-//W3C//DTD SVG 1.1//EN"
 "http://www.w3.org/Graphics/SVG/1.1/DTD/svg11.dtd">
<!-- Generated by graphviz version 2.36.0 (20140111.2315)
 -->
<!-- Title: %3 Pages: 1 -->
<svg width="223pt" height="150pt"
 viewBox="0.00 0.00 223.11 150.11" xmlns="http://www.w3.org/2000/svg" xmlns:xlink="http://www.w3.org/1999/xlink">
<g id="graph0" class="graph" transform="scale(1 1) rotate(0) translate(4 146.109)">
<title>%3</title>
<!-- 0 -->
<g id="node1" class="node"><title>0</title>
<ellipse fill="black" stroke="black" cx="76.1689" cy="-61.4847" rx="1.8" ry="1.8"/>
</g>
<!-- 1 -->
<g id="node2" class="node"><title>1</title>
<ellipse fill="black" stroke="black" cx="69.164" cy="-102.755" rx="1.8" ry="1.8"/>
</g>
<!-- 0&#45;&#45;1 -->
<g id="edge1" class="edge"><title>0&#45;&#45;1</title>
<path fill="none" stroke="black" d="M75.7923,-63.7036C74.5646,-70.9365 70.6899,-93.7653 69.509,-100.723"/>
</g>
<!-- 2 -->
<g id="node3" class="node"><title>2</title>
<ellipse fill="black" stroke="black" cx="139.14" cy="-56.6411" rx="1.8" ry="1.8"/>
</g>
<!-- 0&#45;&#45;2 -->
<g id="edge2" class="edge"><title>0&#45;&#45;2</title>
<path fill="none" stroke="black" d="M77.9856,-61.345C87.0198,-60.6501 127.066,-57.5699 136.936,-56.8107"/>
</g>
<!-- 3 -->
<g id="node4" class="node"><title>3</title>
<ellipse fill="black" stroke="black" cx="148.295" cy="-108.25" rx="1.8" ry="1.8"/>
</g>
<!-- 0&#45;&#45;3 -->
<g id="edge3" class="edge"><title>0&#45;&#45;3</title>
<path fill="none" stroke="black" d="M77.9518,-62.6407C87.9306,-69.1108 136.759,-100.77 146.574,-107.134"/>
</g>
<!-- 5 -->
<g id="node5" class="node"><title>5</title>
<ellipse fill="black" stroke="black" cx="1.8" cy="-104.194" rx="1.8" ry="1.8"/>
</g>
<!-- 0&#45;&#45;5 -->
<g id="edge4" class="edge"><title>0&#45;&#45;5</title>
<path fill="none" stroke="black" d="M74.3306,-62.5405C64.0415,-68.4494 13.6947,-97.3633 3.57408,-103.175"/>
</g>
<!-- 6 -->
<g id="node6" class="node"><title>6</title>
<ellipse fill="black" stroke="black" cx="109.965" cy="-140.309" rx="1.8" ry="1.8"/>
</g>
<!-- 0&#45;&#45;6 -->
<g id="edge5" class="edge"><title>0&#45;&#45;6</title>
<path fill="none" stroke="black" d="M77.0043,-63.4332C81.68,-74.3387 104.559,-127.702 109.159,-138.429"/>
</g>
<!-- 7 -->
<g id="node7" class="node"><title>7</title>
<ellipse fill="black" stroke="black" cx="10.3878" cy="-41.7289" rx="1.8" ry="1.8"/>
</g>
<!-- 0&#45;&#45;7 -->
<g id="edge6" class="edge"><title>0&#45;&#45;7</title>
<path fill="none" stroke="black" d="M74.2711,-60.9148C64.6653,-58.0299 21.4968,-45.0652 12.1686,-42.2637"/>
</g>
<!-- 1&#45;&#45;2 -->
<g id="edge7" class="edge"><title>1&#45;&#45;2</title>
<path fill="none" stroke="black" d="M70.8938,-101.615C80.491,-95.2909 127.127,-64.5577 137.214,-57.9105"/>
</g>
<!-- 1&#45;&#45;3 -->
<g id="edge8" class="edge"><title>1&#45;&#45;3</title>
<path fill="none" stroke="black" d="M71.1201,-102.891C82.068,-103.651 135.639,-107.371 146.407,-108.119"/>
</g>
<!-- 1&#45;&#45;5 -->
<g id="edge9" class="edge"><title>1&#45;&#45;5</title>
<path fill="none" stroke="black" d="M67.2206,-102.797C57.3836,-103.007 13.1763,-103.951 3.62362,-104.155"/>
</g>
<!-- 1&#45;&#45;6 -->
<g id="edge10" class="edge"><title>1&#45;&#45;6</title>
<path fill="none" stroke="black" d="M70.5215,-104.005C76.7162,-109.706 102.269,-133.226 108.56,-139.017"/>
</g>
<!-- 1&#45;&#45;7 -->
<g id="edge11" class="edge"><title>1&#45;&#45;7</title>
<path fill="none" stroke="black" d="M67.7111,-101.247C59.65,-92.8771 20.4782,-52.2056 12.0057,-43.4088"/>
</g>
<!-- 2&#45;&#45;3 -->
<g id="edge12" class="edge"><title>2&#45;&#45;3</title>
<path fill="none" stroke="black" d="M139.534,-58.8587C141.04,-67.3478 146.428,-97.7229 147.913,-106.098"/>
</g>
<!-- 2&#45;&#45;6 -->
<g id="edge14" class="edge"><title>2&#45;&#45;6</title>
<path fill="none" stroke="black" d="M138.531,-58.3887C134.734,-69.2773 114.358,-127.711 110.571,-138.571"/>
</g>
<!-- 4 -->
<g id="node8" class="node"><title>4</title>
<ellipse fill="black" stroke="black" cx="213.312" cy="-69.8212" rx="1.8" ry="1.8"/>
</g>
<!-- 2&#45;&#45;4 -->
<g id="edge13" class="edge"><title>2&#45;&#45;4</title>
<path fill="none" stroke="black" d="M140.974,-56.9669C151.146,-58.7746 200.579,-67.5585 211.27,-69.4584"/>
</g>
<!-- 8 -->
<g id="node9" class="node"><title>8</title>
<ellipse fill="black" stroke="black" cx="192.822" cy="-1.8" rx="1.8" ry="1.8"/>
</g>
<!-- 2&#45;&#45;8 -->
<g id="edge15" class="edge"><title>2&#45;&#45;8</title>
<path fill="none" stroke="black" d="M140.467,-55.2855C147.83,-47.7641 183.606,-11.2148 191.344,-3.30963"/>
</g>
<!-- 3&#45;&#45;4 -->
<g id="edge16" class="edge"><title>3&#45;&#45;4</title>
<path fill="none" stroke="black" d="M149.902,-107.3C158.819,-102.03 202.15,-76.4184 211.522,-70.8791"/>
</g>
<!-- 5&#45;&#45;7 -->
<g id="edge18" class="edge"><title>5&#45;&#45;7</title>
<path fill="none" stroke="black" d="M2.04775,-102.392C3.27981,-93.4306 8.74111,-53.7065 10.0872,-43.9155"/>
</g>
<!-- 4&#45;&#45;8 -->
<g id="edge17" class="edge"><title>4&#45;&#45;8</title>
<path fill="none" stroke="black" d="M212.721,-67.8588C209.729,-57.9259 196.282,-13.2873 193.376,-3.64142"/>
</g>
</g>
</svg>
