<?xml version="1.0" encoding="UTF-8" standalone="no"?>
<!DOCTYPE svg PUBLIC "-//W3C//DTD SVG 1.1//EN"
 "http://www.w3.org/Graphics/SVG/1.1/DTD/svg11.dtd">
<!-- Generated by graphviz version 2.36.0 (20140111.2315)
 -->
<!-- Title: %3 Pages: 1 -->
<svg width="226pt" height="180pt"
 viewBox="0.00 0.00 226.16 179.91" xmlns="http://www.w3.org/2000/svg" xmlns:xlink="http://www.w3.org/1999/xlink">
<g id="graph0" class="graph" transform="scale(1 1) rotate(0) translate(4 175.91)">
<title>%3</title>
<!-- 0 -->
<g id="node1" class="node"><title>0</title>
<ellipse fill="black" stroke="black" cx="73.5441" cy="-98.6267" rx="1.8" ry="1.8"/>
</g>
<!-- 1 -->
<g id="node2" class="node"><title>1</title>
<ellipse fill="black" stroke="black" cx="122.759" cy="-55.8534" rx="1.8" ry="1.8"/>
</g>
<!-- 0&#45;&#45;1 -->
<g id="edge1" class="edge"><title>0&#45;&#45;1</title>
<path fill="none" stroke="black" d="M75.1816,-97.2035C82.6537,-90.7094 113.476,-63.9213 121.065,-57.3257"/>
</g>
<!-- 3 -->
<g id="node3" class="node"><title>3</title>
<ellipse fill="black" stroke="black" cx="103.023" cy="-8.73331" rx="1.8" ry="1.8"/>
</g>
<!-- 0&#45;&#45;3 -->
<g id="edge2" class="edge"><title>0&#45;&#45;3</title>
<path fill="none" stroke="black" d="M74.1598,-96.7491C77.9963,-85.0503 98.5846,-22.2692 102.411,-10.6005"/>
</g>
<!-- 4 -->
<g id="node4" class="node"><title>4</title>
<ellipse fill="black" stroke="black" cx="147.311" cy="-122.541" rx="1.8" ry="1.8"/>
</g>
<!-- 0&#45;&#45;4 -->
<g id="edge3" class="edge"><title>0&#45;&#45;4</title>
<path fill="none" stroke="black" d="M75.3676,-99.2178C85.5734,-102.526 135.513,-118.716 145.551,-121.971"/>
</g>
<!-- 5 -->
<g id="node5" class="node"><title>5</title>
<ellipse fill="black" stroke="black" cx="1.8" cy="-61.572" rx="1.8" ry="1.8"/>
</g>
<!-- 0&#45;&#45;5 -->
<g id="edge4" class="edge"><title>0&#45;&#45;5</title>
<path fill="none" stroke="black" d="M71.7707,-97.7107C61.8447,-92.5841 13.2748,-67.4986 3.51147,-62.456"/>
</g>
<!-- 7 -->
<g id="node6" class="node"><title>7</title>
<ellipse fill="black" stroke="black" cx="35.4347" cy="-170.11" rx="1.8" ry="1.8"/>
</g>
<!-- 0&#45;&#45;7 -->
<g id="edge5" class="edge"><title>0&#45;&#45;7</title>
<path fill="none" stroke="black" d="M72.6021,-100.394C67.3296,-110.284 41.5299,-158.677 36.3438,-168.405"/>
</g>
<!-- 1&#45;&#45;3 -->
<g id="edge7" class="edge"><title>1&#45;&#45;3</title>
<path fill="none" stroke="black" d="M121.911,-53.8287C118.665,-46.0779 107.049,-18.3447 103.846,-10.698"/>
</g>
<!-- 1&#45;&#45;4 -->
<g id="edge8" class="edge"><title>1&#45;&#45;4</title>
<path fill="none" stroke="black" d="M123.467,-57.7773C127.053,-67.5155 143.165,-111.279 146.647,-120.736"/>
</g>
<!-- 2 -->
<g id="node7" class="node"><title>2</title>
<ellipse fill="black" stroke="black" cx="47.2301" cy="-1.8" rx="1.8" ry="1.8"/>
</g>
<!-- 1&#45;&#45;2 -->
<g id="edge6" class="edge"><title>1&#45;&#45;2</title>
<path fill="none" stroke="black" d="M121.181,-54.7244C111.352,-47.6898 58.603,-9.93919 48.7989,-2.92277"/>
</g>
<!-- 6 -->
<g id="node8" class="node"><title>6</title>
<ellipse fill="black" stroke="black" cx="216.358" cy="-152.942" rx="1.8" ry="1.8"/>
</g>
<!-- 4&#45;&#45;6 -->
<g id="edge11" class="edge"><title>4&#45;&#45;6</title>
<path fill="none" stroke="black" d="M149.018,-123.292C158.488,-127.462 204.504,-147.723 214.457,-152.106"/>
</g>
<!-- 2&#45;&#45;3 -->
<g id="edge9" class="edge"><title>2&#45;&#45;3</title>
<path fill="none" stroke="black" d="M49.0864,-2.03068C57.5573,-3.08334 92.4997,-7.42554 101.103,-8.49465"/>
</g>
<!-- 2&#45;&#45;5 -->
<g id="edge10" class="edge"><title>2&#45;&#45;5</title>
<path fill="none" stroke="black" d="M46.1071,-3.27752C39.8764,-11.4752 9.59917,-51.3107 3.05057,-59.9267"/>
</g>
</g>
</svg>
