<?xml version="1.0" encoding="UTF-8" standalone="no"?>
<!DOCTYPE svg PUBLIC "-//W3C//DTD SVG 1.1//EN"
 "http://www.w3.org/Graphics/SVG/1.1/DTD/svg11.dtd">
<!-- Generated by graphviz version 2.36.0 (20140111.2315)
 -->
<!-- Title: %3 Pages: 1 -->
<svg width="183pt" height="171pt"
 viewBox="0.00 0.00 182.60 171.06" xmlns="http://www.w3.org/2000/svg" xmlns:xlink="http://www.w3.org/1999/xlink">
<g id="graph0" class="graph" transform="scale(1 1) rotate(0) translate(4 167.059)">
<title>%3</title>
<!-- 0 -->
<g id="node1" class="node"><title>0</title>
<ellipse fill="black" stroke="black" cx="60.7894" cy="-87.0158" rx="1.8" ry="1.8"/>
</g>
<!-- 1 -->
<g id="node2" class="node"><title>1</title>
<ellipse fill="black" stroke="black" cx="85.3357" cy="-114.895" rx="1.8" ry="1.8"/>
</g>
<!-- 0&#45;&#45;1 -->
<g id="edge1" class="edge"><title>0&#45;&#45;1</title>
<path fill="none" stroke="black" d="M62.1091,-88.5147C66.411,-93.4007 79.9888,-108.822 84.1268,-113.522"/>
</g>
<!-- 2 -->
<g id="node3" class="node"><title>2</title>
<ellipse fill="black" stroke="black" cx="110.79" cy="-62.4633" rx="1.8" ry="1.8"/>
</g>
<!-- 0&#45;&#45;2 -->
<g id="edge2" class="edge"><title>0&#45;&#45;2</title>
<path fill="none" stroke="black" d="M62.453,-86.1989C70.0443,-82.4712 101.359,-67.0944 109.068,-63.3085"/>
</g>
<!-- 3 -->
<g id="node4" class="node"><title>3</title>
<ellipse fill="black" stroke="black" cx="27.8432" cy="-49.3655" rx="1.8" ry="1.8"/>
</g>
<!-- 0&#45;&#45;3 -->
<g id="edge3" class="edge"><title>0&#45;&#45;3</title>
<path fill="none" stroke="black" d="M59.3737,-85.398C53.9544,-79.2049 34.5634,-57.0453 29.2169,-50.9354"/>
</g>
<!-- 4 -->
<g id="node5" class="node"><title>4</title>
<ellipse fill="black" stroke="black" cx="145.02" cy="-123.146" rx="1.8" ry="1.8"/>
</g>
<!-- 0&#45;&#45;4 -->
<g id="edge4" class="edge"><title>0&#45;&#45;4</title>
<path fill="none" stroke="black" d="M62.5486,-87.7704C73.5104,-92.4724 132.337,-117.706 143.27,-122.396"/>
</g>
<!-- 5 -->
<g id="node6" class="node"><title>5</title>
<ellipse fill="black" stroke="black" cx="99.6799" cy="-161.259" rx="1.8" ry="1.8"/>
</g>
<!-- 0&#45;&#45;5 -->
<g id="edge5" class="edge"><title>0&#45;&#45;5</title>
<path fill="none" stroke="black" d="M61.7507,-88.851C67.1313,-99.1226 93.4597,-149.384 98.7522,-159.487"/>
</g>
<!-- 6 -->
<g id="node7" class="node"><title>6</title>
<ellipse fill="black" stroke="black" cx="1.8" cy="-117.214" rx="1.8" ry="1.8"/>
</g>
<!-- 0&#45;&#45;6 -->
<g id="edge6" class="edge"><title>0&#45;&#45;6</title>
<path fill="none" stroke="black" d="M59.0875,-87.887C50.6246,-92.2194 13.111,-111.423 3.86487,-116.157"/>
</g>
<!-- 7 -->
<g id="node8" class="node"><title>7</title>
<ellipse fill="black" stroke="black" cx="71.4237" cy="-1.8" rx="1.8" ry="1.8"/>
</g>
<!-- 0&#45;&#45;7 -->
<g id="edge7" class="edge"><title>0&#45;&#45;7</title>
<path fill="none" stroke="black" d="M61.0522,-84.9093C62.5235,-73.1195 69.7229,-15.4295 71.17,-3.83284"/>
</g>
<!-- 1&#45;&#45;2 -->
<g id="edge8" class="edge"><title>1&#45;&#45;2</title>
<path fill="none" stroke="black" d="M86.1826,-113.151C90.0472,-105.19 105.988,-72.3531 109.913,-64.2682"/>
</g>
<!-- 1&#45;&#45;3 -->
<g id="edge9" class="edge"><title>1&#45;&#45;3</title>
<path fill="none" stroke="black" d="M83.9145,-113.275C76.0295,-104.288 37.7132,-60.6153 29.4258,-51.1694"/>
</g>
<!-- 1&#45;&#45;4 -->
<g id="edge10" class="edge"><title>1&#45;&#45;4</title>
<path fill="none" stroke="black" d="M87.3215,-115.17C96.3831,-116.422 133.762,-121.59 142.965,-122.862"/>
</g>
<!-- 1&#45;&#45;5 -->
<g id="edge11" class="edge"><title>1&#45;&#45;5</title>
<path fill="none" stroke="black" d="M85.952,-116.887C88.3115,-124.514 96.7541,-151.801 99.0819,-159.325"/>
</g>
<!-- 1&#45;&#45;6 -->
<g id="edge12" class="edge"><title>1&#45;&#45;6</title>
<path fill="none" stroke="black" d="M83.2707,-114.952C71.7134,-115.273 15.1608,-116.843 3.79276,-117.159"/>
</g>
<!-- 8 -->
<g id="node9" class="node"><title>8</title>
<ellipse fill="black" stroke="black" cx="172.8" cy="-71.0287" rx="1.8" ry="1.8"/>
</g>
<!-- 1&#45;&#45;8 -->
<g id="edge13" class="edge"><title>1&#45;&#45;8</title>
<path fill="none" stroke="black" d="M87.1625,-113.979C98.5452,-108.27 159.63,-77.6339 170.984,-71.9398"/>
</g>
<!-- 2&#45;&#45;3 -->
<g id="edge14" class="edge"><title>2&#45;&#45;3</title>
<path fill="none" stroke="black" d="M108.739,-62.1396C97.2634,-60.3275 41.1097,-51.4604 29.8219,-49.678"/>
</g>
<!-- 2&#45;&#45;4 -->
<g id="edge15" class="edge"><title>2&#45;&#45;4</title>
<path fill="none" stroke="black" d="M111.777,-64.214C116.776,-73.0753 139.239,-112.898 144.093,-121.503"/>
</g>
<!-- 2&#45;&#45;5 -->
<g id="edge16" class="edge"><title>2&#45;&#45;5</title>
<path fill="none" stroke="black" d="M110.558,-64.5268C109.112,-77.3841 101.353,-146.382 99.9107,-159.206"/>
</g>
<!-- 2&#45;&#45;7 -->
<g id="edge17" class="edge"><title>2&#45;&#45;7</title>
<path fill="none" stroke="black" d="M109.654,-60.7132C103.905,-51.8547 78.0718,-12.0447 72.4894,-3.44223"/>
</g>
<!-- 2&#45;&#45;8 -->
<g id="edge18" class="edge"><title>2&#45;&#45;8</title>
<path fill="none" stroke="black" d="M112.579,-62.7105C121.475,-63.9393 160.91,-69.3863 170.63,-70.7288"/>
</g>
<!-- 3&#45;&#45;6 -->
<g id="edge19" class="edge"><title>3&#45;&#45;6</title>
<path fill="none" stroke="black" d="M27.0919,-51.3229C23.2888,-61.2306 6.19812,-105.756 2.50502,-115.377"/>
</g>
<!-- 3&#45;&#45;7 -->
<g id="edge20" class="edge"><title>3&#45;&#45;7</title>
<path fill="none" stroke="black" d="M29.2932,-47.7829C35.9099,-40.5612 63.2036,-10.7718 69.9236,-3.43731"/>
</g>
<!-- 4&#45;&#45;5 -->
<g id="edge21" class="edge"><title>4&#45;&#45;5</title>
<path fill="none" stroke="black" d="M143.511,-124.414C136.627,-130.201 108.232,-154.07 101.241,-159.947"/>
</g>
<!-- 4&#45;&#45;8 -->
<g id="edge22" class="edge"><title>4&#45;&#45;8</title>
<path fill="none" stroke="black" d="M145.944,-121.412C150.162,-113.499 167.56,-80.8591 171.844,-72.8227"/>
</g>
</g>
</svg>
