<?xml version="1.0" encoding="UTF-8" standalone="no"?>
<!DOCTYPE svg PUBLIC "-//W3C//DTD SVG 1.1//EN"
 "http://www.w3.org/Graphics/SVG/1.1/DTD/svg11.dtd">
<!-- Generated by graphviz version 2.36.0 (20140111.2315)
 -->
<!-- Title: %3 Pages: 1 -->
<svg width="358pt" height="114pt"
 viewBox="0.00 0.00 357.95 113.60" xmlns="http://www.w3.org/2000/svg" xmlns:xlink="http://www.w3.org/1999/xlink">
<g id="graph0" class="graph" transform="scale(1 1) rotate(0) translate(4 109.598)">
<title>%3</title>
<!-- 0 -->
<g id="node1" class="node"><title>0</title>
<ellipse fill="black" stroke="black" cx="207.722" cy="-49.4199" rx="1.8" ry="1.8"/>
</g>
<!-- 2 -->
<g id="node2" class="node"><title>2</title>
<ellipse fill="black" stroke="black" cx="281.477" cy="-35.3937" rx="1.8" ry="1.8"/>
</g>
<!-- 0&#45;&#45;2 -->
<g id="edge1" class="edge"><title>0&#45;&#45;2</title>
<path fill="none" stroke="black" d="M209.546,-49.0732C219.661,-47.1495 268.816,-37.8016 279.447,-35.7798"/>
</g>
<!-- 3 -->
<g id="node3" class="node"><title>3</title>
<ellipse fill="black" stroke="black" cx="146.419" cy="-2.77606" rx="1.8" ry="1.8"/>
</g>
<!-- 0&#45;&#45;3 -->
<g id="edge2" class="edge"><title>0&#45;&#45;3</title>
<path fill="none" stroke="black" d="M206.207,-48.2669C197.799,-41.8698 156.943,-10.7836 148.106,-4.06004"/>
</g>
<!-- 4 -->
<g id="node4" class="node"><title>4</title>
<ellipse fill="black" stroke="black" cx="133.42" cy="-68.3677" rx="1.8" ry="1.8"/>
</g>
<!-- 0&#45;&#45;4 -->
<g id="edge3" class="edge"><title>0&#45;&#45;4</title>
<path fill="none" stroke="black" d="M205.886,-49.8883C195.606,-52.5098 145.304,-65.3372 135.192,-67.9157"/>
</g>
<!-- 5 -->
<g id="node5" class="node"><title>5</title>
<ellipse fill="black" stroke="black" cx="259.627" cy="-103.798" rx="1.8" ry="1.8"/>
</g>
<!-- 0&#45;&#45;5 -->
<g id="edge4" class="edge"><title>0&#45;&#45;5</title>
<path fill="none" stroke="black" d="M209.005,-50.7641C216.124,-58.222 250.716,-94.4628 258.198,-102.301"/>
</g>
<!-- 2&#45;&#45;5 -->
<g id="edge8" class="edge"><title>2&#45;&#45;5</title>
<path fill="none" stroke="black" d="M280.847,-37.3671C277.656,-47.356 263.317,-92.2461 260.218,-101.946"/>
</g>
<!-- 7 -->
<g id="node8" class="node"><title>7</title>
<ellipse fill="black" stroke="black" cx="348.152" cy="-1.8" rx="1.8" ry="1.8"/>
</g>
<!-- 2&#45;&#45;7 -->
<g id="edge9" class="edge"><title>2&#45;&#45;7</title>
<path fill="none" stroke="black" d="M283.126,-34.5633C292.27,-29.9559 336.706,-7.56717 346.317,-2.72474"/>
</g>
<!-- 3&#45;&#45;4 -->
<g id="edge10" class="edge"><title>3&#45;&#45;4</title>
<path fill="none" stroke="black" d="M146.044,-4.66836C144.145,-14.2465 135.615,-57.2908 133.772,-66.5921"/>
</g>
<!-- 1 -->
<g id="node6" class="node"><title>1</title>
<ellipse fill="black" stroke="black" cx="73.4468" cy="-22.4501" rx="1.8" ry="1.8"/>
</g>
<!-- 1&#45;&#45;3 -->
<g id="edge5" class="edge"><title>1&#45;&#45;3</title>
<path fill="none" stroke="black" d="M75.2506,-21.9638C85.3464,-19.2418 134.747,-5.92276 144.678,-3.24539"/>
</g>
<!-- 1&#45;&#45;4 -->
<g id="edge6" class="edge"><title>1&#45;&#45;4</title>
<path fill="none" stroke="black" d="M74.9293,-23.5852C83.1545,-29.8827 123.124,-60.4849 131.769,-67.1037"/>
</g>
<!-- 6 -->
<g id="node7" class="node"><title>6</title>
<ellipse fill="black" stroke="black" cx="1.8" cy="-5.36382" rx="1.8" ry="1.8"/>
</g>
<!-- 1&#45;&#45;6 -->
<g id="edge7" class="edge"><title>1&#45;&#45;6</title>
<path fill="none" stroke="black" d="M71.6758,-22.0278C61.8495,-19.6844 14.0999,-8.2971 3.77224,-5.83416"/>
</g>
</g>
</svg>
