<?xml version="1.0" encoding="UTF-8" standalone="no"?>
<!DOCTYPE svg PUBLIC "-//W3C//DTD SVG 1.1//EN"
 "http://www.w3.org/Graphics/SVG/1.1/DTD/svg11.dtd">
<!-- Generated by graphviz version 2.36.0 (20140111.2315)
 -->
<!-- Title: %3 Pages: 1 -->
<svg width="158pt" height="176pt"
 viewBox="0.00 0.00 158.08 175.89" xmlns="http://www.w3.org/2000/svg" xmlns:xlink="http://www.w3.org/1999/xlink">
<g id="graph0" class="graph" transform="scale(1 1) rotate(0) translate(4 171.889)">
<title>%3</title>
<!-- 0 -->
<g id="node1" class="node"><title>0</title>
<ellipse fill="black" stroke="black" cx="65.1101" cy="-86.8638" rx="1.8" ry="1.8"/>
</g>
<!-- 1 -->
<g id="node2" class="node"><title>1</title>
<ellipse fill="black" stroke="black" cx="86.4019" cy="-15.683" rx="1.8" ry="1.8"/>
</g>
<!-- 0&#45;&#45;1 -->
<g id="edge1" class="edge"><title>0&#45;&#45;1</title>
<path fill="none" stroke="black" d="M65.6365,-85.1042C68.5566,-75.3419 82.7466,-27.9029 85.8157,-17.6424"/>
</g>
<!-- 2 -->
<g id="node3" class="node"><title>2</title>
<ellipse fill="black" stroke="black" cx="26.4889" cy="-52.5047" rx="1.8" ry="1.8"/>
</g>
<!-- 0&#45;&#45;2 -->
<g id="edge2" class="edge"><title>0&#45;&#45;2</title>
<path fill="none" stroke="black" d="M63.4506,-85.3874C57.0978,-79.7357 34.3667,-59.5131 28.0992,-53.9373"/>
</g>
<!-- 3 -->
<g id="node4" class="node"><title>3</title>
<ellipse fill="black" stroke="black" cx="1.8" cy="-118.688" rx="1.8" ry="1.8"/>
</g>
<!-- 0&#45;&#45;3 -->
<g id="edge3" class="edge"><title>0&#45;&#45;3</title>
<path fill="none" stroke="black" d="M63.2837,-87.7819C54.0387,-92.4291 12.4917,-113.314 3.51388,-117.826"/>
</g>
<!-- 4 -->
<g id="node5" class="node"><title>4</title>
<ellipse fill="black" stroke="black" cx="117.219" cy="-77.126" rx="1.8" ry="1.8"/>
</g>
<!-- 0&#45;&#45;4 -->
<g id="edge4" class="edge"><title>0&#45;&#45;4</title>
<path fill="none" stroke="black" d="M67.3492,-86.4453C75.9206,-84.8436 106.59,-79.1123 115.046,-77.532"/>
</g>
<!-- 5 -->
<g id="node6" class="node"><title>5</title>
<ellipse fill="black" stroke="black" cx="25.9963" cy="-166.089" rx="1.8" ry="1.8"/>
</g>
<!-- 0&#45;&#45;5 -->
<g id="edge5" class="edge"><title>0&#45;&#45;5</title>
<path fill="none" stroke="black" d="M64.2932,-88.5185C59.2029,-98.8289 31.8859,-154.159 26.8087,-164.443"/>
</g>
<!-- 6 -->
<g id="node7" class="node"><title>6</title>
<ellipse fill="black" stroke="black" cx="20.8432" cy="-1.8" rx="1.8" ry="1.8"/>
</g>
<!-- 0&#45;&#45;6 -->
<g id="edge6" class="edge"><title>0&#45;&#45;6</title>
<path fill="none" stroke="black" d="M64.1856,-85.0871C58.4246,-74.0168 27.5088,-14.6086 21.7627,-3.5669"/>
</g>
<!-- 7 -->
<g id="node8" class="node"><title>7</title>
<ellipse fill="black" stroke="black" cx="148.283" cy="-42.3483" rx="1.8" ry="1.8"/>
</g>
<!-- 0&#45;&#45;7 -->
<g id="edge7" class="edge"><title>0&#45;&#45;7</title>
<path fill="none" stroke="black" d="M66.8473,-85.934C77.6714,-80.1407 135.759,-49.0513 146.555,-43.2729"/>
</g>
<!-- 8 -->
<g id="node9" class="node"><title>8</title>
<ellipse fill="black" stroke="black" cx="78.0493" cy="-160.724" rx="1.8" ry="1.8"/>
</g>
<!-- 0&#45;&#45;8 -->
<g id="edge8" class="edge"><title>0&#45;&#45;8</title>
<path fill="none" stroke="black" d="M65.43,-88.6895C67.2046,-98.8194 75.828,-148.044 77.6931,-158.691"/>
</g>
<!-- 1&#45;&#45;2 -->
<g id="edge9" class="edge"><title>1&#45;&#45;2</title>
<path fill="none" stroke="black" d="M84.6734,-16.7453C75.9245,-22.1223 36.6069,-46.2863 28.1108,-51.5079"/>
</g>
<!-- 1&#45;&#45;4 -->
<g id="edge10" class="edge"><title>1&#45;&#45;4</title>
<path fill="none" stroke="black" d="M87.2909,-17.4556C91.7911,-26.428 112.015,-66.7496 116.385,-75.4626"/>
</g>
<!-- 1&#45;&#45;6 -->
<g id="edge11" class="edge"><title>1&#45;&#45;6</title>
<path fill="none" stroke="black" d="M84.5105,-15.2825C74.9372,-13.2552 31.9146,-4.14454 22.618,-2.17583"/>
</g>
<!-- 1&#45;&#45;7 -->
<g id="edge12" class="edge"><title>1&#45;&#45;7</title>
<path fill="none" stroke="black" d="M88.1871,-16.4523C97.2234,-20.3462 137.832,-37.8451 146.608,-41.6264"/>
</g>
<!-- 2&#45;&#45;3 -->
<g id="edge13" class="edge"><title>2&#45;&#45;3</title>
<path fill="none" stroke="black" d="M25.7766,-54.414C22.1714,-64.0786 5.96941,-107.511 2.46836,-116.896"/>
</g>
<!-- 2&#45;&#45;4 -->
<g id="edge14" class="edge"><title>2&#45;&#45;4</title>
<path fill="none" stroke="black" d="M28.3839,-53.0189C40.1916,-56.2232 103.557,-73.4186 115.335,-76.6146"/>
</g>
<!-- 2&#45;&#45;6 -->
<g id="edge15" class="edge"><title>2&#45;&#45;6</title>
<path fill="none" stroke="black" d="M26.2463,-50.326C25.3177,-41.9856 21.9948,-12.1426 21.0786,-3.91416"/>
</g>
<!-- 3&#45;&#45;5 -->
<g id="edge16" class="edge"><title>3&#45;&#45;5</title>
<path fill="none" stroke="black" d="M2.83968,-120.725C6.81972,-128.522 21.0608,-156.42 24.9874,-164.113"/>
</g>
<!-- 3&#45;&#45;8 -->
<g id="edge17" class="edge"><title>3&#45;&#45;8</title>
<path fill="none" stroke="black" d="M3.39258,-119.566C13.3157,-125.037 66.5679,-154.394 76.4655,-159.851"/>
</g>
<!-- 4&#45;&#45;7 -->
<g id="edge18" class="edge"><title>4&#45;&#45;7</title>
<path fill="none" stroke="black" d="M118.554,-75.6316C123.664,-69.911 141.947,-49.4421 146.988,-43.7984"/>
</g>
<!-- 5&#45;&#45;8 -->
<g id="edge19" class="edge"><title>5&#45;&#45;8</title>
<path fill="none" stroke="black" d="M28.2329,-165.858C36.7951,-164.976 67.4317,-161.818 75.8789,-160.948"/>
</g>
</g>
</svg>
