<?xml version="1.0" encoding="UTF-8" standalone="no"?>
<!DOCTYPE svg PUBLIC "-//W3C//DTD SVG 1.1//EN"
 "http://www.w3.org/Graphics/SVG/1.1/DTD/svg11.dtd">
<!-- Generated by graphviz version 2.36.0 (20140111.2315)
 -->
<!-- Title: %3 Pages: 1 -->
<svg width="155pt" height="166pt"
 viewBox="0.00 0.00 154.78 166.35" xmlns="http://www.w3.org/2000/svg" xmlns:xlink="http://www.w3.org/1999/xlink">
<g id="graph0" class="graph" transform="scale(1 1) rotate(0) translate(4 162.35)">
<title>%3</title>
<!-- 0 -->
<g id="node1" class="node"><title>0</title>
<ellipse fill="black" stroke="black" cx="69.8588" cy="-77.2865" rx="1.8" ry="1.8"/>
</g>
<!-- 1 -->
<g id="node2" class="node"><title>1</title>
<ellipse fill="black" stroke="black" cx="75.8058" cy="-42.1107" rx="1.8" ry="1.8"/>
</g>
<!-- 0&#45;&#45;1 -->
<g id="edge1" class="edge"><title>0&#45;&#45;1</title>
<path fill="none" stroke="black" d="M70.1785,-75.3953C71.2015,-69.3447 74.3893,-50.4891 75.4549,-44.1863"/>
</g>
<!-- 2 -->
<g id="node3" class="node"><title>2</title>
<ellipse fill="black" stroke="black" cx="65.7498" cy="-1.8" rx="1.8" ry="1.8"/>
</g>
<!-- 0&#45;&#45;2 -->
<g id="edge2" class="edge"><title>0&#45;&#45;2</title>
<path fill="none" stroke="black" d="M69.7572,-75.4205C69.1887,-64.9768 66.407,-13.8734 65.8478,-3.60074"/>
</g>
<!-- 3 -->
<g id="node4" class="node"><title>3</title>
<ellipse fill="black" stroke="black" cx="69.6739" cy="-130.711" rx="1.8" ry="1.8"/>
</g>
<!-- 0&#45;&#45;3 -->
<g id="edge3" class="edge"><title>0&#45;&#45;3</title>
<path fill="none" stroke="black" d="M69.8509,-79.5821C69.8204,-88.3699 69.7116,-119.814 69.6816,-128.484"/>
</g>
<!-- 4 -->
<g id="node5" class="node"><title>4</title>
<ellipse fill="black" stroke="black" cx="129.473" cy="-73.9598" rx="1.8" ry="1.8"/>
</g>
<!-- 0&#45;&#45;4 -->
<g id="edge4" class="edge"><title>0&#45;&#45;4</title>
<path fill="none" stroke="black" d="M71.8423,-77.1758C80.8932,-76.6707 118.228,-74.5873 127.421,-74.0743"/>
</g>
<!-- 5 -->
<g id="node6" class="node"><title>5</title>
<ellipse fill="black" stroke="black" cx="1.8" cy="-62.2243" rx="1.8" ry="1.8"/>
</g>
<!-- 0&#45;&#45;5 -->
<g id="edge5" class="edge"><title>0&#45;&#45;5</title>
<path fill="none" stroke="black" d="M67.8953,-76.852C57.9569,-74.6525 13.2936,-64.768 3.64243,-62.6321"/>
</g>
<!-- 6 -->
<g id="node7" class="node"><title>6</title>
<ellipse fill="black" stroke="black" cx="11.5481" cy="-7.12412" rx="1.8" ry="1.8"/>
</g>
<!-- 0&#45;&#45;6 -->
<g id="edge6" class="edge"><title>0&#45;&#45;6</title>
<path fill="none" stroke="black" d="M68.6409,-75.8211C61.0523,-66.6901 20.3283,-17.689 12.7593,-8.5815"/>
</g>
<!-- 7 -->
<g id="node8" class="node"><title>7</title>
<ellipse fill="black" stroke="black" cx="144.981" cy="-14.2209" rx="1.8" ry="1.8"/>
</g>
<!-- 0&#45;&#45;7 -->
<g id="edge7" class="edge"><title>0&#45;&#45;7</title>
<path fill="none" stroke="black" d="M71.4278,-75.9693C81.2043,-67.7619 133.669,-23.7171 143.421,-15.5309"/>
</g>
<!-- 8 -->
<g id="node9" class="node"><title>8</title>
<ellipse fill="black" stroke="black" cx="115.043" cy="-156.55" rx="1.8" ry="1.8"/>
</g>
<!-- 0&#45;&#45;8 -->
<g id="edge8" class="edge"><title>0&#45;&#45;8</title>
<path fill="none" stroke="black" d="M70.8025,-78.942C76.6829,-89.2574 108.24,-144.615 114.105,-154.904"/>
</g>
<!-- 1&#45;&#45;2 -->
<g id="edge9" class="edge"><title>1&#45;&#45;2</title>
<path fill="none" stroke="black" d="M75.2652,-39.9434C73.5028,-32.8787 67.9403,-10.5809 66.2451,-3.78526"/>
</g>
<!-- 1&#45;&#45;3 -->
<g id="edge10" class="edge"><title>1&#45;&#45;3</title>
<path fill="none" stroke="black" d="M75.6777,-43.9612C74.8797,-55.4918 70.5973,-117.37 69.8013,-128.871"/>
</g>
<!-- 1&#45;&#45;4 -->
<g id="edge11" class="edge"><title>1&#45;&#45;4</title>
<path fill="none" stroke="black" d="M77.5914,-43.1704C85.7394,-48.0059 119.35,-67.9524 127.625,-72.8635"/>
</g>
<!-- 1&#45;&#45;5 -->
<g id="edge12" class="edge"><title>1&#45;&#45;5</title>
<path fill="none" stroke="black" d="M73.9764,-42.6079C63.7376,-45.3907 13.6366,-59.0073 3.56542,-61.7445"/>
</g>
<!-- 1&#45;&#45;6 -->
<g id="edge13" class="edge"><title>1&#45;&#45;6</title>
<path fill="none" stroke="black" d="M74.2174,-41.2459C65.4045,-36.4475 22.5795,-13.1304 13.3169,-8.0872"/>
</g>
<!-- 1&#45;&#45;7 -->
<g id="edge14" class="edge"><title>1&#45;&#45;7</title>
<path fill="none" stroke="black" d="M77.5158,-41.4213C87.0031,-37.5962 133.106,-19.0089 143.077,-14.9886"/>
</g>
<!-- 2&#45;&#45;4 -->
<g id="edge15" class="edge"><title>2&#45;&#45;4</title>
<path fill="none" stroke="black" d="M67.0807,-3.30716C75.3737,-12.6981 119.877,-63.0942 128.149,-72.4609"/>
</g>
<!-- 2&#45;&#45;5 -->
<g id="edge16" class="edge"><title>2&#45;&#45;5</title>
<path fill="none" stroke="black" d="M64.169,-3.29364C55.3984,-11.5808 12.7785,-51.851 3.56036,-60.561"/>
</g>
<!-- 2&#45;&#45;6 -->
<g id="edge17" class="edge"><title>2&#45;&#45;6</title>
<path fill="none" stroke="black" d="M63.9464,-1.97714C55.7172,-2.78548 21.7716,-6.11988 13.4138,-6.94085"/>
</g>
<!-- 3&#45;&#45;4 -->
<g id="edge18" class="edge"><title>3&#45;&#45;4</title>
<path fill="none" stroke="black" d="M71.1521,-129.309C79.3534,-121.525 119.207,-83.7026 127.827,-75.522"/>
</g>
<!-- 3&#45;&#45;8 -->
<g id="edge19" class="edge"><title>3&#45;&#45;8</title>
<path fill="none" stroke="black" d="M71.6234,-131.822C79.0862,-136.072 105.789,-151.28 113.152,-155.473"/>
</g>
</g>
</svg>
