<?xml version="1.0" encoding="UTF-8" standalone="no"?>
<!DOCTYPE svg PUBLIC "-//W3C//DTD SVG 1.1//EN"
 "http://www.w3.org/Graphics/SVG/1.1/DTD/svg11.dtd">
<!-- Generated by graphviz version 2.36.0 (20140111.2315)
 -->
<!-- Title: %3 Pages: 1 -->
<svg width="147pt" height="120pt"
 viewBox="0.00 0.00 147.16 120.37" xmlns="http://www.w3.org/2000/svg" xmlns:xlink="http://www.w3.org/1999/xlink">
<g id="graph0" class="graph" transform="scale(1 1) rotate(0) translate(4 116.374)">
<title>%3</title>
<!-- 0 -->
<g id="node1" class="node"><title>0</title>
<ellipse fill="black" stroke="black" cx="48.5471" cy="-43.878" rx="1.8" ry="1.8"/>
</g>
<!-- 1 -->
<g id="node2" class="node"><title>1</title>
<ellipse fill="black" stroke="black" cx="82.3486" cy="-50.9584" rx="1.8" ry="1.8"/>
</g>
<!-- 0&#45;&#45;1 -->
<g id="edge1" class="edge"><title>0&#45;&#45;1</title>
<path fill="none" stroke="black" d="M50.3644,-44.2586C56.1786,-45.4765 74.2975,-49.2719 80.3541,-50.5406"/>
</g>
<!-- 2 -->
<g id="node3" class="node"><title>2</title>
<ellipse fill="black" stroke="black" cx="79.0684" cy="-1.8" rx="1.8" ry="1.8"/>
</g>
<!-- 0&#45;&#45;2 -->
<g id="edge2" class="edge"><title>0&#45;&#45;2</title>
<path fill="none" stroke="black" d="M49.8586,-42.0699C54.879,-35.1485 72.8428,-10.3829 77.7958,-3.55447"/>
</g>
<!-- 3 -->
<g id="node4" class="node"><title>3</title>
<ellipse fill="black" stroke="black" cx="22.7237" cy="-95.3981" rx="1.8" ry="1.8"/>
</g>
<!-- 0&#45;&#45;3 -->
<g id="edge3" class="edge"><title>0&#45;&#45;3</title>
<path fill="none" stroke="black" d="M47.6879,-45.5921C43.7673,-53.4142 27.5945,-85.6804 23.6126,-93.6247"/>
</g>
<!-- 4 -->
<g id="node5" class="node"><title>4</title>
<ellipse fill="black" stroke="black" cx="119.063" cy="-75.2447" rx="1.8" ry="1.8"/>
</g>
<!-- 0&#45;&#45;4 -->
<g id="edge4" class="edge"><title>0&#45;&#45;4</title>
<path fill="none" stroke="black" d="M50.2902,-44.6533C60.0463,-48.993 107.785,-70.2279 117.381,-74.4965"/>
</g>
<!-- 5 -->
<g id="node6" class="node"><title>5</title>
<ellipse fill="black" stroke="black" cx="77.925" cy="-110.574" rx="1.8" ry="1.8"/>
</g>
<!-- 0&#45;&#45;5 -->
<g id="edge5" class="edge"><title>0&#45;&#45;5</title>
<path fill="none" stroke="black" d="M49.2733,-45.5266C53.3025,-54.674 72.8815,-99.1243 77.1163,-108.738"/>
</g>
<!-- 6 -->
<g id="node7" class="node"><title>6</title>
<ellipse fill="black" stroke="black" cx="1.8" cy="-16.079" rx="1.8" ry="1.8"/>
</g>
<!-- 0&#45;&#45;6 -->
<g id="edge6" class="edge"><title>0&#45;&#45;6</title>
<path fill="none" stroke="black" d="M46.9918,-42.953C39.8943,-38.7324 10.6175,-21.3225 3.40914,-17.0359"/>
</g>
<!-- 7 -->
<g id="node8" class="node"><title>7</title>
<ellipse fill="black" stroke="black" cx="137.364" cy="-8.86495" rx="1.8" ry="1.8"/>
</g>
<!-- 0&#45;&#45;7 -->
<g id="edge7" class="edge"><title>0&#45;&#45;7</title>
<path fill="none" stroke="black" d="M50.4022,-43.1467C61.9609,-38.5901 123.99,-14.1371 135.519,-9.59222"/>
</g>
<!-- 1&#45;&#45;2 -->
<g id="edge8" class="edge"><title>1&#45;&#45;2</title>
<path fill="none" stroke="black" d="M82.2077,-48.8461C81.6681,-40.7601 79.7375,-11.8272 79.2052,-3.84969"/>
</g>
<!-- 1&#45;&#45;3 -->
<g id="edge9" class="edge"><title>1&#45;&#45;3</title>
<path fill="none" stroke="black" d="M80.8747,-52.0569C72.6972,-58.1517 32.9598,-87.7689 24.365,-94.1748"/>
</g>
<!-- 1&#45;&#45;5 -->
<g id="edge10" class="edge"><title>1&#45;&#45;5</title>
<path fill="none" stroke="black" d="M82.2014,-52.9419C81.5298,-61.9931 78.7594,-99.3295 78.0772,-108.522"/>
</g>
<!-- 1&#45;&#45;6 -->
<g id="edge11" class="edge"><title>1&#45;&#45;6</title>
<path fill="none" stroke="black" d="M80.6662,-50.2299C70.1836,-45.6907 13.9288,-21.3311 3.47312,-16.8035"/>
</g>
<!-- 1&#45;&#45;7 -->
<g id="edge12" class="edge"><title>1&#45;&#45;7</title>
<path fill="none" stroke="black" d="M84.1791,-49.5578C92.681,-43.0529 128.226,-15.8567 135.9,-9.98542"/>
</g>
<!-- 2&#45;&#45;4 -->
<g id="edge13" class="edge"><title>2&#45;&#45;4</title>
<path fill="none" stroke="black" d="M80.0571,-3.6155C85.5904,-13.7767 112.666,-63.4979 118.109,-73.4927"/>
</g>
<!-- 2&#45;&#45;5 -->
<g id="edge14" class="edge"><title>2&#45;&#45;5</title>
<path fill="none" stroke="black" d="M79.0486,-3.68798C78.9098,-16.8908 78.0859,-95.2619 77.9454,-108.634"/>
</g>
<!-- 2&#45;&#45;6 -->
<g id="edge15" class="edge"><title>2&#45;&#45;6</title>
<path fill="none" stroke="black" d="M77.1584,-2.15297C66.4682,-4.1285 14.1584,-13.7952 3.64325,-15.7384"/>
</g>
<!-- 2&#45;&#45;7 -->
<g id="edge16" class="edge"><title>2&#45;&#45;7</title>
<path fill="none" stroke="black" d="M81.008,-2.03506C89.8588,-3.10771 126.368,-7.53235 135.357,-8.62176"/>
</g>
<!-- 3&#45;&#45;4 -->
<g id="edge17" class="edge"><title>3&#45;&#45;4</title>
<path fill="none" stroke="black" d="M24.7359,-94.9772C37.2736,-92.3544 104.557,-78.2794 117.062,-75.6634"/>
</g>
<!-- 3&#45;&#45;5 -->
<g id="edge18" class="edge"><title>3&#45;&#45;5</title>
<path fill="none" stroke="black" d="M24.5603,-95.903C32.9413,-98.2072 67.5129,-107.712 76.0248,-110.052"/>
</g>
<!-- 3&#45;&#45;6 -->
<g id="edge19" class="edge"><title>3&#45;&#45;6</title>
<path fill="none" stroke="black" d="M22.2065,-93.4374C19.3116,-82.4635 5.14656,-28.7654 2.29914,-17.9712"/>
</g>
<!-- 4&#45;&#45;5 -->
<g id="edge20" class="edge"><title>4&#45;&#45;5</title>
<path fill="none" stroke="black" d="M117.694,-76.4202C111.449,-81.7842 85.6845,-103.91 79.341,-109.358"/>
</g>
<!-- 4&#45;&#45;7 -->
<g id="edge21" class="edge"><title>4&#45;&#45;7</title>
<path fill="none" stroke="black" d="M119.591,-73.3297C122.264,-63.6364 134.273,-20.075 136.869,-10.6619"/>
</g>
</g>
</svg>
