<?xml version="1.0" encoding="UTF-8" standalone="no"?>
<!DOCTYPE svg PUBLIC "-//W3C//DTD SVG 1.1//EN"
 "http://www.w3.org/Graphics/SVG/1.1/DTD/svg11.dtd">
<!-- Generated by graphviz version 2.36.0 (20140111.2315)
 -->
<!-- Title: %3 Pages: 1 -->
<svg width="170pt" height="168pt"
 viewBox="0.00 0.00 170.06 167.98" xmlns="http://www.w3.org/2000/svg" xmlns:xlink="http://www.w3.org/1999/xlink">
<g id="graph0" class="graph" transform="scale(1 1) rotate(0) translate(4 163.978)">
<title>%3</title>
<!-- 0 -->
<g id="node1" class="node"><title>0</title>
<ellipse fill="black" stroke="black" cx="66.7727" cy="-106.696" rx="1.8" ry="1.8"/>
</g>
<!-- 1 -->
<g id="node2" class="node"><title>1</title>
<ellipse fill="black" stroke="black" cx="85.5683" cy="-56.2352" rx="1.8" ry="1.8"/>
</g>
<!-- 0&#45;&#45;1 -->
<g id="edge1" class="edge"><title>0&#45;&#45;1</title>
<path fill="none" stroke="black" d="M67.5804,-104.528C70.672,-96.2274 81.7344,-66.528 84.7846,-58.3392"/>
</g>
<!-- 2 -->
<g id="node3" class="node"><title>2</title>
<ellipse fill="black" stroke="black" cx="29.6189" cy="-49.6018" rx="1.8" ry="1.8"/>
</g>
<!-- 0&#45;&#45;2 -->
<g id="edge2" class="edge"><title>0&#45;&#45;2</title>
<path fill="none" stroke="black" d="M65.5366,-104.796C59.7949,-95.9731 35.7902,-59.0852 30.6079,-51.1215"/>
</g>
<!-- 4 -->
<g id="node4" class="node"><title>4</title>
<ellipse fill="black" stroke="black" cx="1.8" cy="-90.528" rx="1.8" ry="1.8"/>
</g>
<!-- 0&#45;&#45;4 -->
<g id="edge3" class="edge"><title>0&#45;&#45;4</title>
<path fill="none" stroke="black" d="M64.8983,-106.229C55.4105,-103.869 12.7725,-93.2584 3.55889,-90.9656"/>
</g>
<!-- 5 -->
<g id="node5" class="node"><title>5</title>
<ellipse fill="black" stroke="black" cx="78.5086" cy="-1.8" rx="1.8" ry="1.8"/>
</g>
<!-- 0&#45;&#45;5 -->
<g id="edge4" class="edge"><title>0&#45;&#45;5</title>
<path fill="none" stroke="black" d="M66.9764,-104.875C68.4009,-92.1432 76.8565,-16.5665 78.2993,-3.67078"/>
</g>
<!-- 6 -->
<g id="node6" class="node"><title>6</title>
<ellipse fill="black" stroke="black" cx="125.534" cy="-158.178" rx="1.8" ry="1.8"/>
</g>
<!-- 0&#45;&#45;6 -->
<g id="edge5" class="edge"><title>0&#45;&#45;6</title>
<path fill="none" stroke="black" d="M68.2253,-107.969C76.2843,-115.029 115.446,-149.34 123.916,-156.761"/>
</g>
<!-- 1&#45;&#45;2 -->
<g id="edge6" class="edge"><title>1&#45;&#45;2</title>
<path fill="none" stroke="black" d="M83.7067,-56.0145C75.2122,-55.0074 40.1721,-50.853 31.5448,-49.8301"/>
</g>
<!-- 1&#45;&#45;4 -->
<g id="edge8" class="edge"><title>1&#45;&#45;4</title>
<path fill="none" stroke="black" d="M83.8186,-56.9515C72.917,-61.4144 14.4136,-85.3643 3.53999,-89.8156"/>
</g>
<!-- 3 -->
<g id="node7" class="node"><title>3</title>
<ellipse fill="black" stroke="black" cx="12.0622" cy="-3.97773" rx="1.8" ry="1.8"/>
</g>
<!-- 1&#45;&#45;3 -->
<g id="edge7" class="edge"><title>1&#45;&#45;3</title>
<path fill="none" stroke="black" d="M84.033,-55.1438C74.4669,-48.3429 23.1305,-11.8465 13.589,-5.0632"/>
</g>
<!-- 7 -->
<g id="node8" class="node"><title>7</title>
<ellipse fill="black" stroke="black" cx="160.256" cy="-92.6699" rx="1.8" ry="1.8"/>
</g>
<!-- 1&#45;&#45;7 -->
<g id="edge9" class="edge"><title>1&#45;&#45;7</title>
<path fill="none" stroke="black" d="M87.4145,-57.1359C97.7476,-62.1767 148.31,-86.8425 158.474,-91.8007"/>
</g>
<!-- 2&#45;&#45;4 -->
<g id="edge11" class="edge"><title>2&#45;&#45;4</title>
<path fill="none" stroke="black" d="M28.4236,-51.3603C23.8476,-58.0922 7.47441,-82.18 2.95993,-88.8215"/>
</g>
<!-- 2&#45;&#45;5 -->
<g id="edge12" class="edge"><title>2&#45;&#45;5</title>
<path fill="none" stroke="black" d="M31.2455,-48.0113C38.8008,-40.6242 70.3879,-9.73996 77.2072,-3.07242"/>
</g>
<!-- 2&#45;&#45;3 -->
<g id="edge10" class="edge"><title>2&#45;&#45;3</title>
<path fill="none" stroke="black" d="M28.8645,-47.6413C25.9766,-40.1367 15.6433,-13.284 12.7942,-5.88006"/>
</g>
<!-- 6&#45;&#45;7 -->
<g id="edge15" class="edge"><title>6&#45;&#45;7</title>
<path fill="none" stroke="black" d="M126.392,-156.559C131.154,-147.574 154.295,-103.916 159.3,-94.4732"/>
</g>
<!-- 3&#45;&#45;4 -->
<g id="edge13" class="edge"><title>3&#45;&#45;4</title>
<path fill="none" stroke="black" d="M11.8478,-5.78546C10.5123,-17.0491 3.34525,-77.4955 2.01316,-88.7302"/>
</g>
<!-- 3&#45;&#45;5 -->
<g id="edge14" class="edge"><title>3&#45;&#45;5</title>
<path fill="none" stroke="black" d="M13.9791,-3.91491C23.5119,-3.60248 65.7677,-2.21757 76.1827,-1.87623"/>
</g>
</g>
</svg>
