<?xml version="1.0" encoding="UTF-8" standalone="no"?>
<!DOCTYPE svg PUBLIC "-//W3C//DTD SVG 1.1//EN"
 "http://www.w3.org/Graphics/SVG/1.1/DTD/svg11.dtd">
<!-- Generated by graphviz version 2.36.0 (20140111.2315)
 -->
<!-- Title: %3 Pages: 1 -->
<svg width="155pt" height="143pt"
 viewBox="0.00 0.00 155.25 143.32" xmlns="http://www.w3.org/2000/svg" xmlns:xlink="http://www.w3.org/1999/xlink">
<g id="graph0" class="graph" transform="scale(1 1) rotate(0) translate(4 139.318)">
<title>%3</title>
<!-- 0 -->
<g id="node1" class="node"><title>0</title>
<ellipse fill="black" stroke="black" cx="56.6894" cy="-73.971" rx="1.8" ry="1.8"/>
</g>
<!-- 1 -->
<g id="node2" class="node"><title>1</title>
<ellipse fill="black" stroke="black" cx="86.196" cy="-70.3528" rx="1.8" ry="1.8"/>
</g>
<!-- 0&#45;&#45;1 -->
<g id="edge1" class="edge"><title>0&#45;&#45;1</title>
<path fill="none" stroke="black" d="M58.6254,-73.7336C63.959,-73.0796 78.8264,-71.2565 84.2142,-70.5958"/>
</g>
<!-- 2 -->
<g id="node3" class="node"><title>2</title>
<ellipse fill="black" stroke="black" cx="82.9634" cy="-35.3057" rx="1.8" ry="1.8"/>
</g>
<!-- 0&#45;&#45;2 -->
<g id="edge2" class="edge"><title>0&#45;&#45;2</title>
<path fill="none" stroke="black" d="M57.8183,-72.3096C62.1401,-65.9496 77.6041,-43.1925 81.8678,-36.9179"/>
</g>
<!-- 3 -->
<g id="node4" class="node"><title>3</title>
<ellipse fill="black" stroke="black" cx="11.7072" cy="-88.7821" rx="1.8" ry="1.8"/>
</g>
<!-- 0&#45;&#45;3 -->
<g id="edge3" class="edge"><title>0&#45;&#45;3</title>
<path fill="none" stroke="black" d="M54.7565,-74.6074C47.3574,-77.0437 20.8825,-85.761 13.5828,-88.1645"/>
</g>
<!-- 4 -->
<g id="node5" class="node"><title>4</title>
<ellipse fill="black" stroke="black" cx="134.67" cy="-101.253" rx="1.8" ry="1.8"/>
</g>
<!-- 0&#45;&#45;4 -->
<g id="edge4" class="edge"><title>0&#45;&#45;4</title>
<path fill="none" stroke="black" d="M58.617,-74.6454C69.4058,-78.4199 122.198,-96.8893 132.81,-100.602"/>
</g>
<!-- 5 -->
<g id="node6" class="node"><title>5</title>
<ellipse fill="black" stroke="black" cx="72.56" cy="-133.518" rx="1.8" ry="1.8"/>
</g>
<!-- 0&#45;&#45;5 -->
<g id="edge5" class="edge"><title>0&#45;&#45;5</title>
<path fill="none" stroke="black" d="M57.2174,-75.9523C59.627,-84.9931 69.5665,-122.287 72.0137,-131.469"/>
</g>
<!-- 6 -->
<g id="node7" class="node"><title>6</title>
<ellipse fill="black" stroke="black" cx="1.8" cy="-36.3246" rx="1.8" ry="1.8"/>
</g>
<!-- 0&#45;&#45;6 -->
<g id="edge6" class="edge"><title>0&#45;&#45;6</title>
<path fill="none" stroke="black" d="M54.8631,-72.7184C46.5295,-67.0027 12.1533,-43.4255 3.68942,-37.6205"/>
</g>
<!-- 7 -->
<g id="node8" class="node"><title>7</title>
<ellipse fill="black" stroke="black" cx="145.45" cy="-35.6611" rx="1.8" ry="1.8"/>
</g>
<!-- 0&#45;&#45;7 -->
<g id="edge7" class="edge"><title>0&#45;&#45;7</title>
<path fill="none" stroke="black" d="M58.5433,-73.1708C70.0947,-68.1852 132.085,-41.4297 143.607,-36.4569"/>
</g>
<!-- 8 -->
<g id="node9" class="node"><title>8</title>
<ellipse fill="black" stroke="black" cx="31.2627" cy="-1.8" rx="1.8" ry="1.8"/>
</g>
<!-- 0&#45;&#45;8 -->
<g id="edge8" class="edge"><title>0&#45;&#45;8</title>
<path fill="none" stroke="black" d="M56.0608,-72.187C52.543,-62.202 35.3294,-13.3431 31.8692,-3.52165"/>
</g>
<!-- 1&#45;&#45;2 -->
<g id="edge9" class="edge"><title>1&#45;&#45;2</title>
<path fill="none" stroke="black" d="M86.0222,-68.4685C85.4662,-62.44 83.7333,-43.6534 83.1541,-37.3737"/>
</g>
<!-- 1&#45;&#45;3 -->
<g id="edge10" class="edge"><title>1&#45;&#45;3</title>
<path fill="none" stroke="black" d="M84.3547,-70.8083C74.0491,-73.3581 23.621,-85.8345 13.4842,-88.3424"/>
</g>
<!-- 1&#45;&#45;4 -->
<g id="edge11" class="edge"><title>1&#45;&#45;4</title>
<path fill="none" stroke="black" d="M87.8089,-71.3809C95.1685,-76.0723 125.527,-95.4244 133.002,-100.189"/>
</g>
<!-- 1&#45;&#45;5 -->
<g id="edge12" class="edge"><title>1&#45;&#45;5</title>
<path fill="none" stroke="black" d="M85.8026,-72.1751C83.8463,-81.2371 75.1747,-121.407 73.0373,-131.307"/>
</g>
<!-- 1&#45;&#45;6 -->
<g id="edge13" class="edge"><title>1&#45;&#45;6</title>
<path fill="none" stroke="black" d="M84.4333,-69.642C73.45,-65.2136 14.5081,-41.4485 3.55303,-37.0315"/>
</g>
<!-- 1&#45;&#45;7 -->
<g id="edge14" class="edge"><title>1&#45;&#45;7</title>
<path fill="none" stroke="black" d="M87.9055,-69.3519C96.5583,-64.286 135.444,-41.5198 143.846,-36.6003"/>
</g>
<!-- 1&#45;&#45;8 -->
<g id="edge15" class="edge"><title>1&#45;&#45;8</title>
<path fill="none" stroke="black" d="M85.0487,-68.9209C77.8996,-59.9994 39.5344,-12.1225 32.4037,-3.22394"/>
</g>
<!-- 2&#45;&#45;3 -->
<g id="edge16" class="edge"><title>2&#45;&#45;3</title>
<path fill="none" stroke="black" d="M81.4751,-36.4226C72.2018,-43.3821 22.4367,-80.7298 13.1873,-87.6713"/>
</g>
<!-- 2&#45;&#45;4 -->
<g id="edge17" class="edge"><title>2&#45;&#45;4</title>
<path fill="none" stroke="black" d="M84.2415,-36.9358C91.3331,-45.9804 125.794,-89.9314 133.247,-99.4374"/>
</g>
<!-- 2&#45;&#45;5 -->
<g id="edge18" class="edge"><title>2&#45;&#45;5</title>
<path fill="none" stroke="black" d="M82.7461,-37.357C81.3922,-50.1384 74.1265,-118.73 72.7761,-131.478"/>
</g>
<!-- 2&#45;&#45;6 -->
<g id="edge19" class="edge"><title>2&#45;&#45;6</title>
<path fill="none" stroke="black" d="M80.9571,-35.3309C69.728,-35.4718 14.7814,-36.1617 3.73617,-36.3003"/>
</g>
<!-- 2&#45;&#45;7 -->
<g id="edge20" class="edge"><title>2&#45;&#45;7</title>
<path fill="none" stroke="black" d="M84.7661,-35.3159C93.7308,-35.3669 133.469,-35.593 143.263,-35.6487"/>
</g>
<!-- 3&#45;&#45;5 -->
<g id="edge21" class="edge"><title>3&#45;&#45;5</title>
<path fill="none" stroke="black" d="M13.2114,-89.8879C21.5573,-96.0235 62.1131,-125.838 70.8849,-132.287"/>
</g>
<!-- 3&#45;&#45;6 -->
<g id="edge22" class="edge"><title>3&#45;&#45;6</title>
<path fill="none" stroke="black" d="M11.2815,-86.528C9.65187,-77.8993 3.82084,-47.0247 2.21309,-38.5119"/>
</g>
<!-- 3&#45;&#45;8 -->
<g id="edge23" class="edge"><title>3&#45;&#45;8</title>
<path fill="none" stroke="black" d="M12.1157,-86.9653C14.6606,-75.6454 28.3181,-14.8975 30.8565,-3.60675"/>
</g>
<!-- 4&#45;&#45;5 -->
<g id="edge24" class="edge"><title>4&#45;&#45;5</title>
<path fill="none" stroke="black" d="M132.879,-102.184C123.809,-106.895 83.0491,-128.069 74.2414,-132.645"/>
</g>
<!-- 4&#45;&#45;7 -->
<g id="edge25" class="edge"><title>4&#45;&#45;7</title>
<path fill="none" stroke="black" d="M134.981,-99.3605C136.528,-89.9504 143.383,-48.2381 145.073,-37.9571"/>
</g>
</g>
</svg>
