<?xml version="1.0" encoding="UTF-8" standalone="no"?>
<!DOCTYPE svg PUBLIC "-//W3C//DTD SVG 1.1//EN"
 "http://www.w3.org/Graphics/SVG/1.1/DTD/svg11.dtd">
<!-- Generated by graphviz version 2.36.0 (20140111.2315)
 -->
<!-- Title: %3 Pages: 1 -->
<svg width="161pt" height="234pt"
 viewBox="0.00 0.00 160.73 234.47" xmlns="http://www.w3.org/2000/svg" xmlns:xlink="http://www.w3.org/1999/xlink">
<g id="graph0" class="graph" transform="scale(1 1) rotate(0) translate(4 230.474)">
<title>%3</title>
<!-- 0 -->
<g id="node1" class="node"><title>0</title>
<ellipse fill="black" stroke="black" cx="62.6566" cy="-134.754" rx="1.8" ry="1.8"/>
</g>
<!-- 1 -->
<g id="node2" class="node"><title>1</title>
<ellipse fill="black" stroke="black" cx="99.4983" cy="-198.494" rx="1.8" ry="1.8"/>
</g>
<!-- 0&#45;&#45;1 -->
<g id="edge1" class="edge"><title>0&#45;&#45;1</title>
<path fill="none" stroke="black" d="M63.5673,-136.329C68.6201,-145.071 93.1736,-187.552 98.4842,-196.74"/>
</g>
<!-- 2 -->
<g id="node3" class="node"><title>2</title>
<ellipse fill="black" stroke="black" cx="105.877" cy="-153.202" rx="1.8" ry="1.8"/>
</g>
<!-- 0&#45;&#45;2 -->
<g id="edge2" class="edge"><title>0&#45;&#45;2</title>
<path fill="none" stroke="black" d="M64.5138,-135.547C71.6231,-138.581 97.0611,-149.439 104.075,-152.433"/>
</g>
<!-- 3 -->
<g id="node4" class="node"><title>3</title>
<ellipse fill="black" stroke="black" cx="33.9415" cy="-193.082" rx="1.8" ry="1.8"/>
</g>
<!-- 0&#45;&#45;3 -->
<g id="edge3" class="edge"><title>0&#45;&#45;3</title>
<path fill="none" stroke="black" d="M61.7012,-136.695C57.3415,-145.55 39.3577,-182.08 34.9299,-191.074"/>
</g>
<!-- 4 -->
<g id="node5" class="node"><title>4</title>
<ellipse fill="black" stroke="black" cx="59.6451" cy="-224.674" rx="1.8" ry="1.8"/>
</g>
<!-- 0&#45;&#45;4 -->
<g id="edge4" class="edge"><title>0&#45;&#45;4</title>
<path fill="none" stroke="black" d="M62.5937,-136.632C62.2018,-148.334 60.0985,-211.134 59.7076,-222.806"/>
</g>
<!-- 5 -->
<g id="node6" class="node"><title>5</title>
<ellipse fill="black" stroke="black" cx="106.715" cy="-75.5363" rx="1.8" ry="1.8"/>
</g>
<!-- 0&#45;&#45;5 -->
<g id="edge5" class="edge"><title>0&#45;&#45;5</title>
<path fill="none" stroke="black" d="M63.7457,-133.29C69.7883,-125.168 99.1512,-85.7024 105.502,-77.1664"/>
</g>
<!-- 6 -->
<g id="node7" class="node"><title>6</title>
<ellipse fill="black" stroke="black" cx="1.8" cy="-167.632" rx="1.8" ry="1.8"/>
</g>
<!-- 0&#45;&#45;6 -->
<g id="edge6" class="edge"><title>0&#45;&#45;6</title>
<path fill="none" stroke="black" d="M60.901,-135.702C52.0142,-140.503 12.0773,-162.079 3.44746,-166.742"/>
</g>
<!-- 7 -->
<g id="node8" class="node"><title>7</title>
<ellipse fill="black" stroke="black" cx="150.926" cy="-131.966" rx="1.8" ry="1.8"/>
</g>
<!-- 0&#45;&#45;7 -->
<g id="edge7" class="edge"><title>0&#45;&#45;7</title>
<path fill="none" stroke="black" d="M64.5003,-134.696C75.9877,-134.333 137.635,-132.386 149.093,-132.024"/>
</g>
<!-- 1&#45;&#45;2 -->
<g id="edge8" class="edge"><title>1&#45;&#45;2</title>
<path fill="none" stroke="black" d="M99.7724,-196.548C100.822,-189.098 104.576,-162.441 105.611,-155.091"/>
</g>
<!-- 1&#45;&#45;3 -->
<g id="edge9" class="edge"><title>1&#45;&#45;3</title>
<path fill="none" stroke="black" d="M97.607,-198.338C88.2019,-197.562 46.5118,-194.12 36.2362,-193.271"/>
</g>
<!-- 1&#45;&#45;4 -->
<g id="edge10" class="edge"><title>1&#45;&#45;4</title>
<path fill="none" stroke="black" d="M97.7859,-199.619C91.2304,-203.926 67.7742,-219.334 61.3068,-223.583"/>
</g>
<!-- 1&#45;&#45;6 -->
<g id="edge11" class="edge"><title>1&#45;&#45;6</title>
<path fill="none" stroke="black" d="M97.4578,-197.85C84.7432,-193.833 16.5111,-172.279 3.82934,-168.273"/>
</g>
<!-- 1&#45;&#45;7 -->
<g id="edge12" class="edge"><title>1&#45;&#45;7</title>
<path fill="none" stroke="black" d="M100.77,-196.85C107.823,-187.725 142.097,-143.387 149.511,-133.797"/>
</g>
<!-- 2&#45;&#45;3 -->
<g id="edge13" class="edge"><title>2&#45;&#45;3</title>
<path fill="none" stroke="black" d="M104.099,-154.188C94.1464,-159.706 45.4469,-186.704 35.6575,-192.131"/>
</g>
<!-- 2&#45;&#45;4 -->
<g id="edge14" class="edge"><title>2&#45;&#45;4</title>
<path fill="none" stroke="black" d="M104.734,-154.969C98.3379,-164.857 67.0395,-213.243 60.7479,-222.969"/>
</g>
<!-- 2&#45;&#45;5 -->
<g id="edge15" class="edge"><title>2&#45;&#45;5</title>
<path fill="none" stroke="black" d="M105.898,-151.282C106.014,-140.537 106.581,-87.9583 106.695,-77.389"/>
</g>
<!-- 2&#45;&#45;7 -->
<g id="edge16" class="edge"><title>2&#45;&#45;7</title>
<path fill="none" stroke="black" d="M107.813,-152.29C115.223,-148.797 141.737,-136.298 149.048,-132.851"/>
</g>
<!-- 3&#45;&#45;4 -->
<g id="edge17" class="edge"><title>3&#45;&#45;4</title>
<path fill="none" stroke="black" d="M35.3234,-194.78C39.8281,-200.317 54.0461,-217.792 58.3792,-223.118"/>
</g>
<!-- 3&#45;&#45;6 -->
<g id="edge18" class="edge"><title>3&#45;&#45;6</title>
<path fill="none" stroke="black" d="M32.2134,-191.714C26.5804,-187.253 8.80137,-173.176 3.38294,-168.885"/>
</g>
<!-- 4&#45;&#45;6 -->
<g id="edge19" class="edge"><title>4&#45;&#45;6</title>
<path fill="none" stroke="black" d="M58.2152,-223.264C50.2818,-215.441 11.7305,-177.424 3.39232,-169.202"/>
</g>
<!-- 5&#45;&#45;7 -->
<g id="edge20" class="edge"><title>5&#45;&#45;7</title>
<path fill="none" stroke="black" d="M108.186,-77.4138C115.018,-86.1342 143.583,-122.593 149.749,-130.464"/>
</g>
<!-- 8 -->
<g id="node9" class="node"><title>8</title>
<ellipse fill="black" stroke="black" cx="118.625" cy="-1.8" rx="1.8" ry="1.8"/>
</g>
<!-- 5&#45;&#45;8 -->
<g id="edge21" class="edge"><title>5&#45;&#45;8</title>
<path fill="none" stroke="black" d="M107.009,-73.7136C108.643,-63.6007 116.581,-14.4586 118.297,-3.82976"/>
</g>
</g>
</svg>
