<?xml version="1.0" encoding="UTF-8" standalone="no"?>
<!DOCTYPE svg PUBLIC "-//W3C//DTD SVG 1.1//EN"
 "http://www.w3.org/Graphics/SVG/1.1/DTD/svg11.dtd">
<!-- Generated by graphviz version 2.36.0 (20140111.2315)
 -->
<!-- Title: %3 Pages: 1 -->
<svg width="241pt" height="167pt"
 viewBox="0.00 0.00 241.19 166.68" xmlns="http://www.w3.org/2000/svg" xmlns:xlink="http://www.w3.org/1999/xlink">
<g id="graph0" class="graph" transform="scale(1 1) rotate(0) translate(4 162.685)">
<title>%3</title>
<!-- 0 -->
<g id="node1" class="node"><title>0</title>
<ellipse fill="black" stroke="black" cx="121.47" cy="-69.664" rx="1.8" ry="1.8"/>
</g>
<!-- 1 -->
<g id="node2" class="node"><title>1</title>
<ellipse fill="black" stroke="black" cx="73.2525" cy="-25.303" rx="1.8" ry="1.8"/>
</g>
<!-- 0&#45;&#45;1 -->
<g id="edge1" class="edge"><title>0&#45;&#45;1</title>
<path fill="none" stroke="black" d="M119.866,-68.1881C112.545,-61.4529 82.3474,-33.6704 74.9123,-26.83"/>
</g>
<!-- 2 -->
<g id="node3" class="node"><title>2</title>
<ellipse fill="black" stroke="black" cx="185.639" cy="-79.6084" rx="1.8" ry="1.8"/>
</g>
<!-- 0&#45;&#45;2 -->
<g id="edge2" class="edge"><title>0&#45;&#45;2</title>
<path fill="none" stroke="black" d="M123.321,-69.9509C132.527,-71.3776 173.335,-77.7016 183.393,-79.2603"/>
</g>
<!-- 3 -->
<g id="node4" class="node"><title>3</title>
<ellipse fill="black" stroke="black" cx="98.4763" cy="-108.424" rx="1.8" ry="1.8"/>
</g>
<!-- 0&#45;&#45;3 -->
<g id="edge3" class="edge"><title>0&#45;&#45;3</title>
<path fill="none" stroke="black" d="M120.482,-71.3295C116.7,-77.7051 103.166,-100.518 99.435,-106.808"/>
</g>
<!-- 4 -->
<g id="node5" class="node"><title>4</title>
<ellipse fill="black" stroke="black" cx="31.0796" cy="-68.9988" rx="1.8" ry="1.8"/>
</g>
<!-- 0&#45;&#45;4 -->
<g id="edge4" class="edge"><title>0&#45;&#45;4</title>
<path fill="none" stroke="black" d="M119.582,-69.6502C107.819,-69.5636 44.6903,-69.0989 32.9571,-69.0126"/>
</g>
<!-- 6 -->
<g id="node6" class="node"><title>6</title>
<ellipse fill="black" stroke="black" cx="156.681" cy="-156.885" rx="1.8" ry="1.8"/>
</g>
<!-- 0&#45;&#45;6 -->
<g id="edge5" class="edge"><title>0&#45;&#45;6</title>
<path fill="none" stroke="black" d="M122.206,-71.4858C126.788,-82.8367 151.379,-143.751 155.949,-155.073"/>
</g>
<!-- 1&#45;&#45;3 -->
<g id="edge6" class="edge"><title>1&#45;&#45;3</title>
<path fill="none" stroke="black" d="M73.7794,-27.0391C77.062,-37.8564 94.6782,-95.9077 97.9524,-106.697"/>
</g>
<!-- 1&#45;&#45;4 -->
<g id="edge7" class="edge"><title>1&#45;&#45;4</title>
<path fill="none" stroke="black" d="M71.8494,-26.7568C65.4464,-33.3909 39.0343,-60.7568 32.5313,-67.4946"/>
</g>
<!-- 5 -->
<g id="node7" class="node"><title>5</title>
<ellipse fill="black" stroke="black" cx="1.8" cy="-1.8" rx="1.8" ry="1.8"/>
</g>
<!-- 1&#45;&#45;5 -->
<g id="edge8" class="edge"><title>1&#45;&#45;5</title>
<path fill="none" stroke="black" d="M71.4863,-24.722C61.6867,-21.4986 14.0666,-5.83485 3.76689,-2.44697"/>
</g>
<!-- 2&#45;&#45;3 -->
<g id="edge9" class="edge"><title>2&#45;&#45;3</title>
<path fill="none" stroke="black" d="M183.818,-80.2102C172.475,-83.9603 111.601,-104.085 100.287,-107.825"/>
</g>
<!-- 7 -->
<g id="node8" class="node"><title>7</title>
<ellipse fill="black" stroke="black" cx="231.387" cy="-142.346" rx="1.8" ry="1.8"/>
</g>
<!-- 2&#45;&#45;7 -->
<g id="edge10" class="edge"><title>2&#45;&#45;7</title>
<path fill="none" stroke="black" d="M186.77,-81.1592C193.044,-89.7637 223.534,-131.576 230.128,-140.619"/>
</g>
<!-- 4&#45;&#45;5 -->
<g id="edge11" class="edge"><title>4&#45;&#45;5</title>
<path fill="none" stroke="black" d="M30.3558,-67.3377C26.3401,-58.1214 6.82655,-13.3363 2.60599,-3.6498"/>
</g>
<!-- 6&#45;&#45;7 -->
<g id="edge12" class="edge"><title>6&#45;&#45;7</title>
<path fill="none" stroke="black" d="M158.527,-156.525C168.863,-154.514 219.439,-144.672 229.605,-142.693"/>
</g>
</g>
</svg>
