<?xml version="1.0" encoding="UTF-8" standalone="no"?>
<!DOCTYPE svg PUBLIC "-//W3C//DTD SVG 1.1//EN"
 "http://www.w3.org/Graphics/SVG/1.1/DTD/svg11.dtd">
<!-- Generated by graphviz version 2.36.0 (20140111.2315)
 -->
<!-- Title: %3 Pages: 1 -->
<svg width="159pt" height="184pt"
 viewBox="0.00 0.00 159.25 184.21" xmlns="http://www.w3.org/2000/svg" xmlns:xlink="http://www.w3.org/1999/xlink">
<g id="graph0" class="graph" transform="scale(1 1) rotate(0) translate(4 180.21)">
<title>%3</title>
<!-- 0 -->
<g id="node1" class="node"><title>0</title>
<ellipse fill="black" stroke="black" cx="61.0364" cy="-85.2113" rx="1.8" ry="1.8"/>
</g>
<!-- 1 -->
<g id="node2" class="node"><title>1</title>
<ellipse fill="black" stroke="black" cx="86.8954" cy="-45.2216" rx="1.8" ry="1.8"/>
</g>
<!-- 0&#45;&#45;1 -->
<g id="edge1" class="edge"><title>0&#45;&#45;1</title>
<path fill="none" stroke="black" d="M62.1476,-83.493C66.4011,-76.9151 81.6208,-53.3786 85.8172,-46.889"/>
</g>
<!-- 2 -->
<g id="node3" class="node"><title>2</title>
<ellipse fill="black" stroke="black" cx="117.543" cy="-118.707" rx="1.8" ry="1.8"/>
</g>
<!-- 0&#45;&#45;2 -->
<g id="edge2" class="edge"><title>0&#45;&#45;2</title>
<path fill="none" stroke="black" d="M62.9165,-86.3258C71.4956,-91.4113 106.884,-112.389 115.598,-117.554"/>
</g>
<!-- 3 -->
<g id="node4" class="node"><title>3</title>
<ellipse fill="black" stroke="black" cx="61.622" cy="-128.719" rx="1.8" ry="1.8"/>
</g>
<!-- 0&#45;&#45;3 -->
<g id="edge3" class="edge"><title>0&#45;&#45;3</title>
<path fill="none" stroke="black" d="M61.0616,-87.0808C61.1579,-94.2373 61.5026,-119.844 61.5976,-126.905"/>
</g>
<!-- 4 -->
<g id="node5" class="node"><title>4</title>
<ellipse fill="black" stroke="black" cx="92.4826" cy="-174.41" rx="1.8" ry="1.8"/>
</g>
<!-- 0&#45;&#45;4 -->
<g id="edge4" class="edge"><title>0&#45;&#45;4</title>
<path fill="none" stroke="black" d="M61.6932,-87.0744C65.7857,-98.6827 87.7476,-160.979 91.8295,-172.557"/>
</g>
<!-- 5 -->
<g id="node6" class="node"><title>5</title>
<ellipse fill="black" stroke="black" cx="30.9717" cy="-161.337" rx="1.8" ry="1.8"/>
</g>
<!-- 0&#45;&#45;5 -->
<g id="edge5" class="edge"><title>0&#45;&#45;5</title>
<path fill="none" stroke="black" d="M60.2933,-87.0931C56.1338,-97.6252 35.7803,-149.161 31.6889,-159.521"/>
</g>
<!-- 6 -->
<g id="node7" class="node"><title>6</title>
<ellipse fill="black" stroke="black" cx="1.8" cy="-42.1317" rx="1.8" ry="1.8"/>
</g>
<!-- 0&#45;&#45;6 -->
<g id="edge6" class="edge"><title>0&#45;&#45;6</title>
<path fill="none" stroke="black" d="M59.5722,-84.1464C51.448,-78.2381 11.9694,-49.5274 3.43062,-43.3176"/>
</g>
<!-- 7 -->
<g id="node8" class="node"><title>7</title>
<ellipse fill="black" stroke="black" cx="149.451" cy="-58.9359" rx="1.8" ry="1.8"/>
</g>
<!-- 0&#45;&#45;7 -->
<g id="edge7" class="edge"><title>0&#45;&#45;7</title>
<path fill="none" stroke="black" d="M62.8831,-84.6625C74.3894,-81.243 136.137,-62.8924 147.614,-59.4817"/>
</g>
<!-- 8 -->
<g id="node9" class="node"><title>8</title>
<ellipse fill="black" stroke="black" cx="44.2596" cy="-1.8" rx="1.8" ry="1.8"/>
</g>
<!-- 0&#45;&#45;8 -->
<g id="edge8" class="edge"><title>0&#45;&#45;8</title>
<path fill="none" stroke="black" d="M60.6217,-83.1494C58.3006,-71.6093 46.9429,-15.1409 44.6598,-3.78979"/>
</g>
<!-- 1&#45;&#45;2 -->
<g id="edge9" class="edge"><title>1&#45;&#45;2</title>
<path fill="none" stroke="black" d="M87.653,-47.0381C91.8931,-57.205 112.641,-106.954 116.812,-116.954"/>
</g>
<!-- 1&#45;&#45;3 -->
<g id="edge10" class="edge"><title>1&#45;&#45;3</title>
<path fill="none" stroke="black" d="M86.3676,-46.9656C83.0785,-57.832 65.4276,-116.146 62.147,-126.985"/>
</g>
<!-- 1&#45;&#45;6 -->
<g id="edge11" class="edge"><title>1&#45;&#45;6</title>
<path fill="none" stroke="black" d="M84.7919,-45.1452C73.0188,-44.7177 15.4103,-42.6259 3.82997,-42.2055"/>
</g>
<!-- 1&#45;&#45;7 -->
<g id="edge12" class="edge"><title>1&#45;&#45;7</title>
<path fill="none" stroke="black" d="M88.7001,-45.6173C97.6746,-47.5848 137.456,-56.3062 147.261,-58.4558"/>
</g>
<!-- 1&#45;&#45;8 -->
<g id="edge13" class="edge"><title>1&#45;&#45;8</title>
<path fill="none" stroke="black" d="M85.4769,-43.7769C79.0036,-37.1844 52.3016,-9.9902 45.7272,-3.29467"/>
</g>
<!-- 2&#45;&#45;3 -->
<g id="edge14" class="edge"><title>2&#45;&#45;3</title>
<path fill="none" stroke="black" d="M115.682,-119.04C107.192,-120.56 72.1698,-126.83 63.5469,-128.374"/>
</g>
<!-- 2&#45;&#45;4 -->
<g id="edge15" class="edge"><title>2&#45;&#45;4</title>
<path fill="none" stroke="black" d="M116.709,-120.56C112.904,-129.018 97.2095,-163.903 93.3453,-172.493"/>
</g>
<!-- 2&#45;&#45;5 -->
<g id="edge16" class="edge"><title>2&#45;&#45;5</title>
<path fill="none" stroke="black" d="M115.734,-119.597C104.468,-125.145 44.0073,-154.918 32.7699,-160.451"/>
</g>
<!-- 2&#45;&#45;7 -->
<g id="edge17" class="edge"><title>2&#45;&#45;7</title>
<path fill="none" stroke="black" d="M118.463,-116.983C123.123,-108.254 144.062,-69.0299 148.587,-60.554"/>
</g>
<!-- 3&#45;&#45;4 -->
<g id="edge18" class="edge"><title>3&#45;&#45;4</title>
<path fill="none" stroke="black" d="M62.6488,-130.239C67.3343,-137.176 86.6617,-165.792 91.4203,-172.837"/>
</g>
<!-- 3&#45;&#45;5 -->
<g id="edge19" class="edge"><title>3&#45;&#45;5</title>
<path fill="none" stroke="black" d="M60.305,-130.12C55.2634,-135.486 37.2236,-154.683 32.2497,-159.977"/>
</g>
<!-- 4&#45;&#45;5 -->
<g id="edge20" class="edge"><title>4&#45;&#45;5</title>
<path fill="none" stroke="black" d="M90.7081,-174.033C81.8834,-172.157 42.7662,-163.843 33.1248,-161.794"/>
</g>
<!-- 6&#45;&#45;8 -->
<g id="edge21" class="edge"><title>6&#45;&#45;8</title>
<path fill="none" stroke="black" d="M3.21271,-40.7898C9.65917,-34.6664 36.2509,-9.40739 42.798,-3.18831"/>
</g>
</g>
</svg>
