<?xml version="1.0" encoding="UTF-8" standalone="no"?>
<!DOCTYPE svg PUBLIC "-//W3C//DTD SVG 1.1//EN"
 "http://www.w3.org/Graphics/SVG/1.1/DTD/svg11.dtd">
<!-- Generated by graphviz version 2.36.0 (20140111.2315)
 -->
<!-- Title: %3 Pages: 1 -->
<svg width="144pt" height="195pt"
 viewBox="0.00 0.00 143.96 194.69" xmlns="http://www.w3.org/2000/svg" xmlns:xlink="http://www.w3.org/1999/xlink">
<g id="graph0" class="graph" transform="scale(1 1) rotate(0) translate(4 190.693)">
<title>%3</title>
<!-- 0 -->
<g id="node1" class="node"><title>0</title>
<ellipse fill="black" stroke="black" cx="92.2782" cy="-89.0289" rx="1.8" ry="1.8"/>
</g>
<!-- 1 -->
<g id="node2" class="node"><title>1</title>
<ellipse fill="black" stroke="black" cx="74.9447" cy="-124.2" rx="1.8" ry="1.8"/>
</g>
<!-- 0&#45;&#45;1 -->
<g id="edge1" class="edge"><title>0&#45;&#45;1</title>
<path fill="none" stroke="black" d="M91.3463,-90.9199C88.3085,-97.0838 78.7205,-116.539 75.7984,-122.468"/>
</g>
<!-- 2 -->
<g id="node3" class="node"><title>2</title>
<ellipse fill="black" stroke="black" cx="38.2629" cy="-148.803" rx="1.8" ry="1.8"/>
</g>
<!-- 0&#45;&#45;2 -->
<g id="edge2" class="edge"><title>0&#45;&#45;2</title>
<path fill="none" stroke="black" d="M90.943,-90.5065C83.5349,-98.7044 47.5359,-138.541 39.7498,-147.158"/>
</g>
<!-- 3 -->
<g id="node4" class="node"><title>3</title>
<ellipse fill="black" stroke="black" cx="53.6685" cy="-70.337" rx="1.8" ry="1.8"/>
</g>
<!-- 0&#45;&#45;3 -->
<g id="edge3" class="edge"><title>0&#45;&#45;3</title>
<path fill="none" stroke="black" d="M90.6192,-88.2258C84.3838,-85.207 62.3649,-74.5472 55.6362,-71.2897"/>
</g>
<!-- 4 -->
<g id="node5" class="node"><title>4</title>
<ellipse fill="black" stroke="black" cx="125.745" cy="-139.381" rx="1.8" ry="1.8"/>
</g>
<!-- 0&#45;&#45;4 -->
<g id="edge4" class="edge"><title>0&#45;&#45;4</title>
<path fill="none" stroke="black" d="M93.3917,-90.7042C98.4729,-98.3489 119.433,-129.883 124.593,-137.647"/>
</g>
<!-- 5 -->
<g id="node6" class="node"><title>5</title>
<ellipse fill="black" stroke="black" cx="95.0802" cy="-184.893" rx="1.8" ry="1.8"/>
</g>
<!-- 0&#45;&#45;5 -->
<g id="edge5" class="edge"><title>0&#45;&#45;5</title>
<path fill="none" stroke="black" d="M92.3367,-91.0312C92.7014,-103.507 94.6583,-170.458 95.022,-182.902"/>
</g>
<!-- 6 -->
<g id="node7" class="node"><title>6</title>
<ellipse fill="black" stroke="black" cx="1.8" cy="-94.7426" rx="1.8" ry="1.8"/>
</g>
<!-- 0&#45;&#45;6 -->
<g id="edge6" class="edge"><title>0&#45;&#45;6</title>
<path fill="none" stroke="black" d="M90.3885,-89.1483C78.6136,-89.8918 15.4239,-93.8823 3.67937,-94.624"/>
</g>
<!-- 7 -->
<g id="node8" class="node"><title>7</title>
<ellipse fill="black" stroke="black" cx="134.159" cy="-52.7154" rx="1.8" ry="1.8"/>
</g>
<!-- 0&#45;&#45;7 -->
<g id="edge7" class="edge"><title>0&#45;&#45;7</title>
<path fill="none" stroke="black" d="M93.6717,-87.8207C100.03,-82.3074 126.259,-59.5649 132.717,-53.9654"/>
</g>
<!-- 8 -->
<g id="node9" class="node"><title>8</title>
<ellipse fill="black" stroke="black" cx="102.681" cy="-1.8" rx="1.8" ry="1.8"/>
</g>
<!-- 0&#45;&#45;8 -->
<g id="edge8" class="edge"><title>0&#45;&#45;8</title>
<path fill="none" stroke="black" d="M92.4955,-87.207C93.8494,-75.855 101.115,-14.9347 102.465,-3.61188"/>
</g>
<!-- 1&#45;&#45;2 -->
<g id="edge9" class="edge"><title>1&#45;&#45;2</title>
<path fill="none" stroke="black" d="M73.3685,-125.257C67.3347,-129.304 45.7451,-143.785 39.7924,-147.777"/>
</g>
<!-- 1&#45;&#45;3 -->
<g id="edge10" class="edge"><title>1&#45;&#45;3</title>
<path fill="none" stroke="black" d="M74.2368,-122.408C71.0065,-114.23 57.6816,-80.4967 54.4009,-72.1911"/>
</g>
<!-- 1&#45;&#45;4 -->
<g id="edge11" class="edge"><title>1&#45;&#45;4</title>
<path fill="none" stroke="black" d="M77.1275,-124.852C85.4837,-127.349 115.383,-136.284 123.627,-138.748"/>
</g>
<!-- 1&#45;&#45;5 -->
<g id="edge12" class="edge"><title>1&#45;&#45;5</title>
<path fill="none" stroke="black" d="M75.5256,-125.951C78.4144,-134.659 91.2193,-173.256 94.3754,-182.769"/>
</g>
<!-- 1&#45;&#45;6 -->
<g id="edge13" class="edge"><title>1&#45;&#45;6</title>
<path fill="none" stroke="black" d="M73.1366,-123.472C63.0169,-119.396 13.4989,-99.4541 3.54488,-95.4454"/>
</g>
<!-- 1&#45;&#45;7 -->
<g id="edge14" class="edge"><title>1&#45;&#45;7</title>
<path fill="none" stroke="black" d="M76.1815,-122.707C83.8877,-113.404 125.243,-63.4794 132.929,-54.2002"/>
</g>
<!-- 2&#45;&#45;3 -->
<g id="edge15" class="edge"><title>2&#45;&#45;3</title>
<path fill="none" stroke="black" d="M38.6437,-146.863C40.7751,-136.008 51.2045,-82.887 53.301,-72.2088"/>
</g>
<!-- 2&#45;&#45;4 -->
<g id="edge16" class="edge"><title>2&#45;&#45;4</title>
<path fill="none" stroke="black" d="M40.0901,-148.606C51.4751,-147.38 112.573,-140.799 123.928,-139.576"/>
</g>
<!-- 2&#45;&#45;5 -->
<g id="edge17" class="edge"><title>2&#45;&#45;5</title>
<path fill="none" stroke="black" d="M40.1533,-150.004C48.7796,-155.483 84.3633,-178.086 93.1244,-183.651"/>
</g>
<!-- 2&#45;&#45;6 -->
<g id="edge18" class="edge"><title>2&#45;&#45;6</title>
<path fill="none" stroke="black" d="M37.0497,-147.004C31.5137,-138.797 8.67765,-104.94 3.05514,-96.6035"/>
</g>
<!-- 3&#45;&#45;4 -->
<g id="edge19" class="edge"><title>3&#45;&#45;4</title>
<path fill="none" stroke="black" d="M55.1739,-71.7791C64.554,-80.7645 114.892,-128.984 124.248,-137.946"/>
</g>
<!-- 3&#45;&#45;6 -->
<g id="edge20" class="edge"><title>3&#45;&#45;6</title>
<path fill="none" stroke="black" d="M51.9427,-71.149C44.0677,-74.8544 11.5835,-90.1392 3.58543,-93.9025"/>
</g>
<!-- 3&#45;&#45;7 -->
<g id="edge21" class="edge"><title>3&#45;&#45;7</title>
<path fill="none" stroke="black" d="M55.6582,-69.9014C66.7942,-67.4634 121.285,-55.5338 132.239,-53.1358"/>
</g>
<!-- 4&#45;&#45;5 -->
<g id="edge22" class="edge"><title>4&#45;&#45;5</title>
<path fill="none" stroke="black" d="M124.725,-140.895C120.069,-147.805 100.864,-176.309 96.1358,-183.327"/>
</g>
<!-- 7&#45;&#45;8 -->
<g id="edge23" class="edge"><title>7&#45;&#45;8</title>
<path fill="none" stroke="black" d="M133.112,-51.0214C128.333,-43.2911 108.619,-11.4037 103.765,-3.55262"/>
</g>
</g>
</svg>
