<?xml version="1.0" encoding="UTF-8" standalone="no"?>
<!DOCTYPE svg PUBLIC "-//W3C//DTD SVG 1.1//EN"
 "http://www.w3.org/Graphics/SVG/1.1/DTD/svg11.dtd">
<!-- Generated by graphviz version 2.36.0 (20140111.2315)
 -->
<!-- Title: %3 Pages: 1 -->
<svg width="155pt" height="225pt"
 viewBox="0.00 0.00 155.12 225.43" xmlns="http://www.w3.org/2000/svg" xmlns:xlink="http://www.w3.org/1999/xlink">
<g id="graph0" class="graph" transform="scale(1 1) rotate(0) translate(4 221.43)">
<title>%3</title>
<!-- 0 -->
<g id="node1" class="node"><title>0</title>
<ellipse fill="black" stroke="black" cx="69.9589" cy="-157.024" rx="1.8" ry="1.8"/>
</g>
<!-- 1 -->
<g id="node2" class="node"><title>1</title>
<ellipse fill="black" stroke="black" cx="99.5351" cy="-164.347" rx="1.8" ry="1.8"/>
</g>
<!-- 0&#45;&#45;1 -->
<g id="edge1" class="edge"><title>0&#45;&#45;1</title>
<path fill="none" stroke="black" d="M71.8995,-157.504C77.2457,-158.828 92.1482,-162.518 97.5486,-163.855"/>
</g>
<!-- 2 -->
<g id="node3" class="node"><title>2</title>
<ellipse fill="black" stroke="black" cx="83.0531" cy="-77.8556" rx="1.8" ry="1.8"/>
</g>
<!-- 0&#45;&#45;2 -->
<g id="edge2" class="edge"><title>0&#45;&#45;2</title>
<path fill="none" stroke="black" d="M70.2826,-155.067C72.0942,-144.114 80.9588,-90.5179 82.7407,-79.7442"/>
</g>
<!-- 3 -->
<g id="node4" class="node"><title>3</title>
<ellipse fill="black" stroke="black" cx="41.9484" cy="-120.098" rx="1.8" ry="1.8"/>
</g>
<!-- 0&#45;&#45;3 -->
<g id="edge3" class="edge"><title>0&#45;&#45;3</title>
<path fill="none" stroke="black" d="M68.7554,-155.437C64.1479,-149.363 47.6619,-127.63 43.1163,-121.637"/>
</g>
<!-- 4 -->
<g id="node5" class="node"><title>4</title>
<ellipse fill="black" stroke="black" cx="129.554" cy="-109.462" rx="1.8" ry="1.8"/>
</g>
<!-- 0&#45;&#45;4 -->
<g id="edge4" class="edge"><title>0&#45;&#45;4</title>
<path fill="none" stroke="black" d="M71.4321,-155.848C79.6054,-149.325 119.323,-117.627 127.913,-110.771"/>
</g>
<!-- 5 -->
<g id="node6" class="node"><title>5</title>
<ellipse fill="black" stroke="black" cx="48.229" cy="-215.63" rx="1.8" ry="1.8"/>
</g>
<!-- 0&#45;&#45;5 -->
<g id="edge5" class="edge"><title>0&#45;&#45;5</title>
<path fill="none" stroke="black" d="M69.332,-158.715C66.2146,-167.123 52.3957,-204.392 48.9897,-213.579"/>
</g>
<!-- 6 -->
<g id="node7" class="node"><title>6</title>
<ellipse fill="black" stroke="black" cx="1.8" cy="-183.569" rx="1.8" ry="1.8"/>
</g>
<!-- 0&#45;&#45;6 -->
<g id="edge6" class="edge"><title>0&#45;&#45;6</title>
<path fill="none" stroke="black" d="M68.2741,-157.68C58.9262,-161.321 13.5011,-179.012 3.67623,-182.839"/>
</g>
<!-- 7 -->
<g id="node8" class="node"><title>7</title>
<ellipse fill="black" stroke="black" cx="145.325" cy="-212.347" rx="1.8" ry="1.8"/>
</g>
<!-- 0&#45;&#45;7 -->
<g id="edge7" class="edge"><title>0&#45;&#45;7</title>
<path fill="none" stroke="black" d="M71.5331,-158.179C81.3412,-165.379 133.976,-204.016 143.759,-211.198"/>
</g>
<!-- 1&#45;&#45;2 -->
<g id="edge8" class="edge"><title>1&#45;&#45;2</title>
<path fill="none" stroke="black" d="M99.1909,-162.541C97.0459,-151.285 85.5349,-90.8793 83.3955,-79.6522"/>
</g>
<!-- 1&#45;&#45;3 -->
<g id="edge9" class="edge"><title>1&#45;&#45;3</title>
<path fill="none" stroke="black" d="M97.6191,-162.875C88.7198,-156.037 51.5137,-127.448 43.4813,-121.276"/>
</g>
<!-- 1&#45;&#45;4 -->
<g id="edge10" class="edge"><title>1&#45;&#45;4</title>
<path fill="none" stroke="black" d="M100.534,-162.521C105.092,-154.188 123.892,-119.814 128.52,-111.351"/>
</g>
<!-- 1&#45;&#45;5 -->
<g id="edge11" class="edge"><title>1&#45;&#45;5</title>
<path fill="none" stroke="black" d="M97.8281,-166.053C89.8994,-173.979 56.7511,-207.112 49.5947,-214.265"/>
</g>
<!-- 1&#45;&#45;6 -->
<g id="edge12" class="edge"><title>1&#45;&#45;6</title>
<path fill="none" stroke="black" d="M97.4938,-164.749C84.7745,-167.25 16.5167,-180.675 3.83011,-183.17"/>
</g>
<!-- 1&#45;&#45;7 -->
<g id="edge13" class="edge"><title>1&#45;&#45;7</title>
<path fill="none" stroke="black" d="M101.059,-165.944C108.011,-173.232 136.688,-203.293 143.749,-210.694"/>
</g>
<!-- 2&#45;&#45;3 -->
<g id="edge14" class="edge"><title>2&#45;&#45;3</title>
<path fill="none" stroke="black" d="M81.6855,-79.2611C75.4447,-85.6745 49.7016,-112.13 43.3633,-118.644"/>
</g>
<!-- 2&#45;&#45;4 -->
<g id="edge15" class="edge"><title>2&#45;&#45;4</title>
<path fill="none" stroke="black" d="M84.6003,-78.9072C91.6603,-83.7058 120.783,-103.5 127.953,-108.374"/>
</g>
<!-- 8 -->
<g id="node9" class="node"><title>8</title>
<ellipse fill="black" stroke="black" cx="83.1421" cy="-1.8" rx="1.8" ry="1.8"/>
</g>
<!-- 2&#45;&#45;8 -->
<g id="edge16" class="edge"><title>2&#45;&#45;8</title>
<path fill="none" stroke="black" d="M83.0553,-75.9756C83.0676,-65.4531 83.1279,-13.9644 83.14,-3.61432"/>
</g>
<!-- 3&#45;&#45;4 -->
<g id="edge17" class="edge"><title>3&#45;&#45;4</title>
<path fill="none" stroke="black" d="M43.7782,-119.876C55.1792,-118.491 116.362,-111.063 127.734,-109.683"/>
</g>
<!-- 3&#45;&#45;5 -->
<g id="edge18" class="edge"><title>3&#45;&#45;5</title>
<path fill="none" stroke="black" d="M42.0796,-122.093C42.897,-134.526 47.2833,-201.245 48.0986,-213.646"/>
</g>
</g>
</svg>
