<?xml version="1.0" encoding="UTF-8" standalone="no"?>
<!DOCTYPE svg PUBLIC "-//W3C//DTD SVG 1.1//EN"
 "http://www.w3.org/Graphics/SVG/1.1/DTD/svg11.dtd">
<!-- Generated by graphviz version 2.36.0 (20140111.2315)
 -->
<!-- Title: %3 Pages: 1 -->
<svg width="174pt" height="164pt"
 viewBox="0.00 0.00 174.35 163.86" xmlns="http://www.w3.org/2000/svg" xmlns:xlink="http://www.w3.org/1999/xlink">
<g id="graph0" class="graph" transform="scale(1 1) rotate(0) translate(4 159.857)">
<title>%3</title>
<!-- 0 -->
<g id="node1" class="node"><title>0</title>
<ellipse fill="black" stroke="black" cx="83.7859" cy="-62.257" rx="1.8" ry="1.8"/>
</g>
<!-- 1 -->
<g id="node2" class="node"><title>1</title>
<ellipse fill="black" stroke="black" cx="45.8536" cy="-88.4875" rx="1.8" ry="1.8"/>
</g>
<!-- 0&#45;&#45;1 -->
<g id="edge1" class="edge"><title>0&#45;&#45;1</title>
<path fill="none" stroke="black" d="M82.156,-63.3841C75.9165,-67.6988 53.5909,-83.1371 47.4353,-87.3938"/>
</g>
<!-- 2 -->
<g id="node3" class="node"><title>2</title>
<ellipse fill="black" stroke="black" cx="132.361" cy="-123.453" rx="1.8" ry="1.8"/>
</g>
<!-- 0&#45;&#45;2 -->
<g id="edge2" class="edge"><title>0&#45;&#45;2</title>
<path fill="none" stroke="black" d="M84.9866,-63.7697C91.6487,-72.1628 124.022,-112.948 131.024,-121.769"/>
</g>
<!-- 3 -->
<g id="node4" class="node"><title>3</title>
<ellipse fill="black" stroke="black" cx="117.475" cy="-91.9075" rx="1.8" ry="1.8"/>
</g>
<!-- 0&#45;&#45;3 -->
<g id="edge3" class="edge"><title>0&#45;&#45;3</title>
<path fill="none" stroke="black" d="M85.2334,-63.5311C90.775,-68.4083 110.603,-85.8595 116.071,-90.6712"/>
</g>
<!-- 4 -->
<g id="node5" class="node"><title>4</title>
<ellipse fill="black" stroke="black" cx="91.4159" cy="-154.057" rx="1.8" ry="1.8"/>
</g>
<!-- 0&#45;&#45;4 -->
<g id="edge4" class="edge"><title>0&#45;&#45;4</title>
<path fill="none" stroke="black" d="M83.9452,-64.1744C84.9382,-76.1212 90.267,-140.234 91.2574,-152.15"/>
</g>
<!-- 5 -->
<g id="node6" class="node"><title>5</title>
<ellipse fill="black" stroke="black" cx="51.7326" cy="-139.874" rx="1.8" ry="1.8"/>
</g>
<!-- 0&#45;&#45;5 -->
<g id="edge5" class="edge"><title>0&#45;&#45;5</title>
<path fill="none" stroke="black" d="M82.9935,-64.1757C78.5589,-74.9142 56.8593,-127.46 52.4973,-138.023"/>
</g>
<!-- 6 -->
<g id="node7" class="node"><title>6</title>
<ellipse fill="black" stroke="black" cx="1.8" cy="-38.9079" rx="1.8" ry="1.8"/>
</g>
<!-- 0&#45;&#45;6 -->
<g id="edge6" class="edge"><title>0&#45;&#45;6</title>
<path fill="none" stroke="black" d="M81.7592,-61.6798C70.4163,-58.4494 14.9129,-42.6424 3.75579,-39.4649"/>
</g>
<!-- 7 -->
<g id="node8" class="node"><title>7</title>
<ellipse fill="black" stroke="black" cx="164.553" cy="-49.7853" rx="1.8" ry="1.8"/>
</g>
<!-- 0&#45;&#45;7 -->
<g id="edge7" class="edge"><title>0&#45;&#45;7</title>
<path fill="none" stroke="black" d="M85.7823,-61.9487C96.9566,-60.2232 151.635,-51.7801 162.626,-50.0829"/>
</g>
<!-- 8 -->
<g id="node9" class="node"><title>8</title>
<ellipse fill="black" stroke="black" cx="49.2233" cy="-1.8" rx="1.8" ry="1.8"/>
</g>
<!-- 0&#45;&#45;8 -->
<g id="edge8" class="edge"><title>0&#45;&#45;8</title>
<path fill="none" stroke="black" d="M82.7887,-60.5129C77.7417,-51.6845 55.0601,-12.0099 50.1589,-3.43664"/>
</g>
<!-- 1&#45;&#45;2 -->
<g id="edge9" class="edge"><title>1&#45;&#45;2</title>
<path fill="none" stroke="black" d="M47.6605,-89.2178C58.9186,-93.7683 119.335,-118.188 130.564,-122.727"/>
</g>
<!-- 1&#45;&#45;3 -->
<g id="edge10" class="edge"><title>1&#45;&#45;3</title>
<path fill="none" stroke="black" d="M47.9199,-88.5862C58.3786,-89.0856 105.38,-91.3299 115.536,-91.8149"/>
</g>
<!-- 1&#45;&#45;4 -->
<g id="edge11" class="edge"><title>1&#45;&#45;4</title>
<path fill="none" stroke="black" d="M46.9799,-90.1083C53.2287,-99.1011 83.5941,-142.8 90.1617,-152.252"/>
</g>
<!-- 1&#45;&#45;5 -->
<g id="edge12" class="edge"><title>1&#45;&#45;5</title>
<path fill="none" stroke="black" d="M46.1063,-90.6956C47.0733,-99.1481 50.5335,-129.393 51.4875,-137.732"/>
</g>
<!-- 1&#45;&#45;6 -->
<g id="edge13" class="edge"><title>1&#45;&#45;6</title>
<path fill="none" stroke="black" d="M44.3879,-86.8379C37.6994,-79.3105 10.1094,-48.2596 3.31643,-40.6145"/>
</g>
<!-- 1&#45;&#45;8 -->
<g id="edge14" class="edge"><title>1&#45;&#45;8</title>
<path fill="none" stroke="black" d="M45.924,-86.6769C46.3626,-75.3954 48.7159,-14.8531 49.1533,-3.60063"/>
</g>
<!-- 2&#45;&#45;3 -->
<g id="edge15" class="edge"><title>2&#45;&#45;3</title>
<path fill="none" stroke="black" d="M131.561,-121.757C129.001,-116.331 121.021,-99.4213 118.354,-93.7689"/>
</g>
<!-- 2&#45;&#45;4 -->
<g id="edge16" class="edge"><title>2&#45;&#45;4</title>
<path fill="none" stroke="black" d="M130.602,-124.768C123.867,-129.802 99.7678,-147.814 93.1232,-152.78"/>
</g>
<!-- 2&#45;&#45;5 -->
<g id="edge17" class="edge"><title>2&#45;&#45;5</title>
<path fill="none" stroke="black" d="M130.368,-123.859C119.213,-126.131 64.6285,-137.248 53.656,-139.483"/>
</g>
<!-- 2&#45;&#45;7 -->
<g id="edge18" class="edge"><title>2&#45;&#45;7</title>
<path fill="none" stroke="black" d="M133.157,-121.632C137.611,-111.44 159.404,-61.5679 163.785,-51.5427"/>
</g>
<!-- 3&#45;&#45;4 -->
<g id="edge19" class="edge"><title>3&#45;&#45;4</title>
<path fill="none" stroke="black" d="M116.724,-93.7005C112.918,-102.776 95.8168,-143.561 92.1214,-152.374"/>
</g>
<!-- 3&#45;&#45;5 -->
<g id="edge20" class="edge"><title>3&#45;&#45;5</title>
<path fill="none" stroke="black" d="M115.85,-93.0932C106.834,-99.6718 63.019,-131.64 53.5424,-138.554"/>
</g>
<!-- 3&#45;&#45;7 -->
<g id="edge21" class="edge"><title>3&#45;&#45;7</title>
<path fill="none" stroke="black" d="M119.042,-90.506C126.189,-84.1108 155.673,-57.7304 162.932,-51.2353"/>
</g>
<!-- 4&#45;&#45;5 -->
<g id="edge22" class="edge"><title>4&#45;&#45;5</title>
<path fill="none" stroke="black" d="M89.7108,-153.447C83.302,-151.157 60.6709,-143.069 53.7551,-140.597"/>
</g>
<!-- 6&#45;&#45;8 -->
<g id="edge23" class="edge"><title>6&#45;&#45;8</title>
<path fill="none" stroke="black" d="M3.37786,-37.6732C10.5779,-32.0393 40.2783,-8.7993 47.5909,-3.07734"/>
</g>
</g>
</svg>
