<?xml version="1.0" encoding="UTF-8" standalone="no"?>
<!DOCTYPE svg PUBLIC "-//W3C//DTD SVG 1.1//EN"
 "http://www.w3.org/Graphics/SVG/1.1/DTD/svg11.dtd">
<!-- Generated by graphviz version 2.36.0 (20140111.2315)
 -->
<!-- Title: %3 Pages: 1 -->
<svg width="163pt" height="139pt"
 viewBox="0.00 0.00 163.32 138.88" xmlns="http://www.w3.org/2000/svg" xmlns:xlink="http://www.w3.org/1999/xlink">
<g id="graph0" class="graph" transform="scale(1 1) rotate(0) translate(4 134.876)">
<title>%3</title>
<!-- 0 -->
<g id="node1" class="node"><title>0</title>
<ellipse fill="black" stroke="black" cx="64.2544" cy="-94.6226" rx="1.8" ry="1.8"/>
</g>
<!-- 1 -->
<g id="node2" class="node"><title>1</title>
<ellipse fill="black" stroke="black" cx="112.443" cy="-41.4786" rx="1.8" ry="1.8"/>
</g>
<!-- 0&#45;&#45;1 -->
<g id="edge1" class="edge"><title>0&#45;&#45;1</title>
<path fill="none" stroke="black" d="M65.8577,-92.8544C73.3046,-84.6417 104.438,-50.3059 111.16,-42.8932"/>
</g>
<!-- 2 -->
<g id="node3" class="node"><title>2</title>
<ellipse fill="black" stroke="black" cx="83.6473" cy="-61.4703" rx="1.8" ry="1.8"/>
</g>
<!-- 0&#45;&#45;2 -->
<g id="edge2" class="edge"><title>0&#45;&#45;2</title>
<path fill="none" stroke="black" d="M65.2971,-92.8402C68.6958,-87.03 79.423,-68.6918 82.6923,-63.103"/>
</g>
<!-- 3 -->
<g id="node4" class="node"><title>3</title>
<ellipse fill="black" stroke="black" cx="20.5111" cy="-71.9082" rx="1.8" ry="1.8"/>
</g>
<!-- 0&#45;&#45;3 -->
<g id="edge3" class="edge"><title>0&#45;&#45;3</title>
<path fill="none" stroke="black" d="M62.3748,-93.6466C55.1795,-89.9103 29.4337,-76.5414 22.335,-72.8552"/>
</g>
<!-- 4 -->
<g id="node5" class="node"><title>4</title>
<ellipse fill="black" stroke="black" cx="52.6118" cy="-1.8" rx="1.8" ry="1.8"/>
</g>
<!-- 0&#45;&#45;4 -->
<g id="edge4" class="edge"><title>0&#45;&#45;4</title>
<path fill="none" stroke="black" d="M64.0113,-92.6839C62.4961,-80.6039 54.3649,-15.7769 52.8537,-3.72806"/>
</g>
<!-- 5 -->
<g id="node6" class="node"><title>5</title>
<ellipse fill="black" stroke="black" cx="117.951" cy="-129.076" rx="1.8" ry="1.8"/>
</g>
<!-- 0&#45;&#45;5 -->
<g id="edge5" class="edge"><title>0&#45;&#45;5</title>
<path fill="none" stroke="black" d="M66.041,-95.7689C74.1935,-101 107.823,-122.577 116.102,-127.89"/>
</g>
<!-- 6 -->
<g id="node7" class="node"><title>6</title>
<ellipse fill="black" stroke="black" cx="1.8" cy="-31.9096" rx="1.8" ry="1.8"/>
</g>
<!-- 0&#45;&#45;6 -->
<g id="edge6" class="edge"><title>0&#45;&#45;6</title>
<path fill="none" stroke="black" d="M62.7106,-93.0724C53.9948,-84.3205 11.0512,-41.1991 3.07585,-33.1907"/>
</g>
<!-- 7 -->
<g id="node8" class="node"><title>7</title>
<ellipse fill="black" stroke="black" cx="153.524" cy="-84.576" rx="1.8" ry="1.8"/>
</g>
<!-- 0&#45;&#45;7 -->
<g id="edge7" class="edge"><title>0&#45;&#45;7</title>
<path fill="none" stroke="black" d="M66.1189,-94.4127C77.7365,-93.1053 140.082,-86.0888 151.67,-84.7847"/>
</g>
<!-- 1&#45;&#45;3 -->
<g id="edge8" class="edge"><title>1&#45;&#45;3</title>
<path fill="none" stroke="black" d="M110.523,-42.1141C98.5585,-46.0742 34.3538,-67.3262 22.4206,-71.2761"/>
</g>
<!-- 1&#45;&#45;4 -->
<g id="edge9" class="edge"><title>1&#45;&#45;4</title>
<path fill="none" stroke="black" d="M110.717,-40.3338C101.98,-34.5397 62.7159,-8.50083 54.2315,-2.87415"/>
</g>
<!-- 1&#45;&#45;5 -->
<g id="edge10" class="edge"><title>1&#45;&#45;5</title>
<path fill="none" stroke="black" d="M112.558,-43.3081C113.275,-54.7081 117.121,-115.885 117.836,-127.256"/>
</g>
<!-- 1&#45;&#45;7 -->
<g id="edge11" class="edge"><title>1&#45;&#45;7</title>
<path fill="none" stroke="black" d="M113.809,-42.9125C120.047,-49.4558 145.775,-76.4469 152.11,-83.0925"/>
</g>
<!-- 2&#45;&#45;3 -->
<g id="edge12" class="edge"><title>2&#45;&#45;3</title>
<path fill="none" stroke="black" d="M81.8259,-61.7714C72.768,-63.2689 32.6173,-69.9067 22.7211,-71.5428"/>
</g>
<!-- 2&#45;&#45;5 -->
<g id="edge13" class="edge"><title>2&#45;&#45;5</title>
<path fill="none" stroke="black" d="M84.4953,-63.1414C89.2,-72.4134 112.062,-117.469 117.006,-127.215"/>
</g>
<!-- 2&#45;&#45;6 -->
<g id="edge14" class="edge"><title>2&#45;&#45;6</title>
<path fill="none" stroke="black" d="M81.9378,-60.8529C71.2862,-57.0058 14.1243,-36.3608 3.50009,-32.5236"/>
</g>
<!-- 2&#45;&#45;7 -->
<g id="edge15" class="edge"><title>2&#45;&#45;7</title>
<path fill="none" stroke="black" d="M85.3746,-62.0414C94.9581,-65.2104 141.528,-80.6093 151.6,-83.94"/>
</g>
<!-- 3&#45;&#45;4 -->
<g id="edge16" class="edge"><title>3&#45;&#45;4</title>
<path fill="none" stroke="black" d="M21.3046,-70.1751C25.7072,-60.5599 47.101,-13.8358 51.7282,-3.72988"/>
</g>
<!-- 3&#45;&#45;6 -->
<g id="edge17" class="edge"><title>3&#45;&#45;6</title>
<path fill="none" stroke="black" d="M19.7071,-70.1895C16.6293,-63.6101 5.61662,-40.0684 2.58017,-33.5774"/>
</g>
<!-- 4&#45;&#45;6 -->
<g id="edge18" class="edge"><title>4&#45;&#45;6</title>
<path fill="none" stroke="black" d="M50.9212,-2.8018C43.2067,-7.37322 11.3842,-26.2303 3.54906,-30.8732"/>
</g>
<!-- 5&#45;&#45;7 -->
<g id="edge19" class="edge"><title>5&#45;&#45;7</title>
<path fill="none" stroke="black" d="M119.134,-127.595C124.535,-120.839 146.814,-92.9695 152.299,-86.1078"/>
</g>
</g>
</svg>
