<?xml version="1.0" encoding="UTF-8" standalone="no"?>
<!DOCTYPE svg PUBLIC "-//W3C//DTD SVG 1.1//EN"
 "http://www.w3.org/Graphics/SVG/1.1/DTD/svg11.dtd">
<!-- Generated by graphviz version 2.36.0 (20140111.2315)
 -->
<!-- Title: %3 Pages: 1 -->
<svg width="167pt" height="159pt"
 viewBox="0.00 0.00 166.55 158.62" xmlns="http://www.w3.org/2000/svg" xmlns:xlink="http://www.w3.org/1999/xlink">
<g id="graph0" class="graph" transform="scale(1 1) rotate(0) translate(4 154.622)">
<title>%3</title>
<!-- 0 -->
<g id="node1" class="node"><title>0</title>
<ellipse fill="black" stroke="black" cx="75.6207" cy="-81.2725" rx="1.8" ry="1.8"/>
</g>
<!-- 1 -->
<g id="node2" class="node"><title>1</title>
<ellipse fill="black" stroke="black" cx="84.6015" cy="-55.5811" rx="1.8" ry="1.8"/>
</g>
<!-- 0&#45;&#45;1 -->
<g id="edge1" class="edge"><title>0&#45;&#45;1</title>
<path fill="none" stroke="black" d="M76.3254,-79.2565C78.0125,-74.4303 82.2662,-62.2617 83.9246,-57.5174"/>
</g>
<!-- 2 -->
<g id="node3" class="node"><title>2</title>
<ellipse fill="black" stroke="black" cx="35.8233" cy="-9.38657" rx="1.8" ry="1.8"/>
</g>
<!-- 0&#45;&#45;2 -->
<g id="edge2" class="edge"><title>0&#45;&#45;2</title>
<path fill="none" stroke="black" d="M74.6369,-79.4955C69.1309,-69.55 42.1885,-20.8841 36.7727,-11.1014"/>
</g>
<!-- 3 -->
<g id="node4" class="node"><title>3</title>
<ellipse fill="black" stroke="black" cx="75.719" cy="-148.822" rx="1.8" ry="1.8"/>
</g>
<!-- 0&#45;&#45;3 -->
<g id="edge3" class="edge"><title>0&#45;&#45;3</title>
<path fill="none" stroke="black" d="M75.6235,-83.2213C75.6379,-93.0853 75.7024,-137.414 75.7164,-146.993"/>
</g>
<!-- 4 -->
<g id="node5" class="node"><title>4</title>
<ellipse fill="black" stroke="black" cx="156.746" cy="-51.4411" rx="1.8" ry="1.8"/>
</g>
<!-- 0&#45;&#45;4 -->
<g id="edge4" class="edge"><title>0&#45;&#45;4</title>
<path fill="none" stroke="black" d="M77.3151,-80.6494C87.7818,-76.8006 143.557,-56.291 154.779,-52.1647"/>
</g>
<!-- 5 -->
<g id="node6" class="node"><title>5</title>
<ellipse fill="black" stroke="black" cx="8.95949" cy="-87.4515" rx="1.8" ry="1.8"/>
</g>
<!-- 0&#45;&#45;5 -->
<g id="edge5" class="edge"><title>0&#45;&#45;5</title>
<path fill="none" stroke="black" d="M73.6975,-81.4508C63.9632,-82.3531 20.2171,-86.408 10.7641,-87.2842"/>
</g>
<!-- 6 -->
<g id="node7" class="node"><title>6</title>
<ellipse fill="black" stroke="black" cx="1.8" cy="-42.1436" rx="1.8" ry="1.8"/>
</g>
<!-- 0&#45;&#45;6 -->
<g id="edge6" class="edge"><title>0&#45;&#45;6</title>
<path fill="none" stroke="black" d="M73.7959,-80.3053C63.5826,-74.8917 13.607,-48.4019 3.56101,-43.077"/>
</g>
<!-- 7 -->
<g id="node8" class="node"><title>7</title>
<ellipse fill="black" stroke="black" cx="130.737" cy="-128.339" rx="1.8" ry="1.8"/>
</g>
<!-- 0&#45;&#45;7 -->
<g id="edge7" class="edge"><title>0&#45;&#45;7</title>
<path fill="none" stroke="black" d="M77.4545,-82.8385C85.9719,-90.112 121.582,-120.521 129.269,-127.086"/>
</g>
<!-- 8 -->
<g id="node9" class="node"><title>8</title>
<ellipse fill="black" stroke="black" cx="125.403" cy="-1.8" rx="1.8" ry="1.8"/>
</g>
<!-- 0&#45;&#45;8 -->
<g id="edge8" class="edge"><title>0&#45;&#45;8</title>
<path fill="none" stroke="black" d="M76.6604,-79.6126C83.1391,-69.27 117.907,-13.7667 124.369,-3.45076"/>
</g>
<!-- 1&#45;&#45;2 -->
<g id="edge9" class="edge"><title>1&#45;&#45;2</title>
<path fill="none" stroke="black" d="M82.9786,-54.0441C75.5728,-47.0306 45.0239,-18.0998 37.5024,-10.9767"/>
</g>
<!-- 1&#45;&#45;3 -->
<g id="edge10" class="edge"><title>1&#45;&#45;3</title>
<path fill="none" stroke="black" d="M84.416,-57.5286C83.26,-69.663 77.0565,-134.782 75.9035,-146.885"/>
</g>
<!-- 1&#45;&#45;4 -->
<g id="edge11" class="edge"><title>1&#45;&#45;4</title>
<path fill="none" stroke="black" d="M86.6829,-55.4617C97.218,-54.8571 144.563,-52.1403 154.793,-51.5532"/>
</g>
<!-- 1&#45;&#45;5 -->
<g id="edge12" class="edge"><title>1&#45;&#45;5</title>
<path fill="none" stroke="black" d="M82.7317,-56.3689C72.2665,-60.7783 21.0578,-82.3541 10.7639,-86.6912"/>
</g>
<!-- 1&#45;&#45;6 -->
<g id="edge13" class="edge"><title>1&#45;&#45;6</title>
<path fill="none" stroke="black" d="M82.5547,-55.249C71.099,-53.3899 15.0434,-44.2928 3.77525,-42.4642"/>
</g>
<!-- 1&#45;&#45;7 -->
<g id="edge14" class="edge"><title>1&#45;&#45;7</title>
<path fill="none" stroke="black" d="M85.7419,-57.3796C92.1248,-67.4458 123.358,-116.702 129.636,-126.603"/>
</g>
<!-- 1&#45;&#45;8 -->
<g id="edge15" class="edge"><title>1&#45;&#45;8</title>
<path fill="none" stroke="black" d="M85.959,-53.7917C92.1537,-45.6264 117.707,-11.9442 123.998,-3.65127"/>
</g>
<!-- 2&#45;&#45;5 -->
<g id="edge16" class="edge"><title>2&#45;&#45;5</title>
<path fill="none" stroke="black" d="M35.1592,-11.3163C31.4426,-22.1167 13.2561,-74.9657 9.60033,-85.5892"/>
</g>
<!-- 2&#45;&#45;6 -->
<g id="edge17" class="edge"><title>2&#45;&#45;6</title>
<path fill="none" stroke="black" d="M34.3614,-10.7941C28.7649,-16.1823 8.73996,-35.4619 3.21862,-40.7778"/>
</g>
<!-- 3&#45;&#45;7 -->
<g id="edge18" class="edge"><title>3&#45;&#45;7</title>
<path fill="none" stroke="black" d="M77.5496,-148.14C85.9026,-145.03 120.359,-132.202 128.843,-129.044"/>
</g>
<!-- 4&#45;&#45;8 -->
<g id="edge19" class="edge"><title>4&#45;&#45;8</title>
<path fill="none" stroke="black" d="M155.704,-49.7895C150.945,-42.2527 131.315,-11.1633 126.482,-3.50876"/>
</g>
</g>
</svg>
