<?xml version="1.0" encoding="UTF-8" standalone="no"?>
<!DOCTYPE svg PUBLIC "-//W3C//DTD SVG 1.1//EN"
 "http://www.w3.org/Graphics/SVG/1.1/DTD/svg11.dtd">
<!-- Generated by graphviz version 2.36.0 (20140111.2315)
 -->
<!-- Title: %3 Pages: 1 -->
<svg width="157pt" height="155pt"
 viewBox="0.00 0.00 157.23 154.96" xmlns="http://www.w3.org/2000/svg" xmlns:xlink="http://www.w3.org/1999/xlink">
<g id="graph0" class="graph" transform="scale(1 1) rotate(0) translate(4 150.955)">
<title>%3</title>
<!-- 0 -->
<g id="node1" class="node"><title>0</title>
<ellipse fill="black" stroke="black" cx="87.3605" cy="-84.5273" rx="1.8" ry="1.8"/>
</g>
<!-- 1 -->
<g id="node2" class="node"><title>1</title>
<ellipse fill="black" stroke="black" cx="70.5249" cy="-40.0199" rx="1.8" ry="1.8"/>
</g>
<!-- 0&#45;&#45;1 -->
<g id="edge1" class="edge"><title>0&#45;&#45;1</title>
<path fill="none" stroke="black" d="M86.6371,-82.6149C83.8678,-75.2939 73.959,-49.0984 71.2269,-41.8757"/>
</g>
<!-- 2 -->
<g id="node3" class="node"><title>2</title>
<ellipse fill="black" stroke="black" cx="51.281" cy="-74.2457" rx="1.8" ry="1.8"/>
</g>
<!-- 0&#45;&#45;2 -->
<g id="edge2" class="edge"><title>0&#45;&#45;2</title>
<path fill="none" stroke="black" d="M85.4207,-83.9745C79.0976,-82.1726 59.1402,-76.4853 53.0579,-74.752"/>
</g>
<!-- 3 -->
<g id="node4" class="node"><title>3</title>
<ellipse fill="black" stroke="black" cx="86.9108" cy="-136.76" rx="1.8" ry="1.8"/>
</g>
<!-- 0&#45;&#45;3 -->
<g id="edge3" class="edge"><title>0&#45;&#45;3</title>
<path fill="none" stroke="black" d="M87.3412,-86.7717C87.2672,-95.3635 87.0025,-126.106 86.9295,-134.583"/>
</g>
<!-- 4 -->
<g id="node5" class="node"><title>4</title>
<ellipse fill="black" stroke="black" cx="139.187" cy="-82.6956" rx="1.8" ry="1.8"/>
</g>
<!-- 0&#45;&#45;4 -->
<g id="edge4" class="edge"><title>0&#45;&#45;4</title>
<path fill="none" stroke="black" d="M89.5875,-84.4486C98.1124,-84.1473 128.616,-83.0692 137.026,-82.7719"/>
</g>
<!-- 5 -->
<g id="node6" class="node"><title>5</title>
<ellipse fill="black" stroke="black" cx="1.8" cy="-96.3718" rx="1.8" ry="1.8"/>
</g>
<!-- 0&#45;&#45;5 -->
<g id="edge5" class="edge"><title>0&#45;&#45;5</title>
<path fill="none" stroke="black" d="M85.5735,-84.7747C74.5346,-86.3029 15.7101,-94.4461 3.87523,-96.0845"/>
</g>
<!-- 6 -->
<g id="node7" class="node"><title>6</title>
<ellipse fill="black" stroke="black" cx="6.33513" cy="-33.9966" rx="1.8" ry="1.8"/>
</g>
<!-- 0&#45;&#45;6 -->
<g id="edge6" class="edge"><title>0&#45;&#45;6</title>
<path fill="none" stroke="black" d="M85.6682,-83.4719C75.1235,-76.8958 18.5357,-41.6054 8.01815,-35.0462"/>
</g>
<!-- 7 -->
<g id="node8" class="node"><title>7</title>
<ellipse fill="black" stroke="black" cx="147.432" cy="-145.155" rx="1.8" ry="1.8"/>
</g>
<!-- 0&#45;&#45;7 -->
<g id="edge7" class="edge"><title>0&#45;&#45;7</title>
<path fill="none" stroke="black" d="M88.8454,-86.026C97.0841,-94.3411 137.119,-134.747 145.778,-143.486"/>
</g>
<!-- 8 -->
<g id="node9" class="node"><title>8</title>
<ellipse fill="black" stroke="black" cx="109.442" cy="-1.8" rx="1.8" ry="1.8"/>
</g>
<!-- 0&#45;&#45;8 -->
<g id="edge8" class="edge"><title>0&#45;&#45;8</title>
<path fill="none" stroke="black" d="M87.9064,-82.4824C90.9613,-71.0369 105.91,-15.0315 108.915,-3.77348"/>
</g>
<!-- 1&#45;&#45;2 -->
<g id="edge9" class="edge"><title>1&#45;&#45;2</title>
<path fill="none" stroke="black" d="M69.4903,-41.86C66.1177,-47.8583 55.4729,-66.7903 52.2287,-72.5601"/>
</g>
<!-- 1&#45;&#45;3 -->
<g id="edge10" class="edge"><title>1&#45;&#45;3</title>
<path fill="none" stroke="black" d="M70.8672,-42.0405C72.9996,-54.6303 84.4434,-122.194 86.5704,-134.751"/>
</g>
<!-- 1&#45;&#45;4 -->
<g id="edge11" class="edge"><title>1&#45;&#45;4</title>
<path fill="none" stroke="black" d="M72.2222,-41.0748C81.6392,-46.9277 127.4,-75.3693 137.297,-81.5208"/>
</g>
<!-- 1&#45;&#45;5 -->
<g id="edge12" class="edge"><title>1&#45;&#45;5</title>
<path fill="none" stroke="black" d="M69.0895,-41.1969C60.1456,-48.5305 12.1484,-87.8865 3.22752,-95.2013"/>
</g>
<!-- 1&#45;&#45;6 -->
<g id="edge13" class="edge"><title>1&#45;&#45;6</title>
<path fill="none" stroke="black" d="M68.6731,-39.8461C59.464,-38.982 18.6433,-35.1516 8.58204,-34.2075"/>
</g>
<!-- 1&#45;&#45;8 -->
<g id="edge14" class="edge"><title>1&#45;&#45;8</title>
<path fill="none" stroke="black" d="M71.8197,-38.7482C77.7283,-32.9455 102.101,-9.00905 108.102,-3.11561"/>
</g>
<!-- 2&#45;&#45;3 -->
<g id="edge15" class="edge"><title>2&#45;&#45;3</title>
<path fill="none" stroke="black" d="M52.3089,-76.0492C57.5118,-85.1781 80.8937,-126.203 85.9462,-135.068"/>
</g>
<!-- 2&#45;&#45;4 -->
<g id="edge16" class="edge"><title>2&#45;&#45;4</title>
<path fill="none" stroke="black" d="M53.117,-74.4222C64.5572,-75.5218 125.951,-81.4232 137.361,-82.52"/>
</g>
<!-- 2&#45;&#45;5 -->
<g id="edge17" class="edge"><title>2&#45;&#45;5</title>
<path fill="none" stroke="black" d="M49.6347,-74.9818C42.1222,-78.3412 11.1331,-92.1983 3.50325,-95.6101"/>
</g>
<!-- 2&#45;&#45;6 -->
<g id="edge18" class="edge"><title>2&#45;&#45;6</title>
<path fill="none" stroke="black" d="M49.7855,-72.9065C42.9616,-66.7957 14.8128,-41.5884 7.88226,-35.3821"/>
</g>
<!-- 2&#45;&#45;8 -->
<g id="edge19" class="edge"><title>2&#45;&#45;8</title>
<path fill="none" stroke="black" d="M52.4957,-72.7325C60.0648,-63.3044 100.684,-12.7086 108.234,-3.30481"/>
</g>
<!-- 3&#45;&#45;4 -->
<g id="edge20" class="edge"><title>3&#45;&#45;4</title>
<path fill="none" stroke="black" d="M88.203,-135.424C95.3727,-128.009 130.213,-91.9771 137.748,-84.1838"/>
</g>
<!-- 3&#45;&#45;7 -->
<g id="edge21" class="edge"><title>3&#45;&#45;7</title>
<path fill="none" stroke="black" d="M88.9244,-137.04C98.113,-138.314 136.016,-143.572 145.348,-144.866"/>
</g>
<!-- 4&#45;&#45;7 -->
<g id="edge22" class="edge"><title>4&#45;&#45;7</title>
<path fill="none" stroke="black" d="M139.425,-84.4975C140.608,-93.4583 145.851,-133.179 147.143,-142.969"/>
</g>
<!-- 5&#45;&#45;6 -->
<g id="edge23" class="edge"><title>5&#45;&#45;6</title>
<path fill="none" stroke="black" d="M1.93084,-94.5723C2.58147,-85.6236 5.46553,-45.9569 6.17638,-36.18"/>
</g>
</g>
</svg>
