<?xml version="1.0" encoding="UTF-8" standalone="no"?>
<!DOCTYPE svg PUBLIC "-//W3C//DTD SVG 1.1//EN"
 "http://www.w3.org/Graphics/SVG/1.1/DTD/svg11.dtd">
<!-- Generated by graphviz version 2.36.0 (20140111.2315)
 -->
<!-- Title: %3 Pages: 1 -->
<svg width="222pt" height="143pt"
 viewBox="0.00 0.00 222.46 142.90" xmlns="http://www.w3.org/2000/svg" xmlns:xlink="http://www.w3.org/1999/xlink">
<g id="graph0" class="graph" transform="scale(1 1) rotate(0) translate(4 138.897)">
<title>%3</title>
<!-- 0 -->
<g id="node1" class="node"><title>0</title>
<ellipse fill="black" stroke="black" cx="73.9288" cy="-89.2439" rx="1.8" ry="1.8"/>
</g>
<!-- 1 -->
<g id="node2" class="node"><title>1</title>
<ellipse fill="black" stroke="black" cx="140.185" cy="-88.5471" rx="1.8" ry="1.8"/>
</g>
<!-- 0&#45;&#45;1 -->
<g id="edge1" class="edge"><title>0&#45;&#45;1</title>
<path fill="none" stroke="black" d="M75.8403,-89.2238C85.3457,-89.1238 127.48,-88.6807 137.865,-88.5715"/>
</g>
<!-- 2 -->
<g id="node3" class="node"><title>2</title>
<ellipse fill="black" stroke="black" cx="141.352" cy="-51.257" rx="1.8" ry="1.8"/>
</g>
<!-- 0&#45;&#45;2 -->
<g id="edge2" class="edge"><title>0&#45;&#45;2</title>
<path fill="none" stroke="black" d="M75.5955,-88.3049C84.8425,-83.095 129.777,-57.7784 139.496,-52.3027"/>
</g>
<!-- 3 -->
<g id="node4" class="node"><title>3</title>
<ellipse fill="black" stroke="black" cx="70.7026" cy="-50.0831" rx="1.8" ry="1.8"/>
</g>
<!-- 0&#45;&#45;3 -->
<g id="edge3" class="edge"><title>0&#45;&#45;3</title>
<path fill="none" stroke="black" d="M73.7554,-87.1385C73.19,-80.2753 71.4054,-58.6135 70.8615,-52.0117"/>
</g>
<!-- 4 -->
<g id="node5" class="node"><title>4</title>
<ellipse fill="black" stroke="black" cx="157.747" cy="-130.849" rx="1.8" ry="1.8"/>
</g>
<!-- 0&#45;&#45;4 -->
<g id="edge4" class="edge"><title>0&#45;&#45;4</title>
<path fill="none" stroke="black" d="M75.6795,-90.1129C86.5876,-95.5275 145.126,-124.585 156.006,-129.985"/>
</g>
<!-- 5 -->
<g id="node6" class="node"><title>5</title>
<ellipse fill="black" stroke="black" cx="98.7529" cy="-133.097" rx="1.8" ry="1.8"/>
</g>
<!-- 0&#45;&#45;5 -->
<g id="edge5" class="edge"><title>0&#45;&#45;5</title>
<path fill="none" stroke="black" d="M74.9955,-91.1282C79.0788,-98.3416 93.6894,-124.152 97.7179,-131.268"/>
</g>
<!-- 7 -->
<g id="node7" class="node"><title>7</title>
<ellipse fill="black" stroke="black" cx="1.8" cy="-98.1487" rx="1.8" ry="1.8"/>
</g>
<!-- 0&#45;&#45;7 -->
<g id="edge6" class="edge"><title>0&#45;&#45;7</title>
<path fill="none" stroke="black" d="M71.8479,-89.5008C61.3152,-90.8011 13.981,-96.6449 3.75261,-97.9076"/>
</g>
<!-- 8 -->
<g id="node8" class="node"><title>8</title>
<ellipse fill="black" stroke="black" cx="37.6423" cy="-1.8" rx="1.8" ry="1.8"/>
</g>
<!-- 0&#45;&#45;8 -->
<g id="edge7" class="edge"><title>0&#45;&#45;8</title>
<path fill="none" stroke="black" d="M73.1709,-87.4175C68.4486,-76.0375 43.1062,-14.967 38.396,-3.61634"/>
</g>
<!-- 1&#45;&#45;2 -->
<g id="edge8" class="edge"><title>1&#45;&#45;2</title>
<path fill="none" stroke="black" d="M140.247,-86.5422C140.452,-80.0069 141.098,-59.3799 141.294,-53.0935"/>
</g>
<!-- 1&#45;&#45;3 -->
<g id="edge9" class="edge"><title>1&#45;&#45;3</title>
<path fill="none" stroke="black" d="M138.467,-87.5963C128.938,-82.321 82.6309,-56.6864 72.6153,-51.1419"/>
</g>
<!-- 1&#45;&#45;4 -->
<g id="edge10" class="edge"><title>1&#45;&#45;4</title>
<path fill="none" stroke="black" d="M140.939,-90.3648C143.828,-97.3231 154.165,-122.221 157.015,-129.086"/>
</g>
<!-- 1&#45;&#45;5 -->
<g id="edge11" class="edge"><title>1&#45;&#45;5</title>
<path fill="none" stroke="black" d="M138.806,-90.0293C132.516,-96.7931 106.568,-124.694 100.179,-131.563"/>
</g>
<!-- 6 -->
<g id="node9" class="node"><title>6</title>
<ellipse fill="black" stroke="black" cx="212.665" cy="-78.7068" rx="1.8" ry="1.8"/>
</g>
<!-- 1&#45;&#45;6 -->
<g id="edge12" class="edge"><title>1&#45;&#45;6</title>
<path fill="none" stroke="black" d="M141.976,-88.3038C151.917,-86.9543 200.222,-80.3961 210.67,-78.9776"/>
</g>
<!-- 2&#45;&#45;3 -->
<g id="edge13" class="edge"><title>2&#45;&#45;3</title>
<path fill="none" stroke="black" d="M139.314,-51.2231C128.997,-51.0517 82.6337,-50.2814 72.6152,-50.1149"/>
</g>
<!-- 2&#45;&#45;4 -->
<g id="edge14" class="edge"><title>2&#45;&#45;4</title>
<path fill="none" stroke="black" d="M141.757,-53.2245C144.025,-64.2362 155.125,-118.119 157.356,-128.951"/>
</g>
<!-- 2&#45;&#45;5 -->
<g id="edge15" class="edge"><title>2&#45;&#45;5</title>
<path fill="none" stroke="black" d="M140.462,-52.9663C134.918,-63.617 105.167,-120.774 99.6378,-131.397"/>
</g>
<!-- 2&#45;&#45;6 -->
<g id="edge16" class="edge"><title>2&#45;&#45;6</title>
<path fill="none" stroke="black" d="M143.115,-51.9355C152.981,-55.7333 201.259,-74.3164 210.964,-78.0519"/>
</g>
<!-- 3&#45;&#45;5 -->
<g id="edge17" class="edge"><title>3&#45;&#45;5</title>
<path fill="none" stroke="black" d="M71.2885,-51.817C74.939,-62.6204 94.5292,-120.597 98.1703,-131.372"/>
</g>
<!-- 3&#45;&#45;7 -->
<g id="edge18" class="edge"><title>3&#45;&#45;7</title>
<path fill="none" stroke="black" d="M68.9994,-51.2712C59.5495,-57.8634 13.6288,-89.8971 3.6967,-96.8256"/>
</g>
<!-- 3&#45;&#45;8 -->
<g id="edge19" class="edge"><title>3&#45;&#45;8</title>
<path fill="none" stroke="black" d="M69.6026,-48.4766C64.5832,-41.146 43.8781,-10.9072 38.7803,-3.46201"/>
</g>
<!-- 4&#45;&#45;5 -->
<g id="edge20" class="edge"><title>4&#45;&#45;5</title>
<path fill="none" stroke="black" d="M155.784,-130.924C146.827,-131.265 109.88,-132.673 100.784,-133.019"/>
</g>
<!-- 4&#45;&#45;6 -->
<g id="edge21" class="edge"><title>4&#45;&#45;6</title>
<path fill="none" stroke="black" d="M159.104,-129.56C166.636,-122.409 203.237,-87.6583 211.153,-80.1421"/>
</g>
</g>
</svg>
