<?xml version="1.0" encoding="UTF-8" standalone="no"?>
<!DOCTYPE svg PUBLIC "-//W3C//DTD SVG 1.1//EN"
 "http://www.w3.org/Graphics/SVG/1.1/DTD/svg11.dtd">
<!-- Generated by graphviz version 2.36.0 (20140111.2315)
 -->
<!-- Title: %3 Pages: 1 -->
<svg width="208pt" height="232pt"
 viewBox="0.00 0.00 208.06 231.72" xmlns="http://www.w3.org/2000/svg" xmlns:xlink="http://www.w3.org/1999/xlink">
<g id="graph0" class="graph" transform="scale(1 1) rotate(0) translate(4 227.719)">
<title>%3</title>
<!-- 0 -->
<g id="node1" class="node"><title>0</title>
<ellipse fill="black" stroke="black" cx="94.5308" cy="-136.852" rx="1.8" ry="1.8"/>
</g>
<!-- 1 -->
<g id="node2" class="node"><title>1</title>
<ellipse fill="black" stroke="black" cx="125.949" cy="-63.7026" rx="1.8" ry="1.8"/>
</g>
<!-- 0&#45;&#45;1 -->
<g id="edge1" class="edge"><title>0&#45;&#45;1</title>
<path fill="none" stroke="black" d="M95.3074,-135.044C99.6542,-124.923 120.924,-75.4022 125.2,-65.4476"/>
</g>
<!-- 2 -->
<g id="node3" class="node"><title>2</title>
<ellipse fill="black" stroke="black" cx="56.0132" cy="-70.7124" rx="1.8" ry="1.8"/>
</g>
<!-- 0&#45;&#45;2 -->
<g id="edge2" class="edge"><title>0&#45;&#45;2</title>
<path fill="none" stroke="black" d="M93.5787,-135.217C88.296,-126.146 62.6256,-82.0669 57.0734,-72.5331"/>
</g>
<!-- 3 -->
<g id="node4" class="node"><title>3</title>
<ellipse fill="black" stroke="black" cx="93.3411" cy="-221.919" rx="1.8" ry="1.8"/>
</g>
<!-- 0&#45;&#45;3 -->
<g id="edge3" class="edge"><title>0&#45;&#45;3</title>
<path fill="none" stroke="black" d="M94.5014,-138.955C94.3368,-150.724 93.5314,-208.313 93.3695,-219.89"/>
</g>
<!-- 4 -->
<g id="node5" class="node"><title>4</title>
<ellipse fill="black" stroke="black" cx="137.297" cy="-192.457" rx="1.8" ry="1.8"/>
</g>
<!-- 0&#45;&#45;4 -->
<g id="edge4" class="edge"><title>0&#45;&#45;4</title>
<path fill="none" stroke="black" d="M95.9537,-138.702C102.563,-147.295 130.193,-183.221 136.159,-190.977"/>
</g>
<!-- 6 -->
<g id="node6" class="node"><title>6</title>
<ellipse fill="black" stroke="black" cx="49.9414" cy="-192.402" rx="1.8" ry="1.8"/>
</g>
<!-- 0&#45;&#45;6 -->
<g id="edge5" class="edge"><title>0&#45;&#45;6</title>
<path fill="none" stroke="black" d="M93.0472,-138.7C86.1565,-147.285 57.3478,-183.175 51.1283,-190.923"/>
</g>
<!-- 1&#45;&#45;2 -->
<g id="edge6" class="edge"><title>1&#45;&#45;2</title>
<path fill="none" stroke="black" d="M123.931,-63.9048C113.719,-64.9284 67.8238,-69.5286 57.9064,-70.5227"/>
</g>
<!-- 5 -->
<g id="node7" class="node"><title>5</title>
<ellipse fill="black" stroke="black" cx="73.6964" cy="-1.8" rx="1.8" ry="1.8"/>
</g>
<!-- 1&#45;&#45;5 -->
<g id="edge7" class="edge"><title>1&#45;&#45;5</title>
<path fill="none" stroke="black" d="M124.657,-62.1724C117.491,-53.6825 82.6669,-12.4271 75.1348,-3.50401"/>
</g>
<!-- 8 -->
<g id="node8" class="node"><title>8</title>
<ellipse fill="black" stroke="black" cx="198.258" cy="-32.5185" rx="1.8" ry="1.8"/>
</g>
<!-- 1&#45;&#45;8 -->
<g id="edge8" class="edge"><title>1&#45;&#45;8</title>
<path fill="none" stroke="black" d="M127.736,-62.9317C137.741,-58.6173 186.693,-37.5061 196.533,-33.2624"/>
</g>
<!-- 2&#45;&#45;5 -->
<g id="edge9" class="edge"><title>2&#45;&#45;5</title>
<path fill="none" stroke="black" d="M56.5233,-68.7243C59.1056,-58.6612 70.7101,-13.4378 73.2177,-3.66554"/>
</g>
<!-- 7 -->
<g id="node9" class="node"><title>7</title>
<ellipse fill="black" stroke="black" cx="1.8" cy="-17.9499" rx="1.8" ry="1.8"/>
</g>
<!-- 2&#45;&#45;7 -->
<g id="edge10" class="edge"><title>2&#45;&#45;7</title>
<path fill="none" stroke="black" d="M54.673,-69.4082C47.2378,-62.1719 11.107,-27.0079 3.29234,-19.4023"/>
</g>
<!-- 3&#45;&#45;4 -->
<g id="edge11" class="edge"><title>3&#45;&#45;4</title>
<path fill="none" stroke="black" d="M95.2298,-220.653C102.46,-215.807 128.331,-198.467 135.464,-193.686"/>
</g>
<!-- 3&#45;&#45;6 -->
<g id="edge12" class="edge"><title>3&#45;&#45;6</title>
<path fill="none" stroke="black" d="M91.4763,-220.651C84.3375,-215.795 58.7939,-198.423 51.751,-193.633"/>
</g>
<!-- 4&#45;&#45;6 -->
<g id="edge13" class="edge"><title>4&#45;&#45;6</title>
<path fill="none" stroke="black" d="M135.472,-192.456C124.104,-192.449 63.0951,-192.41 51.7559,-192.403"/>
</g>
<!-- 5&#45;&#45;7 -->
<g id="edge14" class="edge"><title>5&#45;&#45;7</title>
<path fill="none" stroke="black" d="M71.9192,-2.19921C62.0587,-4.41415 14.1428,-15.1774 3.77911,-17.5053"/>
</g>
</g>
</svg>
