<?xml version="1.0" encoding="UTF-8" standalone="no"?>
<!DOCTYPE svg PUBLIC "-//W3C//DTD SVG 1.1//EN"
 "http://www.w3.org/Graphics/SVG/1.1/DTD/svg11.dtd">
<!-- Generated by graphviz version 2.36.0 (20140111.2315)
 -->
<!-- Title: %3 Pages: 1 -->
<svg width="201pt" height="124pt"
 viewBox="0.00 0.00 201.46 123.99" xmlns="http://www.w3.org/2000/svg" xmlns:xlink="http://www.w3.org/1999/xlink">
<g id="graph0" class="graph" transform="scale(1 1) rotate(0) translate(4 119.992)">
<title>%3</title>
<!-- 0 -->
<g id="node1" class="node"><title>0</title>
<ellipse fill="black" stroke="black" cx="129.996" cy="-70.3004" rx="1.8" ry="1.8"/>
</g>
<!-- 1 -->
<g id="node2" class="node"><title>1</title>
<ellipse fill="black" stroke="black" cx="128.679" cy="-9.7835" rx="1.8" ry="1.8"/>
</g>
<!-- 0&#45;&#45;1 -->
<g id="edge1" class="edge"><title>0&#45;&#45;1</title>
<path fill="none" stroke="black" d="M129.952,-68.2869C129.752,-59.0989 128.928,-21.1982 128.725,-11.8666"/>
</g>
<!-- 2 -->
<g id="node3" class="node"><title>2</title>
<ellipse fill="black" stroke="black" cx="70.9623" cy="-1.8" rx="1.8" ry="1.8"/>
</g>
<!-- 0&#45;&#45;2 -->
<g id="edge2" class="edge"><title>0&#45;&#45;2</title>
<path fill="none" stroke="black" d="M128.763,-68.8697C121.08,-59.955 79.8514,-12.1146 72.1885,-3.22286"/>
</g>
<!-- 3 -->
<g id="node4" class="node"><title>3</title>
<ellipse fill="black" stroke="black" cx="64.7276" cy="-76.5293" rx="1.8" ry="1.8"/>
</g>
<!-- 0&#45;&#45;3 -->
<g id="edge3" class="edge"><title>0&#45;&#45;3</title>
<path fill="none" stroke="black" d="M128.113,-70.4801C118.749,-71.3738 77.2426,-75.3349 67.0122,-76.3112"/>
</g>
<!-- 5 -->
<g id="node5" class="node"><title>5</title>
<ellipse fill="black" stroke="black" cx="191.656" cy="-114.192" rx="1.8" ry="1.8"/>
</g>
<!-- 0&#45;&#45;5 -->
<g id="edge4" class="edge"><title>0&#45;&#45;5</title>
<path fill="none" stroke="black" d="M131.52,-71.3854C139.977,-77.405 181.07,-106.657 189.958,-112.984"/>
</g>
<!-- 1&#45;&#45;2 -->
<g id="edge5" class="edge"><title>1&#45;&#45;2</title>
<path fill="none" stroke="black" d="M126.759,-9.51788C117.996,-8.30577 81.8489,-3.30585 72.9491,-2.07481"/>
</g>
<!-- 1&#45;&#45;3 -->
<g id="edge6" class="edge"><title>1&#45;&#45;3</title>
<path fill="none" stroke="black" d="M127.098,-11.4334C118.174,-20.7481 74.2005,-66.6424 66.034,-75.1658"/>
</g>
<!-- 4 -->
<g id="node6" class="node"><title>4</title>
<ellipse fill="black" stroke="black" cx="1.8" cy="-33.6979" rx="1.8" ry="1.8"/>
</g>
<!-- 2&#45;&#45;4 -->
<g id="edge7" class="edge"><title>2&#45;&#45;4</title>
<path fill="none" stroke="black" d="M69.2527,-2.58849C59.7671,-6.96325 13.6734,-28.2219 3.70385,-32.8198"/>
</g>
<!-- 3&#45;&#45;4 -->
<g id="edge8" class="edge"><title>3&#45;&#45;4</title>
<path fill="none" stroke="black" d="M63.1721,-75.4705C54.5416,-69.5962 12.603,-41.0509 3.53222,-34.8769"/>
</g>
</g>
</svg>
