<?xml version="1.0" encoding="UTF-8" standalone="no"?>
<!DOCTYPE svg PUBLIC "-//W3C//DTD SVG 1.1//EN"
 "http://www.w3.org/Graphics/SVG/1.1/DTD/svg11.dtd">
<!-- Generated by graphviz version 2.36.0 (20140111.2315)
 -->
<!-- Title: %3 Pages: 1 -->
<svg width="172pt" height="152pt"
 viewBox="0.00 0.00 172.24 152.35" xmlns="http://www.w3.org/2000/svg" xmlns:xlink="http://www.w3.org/1999/xlink">
<g id="graph0" class="graph" transform="scale(1 1) rotate(0) translate(4 148.352)">
<title>%3</title>
<!-- 0 -->
<g id="node1" class="node"><title>0</title>
<ellipse fill="black" stroke="black" cx="68.6704" cy="-52.7266" rx="1.8" ry="1.8"/>
</g>
<!-- 1 -->
<g id="node2" class="node"><title>1</title>
<ellipse fill="black" stroke="black" cx="101.287" cy="-67.4738" rx="1.8" ry="1.8"/>
</g>
<!-- 0&#45;&#45;1 -->
<g id="edge1" class="edge"><title>0&#45;&#45;1</title>
<path fill="none" stroke="black" d="M70.4241,-53.5194C76.0344,-56.0561 93.5182,-63.9612 99.3625,-66.6036"/>
</g>
<!-- 2 -->
<g id="node3" class="node"><title>2</title>
<ellipse fill="black" stroke="black" cx="46.6455" cy="-106.995" rx="1.8" ry="1.8"/>
</g>
<!-- 0&#45;&#45;2 -->
<g id="edge2" class="edge"><title>0&#45;&#45;2</title>
<path fill="none" stroke="black" d="M67.9376,-54.5322C64.5937,-62.7715 50.7999,-96.7587 47.4037,-105.127"/>
</g>
<!-- 3 -->
<g id="node4" class="node"><title>3</title>
<ellipse fill="black" stroke="black" cx="134.268" cy="-98.2742" rx="1.8" ry="1.8"/>
</g>
<!-- 0&#45;&#45;3 -->
<g id="edge3" class="edge"><title>0&#45;&#45;3</title>
<path fill="none" stroke="black" d="M70.292,-53.8525C79.2886,-60.0993 123.007,-90.4548 132.462,-97.0204"/>
</g>
<!-- 4 -->
<g id="node5" class="node"><title>4</title>
<ellipse fill="black" stroke="black" cx="93.5576" cy="-142.552" rx="1.8" ry="1.8"/>
</g>
<!-- 0&#45;&#45;4 -->
<g id="edge4" class="edge"><title>0&#45;&#45;4</title>
<path fill="none" stroke="black" d="M69.1902,-54.6027C72.4291,-66.2925 89.8102,-129.026 93.0407,-140.686"/>
</g>
<!-- 5 -->
<g id="node6" class="node"><title>5</title>
<ellipse fill="black" stroke="black" cx="6.14059" cy="-75.3847" rx="1.8" ry="1.8"/>
</g>
<!-- 0&#45;&#45;5 -->
<g id="edge5" class="edge"><title>0&#45;&#45;5</title>
<path fill="none" stroke="black" d="M66.8665,-53.3802C57.7354,-56.6889 16.7005,-71.5582 7.83334,-74.7713"/>
</g>
<!-- 6 -->
<g id="node7" class="node"><title>6</title>
<ellipse fill="black" stroke="black" cx="1.8" cy="-24.0844" rx="1.8" ry="1.8"/>
</g>
<!-- 0&#45;&#45;6 -->
<g id="edge6" class="edge"><title>0&#45;&#45;6</title>
<path fill="none" stroke="black" d="M66.7413,-51.9002C56.9763,-47.7177 13.0929,-28.9214 3.61026,-24.8597"/>
</g>
<!-- 7 -->
<g id="node8" class="node"><title>7</title>
<ellipse fill="black" stroke="black" cx="162.438" cy="-40.6386" rx="1.8" ry="1.8"/>
</g>
<!-- 0&#45;&#45;7 -->
<g id="edge7" class="edge"><title>0&#45;&#45;7</title>
<path fill="none" stroke="black" d="M70.6289,-52.4741C82.8318,-50.9009 148.318,-42.4588 160.49,-40.8897"/>
</g>
<!-- 1&#45;&#45;2 -->
<g id="edge8" class="edge"><title>1&#45;&#45;2</title>
<path fill="none" stroke="black" d="M99.4691,-68.7888C91.1731,-74.7891 56.9521,-99.5403 48.5264,-105.634"/>
</g>
<!-- 1&#45;&#45;3 -->
<g id="edge9" class="edge"><title>1&#45;&#45;3</title>
<path fill="none" stroke="black" d="M102.704,-68.7973C108.129,-73.8636 127.541,-91.9916 132.893,-96.99"/>
</g>
<!-- 1&#45;&#45;4 -->
<g id="edge10" class="edge"><title>1&#45;&#45;4</title>
<path fill="none" stroke="black" d="M101.096,-69.3297C100.027,-79.7168 94.7939,-130.544 93.742,-140.761"/>
</g>
<!-- 1&#45;&#45;5 -->
<g id="edge11" class="edge"><title>1&#45;&#45;5</title>
<path fill="none" stroke="black" d="M99.2998,-67.639C86.9174,-68.6686 20.4675,-74.1935 8.11692,-75.2204"/>
</g>
<!-- 1&#45;&#45;7 -->
<g id="edge12" class="edge"><title>1&#45;&#45;7</title>
<path fill="none" stroke="black" d="M103.051,-66.6996C111.981,-62.781 152.111,-45.1705 160.782,-41.3651"/>
</g>
<!-- 8 -->
<g id="node9" class="node"><title>8</title>
<ellipse fill="black" stroke="black" cx="142.246" cy="-1.8" rx="1.8" ry="1.8"/>
</g>
<!-- 1&#45;&#45;8 -->
<g id="edge13" class="edge"><title>1&#45;&#45;8</title>
<path fill="none" stroke="black" d="M102.3,-65.8504C107.917,-56.8433 135.214,-13.0745 141.118,-3.60782"/>
</g>
<!-- 2&#45;&#45;3 -->
<g id="edge14" class="edge"><title>2&#45;&#45;3</title>
<path fill="none" stroke="black" d="M48.4757,-106.813C59.8789,-105.678 121.074,-99.5873 132.448,-98.4553"/>
</g>
<!-- 2&#45;&#45;4 -->
<g id="edge15" class="edge"><title>2&#45;&#45;4</title>
<path fill="none" stroke="black" d="M48.2064,-108.178C55.3289,-113.576 84.7091,-135.845 91.9428,-141.328"/>
</g>
<!-- 2&#45;&#45;5 -->
<g id="edge16" class="edge"><title>2&#45;&#45;5</title>
<path fill="none" stroke="black" d="M44.9051,-105.637C38.2424,-100.437 14.4027,-81.8324 7.82947,-76.7027"/>
</g>
<!-- 2&#45;&#45;6 -->
<g id="edge17" class="edge"><title>2&#45;&#45;6</title>
<path fill="none" stroke="black" d="M45.7089,-105.263C39.8727,-94.4731 8.55271,-36.5688 2.73151,-25.8065"/>
</g>
<!-- 3&#45;&#45;4 -->
<g id="edge18" class="edge"><title>3&#45;&#45;4</title>
<path fill="none" stroke="black" d="M132.913,-99.7474C126.733,-106.47 101.236,-134.2 94.959,-141.027"/>
</g>
<!-- 3&#45;&#45;8 -->
<g id="edge19" class="edge"><title>3&#45;&#45;8</title>
<path fill="none" stroke="black" d="M134.435,-96.2592C135.473,-83.704 141.044,-16.3268 142.08,-3.80391"/>
</g>
<!-- 5&#45;&#45;6 -->
<g id="edge20" class="edge"><title>5&#45;&#45;6</title>
<path fill="none" stroke="black" d="M5.95408,-73.1804C5.2401,-64.742 2.68538,-34.5484 1.98098,-26.2233"/>
</g>
</g>
</svg>
