<?xml version="1.0" encoding="UTF-8" standalone="no"?>
<!DOCTYPE svg PUBLIC "-//W3C//DTD SVG 1.1//EN"
 "http://www.w3.org/Graphics/SVG/1.1/DTD/svg11.dtd">
<!-- Generated by graphviz version 2.36.0 (20140111.2315)
 -->
<!-- Title: %3 Pages: 1 -->
<svg width="171pt" height="155pt"
 viewBox="0.00 0.00 170.50 155.05" xmlns="http://www.w3.org/2000/svg" xmlns:xlink="http://www.w3.org/1999/xlink">
<g id="graph0" class="graph" transform="scale(1 1) rotate(0) translate(4 151.054)">
<title>%3</title>
<!-- 0 -->
<g id="node1" class="node"><title>0</title>
<ellipse fill="black" stroke="black" cx="87.2456" cy="-85.6728" rx="1.8" ry="1.8"/>
</g>
<!-- 2 -->
<g id="node2" class="node"><title>2</title>
<ellipse fill="black" stroke="black" cx="149.655" cy="-111.047" rx="1.8" ry="1.8"/>
</g>
<!-- 0&#45;&#45;2 -->
<g id="edge1" class="edge"><title>0&#45;&#45;2</title>
<path fill="none" stroke="black" d="M89.0461,-86.4048C98.1597,-90.1101 139.116,-106.762 147.966,-110.36"/>
</g>
<!-- 3 -->
<g id="node3" class="node"><title>3</title>
<ellipse fill="black" stroke="black" cx="81.9166" cy="-1.8" rx="1.8" ry="1.8"/>
</g>
<!-- 0&#45;&#45;3 -->
<g id="edge2" class="edge"><title>0&#45;&#45;3</title>
<path fill="none" stroke="black" d="M87.1139,-83.5995C86.3766,-71.9955 82.7689,-15.2147 82.0437,-3.8008"/>
</g>
<!-- 4 -->
<g id="node4" class="node"><title>4</title>
<ellipse fill="black" stroke="black" cx="81.1494" cy="-145.254" rx="1.8" ry="1.8"/>
</g>
<!-- 0&#45;&#45;4 -->
<g id="edge3" class="edge"><title>0&#45;&#45;4</title>
<path fill="none" stroke="black" d="M87.0428,-87.6551C86.1172,-96.7011 82.2993,-134.016 81.3592,-143.203"/>
</g>
<!-- 5 -->
<g id="node5" class="node"><title>5</title>
<ellipse fill="black" stroke="black" cx="160.701" cy="-47.3254" rx="1.8" ry="1.8"/>
</g>
<!-- 0&#45;&#45;5 -->
<g id="edge4" class="edge"><title>0&#45;&#45;5</title>
<path fill="none" stroke="black" d="M89.0614,-84.7248C99.2241,-79.4194 148.952,-53.4587 158.949,-48.2402"/>
</g>
<!-- 7 -->
<g id="node6" class="node"><title>7</title>
<ellipse fill="black" stroke="black" cx="1.8" cy="-101.512" rx="1.8" ry="1.8"/>
</g>
<!-- 0&#45;&#45;7 -->
<g id="edge5" class="edge"><title>0&#45;&#45;7</title>
<path fill="none" stroke="black" d="M85.461,-86.0036C74.341,-88.0648 14.6661,-99.1266 3.57483,-101.183"/>
</g>
<!-- 2&#45;&#45;4 -->
<g id="edge10" class="edge"><title>2&#45;&#45;4</title>
<path fill="none" stroke="black" d="M147.962,-111.892C138.567,-116.584 92.9101,-139.382 83.0352,-144.312"/>
</g>
<!-- 2&#45;&#45;5 -->
<g id="edge11" class="edge"><title>2&#45;&#45;5</title>
<path fill="none" stroke="black" d="M149.974,-109.208C151.559,-100.067 158.583,-59.5438 160.314,-49.5559"/>
</g>
<!-- 6 -->
<g id="node8" class="node"><title>6</title>
<ellipse fill="black" stroke="black" cx="124.561" cy="-25.1842" rx="1.8" ry="1.8"/>
</g>
<!-- 2&#45;&#45;6 -->
<g id="edge12" class="edge"><title>2&#45;&#45;6</title>
<path fill="none" stroke="black" d="M149.131,-109.253C145.866,-98.0792 128.34,-38.1132 125.082,-26.9677"/>
</g>
<!-- 3&#45;&#45;5 -->
<g id="edge13" class="edge"><title>3&#45;&#45;5</title>
<path fill="none" stroke="black" d="M83.5621,-2.75086C93.8151,-8.67556 148.838,-40.4703 159.064,-46.3798"/>
</g>
<!-- 3&#45;&#45;6 -->
<g id="edge14" class="edge"><title>3&#45;&#45;6</title>
<path fill="none" stroke="black" d="M83.749,-2.80479C90.7636,-6.65126 115.863,-20.4144 122.783,-24.2092"/>
</g>
<!-- 1 -->
<g id="node7" class="node"><title>1</title>
<ellipse fill="black" stroke="black" cx="41.856" cy="-55.3038" rx="1.8" ry="1.8"/>
</g>
<!-- 1&#45;&#45;3 -->
<g id="edge6" class="edge"><title>1&#45;&#45;3</title>
<path fill="none" stroke="black" d="M43.1889,-53.5236C49.2711,-45.4004 74.3603,-11.8919 80.5376,-3.64172"/>
</g>
<!-- 1&#45;&#45;4 -->
<g id="edge7" class="edge"><title>1&#45;&#45;4</title>
<path fill="none" stroke="black" d="M42.6767,-57.1825C47.7904,-68.8887 75.2327,-131.71 80.3332,-143.386"/>
</g>
<!-- 1&#45;&#45;7 -->
<g id="edge9" class="edge"><title>1&#45;&#45;7</title>
<path fill="none" stroke="black" d="M40.5233,-56.8412C34.4417,-63.8567 9.35538,-92.7958 3.17882,-99.9209"/>
</g>
<!-- 1&#45;&#45;6 -->
<g id="edge8" class="edge"><title>1&#45;&#45;6</title>
<path fill="none" stroke="black" d="M43.5834,-54.6747C54.3467,-50.7549 112.108,-29.7195 122.843,-25.8099"/>
</g>
</g>
</svg>
