<?xml version="1.0" encoding="UTF-8" standalone="no"?>
<!DOCTYPE svg PUBLIC "-//W3C//DTD SVG 1.1//EN"
 "http://www.w3.org/Graphics/SVG/1.1/DTD/svg11.dtd">
<!-- Generated by graphviz version 2.36.0 (20140111.2315)
 -->
<!-- Title: %3 Pages: 1 -->
<svg width="174pt" height="157pt"
 viewBox="0.00 0.00 174.19 157.04" xmlns="http://www.w3.org/2000/svg" xmlns:xlink="http://www.w3.org/1999/xlink">
<g id="graph0" class="graph" transform="scale(1 1) rotate(0) translate(4 153.043)">
<title>%3</title>
<!-- 0 -->
<g id="node1" class="node"><title>0</title>
<ellipse fill="black" stroke="black" cx="74.4031" cy="-64.7388" rx="1.8" ry="1.8"/>
</g>
<!-- 1 -->
<g id="node2" class="node"><title>1</title>
<ellipse fill="black" stroke="black" cx="104.618" cy="-88.6816" rx="1.8" ry="1.8"/>
</g>
<!-- 0&#45;&#45;1 -->
<g id="edge1" class="edge"><title>0&#45;&#45;1</title>
<path fill="none" stroke="black" d="M76.0275,-66.0261C81.3228,-70.2222 98.036,-83.4662 103.13,-87.5025"/>
</g>
<!-- 2 -->
<g id="node3" class="node"><title>2</title>
<ellipse fill="black" stroke="black" cx="50.5415" cy="-108.621" rx="1.8" ry="1.8"/>
</g>
<!-- 0&#45;&#45;2 -->
<g id="edge2" class="edge"><title>0&#45;&#45;2</title>
<path fill="none" stroke="black" d="M73.3778,-66.6244C69.4528,-73.8426 55.4087,-99.6701 51.5365,-106.791"/>
</g>
<!-- 3 -->
<g id="node4" class="node"><title>3</title>
<ellipse fill="black" stroke="black" cx="52.9629" cy="-147.243" rx="1.8" ry="1.8"/>
</g>
<!-- 0&#45;&#45;3 -->
<g id="edge3" class="edge"><title>0&#45;&#45;3</title>
<path fill="none" stroke="black" d="M73.8731,-66.7783C70.9068,-78.1929 56.3921,-134.047 53.4744,-145.275"/>
</g>
<!-- 4 -->
<g id="node5" class="node"><title>4</title>
<ellipse fill="black" stroke="black" cx="120.796" cy="-142.085" rx="1.8" ry="1.8"/>
</g>
<!-- 0&#45;&#45;4 -->
<g id="edge4" class="edge"><title>0&#45;&#45;4</title>
<path fill="none" stroke="black" d="M75.3721,-66.3543C81.4097,-76.4202 113.81,-130.439 119.833,-140.479"/>
</g>
<!-- 5 -->
<g id="node6" class="node"><title>5</title>
<ellipse fill="black" stroke="black" cx="6.18585" cy="-112.281" rx="1.8" ry="1.8"/>
</g>
<!-- 0&#45;&#45;5 -->
<g id="edge5" class="edge"><title>0&#45;&#45;5</title>
<path fill="none" stroke="black" d="M72.7168,-65.914C63.3609,-72.4344 17.897,-104.119 8.06368,-110.972"/>
</g>
<!-- 6 -->
<g id="node7" class="node"><title>6</title>
<ellipse fill="black" stroke="black" cx="1.8" cy="-62.1164" rx="1.8" ry="1.8"/>
</g>
<!-- 0&#45;&#45;6 -->
<g id="edge6" class="edge"><title>0&#45;&#45;6</title>
<path fill="none" stroke="black" d="M72.3085,-64.6632C61.7065,-64.2802 14.0611,-62.5593 3.76545,-62.1874"/>
</g>
<!-- 7 -->
<g id="node8" class="node"><title>7</title>
<ellipse fill="black" stroke="black" cx="164.39" cy="-85.3353" rx="1.8" ry="1.8"/>
</g>
<!-- 0&#45;&#45;7 -->
<g id="edge7" class="edge"><title>0&#45;&#45;7</title>
<path fill="none" stroke="black" d="M76.2826,-65.169C87.9936,-67.8494 150.84,-82.234 162.521,-84.9075"/>
</g>
<!-- 8 -->
<g id="node9" class="node"><title>8</title>
<ellipse fill="black" stroke="black" cx="106.851" cy="-1.8" rx="1.8" ry="1.8"/>
</g>
<!-- 0&#45;&#45;8 -->
<g id="edge8" class="edge"><title>0&#45;&#45;8</title>
<path fill="none" stroke="black" d="M75.3392,-62.9231C80.0775,-53.7323 101.371,-12.429 105.973,-3.50383"/>
</g>
<!-- 1&#45;&#45;2 -->
<g id="edge9" class="edge"><title>1&#45;&#45;2</title>
<path fill="none" stroke="black" d="M102.818,-89.3451C94.6083,-92.3724 60.7414,-104.86 52.403,-107.935"/>
</g>
<!-- 1&#45;&#45;3 -->
<g id="edge10" class="edge"><title>1&#45;&#45;3</title>
<path fill="none" stroke="black" d="M103.341,-90.1292C96.2564,-98.1609 61.8307,-137.19 54.3848,-145.631"/>
</g>
<!-- 1&#45;&#45;4 -->
<g id="edge11" class="edge"><title>1&#45;&#45;4</title>
<path fill="none" stroke="black" d="M105.156,-90.4585C107.612,-98.5665 117.745,-132.012 120.239,-140.247"/>
</g>
<!-- 1&#45;&#45;5 -->
<g id="edge12" class="edge"><title>1&#45;&#45;5</title>
<path fill="none" stroke="black" d="M102.562,-89.1745C89.7518,-92.2458 21.0074,-108.728 8.23043,-111.791"/>
</g>
<!-- 1&#45;&#45;7 -->
<g id="edge13" class="edge"><title>1&#45;&#45;7</title>
<path fill="none" stroke="black" d="M106.606,-88.5703C115.681,-88.0622 153.116,-85.9665 162.333,-85.4505"/>
</g>
<!-- 1&#45;&#45;8 -->
<g id="edge14" class="edge"><title>1&#45;&#45;8</title>
<path fill="none" stroke="black" d="M104.664,-86.867C104.955,-75.5602 106.515,-14.8824 106.805,-3.60466"/>
</g>
<!-- 2&#45;&#45;3 -->
<g id="edge15" class="edge"><title>2&#45;&#45;3</title>
<path fill="none" stroke="black" d="M50.6717,-110.698C51.0961,-117.466 52.4355,-138.83 52.8436,-145.341"/>
</g>
<!-- 2&#45;&#45;4 -->
<g id="edge16" class="edge"><title>2&#45;&#45;4</title>
<path fill="none" stroke="black" d="M52.2782,-109.448C61.9135,-114.038 108.735,-136.34 118.862,-141.164"/>
</g>
<!-- 2&#45;&#45;5 -->
<g id="edge17" class="edge"><title>2&#45;&#45;5</title>
<path fill="none" stroke="black" d="M48.6356,-108.778C41.3396,-109.38 15.2334,-111.535 8.03529,-112.129"/>
</g>
<!-- 2&#45;&#45;6 -->
<g id="edge18" class="edge"><title>2&#45;&#45;6</title>
<path fill="none" stroke="black" d="M48.9198,-107.074C41.5196,-100.013 10.9937,-70.8881 3.47779,-63.7172"/>
</g>
<!-- 3&#45;&#45;4 -->
<g id="edge19" class="edge"><title>3&#45;&#45;4</title>
<path fill="none" stroke="black" d="M54.9199,-147.094C64.8254,-146.341 109.341,-142.956 118.96,-142.225"/>
</g>
<!-- 3&#45;&#45;5 -->
<g id="edge20" class="edge"><title>3&#45;&#45;5</title>
<path fill="none" stroke="black" d="M51.4065,-146.08C44.3046,-140.772 15.009,-118.876 7.79602,-113.485"/>
</g>
<!-- 3&#45;&#45;6 -->
<g id="edge21" class="edge"><title>3&#45;&#45;6</title>
<path fill="none" stroke="black" d="M51.8943,-145.465C45.2359,-134.387 9.50395,-74.9346 2.86273,-63.8846"/>
</g>
<!-- 4&#45;&#45;7 -->
<g id="edge22" class="edge"><title>4&#45;&#45;7</title>
<path fill="none" stroke="black" d="M122.247,-140.197C128.984,-131.427 157.149,-94.7616 163.23,-86.8459"/>
</g>
<!-- 5&#45;&#45;6 -->
<g id="edge23" class="edge"><title>5&#45;&#45;6</title>
<path fill="none" stroke="black" d="M5.9974,-110.126C5.27597,-101.874 2.69461,-72.3488 1.98287,-64.2081"/>
</g>
</g>
</svg>
