<?xml version="1.0" encoding="UTF-8" standalone="no"?>
<!DOCTYPE svg PUBLIC "-//W3C//DTD SVG 1.1//EN"
 "http://www.w3.org/Graphics/SVG/1.1/DTD/svg11.dtd">
<!-- Generated by graphviz version 2.36.0 (20140111.2315)
 -->
<!-- Title: %3 Pages: 1 -->
<svg width="214pt" height="192pt"
 viewBox="0.00 0.00 214.23 192.41" xmlns="http://www.w3.org/2000/svg" xmlns:xlink="http://www.w3.org/1999/xlink">
<g id="graph0" class="graph" transform="scale(1 1) rotate(0) translate(4 188.408)">
<title>%3</title>
<!-- 0 -->
<g id="node1" class="node"><title>0</title>
<ellipse fill="black" stroke="black" cx="130.93" cy="-94.4219" rx="1.8" ry="1.8"/>
</g>
<!-- 1 -->
<g id="node2" class="node"><title>1</title>
<ellipse fill="black" stroke="black" cx="204.434" cy="-106.515" rx="1.8" ry="1.8"/>
</g>
<!-- 0&#45;&#45;1 -->
<g id="edge1" class="edge"><title>0&#45;&#45;1</title>
<path fill="none" stroke="black" d="M132.747,-94.7209C142.828,-96.3795 191.815,-104.439 202.411,-106.183"/>
</g>
<!-- 2 -->
<g id="node3" class="node"><title>2</title>
<ellipse fill="black" stroke="black" cx="181.645" cy="-57.339" rx="1.8" ry="1.8"/>
</g>
<!-- 0&#45;&#45;2 -->
<g id="edge2" class="edge"><title>0&#45;&#45;2</title>
<path fill="none" stroke="black" d="M132.617,-93.1881C140.317,-87.558 172.079,-64.3336 179.899,-58.6155"/>
</g>
<!-- 3 -->
<g id="node4" class="node"><title>3</title>
<ellipse fill="black" stroke="black" cx="66.2525" cy="-143.563" rx="1.8" ry="1.8"/>
</g>
<!-- 0&#45;&#45;3 -->
<g id="edge3" class="edge"><title>0&#45;&#45;3</title>
<path fill="none" stroke="black" d="M129.331,-95.6367C120.461,-102.376 77.3559,-135.127 68.0329,-142.21"/>
</g>
<!-- 4 -->
<g id="node5" class="node"><title>4</title>
<ellipse fill="black" stroke="black" cx="133.448" cy="-163.684" rx="1.8" ry="1.8"/>
</g>
<!-- 0&#45;&#45;4 -->
<g id="edge4" class="edge"><title>0&#45;&#45;4</title>
<path fill="none" stroke="black" d="M131.002,-96.4201C131.37,-106.534 133.022,-151.987 133.379,-161.809"/>
</g>
<!-- 5 -->
<g id="node6" class="node"><title>5</title>
<ellipse fill="black" stroke="black" cx="201.014" cy="-144.25" rx="1.8" ry="1.8"/>
</g>
<!-- 0&#45;&#45;5 -->
<g id="edge5" class="edge"><title>0&#45;&#45;5</title>
<path fill="none" stroke="black" d="M132.662,-95.6536C142.274,-102.488 188.982,-135.696 199.085,-142.879"/>
</g>
<!-- 6 -->
<g id="node7" class="node"><title>6</title>
<ellipse fill="black" stroke="black" cx="94.926" cy="-35.5856" rx="1.8" ry="1.8"/>
</g>
<!-- 0&#45;&#45;6 -->
<g id="edge6" class="edge"><title>0&#45;&#45;6</title>
<path fill="none" stroke="black" d="M129.891,-92.7245C124.633,-84.1328 101.006,-45.5218 95.9007,-37.1784"/>
</g>
<!-- 7 -->
<g id="node8" class="node"><title>7</title>
<ellipse fill="black" stroke="black" cx="140.355" cy="-1.8" rx="1.8" ry="1.8"/>
</g>
<!-- 0&#45;&#45;7 -->
<g id="edge7" class="edge"><title>0&#45;&#45;7</title>
<path fill="none" stroke="black" d="M131.127,-92.4874C132.353,-80.4335 138.936,-15.7467 140.16,-3.7239"/>
</g>
<!-- 1&#45;&#45;2 -->
<g id="edge8" class="edge"><title>1&#45;&#45;2</title>
<path fill="none" stroke="black" d="M203.676,-104.879C200.216,-97.413 185.944,-66.6147 182.43,-59.0318"/>
</g>
<!-- 1&#45;&#45;4 -->
<g id="edge9" class="edge"><title>1&#45;&#45;4</title>
<path fill="none" stroke="black" d="M202.952,-107.709C193.713,-115.149 144.137,-155.076 134.922,-162.497"/>
</g>
<!-- 1&#45;&#45;5 -->
<g id="edge10" class="edge"><title>1&#45;&#45;5</title>
<path fill="none" stroke="black" d="M204.25,-108.544C203.651,-115.157 201.759,-136.03 201.182,-142.392"/>
</g>
<!-- 2&#45;&#45;5 -->
<g id="edge11" class="edge"><title>2&#45;&#45;5</title>
<path fill="none" stroke="black" d="M182.05,-59.1543C184.57,-70.4649 198.097,-131.163 200.611,-142.445"/>
</g>
<!-- 2&#45;&#45;6 -->
<g id="edge12" class="edge"><title>2&#45;&#45;6</title>
<path fill="none" stroke="black" d="M179.834,-56.8847C168.548,-54.0537 107.984,-38.8612 96.7273,-36.0375"/>
</g>
<!-- 3&#45;&#45;4 -->
<g id="edge13" class="edge"><title>3&#45;&#45;4</title>
<path fill="none" stroke="black" d="M68.191,-144.144C78.0034,-147.082 122.1,-160.286 131.629,-163.14"/>
</g>
<!-- 8 -->
<g id="node9" class="node"><title>8</title>
<ellipse fill="black" stroke="black" cx="1.8" cy="-182.608" rx="1.8" ry="1.8"/>
</g>
<!-- 3&#45;&#45;8 -->
<g id="edge14" class="edge"><title>3&#45;&#45;8</title>
<path fill="none" stroke="black" d="M64.6593,-144.528C55.8197,-149.883 12.8648,-175.905 3.5742,-181.533"/>
</g>
</g>
</svg>
