<?xml version="1.0" encoding="UTF-8" standalone="no"?>
<!DOCTYPE svg PUBLIC "-//W3C//DTD SVG 1.1//EN"
 "http://www.w3.org/Graphics/SVG/1.1/DTD/svg11.dtd">
<!-- Generated by graphviz version 2.36.0 (20140111.2315)
 -->
<!-- Title: %3 Pages: 1 -->
<svg width="148pt" height="139pt"
 viewBox="0.00 0.00 148.37 138.52" xmlns="http://www.w3.org/2000/svg" xmlns:xlink="http://www.w3.org/1999/xlink">
<g id="graph0" class="graph" transform="scale(1 1) rotate(0) translate(4 134.522)">
<title>%3</title>
<!-- 0 -->
<g id="node1" class="node"><title>0</title>
<ellipse fill="black" stroke="black" cx="65.946" cy="-82.4016" rx="1.8" ry="1.8"/>
</g>
<!-- 1 -->
<g id="node2" class="node"><title>1</title>
<ellipse fill="black" stroke="black" cx="89.2273" cy="-61.4531" rx="1.8" ry="1.8"/>
</g>
<!-- 0&#45;&#45;1 -->
<g id="edge1" class="edge"><title>0&#45;&#45;1</title>
<path fill="none" stroke="black" d="M67.4735,-81.0271C71.6819,-77.2405 83.4126,-66.6852 87.6636,-62.8601"/>
</g>
<!-- 2 -->
<g id="node3" class="node"><title>2</title>
<ellipse fill="black" stroke="black" cx="57.7022" cy="-30.3113" rx="1.8" ry="1.8"/>
</g>
<!-- 0&#45;&#45;2 -->
<g id="edge2" class="edge"><title>0&#45;&#45;2</title>
<path fill="none" stroke="black" d="M65.5917,-80.1634C64.2357,-71.595 59.3837,-40.9365 58.0459,-32.4832"/>
</g>
<!-- 3 -->
<g id="node4" class="node"><title>3</title>
<ellipse fill="black" stroke="black" cx="77.3836" cy="-127.475" rx="1.8" ry="1.8"/>
</g>
<!-- 0&#45;&#45;3 -->
<g id="edge3" class="edge"><title>0&#45;&#45;3</title>
<path fill="none" stroke="black" d="M66.4374,-84.3384C68.3188,-91.7525 75.0506,-118.281 76.9067,-125.596"/>
</g>
<!-- 4 -->
<g id="node5" class="node"><title>4</title>
<ellipse fill="black" stroke="black" cx="138.57" cy="-66.3459" rx="1.8" ry="1.8"/>
</g>
<!-- 0&#45;&#45;4 -->
<g id="edge4" class="edge"><title>0&#45;&#45;4</title>
<path fill="none" stroke="black" d="M67.7412,-82.0047C77.7016,-79.8027 126.103,-69.1023 136.571,-66.7879"/>
</g>
<!-- 5 -->
<g id="node6" class="node"><title>5</title>
<ellipse fill="black" stroke="black" cx="10.86" cy="-97.7138" rx="1.8" ry="1.8"/>
</g>
<!-- 0&#45;&#45;5 -->
<g id="edge5" class="edge"><title>0&#45;&#45;5</title>
<path fill="none" stroke="black" d="M64.1132,-82.9111C55.7497,-85.2359 21.2503,-94.8256 12.7562,-97.1867"/>
</g>
<!-- 6 -->
<g id="node7" class="node"><title>6</title>
<ellipse fill="black" stroke="black" cx="1.8" cy="-36.5021" rx="1.8" ry="1.8"/>
</g>
<!-- 0&#45;&#45;6 -->
<g id="edge6" class="edge"><title>0&#45;&#45;6</title>
<path fill="none" stroke="black" d="M64.3603,-81.267C55.5628,-74.972 12.8122,-44.3819 3.56576,-37.7656"/>
</g>
<!-- 7 -->
<g id="node8" class="node"><title>7</title>
<ellipse fill="black" stroke="black" cx="117.583" cy="-1.8" rx="1.8" ry="1.8"/>
</g>
<!-- 0&#45;&#45;7 -->
<g id="edge7" class="edge"><title>0&#45;&#45;7</title>
<path fill="none" stroke="black" d="M67.0245,-80.7181C73.7446,-70.2286 109.808,-13.9367 116.511,-3.47422"/>
</g>
<!-- 8 -->
<g id="node9" class="node"><title>8</title>
<ellipse fill="black" stroke="black" cx="136.357" cy="-128.722" rx="1.8" ry="1.8"/>
</g>
<!-- 0&#45;&#45;8 -->
<g id="edge8" class="edge"><title>0&#45;&#45;8</title>
<path fill="none" stroke="black" d="M67.6865,-83.5466C77.3432,-89.8994 124.269,-120.77 134.418,-127.447"/>
</g>
<!-- 1&#45;&#45;2 -->
<g id="edge9" class="edge"><title>1&#45;&#45;2</title>
<path fill="none" stroke="black" d="M87.8727,-60.115C82.6872,-54.9925 64.1326,-36.6635 59.0167,-31.6097"/>
</g>
<!-- 1&#45;&#45;3 -->
<g id="edge10" class="edge"><title>1&#45;&#45;3</title>
<path fill="none" stroke="black" d="M88.8857,-63.3578C87.1561,-72.9988 79.3838,-116.326 77.7042,-125.688"/>
</g>
<!-- 1&#45;&#45;4 -->
<g id="edge11" class="edge"><title>1&#45;&#45;4</title>
<path fill="none" stroke="black" d="M91.3476,-61.6633C99.464,-62.4682 128.506,-65.3479 136.513,-66.1419"/>
</g>
<!-- 1&#45;&#45;5 -->
<g id="edge12" class="edge"><title>1&#45;&#45;5</title>
<path fill="none" stroke="black" d="M87.5905,-62.2104C77.4797,-66.8888 23.6007,-91.8187 12.7608,-96.8343"/>
</g>
<!-- 1&#45;&#45;6 -->
<g id="edge13" class="edge"><title>1&#45;&#45;6</title>
<path fill="none" stroke="black" d="M87.4013,-60.932C76.0235,-57.6848 14.9645,-40.2591 3.616,-37.0204"/>
</g>
<!-- 1&#45;&#45;7 -->
<g id="edge14" class="edge"><title>1&#45;&#45;7</title>
<path fill="none" stroke="black" d="M90.0454,-59.7321C94.1135,-51.174 112.146,-13.2383 116.591,-3.88811"/>
</g>
<!-- 1&#45;&#45;8 -->
<g id="edge15" class="edge"><title>1&#45;&#45;8</title>
<path fill="none" stroke="black" d="M90.3923,-63.1159C96.8561,-72.3418 128.266,-117.174 135.059,-126.87"/>
</g>
<!-- 2&#45;&#45;3 -->
<g id="edge16" class="edge"><title>2&#45;&#45;3</title>
<path fill="none" stroke="black" d="M58.1133,-32.3407C60.6746,-44.9856 74.42,-112.845 76.9748,-125.457"/>
</g>
<!-- 2&#45;&#45;4 -->
<g id="edge17" class="edge"><title>2&#45;&#45;4</title>
<path fill="none" stroke="black" d="M59.3912,-31.0639C69.9155,-35.7535 126.394,-60.9199 136.891,-65.5974"/>
</g>
<!-- 2&#45;&#45;5 -->
<g id="edge18" class="edge"><title>2&#45;&#45;5</title>
<path fill="none" stroke="black" d="M56.5443,-31.9774C50.1199,-41.2216 18.9016,-86.1425 12.1494,-95.8584"/>
</g>
<!-- 2&#45;&#45;6 -->
<g id="edge19" class="edge"><title>2&#45;&#45;6</title>
<path fill="none" stroke="black" d="M55.8422,-30.5172C47.3548,-31.4572 12.3443,-35.3344 3.72428,-36.289"/>
</g>
<!-- 2&#45;&#45;7 -->
<g id="edge20" class="edge"><title>2&#45;&#45;7</title>
<path fill="none" stroke="black" d="M59.4297,-29.4887C68.0206,-25.3983 106.101,-7.26695 115.487,-2.79801"/>
</g>
<!-- 3&#45;&#45;4 -->
<g id="edge21" class="edge"><title>3&#45;&#45;4</title>
<path fill="none" stroke="black" d="M78.8961,-125.964C87.2878,-117.58 128.066,-76.8403 136.886,-68.0286"/>
</g>
<!-- 3&#45;&#45;5 -->
<g id="edge22" class="edge"><title>3&#45;&#45;5</title>
<path fill="none" stroke="black" d="M75.7392,-126.74C66.6156,-122.658 22.2804,-102.823 12.6912,-98.533"/>
</g>
<!-- 3&#45;&#45;8 -->
<g id="edge23" class="edge"><title>3&#45;&#45;8</title>
<path fill="none" stroke="black" d="M79.3458,-127.517C88.2994,-127.706 125.233,-128.487 134.327,-128.679"/>
</g>
<!-- 4&#45;&#45;7 -->
<g id="edge24" class="edge"><title>4&#45;&#45;7</title>
<path fill="none" stroke="black" d="M137.965,-64.4838C134.9,-55.0583 121.127,-12.7004 118.151,-3.54733"/>
</g>
<!-- 4&#45;&#45;8 -->
<g id="edge25" class="edge"><title>4&#45;&#45;8</title>
<path fill="none" stroke="black" d="M138.507,-68.1455C138.189,-77.0943 136.781,-116.762 136.434,-126.539"/>
</g>
<!-- 5&#45;&#45;6 -->
<g id="edge26" class="edge"><title>5&#45;&#45;6</title>
<path fill="none" stroke="black" d="M10.5586,-95.6772C9.18302,-86.3836 3.5089,-48.0479 2.11187,-38.6091"/>
</g>
</g>
</svg>
