<?xml version="1.0" encoding="UTF-8" standalone="no"?>
<!DOCTYPE svg PUBLIC "-//W3C//DTD SVG 1.1//EN"
 "http://www.w3.org/Graphics/SVG/1.1/DTD/svg11.dtd">
<!-- Generated by graphviz version 2.36.0 (20140111.2315)
 -->
<!-- Title: %3 Pages: 1 -->
<svg width="218pt" height="173pt"
 viewBox="0.00 0.00 218.44 173.18" xmlns="http://www.w3.org/2000/svg" xmlns:xlink="http://www.w3.org/1999/xlink">
<g id="graph0" class="graph" transform="scale(1 1) rotate(0) translate(4 169.176)">
<title>%3</title>
<!-- 0 -->
<g id="node1" class="node"><title>0</title>
<ellipse fill="black" stroke="black" cx="63.2354" cy="-69.8421" rx="1.8" ry="1.8"/>
</g>
<!-- 1 -->
<g id="node2" class="node"><title>1</title>
<ellipse fill="black" stroke="black" cx="80.1634" cy="-105.729" rx="1.8" ry="1.8"/>
</g>
<!-- 0&#45;&#45;1 -->
<g id="edge1" class="edge"><title>0&#45;&#45;1</title>
<path fill="none" stroke="black" d="M64.1455,-71.7715C67.1122,-78.0608 76.476,-97.9114 79.3298,-103.961"/>
</g>
<!-- 2 -->
<g id="node3" class="node"><title>2</title>
<ellipse fill="black" stroke="black" cx="124.558" cy="-34.0184" rx="1.8" ry="1.8"/>
</g>
<!-- 0&#45;&#45;2 -->
<g id="edge2" class="edge"><title>0&#45;&#45;2</title>
<path fill="none" stroke="black" d="M65.0045,-68.8086C73.9593,-63.5773 114.202,-40.0682 122.898,-34.9882"/>
</g>
<!-- 3 -->
<g id="node4" class="node"><title>3</title>
<ellipse fill="black" stroke="black" cx="146.916" cy="-81.8566" rx="1.8" ry="1.8"/>
</g>
<!-- 0&#45;&#45;3 -->
<g id="edge3" class="edge"><title>0&#45;&#45;3</title>
<path fill="none" stroke="black" d="M65.3039,-70.139C76.8813,-71.8013 133.532,-79.935 144.92,-81.57"/>
</g>
<!-- 4 -->
<g id="node5" class="node"><title>4</title>
<ellipse fill="black" stroke="black" cx="6.11956" cy="-117.866" rx="1.8" ry="1.8"/>
</g>
<!-- 0&#45;&#45;4 -->
<g id="edge4" class="edge"><title>0&#45;&#45;4</title>
<path fill="none" stroke="black" d="M61.8235,-71.0292C53.9901,-77.6156 15.9249,-109.622 7.6918,-116.544"/>
</g>
<!-- 7 -->
<g id="node6" class="node"><title>7</title>
<ellipse fill="black" stroke="black" cx="52.478" cy="-163.376" rx="1.8" ry="1.8"/>
</g>
<!-- 0&#45;&#45;7 -->
<g id="edge5" class="edge"><title>0&#45;&#45;7</title>
<path fill="none" stroke="black" d="M63.0107,-71.7957C61.6107,-83.9683 54.0978,-149.292 52.7014,-161.434"/>
</g>
<!-- 8 -->
<g id="node7" class="node"><title>8</title>
<ellipse fill="black" stroke="black" cx="1.8" cy="-52.91" rx="1.8" ry="1.8"/>
</g>
<!-- 0&#45;&#45;8 -->
<g id="edge6" class="edge"><title>0&#45;&#45;8</title>
<path fill="none" stroke="black" d="M61.463,-69.3536C52.6491,-66.9244 13.58,-56.1566 3.95049,-53.5027"/>
</g>
<!-- 1&#45;&#45;2 -->
<g id="edge7" class="edge"><title>1&#45;&#45;2</title>
<path fill="none" stroke="black" d="M81.2608,-103.956C87.4029,-94.0347 117.457,-45.4878 123.499,-35.7291"/>
</g>
<!-- 1&#45;&#45;3 -->
<g id="edge8" class="edge"><title>1&#45;&#45;3</title>
<path fill="none" stroke="black" d="M82.0892,-105.04C91.8369,-101.554 135.643,-85.8881 145.109,-82.5029"/>
</g>
<!-- 1&#45;&#45;4 -->
<g id="edge9" class="edge"><title>1&#45;&#45;4</title>
<path fill="none" stroke="black" d="M78.3331,-106.029C68.1781,-107.693 18.831,-115.783 8.15778,-117.532"/>
</g>
<!-- 1&#45;&#45;7 -->
<g id="edge10" class="edge"><title>1&#45;&#45;7</title>
<path fill="none" stroke="black" d="M79.2423,-107.647C75.0389,-116.399 57.7,-152.503 53.431,-161.392"/>
</g>
<!-- 1&#45;&#45;8 -->
<g id="edge11" class="edge"><title>1&#45;&#45;8</title>
<path fill="none" stroke="black" d="M78.5267,-104.625C68.3285,-97.7515 13.5997,-60.8632 3.42773,-54.0071"/>
</g>
<!-- 2&#45;&#45;3 -->
<g id="edge12" class="edge"><title>2&#45;&#45;3</title>
<path fill="none" stroke="black" d="M125.519,-36.0739C129.196,-43.9428 142.355,-72.0987 145.984,-79.862"/>
</g>
<!-- 5 -->
<g id="node8" class="node"><title>5</title>
<ellipse fill="black" stroke="black" cx="208.643" cy="-58.0996" rx="1.8" ry="1.8"/>
</g>
<!-- 2&#45;&#45;5 -->
<g id="edge13" class="edge"><title>2&#45;&#45;5</title>
<path fill="none" stroke="black" d="M126.314,-34.5214C137.257,-37.6553 195.982,-54.4735 206.896,-57.5994"/>
</g>
<!-- 6 -->
<g id="node9" class="node"><title>6</title>
<ellipse fill="black" stroke="black" cx="182.273" cy="-1.8" rx="1.8" ry="1.8"/>
</g>
<!-- 2&#45;&#45;6 -->
<g id="edge14" class="edge"><title>2&#45;&#45;6</title>
<path fill="none" stroke="black" d="M126.478,-32.9464C135.241,-28.0548 171.386,-7.87705 180.286,-2.90903"/>
</g>
<!-- 3&#45;&#45;5 -->
<g id="edge15" class="edge"><title>3&#45;&#45;5</title>
<path fill="none" stroke="black" d="M148.697,-81.1712C157.552,-77.7629 196.807,-62.655 206.482,-58.9312"/>
</g>
<!-- 3&#45;&#45;6 -->
<g id="edge16" class="edge"><title>3&#45;&#45;6</title>
<path fill="none" stroke="black" d="M147.654,-80.1845C152.256,-69.7659 176.949,-13.8547 181.538,-3.4629"/>
</g>
<!-- 4&#45;&#45;7 -->
<g id="edge17" class="edge"><title>4&#45;&#45;7</title>
<path fill="none" stroke="black" d="M7.66199,-119.38C14.7004,-126.29 43.7338,-154.792 50.8822,-161.81"/>
</g>
<!-- 4&#45;&#45;8 -->
<g id="edge18" class="edge"><title>4&#45;&#45;8</title>
<path fill="none" stroke="black" d="M5.99494,-115.992C5.37523,-106.673 2.62826,-65.3651 1.9512,-55.1837"/>
</g>
<!-- 5&#45;&#45;6 -->
<g id="edge19" class="edge"><title>5&#45;&#45;6</title>
<path fill="none" stroke="black" d="M207.765,-56.2264C203.762,-47.6787 187.247,-12.4193 183.18,-3.73796"/>
</g>
</g>
</svg>
