<?xml version="1.0" encoding="UTF-8" standalone="no"?>
<!DOCTYPE svg PUBLIC "-//W3C//DTD SVG 1.1//EN"
 "http://www.w3.org/Graphics/SVG/1.1/DTD/svg11.dtd">
<!-- Generated by graphviz version 2.36.0 (20140111.2315)
 -->
<!-- Title: %3 Pages: 1 -->
<svg width="138pt" height="147pt"
 viewBox="0.00 0.00 137.69 147.35" xmlns="http://www.w3.org/2000/svg" xmlns:xlink="http://www.w3.org/1999/xlink">
<g id="graph0" class="graph" transform="scale(1 1) rotate(0) translate(4 143.354)">
<title>%3</title>
<!-- 0 -->
<g id="node1" class="node"><title>0</title>
<ellipse fill="black" stroke="black" cx="53.1618" cy="-48.5175" rx="1.8" ry="1.8"/>
</g>
<!-- 1 -->
<g id="node2" class="node"><title>1</title>
<ellipse fill="black" stroke="black" cx="79.3025" cy="-55.7909" rx="1.8" ry="1.8"/>
</g>
<!-- 0&#45;&#45;1 -->
<g id="edge1" class="edge"><title>0&#45;&#45;1</title>
<path fill="none" stroke="black" d="M55.213,-49.0882C60.1237,-50.4546 72.505,-53.8996 77.3323,-55.2427"/>
</g>
<!-- 2 -->
<g id="node3" class="node"><title>2</title>
<ellipse fill="black" stroke="black" cx="127.895" cy="-77.0697" rx="1.8" ry="1.8"/>
</g>
<!-- 0&#45;&#45;2 -->
<g id="edge2" class="edge"><title>0&#45;&#45;2</title>
<path fill="none" stroke="black" d="M55.0092,-49.2233C65.3486,-53.1736 115.942,-72.503 126.112,-76.3886"/>
</g>
<!-- 3 -->
<g id="node4" class="node"><title>3</title>
<ellipse fill="black" stroke="black" cx="6.36969" cy="-84.9787" rx="1.8" ry="1.8"/>
</g>
<!-- 0&#45;&#45;3 -->
<g id="edge3" class="edge"><title>0&#45;&#45;3</title>
<path fill="none" stroke="black" d="M51.605,-49.7306C44.5007,-55.2664 15.1956,-78.1014 7.98039,-83.7237"/>
</g>
<!-- 4 -->
<g id="node5" class="node"><title>4</title>
<ellipse fill="black" stroke="black" cx="98.9754" cy="-115.863" rx="1.8" ry="1.8"/>
</g>
<!-- 0&#45;&#45;4 -->
<g id="edge4" class="edge"><title>0&#45;&#45;4</title>
<path fill="none" stroke="black" d="M54.2943,-50.1822C60.5776,-59.4186 91.1104,-104.301 97.7143,-114.009"/>
</g>
<!-- 5 -->
<g id="node6" class="node"><title>5</title>
<ellipse fill="black" stroke="black" cx="67.5639" cy="-137.554" rx="1.8" ry="1.8"/>
</g>
<!-- 0&#45;&#45;5 -->
<g id="edge5" class="edge"><title>0&#45;&#45;5</title>
<path fill="none" stroke="black" d="M53.4626,-50.3772C55.3369,-61.9644 65.3953,-124.147 67.2648,-135.705"/>
</g>
<!-- 6 -->
<g id="node7" class="node"><title>6</title>
<ellipse fill="black" stroke="black" cx="41.3825" cy="-113.307" rx="1.8" ry="1.8"/>
</g>
<!-- 0&#45;&#45;6 -->
<g id="edge6" class="edge"><title>0&#45;&#45;6</title>
<path fill="none" stroke="black" d="M52.822,-50.3867C51.1321,-59.6817 43.6411,-100.884 41.7948,-111.039"/>
</g>
<!-- 7 -->
<g id="node8" class="node"><title>7</title>
<ellipse fill="black" stroke="black" cx="122.747" cy="-1.8" rx="1.8" ry="1.8"/>
</g>
<!-- 0&#45;&#45;7 -->
<g id="edge7" class="edge"><title>0&#45;&#45;7</title>
<path fill="none" stroke="black" d="M54.8819,-47.3627C64.4254,-40.9554 110.801,-9.82019 120.831,-3.086"/>
</g>
<!-- 8 -->
<g id="node9" class="node"><title>8</title>
<ellipse fill="black" stroke="black" cx="1.8" cy="-10.0948" rx="1.8" ry="1.8"/>
</g>
<!-- 0&#45;&#45;8 -->
<g id="edge8" class="edge"><title>0&#45;&#45;8</title>
<path fill="none" stroke="black" d="M51.4529,-47.2391C43.6549,-41.4056 11.4879,-17.3421 3.56799,-11.4174"/>
</g>
<!-- 1&#45;&#45;2 -->
<g id="edge9" class="edge"><title>1&#45;&#45;2</title>
<path fill="none" stroke="black" d="M81.3904,-56.7052C89.3834,-60.2054 117.983,-72.7293 125.869,-76.1825"/>
</g>
<!-- 1&#45;&#45;3 -->
<g id="edge10" class="edge"><title>1&#45;&#45;3</title>
<path fill="none" stroke="black" d="M77.4996,-56.5124C67.4093,-60.5506 18.0347,-80.3104 8.10952,-84.2825"/>
</g>
<!-- 1&#45;&#45;4 -->
<g id="edge11" class="edge"><title>1&#45;&#45;4</title>
<path fill="none" stroke="black" d="M79.87,-57.524C82.6924,-66.1422 95.2032,-104.344 98.2868,-113.76"/>
</g>
<!-- 1&#45;&#45;5 -->
<g id="edge12" class="edge"><title>1&#45;&#45;5</title>
<path fill="none" stroke="black" d="M79.0123,-57.812C77.3883,-69.1241 69.4414,-124.477 67.8439,-135.604"/>
</g>
<!-- 1&#45;&#45;6 -->
<g id="edge13" class="edge"><title>1&#45;&#45;6</title>
<path fill="none" stroke="black" d="M78.0408,-57.7046C72.1808,-66.5929 47.6811,-103.753 42.3919,-111.776"/>
</g>
<!-- 1&#45;&#45;7 -->
<g id="edge14" class="edge"><title>1&#45;&#45;7</title>
<path fill="none" stroke="black" d="M80.7479,-53.9945C87.4617,-45.6509 115.53,-10.768 121.59,-3.23717"/>
</g>
<!-- 1&#45;&#45;8 -->
<g id="edge15" class="edge"><title>1&#45;&#45;8</title>
<path fill="none" stroke="black" d="M77.6837,-54.8365C67.5975,-48.8896 13.4701,-16.9756 3.40984,-11.044"/>
</g>
<!-- 2&#45;&#45;4 -->
<g id="edge16" class="edge"><title>2&#45;&#45;4</title>
<path fill="none" stroke="black" d="M126.652,-78.7366C121.895,-85.1176 104.874,-107.95 100.181,-114.245"/>
</g>
<!-- 2&#45;&#45;5 -->
<g id="edge17" class="edge"><title>2&#45;&#45;5</title>
<path fill="none" stroke="black" d="M126.404,-78.5648C118.129,-86.8602 77.9212,-127.17 69.2247,-135.889"/>
</g>
<!-- 2&#45;&#45;6 -->
<g id="edge18" class="edge"><title>2&#45;&#45;6</title>
<path fill="none" stroke="black" d="M126.088,-77.8266C114.829,-82.5425 54.4093,-107.85 43.1795,-112.554"/>
</g>
<!-- 2&#45;&#45;7 -->
<g id="edge19" class="edge"><title>2&#45;&#45;7</title>
<path fill="none" stroke="black" d="M127.768,-75.2091C127.061,-64.8859 123.63,-14.7219 122.888,-3.87197"/>
</g>
<!-- 3&#45;&#45;4 -->
<g id="edge20" class="edge"><title>3&#45;&#45;4</title>
<path fill="none" stroke="black" d="M8.3039,-85.6238C20.3557,-89.6431 85.0311,-111.212 97.0519,-115.221"/>
</g>
<!-- 3&#45;&#45;5 -->
<g id="edge21" class="edge"><title>3&#45;&#45;5</title>
<path fill="none" stroke="black" d="M7.88237,-86.2784C16.2751,-93.489 57.0584,-128.528 65.8794,-136.107"/>
</g>
<!-- 3&#45;&#45;6 -->
<g id="edge22" class="edge"><title>3&#45;&#45;6</title>
<path fill="none" stroke="black" d="M7.87415,-86.196C13.6334,-90.8556 34.2407,-107.528 39.9226,-112.126"/>
</g>
<!-- 3&#45;&#45;8 -->
<g id="edge23" class="edge"><title>3&#45;&#45;8</title>
<path fill="none" stroke="black" d="M6.25674,-83.1277C5.63001,-72.8574 2.5845,-22.9505 1.92579,-12.1562"/>
</g>
<!-- 4&#45;&#45;5 -->
<g id="edge24" class="edge"><title>4&#45;&#45;5</title>
<path fill="none" stroke="black" d="M97.2866,-117.029C91.7816,-120.83 74.4063,-132.829 69.1109,-136.486"/>
</g>
<!-- 4&#45;&#45;6 -->
<g id="edge25" class="edge"><title>4&#45;&#45;6</title>
<path fill="none" stroke="black" d="M97.0592,-115.778C88.3151,-115.39 52.2457,-113.789 43.365,-113.395"/>
</g>
<!-- 5&#45;&#45;6 -->
<g id="edge26" class="edge"><title>5&#45;&#45;6</title>
<path fill="none" stroke="black" d="M66.1563,-136.25C61.6528,-132.08 47.6186,-119.082 42.9273,-114.737"/>
</g>
</g>
</svg>
