<?xml version="1.0" encoding="UTF-8" standalone="no"?>
<!DOCTYPE svg PUBLIC "-//W3C//DTD SVG 1.1//EN"
 "http://www.w3.org/Graphics/SVG/1.1/DTD/svg11.dtd">
<!-- Generated by graphviz version 2.36.0 (20140111.2315)
 -->
<!-- Title: %3 Pages: 1 -->
<svg width="160pt" height="182pt"
 viewBox="0.00 0.00 159.73 182.13" xmlns="http://www.w3.org/2000/svg" xmlns:xlink="http://www.w3.org/1999/xlink">
<g id="graph0" class="graph" transform="scale(1 1) rotate(0) translate(4 178.13)">
<title>%3</title>
<!-- 0 -->
<g id="node1" class="node"><title>0</title>
<ellipse fill="black" stroke="black" cx="58.9613" cy="-50.727" rx="1.8" ry="1.8"/>
</g>
<!-- 1 -->
<g id="node2" class="node"><title>1</title>
<ellipse fill="black" stroke="black" cx="89.1373" cy="-71.5248" rx="1.8" ry="1.8"/>
</g>
<!-- 0&#45;&#45;1 -->
<g id="edge1" class="edge"><title>0&#45;&#45;1</title>
<path fill="none" stroke="black" d="M60.5837,-51.8452C65.8722,-55.4901 82.5641,-66.9944 87.6511,-70.5006"/>
</g>
<!-- 2 -->
<g id="node3" class="node"><title>2</title>
<ellipse fill="black" stroke="black" cx="43.4266" cy="-117.221" rx="1.8" ry="1.8"/>
</g>
<!-- 0&#45;&#45;2 -->
<g id="edge2" class="edge"><title>0&#45;&#45;2</title>
<path fill="none" stroke="black" d="M58.5132,-52.6453C56.2447,-62.3553 46.0501,-105.992 43.8472,-115.421"/>
</g>
<!-- 3 -->
<g id="node4" class="node"><title>3</title>
<ellipse fill="black" stroke="black" cx="73.8841" cy="-141.92" rx="1.8" ry="1.8"/>
</g>
<!-- 0&#45;&#45;3 -->
<g id="edge3" class="edge"><title>0&#45;&#45;3</title>
<path fill="none" stroke="black" d="M59.273,-52.6317C61.2151,-64.4997 71.6371,-128.189 73.5741,-140.026"/>
</g>
<!-- 4 -->
<g id="node5" class="node"><title>4</title>
<ellipse fill="black" stroke="black" cx="124.528" cy="-98.197" rx="1.8" ry="1.8"/>
</g>
<!-- 0&#45;&#45;4 -->
<g id="edge4" class="edge"><title>0&#45;&#45;4</title>
<path fill="none" stroke="black" d="M60.5821,-51.9004C69.5744,-58.4109 113.272,-90.0476 122.723,-96.8903"/>
</g>
<!-- 5 -->
<g id="node6" class="node"><title>5</title>
<ellipse fill="black" stroke="black" cx="3.20116" cy="-93.1051" rx="1.8" ry="1.8"/>
</g>
<!-- 0&#45;&#45;5 -->
<g id="edge5" class="edge"><title>0&#45;&#45;5</title>
<path fill="none" stroke="black" d="M57.1061,-52.137C48.4891,-58.686 12.463,-86.066 4.68542,-91.9771"/>
</g>
<!-- 6 -->
<g id="node7" class="node"><title>6</title>
<ellipse fill="black" stroke="black" cx="97.637" cy="-1.8" rx="1.8" ry="1.8"/>
</g>
<!-- 0&#45;&#45;6 -->
<g id="edge6" class="edge"><title>0&#45;&#45;6</title>
<path fill="none" stroke="black" d="M60.2481,-49.0991C66.1201,-41.6707 90.3419,-11.0286 96.3056,-3.48418"/>
</g>
<!-- 8 -->
<g id="node8" class="node"><title>8</title>
<ellipse fill="black" stroke="black" cx="149.926" cy="-27.2182" rx="1.8" ry="1.8"/>
</g>
<!-- 0&#45;&#45;8 -->
<g id="edge7" class="edge"><title>0&#45;&#45;8</title>
<path fill="none" stroke="black" d="M60.8613,-50.236C72.6994,-47.1765 136.229,-30.7581 148.036,-27.7065"/>
</g>
<!-- 1&#45;&#45;2 -->
<g id="edge8" class="edge"><title>1&#45;&#45;2</title>
<path fill="none" stroke="black" d="M87.6164,-73.0452C80.6763,-79.9831 52.0486,-108.602 45.0001,-115.648"/>
</g>
<!-- 1&#45;&#45;3 -->
<g id="edge9" class="edge"><title>1&#45;&#45;3</title>
<path fill="none" stroke="black" d="M88.6972,-73.5557C86.4699,-83.8354 76.46,-130.032 74.297,-140.015"/>
</g>
<!-- 1&#45;&#45;4 -->
<g id="edge10" class="edge"><title>1&#45;&#45;4</title>
<path fill="none" stroke="black" d="M90.658,-72.6709C96.4793,-77.0582 117.309,-92.7565 123.052,-97.0849"/>
</g>
<!-- 1&#45;&#45;5 -->
<g id="edge11" class="edge"><title>1&#45;&#45;5</title>
<path fill="none" stroke="black" d="M87.3424,-71.9756C76.1586,-74.784 16.1412,-89.8556 4.98618,-92.6569"/>
</g>
<!-- 1&#45;&#45;6 -->
<g id="edge12" class="edge"><title>1&#45;&#45;6</title>
<path fill="none" stroke="black" d="M89.3825,-69.5133C90.6237,-59.3316 96.2015,-13.575 97.4069,-3.68753"/>
</g>
<!-- 1&#45;&#45;8 -->
<g id="edge13" class="edge"><title>1&#45;&#45;8</title>
<path fill="none" stroke="black" d="M90.6399,-70.4296C98.977,-64.353 139.49,-34.8245 148.253,-28.4379"/>
</g>
<!-- 2&#45;&#45;3 -->
<g id="edge14" class="edge"><title>2&#45;&#45;3</title>
<path fill="none" stroke="black" d="M45.0642,-118.549C50.402,-122.878 67.2496,-136.54 72.3841,-140.704"/>
</g>
<!-- 2&#45;&#45;4 -->
<g id="edge15" class="edge"><title>2&#45;&#45;4</title>
<path fill="none" stroke="black" d="M45.4314,-116.751C56.6519,-114.119 111.556,-101.24 122.593,-98.6508"/>
</g>
<!-- 2&#45;&#45;5 -->
<g id="edge16" class="edge"><title>2&#45;&#45;5</title>
<path fill="none" stroke="black" d="M41.6982,-116.185C35.0815,-112.218 11.4062,-98.0243 4.87839,-94.1107"/>
</g>
<!-- 7 -->
<g id="node9" class="node"><title>7</title>
<ellipse fill="black" stroke="black" cx="1.8" cy="-172.33" rx="1.8" ry="1.8"/>
</g>
<!-- 2&#45;&#45;7 -->
<g id="edge17" class="edge"><title>2&#45;&#45;7</title>
<path fill="none" stroke="black" d="M42.0416,-119.055C35.6088,-127.571 8.71426,-163.176 2.90804,-170.863"/>
</g>
<!-- 3&#45;&#45;4 -->
<g id="edge18" class="edge"><title>3&#45;&#45;4</title>
<path fill="none" stroke="black" d="M75.5691,-140.466C83.2581,-133.827 114.975,-106.444 122.784,-99.702"/>
</g>
<!-- 3&#45;&#45;5 -->
<g id="edge19" class="edge"><title>3&#45;&#45;5</title>
<path fill="none" stroke="black" d="M72.1369,-140.714C62.3578,-133.96 14.5063,-100.913 4.88732,-94.2696"/>
</g>
<!-- 3&#45;&#45;7 -->
<g id="edge20" class="edge"><title>3&#45;&#45;7</title>
<path fill="none" stroke="black" d="M72.1022,-142.672C62.1293,-146.879 13.3292,-167.466 3.51958,-171.604"/>
</g>
<!-- 4&#45;&#45;6 -->
<g id="edge21" class="edge"><title>4&#45;&#45;6</title>
<path fill="none" stroke="black" d="M123.966,-96.1836C120.466,-83.6384 101.686,-16.3152 98.1955,-3.80231"/>
</g>
<!-- 5&#45;&#45;7 -->
<g id="edge22" class="edge"><title>5&#45;&#45;7</title>
<path fill="none" stroke="black" d="M3.16652,-95.0635C2.97267,-106.024 2.0241,-159.658 1.83342,-170.44"/>
</g>
</g>
</svg>
