<?xml version="1.0" encoding="UTF-8" standalone="no"?>
<!DOCTYPE svg PUBLIC "-//W3C//DTD SVG 1.1//EN"
 "http://www.w3.org/Graphics/SVG/1.1/DTD/svg11.dtd">
<!-- Generated by graphviz version 2.36.0 (20140111.2315)
 -->
<!-- Title: %3 Pages: 1 -->
<svg width="194pt" height="151pt"
 viewBox="0.00 0.00 194.31 150.81" xmlns="http://www.w3.org/2000/svg" xmlns:xlink="http://www.w3.org/1999/xlink">
<g id="graph0" class="graph" transform="scale(1 1) rotate(0) translate(4 146.806)">
<title>%3</title>
<!-- 0 -->
<g id="node1" class="node"><title>0</title>
<ellipse fill="black" stroke="black" cx="91.8241" cy="-87.0845" rx="1.8" ry="1.8"/>
</g>
<!-- 1 -->
<g id="node2" class="node"><title>1</title>
<ellipse fill="black" stroke="black" cx="55.5782" cy="-59.6732" rx="1.8" ry="1.8"/>
</g>
<!-- 0&#45;&#45;1 -->
<g id="edge1" class="edge"><title>0&#45;&#45;1</title>
<path fill="none" stroke="black" d="M90.2667,-85.9066C84.3046,-81.3978 62.9715,-65.2644 57.0895,-60.8161"/>
</g>
<!-- 2 -->
<g id="node3" class="node"><title>2</title>
<ellipse fill="black" stroke="black" cx="132.691" cy="-60.1222" rx="1.8" ry="1.8"/>
</g>
<!-- 0&#45;&#45;2 -->
<g id="edge2" class="edge"><title>0&#45;&#45;2</title>
<path fill="none" stroke="black" d="M93.5801,-85.9259C100.302,-81.4909 124.355,-65.6218 130.987,-61.2464"/>
</g>
<!-- 3 -->
<g id="node4" class="node"><title>3</title>
<ellipse fill="black" stroke="black" cx="157.594" cy="-131.867" rx="1.8" ry="1.8"/>
</g>
<!-- 0&#45;&#45;3 -->
<g id="edge3" class="edge"><title>0&#45;&#45;3</title>
<path fill="none" stroke="black" d="M93.4499,-88.1915C102.47,-94.3334 146.303,-124.179 155.783,-130.634"/>
</g>
<!-- 4 -->
<g id="node5" class="node"><title>4</title>
<ellipse fill="black" stroke="black" cx="98.662" cy="-141.006" rx="1.8" ry="1.8"/>
</g>
<!-- 0&#45;&#45;4 -->
<g id="edge4" class="edge"><title>0&#45;&#45;4</title>
<path fill="none" stroke="black" d="M92.0516,-88.8786C93.0898,-97.0653 97.3723,-130.836 98.4267,-139.15"/>
</g>
<!-- 5 -->
<g id="node6" class="node"><title>5</title>
<ellipse fill="black" stroke="black" cx="20.6521" cy="-126.704" rx="1.8" ry="1.8"/>
</g>
<!-- 0&#45;&#45;5 -->
<g id="edge5" class="edge"><title>0&#45;&#45;5</title>
<path fill="none" stroke="black" d="M90.0648,-88.0638C80.218,-93.5453 32.0354,-120.367 22.3499,-125.759"/>
</g>
<!-- 6 -->
<g id="node7" class="node"><title>6</title>
<ellipse fill="black" stroke="black" cx="94.6676" cy="-1.8" rx="1.8" ry="1.8"/>
</g>
<!-- 0&#45;&#45;6 -->
<g id="edge6" class="edge"><title>0&#45;&#45;6</title>
<path fill="none" stroke="black" d="M91.8944,-84.9763C92.2878,-73.177 94.2128,-15.4405 94.5998,-3.83448"/>
</g>
<!-- 7 -->
<g id="node8" class="node"><title>7</title>
<ellipse fill="black" stroke="black" cx="184.506" cy="-76.2757" rx="1.8" ry="1.8"/>
</g>
<!-- 0&#45;&#45;7 -->
<g id="edge7" class="edge"><title>0&#45;&#45;7</title>
<path fill="none" stroke="black" d="M93.7599,-86.8587C105.822,-85.4521 170.55,-77.9032 182.58,-76.5002"/>
</g>
<!-- 8 -->
<g id="node9" class="node"><title>8</title>
<ellipse fill="black" stroke="black" cx="1.8" cy="-69.3779" rx="1.8" ry="1.8"/>
</g>
<!-- 0&#45;&#45;8 -->
<g id="edge8" class="edge"><title>0&#45;&#45;8</title>
<path fill="none" stroke="black" d="M89.9439,-86.7146C78.2281,-84.4103 15.3556,-72.0441 3.66994,-69.7457"/>
</g>
<!-- 1&#45;&#45;2 -->
<g id="edge9" class="edge"><title>1&#45;&#45;2</title>
<path fill="none" stroke="black" d="M57.4843,-59.6843C68.153,-59.7464 120.357,-60.0503 130.851,-60.1114"/>
</g>
<!-- 1&#45;&#45;4 -->
<g id="edge10" class="edge"><title>1&#45;&#45;4</title>
<path fill="none" stroke="black" d="M56.478,-61.3719C62.085,-71.9567 92.1746,-128.76 97.7671,-139.317"/>
</g>
<!-- 1&#45;&#45;5 -->
<g id="edge11" class="edge"><title>1&#45;&#45;5</title>
<path fill="none" stroke="black" d="M54.7148,-61.3301C49.9248,-70.5234 26.648,-115.197 21.6135,-124.859"/>
</g>
<!-- 1&#45;&#45;6 -->
<g id="edge12" class="edge"><title>1&#45;&#45;6</title>
<path fill="none" stroke="black" d="M56.8787,-57.7476C62.9195,-48.8041 88.1748,-11.4128 93.6271,-3.34051"/>
</g>
<!-- 1&#45;&#45;8 -->
<g id="edge13" class="edge"><title>1&#45;&#45;8</title>
<path fill="none" stroke="black" d="M53.7889,-59.9961C45.624,-61.4695 11.9437,-67.5474 3.65117,-69.0439"/>
</g>
<!-- 2&#45;&#45;3 -->
<g id="edge14" class="edge"><title>2&#45;&#45;3</title>
<path fill="none" stroke="black" d="M133.307,-61.8956C136.752,-71.8217 153.611,-120.392 157,-130.156"/>
</g>
<!-- 2&#45;&#45;4 -->
<g id="edge15" class="edge"><title>2&#45;&#45;4</title>
<path fill="none" stroke="black" d="M131.98,-61.8115C127.552,-72.3379 103.786,-128.827 99.3689,-139.326"/>
</g>
<!-- 2&#45;&#45;6 -->
<g id="edge16" class="edge"><title>2&#45;&#45;6</title>
<path fill="none" stroke="black" d="M131.426,-58.1817C125.55,-49.1687 100.983,-11.4874 95.6797,-3.35246"/>
</g>
<!-- 2&#45;&#45;7 -->
<g id="edge17" class="edge"><title>2&#45;&#45;7</title>
<path fill="none" stroke="black" d="M134.415,-60.6596C142.282,-63.1121 174.732,-73.2288 182.722,-75.7197"/>
</g>
<!-- 3&#45;&#45;4 -->
<g id="edge18" class="edge"><title>3&#45;&#45;4</title>
<path fill="none" stroke="black" d="M155.633,-132.171C146.686,-133.559 109.778,-139.283 100.691,-140.692"/>
</g>
<!-- 3&#45;&#45;7 -->
<g id="edge19" class="edge"><title>3&#45;&#45;7</title>
<path fill="none" stroke="black" d="M158.489,-130.018C162.575,-121.577 179.429,-86.7614 183.579,-78.1893"/>
</g>
<!-- 5&#45;&#45;8 -->
<g id="edge20" class="edge"><title>5&#45;&#45;8</title>
<path fill="none" stroke="black" d="M20.0249,-124.797C17.1626,-116.093 5.35589,-80.1909 2.44893,-71.3512"/>
</g>
</g>
</svg>
