<?xml version="1.0" encoding="UTF-8" standalone="no"?>
<!DOCTYPE svg PUBLIC "-//W3C//DTD SVG 1.1//EN"
 "http://www.w3.org/Graphics/SVG/1.1/DTD/svg11.dtd">
<!-- Generated by graphviz version 2.36.0 (20140111.2315)
 -->
<!-- Title: %3 Pages: 1 -->
<svg width="147pt" height="204pt"
 viewBox="0.00 0.00 146.97 203.66" xmlns="http://www.w3.org/2000/svg" xmlns:xlink="http://www.w3.org/1999/xlink">
<g id="graph0" class="graph" transform="scale(1 1) rotate(0) translate(4 199.662)">
<title>%3</title>
<!-- 0 -->
<g id="node1" class="node"><title>0</title>
<ellipse fill="black" stroke="black" cx="52.3802" cy="-132.763" rx="1.8" ry="1.8"/>
</g>
<!-- 1 -->
<g id="node2" class="node"><title>1</title>
<ellipse fill="black" stroke="black" cx="88.6668" cy="-52.9789" rx="1.8" ry="1.8"/>
</g>
<!-- 0&#45;&#45;1 -->
<g id="edge1" class="edge"><title>0&#45;&#45;1</title>
<path fill="none" stroke="black" d="M53.1381,-131.097C57.8604,-120.714 83.2028,-64.9925 87.913,-54.6361"/>
</g>
<!-- 2 -->
<g id="node3" class="node"><title>2</title>
<ellipse fill="black" stroke="black" cx="129.215" cy="-108.748" rx="1.8" ry="1.8"/>
</g>
<!-- 0&#45;&#45;2 -->
<g id="edge2" class="edge"><title>0&#45;&#45;2</title>
<path fill="none" stroke="black" d="M54.2795,-132.169C64.9097,-128.847 116.926,-112.589 127.382,-109.32"/>
</g>
<!-- 3 -->
<g id="node4" class="node"><title>3</title>
<ellipse fill="black" stroke="black" cx="96.7104" cy="-130.794" rx="1.8" ry="1.8"/>
</g>
<!-- 0&#45;&#45;3 -->
<g id="edge3" class="edge"><title>0&#45;&#45;3</title>
<path fill="none" stroke="black" d="M54.285,-132.679C61.5769,-132.355 87.6681,-131.196 94.862,-130.877"/>
</g>
<!-- 4 -->
<g id="node5" class="node"><title>4</title>
<ellipse fill="black" stroke="black" cx="53.3643" cy="-73.5957" rx="1.8" ry="1.8"/>
</g>
<!-- 0&#45;&#45;4 -->
<g id="edge4" class="edge"><title>0&#45;&#45;4</title>
<path fill="none" stroke="black" d="M52.4129,-130.794C52.5623,-121.811 53.1787,-84.7559 53.3304,-75.6324"/>
</g>
<!-- 5 -->
<g id="node6" class="node"><title>5</title>
<ellipse fill="black" stroke="black" cx="82.4727" cy="-193.862" rx="1.8" ry="1.8"/>
</g>
<!-- 0&#45;&#45;5 -->
<g id="edge5" class="edge"><title>0&#45;&#45;5</title>
<path fill="none" stroke="black" d="M53.2483,-134.526C57.6427,-143.448 77.3907,-183.544 81.6581,-192.208"/>
</g>
<!-- 6 -->
<g id="node7" class="node"><title>6</title>
<ellipse fill="black" stroke="black" cx="1.8" cy="-69.1842" rx="1.8" ry="1.8"/>
</g>
<!-- 0&#45;&#45;6 -->
<g id="edge6" class="edge"><title>0&#45;&#45;6</title>
<path fill="none" stroke="black" d="M51.1299,-131.191C44.1929,-122.472 10.4833,-80.0991 3.19233,-70.9344"/>
</g>
<!-- 7 -->
<g id="node8" class="node"><title>7</title>
<ellipse fill="black" stroke="black" cx="137.169" cy="-175.635" rx="1.8" ry="1.8"/>
</g>
<!-- 0&#45;&#45;7 -->
<g id="edge7" class="edge"><title>0&#45;&#45;7</title>
<path fill="none" stroke="black" d="M54.1511,-133.659C65.1856,-139.238 124.402,-169.18 135.408,-174.745"/>
</g>
<!-- 1&#45;&#45;2 -->
<g id="edge8" class="edge"><title>1&#45;&#45;2</title>
<path fill="none" stroke="black" d="M90.0159,-54.8344C96.282,-63.4527 122.48,-99.4842 128.135,-107.263"/>
</g>
<!-- 1&#45;&#45;3 -->
<g id="edge9" class="edge"><title>1&#45;&#45;3</title>
<path fill="none" stroke="black" d="M88.8656,-54.9024C89.9784,-65.6683 95.4239,-118.349 96.5185,-128.938"/>
</g>
<!-- 1&#45;&#45;4 -->
<g id="edge10" class="edge"><title>1&#45;&#45;4</title>
<path fill="none" stroke="black" d="M86.7687,-54.0873C80.5818,-57.7005 61.0542,-69.1048 55.1029,-72.5804"/>
</g>
<!-- 1&#45;&#45;6 -->
<g id="edge11" class="edge"><title>1&#45;&#45;6</title>
<path fill="none" stroke="black" d="M86.8524,-53.3173C75.5475,-55.4263 14.8801,-66.7441 3.60435,-68.8476"/>
</g>
<!-- 8 -->
<g id="node9" class="node"><title>8</title>
<ellipse fill="black" stroke="black" cx="34.1182" cy="-1.8" rx="1.8" ry="1.8"/>
</g>
<!-- 1&#45;&#45;8 -->
<g id="edge12" class="edge"><title>1&#45;&#45;8</title>
<path fill="none" stroke="black" d="M87.3184,-51.7138C79.8371,-44.6946 43.4828,-10.5861 35.6197,-3.20881"/>
</g>
<!-- 2&#45;&#45;3 -->
<g id="edge13" class="edge"><title>2&#45;&#45;3</title>
<path fill="none" stroke="black" d="M127.467,-109.933C121.771,-113.797 103.791,-125.992 98.3112,-129.709"/>
</g>
<!-- 2&#45;&#45;4 -->
<g id="edge14" class="edge"><title>2&#45;&#45;4</title>
<path fill="none" stroke="black" d="M127.34,-107.879C116.846,-103.015 65.4959,-79.2179 55.1737,-74.4343"/>
</g>
<!-- 2&#45;&#45;5 -->
<g id="edge15" class="edge"><title>2&#45;&#45;5</title>
<path fill="none" stroke="black" d="M128.238,-110.525C122.155,-121.602 89.511,-181.046 83.4436,-192.094"/>
</g>
<!-- 2&#45;&#45;7 -->
<g id="edge16" class="edge"><title>2&#45;&#45;7</title>
<path fill="none" stroke="black" d="M129.444,-110.677C130.606,-120.445 135.826,-164.339 136.954,-173.825"/>
</g>
<!-- 3&#45;&#45;4 -->
<g id="edge17" class="edge"><title>3&#45;&#45;4</title>
<path fill="none" stroke="black" d="M95.2682,-128.891C88.5696,-120.052 60.5642,-83.0965 54.5181,-75.1183"/>
</g>
<!-- 3&#45;&#45;5 -->
<g id="edge18" class="edge"><title>3&#45;&#45;5</title>
<path fill="none" stroke="black" d="M96.2996,-132.614C94.257,-141.662 85.2027,-181.769 82.9711,-191.655"/>
</g>
<!-- 3&#45;&#45;7 -->
<g id="edge19" class="edge"><title>3&#45;&#45;7</title>
<path fill="none" stroke="black" d="M98.0565,-132.286C104.199,-139.094 129.538,-167.177 135.776,-174.092"/>
</g>
<!-- 4&#45;&#45;6 -->
<g id="edge20" class="edge"><title>4&#45;&#45;6</title>
<path fill="none" stroke="black" d="M51.1486,-73.4062C42.6668,-72.6805 12.3179,-70.0841 3.95,-69.3682"/>
</g>
<!-- 4&#45;&#45;8 -->
<g id="edge21" class="edge"><title>4&#45;&#45;8</title>
<path fill="none" stroke="black" d="M52.8885,-71.821C50.2489,-61.9743 37.4222,-14.1255 34.648,-3.77634"/>
</g>
<!-- 5&#45;&#45;7 -->
<g id="edge22" class="edge"><title>5&#45;&#45;7</title>
<path fill="none" stroke="black" d="M84.2925,-193.256C92.5968,-190.489 126.852,-179.073 135.286,-176.263"/>
</g>
<!-- 6&#45;&#45;8 -->
<g id="edge23" class="edge"><title>6&#45;&#45;8</title>
<path fill="none" stroke="black" d="M2.59888,-67.5186C7.03128,-58.2769 28.57,-13.3681 33.2285,-3.6549"/>
</g>
</g>
</svg>
