<?xml version="1.0" encoding="UTF-8" standalone="no"?>
<!DOCTYPE svg PUBLIC "-//W3C//DTD SVG 1.1//EN"
 "http://www.w3.org/Graphics/SVG/1.1/DTD/svg11.dtd">
<!-- Generated by graphviz version 2.36.0 (20140111.2315)
 -->
<!-- Title: %3 Pages: 1 -->
<svg width="113pt" height="127pt"
 viewBox="0.00 0.00 112.99 127.02" xmlns="http://www.w3.org/2000/svg" xmlns:xlink="http://www.w3.org/1999/xlink">
<g id="graph0" class="graph" transform="scale(1 1) rotate(0) translate(4 123.024)">
<title>%3</title>
<!-- 0 -->
<g id="node1" class="node"><title>0</title>
<ellipse fill="black" stroke="black" cx="11.6337" cy="-72.3056" rx="1.8" ry="1.8"/>
</g>
<!-- 1 -->
<g id="node2" class="node"><title>1</title>
<ellipse fill="black" stroke="black" cx="103.186" cy="-54.5716" rx="1.8" ry="1.8"/>
</g>
<!-- 0&#45;&#45;1 -->
<g id="edge1" class="edge"><title>0&#45;&#45;1</title>
<path fill="none" stroke="black" d="M13.5459,-71.9352C25.4606,-69.6273 89.4003,-57.2419 101.284,-54.94"/>
</g>
<!-- 2 -->
<g id="node3" class="node"><title>2</title>
<ellipse fill="black" stroke="black" cx="55.9872" cy="-52.9939" rx="1.8" ry="1.8"/>
</g>
<!-- 0&#45;&#45;2 -->
<g id="edge2" class="edge"><title>0&#45;&#45;2</title>
<path fill="none" stroke="black" d="M13.5395,-71.4758C20.8352,-68.2992 46.9401,-56.9331 54.1378,-53.7991"/>
</g>
<!-- 3 -->
<g id="node4" class="node"><title>3</title>
<ellipse fill="black" stroke="black" cx="1.8" cy="-113.895" rx="1.8" ry="1.8"/>
</g>
<!-- 0&#45;&#45;3 -->
<g id="edge3" class="edge"><title>0&#45;&#45;3</title>
<path fill="none" stroke="black" d="M11.2112,-74.0927C9.62305,-80.8094 4.01494,-104.528 2.30118,-111.776"/>
</g>
<!-- 4 -->
<g id="node5" class="node"><title>4</title>
<ellipse fill="black" stroke="black" cx="53.2953" cy="-117.224" rx="1.8" ry="1.8"/>
</g>
<!-- 0&#45;&#45;4 -->
<g id="edge4" class="edge"><title>0&#45;&#45;4</title>
<path fill="none" stroke="black" d="M13.0199,-73.8001C19.3452,-80.62 45.4371,-108.752 51.8612,-115.678"/>
</g>
<!-- 5 -->
<g id="node6" class="node"><title>5</title>
<ellipse fill="black" stroke="black" cx="93.081" cy="-101.634" rx="1.8" ry="1.8"/>
</g>
<!-- 0&#45;&#45;5 -->
<g id="edge5" class="edge"><title>0&#45;&#45;5</title>
<path fill="none" stroke="black" d="M13.3349,-72.9182C23.8431,-76.7021 79.8396,-96.866 91.1055,-100.923"/>
</g>
<!-- 6 -->
<g id="node7" class="node"><title>6</title>
<ellipse fill="black" stroke="black" cx="25.3852" cy="-24.2305" rx="1.8" ry="1.8"/>
</g>
<!-- 0&#45;&#45;6 -->
<g id="edge6" class="edge"><title>0&#45;&#45;6</title>
<path fill="none" stroke="black" d="M12.2246,-70.2399C14.4866,-62.332 22.5802,-34.0367 24.8118,-26.235"/>
</g>
<!-- 1&#45;&#45;2 -->
<g id="edge7" class="edge"><title>1&#45;&#45;2</title>
<path fill="none" stroke="black" d="M101.158,-54.5038C93.3941,-54.2443 65.6146,-53.3157 57.9552,-53.0597"/>
</g>
<!-- 1&#45;&#45;4 -->
<g id="edge8" class="edge"><title>1&#45;&#45;4</title>
<path fill="none" stroke="black" d="M101.953,-56.1203C95.1102,-64.7131 61.8602,-106.468 54.6687,-115.5"/>
</g>
<!-- 1&#45;&#45;5 -->
<g id="edge9" class="edge"><title>1&#45;&#45;5</title>
<path fill="none" stroke="black" d="M102.752,-56.5938C101.09,-64.3351 95.1422,-92.0345 93.5023,-99.6718"/>
</g>
<!-- 1&#45;&#45;6 -->
<g id="edge10" class="edge"><title>1&#45;&#45;6</title>
<path fill="none" stroke="black" d="M101.263,-53.8216C90.4988,-49.6238 37.8287,-29.0833 27.2411,-24.9543"/>
</g>
<!-- 7 -->
<g id="node8" class="node"><title>7</title>
<ellipse fill="black" stroke="black" cx="100.946" cy="-1.8" rx="1.8" ry="1.8"/>
</g>
<!-- 1&#45;&#45;7 -->
<g id="edge11" class="edge"><title>1&#45;&#45;7</title>
<path fill="none" stroke="black" d="M103.09,-52.3041C102.721,-43.6237 101.403,-12.5642 101.039,-4.00034"/>
</g>
<!-- 2&#45;&#45;3 -->
<g id="edge12" class="edge"><title>2&#45;&#45;3</title>
<path fill="none" stroke="black" d="M54.6477,-54.4994C47.216,-62.8519 11.1025,-103.44 3.29162,-112.219"/>
</g>
<!-- 2&#45;&#45;4 -->
<g id="edge13" class="edge"><title>2&#45;&#45;4</title>
<path fill="none" stroke="black" d="M55.9095,-54.847C55.5233,-64.0618 53.8115,-104.908 53.3895,-114.976"/>
</g>
<!-- 2&#45;&#45;5 -->
<g id="edge14" class="edge"><title>2&#45;&#45;5</title>
<path fill="none" stroke="black" d="M57.2214,-54.6123C62.8532,-61.9971 86.0843,-92.4596 91.8041,-99.9598"/>
</g>
<!-- 2&#45;&#45;7 -->
<g id="edge15" class="edge"><title>2&#45;&#45;7</title>
<path fill="none" stroke="black" d="M57.483,-51.2906C64.4308,-43.3793 93.4781,-10.3034 99.7491,-3.16271"/>
</g>
<!-- 3&#45;&#45;4 -->
<g id="edge16" class="edge"><title>3&#45;&#45;4</title>
<path fill="none" stroke="black" d="M4.01269,-114.038C12.4831,-114.586 42.7915,-116.545 51.1482,-117.086"/>
</g>
<!-- 3&#45;&#45;5 -->
<g id="edge17" class="edge"><title>3&#45;&#45;5</title>
<path fill="none" stroke="black" d="M3.70653,-113.639C15.5859,-112.044 79.3362,-103.48 91.1849,-101.889"/>
</g>
<!-- 3&#45;&#45;6 -->
<g id="edge18" class="edge"><title>3&#45;&#45;6</title>
<path fill="none" stroke="black" d="M2.29261,-112.023C5.36199,-100.354 21.8338,-37.7319 24.8953,-26.0929"/>
</g>
<!-- 4&#45;&#45;6 -->
<g id="edge19" class="edge"><title>4&#45;&#45;6</title>
<path fill="none" stroke="black" d="M52.7124,-115.282C49.0801,-103.18 29.5878,-38.2332 25.9649,-26.1621"/>
</g>
<!-- 5&#45;&#45;7 -->
<g id="edge20" class="edge"><title>5&#45;&#45;7</title>
<path fill="none" stroke="black" d="M93.2453,-99.5489C94.2688,-86.5565 99.7616,-16.8327 100.782,-3.8737"/>
</g>
<!-- 6&#45;&#45;7 -->
<g id="edge21" class="edge"><title>6&#45;&#45;7</title>
<path fill="none" stroke="black" d="M27.253,-23.676C37.7069,-20.5727 88.8606,-5.38756 99.1433,-2.33508"/>
</g>
</g>
</svg>
