<?xml version="1.0" encoding="UTF-8" standalone="no"?>
<!DOCTYPE svg PUBLIC "-//W3C//DTD SVG 1.1//EN"
 "http://www.w3.org/Graphics/SVG/1.1/DTD/svg11.dtd">
<!-- Generated by graphviz version 2.36.0 (20140111.2315)
 -->
<!-- Title: %3 Pages: 1 -->
<svg width="180pt" height="150pt"
 viewBox="0.00 0.00 179.69 150.34" xmlns="http://www.w3.org/2000/svg" xmlns:xlink="http://www.w3.org/1999/xlink">
<g id="graph0" class="graph" transform="scale(1 1) rotate(0) translate(4 146.344)">
<title>%3</title>
<!-- 0 -->
<g id="node1" class="node"><title>0</title>
<ellipse fill="black" stroke="black" cx="86.2241" cy="-86.4844" rx="1.8" ry="1.8"/>
</g>
<!-- 1 -->
<g id="node2" class="node"><title>1</title>
<ellipse fill="black" stroke="black" cx="39.8612" cy="-68.473" rx="1.8" ry="1.8"/>
</g>
<!-- 0&#45;&#45;1 -->
<g id="edge1" class="edge"><title>0&#45;&#45;1</title>
<path fill="none" stroke="black" d="M84.232,-85.7105C76.6058,-82.7478 49.3182,-72.1469 41.7944,-69.224"/>
</g>
<!-- 2 -->
<g id="node3" class="node"><title>2</title>
<ellipse fill="black" stroke="black" cx="104.193" cy="-133.699" rx="1.8" ry="1.8"/>
</g>
<!-- 0&#45;&#45;2 -->
<g id="edge2" class="edge"><title>0&#45;&#45;2</title>
<path fill="none" stroke="black" d="M86.9963,-88.5132C89.952,-96.2795 100.528,-124.068 103.444,-131.73"/>
</g>
<!-- 3 -->
<g id="node4" class="node"><title>3</title>
<ellipse fill="black" stroke="black" cx="121.251" cy="-63.1019" rx="1.8" ry="1.8"/>
</g>
<!-- 0&#45;&#45;3 -->
<g id="edge3" class="edge"><title>0&#45;&#45;3</title>
<path fill="none" stroke="black" d="M87.7292,-85.4797C93.386,-81.7034 113.362,-68.3685 119.466,-64.2936"/>
</g>
<!-- 4 -->
<g id="node5" class="node"><title>4</title>
<ellipse fill="black" stroke="black" cx="60.4177" cy="-140.544" rx="1.8" ry="1.8"/>
</g>
<!-- 0&#45;&#45;4 -->
<g id="edge4" class="edge"><title>0&#45;&#45;4</title>
<path fill="none" stroke="black" d="M85.3655,-88.2831C81.4474,-96.4906 65.2853,-130.347 61.306,-138.683"/>
</g>
<!-- 5 -->
<g id="node6" class="node"><title>5</title>
<ellipse fill="black" stroke="black" cx="14.9023" cy="-131.054" rx="1.8" ry="1.8"/>
</g>
<!-- 0&#45;&#45;5 -->
<g id="edge5" class="edge"><title>0&#45;&#45;5</title>
<path fill="none" stroke="black" d="M84.4611,-87.5862C74.5936,-93.7525 26.3096,-123.926 16.6037,-129.991"/>
</g>
<!-- 6 -->
<g id="node7" class="node"><title>6</title>
<ellipse fill="black" stroke="black" cx="75.1884" cy="-6.85154" rx="1.8" ry="1.8"/>
</g>
<!-- 0&#45;&#45;6 -->
<g id="edge6" class="edge"><title>0&#45;&#45;6</title>
<path fill="none" stroke="black" d="M85.9513,-84.516C84.4245,-73.4986 76.9535,-19.5881 75.4517,-8.7512"/>
</g>
<!-- 7 -->
<g id="node8" class="node"><title>7</title>
<ellipse fill="black" stroke="black" cx="169.887" cy="-108.439" rx="1.8" ry="1.8"/>
</g>
<!-- 0&#45;&#45;7 -->
<g id="edge7" class="edge"><title>0&#45;&#45;7</title>
<path fill="none" stroke="black" d="M87.9716,-86.943C98.7657,-89.7755 156.286,-104.87 167.858,-107.906"/>
</g>
<!-- 1&#45;&#45;2 -->
<g id="edge8" class="edge"><title>1&#45;&#45;2</title>
<path fill="none" stroke="black" d="M41.4515,-70.0854C50.4293,-79.188 94.664,-124.037 102.879,-132.367"/>
</g>
<!-- 1&#45;&#45;3 -->
<g id="edge9" class="edge"><title>1&#45;&#45;3</title>
<path fill="none" stroke="black" d="M41.8731,-68.3403C53.1336,-67.5972 108.234,-63.961 119.31,-63.23"/>
</g>
<!-- 1&#45;&#45;4 -->
<g id="edge10" class="edge"><title>1&#45;&#45;4</title>
<path fill="none" stroke="black" d="M40.3694,-70.2546C43.1887,-80.139 56.8887,-128.171 59.8518,-138.56"/>
</g>
<!-- 1&#45;&#45;5 -->
<g id="edge11" class="edge"><title>1&#45;&#45;5</title>
<path fill="none" stroke="black" d="M39.1412,-70.2785C35.4965,-79.4171 19.1173,-120.486 15.578,-129.36"/>
</g>
<!-- 1&#45;&#45;6 -->
<g id="edge12" class="edge"><title>1&#45;&#45;6</title>
<path fill="none" stroke="black" d="M40.8804,-66.6953C46.0391,-57.6969 69.2224,-17.2581 74.2321,-8.51971"/>
</g>
<!-- 8 -->
<g id="node9" class="node"><title>8</title>
<ellipse fill="black" stroke="black" cx="1.8" cy="-1.8" rx="1.8" ry="1.8"/>
</g>
<!-- 1&#45;&#45;8 -->
<g id="edge13" class="edge"><title>1&#45;&#45;8</title>
<path fill="none" stroke="black" d="M38.9204,-66.8249C33.7003,-57.6808 8.33413,-13.246 2.84772,-3.63533"/>
</g>
<!-- 2&#45;&#45;3 -->
<g id="edge14" class="edge"><title>2&#45;&#45;3</title>
<path fill="none" stroke="black" d="M104.685,-131.662C107.176,-121.353 118.37,-75.0242 120.789,-65.013"/>
</g>
<!-- 2&#45;&#45;4 -->
<g id="edge15" class="edge"><title>2&#45;&#45;4</title>
<path fill="none" stroke="black" d="M102.312,-133.993C95.1117,-135.119 69.3469,-139.147 62.243,-140.258"/>
</g>
<!-- 2&#45;&#45;5 -->
<g id="edge16" class="edge"><title>2&#45;&#45;5</title>
<path fill="none" stroke="black" d="M102.328,-133.644C90.708,-133.3 28.3475,-131.453 16.757,-131.109"/>
</g>
<!-- 2&#45;&#45;7 -->
<g id="edge17" class="edge"><title>2&#45;&#45;7</title>
<path fill="none" stroke="black" d="M106.089,-132.97C115.682,-129.282 158.793,-112.705 168.109,-109.123"/>
</g>
<!-- 3&#45;&#45;4 -->
<g id="edge18" class="edge"><title>3&#45;&#45;4</title>
<path fill="none" stroke="black" d="M119.981,-64.7194C112.064,-74.7977 69.5778,-128.883 61.6813,-138.935"/>
</g>
<!-- 3&#45;&#45;6 -->
<g id="edge19" class="edge"><title>3&#45;&#45;6</title>
<path fill="none" stroke="black" d="M119.719,-61.2303C112.6,-52.5376 82.8395,-16.1948 76.4145,-8.34885"/>
</g>
<!-- 3&#45;&#45;7 -->
<g id="edge20" class="edge"><title>3&#45;&#45;7</title>
<path fill="none" stroke="black" d="M122.869,-64.6103C130.254,-71.4937 160.714,-99.8874 168.213,-106.878"/>
</g>
<!-- 4&#45;&#45;5 -->
<g id="edge21" class="edge"><title>4&#45;&#45;5</title>
<path fill="none" stroke="black" d="M58.462,-140.136C50.9752,-138.575 24.1864,-132.99 16.8001,-131.45"/>
</g>
<!-- 6&#45;&#45;8 -->
<g id="edge22" class="edge"><title>6&#45;&#45;8</title>
<path fill="none" stroke="black" d="M73.3743,-6.72667C63.3092,-6.03386 14.3989,-2.66722 3.82018,-1.93905"/>
</g>
</g>
</svg>
