<?xml version="1.0" encoding="UTF-8" standalone="no"?>
<!DOCTYPE svg PUBLIC "-//W3C//DTD SVG 1.1//EN"
 "http://www.w3.org/Graphics/SVG/1.1/DTD/svg11.dtd">
<!-- Generated by graphviz version 2.36.0 (20140111.2315)
 -->
<!-- Title: %3 Pages: 1 -->
<svg width="162pt" height="175pt"
 viewBox="0.00 0.00 162.35 174.52" xmlns="http://www.w3.org/2000/svg" xmlns:xlink="http://www.w3.org/1999/xlink">
<g id="graph0" class="graph" transform="scale(1 1) rotate(0) translate(4 170.518)">
<title>%3</title>
<!-- 0 -->
<g id="node1" class="node"><title>0</title>
<ellipse fill="black" stroke="black" cx="77.8404" cy="-77.0151" rx="1.8" ry="1.8"/>
</g>
<!-- 1 -->
<g id="node2" class="node"><title>1</title>
<ellipse fill="black" stroke="black" cx="76.0221" cy="-40.5375" rx="1.8" ry="1.8"/>
</g>
<!-- 0&#45;&#45;1 -->
<g id="edge1" class="edge"><title>0&#45;&#45;1</title>
<path fill="none" stroke="black" d="M77.7426,-75.0539C77.4298,-68.7794 76.4552,-49.226 76.1294,-42.6899"/>
</g>
<!-- 2 -->
<g id="node3" class="node"><title>2</title>
<ellipse fill="black" stroke="black" cx="40.0177" cy="-121.11" rx="1.8" ry="1.8"/>
</g>
<!-- 0&#45;&#45;2 -->
<g id="edge2" class="edge"><title>0&#45;&#45;2</title>
<path fill="none" stroke="black" d="M76.5819,-78.4822C70.8395,-85.1769 47.1518,-112.793 41.3196,-119.592"/>
</g>
<!-- 3 -->
<g id="node4" class="node"><title>3</title>
<ellipse fill="black" stroke="black" cx="120.446" cy="-116.418" rx="1.8" ry="1.8"/>
</g>
<!-- 0&#45;&#45;3 -->
<g id="edge3" class="edge"><title>0&#45;&#45;3</title>
<path fill="none" stroke="black" d="M79.2579,-78.3261C85.7265,-84.3085 112.41,-108.986 118.979,-115.062"/>
</g>
<!-- 4 -->
<g id="node5" class="node"><title>4</title>
<ellipse fill="black" stroke="black" cx="152.554" cy="-57.9772" rx="1.8" ry="1.8"/>
</g>
<!-- 0&#45;&#45;4 -->
<g id="edge4" class="edge"><title>0&#45;&#45;4</title>
<path fill="none" stroke="black" d="M79.6872,-76.5445C90.024,-73.9106 140.604,-61.0222 150.772,-58.4314"/>
</g>
<!-- 5 -->
<g id="node6" class="node"><title>5</title>
<ellipse fill="black" stroke="black" cx="1.8" cy="-66.0217" rx="1.8" ry="1.8"/>
</g>
<!-- 0&#45;&#45;5 -->
<g id="edge5" class="edge"><title>0&#45;&#45;5</title>
<path fill="none" stroke="black" d="M75.9607,-76.7433C65.4404,-75.2224 13.962,-67.78 3.61396,-66.2839"/>
</g>
<!-- 6 -->
<g id="node7" class="node"><title>6</title>
<ellipse fill="black" stroke="black" cx="20.7802" cy="-7.31485" rx="1.8" ry="1.8"/>
</g>
<!-- 0&#45;&#45;6 -->
<g id="edge6" class="edge"><title>0&#45;&#45;6</title>
<path fill="none" stroke="black" d="M76.6486,-75.5593C69.2227,-66.4885 29.3722,-17.8101 21.9654,-8.76263"/>
</g>
<!-- 7 -->
<g id="node8" class="node"><title>7</title>
<ellipse fill="black" stroke="black" cx="83.2611" cy="-164.718" rx="1.8" ry="1.8"/>
</g>
<!-- 0&#45;&#45;7 -->
<g id="edge7" class="edge"><title>0&#45;&#45;7</title>
<path fill="none" stroke="black" d="M77.9536,-78.8469C78.659,-90.2606 82.4448,-151.512 83.1485,-162.897"/>
</g>
<!-- 8 -->
<g id="node9" class="node"><title>8</title>
<ellipse fill="black" stroke="black" cx="127.624" cy="-1.8" rx="1.8" ry="1.8"/>
</g>
<!-- 0&#45;&#45;8 -->
<g id="edge8" class="edge"><title>0&#45;&#45;8</title>
<path fill="none" stroke="black" d="M78.8802,-75.4441C85.359,-65.6556 120.128,-13.1257 126.59,-3.36233"/>
</g>
<!-- 1&#45;&#45;2 -->
<g id="edge9" class="edge"><title>1&#45;&#45;2</title>
<path fill="none" stroke="black" d="M75.2701,-42.2204C70.5845,-52.7061 45.4391,-108.977 40.7655,-119.436"/>
</g>
<!-- 1&#45;&#45;3 -->
<g id="edge10" class="edge"><title>1&#45;&#45;3</title>
<path fill="none" stroke="black" d="M76.95,-42.1224C82.7313,-51.9975 113.757,-104.992 119.523,-114.842"/>
</g>
<!-- 1&#45;&#45;4 -->
<g id="edge11" class="edge"><title>1&#45;&#45;4</title>
<path fill="none" stroke="black" d="M77.9139,-40.9686C88.5023,-43.3814 140.313,-55.1879 150.728,-57.5612"/>
</g>
<!-- 1&#45;&#45;5 -->
<g id="edge12" class="edge"><title>1&#45;&#45;5</title>
<path fill="none" stroke="black" d="M74.1874,-41.1674C63.9186,-44.6932 13.6712,-61.9457 3.57058,-65.4137"/>
</g>
<!-- 1&#45;&#45;6 -->
<g id="edge13" class="edge"><title>1&#45;&#45;6</title>
<path fill="none" stroke="black" d="M74.1841,-39.4321C65.797,-34.3881 31.2,-13.5813 22.6818,-8.45845"/>
</g>
<!-- 1&#45;&#45;8 -->
<g id="edge14" class="edge"><title>1&#45;&#45;8</title>
<path fill="none" stroke="black" d="M77.739,-39.2486C85.5735,-33.3673 117.891,-9.10668 125.848,-3.13343"/>
</g>
<!-- 2&#45;&#45;3 -->
<g id="edge15" class="edge"><title>2&#45;&#45;3</title>
<path fill="none" stroke="black" d="M42.0058,-120.994C53.1332,-120.345 107.582,-117.168 118.527,-116.53"/>
</g>
<!-- 2&#45;&#45;5 -->
<g id="edge16" class="edge"><title>2&#45;&#45;5</title>
<path fill="none" stroke="black" d="M38.7461,-119.277C32.9437,-110.913 9.00863,-76.4124 3.11554,-67.9179"/>
</g>
<!-- 2&#45;&#45;7 -->
<g id="edge17" class="edge"><title>2&#45;&#45;7</title>
<path fill="none" stroke="black" d="M41.4564,-122.561C48.0219,-129.182 75.1045,-156.493 81.7725,-163.217"/>
</g>
<!-- 3&#45;&#45;4 -->
<g id="edge18" class="edge"><title>3&#45;&#45;4</title>
<path fill="none" stroke="black" d="M121.514,-114.474C126.389,-105.601 146.498,-69.0004 151.449,-59.9889"/>
</g>
<!-- 3&#45;&#45;7 -->
<g id="edge19" class="edge"><title>3&#45;&#45;7</title>
<path fill="none" stroke="black" d="M119.209,-118.025C113.563,-125.358 90.2749,-155.608 84.5411,-163.056"/>
</g>
<!-- 4&#45;&#45;8 -->
<g id="edge20" class="edge"><title>4&#45;&#45;8</title>
<path fill="none" stroke="black" d="M151.724,-56.1081C147.939,-47.579 132.326,-12.3962 128.482,-3.73375"/>
</g>
<!-- 5&#45;&#45;6 -->
<g id="edge21" class="edge"><title>5&#45;&#45;6</title>
<path fill="none" stroke="black" d="M2.43151,-64.0684C5.3132,-55.1552 17.2002,-18.3882 20.1269,-9.33567"/>
</g>
</g>
</svg>
