<?xml version="1.0" encoding="UTF-8" standalone="no"?>
<!DOCTYPE svg PUBLIC "-//W3C//DTD SVG 1.1//EN"
 "http://www.w3.org/Graphics/SVG/1.1/DTD/svg11.dtd">
<!-- Generated by graphviz version 2.36.0 (20140111.2315)
 -->
<!-- Title: %3 Pages: 1 -->
<svg width="391pt" height="273pt"
 viewBox="0.00 0.00 391.29 273.49" xmlns="http://www.w3.org/2000/svg" xmlns:xlink="http://www.w3.org/1999/xlink">
<g id="graph0" class="graph" transform="scale(1 1) rotate(0) translate(4 269.489)">
<title>%3</title>
<!-- 0 -->
<g id="node1" class="node"><title>0</title>
<ellipse fill="black" stroke="black" cx="114.659" cy="-72.9297" rx="1.8" ry="1.8"/>
</g>
<!-- 2 -->
<g id="node2" class="node"><title>2</title>
<ellipse fill="black" stroke="black" cx="76.4297" cy="-8.03671" rx="1.8" ry="1.8"/>
</g>
<!-- 0&#45;&#45;2 -->
<g id="edge1" class="edge"><title>0&#45;&#45;2</title>
<path fill="none" stroke="black" d="M113.714,-71.3256C108.471,-62.4256 82.9928,-19.1772 77.4821,-9.82303"/>
</g>
<!-- 3 -->
<g id="node3" class="node"><title>3</title>
<ellipse fill="black" stroke="black" cx="39.7698" cy="-66.5143" rx="1.8" ry="1.8"/>
</g>
<!-- 0&#45;&#45;3 -->
<g id="edge2" class="edge"><title>0&#45;&#45;3</title>
<path fill="none" stroke="black" d="M112.808,-72.7711C102.537,-71.8913 52.6264,-67.6157 41.8313,-66.6909"/>
</g>
<!-- 5 -->
<g id="node4" class="node"><title>5</title>
<ellipse fill="black" stroke="black" cx="177.285" cy="-112.698" rx="1.8" ry="1.8"/>
</g>
<!-- 0&#45;&#45;5 -->
<g id="edge3" class="edge"><title>0&#45;&#45;5</title>
<path fill="none" stroke="black" d="M116.207,-73.9127C124.796,-79.3669 166.534,-105.871 175.561,-111.603"/>
</g>
<!-- 2&#45;&#45;3 -->
<g id="edge7" class="edge"><title>2&#45;&#45;3</title>
<path fill="none" stroke="black" d="M75.3721,-9.72376C70.0188,-18.2631 45.9609,-56.6387 40.7622,-64.9313"/>
</g>
<!-- 4 -->
<g id="node9" class="node"><title>4</title>
<ellipse fill="black" stroke="black" cx="1.8" cy="-1.8" rx="1.8" ry="1.8"/>
</g>
<!-- 2&#45;&#45;4 -->
<g id="edge8" class="edge"><title>2&#45;&#45;4</title>
<path fill="none" stroke="black" d="M74.585,-7.88254C64.3496,-7.02718 14.612,-2.87068 3.85435,-1.97168"/>
</g>
<!-- 3&#45;&#45;4 -->
<g id="edge9" class="edge"><title>3&#45;&#45;4</title>
<path fill="none" stroke="black" d="M38.8312,-64.9146C33.6237,-56.0391 8.31843,-12.9098 2.8452,-3.58141"/>
</g>
<!-- 6 -->
<g id="node6" class="node"><title>6</title>
<ellipse fill="black" stroke="black" cx="242.043" cy="-148.253" rx="1.8" ry="1.8"/>
</g>
<!-- 5&#45;&#45;6 -->
<g id="edge10" class="edge"><title>5&#45;&#45;6</title>
<path fill="none" stroke="black" d="M178.886,-113.577C187.767,-118.453 230.926,-142.149 240.261,-147.274"/>
</g>
<!-- 1 -->
<g id="node5" class="node"><title>1</title>
<ellipse fill="black" stroke="black" cx="309.375" cy="-185.445" rx="1.8" ry="1.8"/>
</g>
<!-- 1&#45;&#45;6 -->
<g id="edge4" class="edge"><title>1&#45;&#45;6</title>
<path fill="none" stroke="black" d="M307.711,-184.525C298.476,-179.424 253.603,-154.638 243.897,-149.277"/>
</g>
<!-- 7 -->
<g id="node7" class="node"><title>7</title>
<ellipse fill="black" stroke="black" cx="381.487" cy="-153.382" rx="1.8" ry="1.8"/>
</g>
<!-- 1&#45;&#45;7 -->
<g id="edge5" class="edge"><title>1&#45;&#45;7</title>
<path fill="none" stroke="black" d="M311.158,-184.652C321.134,-180.216 369.953,-158.51 379.766,-154.147"/>
</g>
<!-- 8 -->
<g id="node8" class="node"><title>8</title>
<ellipse fill="black" stroke="black" cx="319.464" cy="-263.689" rx="1.8" ry="1.8"/>
</g>
<!-- 1&#45;&#45;8 -->
<g id="edge6" class="edge"><title>1&#45;&#45;8</title>
<path fill="none" stroke="black" d="M309.625,-187.379C311.02,-198.204 317.851,-251.175 319.224,-261.823"/>
</g>
</g>
</svg>
