<?xml version="1.0" encoding="UTF-8" standalone="no"?>
<!DOCTYPE svg PUBLIC "-//W3C//DTD SVG 1.1//EN"
 "http://www.w3.org/Graphics/SVG/1.1/DTD/svg11.dtd">
<!-- Generated by graphviz version 2.36.0 (20140111.2315)
 -->
<!-- Title: %3 Pages: 1 -->
<svg width="176pt" height="285pt"
 viewBox="0.00 0.00 175.66 285.46" xmlns="http://www.w3.org/2000/svg" xmlns:xlink="http://www.w3.org/1999/xlink">
<g id="graph0" class="graph" transform="scale(1 1) rotate(0) translate(4 281.461)">
<title>%3</title>
<!-- 0 -->
<g id="node1" class="node"><title>0</title>
<ellipse fill="black" stroke="black" cx="76.3009" cy="-209.453" rx="1.8" ry="1.8"/>
</g>
<!-- 1 -->
<g id="node2" class="node"><title>1</title>
<ellipse fill="black" stroke="black" cx="121.726" cy="-144.066" rx="1.8" ry="1.8"/>
</g>
<!-- 0&#45;&#45;1 -->
<g id="edge1" class="edge"><title>0&#45;&#45;1</title>
<path fill="none" stroke="black" d="M77.4238,-207.837C83.6538,-198.869 113.928,-155.291 120.476,-145.866"/>
</g>
<!-- 2 -->
<g id="node3" class="node"><title>2</title>
<ellipse fill="black" stroke="black" cx="123.682" cy="-210.326" rx="1.8" ry="1.8"/>
</g>
<!-- 0&#45;&#45;2 -->
<g id="edge2" class="edge"><title>0&#45;&#45;2</title>
<path fill="none" stroke="black" d="M78.3368,-209.491C86.1306,-209.634 114.018,-210.148 121.707,-210.289"/>
</g>
<!-- 3 -->
<g id="node4" class="node"><title>3</title>
<ellipse fill="black" stroke="black" cx="165.855" cy="-210.078" rx="1.8" ry="1.8"/>
</g>
<!-- 0&#45;&#45;3 -->
<g id="edge3" class="edge"><title>0&#45;&#45;3</title>
<path fill="none" stroke="black" d="M78.1714,-209.466C89.826,-209.548 152.37,-209.984 163.995,-210.065"/>
</g>
<!-- 4 -->
<g id="node5" class="node"><title>4</title>
<ellipse fill="black" stroke="black" cx="124.229" cy="-275.661" rx="1.8" ry="1.8"/>
</g>
<!-- 0&#45;&#45;4 -->
<g id="edge4" class="edge"><title>0&#45;&#45;4</title>
<path fill="none" stroke="black" d="M77.4856,-211.09C84.0589,-220.17 116.001,-264.295 122.909,-273.839"/>
</g>
<!-- 7 -->
<g id="node6" class="node"><title>7</title>
<ellipse fill="black" stroke="black" cx="1.8" cy="-224.949" rx="1.8" ry="1.8"/>
</g>
<!-- 0&#45;&#45;7 -->
<g id="edge5" class="edge"><title>0&#45;&#45;7</title>
<path fill="none" stroke="black" d="M74.4593,-209.836C64.152,-211.98 13.7158,-222.47 3.57723,-224.579"/>
</g>
<!-- 1&#45;&#45;2 -->
<g id="edge6" class="edge"><title>1&#45;&#45;2</title>
<path fill="none" stroke="black" d="M121.783,-145.977C122.063,-155.483 123.307,-197.621 123.614,-208.006"/>
</g>
<!-- 1&#45;&#45;3 -->
<g id="edge7" class="edge"><title>1&#45;&#45;3</title>
<path fill="none" stroke="black" d="M122.817,-145.697C128.869,-154.751 158.279,-198.745 164.64,-208.261"/>
</g>
<!-- 5 -->
<g id="node7" class="node"><title>5</title>
<ellipse fill="black" stroke="black" cx="134.907" cy="-70.3762" rx="1.8" ry="1.8"/>
</g>
<!-- 1&#45;&#45;5 -->
<g id="edge8" class="edge"><title>1&#45;&#45;5</title>
<path fill="none" stroke="black" d="M122.052,-142.244C123.86,-132.138 132.644,-83.0268 134.544,-72.4047"/>
</g>
<!-- 2&#45;&#45;3 -->
<g id="edge9" class="edge"><title>2&#45;&#45;3</title>
<path fill="none" stroke="black" d="M125.494,-210.315C132.305,-210.275 156.356,-210.134 163.706,-210.09"/>
</g>
<!-- 2&#45;&#45;4 -->
<g id="edge10" class="edge"><title>2&#45;&#45;4</title>
<path fill="none" stroke="black" d="M123.698,-212.211C123.776,-221.584 124.124,-263.133 124.209,-273.374"/>
</g>
<!-- 3&#45;&#45;4 -->
<g id="edge11" class="edge"><title>3&#45;&#45;4</title>
<path fill="none" stroke="black" d="M164.826,-211.699C159.117,-220.694 131.375,-264.402 125.374,-273.856"/>
</g>
<!-- 6 -->
<g id="node8" class="node"><title>6</title>
<ellipse fill="black" stroke="black" cx="160.302" cy="-1.8" rx="1.8" ry="1.8"/>
</g>
<!-- 5&#45;&#45;6 -->
<g id="edge12" class="edge"><title>5&#45;&#45;6</title>
<path fill="none" stroke="black" d="M135.534,-68.681C139.017,-59.2759 155.942,-13.5728 159.603,-3.68771"/>
</g>
</g>
</svg>
