<?xml version="1.0" encoding="UTF-8" standalone="no"?>
<!DOCTYPE svg PUBLIC "-//W3C//DTD SVG 1.1//EN"
 "http://www.w3.org/Graphics/SVG/1.1/DTD/svg11.dtd">
<!-- Generated by graphviz version 2.36.0 (20140111.2315)
 -->
<!-- Title: %3 Pages: 1 -->
<svg width="165pt" height="148pt"
 viewBox="0.00 0.00 164.96 147.61" xmlns="http://www.w3.org/2000/svg" xmlns:xlink="http://www.w3.org/1999/xlink">
<g id="graph0" class="graph" transform="scale(1 1) rotate(0) translate(4 143.611)">
<title>%3</title>
<!-- 0 -->
<g id="node1" class="node"><title>0</title>
<ellipse fill="black" stroke="black" cx="85.1977" cy="-80.8326" rx="1.8" ry="1.8"/>
</g>
<!-- 1 -->
<g id="node2" class="node"><title>1</title>
<ellipse fill="black" stroke="black" cx="66.5444" cy="-122.791" rx="1.8" ry="1.8"/>
</g>
<!-- 0&#45;&#45;1 -->
<g id="edge1" class="edge"><title>0&#45;&#45;1</title>
<path fill="none" stroke="black" d="M84.3962,-82.6355C81.3279,-89.5372 70.3493,-114.232 67.3222,-121.041"/>
</g>
<!-- 2 -->
<g id="node3" class="node"><title>2</title>
<ellipse fill="black" stroke="black" cx="66.0065" cy="-49.936" rx="1.8" ry="1.8"/>
</g>
<!-- 0&#45;&#45;2 -->
<g id="edge2" class="edge"><title>0&#45;&#45;2</title>
<path fill="none" stroke="black" d="M84.1659,-79.1715C80.8648,-73.857 70.5776,-57.2952 67.1389,-51.7591"/>
</g>
<!-- 3 -->
<g id="node4" class="node"><title>3</title>
<ellipse fill="black" stroke="black" cx="138.484" cy="-68.256" rx="1.8" ry="1.8"/>
</g>
<!-- 0&#45;&#45;3 -->
<g id="edge3" class="edge"><title>0&#45;&#45;3</title>
<path fill="none" stroke="black" d="M86.9706,-80.4142C95.0608,-78.5047 128.433,-70.6282 136.649,-68.6889"/>
</g>
<!-- 4 -->
<g id="node5" class="node"><title>4</title>
<ellipse fill="black" stroke="black" cx="113.023" cy="-137.811" rx="1.8" ry="1.8"/>
</g>
<!-- 0&#45;&#45;4 -->
<g id="edge4" class="edge"><title>0&#45;&#45;4</title>
<path fill="none" stroke="black" d="M86.1235,-82.7284C90.3481,-91.3792 107.774,-127.064 112.065,-135.85"/>
</g>
<!-- 5 -->
<g id="node6" class="node"><title>5</title>
<ellipse fill="black" stroke="black" cx="9.32517" cy="-114.615" rx="1.8" ry="1.8"/>
</g>
<!-- 0&#45;&#45;5 -->
<g id="edge5" class="edge"><title>0&#45;&#45;5</title>
<path fill="none" stroke="black" d="M83.3222,-81.6677C72.8251,-86.3415 21.4603,-109.211 11.1351,-113.809"/>
</g>
<!-- 6 -->
<g id="node7" class="node"><title>6</title>
<ellipse fill="black" stroke="black" cx="1.8" cy="-63.5525" rx="1.8" ry="1.8"/>
</g>
<!-- 0&#45;&#45;6 -->
<g id="edge6" class="edge"><title>0&#45;&#45;6</title>
<path fill="none" stroke="black" d="M83.1362,-80.4055C71.598,-78.0147 15.1387,-66.3163 3.78947,-63.9647"/>
</g>
<!-- 7 -->
<g id="node8" class="node"><title>7</title>
<ellipse fill="black" stroke="black" cx="155.165" cy="-128.256" rx="1.8" ry="1.8"/>
</g>
<!-- 0&#45;&#45;7 -->
<g id="edge7" class="edge"><title>0&#45;&#45;7</title>
<path fill="none" stroke="black" d="M86.9272,-82.0049C96.5232,-88.509 143.153,-120.115 153.239,-126.951"/>
</g>
<!-- 8 -->
<g id="node9" class="node"><title>8</title>
<ellipse fill="black" stroke="black" cx="114.715" cy="-1.8" rx="1.8" ry="1.8"/>
</g>
<!-- 0&#45;&#45;8 -->
<g id="edge8" class="edge"><title>0&#45;&#45;8</title>
<path fill="none" stroke="black" d="M85.9274,-78.879C90.0112,-67.9447 109.994,-14.4406 114.011,-3.68534"/>
</g>
<!-- 1&#45;&#45;2 -->
<g id="edge9" class="edge"><title>1&#45;&#45;2</title>
<path fill="none" stroke="black" d="M66.5311,-120.99C66.4574,-110.998 66.0989,-62.4433 66.0213,-51.9415"/>
</g>
<!-- 1&#45;&#45;3 -->
<g id="edge10" class="edge"><title>1&#45;&#45;3</title>
<path fill="none" stroke="black" d="M68.047,-121.652C77.4092,-114.554 127.651,-76.4677 136.989,-69.3888"/>
</g>
<!-- 1&#45;&#45;4 -->
<g id="edge11" class="edge"><title>1&#45;&#45;4</title>
<path fill="none" stroke="black" d="M68.5416,-123.436C76.1868,-125.907 103.542,-134.747 111.085,-137.185"/>
</g>
<!-- 1&#45;&#45;5 -->
<g id="edge12" class="edge"><title>1&#45;&#45;5</title>
<path fill="none" stroke="black" d="M64.6407,-122.519C55.9533,-121.277 20.1179,-116.157 11.2948,-114.896"/>
</g>
<!-- 1&#45;&#45;6 -->
<g id="edge13" class="edge"><title>1&#45;&#45;6</title>
<path fill="none" stroke="black" d="M64.944,-121.326C56.0644,-113.202 12.9149,-73.7222 3.58224,-65.1832"/>
</g>
<!-- 1&#45;&#45;7 -->
<g id="edge14" class="edge"><title>1&#45;&#45;7</title>
<path fill="none" stroke="black" d="M68.3954,-122.905C79.9285,-123.616 141.821,-127.433 153.324,-128.143"/>
</g>
<!-- 2&#45;&#45;3 -->
<g id="edge15" class="edge"><title>2&#45;&#45;3</title>
<path fill="none" stroke="black" d="M67.7981,-50.3889C77.7382,-52.9014 126.041,-65.1109 136.489,-67.7517"/>
</g>
<!-- 2&#45;&#45;4 -->
<g id="edge16" class="edge"><title>2&#45;&#45;4</title>
<path fill="none" stroke="black" d="M66.9885,-51.7714C73.1072,-63.2075 105.943,-124.579 112.046,-135.986"/>
</g>
<!-- 2&#45;&#45;5 -->
<g id="edge17" class="edge"><title>2&#45;&#45;5</title>
<path fill="none" stroke="black" d="M64.6054,-51.5348C56.8316,-60.4054 19.0559,-103.511 10.8855,-112.834"/>
</g>
<!-- 2&#45;&#45;8 -->
<g id="edge18" class="edge"><title>2&#45;&#45;8</title>
<path fill="none" stroke="black" d="M67.6271,-48.3345C75.1545,-40.8956 106.625,-9.79549 113.419,-3.08132"/>
</g>
<!-- 3&#45;&#45;4 -->
<g id="edge19" class="edge"><title>3&#45;&#45;4</title>
<path fill="none" stroke="black" d="M137.854,-69.9754C134.362,-79.5147 117.394,-125.87 113.724,-135.896"/>
</g>
<!-- 3&#45;&#45;7 -->
<g id="edge20" class="edge"><title>3&#45;&#45;7</title>
<path fill="none" stroke="black" d="M139.039,-70.2523C141.571,-79.362 152.018,-116.939 154.591,-126.191"/>
</g>
<!-- 3&#45;&#45;8 -->
<g id="edge21" class="edge"><title>3&#45;&#45;8</title>
<path fill="none" stroke="black" d="M137.798,-66.3388C134.327,-56.6344 118.729,-13.023 115.359,-3.59904"/>
</g>
<!-- 5&#45;&#45;6 -->
<g id="edge22" class="edge"><title>5&#45;&#45;6</title>
<path fill="none" stroke="black" d="M9.00182,-112.42C7.76401,-104.021 3.33496,-73.968 2.11377,-65.6816"/>
</g>
</g>
</svg>
