<?xml version="1.0" encoding="UTF-8" standalone="no"?>
<!DOCTYPE svg PUBLIC "-//W3C//DTD SVG 1.1//EN"
 "http://www.w3.org/Graphics/SVG/1.1/DTD/svg11.dtd">
<!-- Generated by graphviz version 2.36.0 (20140111.2315)
 -->
<!-- Title: %3 Pages: 1 -->
<svg width="146pt" height="215pt"
 viewBox="0.00 0.00 146.47 215.39" xmlns="http://www.w3.org/2000/svg" xmlns:xlink="http://www.w3.org/1999/xlink">
<g id="graph0" class="graph" transform="scale(1 1) rotate(0) translate(4 211.389)">
<title>%3</title>
<!-- 0 -->
<g id="node1" class="node"><title>0</title>
<ellipse fill="black" stroke="black" cx="74.5648" cy="-158.15" rx="1.8" ry="1.8"/>
</g>
<!-- 1 -->
<g id="node2" class="node"><title>1</title>
<ellipse fill="black" stroke="black" cx="107.425" cy="-77.7732" rx="1.8" ry="1.8"/>
</g>
<!-- 0&#45;&#45;1 -->
<g id="edge1" class="edge"><title>0&#45;&#45;1</title>
<path fill="none" stroke="black" d="M75.2511,-156.471C79.5276,-146.011 102.477,-89.8762 106.742,-79.4428"/>
</g>
<!-- 2 -->
<g id="node3" class="node"><title>2</title>
<ellipse fill="black" stroke="black" cx="62.8566" cy="-67.6774" rx="1.8" ry="1.8"/>
</g>
<!-- 0&#45;&#45;2 -->
<g id="edge2" class="edge"><title>0&#45;&#45;2</title>
<path fill="none" stroke="black" d="M74.3203,-156.261C72.7966,-144.486 64.6196,-81.3005 63.0998,-69.5567"/>
</g>
<!-- 3 -->
<g id="node4" class="node"><title>3</title>
<ellipse fill="black" stroke="black" cx="15.538" cy="-114.547" rx="1.8" ry="1.8"/>
</g>
<!-- 0&#45;&#45;3 -->
<g id="edge3" class="edge"><title>0&#45;&#45;3</title>
<path fill="none" stroke="black" d="M73.1057,-157.072C65.0103,-151.092 25.6714,-122.032 17.1629,-115.747"/>
</g>
<!-- 4 -->
<g id="node5" class="node"><title>4</title>
<ellipse fill="black" stroke="black" cx="136.584" cy="-130.478" rx="1.8" ry="1.8"/>
</g>
<!-- 0&#45;&#45;4 -->
<g id="edge4" class="edge"><title>0&#45;&#45;4</title>
<path fill="none" stroke="black" d="M76.354,-157.352C85.4105,-153.311 126.11,-135.151 134.905,-131.227"/>
</g>
<!-- 5 -->
<g id="node6" class="node"><title>5</title>
<ellipse fill="black" stroke="black" cx="70.675" cy="-115.27" rx="1.8" ry="1.8"/>
</g>
<!-- 0&#45;&#45;5 -->
<g id="edge5" class="edge"><title>0&#45;&#45;5</title>
<path fill="none" stroke="black" d="M74.3977,-156.308C73.7695,-149.382 71.5511,-124.928 70.8732,-117.455"/>
</g>
<!-- 7 -->
<g id="node7" class="node"><title>7</title>
<ellipse fill="black" stroke="black" cx="1.8" cy="-189.953" rx="1.8" ry="1.8"/>
</g>
<!-- 0&#45;&#45;7 -->
<g id="edge6" class="edge"><title>0&#45;&#45;7</title>
<path fill="none" stroke="black" d="M72.7661,-158.936C62.699,-163.336 13.4381,-184.866 3.53582,-189.194"/>
</g>
<!-- 8 -->
<g id="node8" class="node"><title>8</title>
<ellipse fill="black" stroke="black" cx="136.672" cy="-205.589" rx="1.8" ry="1.8"/>
</g>
<!-- 0&#45;&#45;8 -->
<g id="edge7" class="edge"><title>0&#45;&#45;8</title>
<path fill="none" stroke="black" d="M76.1001,-159.323C84.618,-165.829 126.01,-197.445 134.963,-204.283"/>
</g>
<!-- 1&#45;&#45;2 -->
<g id="edge8" class="edge"><title>1&#45;&#45;2</title>
<path fill="none" stroke="black" d="M105.51,-77.3394C98.1788,-75.6788 71.9474,-69.7367 64.7149,-68.0983"/>
</g>
<!-- 1&#45;&#45;3 -->
<g id="edge9" class="edge"><title>1&#45;&#45;3</title>
<path fill="none" stroke="black" d="M105.506,-78.5413C93.5475,-83.327 29.3741,-109.01 17.4467,-113.783"/>
</g>
<!-- 1&#45;&#45;4 -->
<g id="edge10" class="edge"><title>1&#45;&#45;4</title>
<path fill="none" stroke="black" d="M108.395,-79.5268C112.822,-87.5288 131.084,-120.537 135.58,-128.664"/>
</g>
<!-- 1&#45;&#45;5 -->
<g id="edge11" class="edge"><title>1&#45;&#45;5</title>
<path fill="none" stroke="black" d="M105.846,-79.3844C99.8008,-85.5522 78.1711,-107.621 72.2073,-113.706"/>
</g>
<!-- 6 -->
<g id="node9" class="node"><title>6</title>
<ellipse fill="black" stroke="black" cx="99.6655" cy="-1.8" rx="1.8" ry="1.8"/>
</g>
<!-- 1&#45;&#45;6 -->
<g id="edge12" class="edge"><title>1&#45;&#45;6</title>
<path fill="none" stroke="black" d="M107.233,-75.8952C106.16,-65.3842 100.907,-13.9513 99.8506,-3.61236"/>
</g>
<!-- 2&#45;&#45;3 -->
<g id="edge13" class="edge"><title>2&#45;&#45;3</title>
<path fill="none" stroke="black" d="M61.2822,-69.2368C54.098,-76.3528 24.4633,-105.706 17.1668,-112.933"/>
</g>
<!-- 2&#45;&#45;4 -->
<g id="edge14" class="edge"><title>2&#45;&#45;4</title>
<path fill="none" stroke="black" d="M64.3965,-68.9891C73.9913,-77.162 125.482,-121.022 135.052,-129.173"/>
</g>
<!-- 2&#45;&#45;5 -->
<g id="edge15" class="edge"><title>2&#45;&#45;5</title>
<path fill="none" stroke="black" d="M63.1925,-69.7224C64.4786,-77.5508 69.0802,-105.562 70.349,-113.285"/>
</g>
<!-- 2&#45;&#45;6 -->
<g id="edge16" class="edge"><title>2&#45;&#45;6</title>
<path fill="none" stroke="black" d="M63.7664,-66.049C68.8147,-57.0139 93.3463,-13.1094 98.6522,-3.61342"/>
</g>
<!-- 3&#45;&#45;5 -->
<g id="edge17" class="edge"><title>3&#45;&#45;5</title>
<path fill="none" stroke="black" d="M17.3725,-114.571C25.7437,-114.681 60.275,-115.133 68.777,-115.245"/>
</g>
<!-- 3&#45;&#45;7 -->
<g id="edge18" class="edge"><title>3&#45;&#45;7</title>
<path fill="none" stroke="black" d="M15.1984,-116.411C13.2977,-126.843 3.99728,-177.893 2.12772,-188.154"/>
</g>
<!-- 4&#45;&#45;5 -->
<g id="edge19" class="edge"><title>4&#45;&#45;5</title>
<path fill="none" stroke="black" d="M134.682,-130.039C125.058,-127.818 81.8055,-117.838 72.4592,-115.681"/>
</g>
<!-- 4&#45;&#45;8 -->
<g id="edge20" class="edge"><title>4&#45;&#45;8</title>
<path fill="none" stroke="black" d="M136.586,-132.335C136.598,-142.636 136.657,-192.694 136.67,-203.521"/>
</g>
</g>
</svg>
