<?xml version="1.0" encoding="UTF-8" standalone="no"?>
<!DOCTYPE svg PUBLIC "-//W3C//DTD SVG 1.1//EN"
 "http://www.w3.org/Graphics/SVG/1.1/DTD/svg11.dtd">
<!-- Generated by graphviz version 2.36.0 (20140111.2315)
 -->
<!-- Title: %3 Pages: 1 -->
<svg width="169pt" height="167pt"
 viewBox="0.00 0.00 169.09 166.60" xmlns="http://www.w3.org/2000/svg" xmlns:xlink="http://www.w3.org/1999/xlink">
<g id="graph0" class="graph" transform="scale(1 1) rotate(0) translate(4 162.605)">
<title>%3</title>
<!-- 0 -->
<g id="node1" class="node"><title>0</title>
<ellipse fill="black" stroke="black" cx="59.7077" cy="-79.1338" rx="1.8" ry="1.8"/>
</g>
<!-- 1 -->
<g id="node2" class="node"><title>1</title>
<ellipse fill="black" stroke="black" cx="86.1667" cy="-89.2198" rx="1.8" ry="1.8"/>
</g>
<!-- 0&#45;&#45;1 -->
<g id="edge1" class="edge"><title>0&#45;&#45;1</title>
<path fill="none" stroke="black" d="M61.4437,-79.7956C66.2264,-81.6187 79.5583,-86.7007 84.3895,-88.5423"/>
</g>
<!-- 2 -->
<g id="node3" class="node"><title>2</title>
<ellipse fill="black" stroke="black" cx="119.721" cy="-44.9829" rx="1.8" ry="1.8"/>
</g>
<!-- 0&#45;&#45;2 -->
<g id="edge2" class="edge"><title>0&#45;&#45;2</title>
<path fill="none" stroke="black" d="M61.439,-78.1485C70.2026,-73.1616 109.586,-50.7502 118.096,-45.9074"/>
</g>
<!-- 3 -->
<g id="node4" class="node"><title>3</title>
<ellipse fill="black" stroke="black" cx="52.3465" cy="-156.805" rx="1.8" ry="1.8"/>
</g>
<!-- 0&#45;&#45;3 -->
<g id="edge3" class="edge"><title>0&#45;&#45;3</title>
<path fill="none" stroke="black" d="M59.5257,-81.0537C58.5073,-91.7997 53.5238,-144.382 52.5221,-154.952"/>
</g>
<!-- 4 -->
<g id="node5" class="node"><title>4</title>
<ellipse fill="black" stroke="black" cx="84.4259" cy="-1.8" rx="1.8" ry="1.8"/>
</g>
<!-- 0&#45;&#45;4 -->
<g id="edge4" class="edge"><title>0&#45;&#45;4</title>
<path fill="none" stroke="black" d="M60.3187,-77.2222C63.7385,-66.5229 80.4724,-14.1689 83.8362,-3.64481"/>
</g>
<!-- 5 -->
<g id="node6" class="node"><title>5</title>
<ellipse fill="black" stroke="black" cx="117.469" cy="-137.948" rx="1.8" ry="1.8"/>
</g>
<!-- 0&#45;&#45;5 -->
<g id="edge5" class="edge"><title>0&#45;&#45;5</title>
<path fill="none" stroke="black" d="M61.1355,-80.5876C69.0574,-88.6539 107.553,-127.851 115.879,-136.329"/>
</g>
<!-- 6 -->
<g id="node7" class="node"><title>6</title>
<ellipse fill="black" stroke="black" cx="36.7425" cy="-21.1252" rx="1.8" ry="1.8"/>
</g>
<!-- 0&#45;&#45;6 -->
<g id="edge6" class="edge"><title>0&#45;&#45;6</title>
<path fill="none" stroke="black" d="M58.9436,-77.2037C55.4569,-68.3965 41.0742,-32.0668 37.533,-23.1219"/>
</g>
<!-- 7 -->
<g id="node8" class="node"><title>7</title>
<ellipse fill="black" stroke="black" cx="159.291" cy="-84.5806" rx="1.8" ry="1.8"/>
</g>
<!-- 0&#45;&#45;7 -->
<g id="edge7" class="edge"><title>0&#45;&#45;7</title>
<path fill="none" stroke="black" d="M61.7876,-79.2475C74.7474,-79.9564 144.296,-83.7605 157.222,-84.4675"/>
</g>
<!-- 8 -->
<g id="node9" class="node"><title>8</title>
<ellipse fill="black" stroke="black" cx="1.8" cy="-117.121" rx="1.8" ry="1.8"/>
</g>
<!-- 0&#45;&#45;8 -->
<g id="edge8" class="edge"><title>0&#45;&#45;8</title>
<path fill="none" stroke="black" d="M57.781,-80.3977C48.8321,-86.268 11.4186,-110.811 3.34142,-116.109"/>
</g>
<!-- 1&#45;&#45;2 -->
<g id="edge9" class="edge"><title>1&#45;&#45;2</title>
<path fill="none" stroke="black" d="M87.2831,-87.7479C92.3775,-81.0316 113.392,-53.3268 118.566,-46.5056"/>
</g>
<!-- 1&#45;&#45;3 -->
<g id="edge10" class="edge"><title>1&#45;&#45;3</title>
<path fill="none" stroke="black" d="M85.3307,-90.8904C80.6923,-100.16 58.1525,-145.202 53.2775,-154.944"/>
</g>
<!-- 1&#45;&#45;4 -->
<g id="edge11" class="edge"><title>1&#45;&#45;4</title>
<path fill="none" stroke="black" d="M86.1303,-87.3939C85.9038,-76.017 84.688,-14.9634 84.4621,-3.61584"/>
</g>
<!-- 1&#45;&#45;5 -->
<g id="edge12" class="edge"><title>1&#45;&#45;5</title>
<path fill="none" stroke="black" d="M87.2082,-90.841C91.9607,-98.2392 111.565,-128.757 116.392,-136.27"/>
</g>
<!-- 1&#45;&#45;6 -->
<g id="edge13" class="edge"><title>1&#45;&#45;6</title>
<path fill="none" stroke="black" d="M84.945,-87.5365C78.1665,-78.1974 45.2273,-32.8152 38.103,-22.9996"/>
</g>
<!-- 1&#45;&#45;7 -->
<g id="edge14" class="edge"><title>1&#45;&#45;7</title>
<path fill="none" stroke="black" d="M87.9742,-89.1051C98.0031,-88.4688 146.737,-85.3771 157.278,-84.7083"/>
</g>
<!-- 1&#45;&#45;8 -->
<g id="edge15" class="edge"><title>1&#45;&#45;8</title>
<path fill="none" stroke="black" d="M84.4046,-89.8025C73.425,-93.4335 14.5037,-112.919 3.55242,-116.541"/>
</g>
<!-- 2&#45;&#45;4 -->
<g id="edge16" class="edge"><title>2&#45;&#45;4</title>
<path fill="none" stroke="black" d="M118.547,-43.5461C113.188,-36.9898 91.0833,-9.94517 85.6408,-3.28645"/>
</g>
<!-- 2&#45;&#45;5 -->
<g id="edge17" class="edge"><title>2&#45;&#45;5</title>
<path fill="none" stroke="black" d="M119.674,-46.9246C119.381,-59.023 117.808,-123.949 117.516,-136.017"/>
</g>
<!-- 2&#45;&#45;6 -->
<g id="edge18" class="edge"><title>2&#45;&#45;6</title>
<path fill="none" stroke="black" d="M117.988,-44.4846C107.282,-41.4065 50.2328,-25.0038 38.7551,-21.7038"/>
</g>
<!-- 2&#45;&#45;7 -->
<g id="edge19" class="edge"><title>2&#45;&#45;7</title>
<path fill="none" stroke="black" d="M121.038,-46.3003C127.045,-52.3123 151.827,-77.1117 157.929,-83.2176"/>
</g>
<!-- 3&#45;&#45;5 -->
<g id="edge20" class="edge"><title>3&#45;&#45;5</title>
<path fill="none" stroke="black" d="M54.2252,-156.261C63.7349,-153.507 106.471,-141.132 115.706,-138.458"/>
</g>
<!-- 3&#45;&#45;8 -->
<g id="edge21" class="edge"><title>3&#45;&#45;8</title>
<path fill="none" stroke="black" d="M50.6647,-155.484C42.9904,-149.459 11.3341,-124.606 3.53992,-118.487"/>
</g>
<!-- 4&#45;&#45;6 -->
<g id="edge22" class="edge"><title>4&#45;&#45;6</title>
<path fill="none" stroke="black" d="M82.377,-2.63038C74.5336,-5.80917 46.4688,-17.1833 38.7307,-20.3194"/>
</g>
</g>
</svg>
