<?xml version="1.0" encoding="UTF-8" standalone="no"?>
<!DOCTYPE svg PUBLIC "-//W3C//DTD SVG 1.1//EN"
 "http://www.w3.org/Graphics/SVG/1.1/DTD/svg11.dtd">
<!-- Generated by graphviz version 2.36.0 (20140111.2315)
 -->
<!-- Title: %3 Pages: 1 -->
<svg width="223pt" height="203pt"
 viewBox="0.00 0.00 223.15 203.10" xmlns="http://www.w3.org/2000/svg" xmlns:xlink="http://www.w3.org/1999/xlink">
<g id="graph0" class="graph" transform="scale(1 1) rotate(0) translate(4 199.099)">
<title>%3</title>
<!-- 0 -->
<g id="node1" class="node"><title>0</title>
<ellipse fill="black" stroke="black" cx="99.9678" cy="-117.331" rx="1.8" ry="1.8"/>
</g>
<!-- 1 -->
<g id="node2" class="node"><title>1</title>
<ellipse fill="black" stroke="black" cx="121.188" cy="-92.786" rx="1.8" ry="1.8"/>
</g>
<!-- 0&#45;&#45;1 -->
<g id="edge1" class="edge"><title>0&#45;&#45;1</title>
<path fill="none" stroke="black" d="M101.36,-115.72C105.196,-111.284 115.888,-98.9163 119.763,-94.4345"/>
</g>
<!-- 2 -->
<g id="node3" class="node"><title>2</title>
<ellipse fill="black" stroke="black" cx="183.629" cy="-124.36" rx="1.8" ry="1.8"/>
</g>
<!-- 0&#45;&#45;2 -->
<g id="edge2" class="edge"><title>0&#45;&#45;2</title>
<path fill="none" stroke="black" d="M102.036,-117.505C113.611,-118.477 170.248,-123.236 181.634,-124.193"/>
</g>
<!-- 3 -->
<g id="node4" class="node"><title>3</title>
<ellipse fill="black" stroke="black" cx="140.571" cy="-174.374" rx="1.8" ry="1.8"/>
</g>
<!-- 0&#45;&#45;3 -->
<g id="edge3" class="edge"><title>0&#45;&#45;3</title>
<path fill="none" stroke="black" d="M101.319,-119.229C107.593,-128.044 133.826,-164.899 139.49,-172.856"/>
</g>
<!-- 4 -->
<g id="node5" class="node"><title>4</title>
<ellipse fill="black" stroke="black" cx="172.912" cy="-58.2034" rx="1.8" ry="1.8"/>
</g>
<!-- 0&#45;&#45;4 -->
<g id="edge4" class="edge"><title>0&#45;&#45;4</title>
<path fill="none" stroke="black" d="M101.491,-116.096C110.984,-108.401 161.928,-67.1066 171.397,-59.4316"/>
</g>
<!-- 5 -->
<g id="node6" class="node"><title>5</title>
<ellipse fill="black" stroke="black" cx="73.305" cy="-173.482" rx="1.8" ry="1.8"/>
</g>
<!-- 0&#45;&#45;5 -->
<g id="edge5" class="edge"><title>0&#45;&#45;5</title>
<path fill="none" stroke="black" d="M99.0807,-119.199C95.0326,-127.724 78.3342,-162.891 74.2228,-171.549"/>
</g>
<!-- 6 -->
<g id="node7" class="node"><title>6</title>
<ellipse fill="black" stroke="black" cx="53.0246" cy="-55.8091" rx="1.8" ry="1.8"/>
</g>
<!-- 0&#45;&#45;6 -->
<g id="edge6" class="edge"><title>0&#45;&#45;6</title>
<path fill="none" stroke="black" d="M98.8074,-115.81C92.3692,-107.372 61.0836,-66.3708 54.3168,-57.5026"/>
</g>
<!-- 1&#45;&#45;2 -->
<g id="edge7" class="edge"><title>1&#45;&#45;2</title>
<path fill="none" stroke="black" d="M122.989,-93.6969C132.107,-98.3076 173.084,-119.028 181.939,-123.506"/>
</g>
<!-- 1&#45;&#45;3 -->
<g id="edge8" class="edge"><title>1&#45;&#45;3</title>
<path fill="none" stroke="black" d="M121.667,-94.8028C124.349,-106.091 137.47,-161.325 140.108,-172.428"/>
</g>
<!-- 1&#45;&#45;4 -->
<g id="edge9" class="edge"><title>1&#45;&#45;4</title>
<path fill="none" stroke="black" d="M122.909,-91.6353C130.762,-86.3848 163.156,-64.7264 171.131,-59.3938"/>
</g>
<!-- 1&#45;&#45;5 -->
<g id="edge10" class="edge"><title>1&#45;&#45;5</title>
<path fill="none" stroke="black" d="M120.188,-94.4714C113.956,-104.973 80.5151,-161.331 74.2996,-171.806"/>
</g>
<!-- 1&#45;&#45;6 -->
<g id="edge11" class="edge"><title>1&#45;&#45;6</title>
<path fill="none" stroke="black" d="M119.503,-91.8719C110.154,-86.8006 64.7265,-62.1571 54.901,-56.8269"/>
</g>
<!-- 2&#45;&#45;3 -->
<g id="edge12" class="edge"><title>2&#45;&#45;3</title>
<path fill="none" stroke="black" d="M182.197,-126.024C175.659,-133.618 148.692,-164.94 142.053,-172.652"/>
</g>
<!-- 2&#45;&#45;4 -->
<g id="edge13" class="edge"><title>2&#45;&#45;4</title>
<path fill="none" stroke="black" d="M183.32,-122.452C181.755,-112.791 174.722,-69.3759 173.202,-59.9944"/>
</g>
<!-- 7 -->
<g id="node8" class="node"><title>7</title>
<ellipse fill="black" stroke="black" cx="213.345" cy="-193.299" rx="1.8" ry="1.8"/>
</g>
<!-- 2&#45;&#45;7 -->
<g id="edge14" class="edge"><title>2&#45;&#45;7</title>
<path fill="none" stroke="black" d="M184.364,-126.065C188.439,-135.519 208.244,-181.464 212.527,-191.401"/>
</g>
<!-- 3&#45;&#45;5 -->
<g id="edge15" class="edge"><title>3&#45;&#45;5</title>
<path fill="none" stroke="black" d="M138.63,-174.348C128.807,-174.218 84.6647,-173.632 75.126,-173.506"/>
</g>
<!-- 3&#45;&#45;7 -->
<g id="edge16" class="edge"><title>3&#45;&#45;7</title>
<path fill="none" stroke="black" d="M142.369,-174.842C152.35,-177.437 200.852,-190.05 211.342,-192.778"/>
</g>
<!-- 8 -->
<g id="node9" class="node"><title>8</title>
<ellipse fill="black" stroke="black" cx="1.8" cy="-1.8" rx="1.8" ry="1.8"/>
</g>
<!-- 6&#45;&#45;8 -->
<g id="edge17" class="edge"><title>6&#45;&#45;8</title>
<path fill="none" stroke="black" d="M51.7584,-54.474C44.733,-47.0667 10.5939,-11.072 3.21007,-3.28672"/>
</g>
</g>
</svg>
