<?xml version="1.0" encoding="UTF-8" standalone="no"?>
<!DOCTYPE svg PUBLIC "-//W3C//DTD SVG 1.1//EN"
 "http://www.w3.org/Graphics/SVG/1.1/DTD/svg11.dtd">
<!-- Generated by graphviz version 2.36.0 (20140111.2315)
 -->
<!-- Title: %3 Pages: 1 -->
<svg width="135pt" height="133pt"
 viewBox="0.00 0.00 135.40 133.00" xmlns="http://www.w3.org/2000/svg" xmlns:xlink="http://www.w3.org/1999/xlink">
<g id="graph0" class="graph" transform="scale(1 1) rotate(0) translate(4 129.001)">
<title>%3</title>
<!-- 0 -->
<g id="node1" class="node"><title>0</title>
<ellipse fill="black" stroke="black" cx="14.4411" cy="-68.7614" rx="1.8" ry="1.8"/>
</g>
<!-- 1 -->
<g id="node2" class="node"><title>1</title>
<ellipse fill="black" stroke="black" cx="72.8366" cy="-10.1853" rx="1.8" ry="1.8"/>
</g>
<!-- 0&#45;&#45;1 -->
<g id="edge1" class="edge"><title>0&#45;&#45;1</title>
<path fill="none" stroke="black" d="M15.8846,-67.3135C23.8935,-59.2798 62.8116,-20.2413 71.2291,-11.7977"/>
</g>
<!-- 2 -->
<g id="node3" class="node"><title>2</title>
<ellipse fill="black" stroke="black" cx="39.7686" cy="-33.7968" rx="1.8" ry="1.8"/>
</g>
<!-- 0&#45;&#45;2 -->
<g id="edge2" class="edge"><title>0&#45;&#45;2</title>
<path fill="none" stroke="black" d="M15.5294,-67.259C19.6955,-61.5077 34.6024,-40.9288 38.7125,-35.2547"/>
</g>
<!-- 3 -->
<g id="node4" class="node"><title>3</title>
<ellipse fill="black" stroke="black" cx="73.729" cy="-70.3575" rx="1.8" ry="1.8"/>
</g>
<!-- 0&#45;&#45;3 -->
<g id="edge3" class="edge"><title>0&#45;&#45;3</title>
<path fill="none" stroke="black" d="M16.4137,-68.8145C25.4152,-69.0569 62.5461,-70.0565 71.6881,-70.3026"/>
</g>
<!-- 4 -->
<g id="node5" class="node"><title>4</title>
<ellipse fill="black" stroke="black" cx="118.858" cy="-48.3013" rx="1.8" ry="1.8"/>
</g>
<!-- 0&#45;&#45;4 -->
<g id="edge4" class="edge"><title>0&#45;&#45;4</title>
<path fill="none" stroke="black" d="M16.2535,-68.4063C28.9274,-65.9229 104.159,-51.1815 116.996,-48.6662"/>
</g>
<!-- 5 -->
<g id="node6" class="node"><title>5</title>
<ellipse fill="black" stroke="black" cx="50.7846" cy="-115.193" rx="1.8" ry="1.8"/>
</g>
<!-- 0&#45;&#45;5 -->
<g id="edge5" class="edge"><title>0&#45;&#45;5</title>
<path fill="none" stroke="black" d="M15.6503,-70.3063C21.1682,-77.3558 43.9295,-106.435 49.5336,-113.595"/>
</g>
<!-- 6 -->
<g id="node7" class="node"><title>6</title>
<ellipse fill="black" stroke="black" cx="1.8" cy="-1.8" rx="1.8" ry="1.8"/>
</g>
<!-- 0&#45;&#45;6 -->
<g id="edge6" class="edge"><title>0&#45;&#45;6</title>
<path fill="none" stroke="black" d="M14.0764,-66.8296C12.2305,-57.0514 3.93481,-13.1083 2.14221,-3.61273"/>
</g>
<!-- 1&#45;&#45;2 -->
<g id="edge7" class="edge"><title>1&#45;&#45;2</title>
<path fill="none" stroke="black" d="M71.0587,-11.4548C65.2633,-15.5928 46.9718,-28.6535 41.3971,-32.634"/>
</g>
<!-- 1&#45;&#45;3 -->
<g id="edge8" class="edge"><title>1&#45;&#45;3</title>
<path fill="none" stroke="black" d="M72.8663,-12.1873C73.0018,-21.323 73.5606,-59.0078 73.6982,-68.2863"/>
</g>
<!-- 1&#45;&#45;4 -->
<g id="edge9" class="edge"><title>1&#45;&#45;4</title>
<path fill="none" stroke="black" d="M74.3678,-11.4535C81.355,-17.2405 110.177,-41.1119 117.274,-46.9893"/>
</g>
<!-- 1&#45;&#45;5 -->
<g id="edge10" class="edge"><title>1&#45;&#45;5</title>
<path fill="none" stroke="black" d="M72.4538,-12.0079C69.7772,-24.7536 53.889,-100.411 51.1779,-113.32"/>
</g>
<!-- 1&#45;&#45;6 -->
<g id="edge11" class="edge"><title>1&#45;&#45;6</title>
<path fill="none" stroke="black" d="M70.7872,-9.94339C60.4139,-8.7189 13.7965,-3.21609 3.72304,-2.027"/>
</g>
<!-- 2&#45;&#45;3 -->
<g id="edge12" class="edge"><title>2&#45;&#45;3</title>
<path fill="none" stroke="black" d="M41.2278,-35.3678C46.8139,-41.3816 66.8018,-62.9 72.313,-68.8331"/>
</g>
<!-- 2&#45;&#45;4 -->
<g id="edge13" class="edge"><title>2&#45;&#45;4</title>
<path fill="none" stroke="black" d="M41.7236,-34.1553C52.6657,-36.1621 106.208,-45.9814 116.971,-47.9553"/>
</g>
<!-- 2&#45;&#45;5 -->
<g id="edge14" class="edge"><title>2&#45;&#45;5</title>
<path fill="none" stroke="black" d="M40.0409,-35.8089C41.565,-47.0702 49.0227,-102.175 50.5219,-113.251"/>
</g>
<!-- 2&#45;&#45;6 -->
<g id="edge15" class="edge"><title>2&#45;&#45;6</title>
<path fill="none" stroke="black" d="M38.1371,-32.4219C31.8917,-27.1588 9.5447,-8.3266 3.38312,-3.13413"/>
</g>
<!-- 3&#45;&#45;4 -->
<g id="edge16" class="edge"><title>3&#45;&#45;4</title>
<path fill="none" stroke="black" d="M75.6681,-69.4098C83.0913,-65.7818 109.653,-52.8003 116.976,-49.221"/>
</g>
<!-- 3&#45;&#45;6 -->
<g id="edge17" class="edge"><title>3&#45;&#45;6</title>
<path fill="none" stroke="black" d="M72.2266,-68.9256C62.8658,-60.0035 12.6308,-12.1232 3.29407,-3.22404"/>
</g>
<!-- 7 -->
<g id="node8" class="node"><title>7</title>
<ellipse fill="black" stroke="black" cx="125.597" cy="-123.201" rx="1.8" ry="1.8"/>
</g>
<!-- 3&#45;&#45;7 -->
<g id="edge18" class="edge"><title>3&#45;&#45;7</title>
<path fill="none" stroke="black" d="M75.0111,-71.6638C82.1248,-78.9113 116.693,-114.129 124.17,-121.747"/>
</g>
<!-- 4&#45;&#45;7 -->
<g id="edge19" class="edge"><title>4&#45;&#45;7</title>
<path fill="none" stroke="black" d="M119.024,-50.1528C119.949,-60.4252 124.44,-110.343 125.412,-121.139"/>
</g>
<!-- 5&#45;&#45;7 -->
<g id="edge20" class="edge"><title>5&#45;&#45;7</title>
<path fill="none" stroke="black" d="M52.634,-115.391C62.8945,-116.489 112.754,-121.826 123.538,-122.981"/>
</g>
</g>
</svg>
