<?xml version="1.0" encoding="UTF-8" standalone="no"?>
<!DOCTYPE svg PUBLIC "-//W3C//DTD SVG 1.1//EN"
 "http://www.w3.org/Graphics/SVG/1.1/DTD/svg11.dtd">
<!-- Generated by graphviz version 2.36.0 (20140111.2315)
 -->
<!-- Title: %3 Pages: 1 -->
<svg width="191pt" height="156pt"
 viewBox="0.00 0.00 190.70 155.66" xmlns="http://www.w3.org/2000/svg" xmlns:xlink="http://www.w3.org/1999/xlink">
<g id="graph0" class="graph" transform="scale(1 1) rotate(0) translate(4 151.655)">
<title>%3</title>
<!-- 0 -->
<g id="node1" class="node"><title>0</title>
<ellipse fill="black" stroke="black" cx="78.9566" cy="-64.6021" rx="1.8" ry="1.8"/>
</g>
<!-- 1 -->
<g id="node2" class="node"><title>1</title>
<ellipse fill="black" stroke="black" cx="136.999" cy="-91.2004" rx="1.8" ry="1.8"/>
</g>
<!-- 0&#45;&#45;1 -->
<g id="edge1" class="edge"><title>0&#45;&#45;1</title>
<path fill="none" stroke="black" d="M80.8878,-65.4871C89.7,-69.5254 126.051,-86.1834 135.001,-90.2848"/>
</g>
<!-- 2 -->
<g id="node3" class="node"><title>2</title>
<ellipse fill="black" stroke="black" cx="116.539" cy="-63.9795" rx="1.8" ry="1.8"/>
</g>
<!-- 0&#45;&#45;2 -->
<g id="edge2" class="edge"><title>0&#45;&#45;2</title>
<path fill="none" stroke="black" d="M80.9772,-64.5687C87.5638,-64.4595 108.353,-64.1151 114.688,-64.0102"/>
</g>
<!-- 3 -->
<g id="node4" class="node"><title>3</title>
<ellipse fill="black" stroke="black" cx="58.4815" cy="-121.883" rx="1.8" ry="1.8"/>
</g>
<!-- 0&#45;&#45;3 -->
<g id="edge3" class="edge"><title>0&#45;&#45;3</title>
<path fill="none" stroke="black" d="M78.2753,-66.508C75.1667,-75.2047 62.3435,-111.079 59.1863,-119.912"/>
</g>
<!-- 4 -->
<g id="node5" class="node"><title>4</title>
<ellipse fill="black" stroke="black" cx="142.179" cy="-9.21747" rx="1.8" ry="1.8"/>
</g>
<!-- 0&#45;&#45;4 -->
<g id="edge4" class="edge"><title>0&#45;&#45;4</title>
<path fill="none" stroke="black" d="M80.5194,-63.2331C89.1903,-55.6371 131.325,-18.7256 140.439,-10.7421"/>
</g>
<!-- 5 -->
<g id="node6" class="node"><title>5</title>
<ellipse fill="black" stroke="black" cx="112.022" cy="-145.855" rx="1.8" ry="1.8"/>
</g>
<!-- 0&#45;&#45;5 -->
<g id="edge5" class="edge"><title>0&#45;&#45;5</title>
<path fill="none" stroke="black" d="M79.6472,-66.2992C83.9504,-76.8736 107.043,-133.621 111.335,-144.168"/>
</g>
<!-- 6 -->
<g id="node7" class="node"><title>6</title>
<ellipse fill="black" stroke="black" cx="85.637" cy="-1.8" rx="1.8" ry="1.8"/>
</g>
<!-- 0&#45;&#45;6 -->
<g id="edge6" class="edge"><title>0&#45;&#45;6</title>
<path fill="none" stroke="black" d="M79.1493,-62.7903C80.1077,-53.7804 84.356,-13.8421 85.4031,-3.99834"/>
</g>
<!-- 7 -->
<g id="node8" class="node"><title>7</title>
<ellipse fill="black" stroke="black" cx="180.903" cy="-54.8505" rx="1.8" ry="1.8"/>
</g>
<!-- 0&#45;&#45;7 -->
<g id="edge7" class="edge"><title>0&#45;&#45;7</title>
<path fill="none" stroke="black" d="M81.0859,-64.3984C94.3532,-63.1294 165.552,-56.3189 178.785,-55.053"/>
</g>
<!-- 8 -->
<g id="node9" class="node"><title>8</title>
<ellipse fill="black" stroke="black" cx="1.8" cy="-77.785" rx="1.8" ry="1.8"/>
</g>
<!-- 0&#45;&#45;8 -->
<g id="edge8" class="edge"><title>0&#45;&#45;8</title>
<path fill="none" stroke="black" d="M77.0493,-64.928C66.3746,-66.7519 14.1405,-75.6765 3.64058,-77.4705"/>
</g>
<!-- 1&#45;&#45;2 -->
<g id="edge9" class="edge"><title>1&#45;&#45;2</title>
<path fill="none" stroke="black" d="M135.899,-89.7368C132.379,-85.0546 121.412,-70.4632 117.747,-65.5857"/>
</g>
<!-- 1&#45;&#45;3 -->
<g id="edge10" class="edge"><title>1&#45;&#45;3</title>
<path fill="none" stroke="black" d="M135.058,-91.9588C124.195,-96.2039 71.0396,-116.976 60.3545,-121.151"/>
</g>
<!-- 1&#45;&#45;4 -->
<g id="edge11" class="edge"><title>1&#45;&#45;4</title>
<path fill="none" stroke="black" d="M137.127,-89.1738C137.843,-77.8313 141.351,-22.3299 142.056,-11.1732"/>
</g>
<!-- 1&#45;&#45;5 -->
<g id="edge12" class="edge"><title>1&#45;&#45;5</title>
<path fill="none" stroke="black" d="M136.168,-93.0188C132.375,-101.317 116.733,-135.546 112.882,-143.974"/>
</g>
<!-- 1&#45;&#45;6 -->
<g id="edge13" class="edge"><title>1&#45;&#45;6</title>
<path fill="none" stroke="black" d="M135.926,-89.3331C129.184,-77.5982 92.7502,-14.1814 86.538,-3.36826"/>
</g>
<!-- 1&#45;&#45;7 -->
<g id="edge14" class="edge"><title>1&#45;&#45;7</title>
<path fill="none" stroke="black" d="M138.459,-89.9909C145.125,-84.4721 172.622,-61.7068 179.392,-56.1017"/>
</g>
<!-- 2&#45;&#45;3 -->
<g id="edge15" class="edge"><title>2&#45;&#45;3</title>
<path fill="none" stroke="black" d="M115.104,-65.4109C107.142,-73.3523 68.4485,-111.943 60.0796,-120.289"/>
</g>
<!-- 2&#45;&#45;4 -->
<g id="edge16" class="edge"><title>2&#45;&#45;4</title>
<path fill="none" stroke="black" d="M117.392,-62.1575C121.285,-53.8432 137.343,-19.5467 141.297,-11.1025"/>
</g>
<!-- 2&#45;&#45;5 -->
<g id="edge17" class="edge"><title>2&#45;&#45;5</title>
<path fill="none" stroke="black" d="M116.428,-66.0034C115.803,-77.3311 112.744,-132.76 112.13,-143.902"/>
</g>
<!-- 2&#45;&#45;6 -->
<g id="edge18" class="edge"><title>2&#45;&#45;6</title>
<path fill="none" stroke="black" d="M115.648,-62.1857C111.135,-53.1058 90.8557,-12.3007 86.4735,-3.48327"/>
</g>
<!-- 2&#45;&#45;7 -->
<g id="edge19" class="edge"><title>2&#45;&#45;7</title>
<path fill="none" stroke="black" d="M118.396,-63.7162C127.63,-62.4064 168.561,-56.6009 178.65,-55.17"/>
</g>
<!-- 3&#45;&#45;5 -->
<g id="edge20" class="edge"><title>3&#45;&#45;5</title>
<path fill="none" stroke="black" d="M60.2628,-122.681C68.3917,-126.321 101.923,-141.334 110.179,-145.03"/>
</g>
<!-- 3&#45;&#45;8 -->
<g id="edge21" class="edge"><title>3&#45;&#45;8</title>
<path fill="none" stroke="black" d="M56.5956,-120.416C47.8362,-113.601 11.2149,-85.1098 3.30878,-78.9588"/>
</g>
<!-- 4&#45;&#45;6 -->
<g id="edge22" class="edge"><title>4&#45;&#45;6</title>
<path fill="none" stroke="black" d="M140.298,-8.97068C131.713,-7.84451 96.302,-3.19909 87.5833,-2.05533"/>
</g>
<!-- 4&#45;&#45;7 -->
<g id="edge23" class="edge"><title>4&#45;&#45;7</title>
<path fill="none" stroke="black" d="M143.468,-10.7358C149.347,-17.664 173.599,-46.2432 179.57,-53.2797"/>
</g>
</g>
</svg>
