<?xml version="1.0" encoding="UTF-8" standalone="no"?>
<!DOCTYPE svg PUBLIC "-//W3C//DTD SVG 1.1//EN"
 "http://www.w3.org/Graphics/SVG/1.1/DTD/svg11.dtd">
<!-- Generated by graphviz version 2.36.0 (20140111.2315)
 -->
<!-- Title: %3 Pages: 1 -->
<svg width="312pt" height="175pt"
 viewBox="0.00 0.00 312.18 174.52" xmlns="http://www.w3.org/2000/svg" xmlns:xlink="http://www.w3.org/1999/xlink">
<g id="graph0" class="graph" transform="scale(1 1) rotate(0) translate(4 170.522)">
<title>%3</title>
<!-- 0 -->
<g id="node1" class="node"><title>0</title>
<ellipse fill="black" stroke="black" cx="156.158" cy="-84.7141" rx="1.8" ry="1.8"/>
</g>
<!-- 1 -->
<g id="node2" class="node"><title>1</title>
<ellipse fill="black" stroke="black" cx="229.991" cy="-69.9966" rx="1.8" ry="1.8"/>
</g>
<!-- 0&#45;&#45;1 -->
<g id="edge1" class="edge"><title>0&#45;&#45;1</title>
<path fill="none" stroke="black" d="M157.983,-84.3503C168.109,-82.3318 217.315,-72.5232 227.958,-70.4017"/>
</g>
<!-- 2 -->
<g id="node3" class="node"><title>2</title>
<ellipse fill="black" stroke="black" cx="187.103" cy="-142.031" rx="1.8" ry="1.8"/>
</g>
<!-- 0&#45;&#45;2 -->
<g id="edge2" class="edge"><title>0&#45;&#45;2</title>
<path fill="none" stroke="black" d="M157.188,-86.6212C161.886,-95.3234 181.266,-131.22 186.037,-140.058"/>
</g>
<!-- 3 -->
<g id="node4" class="node"><title>3</title>
<ellipse fill="black" stroke="black" cx="234.428" cy="-127.324" rx="1.8" ry="1.8"/>
</g>
<!-- 0&#45;&#45;3 -->
<g id="edge3" class="edge"><title>0&#45;&#45;3</title>
<path fill="none" stroke="black" d="M157.793,-85.6041C167.979,-91.1494 222.642,-120.908 232.802,-126.439"/>
</g>
<!-- 4 -->
<g id="node5" class="node"><title>4</title>
<ellipse fill="black" stroke="black" cx="126.349" cy="-164.722" rx="1.8" ry="1.8"/>
</g>
<!-- 0&#45;&#45;4 -->
<g id="edge4" class="edge"><title>0&#45;&#45;4</title>
<path fill="none" stroke="black" d="M155.421,-86.6919C151.297,-97.7611 131.116,-151.925 127.06,-162.813"/>
</g>
<!-- 5 -->
<g id="node6" class="node"><title>5</title>
<ellipse fill="black" stroke="black" cx="76.4145" cy="-70.5401" rx="1.8" ry="1.8"/>
</g>
<!-- 0&#45;&#45;5 -->
<g id="edge5" class="edge"><title>0&#45;&#45;5</title>
<path fill="none" stroke="black" d="M154.187,-84.3638C143.154,-82.4027 89.1688,-72.8071 78.3168,-70.8782"/>
</g>
<!-- 7 -->
<g id="node7" class="node"><title>7</title>
<ellipse fill="black" stroke="black" cx="151.906" cy="-1.8" rx="1.8" ry="1.8"/>
</g>
<!-- 0&#45;&#45;7 -->
<g id="edge6" class="edge"><title>0&#45;&#45;7</title>
<path fill="none" stroke="black" d="M156.053,-82.6646C155.465,-71.1932 152.586,-15.0614 152.007,-3.77793"/>
</g>
<!-- 1&#45;&#45;2 -->
<g id="edge7" class="edge"><title>1&#45;&#45;2</title>
<path fill="none" stroke="black" d="M228.93,-71.7773C222.997,-81.7434 193.962,-130.51 188.126,-140.313"/>
</g>
<!-- 1&#45;&#45;3 -->
<g id="edge8" class="edge"><title>1&#45;&#45;3</title>
<path fill="none" stroke="black" d="M230.138,-71.904C230.812,-80.6079 233.591,-116.511 234.275,-125.351"/>
</g>
<!-- 8 -->
<g id="node8" class="node"><title>8</title>
<ellipse fill="black" stroke="black" cx="302.38" cy="-40.3398" rx="1.8" ry="1.8"/>
</g>
<!-- 1&#45;&#45;8 -->
<g id="edge9" class="edge"><title>1&#45;&#45;8</title>
<path fill="none" stroke="black" d="M231.78,-69.2635C241.795,-65.1604 290.802,-45.0831 300.654,-41.0472"/>
</g>
<!-- 2&#45;&#45;3 -->
<g id="edge10" class="edge"><title>2&#45;&#45;3</title>
<path fill="none" stroke="black" d="M189.136,-141.399C196.921,-138.98 224.775,-130.324 232.455,-127.938"/>
</g>
<!-- 2&#45;&#45;4 -->
<g id="edge11" class="edge"><title>2&#45;&#45;4</title>
<path fill="none" stroke="black" d="M185.35,-142.686C176.634,-145.941 137.998,-160.371 128.475,-163.927"/>
</g>
<!-- 6 -->
<g id="node9" class="node"><title>6</title>
<ellipse fill="black" stroke="black" cx="1.8" cy="-58.928" rx="1.8" ry="1.8"/>
</g>
<!-- 5&#45;&#45;6 -->
<g id="edge12" class="edge"><title>5&#45;&#45;6</title>
<path fill="none" stroke="black" d="M74.5701,-70.253C64.247,-68.6465 13.7339,-60.7853 3.57994,-59.205"/>
</g>
</g>
</svg>
