<?xml version="1.0" encoding="UTF-8" standalone="no"?>
<!DOCTYPE svg PUBLIC "-//W3C//DTD SVG 1.1//EN"
 "http://www.w3.org/Graphics/SVG/1.1/DTD/svg11.dtd">
<!-- Generated by graphviz version 2.36.0 (20140111.2315)
 -->
<!-- Title: %3 Pages: 1 -->
<svg width="154pt" height="153pt"
 viewBox="0.00 0.00 153.50 152.69" xmlns="http://www.w3.org/2000/svg" xmlns:xlink="http://www.w3.org/1999/xlink">
<g id="graph0" class="graph" transform="scale(1 1) rotate(0) translate(4 148.692)">
<title>%3</title>
<!-- 0 -->
<g id="node1" class="node"><title>0</title>
<ellipse fill="black" stroke="black" cx="79.7963" cy="-80.9598" rx="1.8" ry="1.8"/>
</g>
<!-- 1 -->
<g id="node2" class="node"><title>1</title>
<ellipse fill="black" stroke="black" cx="88.5304" cy="-42.139" rx="1.8" ry="1.8"/>
</g>
<!-- 0&#45;&#45;1 -->
<g id="edge1" class="edge"><title>0&#45;&#45;1</title>
<path fill="none" stroke="black" d="M80.2659,-78.8726C81.7966,-72.069 86.6278,-50.5953 88.1002,-44.0509"/>
</g>
<!-- 2 -->
<g id="node3" class="node"><title>2</title>
<ellipse fill="black" stroke="black" cx="40.7861" cy="-87.2794" rx="1.8" ry="1.8"/>
</g>
<!-- 0&#45;&#45;2 -->
<g id="edge2" class="edge"><title>0&#45;&#45;2</title>
<path fill="none" stroke="black" d="M77.699,-81.2995C70.8622,-82.4071 49.2837,-85.9028 42.7073,-86.9681"/>
</g>
<!-- 3 -->
<g id="node4" class="node"><title>3</title>
<ellipse fill="black" stroke="black" cx="1.8" cy="-57.6385" rx="1.8" ry="1.8"/>
</g>
<!-- 0&#45;&#45;3 -->
<g id="edge3" class="edge"><title>0&#45;&#45;3</title>
<path fill="none" stroke="black" d="M77.8683,-80.3833C67.0774,-77.1567 14.2748,-61.3685 3.66062,-58.1948"/>
</g>
<!-- 4 -->
<g id="node5" class="node"><title>4</title>
<ellipse fill="black" stroke="black" cx="137.282" cy="-85.7073" rx="1.8" ry="1.8"/>
</g>
<!-- 0&#45;&#45;4 -->
<g id="edge4" class="edge"><title>0&#45;&#45;4</title>
<path fill="none" stroke="black" d="M81.709,-81.1177C90.4369,-81.8385 126.439,-84.8118 135.304,-85.5439"/>
</g>
<!-- 5 -->
<g id="node6" class="node"><title>5</title>
<ellipse fill="black" stroke="black" cx="85.0476" cy="-137.981" rx="1.8" ry="1.8"/>
</g>
<!-- 0&#45;&#45;5 -->
<g id="edge5" class="edge"><title>0&#45;&#45;5</title>
<path fill="none" stroke="black" d="M79.9711,-82.857C80.7683,-91.5142 84.0571,-127.225 84.8669,-136.018"/>
</g>
<!-- 6 -->
<g id="node7" class="node"><title>6</title>
<ellipse fill="black" stroke="black" cx="21.9717" cy="-16.4724" rx="1.8" ry="1.8"/>
</g>
<!-- 0&#45;&#45;6 -->
<g id="edge6" class="edge"><title>0&#45;&#45;6</title>
<path fill="none" stroke="black" d="M78.367,-79.3657C70.4364,-70.5213 31.8987,-27.5432 23.5635,-18.2475"/>
</g>
<!-- 7 -->
<g id="node8" class="node"><title>7</title>
<ellipse fill="black" stroke="black" cx="61.0582" cy="-1.8" rx="1.8" ry="1.8"/>
</g>
<!-- 0&#45;&#45;7 -->
<g id="edge7" class="edge"><title>0&#45;&#45;7</title>
<path fill="none" stroke="black" d="M79.3331,-79.003C76.7407,-68.0511 64.0552,-14.4609 61.5052,-3.68837"/>
</g>
<!-- 8 -->
<g id="node9" class="node"><title>8</title>
<ellipse fill="black" stroke="black" cx="143.704" cy="-142.892" rx="1.8" ry="1.8"/>
</g>
<!-- 0&#45;&#45;8 -->
<g id="edge8" class="edge"><title>0&#45;&#45;8</title>
<path fill="none" stroke="black" d="M81.3761,-82.4907C90.2948,-91.1336 134.238,-133.718 142.399,-141.627"/>
</g>
<!-- 1&#45;&#45;2 -->
<g id="edge9" class="edge"><title>1&#45;&#45;2</title>
<path fill="none" stroke="black" d="M86.9418,-43.6409C79.693,-50.4944 49.7916,-78.765 42.4296,-85.7255"/>
</g>
<!-- 1&#45;&#45;3 -->
<g id="edge10" class="edge"><title>1&#45;&#45;3</title>
<path fill="none" stroke="black" d="M86.7189,-42.4627C75.4317,-44.4798 14.8596,-55.3046 3.60152,-57.3165"/>
</g>
<!-- 1&#45;&#45;4 -->
<g id="edge11" class="edge"><title>1&#45;&#45;4</title>
<path fill="none" stroke="black" d="M90.1524,-43.5886C97.5543,-50.2034 128.087,-77.4894 135.604,-84.2076"/>
</g>
<!-- 1&#45;&#45;5 -->
<g id="edge12" class="edge"><title>1&#45;&#45;5</title>
<path fill="none" stroke="black" d="M88.4576,-44.1408C88.0044,-56.6137 85.5721,-123.549 85.12,-135.99"/>
</g>
<!-- 1&#45;&#45;6 -->
<g id="edge13" class="edge"><title>1&#45;&#45;6</title>
<path fill="none" stroke="black" d="M86.6102,-41.3985C76.8908,-37.6505 33.212,-20.8069 23.7736,-17.1672"/>
</g>
<!-- 1&#45;&#45;7 -->
<g id="edge14" class="edge"><title>1&#45;&#45;7</title>
<path fill="none" stroke="black" d="M87.3499,-40.4057C82.831,-33.7703 66.6618,-10.0282 62.2036,-3.48196"/>
</g>
<!-- 2&#45;&#45;3 -->
<g id="edge15" class="edge"><title>2&#45;&#45;3</title>
<path fill="none" stroke="black" d="M39.1109,-86.0057C32.6981,-81.1301 9.75225,-63.6845 3.42555,-58.8744"/>
</g>
<!-- 2&#45;&#45;4 -->
<g id="edge16" class="edge"><title>2&#45;&#45;4</title>
<path fill="none" stroke="black" d="M42.8016,-87.2465C55.3597,-87.042 122.752,-85.944 135.278,-85.74"/>
</g>
<!-- 2&#45;&#45;5 -->
<g id="edge17" class="edge"><title>2&#45;&#45;5</title>
<path fill="none" stroke="black" d="M42.2588,-88.9663C48.9788,-96.6641 76.699,-128.418 83.5241,-136.236"/>
</g>
<!-- 2&#45;&#45;6 -->
<g id="edge18" class="edge"><title>2&#45;&#45;6</title>
<path fill="none" stroke="black" d="M40.321,-85.5291C37.7407,-75.818 25.2017,-28.6281 22.4896,-18.4215"/>
</g>
<!-- 2&#45;&#45;7 -->
<g id="edge19" class="edge"><title>2&#45;&#45;7</title>
<path fill="none" stroke="black" d="M41.2095,-85.494C43.8477,-74.3697 58.0056,-14.6712 60.6371,-3.57554"/>
</g>
<!-- 3&#45;&#45;6 -->
<g id="edge20" class="edge"><title>3&#45;&#45;6</title>
<path fill="none" stroke="black" d="M2.66675,-55.8696C5.9848,-49.0982 17.8572,-24.8693 21.1307,-18.1888"/>
</g>
<!-- 3&#45;&#45;7 -->
<g id="edge21" class="edge"><title>3&#45;&#45;7</title>
<path fill="none" stroke="black" d="M3.26482,-56.2582C11.392,-48.6 50.8851,-11.386 59.4269,-3.33708"/>
</g>
<!-- 4&#45;&#45;5 -->
<g id="edge22" class="edge"><title>4&#45;&#45;5</title>
<path fill="none" stroke="black" d="M135.991,-86.9995C128.827,-94.1687 94.015,-129.007 86.4855,-136.542"/>
</g>
<!-- 4&#45;&#45;8 -->
<g id="edge23" class="edge"><title>4&#45;&#45;8</title>
<path fill="none" stroke="black" d="M137.496,-87.61C138.471,-96.2921 142.493,-132.106 143.483,-140.924"/>
</g>
<!-- 5&#45;&#45;8 -->
<g id="edge24" class="edge"><title>5&#45;&#45;8</title>
<path fill="none" stroke="black" d="M86.9992,-138.144C95.9049,-138.89 132.64,-141.966 141.685,-142.723"/>
</g>
</g>
</svg>
