<?xml version="1.0" encoding="UTF-8" standalone="no"?>
<!DOCTYPE svg PUBLIC "-//W3C//DTD SVG 1.1//EN"
 "http://www.w3.org/Graphics/SVG/1.1/DTD/svg11.dtd">
<!-- Generated by graphviz version 2.36.0 (20140111.2315)
 -->
<!-- Title: %3 Pages: 1 -->
<svg width="181pt" height="150pt"
 viewBox="0.00 0.00 180.51 149.55" xmlns="http://www.w3.org/2000/svg" xmlns:xlink="http://www.w3.org/1999/xlink">
<g id="graph0" class="graph" transform="scale(1 1) rotate(0) translate(4 145.545)">
<title>%3</title>
<!-- 0 -->
<g id="node1" class="node"><title>0</title>
<ellipse fill="black" stroke="black" cx="83.2992" cy="-115.783" rx="1.8" ry="1.8"/>
</g>
<!-- 1 -->
<g id="node2" class="node"><title>1</title>
<ellipse fill="black" stroke="black" cx="114.023" cy="-68.0703" rx="1.8" ry="1.8"/>
</g>
<!-- 0&#45;&#45;1 -->
<g id="edge1" class="edge"><title>0&#45;&#45;1</title>
<path fill="none" stroke="black" d="M84.3215,-114.196C88.9862,-106.952 108.228,-77.07 112.966,-69.7127"/>
</g>
<!-- 2 -->
<g id="node3" class="node"><title>2</title>
<ellipse fill="black" stroke="black" cx="66.6224" cy="-61.6323" rx="1.8" ry="1.8"/>
</g>
<!-- 0&#45;&#45;2 -->
<g id="edge2" class="edge"><title>0&#45;&#45;2</title>
<path fill="none" stroke="black" d="M82.7443,-113.982C80.2124,-105.76 69.768,-71.8463 67.1964,-63.4963"/>
</g>
<!-- 3 -->
<g id="node4" class="node"><title>3</title>
<ellipse fill="black" stroke="black" cx="154.43" cy="-71.1665" rx="1.8" ry="1.8"/>
</g>
<!-- 0&#45;&#45;3 -->
<g id="edge3" class="edge"><title>0&#45;&#45;3</title>
<path fill="none" stroke="black" d="M85.0575,-114.68C94.8986,-108.508 143.053,-78.3026 152.733,-72.2308"/>
</g>
<!-- 4 -->
<g id="node5" class="node"><title>4</title>
<ellipse fill="black" stroke="black" cx="122.268" cy="-139.745" rx="1.8" ry="1.8"/>
</g>
<!-- 0&#45;&#45;4 -->
<g id="edge4" class="edge"><title>0&#45;&#45;4</title>
<path fill="none" stroke="black" d="M84.9736,-116.813C91.3836,-120.754 114.319,-134.858 120.643,-138.746"/>
</g>
<!-- 5 -->
<g id="node6" class="node"><title>5</title>
<ellipse fill="black" stroke="black" cx="30.0336" cy="-117.443" rx="1.8" ry="1.8"/>
</g>
<!-- 0&#45;&#45;5 -->
<g id="edge5" class="edge"><title>0&#45;&#45;5</title>
<path fill="none" stroke="black" d="M81.0105,-115.855C72.2488,-116.128 40.8986,-117.104 32.2546,-117.374"/>
</g>
<!-- 6 -->
<g id="node7" class="node"><title>6</title>
<ellipse fill="black" stroke="black" cx="1.8" cy="-70.8377" rx="1.8" ry="1.8"/>
</g>
<!-- 0&#45;&#45;6 -->
<g id="edge6" class="edge"><title>0&#45;&#45;6</title>
<path fill="none" stroke="black" d="M81.597,-114.845C70.9906,-108.995 14.0719,-77.6054 3.49286,-71.7713"/>
</g>
<!-- 7 -->
<g id="node8" class="node"><title>7</title>
<ellipse fill="black" stroke="black" cx="170.709" cy="-128.609" rx="1.8" ry="1.8"/>
</g>
<!-- 0&#45;&#45;7 -->
<g id="edge7" class="edge"><title>0&#45;&#45;7</title>
<path fill="none" stroke="black" d="M85.1249,-116.051C96.5005,-117.72 157.547,-126.678 168.894,-128.343"/>
</g>
<!-- 1&#45;&#45;2 -->
<g id="edge8" class="edge"><title>1&#45;&#45;2</title>
<path fill="none" stroke="black" d="M111.987,-67.7937C104.19,-66.7347 76.2911,-62.9455 68.5988,-61.9007"/>
</g>
<!-- 1&#45;&#45;3 -->
<g id="edge9" class="edge"><title>1&#45;&#45;3</title>
<path fill="none" stroke="black" d="M116.196,-68.2368C123.277,-68.7794 145.628,-70.4921 152.44,-71.014"/>
</g>
<!-- 1&#45;&#45;4 -->
<g id="edge10" class="edge"><title>1&#45;&#45;4</title>
<path fill="none" stroke="black" d="M114.261,-70.1381C115.465,-80.6046 120.875,-127.641 122.045,-137.805"/>
</g>
<!-- 1&#45;&#45;5 -->
<g id="edge11" class="edge"><title>1&#45;&#45;5</title>
<path fill="none" stroke="black" d="M112.269,-69.1015C101.339,-75.5269 42.6806,-110.008 31.7782,-116.417"/>
</g>
<!-- 1&#45;&#45;7 -->
<g id="edge12" class="edge"><title>1&#45;&#45;7</title>
<path fill="none" stroke="black" d="M115.425,-69.5668C123.199,-77.8696 160.978,-118.216 169.149,-126.943"/>
</g>
<!-- 8 -->
<g id="node9" class="node"><title>8</title>
<ellipse fill="black" stroke="black" cx="162.35" cy="-1.8" rx="1.8" ry="1.8"/>
</g>
<!-- 1&#45;&#45;8 -->
<g id="edge13" class="edge"><title>1&#45;&#45;8</title>
<path fill="none" stroke="black" d="M115.218,-66.4322C121.846,-57.3433 154.053,-13.1769 161.019,-3.62424"/>
</g>
<!-- 2&#45;&#45;3 -->
<g id="edge14" class="edge"><title>2&#45;&#45;3</title>
<path fill="none" stroke="black" d="M68.4564,-61.8314C79.8837,-63.0722 141.208,-69.7309 152.606,-70.9685"/>
</g>
<!-- 2&#45;&#45;4 -->
<g id="edge15" class="edge"><title>2&#45;&#45;4</title>
<path fill="none" stroke="black" d="M67.7846,-63.2638C75.0263,-73.4295 113.889,-127.983 121.112,-138.123"/>
</g>
<!-- 2&#45;&#45;5 -->
<g id="edge16" class="edge"><title>2&#45;&#45;5</title>
<path fill="none" stroke="black" d="M65.405,-63.4892C59.8499,-71.9627 36.935,-106.916 31.2931,-115.522"/>
</g>
<!-- 2&#45;&#45;6 -->
<g id="edge17" class="edge"><title>2&#45;&#45;6</title>
<path fill="none" stroke="black" d="M64.7523,-61.8979C55.4525,-63.2185 14.2295,-69.0726 4.06905,-70.5154"/>
</g>
<!-- 3&#45;&#45;4 -->
<g id="edge18" class="edge"><title>3&#45;&#45;4</title>
<path fill="none" stroke="black" d="M153.635,-72.8617C149.224,-82.2672 127.789,-127.972 123.153,-137.857"/>
</g>
<!-- 3&#45;&#45;7 -->
<g id="edge19" class="edge"><title>3&#45;&#45;7</title>
<path fill="none" stroke="black" d="M154.972,-73.0777C157.443,-81.799 167.639,-117.774 170.149,-126.632"/>
</g>
<!-- 3&#45;&#45;8 -->
<g id="edge20" class="edge"><title>3&#45;&#45;8</title>
<path fill="none" stroke="black" d="M154.658,-69.1653C155.815,-59.0359 161.012,-13.5145 162.135,-3.67783"/>
</g>
<!-- 5&#45;&#45;6 -->
<g id="edge21" class="edge"><title>5&#45;&#45;6</title>
<path fill="none" stroke="black" d="M29.0943,-115.892C24.8077,-108.816 7.12544,-79.6283 2.77187,-72.4419"/>
</g>
</g>
</svg>
