<?xml version="1.0" encoding="UTF-8" standalone="no"?>
<!DOCTYPE svg PUBLIC "-//W3C//DTD SVG 1.1//EN"
 "http://www.w3.org/Graphics/SVG/1.1/DTD/svg11.dtd">
<!-- Generated by graphviz version 2.36.0 (20140111.2315)
 -->
<!-- Title: %3 Pages: 1 -->
<svg width="153pt" height="231pt"
 viewBox="0.00 0.00 153.17 230.55" xmlns="http://www.w3.org/2000/svg" xmlns:xlink="http://www.w3.org/1999/xlink">
<g id="graph0" class="graph" transform="scale(1 1) rotate(0) translate(4 226.551)">
<title>%3</title>
<!-- 0 -->
<g id="node1" class="node"><title>0</title>
<ellipse fill="black" stroke="black" cx="63.238" cy="-133.284" rx="1.8" ry="1.8"/>
</g>
<!-- 1 -->
<g id="node2" class="node"><title>1</title>
<ellipse fill="black" stroke="black" cx="79.5954" cy="-168.609" rx="1.8" ry="1.8"/>
</g>
<!-- 0&#45;&#45;1 -->
<g id="edge1" class="edge"><title>0&#45;&#45;1</title>
<path fill="none" stroke="black" d="M64.1174,-135.184C66.9842,-141.375 76.0323,-160.915 78.7898,-166.87"/>
</g>
<!-- 2 -->
<g id="node3" class="node"><title>2</title>
<ellipse fill="black" stroke="black" cx="86.4422" cy="-78.9203" rx="1.8" ry="1.8"/>
</g>
<!-- 0&#45;&#45;2 -->
<g id="edge2" class="edge"><title>0&#45;&#45;2</title>
<path fill="none" stroke="black" d="M64.01,-131.476C67.533,-123.222 82.0654,-89.1745 85.6435,-80.7917"/>
</g>
<!-- 3 -->
<g id="node4" class="node"><title>3</title>
<ellipse fill="black" stroke="black" cx="15.2297" cy="-204.408" rx="1.8" ry="1.8"/>
</g>
<!-- 0&#45;&#45;3 -->
<g id="edge3" class="edge"><title>0&#45;&#45;3</title>
<path fill="none" stroke="black" d="M62.0513,-135.043C55.4092,-144.883 22.9082,-193.033 16.3749,-202.711"/>
</g>
<!-- 4 -->
<g id="node5" class="node"><title>4</title>
<ellipse fill="black" stroke="black" cx="63.159" cy="-220.751" rx="1.8" ry="1.8"/>
</g>
<!-- 0&#45;&#45;4 -->
<g id="edge4" class="edge"><title>0&#45;&#45;4</title>
<path fill="none" stroke="black" d="M63.2363,-135.111C63.2261,-146.494 63.1709,-207.581 63.1606,-218.934"/>
</g>
<!-- 5 -->
<g id="node6" class="node"><title>5</title>
<ellipse fill="black" stroke="black" cx="139.522" cy="-140.948" rx="1.8" ry="1.8"/>
</g>
<!-- 0&#45;&#45;5 -->
<g id="edge5" class="edge"><title>0&#45;&#45;5</title>
<path fill="none" stroke="black" d="M65.1237,-133.474C75.6776,-134.534 127.321,-139.722 137.702,-140.765"/>
</g>
<!-- 6 -->
<g id="node7" class="node"><title>6</title>
<ellipse fill="black" stroke="black" cx="1.8" cy="-157.903" rx="1.8" ry="1.8"/>
</g>
<!-- 0&#45;&#45;6 -->
<g id="edge6" class="edge"><title>0&#45;&#45;6</title>
<path fill="none" stroke="black" d="M61.4655,-133.995C52.6513,-137.527 13.5806,-153.182 3.95059,-157.041"/>
</g>
<!-- 7 -->
<g id="node8" class="node"><title>7</title>
<ellipse fill="black" stroke="black" cx="143.366" cy="-88.313" rx="1.8" ry="1.8"/>
</g>
<!-- 0&#45;&#45;7 -->
<g id="edge7" class="edge"><title>0&#45;&#45;7</title>
<path fill="none" stroke="black" d="M64.9116,-132.345C75.3394,-126.493 131.3,-95.0846 141.701,-89.2471"/>
</g>
<!-- 1&#45;&#45;2 -->
<g id="edge8" class="edge"><title>1&#45;&#45;2</title>
<path fill="none" stroke="black" d="M79.7384,-166.736C80.6294,-155.064 85.4112,-92.4254 86.3,-80.7833"/>
</g>
<!-- 1&#45;&#45;3 -->
<g id="edge9" class="edge"><title>1&#45;&#45;3</title>
<path fill="none" stroke="black" d="M78.0043,-169.494C69.1766,-174.404 26.2796,-198.262 17.0015,-203.423"/>
</g>
<!-- 1&#45;&#45;4 -->
<g id="edge10" class="edge"><title>1&#45;&#45;4</title>
<path fill="none" stroke="black" d="M79.0485,-170.344C76.553,-178.261 66.2592,-210.916 63.7247,-218.956"/>
</g>
<!-- 1&#45;&#45;5 -->
<g id="edge11" class="edge"><title>1&#45;&#45;5</title>
<path fill="none" stroke="black" d="M81.3242,-167.811C89.9216,-163.843 128.031,-146.252 137.424,-141.916"/>
</g>
<!-- 1&#45;&#45;6 -->
<g id="edge12" class="edge"><title>1&#45;&#45;6</title>
<path fill="none" stroke="black" d="M77.6723,-168.345C66.9092,-166.864 14.2427,-159.615 3.65582,-158.158"/>
</g>
<!-- 2&#45;&#45;5 -->
<g id="edge13" class="edge"><title>2&#45;&#45;5</title>
<path fill="none" stroke="black" d="M87.7543,-80.4536C95.0341,-88.9606 130.409,-130.299 138.06,-139.24"/>
</g>
<!-- 2&#45;&#45;7 -->
<g id="edge14" class="edge"><title>2&#45;&#45;7</title>
<path fill="none" stroke="black" d="M88.3362,-79.2328C96.9786,-80.6589 132.629,-86.5413 141.406,-87.9897"/>
</g>
<!-- 8 -->
<g id="node9" class="node"><title>8</title>
<ellipse fill="black" stroke="black" cx="73.2693" cy="-1.8" rx="1.8" ry="1.8"/>
</g>
<!-- 2&#45;&#45;8 -->
<g id="edge15" class="edge"><title>2&#45;&#45;8</title>
<path fill="none" stroke="black" d="M86.1166,-77.014C84.2941,-66.3442 75.3762,-14.1347 73.5835,-3.63972"/>
</g>
<!-- 3&#45;&#45;4 -->
<g id="edge16" class="edge"><title>3&#45;&#45;4</title>
<path fill="none" stroke="black" d="M17.2891,-205.11C25.173,-207.799 53.3825,-217.418 61.1605,-220.07"/>
</g>
<!-- 3&#45;&#45;6 -->
<g id="edge17" class="edge"><title>3&#45;&#45;6</title>
<path fill="none" stroke="black" d="M14.6526,-202.41C12.4436,-194.76 4.53934,-167.389 2.35996,-159.842"/>
</g>
<!-- 4&#45;&#45;6 -->
<g id="edge18" class="edge"><title>4&#45;&#45;6</title>
<path fill="none" stroke="black" d="M61.6422,-219.198C53.2269,-210.578 12.3337,-168.692 3.48904,-159.633"/>
</g>
<!-- 5&#45;&#45;7 -->
<g id="edge19" class="edge"><title>5&#45;&#45;7</title>
<path fill="none" stroke="black" d="M139.687,-138.686C140.319,-130.028 142.581,-99.0492 143.205,-90.5076"/>
</g>
</g>
</svg>
