<?xml version="1.0" encoding="UTF-8" standalone="no"?>
<!DOCTYPE svg PUBLIC "-//W3C//DTD SVG 1.1//EN"
 "http://www.w3.org/Graphics/SVG/1.1/DTD/svg11.dtd">
<!-- Generated by graphviz version 2.36.0 (20140111.2315)
 -->
<!-- Title: %3 Pages: 1 -->
<svg width="182pt" height="163pt"
 viewBox="0.00 0.00 182.45 163.32" xmlns="http://www.w3.org/2000/svg" xmlns:xlink="http://www.w3.org/1999/xlink">
<g id="graph0" class="graph" transform="scale(1 1) rotate(0) translate(4 159.318)">
<title>%3</title>
<!-- 0 -->
<g id="node1" class="node"><title>0</title>
<ellipse fill="black" stroke="black" cx="99.6554" cy="-73.7725" rx="1.8" ry="1.8"/>
</g>
<!-- 1 -->
<g id="node2" class="node"><title>1</title>
<ellipse fill="black" stroke="black" cx="66.1871" cy="-67.9899" rx="1.8" ry="1.8"/>
</g>
<!-- 0&#45;&#45;1 -->
<g id="edge1" class="edge"><title>0&#45;&#45;1</title>
<path fill="none" stroke="black" d="M97.856,-73.4616C92.0991,-72.467 74.1589,-69.3673 68.162,-68.3312"/>
</g>
<!-- 2 -->
<g id="node3" class="node"><title>2</title>
<ellipse fill="black" stroke="black" cx="43.7146" cy="-122.32" rx="1.8" ry="1.8"/>
</g>
<!-- 0&#45;&#45;2 -->
<g id="edge2" class="edge"><title>0&#45;&#45;2</title>
<path fill="none" stroke="black" d="M98.2726,-74.9726C90.6004,-81.6308 53.3182,-113.986 45.2545,-120.984"/>
</g>
<!-- 3 -->
<g id="node4" class="node"><title>3</title>
<ellipse fill="black" stroke="black" cx="97.4826" cy="-153.518" rx="1.8" ry="1.8"/>
</g>
<!-- 0&#45;&#45;3 -->
<g id="edge3" class="edge"><title>0&#45;&#45;3</title>
<path fill="none" stroke="black" d="M99.6017,-75.7438C99.3011,-86.7767 97.8301,-140.763 97.5344,-151.616"/>
</g>
<!-- 4 -->
<g id="node5" class="node"><title>4</title>
<ellipse fill="black" stroke="black" cx="123.367" cy="-121.833" rx="1.8" ry="1.8"/>
</g>
<!-- 0&#45;&#45;4 -->
<g id="edge4" class="edge"><title>0&#45;&#45;4</title>
<path fill="none" stroke="black" d="M100.674,-75.8376C104.575,-83.743 118.531,-112.029 122.379,-119.829"/>
</g>
<!-- 5 -->
<g id="node6" class="node"><title>5</title>
<ellipse fill="black" stroke="black" cx="1.8" cy="-85.3027" rx="1.8" ry="1.8"/>
</g>
<!-- 0&#45;&#45;5 -->
<g id="edge5" class="edge"><title>0&#45;&#45;5</title>
<path fill="none" stroke="black" d="M97.6115,-74.0134C84.8766,-75.5139 16.5348,-83.5666 3.8326,-85.0632"/>
</g>
<!-- 6 -->
<g id="node7" class="node"><title>6</title>
<ellipse fill="black" stroke="black" cx="23.7743" cy="-35.0581" rx="1.8" ry="1.8"/>
</g>
<!-- 0&#45;&#45;6 -->
<g id="edge6" class="edge"><title>0&#45;&#45;6</title>
<path fill="none" stroke="black" d="M97.7797,-72.8155C87.2814,-67.4593 35.9109,-41.2501 25.5845,-35.9816"/>
</g>
<!-- 7 -->
<g id="node8" class="node"><title>7</title>
<ellipse fill="black" stroke="black" cx="172.647" cy="-114.631" rx="1.8" ry="1.8"/>
</g>
<!-- 0&#45;&#45;7 -->
<g id="edge7" class="edge"><title>0&#45;&#45;7</title>
<path fill="none" stroke="black" d="M101.46,-74.7825C111.558,-80.4353 160.973,-108.096 170.906,-113.656"/>
</g>
<!-- 8 -->
<g id="node9" class="node"><title>8</title>
<ellipse fill="black" stroke="black" cx="118.522" cy="-1.8" rx="1.8" ry="1.8"/>
</g>
<!-- 0&#45;&#45;8 -->
<g id="edge8" class="edge"><title>0&#45;&#45;8</title>
<path fill="none" stroke="black" d="M100.122,-71.9934C102.709,-62.1225 115.283,-14.1558 118.003,-3.78121"/>
</g>
<!-- 1&#45;&#45;2 -->
<g id="edge9" class="edge"><title>1&#45;&#45;2</title>
<path fill="none" stroke="black" d="M65.4394,-69.7976C62.0275,-78.0463 47.9534,-112.072 44.4881,-120.45"/>
</g>
<!-- 1&#45;&#45;3 -->
<g id="edge10" class="edge"><title>1&#45;&#45;3</title>
<path fill="none" stroke="black" d="M66.8408,-69.7763C70.9136,-80.907 92.7702,-140.639 96.8326,-151.741"/>
</g>
<!-- 1&#45;&#45;4 -->
<g id="edge11" class="edge"><title>1&#45;&#45;4</title>
<path fill="none" stroke="black" d="M67.6006,-69.3209C75.4428,-76.7053 113.551,-112.589 121.793,-120.35"/>
</g>
<!-- 1&#45;&#45;5 -->
<g id="edge12" class="edge"><title>1&#45;&#45;5</title>
<path fill="none" stroke="black" d="M64.3296,-68.4894C54.9273,-71.0176 12.6736,-82.379 3.54304,-84.8341"/>
</g>
<!-- 1&#45;&#45;6 -->
<g id="edge13" class="edge"><title>1&#45;&#45;6</title>
<path fill="none" stroke="black" d="M64.3647,-66.5749C57.3882,-61.158 32.4256,-41.7754 25.5428,-36.4312"/>
</g>
<!-- 1&#45;&#45;8 -->
<g id="edge14" class="edge"><title>1&#45;&#45;8</title>
<path fill="none" stroke="black" d="M67.4808,-66.3538C74.6585,-57.2759 109.538,-13.1631 117.082,-3.62203"/>
</g>
<!-- 2&#45;&#45;3 -->
<g id="edge15" class="edge"><title>2&#45;&#45;3</title>
<path fill="none" stroke="black" d="M45.5035,-123.358C53.6669,-128.095 87.3409,-147.633 95.6318,-152.444"/>
</g>
<!-- 2&#45;&#45;4 -->
<g id="edge16" class="edge"><title>2&#45;&#45;4</title>
<path fill="none" stroke="black" d="M45.6835,-122.308C56.7036,-122.241 110.628,-121.91 121.467,-121.844"/>
</g>
<!-- 2&#45;&#45;5 -->
<g id="edge17" class="edge"><title>2&#45;&#45;5</title>
<path fill="none" stroke="black" d="M42.32,-121.088C35.9563,-115.468 9.70594,-92.285 3.24279,-86.577"/>
</g>
<!-- 2&#45;&#45;6 -->
<g id="edge18" class="edge"><title>2&#45;&#45;6</title>
<path fill="none" stroke="black" d="M43.2981,-120.497C40.7031,-109.141 26.7769,-48.1977 24.1885,-36.8706"/>
</g>
<!-- 3&#45;&#45;4 -->
<g id="edge19" class="edge"><title>3&#45;&#45;4</title>
<path fill="none" stroke="black" d="M98.8743,-151.814C103.411,-146.261 117.729,-128.735 122.093,-123.393"/>
</g>
<!-- 3&#45;&#45;7 -->
<g id="edge20" class="edge"><title>3&#45;&#45;7</title>
<path fill="none" stroke="black" d="M99.3406,-152.557C109.74,-147.177 160.625,-120.85 170.854,-115.558"/>
</g>
<!-- 4&#45;&#45;7 -->
<g id="edge21" class="edge"><title>4&#45;&#45;7</title>
<path fill="none" stroke="black" d="M125.485,-121.523C133.591,-120.338 162.595,-116.1 170.592,-114.931"/>
</g>
<!-- 5&#45;&#45;6 -->
<g id="edge22" class="edge"><title>5&#45;&#45;6</title>
<path fill="none" stroke="black" d="M2.53113,-83.631C5.8674,-76.0026 19.6295,-44.5352 23.0179,-36.7876"/>
</g>
</g>
</svg>
