<?xml version="1.0" encoding="UTF-8" standalone="no"?>
<!DOCTYPE svg PUBLIC "-//W3C//DTD SVG 1.1//EN"
 "http://www.w3.org/Graphics/SVG/1.1/DTD/svg11.dtd">
<!-- Generated by graphviz version 2.36.0 (20140111.2315)
 -->
<!-- Title: %3 Pages: 1 -->
<svg width="162pt" height="152pt"
 viewBox="0.00 0.00 161.79 151.99" xmlns="http://www.w3.org/2000/svg" xmlns:xlink="http://www.w3.org/1999/xlink">
<g id="graph0" class="graph" transform="scale(1 1) rotate(0) translate(4 147.986)">
<title>%3</title>
<!-- 0 -->
<g id="node1" class="node"><title>0</title>
<ellipse fill="black" stroke="black" cx="49.1758" cy="-73.0997" rx="1.8" ry="1.8"/>
</g>
<!-- 1 -->
<g id="node2" class="node"><title>1</title>
<ellipse fill="black" stroke="black" cx="108.175" cy="-96.5106" rx="1.8" ry="1.8"/>
</g>
<!-- 0&#45;&#45;1 -->
<g id="edge1" class="edge"><title>0&#45;&#45;1</title>
<path fill="none" stroke="black" d="M50.8779,-73.7751C59.3423,-77.1338 96.8621,-92.0217 106.11,-95.6912"/>
</g>
<!-- 2 -->
<g id="node3" class="node"><title>2</title>
<ellipse fill="black" stroke="black" cx="1.8" cy="-70.1956" rx="1.8" ry="1.8"/>
</g>
<!-- 0&#45;&#45;2 -->
<g id="edge2" class="edge"><title>0&#45;&#45;2</title>
<path fill="none" stroke="black" d="M47.1401,-72.9749C39.3473,-72.4972 11.4636,-70.788 3.77536,-70.3167"/>
</g>
<!-- 3 -->
<g id="node4" class="node"><title>3</title>
<ellipse fill="black" stroke="black" cx="79.4342" cy="-21.4632" rx="1.8" ry="1.8"/>
</g>
<!-- 0&#45;&#45;3 -->
<g id="edge3" class="edge"><title>0&#45;&#45;3</title>
<path fill="none" stroke="black" d="M50.1826,-71.3817C54.7766,-63.5419 73.7269,-31.2029 78.3927,-23.2406"/>
</g>
<!-- 4 -->
<g id="node5" class="node"><title>4</title>
<ellipse fill="black" stroke="black" cx="65.5039" cy="-142.186" rx="1.8" ry="1.8"/>
</g>
<!-- 0&#45;&#45;4 -->
<g id="edge4" class="edge"><title>0&#45;&#45;4</title>
<path fill="none" stroke="black" d="M49.6469,-75.0928C52.0312,-85.1813 62.7464,-130.519 65.0619,-140.316"/>
</g>
<!-- 5 -->
<g id="node6" class="node"><title>5</title>
<ellipse fill="black" stroke="black" cx="19.1768" cy="-133.631" rx="1.8" ry="1.8"/>
</g>
<!-- 0&#45;&#45;5 -->
<g id="edge5" class="edge"><title>0&#45;&#45;5</title>
<path fill="none" stroke="black" d="M48.3103,-74.846C43.9297,-83.6853 24.243,-123.409 19.9889,-131.993"/>
</g>
<!-- 6 -->
<g id="node7" class="node"><title>6</title>
<ellipse fill="black" stroke="black" cx="13.1481" cy="-1.8" rx="1.8" ry="1.8"/>
</g>
<!-- 0&#45;&#45;6 -->
<g id="edge6" class="edge"><title>0&#45;&#45;6</title>
<path fill="none" stroke="black" d="M48.2852,-71.3372C43.3007,-61.4728 18.9104,-13.2038 14.0075,-3.50087"/>
</g>
<!-- 1&#45;&#45;3 -->
<g id="edge7" class="edge"><title>1&#45;&#45;3</title>
<path fill="none" stroke="black" d="M107.465,-94.6555C103.488,-84.2726 84.0311,-33.4663 80.1199,-23.2534"/>
</g>
<!-- 1&#45;&#45;4 -->
<g id="edge8" class="edge"><title>1&#45;&#45;4</title>
<path fill="none" stroke="black" d="M106.755,-98.0303C100.277,-104.965 73.5525,-133.57 66.9727,-140.614"/>
</g>
<!-- 1&#45;&#45;5 -->
<g id="edge9" class="edge"><title>1&#45;&#45;5</title>
<path fill="none" stroke="black" d="M106.316,-97.2859C94.7339,-102.117 32.5779,-128.042 21.0254,-132.86"/>
</g>
<!-- 7 -->
<g id="node8" class="node"><title>7</title>
<ellipse fill="black" stroke="black" cx="151.986" cy="-37.1041" rx="1.8" ry="1.8"/>
</g>
<!-- 1&#45;&#45;7 -->
<g id="edge10" class="edge"><title>1&#45;&#45;7</title>
<path fill="none" stroke="black" d="M109.258,-95.0421C115.267,-86.8946 144.465,-47.3026 150.78,-38.7394"/>
</g>
<!-- 2&#45;&#45;3 -->
<g id="edge11" class="edge"><title>2&#45;&#45;3</title>
<path fill="none" stroke="black" d="M3.4215,-69.1777C13.5249,-62.8357 67.7443,-28.8011 77.8217,-22.4754"/>
</g>
<!-- 2&#45;&#45;4 -->
<g id="edge12" class="edge"><title>2&#45;&#45;4</title>
<path fill="none" stroke="black" d="M3.13055,-71.6992C11.421,-81.068 55.9116,-131.346 64.1807,-140.69"/>
</g>
<!-- 2&#45;&#45;5 -->
<g id="edge13" class="edge"><title>2&#45;&#45;5</title>
<path fill="none" stroke="black" d="M2.30131,-72.0257C4.79428,-81.1265 15.8449,-121.468 18.5685,-131.411"/>
</g>
<!-- 2&#45;&#45;6 -->
<g id="edge14" class="edge"><title>2&#45;&#45;6</title>
<path fill="none" stroke="black" d="M2.12739,-68.2224C3.78452,-58.2348 11.2316,-13.3505 12.8409,-3.65155"/>
</g>
<!-- 3&#45;&#45;6 -->
<g id="edge15" class="edge"><title>3&#45;&#45;6</title>
<path fill="none" stroke="black" d="M77.5219,-20.8959C67.8423,-18.0245 24.3423,-5.12067 14.9425,-2.33231"/>
</g>
<!-- 3&#45;&#45;7 -->
<g id="edge16" class="edge"><title>3&#45;&#45;7</title>
<path fill="none" stroke="black" d="M81.2277,-21.8498C91.1781,-23.9949 139.531,-34.4189 149.989,-36.6735"/>
</g>
<!-- 4&#45;&#45;5 -->
<g id="edge17" class="edge"><title>4&#45;&#45;5</title>
<path fill="none" stroke="black" d="M63.5133,-141.818C55.8929,-140.411 28.6264,-135.376 21.1084,-133.988"/>
</g>
</g>
</svg>
