<?xml version="1.0" encoding="UTF-8" standalone="no"?>
<!DOCTYPE svg PUBLIC "-//W3C//DTD SVG 1.1//EN"
 "http://www.w3.org/Graphics/SVG/1.1/DTD/svg11.dtd">
<!-- Generated by graphviz version 2.36.0 (20140111.2315)
 -->
<!-- Title: %3 Pages: 1 -->
<svg width="250pt" height="251pt"
 viewBox="0.00 0.00 250.05 250.86" xmlns="http://www.w3.org/2000/svg" xmlns:xlink="http://www.w3.org/1999/xlink">
<g id="graph0" class="graph" transform="scale(1 1) rotate(0) translate(4 246.862)">
<title>%3</title>
<!-- 0 -->
<g id="node1" class="node"><title>0</title>
<ellipse fill="black" stroke="black" cx="130.479" cy="-107.511" rx="1.8" ry="1.8"/>
</g>
<!-- 1 -->
<g id="node2" class="node"><title>1</title>
<ellipse fill="black" stroke="black" cx="75.7164" cy="-163.815" rx="1.8" ry="1.8"/>
</g>
<!-- 0&#45;&#45;1 -->
<g id="edge1" class="edge"><title>0&#45;&#45;1</title>
<path fill="none" stroke="black" d="M129.125,-108.903C121.615,-116.625 85.1177,-154.15 77.2239,-162.266"/>
</g>
<!-- 2 -->
<g id="node3" class="node"><title>2</title>
<ellipse fill="black" stroke="black" cx="188.048" cy="-56.0712" rx="1.8" ry="1.8"/>
</g>
<!-- 0&#45;&#45;2 -->
<g id="edge2" class="edge"><title>0&#45;&#45;2</title>
<path fill="none" stroke="black" d="M131.902,-106.24C139.798,-99.1849 178.165,-64.9021 186.463,-57.4872"/>
</g>
<!-- 3 -->
<g id="node4" class="node"><title>3</title>
<ellipse fill="black" stroke="black" cx="58.3484" cy="-90.0141" rx="1.8" ry="1.8"/>
</g>
<!-- 0&#45;&#45;3 -->
<g id="edge3" class="edge"><title>0&#45;&#45;3</title>
<path fill="none" stroke="black" d="M128.696,-107.079C118.803,-104.679 70.7313,-93.018 60.334,-90.4958"/>
</g>
<!-- 4 -->
<g id="node5" class="node"><title>4</title>
<ellipse fill="black" stroke="black" cx="204.881" cy="-123.189" rx="1.8" ry="1.8"/>
</g>
<!-- 0&#45;&#45;4 -->
<g id="edge4" class="edge"><title>0&#45;&#45;4</title>
<path fill="none" stroke="black" d="M132.318,-107.899C142.612,-110.068 192.981,-120.682 203.106,-122.815"/>
</g>
<!-- 1&#45;&#45;3 -->
<g id="edge5" class="edge"><title>1&#45;&#45;3</title>
<path fill="none" stroke="black" d="M75.2871,-161.991C72.8842,-151.781 61.1263,-101.818 58.7627,-91.7747"/>
</g>
<!-- 6 -->
<g id="node6" class="node"><title>6</title>
<ellipse fill="black" stroke="black" cx="98.3028" cy="-241.062" rx="1.8" ry="1.8"/>
</g>
<!-- 1&#45;&#45;6 -->
<g id="edge6" class="edge"><title>1&#45;&#45;6</title>
<path fill="none" stroke="black" d="M76.2748,-165.725C79.3996,-176.412 94.6903,-228.707 97.764,-239.219"/>
</g>
<!-- 7 -->
<g id="node7" class="node"><title>7</title>
<ellipse fill="black" stroke="black" cx="3.72674" cy="-198.191" rx="1.8" ry="1.8"/>
</g>
<!-- 1&#45;&#45;7 -->
<g id="edge7" class="edge"><title>1&#45;&#45;7</title>
<path fill="none" stroke="black" d="M73.9369,-164.665C63.977,-169.421 15.2409,-192.693 5.44407,-197.371"/>
</g>
<!-- 2&#45;&#45;4 -->
<g id="edge8" class="edge"><title>2&#45;&#45;4</title>
<path fill="none" stroke="black" d="M188.534,-58.0075C190.992,-67.8086 202.038,-111.855 204.425,-121.372"/>
</g>
<!-- 8 -->
<g id="node8" class="node"><title>8</title>
<ellipse fill="black" stroke="black" cx="240.25" cy="-1.8" rx="1.8" ry="1.8"/>
</g>
<!-- 2&#45;&#45;8 -->
<g id="edge9" class="edge"><title>2&#45;&#45;8</title>
<path fill="none" stroke="black" d="M189.338,-54.7296C196.498,-47.2864 231.288,-11.117 238.813,-3.29394"/>
</g>
<!-- 5 -->
<g id="node9" class="node"><title>5</title>
<ellipse fill="black" stroke="black" cx="1.8" cy="-36.8394" rx="1.8" ry="1.8"/>
</g>
<!-- 3&#45;&#45;5 -->
<g id="edge10" class="edge"><title>3&#45;&#45;5</title>
<path fill="none" stroke="black" d="M56.9506,-88.6997C49.195,-81.4068 11.5079,-45.9681 3.35662,-38.3032"/>
</g>
</g>
</svg>
