<?xml version="1.0" encoding="UTF-8" standalone="no"?>
<!DOCTYPE svg PUBLIC "-//W3C//DTD SVG 1.1//EN"
 "http://www.w3.org/Graphics/SVG/1.1/DTD/svg11.dtd">
<!-- Generated by graphviz version 2.36.0 (20140111.2315)
 -->
<!-- Title: %3 Pages: 1 -->
<svg width="255pt" height="266pt"
 viewBox="0.00 0.00 254.71 265.74" xmlns="http://www.w3.org/2000/svg" xmlns:xlink="http://www.w3.org/1999/xlink">
<g id="graph0" class="graph" transform="scale(1 1) rotate(0) translate(4 261.743)">
<title>%3</title>
<!-- 0 -->
<g id="node1" class="node"><title>0</title>
<ellipse fill="black" stroke="black" cx="78.0411" cy="-196.017" rx="1.8" ry="1.8"/>
</g>
<!-- 3 -->
<g id="node2" class="node"><title>3</title>
<ellipse fill="black" stroke="black" cx="136.74" cy="-148.217" rx="1.8" ry="1.8"/>
</g>
<!-- 0&#45;&#45;3 -->
<g id="edge1" class="edge"><title>0&#45;&#45;3</title>
<path fill="none" stroke="black" d="M79.4921,-194.835C87.5426,-188.28 126.663,-156.423 135.125,-149.533"/>
</g>
<!-- 4 -->
<g id="node3" class="node"><title>4</title>
<ellipse fill="black" stroke="black" cx="1.8" cy="-194.788" rx="1.8" ry="1.8"/>
</g>
<!-- 0&#45;&#45;4 -->
<g id="edge2" class="edge"><title>0&#45;&#45;4</title>
<path fill="none" stroke="black" d="M76.1564,-195.987C65.6083,-195.817 13.9941,-194.985 3.61874,-194.818"/>
</g>
<!-- 5 -->
<g id="node4" class="node"><title>5</title>
<ellipse fill="black" stroke="black" cx="148.111" cy="-220.93" rx="1.8" ry="1.8"/>
</g>
<!-- 0&#45;&#45;5 -->
<g id="edge3" class="edge"><title>0&#45;&#45;5</title>
<path fill="none" stroke="black" d="M79.7732,-196.633C89.3832,-200.05 136.082,-216.653 146.183,-220.245"/>
</g>
<!-- 8 -->
<g id="node5" class="node"><title>8</title>
<ellipse fill="black" stroke="black" cx="32.3545" cy="-255.943" rx="1.8" ry="1.8"/>
</g>
<!-- 0&#45;&#45;8 -->
<g id="edge4" class="edge"><title>0&#45;&#45;8</title>
<path fill="none" stroke="black" d="M76.9117,-197.498C70.6459,-205.717 40.1977,-245.656 33.6121,-254.294"/>
</g>
<!-- 3&#45;&#45;5 -->
<g id="edge11" class="edge"><title>3&#45;&#45;5</title>
<path fill="none" stroke="black" d="M137.021,-150.015C138.581,-159.987 146.159,-208.447 147.798,-218.929"/>
</g>
<!-- 4&#45;&#45;8 -->
<g id="edge12" class="edge"><title>4&#45;&#45;8</title>
<path fill="none" stroke="black" d="M2.68148,-196.553C7.14327,-205.483 27.1945,-245.616 31.5273,-254.288"/>
</g>
<!-- 1 -->
<g id="node6" class="node"><title>1</title>
<ellipse fill="black" stroke="black" cx="178.928" cy="-83.0212" rx="1.8" ry="1.8"/>
</g>
<!-- 1&#45;&#45;3 -->
<g id="edge6" class="edge"><title>1&#45;&#45;3</title>
<path fill="none" stroke="black" d="M177.885,-84.6328C172.099,-93.5744 143.983,-137.025 137.902,-146.423"/>
</g>
<!-- 2 -->
<g id="node7" class="node"><title>2</title>
<ellipse fill="black" stroke="black" cx="165.901" cy="-20.3777" rx="1.8" ry="1.8"/>
</g>
<!-- 1&#45;&#45;2 -->
<g id="edge5" class="edge"><title>1&#45;&#45;2</title>
<path fill="none" stroke="black" d="M178.552,-81.2139C176.683,-72.2268 168.399,-32.3894 166.357,-22.5705"/>
</g>
<!-- 6 -->
<g id="node8" class="node"><title>6</title>
<ellipse fill="black" stroke="black" cx="244.907" cy="-66.4371" rx="1.8" ry="1.8"/>
</g>
<!-- 1&#45;&#45;6 -->
<g id="edge7" class="edge"><title>1&#45;&#45;6</title>
<path fill="none" stroke="black" d="M180.832,-82.5427C190.466,-80.121 233.765,-69.2378 243.121,-66.8861"/>
</g>
<!-- 7 -->
<g id="node9" class="node"><title>7</title>
<ellipse fill="black" stroke="black" cx="213.408" cy="-1.8" rx="1.8" ry="1.8"/>
</g>
<!-- 1&#45;&#45;7 -->
<g id="edge8" class="edge"><title>1&#45;&#45;7</title>
<path fill="none" stroke="black" d="M179.648,-81.3247C184.136,-70.7546 208.216,-14.03 212.692,-3.48709"/>
</g>
<!-- 2&#45;&#45;6 -->
<g id="edge9" class="edge"><title>2&#45;&#45;6</title>
<path fill="none" stroke="black" d="M167.552,-21.3397C177.833,-27.3339 233.011,-59.5017 243.266,-65.4804"/>
</g>
<!-- 2&#45;&#45;7 -->
<g id="edge10" class="edge"><title>2&#45;&#45;7</title>
<path fill="none" stroke="black" d="M167.943,-19.5795C175.757,-16.5236 203.718,-5.58942 211.428,-2.57461"/>
</g>
</g>
</svg>
