<?xml version="1.0" encoding="UTF-8" standalone="no"?>
<!DOCTYPE svg PUBLIC "-//W3C//DTD SVG 1.1//EN"
 "http://www.w3.org/Graphics/SVG/1.1/DTD/svg11.dtd">
<!-- Generated by graphviz version 2.36.0 (20140111.2315)
 -->
<!-- Title: %3 Pages: 1 -->
<svg width="217pt" height="183pt"
 viewBox="0.00 0.00 216.93 183.29" xmlns="http://www.w3.org/2000/svg" xmlns:xlink="http://www.w3.org/1999/xlink">
<g id="graph0" class="graph" transform="scale(1 1) rotate(0) translate(4 179.291)">
<title>%3</title>
<!-- 0 -->
<g id="node1" class="node"><title>0</title>
<ellipse fill="black" stroke="black" cx="120.742" cy="-95.2786" rx="1.8" ry="1.8"/>
</g>
<!-- 1 -->
<g id="node2" class="node"><title>1</title>
<ellipse fill="black" stroke="black" cx="102.799" cy="-62.7505" rx="1.8" ry="1.8"/>
</g>
<!-- 0&#45;&#45;1 -->
<g id="edge1" class="edge"><title>0&#45;&#45;1</title>
<path fill="none" stroke="black" d="M119.777,-93.5298C116.633,-87.8291 106.708,-69.8361 103.683,-64.3525"/>
</g>
<!-- 2 -->
<g id="node3" class="node"><title>2</title>
<ellipse fill="black" stroke="black" cx="67.4151" cy="-63.6997" rx="1.8" ry="1.8"/>
</g>
<!-- 0&#45;&#45;2 -->
<g id="edge2" class="edge"><title>0&#45;&#45;2</title>
<path fill="none" stroke="black" d="M118.968,-94.228C110.871,-89.4334 77.4736,-69.6561 69.2507,-64.7867"/>
</g>
<!-- 3 -->
<g id="node4" class="node"><title>3</title>
<ellipse fill="black" stroke="black" cx="33.3501" cy="-105.146" rx="1.8" ry="1.8"/>
</g>
<!-- 0&#45;&#45;3 -->
<g id="edge3" class="edge"><title>0&#45;&#45;3</title>
<path fill="none" stroke="black" d="M118.917,-95.4847C107.543,-96.7689 46.5093,-103.66 35.1654,-104.941"/>
</g>
<!-- 4 -->
<g id="node5" class="node"><title>4</title>
<ellipse fill="black" stroke="black" cx="72.3352" cy="-142.92" rx="1.8" ry="1.8"/>
</g>
<!-- 0&#45;&#45;4 -->
<g id="edge4" class="edge"><title>0&#45;&#45;4</title>
<path fill="none" stroke="black" d="M119.131,-96.8637C111.651,-104.226 80.3757,-135.006 73.6237,-141.652"/>
</g>
<!-- 5 -->
<g id="node6" class="node"><title>5</title>
<ellipse fill="black" stroke="black" cx="163.177" cy="-110.25" rx="1.8" ry="1.8"/>
</g>
<!-- 0&#45;&#45;5 -->
<g id="edge5" class="edge"><title>0&#45;&#45;5</title>
<path fill="none" stroke="black" d="M122.565,-95.9219C129.545,-98.3845 154.521,-107.196 161.407,-109.625"/>
</g>
<!-- 6 -->
<g id="node7" class="node"><title>6</title>
<ellipse fill="black" stroke="black" cx="106.28" cy="-1.8" rx="1.8" ry="1.8"/>
</g>
<!-- 0&#45;&#45;6 -->
<g id="edge6" class="edge"><title>0&#45;&#45;6</title>
<path fill="none" stroke="black" d="M120.44,-93.3262C118.558,-81.1609 108.458,-15.8757 106.58,-3.74169"/>
</g>
<!-- 8 -->
<g id="node8" class="node"><title>8</title>
<ellipse fill="black" stroke="black" cx="207.126" cy="-75.4667" rx="1.8" ry="1.8"/>
</g>
<!-- 0&#45;&#45;8 -->
<g id="edge7" class="edge"><title>0&#45;&#45;8</title>
<path fill="none" stroke="black" d="M122.546,-94.8648C133.788,-92.2865 194.118,-78.4499 205.332,-75.8782"/>
</g>
<!-- 1&#45;&#45;2 -->
<g id="edge8" class="edge"><title>1&#45;&#45;2</title>
<path fill="none" stroke="black" d="M100.897,-62.8015C94.8103,-62.9648 75.8431,-63.4736 69.5029,-63.6437"/>
</g>
<!-- 1&#45;&#45;3 -->
<g id="edge9" class="edge"><title>1&#45;&#45;3</title>
<path fill="none" stroke="black" d="M101.082,-63.7985C91.5575,-69.613 45.2727,-97.8678 35.2619,-103.979"/>
</g>
<!-- 1&#45;&#45;4 -->
<g id="edge10" class="edge"><title>1&#45;&#45;4</title>
<path fill="none" stroke="black" d="M102.046,-64.7322C97.8313,-75.8238 77.2077,-130.097 73.0619,-141.007"/>
</g>
<!-- 1&#45;&#45;5 -->
<g id="edge11" class="edge"><title>1&#45;&#45;5</title>
<path fill="none" stroke="black" d="M104.292,-63.9246C112.572,-70.4391 152.812,-102.095 161.515,-108.942"/>
</g>
<!-- 1&#45;&#45;6 -->
<g id="edge12" class="edge"><title>1&#45;&#45;6</title>
<path fill="none" stroke="black" d="M102.915,-60.7226C103.443,-51.4687 105.623,-13.2965 106.16,-3.89805"/>
</g>
<!-- 2&#45;&#45;3 -->
<g id="edge13" class="edge"><title>2&#45;&#45;3</title>
<path fill="none" stroke="black" d="M65.9513,-65.4806C60.348,-72.2981 40.2986,-96.692 34.7705,-103.418"/>
</g>
<!-- 2&#45;&#45;4 -->
<g id="edge14" class="edge"><title>2&#45;&#45;4</title>
<path fill="none" stroke="black" d="M67.5367,-65.6579C68.2174,-76.6182 71.5483,-130.249 72.2179,-141.03"/>
</g>
<!-- 2&#45;&#45;5 -->
<g id="edge15" class="edge"><title>2&#45;&#45;5</title>
<path fill="none" stroke="black" d="M69.0772,-64.5076C80.7006,-70.1578 149.696,-103.697 161.469,-109.419"/>
</g>
<!-- 2&#45;&#45;6 -->
<g id="edge16" class="edge"><title>2&#45;&#45;6</title>
<path fill="none" stroke="black" d="M68.3758,-62.1696C73.706,-53.6801 99.6078,-12.4266 105.21,-3.50393"/>
</g>
<!-- 3&#45;&#45;4 -->
<g id="edge17" class="edge"><title>3&#45;&#45;4</title>
<path fill="none" stroke="black" d="M34.6472,-106.403C40.5662,-112.138 64.9818,-135.795 70.9933,-141.619"/>
</g>
<!-- 7 -->
<g id="node9" class="node"><title>7</title>
<ellipse fill="black" stroke="black" cx="1.8" cy="-173.491" rx="1.8" ry="1.8"/>
</g>
<!-- 3&#45;&#45;7 -->
<g id="edge18" class="edge"><title>3&#45;&#45;7</title>
<path fill="none" stroke="black" d="M32.5702,-106.836C28.2432,-116.209 7.21634,-161.758 2.66849,-171.61"/>
</g>
<!-- 4&#45;&#45;7 -->
<g id="edge19" class="edge"><title>4&#45;&#45;7</title>
<path fill="none" stroke="black" d="M70.5917,-143.675C60.833,-147.905 13.0815,-168.601 3.48263,-172.762"/>
</g>
<!-- 5&#45;&#45;8 -->
<g id="edge20" class="edge"><title>5&#45;&#45;8</title>
<path fill="none" stroke="black" d="M164.639,-109.092C171.312,-103.811 198.836,-82.0275 205.613,-76.664"/>
</g>
</g>
</svg>
