<?xml version="1.0" encoding="UTF-8" standalone="no"?>
<!DOCTYPE svg PUBLIC "-//W3C//DTD SVG 1.1//EN"
 "http://www.w3.org/Graphics/SVG/1.1/DTD/svg11.dtd">
<!-- Generated by graphviz version 2.36.0 (20140111.2315)
 -->
<!-- Title: %3 Pages: 1 -->
<svg width="157pt" height="157pt"
 viewBox="0.00 0.00 156.58 157.31" xmlns="http://www.w3.org/2000/svg" xmlns:xlink="http://www.w3.org/1999/xlink">
<g id="graph0" class="graph" transform="scale(1 1) rotate(0) translate(4 153.314)">
<title>%3</title>
<!-- 0 -->
<g id="node1" class="node"><title>0</title>
<ellipse fill="black" stroke="black" cx="67.8511" cy="-82.879" rx="1.8" ry="1.8"/>
</g>
<!-- 1 -->
<g id="node2" class="node"><title>1</title>
<ellipse fill="black" stroke="black" cx="98.3204" cy="-89.423" rx="1.8" ry="1.8"/>
</g>
<!-- 0&#45;&#45;1 -->
<g id="edge1" class="edge"><title>0&#45;&#45;1</title>
<path fill="none" stroke="black" d="M69.8503,-83.3084C75.3579,-84.4913 90.7104,-87.7886 96.274,-88.9835"/>
</g>
<!-- 2 -->
<g id="node3" class="node"><title>2</title>
<ellipse fill="black" stroke="black" cx="59.39" cy="-53.6864" rx="1.8" ry="1.8"/>
</g>
<!-- 0&#45;&#45;2 -->
<g id="edge2" class="edge"><title>0&#45;&#45;2</title>
<path fill="none" stroke="black" d="M67.296,-80.9636C65.7666,-75.6868 61.5033,-60.9776 59.9583,-55.6472"/>
</g>
<!-- 3 -->
<g id="node4" class="node"><title>3</title>
<ellipse fill="black" stroke="black" cx="14.1927" cy="-116.054" rx="1.8" ry="1.8"/>
</g>
<!-- 0&#45;&#45;3 -->
<g id="edge3" class="edge"><title>0&#45;&#45;3</title>
<path fill="none" stroke="black" d="M66.0658,-83.9828C57.9191,-89.0196 24.3138,-109.796 16.0398,-114.912"/>
</g>
<!-- 4 -->
<g id="node5" class="node"><title>4</title>
<ellipse fill="black" stroke="black" cx="42.658" cy="-139.976" rx="1.8" ry="1.8"/>
</g>
<!-- 0&#45;&#45;4 -->
<g id="edge4" class="edge"><title>0&#45;&#45;4</title>
<path fill="none" stroke="black" d="M67.0129,-84.7787C63.1879,-93.4475 47.4099,-129.206 43.5252,-138.01"/>
</g>
<!-- 5 -->
<g id="node6" class="node"><title>5</title>
<ellipse fill="black" stroke="black" cx="92.4884" cy="-147.514" rx="1.8" ry="1.8"/>
</g>
<!-- 0&#45;&#45;5 -->
<g id="edge5" class="edge"><title>0&#45;&#45;5</title>
<path fill="none" stroke="black" d="M68.5619,-84.7437C72.1596,-94.1822 88.3277,-136.599 91.8214,-145.764"/>
</g>
<!-- 6 -->
<g id="node7" class="node"><title>6</title>
<ellipse fill="black" stroke="black" cx="1.8" cy="-66.4624" rx="1.8" ry="1.8"/>
</g>
<!-- 0&#45;&#45;6 -->
<g id="edge6" class="edge"><title>0&#45;&#45;6</title>
<path fill="none" stroke="black" d="M65.9456,-82.4054C56.3003,-80.0081 12.9546,-69.2348 3.58808,-66.9068"/>
</g>
<!-- 7 -->
<g id="node8" class="node"><title>7</title>
<ellipse fill="black" stroke="black" cx="146.783" cy="-53.4234" rx="1.8" ry="1.8"/>
</g>
<!-- 0&#45;&#45;7 -->
<g id="edge7" class="edge"><title>0&#45;&#45;7</title>
<path fill="none" stroke="black" d="M69.8023,-82.1509C80.7226,-78.0757 134.158,-58.1346 144.9,-54.1261"/>
</g>
<!-- 8 -->
<g id="node9" class="node"><title>8</title>
<ellipse fill="black" stroke="black" cx="89.4515" cy="-1.8" rx="1.8" ry="1.8"/>
</g>
<!-- 0&#45;&#45;8 -->
<g id="edge8" class="edge"><title>0&#45;&#45;8</title>
<path fill="none" stroke="black" d="M68.3851,-80.8748C71.3735,-69.6574 85.9967,-14.7679 88.9362,-3.73416"/>
</g>
<!-- 1&#45;&#45;2 -->
<g id="edge9" class="edge"><title>1&#45;&#45;2</title>
<path fill="none" stroke="black" d="M96.6477,-87.8875C90.244,-82.0092 67.3309,-60.9759 61.0133,-55.1765"/>
</g>
<!-- 1&#45;&#45;3 -->
<g id="edge10" class="edge"><title>1&#45;&#45;3</title>
<path fill="none" stroke="black" d="M96.5633,-89.9792C85.6149,-93.4449 26.8604,-112.044 15.9402,-115.5"/>
</g>
<!-- 1&#45;&#45;4 -->
<g id="edge11" class="edge"><title>1&#45;&#45;4</title>
<path fill="none" stroke="black" d="M96.9445,-90.6726C89.3105,-97.6059 52.2138,-131.297 44.1902,-138.584"/>
</g>
<!-- 1&#45;&#45;5 -->
<g id="edge12" class="edge"><title>1&#45;&#45;5</title>
<path fill="none" stroke="black" d="M98.1264,-91.3558C97.2409,-100.176 93.5884,-136.557 92.6891,-145.514"/>
</g>
<!-- 1&#45;&#45;6 -->
<g id="edge13" class="edge"><title>1&#45;&#45;6</title>
<path fill="none" stroke="black" d="M96.3045,-88.9435C83.7433,-85.9553 16.3338,-69.9197 3.80487,-66.9393"/>
</g>
<!-- 1&#45;&#45;7 -->
<g id="edge14" class="edge"><title>1&#45;&#45;7</title>
<path fill="none" stroke="black" d="M99.9329,-88.2253C107.291,-82.7596 137.642,-60.2137 145.115,-54.6626"/>
</g>
<!-- 1&#45;&#45;8 -->
<g id="edge15" class="edge"><title>1&#45;&#45;8</title>
<path fill="none" stroke="black" d="M98.1352,-87.5929C96.981,-76.1896 90.7869,-14.994 89.6357,-3.62006"/>
</g>
<!-- 2&#45;&#45;3 -->
<g id="edge16" class="edge"><title>2&#45;&#45;3</title>
<path fill="none" stroke="black" d="M58.2728,-55.2281C52.074,-63.7817 21.9519,-105.347 15.4369,-114.337"/>
</g>
<!-- 2&#45;&#45;4 -->
<g id="edge17" class="edge"><title>2&#45;&#45;4</title>
<path fill="none" stroke="black" d="M59.0406,-55.4887C56.863,-66.7184 45.1774,-126.983 43.0055,-138.183"/>
</g>
<!-- 2&#45;&#45;5 -->
<g id="edge18" class="edge"><title>2&#45;&#45;5</title>
<path fill="none" stroke="black" d="M60.0813,-55.6462C64.3888,-67.8569 87.5045,-133.386 91.8008,-145.565"/>
</g>
<!-- 2&#45;&#45;6 -->
<g id="edge19" class="edge"><title>2&#45;&#45;6</title>
<path fill="none" stroke="black" d="M57.4739,-54.1115C48.7302,-56.0512 12.6627,-64.0526 3.78238,-66.0226"/>
</g>
<!-- 2&#45;&#45;7 -->
<g id="edge20" class="edge"><title>2&#45;&#45;7</title>
<path fill="none" stroke="black" d="M61.2153,-53.6809C72.5887,-53.6467 133.623,-53.463 144.968,-53.4289"/>
</g>
<!-- 2&#45;&#45;8 -->
<g id="edge21" class="edge"><title>2&#45;&#45;8</title>
<path fill="none" stroke="black" d="M60.3902,-51.9601C64.9543,-44.0824 83.7813,-11.5868 88.4167,-3.58605"/>
</g>
<!-- 3&#45;&#45;4 -->
<g id="edge22" class="edge"><title>3&#45;&#45;4</title>
<path fill="none" stroke="black" d="M15.7231,-117.34C20.7118,-121.532 36.4574,-134.765 41.2561,-138.798"/>
</g>
<!-- 3&#45;&#45;5 -->
<g id="edge23" class="edge"><title>3&#45;&#45;5</title>
<path fill="none" stroke="black" d="M16.1281,-116.831C26.9605,-121.184 79.9657,-142.482 90.6206,-146.764"/>
</g>
<!-- 3&#45;&#45;6 -->
<g id="edge24" class="edge"><title>3&#45;&#45;6</title>
<path fill="none" stroke="black" d="M13.6602,-113.923C11.6217,-105.765 4.32782,-76.5778 2.31672,-68.5301"/>
</g>
<!-- 4&#45;&#45;5 -->
<g id="edge25" class="edge"><title>4&#45;&#45;5</title>
<path fill="none" stroke="black" d="M44.7991,-140.3C52.9957,-141.54 82.3241,-145.976 90.4106,-147.2"/>
</g>
<!-- 4&#45;&#45;6 -->
<g id="edge26" class="edge"><title>4&#45;&#45;6</title>
<path fill="none" stroke="black" d="M41.648,-138.158C35.9952,-127.988 8.33487,-78.2202 2.77467,-68.216"/>
</g>
</g>
</svg>
