<?xml version="1.0" encoding="UTF-8" standalone="no"?>
<!DOCTYPE svg PUBLIC "-//W3C//DTD SVG 1.1//EN"
 "http://www.w3.org/Graphics/SVG/1.1/DTD/svg11.dtd">
<!-- Generated by graphviz version 2.36.0 (20140111.2315)
 -->
<!-- Title: %3 Pages: 1 -->
<svg width="174pt" height="174pt"
 viewBox="0.00 0.00 174.38 174.22" xmlns="http://www.w3.org/2000/svg" xmlns:xlink="http://www.w3.org/1999/xlink">
<g id="graph0" class="graph" transform="scale(1 1) rotate(0) translate(4 170.219)">
<title>%3</title>
<!-- 0 -->
<g id="node1" class="node"><title>0</title>
<ellipse fill="black" stroke="black" cx="93.4194" cy="-73.6305" rx="1.8" ry="1.8"/>
</g>
<!-- 1 -->
<g id="node2" class="node"><title>1</title>
<ellipse fill="black" stroke="black" cx="79.9774" cy="-115.318" rx="1.8" ry="1.8"/>
</g>
<!-- 0&#45;&#45;1 -->
<g id="edge1" class="edge"><title>0&#45;&#45;1</title>
<path fill="none" stroke="black" d="M92.8418,-75.4218C90.6307,-82.2789 82.7192,-106.814 80.5379,-113.579"/>
</g>
<!-- 2 -->
<g id="node3" class="node"><title>2</title>
<ellipse fill="black" stroke="black" cx="51.8133" cy="-84.1545" rx="1.8" ry="1.8"/>
</g>
<!-- 0&#45;&#45;2 -->
<g id="edge2" class="edge"><title>0&#45;&#45;2</title>
<path fill="none" stroke="black" d="M91.6316,-74.0828C84.9123,-75.7824 61.1846,-81.7841 53.9338,-83.6182"/>
</g>
<!-- 3 -->
<g id="node4" class="node"><title>3</title>
<ellipse fill="black" stroke="black" cx="62.1205" cy="-164.419" rx="1.8" ry="1.8"/>
</g>
<!-- 0&#45;&#45;3 -->
<g id="edge3" class="edge"><title>0&#45;&#45;3</title>
<path fill="none" stroke="black" d="M92.7656,-75.5268C88.6924,-87.342 66.8334,-150.748 62.7706,-162.533"/>
</g>
<!-- 4 -->
<g id="node5" class="node"><title>4</title>
<ellipse fill="black" stroke="black" cx="1.8" cy="-103.289" rx="1.8" ry="1.8"/>
</g>
<!-- 0&#45;&#45;4 -->
<g id="edge4" class="edge"><title>0&#45;&#45;4</title>
<path fill="none" stroke="black" d="M91.5058,-74.25C79.5824,-78.1098 15.5958,-98.8235 3.70307,-102.673"/>
</g>
<!-- 5 -->
<g id="node6" class="node"><title>5</title>
<ellipse fill="black" stroke="black" cx="121.634" cy="-148.006" rx="1.8" ry="1.8"/>
</g>
<!-- 0&#45;&#45;5 -->
<g id="edge5" class="edge"><title>0&#45;&#45;5</title>
<path fill="none" stroke="black" d="M94.1168,-75.469C98.0204,-85.759 117.121,-136.11 120.961,-146.231"/>
</g>
<!-- 6 -->
<g id="node7" class="node"><title>6</title>
<ellipse fill="black" stroke="black" cx="18.3194" cy="-43.9774" rx="1.8" ry="1.8"/>
</g>
<!-- 0&#45;&#45;6 -->
<g id="edge6" class="edge"><title>0&#45;&#45;6</title>
<path fill="none" stroke="black" d="M91.563,-72.8975C81.1727,-68.795 30.331,-48.7202 20.1109,-44.6848"/>
</g>
<!-- 7 -->
<g id="node8" class="node"><title>7</title>
<ellipse fill="black" stroke="black" cx="164.583" cy="-78.6644" rx="1.8" ry="1.8"/>
</g>
<!-- 0&#45;&#45;7 -->
<g id="edge7" class="edge"><title>0&#45;&#45;7</title>
<path fill="none" stroke="black" d="M95.4724,-73.7758C105.864,-74.5109 152.565,-77.8143 162.657,-78.5281"/>
</g>
<!-- 8 -->
<g id="node9" class="node"><title>8</title>
<ellipse fill="black" stroke="black" cx="90.4988" cy="-1.8" rx="1.8" ry="1.8"/>
</g>
<!-- 0&#45;&#45;8 -->
<g id="edge8" class="edge"><title>0&#45;&#45;8</title>
<path fill="none" stroke="black" d="M93.3351,-71.5583C92.9086,-61.069 90.992,-13.9306 90.5779,-3.74454"/>
</g>
<!-- 1&#45;&#45;2 -->
<g id="edge9" class="edge"><title>1&#45;&#45;2</title>
<path fill="none" stroke="black" d="M78.7672,-113.979C74.2188,-108.946 58.157,-91.1736 53.2487,-85.7427"/>
</g>
<!-- 1&#45;&#45;3 -->
<g id="edge10" class="edge"><title>1&#45;&#45;3</title>
<path fill="none" stroke="black" d="M79.2101,-117.427C76.2728,-125.504 65.7629,-154.403 62.8651,-162.371"/>
</g>
<!-- 1&#45;&#45;4 -->
<g id="edge11" class="edge"><title>1&#45;&#45;4</title>
<path fill="none" stroke="black" d="M78.0449,-115.02C67.2289,-113.356 14.3038,-105.213 3.66494,-103.576"/>
</g>
<!-- 1&#45;&#45;5 -->
<g id="edge12" class="edge"><title>1&#45;&#45;5</title>
<path fill="none" stroke="black" d="M81.7673,-116.722C88.6194,-122.099 113.137,-141.338 119.897,-146.643"/>
</g>
<!-- 1&#45;&#45;6 -->
<g id="edge13" class="edge"><title>1&#45;&#45;6</title>
<path fill="none" stroke="black" d="M78.6896,-113.828C70.6654,-104.543 27.6037,-54.7196 19.6001,-45.4593"/>
</g>
<!-- 1&#45;&#45;7 -->
<g id="edge14" class="edge"><title>1&#45;&#45;7</title>
<path fill="none" stroke="black" d="M81.7445,-114.552C92.7552,-109.782 151.843,-84.1835 162.826,-79.4257"/>
</g>
<!-- 2&#45;&#45;3 -->
<g id="edge15" class="edge"><title>2&#45;&#45;3</title>
<path fill="none" stroke="black" d="M52.0681,-86.1386C53.4941,-97.2433 60.472,-151.581 61.8746,-162.504"/>
</g>
<!-- 2&#45;&#45;4 -->
<g id="edge16" class="edge"><title>2&#45;&#45;4</title>
<path fill="none" stroke="black" d="M49.6643,-84.9767C41.4376,-88.1242 12.0016,-99.3863 3.88534,-102.492"/>
</g>
<!-- 2&#45;&#45;5 -->
<g id="edge17" class="edge"><title>2&#45;&#45;5</title>
<path fill="none" stroke="black" d="M53.2716,-85.4881C62.3581,-93.7977 111.121,-138.391 120.184,-146.679"/>
</g>
<!-- 2&#45;&#45;6 -->
<g id="edge18" class="edge"><title>2&#45;&#45;6</title>
<path fill="none" stroke="black" d="M50.3741,-82.4281C44.8647,-75.8194 25.1514,-52.1726 19.7159,-45.6526"/>
</g>
<!-- 2&#45;&#45;8 -->
<g id="edge19" class="edge"><title>2&#45;&#45;8</title>
<path fill="none" stroke="black" d="M52.6213,-82.4344C57.6559,-71.7168 84.6737,-14.2007 89.6952,-3.51063"/>
</g>
<!-- 3&#45;&#45;5 -->
<g id="edge20" class="edge"><title>3&#45;&#45;5</title>
<path fill="none" stroke="black" d="M64.1006,-163.873C73.1363,-161.381 110.409,-151.101 119.585,-148.571"/>
</g>
<!-- 4&#45;&#45;6 -->
<g id="edge21" class="edge"><title>4&#45;&#45;6</title>
<path fill="none" stroke="black" d="M2.34963,-101.316C4.8577,-92.3109 15.2035,-55.1649 17.7507,-46.0191"/>
</g>
</g>
</svg>
