<?xml version="1.0" encoding="UTF-8" standalone="no"?>
<!DOCTYPE svg PUBLIC "-//W3C//DTD SVG 1.1//EN"
 "http://www.w3.org/Graphics/SVG/1.1/DTD/svg11.dtd">
<!-- Generated by graphviz version 2.36.0 (20140111.2315)
 -->
<!-- Title: %3 Pages: 1 -->
<svg width="231pt" height="164pt"
 viewBox="0.00 0.00 230.94 164.32" xmlns="http://www.w3.org/2000/svg" xmlns:xlink="http://www.w3.org/1999/xlink">
<g id="graph0" class="graph" transform="scale(1 1) rotate(0) translate(4 160.315)">
<title>%3</title>
<!-- 0 -->
<g id="node1" class="node"><title>0</title>
<ellipse fill="black" stroke="black" cx="75.0149" cy="-73.3106" rx="1.8" ry="1.8"/>
</g>
<!-- 1 -->
<g id="node2" class="node"><title>1</title>
<ellipse fill="black" stroke="black" cx="16.4346" cy="-77.1882" rx="1.8" ry="1.8"/>
</g>
<!-- 0&#45;&#45;1 -->
<g id="edge1" class="edge"><title>0&#45;&#45;1</title>
<path fill="none" stroke="black" d="M73.0658,-73.4396C64.1718,-74.0284 27.484,-76.4568 18.4511,-77.0548"/>
</g>
<!-- 2 -->
<g id="node3" class="node"><title>2</title>
<ellipse fill="black" stroke="black" cx="1.8" cy="-122.418" rx="1.8" ry="1.8"/>
</g>
<!-- 0&#45;&#45;2 -->
<g id="edge2" class="edge"><title>0&#45;&#45;2</title>
<path fill="none" stroke="black" d="M73.4857,-74.3363C63.9575,-80.7271 12.8245,-115.023 3.32078,-121.398"/>
</g>
<!-- 3 -->
<g id="node4" class="node"><title>3</title>
<ellipse fill="black" stroke="black" cx="82.6006" cy="-130.85" rx="1.8" ry="1.8"/>
</g>
<!-- 0&#45;&#45;3 -->
<g id="edge3" class="edge"><title>0&#45;&#45;3</title>
<path fill="none" stroke="black" d="M75.2673,-75.2251C76.419,-83.9611 81.1698,-119.997 82.3395,-128.87"/>
</g>
<!-- 4 -->
<g id="node5" class="node"><title>4</title>
<ellipse fill="black" stroke="black" cx="149.362" cy="-108.502" rx="1.8" ry="1.8"/>
</g>
<!-- 0&#45;&#45;4 -->
<g id="edge4" class="edge"><title>0&#45;&#45;4</title>
<path fill="none" stroke="black" d="M76.8527,-74.1805C87.1388,-79.0494 137.471,-102.874 147.589,-107.663"/>
</g>
<!-- 5 -->
<g id="node6" class="node"><title>5</title>
<ellipse fill="black" stroke="black" cx="34.6581" cy="-154.515" rx="1.8" ry="1.8"/>
</g>
<!-- 0&#45;&#45;5 -->
<g id="edge5" class="edge"><title>0&#45;&#45;5</title>
<path fill="none" stroke="black" d="M74.172,-75.0067C68.9199,-85.5747 40.7349,-142.288 35.4964,-152.828"/>
</g>
<!-- 6 -->
<g id="node7" class="node"><title>6</title>
<ellipse fill="black" stroke="black" cx="21.8215" cy="-9.73315" rx="1.8" ry="1.8"/>
</g>
<!-- 0&#45;&#45;6 -->
<g id="edge6" class="edge"><title>0&#45;&#45;6</title>
<path fill="none" stroke="black" d="M73.7,-71.739C66.4046,-63.0194 30.9534,-20.6478 23.2857,-11.4833"/>
</g>
<!-- 7 -->
<g id="node8" class="node"><title>7</title>
<ellipse fill="black" stroke="black" cx="114.376" cy="-1.8" rx="1.8" ry="1.8"/>
</g>
<!-- 0&#45;&#45;7 -->
<g id="edge7" class="edge"><title>0&#45;&#45;7</title>
<path fill="none" stroke="black" d="M75.9879,-71.5429C81.4336,-61.6493 108.081,-13.2375 113.437,-3.5059"/>
</g>
<!-- 1&#45;&#45;2 -->
<g id="edge8" class="edge"><title>1&#45;&#45;2</title>
<path fill="none" stroke="black" d="M15.8058,-79.1317C13.3985,-86.5715 4.78512,-113.192 2.4102,-120.532"/>
</g>
<!-- 1&#45;&#45;3 -->
<g id="edge9" class="edge"><title>1&#45;&#45;3</title>
<path fill="none" stroke="black" d="M18.0702,-78.5147C27.1448,-85.8744 71.2416,-121.638 80.7792,-129.373"/>
</g>
<!-- 1&#45;&#45;5 -->
<g id="edge10" class="edge"><title>1&#45;&#45;5</title>
<path fill="none" stroke="black" d="M16.8851,-79.0997C19.4063,-89.798 31.7434,-142.147 34.2234,-152.67"/>
</g>
<!-- 1&#45;&#45;6 -->
<g id="edge11" class="edge"><title>1&#45;&#45;6</title>
<path fill="none" stroke="black" d="M16.59,-75.2422C17.3766,-65.3919 20.9117,-21.1248 21.6756,-11.5592"/>
</g>
<!-- 2&#45;&#45;3 -->
<g id="edge12" class="edge"><title>2&#45;&#45;3</title>
<path fill="none" stroke="black" d="M3.79733,-122.626C14.9762,-123.793 69.6772,-129.502 80.6731,-130.649"/>
</g>
<!-- 2&#45;&#45;5 -->
<g id="edge13" class="edge"><title>2&#45;&#45;5</title>
<path fill="none" stroke="black" d="M3.21187,-123.797C8.61669,-129.077 27.9558,-147.968 33.2881,-153.177"/>
</g>
<!-- 3&#45;&#45;4 -->
<g id="edge14" class="edge"><title>3&#45;&#45;4</title>
<path fill="none" stroke="black" d="M84.5266,-130.206C94.2757,-126.942 138.088,-112.277 147.555,-109.107"/>
</g>
<!-- 8 -->
<g id="node9" class="node"><title>8</title>
<ellipse fill="black" stroke="black" cx="221.145" cy="-131.777" rx="1.8" ry="1.8"/>
</g>
<!-- 4&#45;&#45;8 -->
<g id="edge15" class="edge"><title>4&#45;&#45;8</title>
<path fill="none" stroke="black" d="M151.137,-109.078C161.068,-112.298 209.664,-128.055 219.432,-131.222"/>
</g>
</g>
</svg>
