<?xml version="1.0" encoding="UTF-8" standalone="no"?>
<!DOCTYPE svg PUBLIC "-//W3C//DTD SVG 1.1//EN"
 "http://www.w3.org/Graphics/SVG/1.1/DTD/svg11.dtd">
<!-- Generated by graphviz version 2.36.0 (20140111.2315)
 -->
<!-- Title: %3 Pages: 1 -->
<svg width="146pt" height="164pt"
 viewBox="0.00 0.00 146.35 163.62" xmlns="http://www.w3.org/2000/svg" xmlns:xlink="http://www.w3.org/1999/xlink">
<g id="graph0" class="graph" transform="scale(1 1) rotate(0) translate(4 159.617)">
<title>%3</title>
<!-- 0 -->
<g id="node1" class="node"><title>0</title>
<ellipse fill="black" stroke="black" cx="81.8304" cy="-50.6554" rx="1.8" ry="1.8"/>
</g>
<!-- 1 -->
<g id="node2" class="node"><title>1</title>
<ellipse fill="black" stroke="black" cx="62.3787" cy="-23.9806" rx="1.8" ry="1.8"/>
</g>
<!-- 0&#45;&#45;1 -->
<g id="edge1" class="edge"><title>0&#45;&#45;1</title>
<path fill="none" stroke="black" d="M80.5541,-48.9052C76.9704,-43.9907 66.8577,-30.1228 63.4873,-25.5009"/>
</g>
<!-- 2 -->
<g id="node3" class="node"><title>2</title>
<ellipse fill="black" stroke="black" cx="45.4476" cy="-92.0487" rx="1.8" ry="1.8"/>
</g>
<!-- 0&#45;&#45;2 -->
<g id="edge2" class="edge"><title>0&#45;&#45;2</title>
<path fill="none" stroke="black" d="M80.6199,-52.0326C75.096,-58.3172 52.3101,-84.241 46.7,-90.6238"/>
</g>
<!-- 3 -->
<g id="node4" class="node"><title>3</title>
<ellipse fill="black" stroke="black" cx="15.4291" cy="-78.1614" rx="1.8" ry="1.8"/>
</g>
<!-- 0&#45;&#45;3 -->
<g id="edge3" class="edge"><title>0&#45;&#45;3</title>
<path fill="none" stroke="black" d="M79.9147,-51.4489C70.2183,-55.4656 26.6428,-73.5163 17.2267,-77.4168"/>
</g>
<!-- 4 -->
<g id="node5" class="node"><title>4</title>
<ellipse fill="black" stroke="black" cx="119.612" cy="-73.9623" rx="1.8" ry="1.8"/>
</g>
<!-- 0&#45;&#45;4 -->
<g id="edge4" class="edge"><title>0&#45;&#45;4</title>
<path fill="none" stroke="black" d="M83.4538,-51.6569C89.6685,-55.4906 111.905,-69.2083 118.036,-72.9905"/>
</g>
<!-- 5 -->
<g id="node6" class="node"><title>5</title>
<ellipse fill="black" stroke="black" cx="72.145" cy="-127.542" rx="1.8" ry="1.8"/>
</g>
<!-- 0&#45;&#45;5 -->
<g id="edge5" class="edge"><title>0&#45;&#45;5</title>
<path fill="none" stroke="black" d="M81.591,-52.556C80.251,-63.1934 73.6941,-115.245 72.376,-125.708"/>
</g>
<!-- 6 -->
<g id="node7" class="node"><title>6</title>
<ellipse fill="black" stroke="black" cx="1.8" cy="-18.0606" rx="1.8" ry="1.8"/>
</g>
<!-- 0&#45;&#45;6 -->
<g id="edge6" class="edge"><title>0&#45;&#45;6</title>
<path fill="none" stroke="black" d="M80.1588,-49.9746C69.8334,-45.7693 14.811,-23.3597 3.7411,-18.8511"/>
</g>
<!-- 7 -->
<g id="node8" class="node"><title>7</title>
<ellipse fill="black" stroke="black" cx="136.549" cy="-1.8" rx="1.8" ry="1.8"/>
</g>
<!-- 0&#45;&#45;7 -->
<g id="edge7" class="edge"><title>0&#45;&#45;7</title>
<path fill="none" stroke="black" d="M83.183,-49.4477C90.6876,-42.7473 127.155,-10.1872 135.043,-3.14485"/>
</g>
<!-- 1&#45;&#45;2 -->
<g id="edge8" class="edge"><title>1&#45;&#45;2</title>
<path fill="none" stroke="black" d="M61.8902,-25.9444C59.4178,-35.8842 48.3069,-80.5535 45.9059,-90.206"/>
</g>
<!-- 1&#45;&#45;3 -->
<g id="edge9" class="edge"><title>1&#45;&#45;3</title>
<path fill="none" stroke="black" d="M60.8166,-25.7833C53.5611,-34.1563 23.2275,-69.1619 16.6789,-76.7192"/>
</g>
<!-- 1&#45;&#45;4 -->
<g id="edge10" class="edge"><title>1&#45;&#45;4</title>
<path fill="none" stroke="black" d="M63.7934,-25.2161C71.6429,-32.0711 109.786,-65.3818 118.036,-72.5865"/>
</g>
<!-- 1&#45;&#45;5 -->
<g id="edge11" class="edge"><title>1&#45;&#45;5</title>
<path fill="none" stroke="black" d="M62.5482,-25.7781C63.7336,-38.3482 70.7702,-112.963 71.9708,-125.695"/>
</g>
<!-- 1&#45;&#45;6 -->
<g id="edge12" class="edge"><title>1&#45;&#45;6</title>
<path fill="none" stroke="black" d="M60.3631,-23.7837C51.1657,-22.8848 13.2264,-19.1772 3.88526,-18.2644"/>
</g>
<!-- 1&#45;&#45;7 -->
<g id="edge13" class="edge"><title>1&#45;&#45;7</title>
<path fill="none" stroke="black" d="M64.2121,-23.4323C74.4738,-20.3636 124.686,-5.3476 134.78,-2.32912"/>
</g>
<!-- 2&#45;&#45;3 -->
<g id="edge14" class="edge"><title>2&#45;&#45;3</title>
<path fill="none" stroke="black" d="M43.478,-91.1375C37.9475,-88.579 22.3412,-81.3591 17.14,-78.9529"/>
</g>
<!-- 2&#45;&#45;4 -->
<g id="edge15" class="edge"><title>2&#45;&#45;4</title>
<path fill="none" stroke="black" d="M47.2809,-91.6016C57.5416,-89.0993 107.75,-76.8551 117.843,-74.3938"/>
</g>
<!-- 2&#45;&#45;5 -->
<g id="edge16" class="edge"><title>2&#45;&#45;5</title>
<path fill="none" stroke="black" d="M46.5947,-93.5738C50.9862,-99.4121 66.6994,-120.302 71.0318,-126.062"/>
</g>
<!-- 2&#45;&#45;6 -->
<g id="edge17" class="edge"><title>2&#45;&#45;6</title>
<path fill="none" stroke="black" d="M44.3687,-90.2197C38.3299,-79.9833 8.78105,-29.8943 2.84122,-19.8256"/>
</g>
<!-- 8 -->
<g id="node9" class="node"><title>8</title>
<ellipse fill="black" stroke="black" cx="3.57818" cy="-153.817" rx="1.8" ry="1.8"/>
</g>
<!-- 2&#45;&#45;8 -->
<g id="edge18" class="edge"><title>2&#45;&#45;8</title>
<path fill="none" stroke="black" d="M44.4126,-93.5755C38.6703,-102.047 10.7661,-143.213 4.73073,-152.116"/>
</g>
<!-- 3&#45;&#45;4 -->
<g id="edge19" class="edge"><title>3&#45;&#45;4</title>
<path fill="none" stroke="black" d="M17.2374,-78.0886C29.8829,-77.5789 104.946,-74.5535 117.754,-74.0372"/>
</g>
<!-- 3&#45;&#45;5 -->
<g id="edge20" class="edge"><title>3&#45;&#45;5</title>
<path fill="none" stroke="black" d="M16.8311,-79.3821C24.6096,-86.1546 62.4084,-119.065 70.5838,-126.183"/>
</g>
<!-- 3&#45;&#45;6 -->
<g id="edge21" class="edge"><title>3&#45;&#45;6</title>
<path fill="none" stroke="black" d="M14.9757,-76.1618C12.9064,-67.0369 4.37073,-29.3968 2.26915,-20.1294"/>
</g>
<!-- 3&#45;&#45;8 -->
<g id="edge22" class="edge"><title>3&#45;&#45;8</title>
<path fill="none" stroke="black" d="M15.1362,-80.0316C13.4966,-90.4986 5.47364,-141.716 3.86089,-152.012"/>
</g>
<!-- 4&#45;&#45;7 -->
<g id="edge23" class="edge"><title>4&#45;&#45;7</title>
<path fill="none" stroke="black" d="M120.03,-72.1785C122.353,-62.2816 133.642,-14.1884 136.083,-3.78643"/>
</g>
<!-- 5&#45;&#45;8 -->
<g id="edge24" class="edge"><title>5&#45;&#45;8</title>
<path fill="none" stroke="black" d="M70.4501,-128.192C61.0462,-131.795 15.3493,-149.306 5.46564,-153.093"/>
</g>
</g>
</svg>
