<?xml version="1.0" encoding="UTF-8" standalone="no"?>
<!DOCTYPE svg PUBLIC "-//W3C//DTD SVG 1.1//EN"
 "http://www.w3.org/Graphics/SVG/1.1/DTD/svg11.dtd">
<!-- Generated by graphviz version 2.36.0 (20140111.2315)
 -->
<!-- Title: %3 Pages: 1 -->
<svg width="178pt" height="259pt"
 viewBox="0.00 0.00 178.24 258.62" xmlns="http://www.w3.org/2000/svg" xmlns:xlink="http://www.w3.org/1999/xlink">
<g id="graph0" class="graph" transform="scale(1 1) rotate(0) translate(4 254.624)">
<title>%3</title>
<!-- 0 -->
<g id="node1" class="node"><title>0</title>
<ellipse fill="black" stroke="black" cx="85.3783" cy="-156.63" rx="1.8" ry="1.8"/>
</g>
<!-- 1 -->
<g id="node2" class="node"><title>1</title>
<ellipse fill="black" stroke="black" cx="31.5727" cy="-130.942" rx="1.8" ry="1.8"/>
</g>
<!-- 0&#45;&#45;1 -->
<g id="edge1" class="edge"><title>0&#45;&#45;1</title>
<path fill="none" stroke="black" d="M83.5881,-155.775C75.419,-151.875 41.7215,-135.788 33.4248,-131.827"/>
</g>
<!-- 2 -->
<g id="node3" class="node"><title>2</title>
<ellipse fill="black" stroke="black" cx="1.8" cy="-186.282" rx="1.8" ry="1.8"/>
</g>
<!-- 0&#45;&#45;2 -->
<g id="edge2" class="edge"><title>0&#45;&#45;2</title>
<path fill="none" stroke="black" d="M83.6326,-157.249C72.7557,-161.108 14.385,-181.817 3.53605,-185.666"/>
</g>
<!-- 3 -->
<g id="node4" class="node"><title>3</title>
<ellipse fill="black" stroke="black" cx="32.7307" cy="-203.148" rx="1.8" ry="1.8"/>
</g>
<!-- 0&#45;&#45;3 -->
<g id="edge3" class="edge"><title>0&#45;&#45;3</title>
<path fill="none" stroke="black" d="M83.6266,-158.178C75.4906,-165.367 41.4755,-195.422 34.1321,-201.91"/>
</g>
<!-- 4 -->
<g id="node5" class="node"><title>4</title>
<ellipse fill="black" stroke="black" cx="83.0355" cy="-205.729" rx="1.8" ry="1.8"/>
</g>
<!-- 0&#45;&#45;4 -->
<g id="edge4" class="edge"><title>0&#45;&#45;4</title>
<path fill="none" stroke="black" d="M85.2776,-158.74C84.8922,-166.816 83.5134,-195.714 83.1332,-203.682"/>
</g>
<!-- 5 -->
<g id="node6" class="node"><title>5</title>
<ellipse fill="black" stroke="black" cx="54.842" cy="-248.824" rx="1.8" ry="1.8"/>
</g>
<!-- 0&#45;&#45;5 -->
<g id="edge5" class="edge"><title>0&#45;&#45;5</title>
<path fill="none" stroke="black" d="M84.7405,-158.556C80.7665,-170.554 59.4401,-234.942 55.4763,-246.909"/>
</g>
<!-- 6 -->
<g id="node7" class="node"><title>6</title>
<ellipse fill="black" stroke="black" cx="75.8727" cy="-76.481" rx="1.8" ry="1.8"/>
</g>
<!-- 0&#45;&#45;6 -->
<g id="edge6" class="edge"><title>0&#45;&#45;6</title>
<path fill="none" stroke="black" d="M85.1433,-154.649C83.8282,-143.56 77.393,-89.3001 76.0994,-78.3929"/>
</g>
<!-- 8 -->
<g id="node8" class="node"><title>8</title>
<ellipse fill="black" stroke="black" cx="168.438" cy="-162.065" rx="1.8" ry="1.8"/>
</g>
<!-- 0&#45;&#45;8 -->
<g id="edge7" class="edge"><title>0&#45;&#45;8</title>
<path fill="none" stroke="black" d="M87.4314,-156.764C98.923,-157.516 155.154,-161.195 166.457,-161.935"/>
</g>
<!-- 1&#45;&#45;2 -->
<g id="edge8" class="edge"><title>1&#45;&#45;2</title>
<path fill="none" stroke="black" d="M30.5821,-132.784C26.0618,-141.185 7.41574,-175.844 2.82484,-184.377"/>
</g>
<!-- 1&#45;&#45;3 -->
<g id="edge9" class="edge"><title>1&#45;&#45;3</title>
<path fill="none" stroke="black" d="M31.6061,-133.025C31.7752,-143.569 32.5351,-190.954 32.6993,-201.194"/>
</g>
<!-- 1&#45;&#45;4 -->
<g id="edge10" class="edge"><title>1&#45;&#45;4</title>
<path fill="none" stroke="black" d="M32.6476,-132.504C39.345,-142.237 75.2864,-194.468 81.9666,-204.175"/>
</g>
<!-- 1&#45;&#45;6 -->
<g id="edge11" class="edge"><title>1&#45;&#45;6</title>
<path fill="none" stroke="black" d="M33.0466,-129.13C39.8926,-120.714 68.5144,-85.5271 74.6935,-77.9307"/>
</g>
<!-- 2&#45;&#45;3 -->
<g id="edge12" class="edge"><title>2&#45;&#45;3</title>
<path fill="none" stroke="black" d="M3.46297,-187.188C8.78335,-190.09 25.3634,-199.131 30.9056,-202.153"/>
</g>
<!-- 2&#45;&#45;4 -->
<g id="edge13" class="edge"><title>2&#45;&#45;4</title>
<path fill="none" stroke="black" d="M3.80808,-186.762C15.0472,-189.453 70.0426,-202.618 81.0976,-205.265"/>
</g>
<!-- 2&#45;&#45;5 -->
<g id="edge14" class="edge"><title>2&#45;&#45;5</title>
<path fill="none" stroke="black" d="M3.11116,-187.828C10.3858,-196.405 45.7361,-238.087 53.3819,-247.102"/>
</g>
<!-- 3&#45;&#45;4 -->
<g id="edge15" class="edge"><title>3&#45;&#45;4</title>
<path fill="none" stroke="black" d="M34.8922,-203.259C43.1668,-203.684 72.7745,-205.202 80.938,-205.621"/>
</g>
<!-- 3&#45;&#45;5 -->
<g id="edge16" class="edge"><title>3&#45;&#45;5</title>
<path fill="none" stroke="black" d="M33.6808,-205.111C37.3178,-212.624 50.3318,-239.507 53.9201,-246.92"/>
</g>
<!-- 4&#45;&#45;5 -->
<g id="edge17" class="edge"><title>4&#45;&#45;5</title>
<path fill="none" stroke="black" d="M81.8241,-207.581C77.1865,-214.669 60.5928,-240.034 56.0175,-247.027"/>
</g>
<!-- 7 -->
<g id="node9" class="node"><title>7</title>
<ellipse fill="black" stroke="black" cx="67.9318" cy="-1.8" rx="1.8" ry="1.8"/>
</g>
<!-- 6&#45;&#45;7 -->
<g id="edge18" class="edge"><title>6&#45;&#45;7</title>
<path fill="none" stroke="black" d="M75.6764,-74.6349C74.5873,-64.3925 69.2951,-14.6208 68.1504,-3.85576"/>
</g>
</g>
</svg>
