<?xml version="1.0" encoding="UTF-8" standalone="no"?>
<!DOCTYPE svg PUBLIC "-//W3C//DTD SVG 1.1//EN"
 "http://www.w3.org/Graphics/SVG/1.1/DTD/svg11.dtd">
<!-- Generated by graphviz version 2.36.0 (20140111.2315)
 -->
<!-- Title: %3 Pages: 1 -->
<svg width="219pt" height="225pt"
 viewBox="0.00 0.00 219.22 224.76" xmlns="http://www.w3.org/2000/svg" xmlns:xlink="http://www.w3.org/1999/xlink">
<g id="graph0" class="graph" transform="scale(1 1) rotate(0) translate(4 220.762)">
<title>%3</title>
<!-- 0 -->
<g id="node1" class="node"><title>0</title>
<ellipse fill="black" stroke="black" cx="78.3" cy="-137.048" rx="1.8" ry="1.8"/>
</g>
<!-- 1 -->
<g id="node2" class="node"><title>1</title>
<ellipse fill="black" stroke="black" cx="131.324" cy="-82.4511" rx="1.8" ry="1.8"/>
</g>
<!-- 0&#45;&#45;1 -->
<g id="edge1" class="edge"><title>0&#45;&#45;1</title>
<path fill="none" stroke="black" d="M79.6107,-135.698C86.8829,-128.21 122.221,-91.824 129.865,-83.954"/>
</g>
<!-- 2 -->
<g id="node3" class="node"><title>2</title>
<ellipse fill="black" stroke="black" cx="162.116" cy="-153.569" rx="1.8" ry="1.8"/>
</g>
<!-- 0&#45;&#45;2 -->
<g id="edge2" class="edge"><title>0&#45;&#45;2</title>
<path fill="none" stroke="black" d="M80.3718,-137.456C91.968,-139.742 148.711,-150.927 160.117,-153.175"/>
</g>
<!-- 3 -->
<g id="node4" class="node"><title>3</title>
<ellipse fill="black" stroke="black" cx="123.802" cy="-161.702" rx="1.8" ry="1.8"/>
</g>
<!-- 0&#45;&#45;3 -->
<g id="edge3" class="edge"><title>0&#45;&#45;3</title>
<path fill="none" stroke="black" d="M80.2551,-138.107C87.7398,-142.162 114.521,-156.673 121.905,-160.674"/>
</g>
<!-- 4 -->
<g id="node5" class="node"><title>4</title>
<ellipse fill="black" stroke="black" cx="103.251" cy="-214.962" rx="1.8" ry="1.8"/>
</g>
<!-- 0&#45;&#45;4 -->
<g id="edge4" class="edge"><title>0&#45;&#45;4</title>
<path fill="none" stroke="black" d="M78.9167,-138.974C82.3687,-149.753 99.2601,-202.5 102.656,-213.103"/>
</g>
<!-- 5 -->
<g id="node6" class="node"><title>5</title>
<ellipse fill="black" stroke="black" cx="49.6032" cy="-74.2335" rx="1.8" ry="1.8"/>
</g>
<!-- 0&#45;&#45;5 -->
<g id="edge5" class="edge"><title>0&#45;&#45;5</title>
<path fill="none" stroke="black" d="M77.4721,-135.236C73.2815,-126.063 54.4494,-84.8415 50.38,-75.934"/>
</g>
<!-- 6 -->
<g id="node7" class="node"><title>6</title>
<ellipse fill="black" stroke="black" cx="1.8" cy="-130.015" rx="1.8" ry="1.8"/>
</g>
<!-- 0&#45;&#45;6 -->
<g id="edge6" class="edge"><title>0&#45;&#45;6</title>
<path fill="none" stroke="black" d="M76.4089,-136.874C65.825,-135.901 14.0355,-131.14 3.62492,-130.183"/>
</g>
<!-- 1&#45;&#45;2 -->
<g id="edge7" class="edge"><title>1&#45;&#45;2</title>
<path fill="none" stroke="black" d="M132.086,-84.2091C136.346,-94.0484 157.192,-142.194 161.382,-151.873"/>
</g>
<!-- 1&#45;&#45;3 -->
<g id="edge8" class="edge"><title>1&#45;&#45;3</title>
<path fill="none" stroke="black" d="M131.138,-84.4101C130.098,-95.3746 125.005,-149.026 123.982,-159.811"/>
</g>
<!-- 1&#45;&#45;5 -->
<g id="edge9" class="edge"><title>1&#45;&#45;5</title>
<path fill="none" stroke="black" d="M129.304,-82.248C117.998,-81.1111 62.6738,-75.5479 51.5526,-74.4296"/>
</g>
<!-- 7 -->
<g id="node8" class="node"><title>7</title>
<ellipse fill="black" stroke="black" cx="209.419" cy="-56.2827" rx="1.8" ry="1.8"/>
</g>
<!-- 1&#45;&#45;7 -->
<g id="edge10" class="edge"><title>1&#45;&#45;7</title>
<path fill="none" stroke="black" d="M133.255,-81.8043C144.059,-78.1838 196.928,-60.4681 207.556,-56.907"/>
</g>
<!-- 8 -->
<g id="node9" class="node"><title>8</title>
<ellipse fill="black" stroke="black" cx="130.058" cy="-1.8" rx="1.8" ry="1.8"/>
</g>
<!-- 1&#45;&#45;8 -->
<g id="edge11" class="edge"><title>1&#45;&#45;8</title>
<path fill="none" stroke="black" d="M131.293,-80.4575C131.118,-69.2993 130.26,-14.6994 130.088,-3.72395"/>
</g>
<!-- 2&#45;&#45;3 -->
<g id="edge12" class="edge"><title>2&#45;&#45;3</title>
<path fill="none" stroke="black" d="M160.057,-154.006C153.342,-155.432 132.148,-159.93 125.689,-161.301"/>
</g>
<!-- 2&#45;&#45;4 -->
<g id="edge13" class="edge"><title>2&#45;&#45;4</title>
<path fill="none" stroke="black" d="M160.661,-155.087C152.588,-163.507 113.356,-204.422 104.871,-213.272"/>
</g>
<!-- 3&#45;&#45;4 -->
<g id="edge14" class="edge"><title>3&#45;&#45;4</title>
<path fill="none" stroke="black" d="M123.118,-163.474C119.998,-171.56 107.127,-204.916 103.958,-213.129"/>
</g>
<!-- 5&#45;&#45;6 -->
<g id="edge15" class="edge"><title>5&#45;&#45;6</title>
<path fill="none" stroke="black" d="M48.4215,-75.6124C41.8654,-83.2628 10.0066,-120.439 3.11589,-128.48"/>
</g>
</g>
</svg>
