<?xml version="1.0" encoding="UTF-8" standalone="no"?>
<!DOCTYPE svg PUBLIC "-//W3C//DTD SVG 1.1//EN"
 "http://www.w3.org/Graphics/SVG/1.1/DTD/svg11.dtd">
<!-- Generated by graphviz version 2.36.0 (20140111.2315)
 -->
<!-- Title: %3 Pages: 1 -->
<svg width="122pt" height="177pt"
 viewBox="0.00 0.00 122.06 176.55" xmlns="http://www.w3.org/2000/svg" xmlns:xlink="http://www.w3.org/1999/xlink">
<g id="graph0" class="graph" transform="scale(1 1) rotate(0) translate(4 172.548)">
<title>%3</title>
<!-- 0 -->
<g id="node1" class="node"><title>0</title>
<ellipse fill="black" stroke="black" cx="20.5979" cy="-111.933" rx="1.8" ry="1.8"/>
</g>
<!-- 1 -->
<g id="node2" class="node"><title>1</title>
<ellipse fill="black" stroke="black" cx="96.281" cy="-79.0153" rx="1.8" ry="1.8"/>
</g>
<!-- 0&#45;&#45;1 -->
<g id="edge1" class="edge"><title>0&#45;&#45;1</title>
<path fill="none" stroke="black" d="M22.4688,-111.12C32.9397,-106.565 84.1761,-84.2802 94.4755,-79.8005"/>
</g>
<!-- 2 -->
<g id="node3" class="node"><title>2</title>
<ellipse fill="black" stroke="black" cx="25.1624" cy="-60.2223" rx="1.8" ry="1.8"/>
</g>
<!-- 0&#45;&#45;2 -->
<g id="edge2" class="edge"><title>0&#45;&#45;2</title>
<path fill="none" stroke="black" d="M20.7941,-109.711C21.5449,-101.205 24.2314,-70.7701 24.9721,-62.3785"/>
</g>
<!-- 3 -->
<g id="node4" class="node"><title>3</title>
<ellipse fill="black" stroke="black" cx="1.8" cy="-152.083" rx="1.8" ry="1.8"/>
</g>
<!-- 0&#45;&#45;3 -->
<g id="edge3" class="edge"><title>0&#45;&#45;3</title>
<path fill="none" stroke="black" d="M19.7902,-113.658C16.6981,-120.263 5.63434,-143.894 2.58379,-150.409"/>
</g>
<!-- 4 -->
<g id="node5" class="node"><title>4</title>
<ellipse fill="black" stroke="black" cx="69.3624" cy="-126.921" rx="1.8" ry="1.8"/>
</g>
<!-- 0&#45;&#45;4 -->
<g id="edge4" class="edge"><title>0&#45;&#45;4</title>
<path fill="none" stroke="black" d="M22.6933,-112.577C30.7145,-115.043 59.4156,-123.864 67.3291,-126.296"/>
</g>
<!-- 5 -->
<g id="node6" class="node"><title>5</title>
<ellipse fill="black" stroke="black" cx="77.9714" cy="-166.748" rx="1.8" ry="1.8"/>
</g>
<!-- 0&#45;&#45;5 -->
<g id="edge5" class="edge"><title>0&#45;&#45;5</title>
<path fill="none" stroke="black" d="M22.0162,-113.288C29.8849,-120.806 68.1218,-157.338 76.392,-165.239"/>
</g>
<!-- 1&#45;&#45;4 -->
<g id="edge6" class="edge"><title>1&#45;&#45;4</title>
<path fill="none" stroke="black" d="M95.3853,-80.6092C91.2984,-87.8825 74.4398,-117.885 70.289,-125.272"/>
</g>
<!-- 1&#45;&#45;5 -->
<g id="edge7" class="edge"><title>1&#45;&#45;5</title>
<path fill="none" stroke="black" d="M95.8985,-80.8477C93.5157,-92.2653 80.7284,-153.538 78.3517,-164.926"/>
</g>
<!-- 6 -->
<g id="node7" class="node"><title>6</title>
<ellipse fill="black" stroke="black" cx="41.3867" cy="-1.8" rx="1.8" ry="1.8"/>
</g>
<!-- 1&#45;&#45;6 -->
<g id="edge8" class="edge"><title>1&#45;&#45;6</title>
<path fill="none" stroke="black" d="M95.1344,-77.4025C87.9905,-67.3537 49.6525,-13.4268 42.5269,-3.40388"/>
</g>
<!-- 7 -->
<g id="node8" class="node"><title>7</title>
<ellipse fill="black" stroke="black" cx="112.264" cy="-21.117" rx="1.8" ry="1.8"/>
</g>
<!-- 1&#45;&#45;7 -->
<g id="edge9" class="edge"><title>1&#45;&#45;7</title>
<path fill="none" stroke="black" d="M96.8128,-77.0889C99.2395,-68.2984 109.25,-32.0378 111.714,-23.11"/>
</g>
<!-- 2&#45;&#45;3 -->
<g id="edge10" class="edge"><title>2&#45;&#45;3</title>
<path fill="none" stroke="black" d="M24.6745,-62.141C21.6341,-74.0958 5.31785,-138.251 2.28527,-150.175"/>
</g>
<!-- 2&#45;&#45;4 -->
<g id="edge11" class="edge"><title>2&#45;&#45;4</title>
<path fill="none" stroke="black" d="M26.255,-61.8711C32.317,-71.0188 61.7744,-115.471 68.1457,-125.085"/>
</g>
<!-- 2&#45;&#45;6 -->
<g id="edge12" class="edge"><title>2&#45;&#45;6</title>
<path fill="none" stroke="black" d="M25.7022,-58.2785C28.1655,-49.4085 38.3265,-12.8196 40.8282,-3.81103"/>
</g>
<!-- 2&#45;&#45;7 -->
<g id="edge13" class="edge"><title>2&#45;&#45;7</title>
<path fill="none" stroke="black" d="M26.9817,-59.4056C38.3172,-54.3164 99.1489,-27.0054 110.455,-21.9293"/>
</g>
<!-- 3&#45;&#45;4 -->
<g id="edge14" class="edge"><title>3&#45;&#45;4</title>
<path fill="none" stroke="black" d="M3.74915,-151.357C13.6151,-147.683 57.9526,-131.171 67.5334,-127.602"/>
</g>
<!-- 3&#45;&#45;5 -->
<g id="edge15" class="edge"><title>3&#45;&#45;5</title>
<path fill="none" stroke="black" d="M3.6829,-152.446C14.2214,-154.475 65.7884,-164.403 76.1543,-166.398"/>
</g>
</g>
</svg>
