<?xml version="1.0" encoding="UTF-8" standalone="no"?>
<!DOCTYPE svg PUBLIC "-//W3C//DTD SVG 1.1//EN"
 "http://www.w3.org/Graphics/SVG/1.1/DTD/svg11.dtd">
<!-- Generated by graphviz version 2.36.0 (20140111.2315)
 -->
<!-- Title: %3 Pages: 1 -->
<svg width="218pt" height="114pt"
 viewBox="0.00 0.00 218.21 114.18" xmlns="http://www.w3.org/2000/svg" xmlns:xlink="http://www.w3.org/1999/xlink">
<g id="graph0" class="graph" transform="scale(1 1) rotate(0) translate(4 110.176)">
<title>%3</title>
<!-- 0 -->
<g id="node1" class="node"><title>0</title>
<ellipse fill="black" stroke="black" cx="73.7823" cy="-67.0542" rx="1.8" ry="1.8"/>
</g>
<!-- 1 -->
<g id="node2" class="node"><title>1</title>
<ellipse fill="black" stroke="black" cx="128.656" cy="-29.0422" rx="1.8" ry="1.8"/>
</g>
<!-- 0&#45;&#45;1 -->
<g id="edge1" class="edge"><title>0&#45;&#45;1</title>
<path fill="none" stroke="black" d="M75.608,-65.7895C83.9393,-60.0182 118.306,-36.212 126.767,-30.3507"/>
</g>
<!-- 2 -->
<g id="node3" class="node"><title>2</title>
<ellipse fill="black" stroke="black" cx="63.2743" cy="-26.9858" rx="1.8" ry="1.8"/>
</g>
<!-- 0&#45;&#45;2 -->
<g id="edge2" class="edge"><title>0&#45;&#45;2</title>
<path fill="none" stroke="black" d="M73.2173,-64.8999C71.3757,-57.8777 65.5633,-35.7139 63.7918,-28.9591"/>
</g>
<!-- 3 -->
<g id="node4" class="node"><title>3</title>
<ellipse fill="black" stroke="black" cx="146.148" cy="-71.6211" rx="1.8" ry="1.8"/>
</g>
<!-- 0&#45;&#45;3 -->
<g id="edge3" class="edge"><title>0&#45;&#45;3</title>
<path fill="none" stroke="black" d="M75.87,-67.1859C86.4374,-67.8528 133.927,-70.8499 144.189,-71.4975"/>
</g>
<!-- 4 -->
<g id="node5" class="node"><title>4</title>
<ellipse fill="black" stroke="black" cx="66.5348" cy="-104.376" rx="1.8" ry="1.8"/>
</g>
<!-- 0&#45;&#45;4 -->
<g id="edge4" class="edge"><title>0&#45;&#45;4</title>
<path fill="none" stroke="black" d="M73.3926,-69.0608C72.1225,-75.6017 68.1136,-96.2464 66.8918,-102.538"/>
</g>
<!-- 5 -->
<g id="node6" class="node"><title>5</title>
<ellipse fill="black" stroke="black" cx="6.76216" cy="-98.6157" rx="1.8" ry="1.8"/>
</g>
<!-- 0&#45;&#45;5 -->
<g id="edge5" class="edge"><title>0&#45;&#45;5</title>
<path fill="none" stroke="black" d="M72.1256,-67.8344C62.9339,-72.163 18.2678,-93.1974 8.60703,-97.7469"/>
</g>
<!-- 6 -->
<g id="node7" class="node"><title>6</title>
<ellipse fill="black" stroke="black" cx="1.8" cy="-42.9917" rx="1.8" ry="1.8"/>
</g>
<!-- 0&#45;&#45;6 -->
<g id="edge6" class="edge"><title>0&#45;&#45;6</title>
<path fill="none" stroke="black" d="M72.0029,-66.4594C62.044,-63.1303 13.3129,-46.8403 3.51715,-43.5657"/>
</g>
<!-- 1&#45;&#45;2 -->
<g id="edge7" class="edge"><title>1&#45;&#45;2</title>
<path fill="none" stroke="black" d="M126.77,-28.9829C117.39,-28.6879 75.8111,-27.3801 65.563,-27.0577"/>
</g>
<!-- 1&#45;&#45;3 -->
<g id="edge8" class="edge"><title>1&#45;&#45;3</title>
<path fill="none" stroke="black" d="M129.408,-30.8718C132.285,-37.8756 142.58,-62.936 145.419,-69.8458"/>
</g>
<!-- 1&#45;&#45;4 -->
<g id="edge9" class="edge"><title>1&#45;&#45;4</title>
<path fill="none" stroke="black" d="M127.359,-30.6157C119.274,-40.4197 75.8889,-93.0327 67.8252,-102.811"/>
</g>
<!-- 7 -->
<g id="node8" class="node"><title>7</title>
<ellipse fill="black" stroke="black" cx="208.409" cy="-63.4393" rx="1.8" ry="1.8"/>
</g>
<!-- 1&#45;&#45;7 -->
<g id="edge10" class="edge"><title>1&#45;&#45;7</title>
<path fill="none" stroke="black" d="M130.322,-29.7606C140.701,-34.2371 196.4,-58.2599 206.753,-62.7248"/>
</g>
<!-- 8 -->
<g id="node9" class="node"><title>8</title>
<ellipse fill="black" stroke="black" cx="191.329" cy="-1.8" rx="1.8" ry="1.8"/>
</g>
<!-- 1&#45;&#45;8 -->
<g id="edge11" class="edge"><title>1&#45;&#45;8</title>
<path fill="none" stroke="black" d="M130.464,-28.2563C139.616,-24.2782 180.745,-6.40061 189.632,-2.53748"/>
</g>
<!-- 2&#45;&#45;3 -->
<g id="edge12" class="edge"><title>2&#45;&#45;3</title>
<path fill="none" stroke="black" d="M65.0053,-27.918C75.7905,-33.7269 133.669,-64.9001 144.427,-70.694"/>
</g>
<!-- 2&#45;&#45;4 -->
<g id="edge13" class="edge"><title>2&#45;&#45;4</title>
<path fill="none" stroke="black" d="M63.3549,-28.8988C63.806,-39.6059 66.0134,-91.9983 66.4571,-102.53"/>
</g>
<!-- 2&#45;&#45;5 -->
<g id="edge14" class="edge"><title>2&#45;&#45;5</title>
<path fill="none" stroke="black" d="M62.094,-28.4818C54.7395,-37.8038 15.2716,-87.8299 7.936,-97.1278"/>
</g>
<!-- 2&#45;&#45;6 -->
<g id="edge15" class="edge"><title>2&#45;&#45;6</title>
<path fill="none" stroke="black" d="M61.5008,-27.4475C52.6814,-29.7438 13.5875,-39.9226 3.95186,-42.4315"/>
</g>
<!-- 3&#45;&#45;7 -->
<g id="edge16" class="edge"><title>3&#45;&#45;7</title>
<path fill="none" stroke="black" d="M147.944,-71.3851C156.877,-70.2113 196.471,-65.0081 206.23,-63.7257"/>
</g>
<!-- 3&#45;&#45;8 -->
<g id="edge17" class="edge"><title>3&#45;&#45;8</title>
<path fill="none" stroke="black" d="M147.265,-69.8952C153.462,-60.3193 183.573,-13.7865 190.085,-3.72198"/>
</g>
<!-- 4&#45;&#45;5 -->
<g id="edge18" class="edge"><title>4&#45;&#45;5</title>
<path fill="none" stroke="black" d="M64.5461,-104.185C55.4711,-103.31 18.0365,-99.7022 8.81967,-98.814"/>
</g>
<!-- 4&#45;&#45;6 -->
<g id="edge19" class="edge"><title>4&#45;&#45;6</title>
<path fill="none" stroke="black" d="M64.9347,-102.859C55.9006,-94.2924 11.389,-52.0844 3.12244,-44.2457"/>
</g>
<!-- 5&#45;&#45;6 -->
<g id="edge20" class="edge"><title>5&#45;&#45;6</title>
<path fill="none" stroke="black" d="M6.59706,-96.765C5.84367,-88.3198 2.73596,-53.4835 1.97081,-44.9064"/>
</g>
<!-- 7&#45;&#45;8 -->
<g id="edge21" class="edge"><title>7&#45;&#45;8</title>
<path fill="none" stroke="black" d="M207.917,-61.661C205.466,-52.8179 194.604,-13.6192 191.927,-3.95763"/>
</g>
</g>
</svg>
