<?xml version="1.0" encoding="UTF-8" standalone="no"?>
<!DOCTYPE svg PUBLIC "-//W3C//DTD SVG 1.1//EN"
 "http://www.w3.org/Graphics/SVG/1.1/DTD/svg11.dtd">
<!-- Generated by graphviz version 2.36.0 (20140111.2315)
 -->
<!-- Title: %3 Pages: 1 -->
<svg width="179pt" height="178pt"
 viewBox="0.00 0.00 178.94 177.90" xmlns="http://www.w3.org/2000/svg" xmlns:xlink="http://www.w3.org/1999/xlink">
<g id="graph0" class="graph" transform="scale(1 1) rotate(0) translate(4 173.903)">
<title>%3</title>
<!-- 0 -->
<g id="node1" class="node"><title>0</title>
<ellipse fill="black" stroke="black" cx="83.4577" cy="-77.1192" rx="1.8" ry="1.8"/>
</g>
<!-- 1 -->
<g id="node2" class="node"><title>1</title>
<ellipse fill="black" stroke="black" cx="119.718" cy="-126.633" rx="1.8" ry="1.8"/>
</g>
<!-- 0&#45;&#45;1 -->
<g id="edge1" class="edge"><title>0&#45;&#45;1</title>
<path fill="none" stroke="black" d="M84.6642,-78.7666C90.1695,-86.284 112.879,-117.293 118.47,-124.928"/>
</g>
<!-- 2 -->
<g id="node3" class="node"><title>2</title>
<ellipse fill="black" stroke="black" cx="35.6309" cy="-121.398" rx="1.8" ry="1.8"/>
</g>
<!-- 0&#45;&#45;2 -->
<g id="edge2" class="edge"><title>0&#45;&#45;2</title>
<path fill="none" stroke="black" d="M81.8664,-78.5925C74.6051,-85.3151 44.652,-113.046 37.2772,-119.874"/>
</g>
<!-- 3 -->
<g id="node4" class="node"><title>3</title>
<ellipse fill="black" stroke="black" cx="1.8" cy="-71.7896" rx="1.8" ry="1.8"/>
</g>
<!-- 0&#45;&#45;3 -->
<g id="edge3" class="edge"><title>0&#45;&#45;3</title>
<path fill="none" stroke="black" d="M81.4392,-76.9875C70.1417,-76.2501 14.8604,-72.6421 3.74796,-71.9168"/>
</g>
<!-- 4 -->
<g id="node5" class="node"><title>4</title>
<ellipse fill="black" stroke="black" cx="169.137" cy="-96.6747" rx="1.8" ry="1.8"/>
</g>
<!-- 0&#45;&#45;4 -->
<g id="edge4" class="edge"><title>0&#45;&#45;4</title>
<path fill="none" stroke="black" d="M85.2473,-77.5277C96.3976,-80.0726 156.236,-93.7301 167.357,-96.2685"/>
</g>
<!-- 5 -->
<g id="node6" class="node"><title>5</title>
<ellipse fill="black" stroke="black" cx="73.8981" cy="-168.103" rx="1.8" ry="1.8"/>
</g>
<!-- 0&#45;&#45;5 -->
<g id="edge5" class="edge"><title>0&#45;&#45;5</title>
<path fill="none" stroke="black" d="M83.2581,-79.0196C82.014,-90.8602 75.3376,-154.403 74.0967,-166.213"/>
</g>
<!-- 6 -->
<g id="node7" class="node"><title>6</title>
<ellipse fill="black" stroke="black" cx="21.1358" cy="-37.4387" rx="1.8" ry="1.8"/>
</g>
<!-- 0&#45;&#45;6 -->
<g id="edge6" class="edge"><title>0&#45;&#45;6</title>
<path fill="none" stroke="black" d="M81.9172,-76.1384C73.3698,-70.6962 31.8349,-44.2508 22.8514,-38.531"/>
</g>
<!-- 7 -->
<g id="node8" class="node"><title>7</title>
<ellipse fill="black" stroke="black" cx="150.487" cy="-46.7158" rx="1.8" ry="1.8"/>
</g>
<!-- 0&#45;&#45;7 -->
<g id="edge7" class="edge"><title>0&#45;&#45;7</title>
<path fill="none" stroke="black" d="M85.1146,-76.3677C94.3076,-72.1979 138.98,-51.9353 148.642,-47.5528"/>
</g>
<!-- 8 -->
<g id="node9" class="node"><title>8</title>
<ellipse fill="black" stroke="black" cx="58.2682" cy="-1.8" rx="1.8" ry="1.8"/>
</g>
<!-- 0&#45;&#45;8 -->
<g id="edge8" class="edge"><title>0&#45;&#45;8</title>
<path fill="none" stroke="black" d="M82.8351,-75.2574C79.35,-64.8368 62.297,-13.8467 58.8691,-3.59675"/>
</g>
<!-- 1&#45;&#45;2 -->
<g id="edge9" class="edge"><title>1&#45;&#45;2</title>
<path fill="none" stroke="black" d="M117.64,-126.503C106.006,-125.779 49.0799,-122.235 37.6368,-121.523"/>
</g>
<!-- 1&#45;&#45;4 -->
<g id="edge10" class="edge"><title>1&#45;&#45;4</title>
<path fill="none" stroke="black" d="M121.363,-125.636C128.866,-121.087 159.816,-102.325 167.436,-97.706"/>
</g>
<!-- 1&#45;&#45;5 -->
<g id="edge11" class="edge"><title>1&#45;&#45;5</title>
<path fill="none" stroke="black" d="M118.194,-128.012C111.237,-134.309 82.5407,-160.281 75.4754,-166.675"/>
</g>
<!-- 1&#45;&#45;7 -->
<g id="edge12" class="edge"><title>1&#45;&#45;7</title>
<path fill="none" stroke="black" d="M120.479,-124.657C124.736,-113.6 145.566,-59.4978 149.753,-48.6223"/>
</g>
<!-- 2&#45;&#45;3 -->
<g id="edge13" class="edge"><title>2&#45;&#45;3</title>
<path fill="none" stroke="black" d="M34.5052,-119.747C29.3688,-112.215 8.18119,-81.1467 2.96453,-73.4973"/>
</g>
<!-- 2&#45;&#45;5 -->
<g id="edge14" class="edge"><title>2&#45;&#45;5</title>
<path fill="none" stroke="black" d="M36.9041,-122.952C42.714,-130.043 66.6801,-159.293 72.5809,-166.495"/>
</g>
<!-- 2&#45;&#45;6 -->
<g id="edge15" class="edge"><title>2&#45;&#45;6</title>
<path fill="none" stroke="black" d="M35.2726,-119.322C33.2671,-107.706 23.4542,-50.8672 21.4816,-39.4416"/>
</g>
<!-- 3&#45;&#45;6 -->
<g id="edge16" class="edge"><title>3&#45;&#45;6</title>
<path fill="none" stroke="black" d="M2.83958,-69.9428C6.22829,-63.9226 16.9239,-44.9214 20.1836,-39.1305"/>
</g>
<!-- 3&#45;&#45;8 -->
<g id="edge17" class="edge"><title>3&#45;&#45;8</title>
<path fill="none" stroke="black" d="M2.97942,-70.3278C10.3282,-61.2193 49.7654,-12.3388 57.0952,-3.25379"/>
</g>
<!-- 4&#45;&#45;7 -->
<g id="edge18" class="edge"><title>4&#45;&#45;7</title>
<path fill="none" stroke="black" d="M168.336,-94.5281C165.268,-86.3103 154.291,-56.9063 151.264,-48.7989"/>
</g>
</g>
</svg>
