<?xml version="1.0" encoding="UTF-8" standalone="no"?>
<!DOCTYPE svg PUBLIC "-//W3C//DTD SVG 1.1//EN"
 "http://www.w3.org/Graphics/SVG/1.1/DTD/svg11.dtd">
<!-- Generated by graphviz version 2.36.0 (20140111.2315)
 -->
<!-- Title: %3 Pages: 1 -->
<svg width="149pt" height="224pt"
 viewBox="0.00 0.00 149.17 223.53" xmlns="http://www.w3.org/2000/svg" xmlns:xlink="http://www.w3.org/1999/xlink">
<g id="graph0" class="graph" transform="scale(1 1) rotate(0) translate(4 219.532)">
<title>%3</title>
<!-- 0 -->
<g id="node1" class="node"><title>0</title>
<ellipse fill="black" stroke="black" cx="36.1197" cy="-123.346" rx="1.8" ry="1.8"/>
</g>
<!-- 1 -->
<g id="node2" class="node"><title>1</title>
<ellipse fill="black" stroke="black" cx="91.396" cy="-177.804" rx="1.8" ry="1.8"/>
</g>
<!-- 0&#45;&#45;1 -->
<g id="edge1" class="edge"><title>0&#45;&#45;1</title>
<path fill="none" stroke="black" d="M37.486,-124.692C45.0671,-132.161 81.9064,-168.455 89.8744,-176.305"/>
</g>
<!-- 2 -->
<g id="node3" class="node"><title>2</title>
<ellipse fill="black" stroke="black" cx="85.773" cy="-132.136" rx="1.8" ry="1.8"/>
</g>
<!-- 0&#45;&#45;2 -->
<g id="edge2" class="edge"><title>0&#45;&#45;2</title>
<path fill="none" stroke="black" d="M38.2532,-123.723C46.4207,-125.169 75.6449,-130.343 83.7027,-131.77"/>
</g>
<!-- 3 -->
<g id="node4" class="node"><title>3</title>
<ellipse fill="black" stroke="black" cx="55.0808" cy="-157.642" rx="1.8" ry="1.8"/>
</g>
<!-- 0&#45;&#45;3 -->
<g id="edge3" class="edge"><title>0&#45;&#45;3</title>
<path fill="none" stroke="black" d="M37.1391,-125.19C40.4621,-131.2 50.9505,-150.171 54.147,-155.953"/>
</g>
<!-- 4 -->
<g id="node5" class="node"><title>4</title>
<ellipse fill="black" stroke="black" cx="43.1078" cy="-213.732" rx="1.8" ry="1.8"/>
</g>
<!-- 0&#45;&#45;4 -->
<g id="edge4" class="edge"><title>0&#45;&#45;4</title>
<path fill="none" stroke="black" d="M36.2656,-125.234C37.1751,-136.996 42.0556,-200.122 42.9627,-211.854"/>
</g>
<!-- 5 -->
<g id="node6" class="node"><title>5</title>
<ellipse fill="black" stroke="black" cx="79.0407" cy="-77.188" rx="1.8" ry="1.8"/>
</g>
<!-- 0&#45;&#45;5 -->
<g id="edge5" class="edge"><title>0&#45;&#45;5</title>
<path fill="none" stroke="black" d="M37.5477,-121.81C44.0642,-114.802 70.9449,-85.8943 77.5632,-78.7769"/>
</g>
<!-- 6 -->
<g id="node7" class="node"><title>6</title>
<ellipse fill="black" stroke="black" cx="1.8" cy="-174.62" rx="1.8" ry="1.8"/>
</g>
<!-- 0&#45;&#45;6 -->
<g id="edge6" class="edge"><title>0&#45;&#45;6</title>
<path fill="none" stroke="black" d="M34.9778,-125.052C29.7672,-132.836 8.27339,-164.948 2.98136,-172.855"/>
</g>
<!-- 7 -->
<g id="node8" class="node"><title>7</title>
<ellipse fill="black" stroke="black" cx="139.368" cy="-149.897" rx="1.8" ry="1.8"/>
</g>
<!-- 0&#45;&#45;7 -->
<g id="edge7" class="edge"><title>0&#45;&#45;7</title>
<path fill="none" stroke="black" d="M37.9117,-123.807C50.4438,-127.029 124.833,-146.159 137.526,-149.423"/>
</g>
<!-- 1&#45;&#45;2 -->
<g id="edge8" class="edge"><title>1&#45;&#45;2</title>
<path fill="none" stroke="black" d="M91.1543,-175.842C90.2294,-168.33 86.92,-141.451 86.0075,-134.04"/>
</g>
<!-- 1&#45;&#45;3 -->
<g id="edge9" class="edge"><title>1&#45;&#45;3</title>
<path fill="none" stroke="black" d="M89.4435,-176.72C83.0791,-173.186 62.9913,-162.034 56.8693,-158.635"/>
</g>
<!-- 1&#45;&#45;4 -->
<g id="edge10" class="edge"><title>1&#45;&#45;4</title>
<path fill="none" stroke="black" d="M89.7893,-178.999C82.4579,-184.454 52.216,-206.955 44.77,-212.495"/>
</g>
<!-- 1&#45;&#45;5 -->
<g id="edge11" class="edge"><title>1&#45;&#45;5</title>
<path fill="none" stroke="black" d="M91.1379,-175.702C89.53,-162.608 80.9011,-92.3384 79.2973,-79.2779"/>
</g>
<!-- 1&#45;&#45;6 -->
<g id="edge12" class="edge"><title>1&#45;&#45;6</title>
<path fill="none" stroke="black" d="M89.5246,-177.737C77.8646,-177.323 15.2911,-175.099 3.66104,-174.686"/>
</g>
<!-- 1&#45;&#45;7 -->
<g id="edge13" class="edge"><title>1&#45;&#45;7</title>
<path fill="none" stroke="black" d="M92.9921,-176.875C100.275,-172.638 130.319,-155.161 137.717,-150.857"/>
</g>
<!-- 2&#45;&#45;3 -->
<g id="edge14" class="edge"><title>2&#45;&#45;3</title>
<path fill="none" stroke="black" d="M84.1229,-133.508C78.7439,-137.978 61.7665,-152.086 56.5923,-156.386"/>
</g>
<!-- 2&#45;&#45;4 -->
<g id="edge15" class="edge"><title>2&#45;&#45;4</title>
<path fill="none" stroke="black" d="M84.8819,-133.841C79.3295,-144.459 49.5322,-201.445 43.9941,-212.037"/>
</g>
<!-- 2&#45;&#45;5 -->
<g id="edge16" class="edge"><title>2&#45;&#45;5</title>
<path fill="none" stroke="black" d="M85.549,-130.308C84.5269,-121.965 80.3105,-87.5524 79.2724,-79.0794"/>
</g>
<!-- 2&#45;&#45;6 -->
<g id="edge17" class="edge"><title>2&#45;&#45;6</title>
<path fill="none" stroke="black" d="M84.0191,-133.024C73.0909,-138.552 14.4444,-168.223 3.54425,-173.737"/>
</g>
<!-- 2&#45;&#45;7 -->
<g id="edge18" class="edge"><title>2&#45;&#45;7</title>
<path fill="none" stroke="black" d="M87.5562,-132.727C95.6933,-135.424 129.259,-146.547 137.523,-149.285"/>
</g>
<!-- 3&#45;&#45;4 -->
<g id="edge19" class="edge"><title>3&#45;&#45;4</title>
<path fill="none" stroke="black" d="M54.6824,-159.508C52.8646,-168.024 45.3662,-203.152 43.52,-211.801"/>
</g>
<!-- 3&#45;&#45;5 -->
<g id="edge20" class="edge"><title>3&#45;&#45;5</title>
<path fill="none" stroke="black" d="M55.673,-155.653C58.9879,-144.522 75.2085,-90.0559 78.4691,-79.1073"/>
</g>
<!-- 3&#45;&#45;6 -->
<g id="edge21" class="edge"><title>3&#45;&#45;6</title>
<path fill="none" stroke="black" d="M53.308,-158.207C45.2186,-160.785 11.8498,-171.417 3.63404,-174.035"/>
</g>
<!-- 3&#45;&#45;7 -->
<g id="edge22" class="edge"><title>3&#45;&#45;7</title>
<path fill="none" stroke="black" d="M57.1643,-157.451C68.8256,-156.379 125.887,-151.136 137.357,-150.081"/>
</g>
<!-- 4&#45;&#45;6 -->
<g id="edge23" class="edge"><title>4&#45;&#45;6</title>
<path fill="none" stroke="black" d="M41.7335,-212.43C35.4619,-206.492 9.5915,-181.997 3.22191,-175.966"/>
</g>
<!-- 8 -->
<g id="node9" class="node"><title>8</title>
<ellipse fill="black" stroke="black" cx="83.0356" cy="-1.8" rx="1.8" ry="1.8"/>
</g>
<!-- 5&#45;&#45;8 -->
<g id="edge24" class="edge"><title>5&#45;&#45;8</title>
<path fill="none" stroke="black" d="M79.1394,-75.3245C79.6921,-64.8944 82.3967,-13.8576 82.9403,-3.59839"/>
</g>
</g>
</svg>
