<?xml version="1.0" encoding="UTF-8" standalone="no"?>
<!DOCTYPE svg PUBLIC "-//W3C//DTD SVG 1.1//EN"
 "http://www.w3.org/Graphics/SVG/1.1/DTD/svg11.dtd">
<!-- Generated by graphviz version 2.36.0 (20140111.2315)
 -->
<!-- Title: %3 Pages: 1 -->
<svg width="219pt" height="153pt"
 viewBox="0.00 0.00 218.84 152.76" xmlns="http://www.w3.org/2000/svg" xmlns:xlink="http://www.w3.org/1999/xlink">
<g id="graph0" class="graph" transform="scale(1 1) rotate(0) translate(4 148.763)">
<title>%3</title>
<!-- 0 -->
<g id="node1" class="node"><title>0</title>
<ellipse fill="black" stroke="black" cx="126.68" cy="-83.297" rx="1.8" ry="1.8"/>
</g>
<!-- 1 -->
<g id="node2" class="node"><title>1</title>
<ellipse fill="black" stroke="black" cx="140.193" cy="-57.1351" rx="1.8" ry="1.8"/>
</g>
<!-- 0&#45;&#45;1 -->
<g id="edge1" class="edge"><title>0&#45;&#45;1</title>
<path fill="none" stroke="black" d="M127.566,-81.5804C130.009,-76.8514 136.818,-63.6693 139.285,-58.8923"/>
</g>
<!-- 2 -->
<g id="node3" class="node"><title>2</title>
<ellipse fill="black" stroke="black" cx="64.5888" cy="-63.4724" rx="1.8" ry="1.8"/>
</g>
<!-- 0&#45;&#45;2 -->
<g id="edge2" class="edge"><title>0&#45;&#45;2</title>
<path fill="none" stroke="black" d="M124.888,-82.7251C115.98,-79.8809 76.4946,-67.2737 66.7623,-64.1663"/>
</g>
<!-- 3 -->
<g id="node4" class="node"><title>3</title>
<ellipse fill="black" stroke="black" cx="75.5466" cy="-119.976" rx="1.8" ry="1.8"/>
</g>
<!-- 0&#45;&#45;3 -->
<g id="edge3" class="edge"><title>0&#45;&#45;3</title>
<path fill="none" stroke="black" d="M124.978,-84.5174C117.215,-90.0863 85.1913,-113.058 77.3067,-118.714"/>
</g>
<!-- 4 -->
<g id="node5" class="node"><title>4</title>
<ellipse fill="black" stroke="black" cx="167.585" cy="-128.656" rx="1.8" ry="1.8"/>
</g>
<!-- 0&#45;&#45;4 -->
<g id="edge4" class="edge"><title>0&#45;&#45;4</title>
<path fill="none" stroke="black" d="M128.041,-84.8062C134.251,-91.6929 159.869,-120.101 166.177,-127.095"/>
</g>
<!-- 5 -->
<g id="node6" class="node"><title>5</title>
<ellipse fill="black" stroke="black" cx="114.058" cy="-142.963" rx="1.8" ry="1.8"/>
</g>
<!-- 0&#45;&#45;5 -->
<g id="edge5" class="edge"><title>0&#45;&#45;5</title>
<path fill="none" stroke="black" d="M126.26,-85.2822C124.343,-94.3411 116.439,-131.709 114.493,-140.909"/>
</g>
<!-- 6 -->
<g id="node7" class="node"><title>6</title>
<ellipse fill="black" stroke="black" cx="101.05" cy="-1.8" rx="1.8" ry="1.8"/>
</g>
<!-- 0&#45;&#45;6 -->
<g id="edge6" class="edge"><title>0&#45;&#45;6</title>
<path fill="none" stroke="black" d="M126.046,-81.2825C122.5,-70.0072 105.149,-14.8347 101.661,-3.74413"/>
</g>
<!-- 7 -->
<g id="node8" class="node"><title>7</title>
<ellipse fill="black" stroke="black" cx="209.036" cy="-70.2685" rx="1.8" ry="1.8"/>
</g>
<!-- 0&#45;&#45;7 -->
<g id="edge7" class="edge"><title>0&#45;&#45;7</title>
<path fill="none" stroke="black" d="M128.715,-82.975C140.11,-81.1724 195.864,-72.3523 207.071,-70.5793"/>
</g>
<!-- 1&#45;&#45;2 -->
<g id="edge8" class="edge"><title>1&#45;&#45;2</title>
<path fill="none" stroke="black" d="M138.324,-57.2917C127.864,-58.1685 76.6811,-62.4588 66.3924,-63.3212"/>
</g>
<!-- 1&#45;&#45;3 -->
<g id="edge9" class="edge"><title>1&#45;&#45;3</title>
<path fill="none" stroke="black" d="M138.595,-58.6885C129.573,-67.4583 85.1224,-110.668 76.8672,-118.693"/>
</g>
<!-- 1&#45;&#45;4 -->
<g id="edge10" class="edge"><title>1&#45;&#45;4</title>
<path fill="none" stroke="black" d="M140.87,-58.903C144.66,-68.7981 163.204,-117.217 166.931,-126.95"/>
</g>
<!-- 1&#45;&#45;5 -->
<g id="edge11" class="edge"><title>1&#45;&#45;5</title>
<path fill="none" stroke="black" d="M139.647,-58.9277C136.246,-70.0975 117.994,-130.04 114.601,-141.181"/>
</g>
<!-- 1&#45;&#45;6 -->
<g id="edge12" class="edge"><title>1&#45;&#45;6</title>
<path fill="none" stroke="black" d="M138.891,-55.294C132.841,-46.7427 107.551,-10.9913 102.092,-3.27295"/>
</g>
<!-- 1&#45;&#45;7 -->
<g id="edge13" class="edge"><title>1&#45;&#45;7</title>
<path fill="none" stroke="black" d="M142.179,-57.514C152.232,-59.4318 197.41,-68.0506 207.172,-69.913"/>
</g>
<!-- 2&#45;&#45;3 -->
<g id="edge14" class="edge"><title>2&#45;&#45;3</title>
<path fill="none" stroke="black" d="M64.9534,-65.3523C66.6171,-73.9311 73.4797,-109.319 75.1694,-118.031"/>
</g>
<!-- 2&#45;&#45;5 -->
<g id="edge15" class="edge"><title>2&#45;&#45;5</title>
<path fill="none" stroke="black" d="M65.6221,-65.1326C72.0601,-75.4776 106.609,-130.994 113.031,-141.312"/>
</g>
<!-- 2&#45;&#45;6 -->
<g id="edge16" class="edge"><title>2&#45;&#45;6</title>
<path fill="none" stroke="black" d="M65.6407,-61.6931C70.965,-52.6873 94.8921,-12.2151 100.063,-3.46954"/>
</g>
<!-- 8 -->
<g id="node9" class="node"><title>8</title>
<ellipse fill="black" stroke="black" cx="1.8" cy="-101.803" rx="1.8" ry="1.8"/>
</g>
<!-- 2&#45;&#45;8 -->
<g id="edge17" class="edge"><title>2&#45;&#45;8</title>
<path fill="none" stroke="black" d="M63.0367,-64.4198C54.4253,-69.6768 12.5792,-95.2223 3.5284,-100.747"/>
</g>
<!-- 3&#45;&#45;4 -->
<g id="edge18" class="edge"><title>3&#45;&#45;4</title>
<path fill="none" stroke="black" d="M77.4689,-120.158C89.4468,-121.287 153.726,-127.349 165.673,-128.476"/>
</g>
<!-- 3&#45;&#45;5 -->
<g id="edge19" class="edge"><title>3&#45;&#45;5</title>
<path fill="none" stroke="black" d="M77.2014,-120.964C83.5362,-124.745 106.203,-138.275 112.453,-142.005"/>
</g>
<!-- 3&#45;&#45;8 -->
<g id="edge20" class="edge"><title>3&#45;&#45;8</title>
<path fill="none" stroke="black" d="M73.7236,-119.527C63.5206,-117.013 13.5951,-104.709 3.55924,-102.236"/>
</g>
<!-- 4&#45;&#45;5 -->
<g id="edge21" class="edge"><title>4&#45;&#45;5</title>
<path fill="none" stroke="black" d="M165.804,-129.132C157.677,-131.304 124.154,-140.265 115.901,-142.471"/>
</g>
<!-- 4&#45;&#45;7 -->
<g id="edge22" class="edge"><title>4&#45;&#45;7</title>
<path fill="none" stroke="black" d="M168.964,-126.714C175.37,-117.691 202.151,-79.9669 207.933,-71.8227"/>
</g>
</g>
</svg>
