<?xml version="1.0" encoding="UTF-8" standalone="no"?>
<!DOCTYPE svg PUBLIC "-//W3C//DTD SVG 1.1//EN"
 "http://www.w3.org/Graphics/SVG/1.1/DTD/svg11.dtd">
<!-- Generated by graphviz version 2.36.0 (20140111.2315)
 -->
<!-- Title: %3 Pages: 1 -->
<svg width="160pt" height="169pt"
 viewBox="0.00 0.00 160.18 169.42" xmlns="http://www.w3.org/2000/svg" xmlns:xlink="http://www.w3.org/1999/xlink">
<g id="graph0" class="graph" transform="scale(1 1) rotate(0) translate(4 165.417)">
<title>%3</title>
<!-- 0 -->
<g id="node1" class="node"><title>0</title>
<ellipse fill="black" stroke="black" cx="55.6335" cy="-87.4096" rx="1.8" ry="1.8"/>
</g>
<!-- 1 -->
<g id="node2" class="node"><title>1</title>
<ellipse fill="black" stroke="black" cx="94.8922" cy="-90.6623" rx="1.8" ry="1.8"/>
</g>
<!-- 0&#45;&#45;1 -->
<g id="edge1" class="edge"><title>0&#45;&#45;1</title>
<path fill="none" stroke="black" d="M57.7442,-87.5845C64.6245,-88.1545 86.3405,-89.9538 92.9588,-90.5021"/>
</g>
<!-- 2 -->
<g id="node3" class="node"><title>2</title>
<ellipse fill="black" stroke="black" cx="79.2529" cy="-63.5572" rx="1.8" ry="1.8"/>
</g>
<!-- 0&#45;&#45;2 -->
<g id="edge2" class="edge"><title>0&#45;&#45;2</title>
<path fill="none" stroke="black" d="M56.9034,-86.1272C60.8895,-82.1017 73.1523,-69.7179 77.6108,-65.2155"/>
</g>
<!-- 3 -->
<g id="node4" class="node"><title>3</title>
<ellipse fill="black" stroke="black" cx="32.7519" cy="-133.609" rx="1.8" ry="1.8"/>
</g>
<!-- 0&#45;&#45;3 -->
<g id="edge3" class="edge"><title>0&#45;&#45;3</title>
<path fill="none" stroke="black" d="M54.6503,-89.3947C50.8865,-96.994 37.4192,-124.185 33.706,-131.682"/>
</g>
<!-- 4 -->
<g id="node5" class="node"><title>4</title>
<ellipse fill="black" stroke="black" cx="123.122" cy="-131.437" rx="1.8" ry="1.8"/>
</g>
<!-- 0&#45;&#45;4 -->
<g id="edge4" class="edge"><title>0&#45;&#45;4</title>
<path fill="none" stroke="black" d="M57.3017,-88.4979C66.5578,-94.5362 111.536,-123.879 121.264,-130.225"/>
</g>
<!-- 5 -->
<g id="node6" class="node"><title>5</title>
<ellipse fill="black" stroke="black" cx="78.1716" cy="-159.617" rx="1.8" ry="1.8"/>
</g>
<!-- 0&#45;&#45;5 -->
<g id="edge5" class="edge"><title>0&#45;&#45;5</title>
<path fill="none" stroke="black" d="M56.1906,-89.1945C59.3088,-99.1845 74.5669,-148.068 77.634,-157.895"/>
</g>
<!-- 6 -->
<g id="node7" class="node"><title>6</title>
<ellipse fill="black" stroke="black" cx="1.8" cy="-70.3103" rx="1.8" ry="1.8"/>
</g>
<!-- 0&#45;&#45;6 -->
<g id="edge6" class="edge"><title>0&#45;&#45;6</title>
<path fill="none" stroke="black" d="M53.8423,-86.8407C45.669,-84.2445 11.9541,-73.5356 3.65307,-70.8989"/>
</g>
<!-- 7 -->
<g id="node8" class="node"><title>7</title>
<ellipse fill="black" stroke="black" cx="150.378" cy="-66.219" rx="1.8" ry="1.8"/>
</g>
<!-- 0&#45;&#45;7 -->
<g id="edge7" class="edge"><title>0&#45;&#45;7</title>
<path fill="none" stroke="black" d="M57.6123,-86.967C69.9424,-84.2092 136.111,-69.4098 148.41,-66.6591"/>
</g>
<!-- 8 -->
<g id="node9" class="node"><title>8</title>
<ellipse fill="black" stroke="black" cx="70.988" cy="-1.8" rx="1.8" ry="1.8"/>
</g>
<!-- 0&#45;&#45;8 -->
<g id="edge8" class="edge"><title>0&#45;&#45;8</title>
<path fill="none" stroke="black" d="M55.9542,-85.6215C57.9524,-74.4802 68.676,-14.6908 70.6691,-3.57824"/>
</g>
<!-- 1&#45;&#45;2 -->
<g id="edge9" class="edge"><title>1&#45;&#45;2</title>
<path fill="none" stroke="black" d="M93.8661,-88.8839C91.0391,-83.9844 83.159,-70.327 80.3033,-65.3777"/>
</g>
<!-- 1&#45;&#45;3 -->
<g id="edge10" class="edge"><title>1&#45;&#45;3</title>
<path fill="none" stroke="black" d="M93.3562,-91.7239C84.8337,-97.614 43.4198,-126.236 34.4624,-132.426"/>
</g>
<!-- 1&#45;&#45;4 -->
<g id="edge11" class="edge"><title>1&#45;&#45;4</title>
<path fill="none" stroke="black" d="M96.1053,-92.4144C100.749,-99.1214 117.364,-123.12 121.945,-129.737"/>
</g>
<!-- 1&#45;&#45;5 -->
<g id="edge12" class="edge"><title>1&#45;&#45;5</title>
<path fill="none" stroke="black" d="M94.4099,-92.6516C91.9682,-102.721 80.9954,-147.972 78.6243,-157.75"/>
</g>
<!-- 1&#45;&#45;6 -->
<g id="edge13" class="edge"><title>1&#45;&#45;6</title>
<path fill="none" stroke="black" d="M92.9479,-90.2372C80.8328,-87.5886 15.8175,-73.3748 3.73367,-70.733"/>
</g>
<!-- 1&#45;&#45;7 -->
<g id="edge14" class="edge"><title>1&#45;&#45;7</title>
<path fill="none" stroke="black" d="M96.7383,-89.849C105.162,-86.1379 139.912,-70.8295 148.468,-67.0604"/>
</g>
<!-- 1&#45;&#45;8 -->
<g id="edge15" class="edge"><title>1&#45;&#45;8</title>
<path fill="none" stroke="black" d="M94.393,-88.8063C91.2821,-77.2417 74.5874,-15.1806 71.4845,-3.6458"/>
</g>
<!-- 2&#45;&#45;3 -->
<g id="edge16" class="edge"><title>2&#45;&#45;3</title>
<path fill="none" stroke="black" d="M78.1034,-65.2888C71.7259,-74.8963 40.7349,-121.583 34.0319,-131.68"/>
</g>
<!-- 2&#45;&#45;4 -->
<g id="edge17" class="edge"><title>2&#45;&#45;4</title>
<path fill="none" stroke="black" d="M80.3373,-65.2352C86.3539,-74.5448 115.591,-119.784 121.915,-129.569"/>
</g>
<!-- 2&#45;&#45;5 -->
<g id="edge18" class="edge"><title>2&#45;&#45;5</title>
<path fill="none" stroke="black" d="M79.2303,-65.5636C79.0896,-78.0649 78.3345,-145.153 78.1941,-157.622"/>
</g>
<!-- 2&#45;&#45;6 -->
<g id="edge19" class="edge"><title>2&#45;&#45;6</title>
<path fill="none" stroke="black" d="M77.3383,-63.7241C66.6226,-64.6584 14.1879,-69.2302 3.64765,-70.1492"/>
</g>
<!-- 2&#45;&#45;7 -->
<g id="edge20" class="edge"><title>2&#45;&#45;7</title>
<path fill="none" stroke="black" d="M81.3048,-63.634C91.691,-64.0227 138.366,-65.7695 148.452,-66.1469"/>
</g>
<!-- 3&#45;&#45;4 -->
<g id="edge21" class="edge"><title>3&#45;&#45;4</title>
<path fill="none" stroke="black" d="M34.6394,-133.563C46.4002,-133.281 109.515,-131.764 121.245,-131.482"/>
</g>
<!-- 3&#45;&#45;5 -->
<g id="edge22" class="edge"><title>3&#45;&#45;5</title>
<path fill="none" stroke="black" d="M34.7035,-134.726C42.1746,-139.004 68.9071,-154.312 76.2778,-158.533"/>
</g>
<!-- 3&#45;&#45;6 -->
<g id="edge23" class="edge"><title>3&#45;&#45;6</title>
<path fill="none" stroke="black" d="M31.8589,-131.783C27.3391,-122.539 7.02709,-81 2.6379,-72.0238"/>
</g>
<!-- 4&#45;&#45;5 -->
<g id="edge24" class="edge"><title>4&#45;&#45;5</title>
<path fill="none" stroke="black" d="M121.191,-132.648C113.797,-137.283 87.3405,-153.869 80.0459,-158.442"/>
</g>
<!-- 4&#45;&#45;7 -->
<g id="edge25" class="edge"><title>4&#45;&#45;7</title>
<path fill="none" stroke="black" d="M123.909,-129.556C127.889,-120.032 145.775,-77.2329 149.64,-67.9845"/>
</g>
</g>
</svg>
