<?xml version="1.0" encoding="UTF-8" standalone="no"?>
<!DOCTYPE svg PUBLIC "-//W3C//DTD SVG 1.1//EN"
 "http://www.w3.org/Graphics/SVG/1.1/DTD/svg11.dtd">
<!-- Generated by graphviz version 2.36.0 (20140111.2315)
 -->
<!-- Title: %3 Pages: 1 -->
<svg width="233pt" height="236pt"
 viewBox="0.00 0.00 233.05 235.84" xmlns="http://www.w3.org/2000/svg" xmlns:xlink="http://www.w3.org/1999/xlink">
<g id="graph0" class="graph" transform="scale(1 1) rotate(0) translate(4 231.838)">
<title>%3</title>
<!-- 0 -->
<g id="node1" class="node"><title>0</title>
<ellipse fill="black" stroke="black" cx="69.8427" cy="-189.555" rx="1.8" ry="1.8"/>
</g>
<!-- 1 -->
<g id="node2" class="node"><title>1</title>
<ellipse fill="black" stroke="black" cx="146.79" cy="-150.823" rx="1.8" ry="1.8"/>
</g>
<!-- 0&#45;&#45;1 -->
<g id="edge1" class="edge"><title>0&#45;&#45;1</title>
<path fill="none" stroke="black" d="M71.7448,-188.598C82.3906,-183.239 134.483,-157.018 144.955,-151.747"/>
</g>
<!-- 2 -->
<g id="node3" class="node"><title>2</title>
<ellipse fill="black" stroke="black" cx="102.015" cy="-137.494" rx="1.8" ry="1.8"/>
</g>
<!-- 0&#45;&#45;2 -->
<g id="edge2" class="edge"><title>0&#45;&#45;2</title>
<path fill="none" stroke="black" d="M70.9131,-187.823C75.7977,-179.919 95.9466,-147.314 100.907,-139.287"/>
</g>
<!-- 4 -->
<g id="node4" class="node"><title>4</title>
<ellipse fill="black" stroke="black" cx="112.177" cy="-221.071" rx="1.8" ry="1.8"/>
</g>
<!-- 0&#45;&#45;4 -->
<g id="edge3" class="edge"><title>0&#45;&#45;4</title>
<path fill="none" stroke="black" d="M71.6618,-190.909C78.6254,-196.093 103.542,-214.642 110.412,-219.757"/>
</g>
<!-- 5 -->
<g id="node5" class="node"><title>5</title>
<ellipse fill="black" stroke="black" cx="155.013" cy="-206.344" rx="1.8" ry="1.8"/>
</g>
<!-- 0&#45;&#45;5 -->
<g id="edge4" class="edge"><title>0&#45;&#45;5</title>
<path fill="none" stroke="black" d="M71.6216,-189.906C82.7057,-192.091 142.188,-203.816 153.244,-205.995"/>
</g>
<!-- 6 -->
<g id="node6" class="node"><title>6</title>
<ellipse fill="black" stroke="black" cx="1.8" cy="-226.038" rx="1.8" ry="1.8"/>
</g>
<!-- 0&#45;&#45;6 -->
<g id="edge5" class="edge"><title>0&#45;&#45;6</title>
<path fill="none" stroke="black" d="M68.1607,-190.457C58.8287,-195.461 13.4812,-219.775 3.67303,-225.034"/>
</g>
<!-- 1&#45;&#45;2 -->
<g id="edge6" class="edge"><title>1&#45;&#45;2</title>
<path fill="none" stroke="black" d="M144.866,-150.25C137.501,-148.058 111.148,-140.213 103.882,-138.05"/>
</g>
<!-- 1&#45;&#45;4 -->
<g id="edge8" class="edge"><title>1&#45;&#45;4</title>
<path fill="none" stroke="black" d="M145.935,-152.56C141.188,-162.194 118.12,-209.011 113.13,-219.137"/>
</g>
<!-- 1&#45;&#45;5 -->
<g id="edge9" class="edge"><title>1&#45;&#45;5</title>
<path fill="none" stroke="black" d="M147.064,-152.67C148.312,-161.1 153.462,-195.871 154.73,-204.433"/>
</g>
<!-- 3 -->
<g id="node7" class="node"><title>3</title>
<ellipse fill="black" stroke="black" cx="148.517" cy="-72.9587" rx="1.8" ry="1.8"/>
</g>
<!-- 1&#45;&#45;3 -->
<g id="edge7" class="edge"><title>1&#45;&#45;3</title>
<path fill="none" stroke="black" d="M146.833,-148.898C147.072,-138.126 148.241,-85.4124 148.475,-74.8162"/>
</g>
<!-- 2&#45;&#45;4 -->
<g id="edge11" class="edge"><title>2&#45;&#45;4</title>
<path fill="none" stroke="black" d="M102.266,-139.56C103.672,-151.123 110.552,-207.703 111.935,-219.077"/>
</g>
<!-- 2&#45;&#45;5 -->
<g id="edge12" class="edge"><title>2&#45;&#45;5</title>
<path fill="none" stroke="black" d="M103.122,-138.932C110.019,-147.893 147.033,-195.977 153.912,-204.914"/>
</g>
<!-- 2&#45;&#45;3 -->
<g id="edge10" class="edge"><title>2&#45;&#45;3</title>
<path fill="none" stroke="black" d="M103.164,-135.899C109.542,-127.048 140.534,-84.0378 147.237,-74.7352"/>
</g>
<!-- 4&#45;&#45;5 -->
<g id="edge15" class="edge"><title>4&#45;&#45;5</title>
<path fill="none" stroke="black" d="M114.018,-220.438C121.064,-218.016 146.275,-209.348 153.227,-206.958"/>
</g>
<!-- 7 -->
<g id="node8" class="node"><title>7</title>
<ellipse fill="black" stroke="black" cx="223.252" cy="-42.5661" rx="1.8" ry="1.8"/>
</g>
<!-- 3&#45;&#45;7 -->
<g id="edge13" class="edge"><title>3&#45;&#45;7</title>
<path fill="none" stroke="black" d="M150.364,-72.2074C160.704,-68.0025 211.299,-47.4271 221.469,-43.2911"/>
</g>
<!-- 8 -->
<g id="node9" class="node"><title>8</title>
<ellipse fill="black" stroke="black" cx="111.882" cy="-1.8" rx="1.8" ry="1.8"/>
</g>
<!-- 3&#45;&#45;8 -->
<g id="edge14" class="edge"><title>3&#45;&#45;8</title>
<path fill="none" stroke="black" d="M147.611,-71.1997C142.543,-61.3548 117.742,-13.1812 112.756,-3.4975"/>
</g>
</g>
</svg>
