<?xml version="1.0" encoding="UTF-8" standalone="no"?>
<!DOCTYPE svg PUBLIC "-//W3C//DTD SVG 1.1//EN"
 "http://www.w3.org/Graphics/SVG/1.1/DTD/svg11.dtd">
<!-- Generated by graphviz version 2.36.0 (20140111.2315)
 -->
<!-- Title: %3 Pages: 1 -->
<svg width="163pt" height="209pt"
 viewBox="0.00 0.00 163.27 209.13" xmlns="http://www.w3.org/2000/svg" xmlns:xlink="http://www.w3.org/1999/xlink">
<g id="graph0" class="graph" transform="scale(1 1) rotate(0) translate(4 205.131)">
<title>%3</title>
<!-- 0 -->
<g id="node1" class="node"><title>0</title>
<ellipse fill="black" stroke="black" cx="83.1755" cy="-126.381" rx="1.8" ry="1.8"/>
</g>
<!-- 1 -->
<g id="node2" class="node"><title>1</title>
<ellipse fill="black" stroke="black" cx="105.141" cy="-79.1128" rx="1.8" ry="1.8"/>
</g>
<!-- 0&#45;&#45;1 -->
<g id="edge1" class="edge"><title>0&#45;&#45;1</title>
<path fill="none" stroke="black" d="M84.1193,-124.35C87.7324,-116.575 100.66,-88.7544 104.225,-81.0837"/>
</g>
<!-- 2 -->
<g id="node3" class="node"><title>2</title>
<ellipse fill="black" stroke="black" cx="62.748" cy="-50.3591" rx="1.8" ry="1.8"/>
</g>
<!-- 0&#45;&#45;2 -->
<g id="edge2" class="edge"><title>0&#45;&#45;2</title>
<path fill="none" stroke="black" d="M82.6705,-124.502C79.8444,-113.984 66.0152,-62.5182 63.2353,-52.1726"/>
</g>
<!-- 3 -->
<g id="node4" class="node"><title>3</title>
<ellipse fill="black" stroke="black" cx="148.68" cy="-65.8623" rx="1.8" ry="1.8"/>
</g>
<!-- 0&#45;&#45;3 -->
<g id="edge3" class="edge"><title>0&#45;&#45;3</title>
<path fill="none" stroke="black" d="M84.7947,-124.885C93.9363,-116.439 138.977,-74.8267 147.342,-67.0986"/>
</g>
<!-- 4 -->
<g id="node5" class="node"><title>4</title>
<ellipse fill="black" stroke="black" cx="153.465" cy="-138.318" rx="1.8" ry="1.8"/>
</g>
<!-- 0&#45;&#45;4 -->
<g id="edge4" class="edge"><title>0&#45;&#45;4</title>
<path fill="none" stroke="black" d="M85.2033,-126.726C95.4675,-128.469 141.595,-136.303 151.562,-137.995"/>
</g>
<!-- 5 -->
<g id="node6" class="node"><title>5</title>
<ellipse fill="black" stroke="black" cx="28.093" cy="-119.968" rx="1.8" ry="1.8"/>
</g>
<!-- 0&#45;&#45;5 -->
<g id="edge5" class="edge"><title>0&#45;&#45;5</title>
<path fill="none" stroke="black" d="M81.3428,-126.168C72.9799,-125.194 38.4827,-121.178 29.9891,-120.189"/>
</g>
<!-- 6 -->
<g id="node7" class="node"><title>6</title>
<ellipse fill="black" stroke="black" cx="1.8" cy="-78.3793" rx="1.8" ry="1.8"/>
</g>
<!-- 0&#45;&#45;6 -->
<g id="edge6" class="edge"><title>0&#45;&#45;6</title>
<path fill="none" stroke="black" d="M81.4759,-125.379C70.8856,-119.132 14.0533,-85.6073 3.49029,-79.3764"/>
</g>
<!-- 8 -->
<g id="node8" class="node"><title>8</title>
<ellipse fill="black" stroke="black" cx="111.828" cy="-199.331" rx="1.8" ry="1.8"/>
</g>
<!-- 0&#45;&#45;8 -->
<g id="edge7" class="edge"><title>0&#45;&#45;8</title>
<path fill="none" stroke="black" d="M83.8838,-128.184C87.848,-138.277 107.246,-187.664 111.145,-197.591"/>
</g>
<!-- 1&#45;&#45;2 -->
<g id="edge8" class="edge"><title>1&#45;&#45;2</title>
<path fill="none" stroke="black" d="M103.319,-77.8773C96.346,-73.1476 71.3951,-56.2242 64.5156,-51.558"/>
</g>
<!-- 1&#45;&#45;3 -->
<g id="edge9" class="edge"><title>1&#45;&#45;3</title>
<path fill="none" stroke="black" d="M107.012,-78.5434C114.173,-76.3639 139.799,-68.5651 146.865,-66.4148"/>
</g>
<!-- 1&#45;&#45;4 -->
<g id="edge10" class="edge"><title>1&#45;&#45;4</title>
<path fill="none" stroke="black" d="M106.335,-80.5763C112.963,-88.6963 145.169,-128.154 152.135,-136.689"/>
</g>
<!-- 1&#45;&#45;5 -->
<g id="edge11" class="edge"><title>1&#45;&#45;5</title>
<path fill="none" stroke="black" d="M103.531,-79.9661C93.5044,-85.283 39.6946,-113.816 29.6934,-119.119"/>
</g>
<!-- 7 -->
<g id="node9" class="node"><title>7</title>
<ellipse fill="black" stroke="black" cx="116.951" cy="-1.8" rx="1.8" ry="1.8"/>
</g>
<!-- 1&#45;&#45;7 -->
<g id="edge12" class="edge"><title>1&#45;&#45;7</title>
<path fill="none" stroke="black" d="M105.433,-77.2017C107.067,-66.5053 115.062,-14.1655 116.669,-3.64431"/>
</g>
<!-- 2&#45;&#45;3 -->
<g id="edge13" class="edge"><title>2&#45;&#45;3</title>
<path fill="none" stroke="black" d="M64.5428,-50.6829C75.7261,-52.7005 135.741,-63.5279 146.895,-65.5403"/>
</g>
<!-- 2&#45;&#45;5 -->
<g id="edge14" class="edge"><title>2&#45;&#45;5</title>
<path fill="none" stroke="black" d="M61.8914,-52.0798C57.1385,-61.6266 34.0424,-108.018 29.047,-118.052"/>
</g>
<!-- 2&#45;&#45;6 -->
<g id="edge15" class="edge"><title>2&#45;&#45;6</title>
<path fill="none" stroke="black" d="M60.9897,-51.1675C52.0896,-55.2592 12.0928,-73.6473 3.44993,-77.6208"/>
</g>
<!-- 2&#45;&#45;7 -->
<g id="edge16" class="edge"><title>2&#45;&#45;7</title>
<path fill="none" stroke="black" d="M64.5514,-48.7435C72.9277,-41.2393 107.947,-9.86576 115.508,-3.09258"/>
</g>
<!-- 3&#45;&#45;4 -->
<g id="edge17" class="edge"><title>3&#45;&#45;4</title>
<path fill="none" stroke="black" d="M148.818,-67.9526C149.517,-78.5332 152.657,-126.082 153.336,-136.357"/>
</g>
<!-- 3&#45;&#45;7 -->
<g id="edge18" class="edge"><title>3&#45;&#45;7</title>
<path fill="none" stroke="black" d="M147.765,-64.0141C143.132,-54.6593 122.309,-12.6187 117.81,-3.53424"/>
</g>
<!-- 4&#45;&#45;8 -->
<g id="edge19" class="edge"><title>4&#45;&#45;8</title>
<path fill="none" stroke="black" d="M152.436,-139.827C146.725,-148.194 118.976,-188.857 112.975,-197.652"/>
</g>
<!-- 5&#45;&#45;6 -->
<g id="edge20" class="edge"><title>5&#45;&#45;6</title>
<path fill="none" stroke="black" d="M26.9633,-118.181C22.6383,-111.34 7.16317,-86.8624 2.8963,-80.1134"/>
</g>
</g>
</svg>
