<?xml version="1.0" encoding="UTF-8" standalone="no"?>
<!DOCTYPE svg PUBLIC "-//W3C//DTD SVG 1.1//EN"
 "http://www.w3.org/Graphics/SVG/1.1/DTD/svg11.dtd">
<!-- Generated by graphviz version 2.36.0 (20140111.2315)
 -->
<!-- Title: %3 Pages: 1 -->
<svg width="261pt" height="165pt"
 viewBox="0.00 0.00 261.29 164.99" xmlns="http://www.w3.org/2000/svg" xmlns:xlink="http://www.w3.org/1999/xlink">
<g id="graph0" class="graph" transform="scale(1 1) rotate(0) translate(4 160.994)">
<title>%3</title>
<!-- 0 -->
<g id="node1" class="node"><title>0</title>
<ellipse fill="black" stroke="black" cx="113.997" cy="-89.7708" rx="1.8" ry="1.8"/>
</g>
<!-- 1 -->
<g id="node2" class="node"><title>1</title>
<ellipse fill="black" stroke="black" cx="135.122" cy="-58.5387" rx="1.8" ry="1.8"/>
</g>
<!-- 0&#45;&#45;1 -->
<g id="edge1" class="edge"><title>0&#45;&#45;1</title>
<path fill="none" stroke="black" d="M115.133,-88.0916C118.835,-82.618 130.52,-65.342 134.081,-60.0769"/>
</g>
<!-- 2 -->
<g id="node3" class="node"><title>2</title>
<ellipse fill="black" stroke="black" cx="182.671" cy="-88.8844" rx="1.8" ry="1.8"/>
</g>
<!-- 0&#45;&#45;2 -->
<g id="edge2" class="edge"><title>0&#45;&#45;2</title>
<path fill="none" stroke="black" d="M115.978,-89.7452C126.007,-89.6158 171.074,-89.0341 180.812,-88.9084"/>
</g>
<!-- 3 -->
<g id="node4" class="node"><title>3</title>
<ellipse fill="black" stroke="black" cx="93.8221" cy="-121.466" rx="1.8" ry="1.8"/>
</g>
<!-- 0&#45;&#45;3 -->
<g id="edge3" class="edge"><title>0&#45;&#45;3</title>
<path fill="none" stroke="black" d="M112.912,-91.4748C109.377,-97.0296 98.2168,-114.562 94.8157,-119.905"/>
</g>
<!-- 4 -->
<g id="node5" class="node"><title>4</title>
<ellipse fill="black" stroke="black" cx="176.638" cy="-132.842" rx="1.8" ry="1.8"/>
</g>
<!-- 0&#45;&#45;4 -->
<g id="edge4" class="edge"><title>0&#45;&#45;4</title>
<path fill="none" stroke="black" d="M115.545,-90.8354C124.137,-96.7427 165.884,-125.448 174.914,-131.657"/>
</g>
<!-- 5 -->
<g id="node6" class="node"><title>5</title>
<ellipse fill="black" stroke="black" cx="133.671" cy="-155.194" rx="1.8" ry="1.8"/>
</g>
<!-- 0&#45;&#45;5 -->
<g id="edge5" class="edge"><title>0&#45;&#45;5</title>
<path fill="none" stroke="black" d="M114.565,-91.6582C117.438,-101.212 130.348,-144.145 133.138,-153.423"/>
</g>
<!-- 6 -->
<g id="node7" class="node"><title>6</title>
<ellipse fill="black" stroke="black" cx="56.274" cy="-51.9919" rx="1.8" ry="1.8"/>
</g>
<!-- 0&#45;&#45;6 -->
<g id="edge6" class="edge"><title>0&#45;&#45;6</title>
<path fill="none" stroke="black" d="M112.076,-88.5138C103.156,-82.6755 65.8619,-58.267 57.8105,-52.9975"/>
</g>
<!-- 1&#45;&#45;2 -->
<g id="edge7" class="edge"><title>1&#45;&#45;2</title>
<path fill="none" stroke="black" d="M136.704,-59.5484C143.923,-64.1556 173.702,-83.1606 181.034,-87.8398"/>
</g>
<!-- 1&#45;&#45;3 -->
<g id="edge8" class="edge"><title>1&#45;&#45;3</title>
<path fill="none" stroke="black" d="M134.101,-60.0942C128.437,-68.7246 100.912,-110.663 94.959,-119.734"/>
</g>
<!-- 1&#45;&#45;4 -->
<g id="edge9" class="edge"><title>1&#45;&#45;4</title>
<path fill="none" stroke="black" d="M136.148,-60.3754C141.892,-70.6555 169.998,-120.958 175.648,-131.07"/>
</g>
<!-- 1&#45;&#45;5 -->
<g id="edge10" class="edge"><title>1&#45;&#45;5</title>
<path fill="none" stroke="black" d="M135.091,-60.5575C134.903,-73.1362 133.889,-140.64 133.701,-153.186"/>
</g>
<!-- 1&#45;&#45;6 -->
<g id="edge11" class="edge"><title>1&#45;&#45;6</title>
<path fill="none" stroke="black" d="M133.173,-58.3769C122.264,-57.4711 68.885,-53.039 58.1549,-52.148"/>
</g>
<!-- 2&#45;&#45;3 -->
<g id="edge12" class="edge"><title>2&#45;&#45;3</title>
<path fill="none" stroke="black" d="M180.816,-89.5649C169.253,-93.8051 107.201,-116.56 95.6677,-120.789"/>
</g>
<!-- 2&#45;&#45;4 -->
<g id="edge13" class="edge"><title>2&#45;&#45;4</title>
<path fill="none" stroke="black" d="M182.412,-90.7732C181.42,-98.0038 177.869,-123.876 176.89,-131.009"/>
</g>
<!-- 2&#45;&#45;5 -->
<g id="edge14" class="edge"><title>2&#45;&#45;5</title>
<path fill="none" stroke="black" d="M181.46,-90.5235C174.74,-99.6178 142.083,-143.81 135.02,-153.369"/>
</g>
<!-- 7 -->
<g id="node8" class="node"><title>7</title>
<ellipse fill="black" stroke="black" cx="251.488" cy="-119.137" rx="1.8" ry="1.8"/>
</g>
<!-- 2&#45;&#45;7 -->
<g id="edge15" class="edge"><title>2&#45;&#45;7</title>
<path fill="none" stroke="black" d="M184.372,-89.6322C193.81,-93.7813 239.674,-113.943 249.594,-118.304"/>
</g>
<!-- 3&#45;&#45;4 -->
<g id="edge16" class="edge"><title>3&#45;&#45;4</title>
<path fill="none" stroke="black" d="M95.8693,-121.747C107.327,-123.321 163.392,-131.023 174.662,-132.571"/>
</g>
<!-- 3&#45;&#45;5 -->
<g id="edge17" class="edge"><title>3&#45;&#45;5</title>
<path fill="none" stroke="black" d="M95.5344,-122.915C102.089,-128.463 125.543,-148.314 132.009,-153.788"/>
</g>
<!-- 3&#45;&#45;6 -->
<g id="edge18" class="edge"><title>3&#45;&#45;6</title>
<path fill="none" stroke="black" d="M92.894,-119.749C87.7443,-110.22 62.7201,-63.9188 57.3076,-53.9043"/>
</g>
<!-- 4&#45;&#45;7 -->
<g id="edge19" class="edge"><title>4&#45;&#45;7</title>
<path fill="none" stroke="black" d="M178.488,-132.503C188.844,-130.607 239.516,-121.329 249.702,-119.464"/>
</g>
<!-- 8 -->
<g id="node9" class="node"><title>8</title>
<ellipse fill="black" stroke="black" cx="1.8" cy="-1.8" rx="1.8" ry="1.8"/>
</g>
<!-- 6&#45;&#45;8 -->
<g id="edge20" class="edge"><title>6&#45;&#45;8</title>
<path fill="none" stroke="black" d="M54.9275,-50.7511C47.4564,-43.8674 11.1518,-10.4166 3.29952,-3.18164"/>
</g>
</g>
</svg>
