<?xml version="1.0" encoding="UTF-8" standalone="no"?>
<!DOCTYPE svg PUBLIC "-//W3C//DTD SVG 1.1//EN"
 "http://www.w3.org/Graphics/SVG/1.1/DTD/svg11.dtd">
<!-- Generated by graphviz version 2.36.0 (20140111.2315)
 -->
<!-- Title: %3 Pages: 1 -->
<svg width="159pt" height="166pt"
 viewBox="0.00 0.00 159.17 165.59" xmlns="http://www.w3.org/2000/svg" xmlns:xlink="http://www.w3.org/1999/xlink">
<g id="graph0" class="graph" transform="scale(1 1) rotate(0) translate(4 161.592)">
<title>%3</title>
<!-- 0 -->
<g id="node1" class="node"><title>0</title>
<ellipse fill="black" stroke="black" cx="52.6952" cy="-80.3264" rx="1.8" ry="1.8"/>
</g>
<!-- 1 -->
<g id="node2" class="node"><title>1</title>
<ellipse fill="black" stroke="black" cx="79.3999" cy="-73.0917" rx="1.8" ry="1.8"/>
</g>
<!-- 0&#45;&#45;1 -->
<g id="edge1" class="edge"><title>0&#45;&#45;1</title>
<path fill="none" stroke="black" d="M54.4474,-79.8517C59.2745,-78.544 72.7301,-74.8986 77.6062,-73.5776"/>
</g>
<!-- 2 -->
<g id="node3" class="node"><title>2</title>
<ellipse fill="black" stroke="black" cx="83.9645" cy="-127.346" rx="1.8" ry="1.8"/>
</g>
<!-- 0&#45;&#45;2 -->
<g id="edge2" class="edge"><title>0&#45;&#45;2</title>
<path fill="none" stroke="black" d="M53.7356,-81.8909C58.4831,-89.0297 78.0665,-118.477 82.8881,-125.728"/>
</g>
<!-- 3 -->
<g id="node4" class="node"><title>3</title>
<ellipse fill="black" stroke="black" cx="43.0631" cy="-155.792" rx="1.8" ry="1.8"/>
</g>
<!-- 0&#45;&#45;3 -->
<g id="edge3" class="edge"><title>0&#45;&#45;3</title>
<path fill="none" stroke="black" d="M52.4571,-82.1919C51.1245,-92.6327 44.6037,-143.722 43.2929,-153.992"/>
</g>
<!-- 4 -->
<g id="node5" class="node"><title>4</title>
<ellipse fill="black" stroke="black" cx="116.752" cy="-149.502" rx="1.8" ry="1.8"/>
</g>
<!-- 0&#45;&#45;4 -->
<g id="edge4" class="edge"><title>0&#45;&#45;4</title>
<path fill="none" stroke="black" d="M54.0331,-81.7713C62.3695,-90.7738 107.106,-139.086 115.421,-148.065"/>
</g>
<!-- 5 -->
<g id="node6" class="node"><title>5</title>
<ellipse fill="black" stroke="black" cx="1.8" cy="-114.556" rx="1.8" ry="1.8"/>
</g>
<!-- 0&#45;&#45;5 -->
<g id="edge5" class="edge"><title>0&#45;&#45;5</title>
<path fill="none" stroke="black" d="M51.0018,-81.4653C43.2746,-86.6622 11.3999,-108.099 3.55193,-113.377"/>
</g>
<!-- 6 -->
<g id="node7" class="node"><title>6</title>
<ellipse fill="black" stroke="black" cx="21.7504" cy="-14.5628" rx="1.8" ry="1.8"/>
</g>
<!-- 0&#45;&#45;6 -->
<g id="edge6" class="edge"><title>0&#45;&#45;6</title>
<path fill="none" stroke="black" d="M51.8024,-78.4292C47.2837,-68.8259 26.9763,-25.6688 22.5881,-16.3431"/>
</g>
<!-- 7 -->
<g id="node8" class="node"><title>7</title>
<ellipse fill="black" stroke="black" cx="81.6813" cy="-1.8" rx="1.8" ry="1.8"/>
</g>
<!-- 0&#45;&#45;7 -->
<g id="edge7" class="edge"><title>0&#45;&#45;7</title>
<path fill="none" stroke="black" d="M53.4117,-78.3853C57.422,-67.521 77.0453,-14.3596 80.9899,-3.67326"/>
</g>
<!-- 8 -->
<g id="node9" class="node"><title>8</title>
<ellipse fill="black" stroke="black" cx="149.372" cy="-77.4433" rx="1.8" ry="1.8"/>
</g>
<!-- 0&#45;&#45;8 -->
<g id="edge8" class="edge"><title>0&#45;&#45;8</title>
<path fill="none" stroke="black" d="M54.7144,-80.2662C67.2959,-79.891 134.814,-77.8774 147.364,-77.5032"/>
</g>
<!-- 1&#45;&#45;2 -->
<g id="edge9" class="edge"><title>1&#45;&#45;2</title>
<path fill="none" stroke="black" d="M79.5517,-74.8968C80.2448,-83.1341 83.1035,-117.113 83.8074,-125.479"/>
</g>
<!-- 1&#45;&#45;3 -->
<g id="edge10" class="edge"><title>1&#45;&#45;3</title>
<path fill="none" stroke="black" d="M78.6409,-74.819C73.912,-85.5816 48.5346,-143.339 43.8179,-154.074"/>
</g>
<!-- 1&#45;&#45;4 -->
<g id="edge11" class="edge"><title>1&#45;&#45;4</title>
<path fill="none" stroke="black" d="M80.3232,-74.9805C85.4909,-85.552 110.778,-137.281 115.861,-147.679"/>
</g>
<!-- 1&#45;&#45;5 -->
<g id="edge12" class="edge"><title>1&#45;&#45;5</title>
<path fill="none" stroke="black" d="M77.7791,-73.9577C67.6802,-79.3539 13.4848,-108.312 3.41187,-113.694"/>
</g>
<!-- 1&#45;&#45;6 -->
<g id="edge13" class="edge"><title>1&#45;&#45;6</title>
<path fill="none" stroke="black" d="M77.9748,-71.6449C70.0683,-63.6177 31.6473,-24.6107 23.3374,-16.1739"/>
</g>
<!-- 1&#45;&#45;7 -->
<g id="edge14" class="edge"><title>1&#45;&#45;7</title>
<path fill="none" stroke="black" d="M79.4657,-71.0349C79.7988,-60.6244 81.2961,-13.8396 81.6196,-3.72995"/>
</g>
<!-- 2&#45;&#45;3 -->
<g id="edge15" class="edge"><title>2&#45;&#45;3</title>
<path fill="none" stroke="black" d="M82.207,-128.569C75.4791,-133.248 51.406,-149.99 44.7685,-154.606"/>
</g>
<!-- 2&#45;&#45;4 -->
<g id="edge16" class="edge"><title>2&#45;&#45;4</title>
<path fill="none" stroke="black" d="M85.7273,-128.538C91.4734,-132.42 109.61,-144.676 115.137,-148.411"/>
</g>
<!-- 2&#45;&#45;5 -->
<g id="edge17" class="edge"><title>2&#45;&#45;5</title>
<path fill="none" stroke="black" d="M81.9334,-127.03C70.5658,-125.261 14.9415,-116.602 3.76005,-114.861"/>
</g>
<!-- 2&#45;&#45;8 -->
<g id="edge18" class="edge"><title>2&#45;&#45;8</title>
<path fill="none" stroke="black" d="M85.5813,-126.113C94.5518,-119.269 138.143,-86.0104 147.571,-78.817"/>
</g>
<!-- 3&#45;&#45;4 -->
<g id="edge19" class="edge"><title>3&#45;&#45;4</title>
<path fill="none" stroke="black" d="M44.8846,-155.636C54.991,-154.774 104.101,-150.582 114.723,-149.675"/>
</g>
<!-- 3&#45;&#45;5 -->
<g id="edge20" class="edge"><title>3&#45;&#45;5</title>
<path fill="none" stroke="black" d="M41.6902,-154.42C35.4254,-148.159 9.58307,-122.334 3.22037,-115.975"/>
</g>
<!-- 6&#45;&#45;7 -->
<g id="edge21" class="edge"><title>6&#45;&#45;7</title>
<path fill="none" stroke="black" d="M23.7444,-14.1381C32.8435,-12.2004 70.3771,-4.20732 79.6184,-2.23932"/>
</g>
</g>
</svg>
