<?xml version="1.0" encoding="UTF-8" standalone="no"?>
<!DOCTYPE svg PUBLIC "-//W3C//DTD SVG 1.1//EN"
 "http://www.w3.org/Graphics/SVG/1.1/DTD/svg11.dtd">
<!-- Generated by graphviz version 2.36.0 (20140111.2315)
 -->
<!-- Title: %3 Pages: 1 -->
<svg width="122pt" height="206pt"
 viewBox="0.00 0.00 122.06 205.56" xmlns="http://www.w3.org/2000/svg" xmlns:xlink="http://www.w3.org/1999/xlink">
<g id="graph0" class="graph" transform="scale(1 1) rotate(0) translate(4 201.563)">
<title>%3</title>
<!-- 0 -->
<g id="node1" class="node"><title>0</title>
<ellipse fill="black" stroke="black" cx="45.3453" cy="-120.404" rx="1.8" ry="1.8"/>
</g>
<!-- 2 -->
<g id="node2" class="node"><title>2</title>
<ellipse fill="black" stroke="black" cx="24.5532" cy="-31.5524" rx="1.8" ry="1.8"/>
</g>
<!-- 0&#45;&#45;2 -->
<g id="edge1" class="edge"><title>0&#45;&#45;2</title>
<path fill="none" stroke="black" d="M44.911,-118.548C42.2051,-106.985 27.684,-44.9314 24.9851,-33.398"/>
</g>
<!-- 3 -->
<g id="node3" class="node"><title>3</title>
<ellipse fill="black" stroke="black" cx="77.1615" cy="-47.1138" rx="1.8" ry="1.8"/>
</g>
<!-- 0&#45;&#45;3 -->
<g id="edge2" class="edge"><title>0&#45;&#45;3</title>
<path fill="none" stroke="black" d="M46.1318,-118.593C50.5336,-108.453 72.0728,-58.8359 76.4025,-48.8621"/>
</g>
<!-- 5 -->
<g id="node4" class="node"><title>5</title>
<ellipse fill="black" stroke="black" cx="1.8" cy="-87.5063" rx="1.8" ry="1.8"/>
</g>
<!-- 0&#45;&#45;5 -->
<g id="edge3" class="edge"><title>0&#45;&#45;5</title>
<path fill="none" stroke="black" d="M43.8965,-119.31C37.2852,-114.315 10.0135,-93.7115 3.29893,-88.6387"/>
</g>
<!-- 6 -->
<g id="node5" class="node"><title>6</title>
<ellipse fill="black" stroke="black" cx="110.803" cy="-158.588" rx="1.8" ry="1.8"/>
</g>
<!-- 0&#45;&#45;6 -->
<g id="edge4" class="edge"><title>0&#45;&#45;6</title>
<path fill="none" stroke="black" d="M46.9634,-121.348C55.9408,-126.585 99.5655,-152.032 109.001,-157.536"/>
</g>
<!-- 7 -->
<g id="node6" class="node"><title>7</title>
<ellipse fill="black" stroke="black" cx="48.6382" cy="-195.763" rx="1.8" ry="1.8"/>
</g>
<!-- 0&#45;&#45;7 -->
<g id="edge5" class="edge"><title>0&#45;&#45;7</title>
<path fill="none" stroke="black" d="M45.4267,-122.267C45.8783,-132.602 48.0729,-182.826 48.5475,-193.689"/>
</g>
<!-- 2&#45;&#45;3 -->
<g id="edge10" class="edge"><title>2&#45;&#45;3</title>
<path fill="none" stroke="black" d="M26.3036,-32.0702C34.2909,-34.4328 67.2385,-44.1786 75.3506,-46.5781"/>
</g>
<!-- 2&#45;&#45;5 -->
<g id="edge12" class="edge"><title>2&#45;&#45;5</title>
<path fill="none" stroke="black" d="M23.7961,-33.4141C20.3416,-41.9093 6.09172,-76.9522 2.58322,-85.5802"/>
</g>
<!-- 4 -->
<g id="node8" class="node"><title>4</title>
<ellipse fill="black" stroke="black" cx="106.714" cy="-1.8" rx="1.8" ry="1.8"/>
</g>
<!-- 2&#45;&#45;4 -->
<g id="edge11" class="edge"><title>2&#45;&#45;4</title>
<path fill="none" stroke="black" d="M26.2692,-30.931C36.9618,-27.059 94.3429,-6.28003 105.008,-2.418"/>
</g>
<!-- 3&#45;&#45;4 -->
<g id="edge13" class="edge"><title>3&#45;&#45;4</title>
<path fill="none" stroke="black" d="M78.4314,-45.1667C83.2925,-37.713 100.686,-11.0429 105.482,-3.68939"/>
</g>
<!-- 6&#45;&#45;7 -->
<g id="edge14" class="edge"><title>6&#45;&#45;7</title>
<path fill="none" stroke="black" d="M109.009,-159.66C99.9317,-165.089 59.1364,-189.485 50.321,-194.757"/>
</g>
<!-- 1 -->
<g id="node7" class="node"><title>1</title>
<ellipse fill="black" stroke="black" cx="112.259" cy="-85.0084" rx="1.8" ry="1.8"/>
</g>
<!-- 1&#45;&#45;3 -->
<g id="edge6" class="edge"><title>1&#45;&#45;3</title>
<path fill="none" stroke="black" d="M110.751,-83.3802C104.978,-77.1469 84.3206,-54.8434 78.6249,-48.6938"/>
</g>
<!-- 1&#45;&#45;5 -->
<g id="edge8" class="edge"><title>1&#45;&#45;5</title>
<path fill="none" stroke="black" d="M110.342,-85.0518C96.9347,-85.355 17.3497,-87.1546 3.77001,-87.4617"/>
</g>
<!-- 1&#45;&#45;6 -->
<g id="edge9" class="edge"><title>1&#45;&#45;6</title>
<path fill="none" stroke="black" d="M112.223,-86.8273C112.024,-96.9185 111.053,-145.956 110.843,-156.562"/>
</g>
<!-- 1&#45;&#45;4 -->
<g id="edge7" class="edge"><title>1&#45;&#45;4</title>
<path fill="none" stroke="black" d="M112.122,-82.9516C111.355,-71.4395 107.601,-15.1085 106.847,-3.78495"/>
</g>
</g>
</svg>
