<?xml version="1.0" encoding="UTF-8" standalone="no"?>
<!DOCTYPE svg PUBLIC "-//W3C//DTD SVG 1.1//EN"
 "http://www.w3.org/Graphics/SVG/1.1/DTD/svg11.dtd">
<!-- Generated by graphviz version 2.36.0 (20140111.2315)
 -->
<!-- Title: %3 Pages: 1 -->
<svg width="259pt" height="313pt"
 viewBox="0.00 0.00 258.54 313.16" xmlns="http://www.w3.org/2000/svg" xmlns:xlink="http://www.w3.org/1999/xlink">
<g id="graph0" class="graph" transform="scale(1 1) rotate(0) translate(4 309.16)">
<title>%3</title>
<!-- 0 -->
<g id="node1" class="node"><title>0</title>
<ellipse fill="black" stroke="black" cx="175.35" cy="-150.903" rx="1.8" ry="1.8"/>
</g>
<!-- 1 -->
<g id="node2" class="node"><title>1</title>
<ellipse fill="black" stroke="black" cx="188.531" cy="-89.3749" rx="1.8" ry="1.8"/>
</g>
<!-- 0&#45;&#45;1 -->
<g id="edge1" class="edge"><title>0&#45;&#45;1</title>
<path fill="none" stroke="black" d="M175.73,-149.128C177.621,-140.301 186.004,-101.173 188.07,-91.5287"/>
</g>
<!-- 2 -->
<g id="node3" class="node"><title>2</title>
<ellipse fill="black" stroke="black" cx="248.742" cy="-97.911" rx="1.8" ry="1.8"/>
</g>
<!-- 0&#45;&#45;2 -->
<g id="edge2" class="edge"><title>0&#45;&#45;2</title>
<path fill="none" stroke="black" d="M176.883,-149.797C186.434,-142.9 237.691,-105.89 247.218,-99.0117"/>
</g>
<!-- 3 -->
<g id="node4" class="node"><title>3</title>
<ellipse fill="black" stroke="black" cx="115.351" cy="-97.6825" rx="1.8" ry="1.8"/>
</g>
<!-- 0&#45;&#45;3 -->
<g id="edge3" class="edge"><title>0&#45;&#45;3</title>
<path fill="none" stroke="black" d="M173.867,-149.588C165.638,-142.289 125.651,-106.819 117.002,-99.1475"/>
</g>
<!-- 4 -->
<g id="node5" class="node"><title>4</title>
<ellipse fill="black" stroke="black" cx="245.739" cy="-152.28" rx="1.8" ry="1.8"/>
</g>
<!-- 0&#45;&#45;4 -->
<g id="edge4" class="edge"><title>0&#45;&#45;4</title>
<path fill="none" stroke="black" d="M177.38,-150.943C187.659,-151.144 233.852,-152.047 243.833,-152.242"/>
</g>
<!-- 6 -->
<g id="node6" class="node"><title>6</title>
<ellipse fill="black" stroke="black" cx="157.99" cy="-228.842" rx="1.8" ry="1.8"/>
</g>
<!-- 0&#45;&#45;6 -->
<g id="edge5" class="edge"><title>0&#45;&#45;6</title>
<path fill="none" stroke="black" d="M174.921,-152.83C172.519,-163.613 160.766,-216.377 158.404,-226.983"/>
</g>
<!-- 1&#45;&#45;2 -->
<g id="edge6" class="edge"><title>1&#45;&#45;2</title>
<path fill="none" stroke="black" d="M190.534,-89.6589C199.676,-90.9549 237.385,-96.3009 246.67,-97.6171"/>
</g>
<!-- 1&#45;&#45;3 -->
<g id="edge7" class="edge"><title>1&#45;&#45;3</title>
<path fill="none" stroke="black" d="M186.722,-89.5803C176.685,-90.7196 127.914,-96.2563 117.365,-97.4538"/>
</g>
<!-- 1&#45;&#45;4 -->
<g id="edge8" class="edge"><title>1&#45;&#45;4</title>
<path fill="none" stroke="black" d="M189.945,-90.9299C197.791,-99.5572 235.918,-141.48 244.164,-150.548"/>
</g>
<!-- 2&#45;&#45;4 -->
<g id="edge9" class="edge"><title>2&#45;&#45;4</title>
<path fill="none" stroke="black" d="M248.642,-99.7199C248.186,-107.974 246.305,-142.025 245.842,-150.408"/>
</g>
<!-- 5 -->
<g id="node7" class="node"><title>5</title>
<ellipse fill="black" stroke="black" cx="53.777" cy="-53.7732" rx="1.8" ry="1.8"/>
</g>
<!-- 3&#45;&#45;5 -->
<g id="edge10" class="edge"><title>3&#45;&#45;5</title>
<path fill="none" stroke="black" d="M113.828,-96.5971C105.384,-90.575 64.3476,-61.3113 55.4719,-54.9819"/>
</g>
<!-- 7 -->
<g id="node9" class="node"><title>7</title>
<ellipse fill="black" stroke="black" cx="152.723" cy="-303.36" rx="1.8" ry="1.8"/>
</g>
<!-- 6&#45;&#45;7 -->
<g id="edge12" class="edge"><title>6&#45;&#45;7</title>
<path fill="none" stroke="black" d="M157.859,-230.684C157.137,-240.904 153.627,-290.568 152.868,-301.309"/>
</g>
<!-- 8 -->
<g id="node8" class="node"><title>8</title>
<ellipse fill="black" stroke="black" cx="1.8" cy="-1.8" rx="1.8" ry="1.8"/>
</g>
<!-- 5&#45;&#45;8 -->
<g id="edge11" class="edge"><title>5&#45;&#45;8</title>
<path fill="none" stroke="black" d="M52.4922,-52.4885C45.3636,-45.3604 10.7231,-10.7225 3.23078,-3.23068"/>
</g>
</g>
</svg>
