<?xml version="1.0" encoding="UTF-8" standalone="no"?>
<!DOCTYPE svg PUBLIC "-//W3C//DTD SVG 1.1//EN"
 "http://www.w3.org/Graphics/SVG/1.1/DTD/svg11.dtd">
<!-- Generated by graphviz version 2.36.0 (20140111.2315)
 -->
<!-- Title: %3 Pages: 1 -->
<svg width="196pt" height="119pt"
 viewBox="0.00 0.00 195.65 119.03" xmlns="http://www.w3.org/2000/svg" xmlns:xlink="http://www.w3.org/1999/xlink">
<g id="graph0" class="graph" transform="scale(1 1) rotate(0) translate(4 115.027)">
<title>%3</title>
<!-- 0 -->
<g id="node1" class="node"><title>0</title>
<ellipse fill="black" stroke="black" cx="82.7656" cy="-59.7441" rx="1.8" ry="1.8"/>
</g>
<!-- 1 -->
<g id="node2" class="node"><title>1</title>
<ellipse fill="black" stroke="black" cx="118.168" cy="-31.7925" rx="1.8" ry="1.8"/>
</g>
<!-- 0&#45;&#45;1 -->
<g id="edge1" class="edge"><title>0&#45;&#45;1</title>
<path fill="none" stroke="black" d="M84.2868,-58.5431C90.1101,-53.9453 110.946,-37.494 116.692,-32.9579"/>
</g>
<!-- 2 -->
<g id="node3" class="node"><title>2</title>
<ellipse fill="black" stroke="black" cx="59.4203" cy="-8.92558" rx="1.8" ry="1.8"/>
</g>
<!-- 0&#45;&#45;2 -->
<g id="edge2" class="edge"><title>0&#45;&#45;2</title>
<path fill="none" stroke="black" d="M81.9889,-58.0533C78.4444,-50.3377 63.8237,-18.511 60.2239,-10.6749"/>
</g>
<!-- 3 -->
<g id="node4" class="node"><title>3</title>
<ellipse fill="black" stroke="black" cx="151.444" cy="-91.9417" rx="1.8" ry="1.8"/>
</g>
<!-- 0&#45;&#45;3 -->
<g id="edge3" class="edge"><title>0&#45;&#45;3</title>
<path fill="none" stroke="black" d="M84.4633,-60.54C93.8824,-64.9559 139.653,-86.4142 149.553,-91.0554"/>
</g>
<!-- 4 -->
<g id="node5" class="node"><title>4</title>
<ellipse fill="black" stroke="black" cx="87.6318" cy="-109.227" rx="1.8" ry="1.8"/>
</g>
<!-- 0&#45;&#45;4 -->
<g id="edge4" class="edge"><title>0&#45;&#45;4</title>
<path fill="none" stroke="black" d="M82.9747,-61.8703C83.7751,-70.0097 86.6392,-99.1335 87.4289,-107.164"/>
</g>
<!-- 5 -->
<g id="node6" class="node"><title>5</title>
<ellipse fill="black" stroke="black" cx="26.8141" cy="-63.6519" rx="1.8" ry="1.8"/>
</g>
<!-- 0&#45;&#45;5 -->
<g id="edge5" class="edge"><title>0&#45;&#45;5</title>
<path fill="none" stroke="black" d="M80.904,-59.8742C72.4091,-60.4675 37.3677,-62.9148 28.7401,-63.5174"/>
</g>
<!-- 6 -->
<g id="node7" class="node"><title>6</title>
<ellipse fill="black" stroke="black" cx="1.8" cy="-12.3849" rx="1.8" ry="1.8"/>
</g>
<!-- 0&#45;&#45;6 -->
<g id="edge6" class="edge"><title>0&#45;&#45;6</title>
<path fill="none" stroke="black" d="M81.0745,-58.755C70.5376,-52.5916 13.9916,-19.5161 3.48178,-13.3686"/>
</g>
<!-- 7 -->
<g id="node8" class="node"><title>7</title>
<ellipse fill="black" stroke="black" cx="176.678" cy="-53.8375" rx="1.8" ry="1.8"/>
</g>
<!-- 0&#45;&#45;7 -->
<g id="edge7" class="edge"><title>0&#45;&#45;7</title>
<path fill="none" stroke="black" d="M84.7271,-59.6208C96.9489,-58.8521 162.537,-54.7269 174.728,-53.9602"/>
</g>
<!-- 1&#45;&#45;2 -->
<g id="edge8" class="edge"><title>1&#45;&#45;2</title>
<path fill="none" stroke="black" d="M116.473,-31.1328C108.045,-27.8522 70.6849,-13.3102 61.4767,-9.72602"/>
</g>
<!-- 1&#45;&#45;3 -->
<g id="edge9" class="edge"><title>1&#45;&#45;3</title>
<path fill="none" stroke="black" d="M119.128,-33.5277C123.987,-42.3112 145.824,-81.7838 150.543,-90.3134"/>
</g>
<!-- 1&#45;&#45;4 -->
<g id="edge10" class="edge"><title>1&#45;&#45;4</title>
<path fill="none" stroke="black" d="M117.413,-33.7066C113.188,-44.4198 92.5157,-96.8419 88.3602,-107.38"/>
</g>
<!-- 1&#45;&#45;5 -->
<g id="edge11" class="edge"><title>1&#45;&#45;5</title>
<path fill="none" stroke="black" d="M116.26,-32.4579C104.371,-36.6041 40.5698,-58.8546 28.7116,-62.9901"/>
</g>
<!-- 1&#45;&#45;7 -->
<g id="edge12" class="edge"><title>1&#45;&#45;7</title>
<path fill="none" stroke="black" d="M119.856,-32.4285C128.25,-35.5912 165.459,-49.6104 174.63,-53.0658"/>
</g>
<!-- 8 -->
<g id="node9" class="node"><title>8</title>
<ellipse fill="black" stroke="black" cx="185.85" cy="-1.8" rx="1.8" ry="1.8"/>
</g>
<!-- 1&#45;&#45;8 -->
<g id="edge13" class="edge"><title>1&#45;&#45;8</title>
<path fill="none" stroke="black" d="M119.841,-31.0511C129.123,-26.9376 174.231,-6.94893 183.987,-2.62561"/>
</g>
<!-- 2&#45;&#45;4 -->
<g id="edge14" class="edge"><title>2&#45;&#45;4</title>
<path fill="none" stroke="black" d="M59.9099,-10.6665C63.3342,-22.8409 83.6604,-95.1071 87.1286,-107.438"/>
</g>
<!-- 2&#45;&#45;5 -->
<g id="edge15" class="edge"><title>2&#45;&#45;5</title>
<path fill="none" stroke="black" d="M58.3354,-10.7464C53.3849,-19.0553 32.9643,-53.3294 27.9365,-61.7681"/>
</g>
<!-- 2&#45;&#45;6 -->
<g id="edge16" class="edge"><title>2&#45;&#45;6</title>
<path fill="none" stroke="black" d="M57.5031,-9.04068C48.7549,-9.56588 12.6684,-11.7324 3.78342,-12.2658"/>
</g>
<!-- 3&#45;&#45;4 -->
<g id="edge17" class="edge"><title>3&#45;&#45;4</title>
<path fill="none" stroke="black" d="M149.603,-92.4404C140.448,-94.9202 99.8675,-105.912 89.8655,-108.622"/>
</g>
<!-- 3&#45;&#45;7 -->
<g id="edge18" class="edge"><title>3&#45;&#45;7</title>
<path fill="none" stroke="black" d="M152.528,-90.3044C156.679,-84.0367 171.531,-61.6099 175.626,-55.4263"/>
</g>
<!-- 3&#45;&#45;8 -->
<g id="edge19" class="edge"><title>3&#45;&#45;8</title>
<path fill="none" stroke="black" d="M152.162,-90.059C156.64,-78.3279 180.669,-15.3733 185.135,-3.67238"/>
</g>
<!-- 5&#45;&#45;6 -->
<g id="edge20" class="edge"><title>5&#45;&#45;6</title>
<path fill="none" stroke="black" d="M25.9818,-61.9461C22.184,-54.1625 6.51817,-22.0549 2.66104,-14.1496"/>
</g>
</g>
</svg>
