<?xml version="1.0" encoding="UTF-8" standalone="no"?>
<!DOCTYPE svg PUBLIC "-//W3C//DTD SVG 1.1//EN"
 "http://www.w3.org/Graphics/SVG/1.1/DTD/svg11.dtd">
<!-- Generated by graphviz version 2.36.0 (20140111.2315)
 -->
<!-- Title: %3 Pages: 1 -->
<svg width="224pt" height="192pt"
 viewBox="0.00 0.00 224.10 191.53" xmlns="http://www.w3.org/2000/svg" xmlns:xlink="http://www.w3.org/1999/xlink">
<g id="graph0" class="graph" transform="scale(1 1) rotate(0) translate(4 187.527)">
<title>%3</title>
<!-- 0 -->
<g id="node1" class="node"><title>0</title>
<ellipse fill="black" stroke="black" cx="74.1062" cy="-103.427" rx="1.8" ry="1.8"/>
</g>
<!-- 1 -->
<g id="node2" class="node"><title>1</title>
<ellipse fill="black" stroke="black" cx="160.876" cy="-85.8876" rx="1.8" ry="1.8"/>
</g>
<!-- 0&#45;&#45;1 -->
<g id="edge1" class="edge"><title>0&#45;&#45;1</title>
<path fill="none" stroke="black" d="M75.9185,-103.061C87.2108,-100.778 147.81,-88.5287 159.074,-86.2519"/>
</g>
<!-- 2 -->
<g id="node3" class="node"><title>2</title>
<ellipse fill="black" stroke="black" cx="121.029" cy="-43.771" rx="1.8" ry="1.8"/>
</g>
<!-- 0&#45;&#45;2 -->
<g id="edge2" class="edge"><title>0&#45;&#45;2</title>
<path fill="none" stroke="black" d="M75.2661,-101.953C81.7015,-93.7709 112.974,-54.0124 119.737,-45.4131"/>
</g>
<!-- 4 -->
<g id="node4" class="node"><title>4</title>
<ellipse fill="black" stroke="black" cx="127.336" cy="-116.089" rx="1.8" ry="1.8"/>
</g>
<!-- 0&#45;&#45;4 -->
<g id="edge3" class="edge"><title>0&#45;&#45;4</title>
<path fill="none" stroke="black" d="M75.8772,-103.849C83.9589,-105.771 117.296,-113.701 125.504,-115.653"/>
</g>
<!-- 5 -->
<g id="node5" class="node"><title>5</title>
<ellipse fill="black" stroke="black" cx="123.332" cy="-165.643" rx="1.8" ry="1.8"/>
</g>
<!-- 0&#45;&#45;5 -->
<g id="edge4" class="edge"><title>0&#45;&#45;5</title>
<path fill="none" stroke="black" d="M75.323,-104.965C82.0742,-113.498 114.881,-154.963 121.977,-163.931"/>
</g>
<!-- 6 -->
<g id="node6" class="node"><title>6</title>
<ellipse fill="black" stroke="black" cx="51.3171" cy="-181.727" rx="1.8" ry="1.8"/>
</g>
<!-- 0&#45;&#45;6 -->
<g id="edge5" class="edge"><title>0&#45;&#45;6</title>
<path fill="none" stroke="black" d="M73.5429,-105.363C70.3899,-116.196 54.9621,-169.204 51.8608,-179.859"/>
</g>
<!-- 8 -->
<g id="node7" class="node"><title>8</title>
<ellipse fill="black" stroke="black" cx="1.8" cy="-71.776" rx="1.8" ry="1.8"/>
</g>
<!-- 0&#45;&#45;8 -->
<g id="edge6" class="edge"><title>0&#45;&#45;8</title>
<path fill="none" stroke="black" d="M72.3188,-102.645C62.3151,-98.266 13.3647,-76.8384 3.52488,-72.531"/>
</g>
<!-- 1&#45;&#45;2 -->
<g id="edge7" class="edge"><title>1&#45;&#45;2</title>
<path fill="none" stroke="black" d="M159.55,-84.4863C153.5,-78.0919 128.545,-51.715 122.401,-45.2207"/>
</g>
<!-- 1&#45;&#45;4 -->
<g id="edge9" class="edge"><title>1&#45;&#45;4</title>
<path fill="none" stroke="black" d="M159.435,-87.1853C153.918,-92.1531 134.177,-109.929 128.734,-114.83"/>
</g>
<!-- 1&#45;&#45;5 -->
<g id="edge10" class="edge"><title>1&#45;&#45;5</title>
<path fill="none" stroke="black" d="M160.092,-87.5534C155.206,-97.9328 128.985,-153.634 124.112,-163.987"/>
</g>
<!-- 3 -->
<g id="node8" class="node"><title>3</title>
<ellipse fill="black" stroke="black" cx="214.303" cy="-53.091" rx="1.8" ry="1.8"/>
</g>
<!-- 1&#45;&#45;3 -->
<g id="edge8" class="edge"><title>1&#45;&#45;3</title>
<path fill="none" stroke="black" d="M162.654,-84.7964C170.765,-79.817 204.226,-59.2771 212.464,-54.2199"/>
</g>
<!-- 7 -->
<g id="node9" class="node"><title>7</title>
<ellipse fill="black" stroke="black" cx="188.022" cy="-1.8" rx="1.8" ry="1.8"/>
</g>
<!-- 1&#45;&#45;7 -->
<g id="edge11" class="edge"><title>1&#45;&#45;7</title>
<path fill="none" stroke="black" d="M161.443,-84.1313C164.976,-73.1881 183.934,-14.4616 187.458,-3.54662"/>
</g>
<!-- 2&#45;&#45;4 -->
<g id="edge13" class="edge"><title>2&#45;&#45;4</title>
<path fill="none" stroke="black" d="M121.211,-45.8573C122.132,-56.4177 126.271,-103.876 127.165,-114.131"/>
</g>
<!-- 2&#45;&#45;3 -->
<g id="edge12" class="edge"><title>2&#45;&#45;3</title>
<path fill="none" stroke="black" d="M122.977,-43.9656C135.116,-45.1785 200.258,-51.6876 212.366,-52.8974"/>
</g>
<!-- 5&#45;&#45;6 -->
<g id="edge15" class="edge"><title>5&#45;&#45;6</title>
<path fill="none" stroke="black" d="M121.552,-166.041C111.675,-168.247 63.6802,-178.966 53.2995,-181.284"/>
</g>
<!-- 3&#45;&#45;7 -->
<g id="edge14" class="edge"><title>3&#45;&#45;7</title>
<path fill="none" stroke="black" d="M213.429,-51.3844C209.439,-43.5971 192.979,-11.4745 188.927,-3.56555"/>
</g>
</g>
</svg>
