<?xml version="1.0" encoding="UTF-8" standalone="no"?>
<!DOCTYPE svg PUBLIC "-//W3C//DTD SVG 1.1//EN"
 "http://www.w3.org/Graphics/SVG/1.1/DTD/svg11.dtd">
<!-- Generated by graphviz version 2.36.0 (20140111.2315)
 -->
<!-- Title: %3 Pages: 1 -->
<svg width="173pt" height="160pt"
 viewBox="0.00 0.00 173.15 160.40" xmlns="http://www.w3.org/2000/svg" xmlns:xlink="http://www.w3.org/1999/xlink">
<g id="graph0" class="graph" transform="scale(1 1) rotate(0) translate(4 156.398)">
<title>%3</title>
<!-- 0 -->
<g id="node1" class="node"><title>0</title>
<ellipse fill="black" stroke="black" cx="93.8802" cy="-74.2512" rx="1.8" ry="1.8"/>
</g>
<!-- 1 -->
<g id="node2" class="node"><title>1</title>
<ellipse fill="black" stroke="black" cx="60.159" cy="-135.361" rx="1.8" ry="1.8"/>
</g>
<!-- 0&#45;&#45;1 -->
<g id="edge1" class="edge"><title>0&#45;&#45;1</title>
<path fill="none" stroke="black" d="M92.9074,-76.0142C87.9831,-84.9379 65.8537,-125.041 61.0718,-133.707"/>
</g>
<!-- 2 -->
<g id="node3" class="node"><title>2</title>
<ellipse fill="black" stroke="black" cx="136.23" cy="-94.7174" rx="1.8" ry="1.8"/>
</g>
<!-- 0&#45;&#45;2 -->
<g id="edge2" class="edge"><title>0&#45;&#45;2</title>
<path fill="none" stroke="black" d="M95.6999,-75.1306C102.666,-78.4971 127.591,-90.5428 134.464,-93.864"/>
</g>
<!-- 3 -->
<g id="node4" class="node"><title>3</title>
<ellipse fill="black" stroke="black" cx="50.3942" cy="-73.0789" rx="1.8" ry="1.8"/>
</g>
<!-- 0&#45;&#45;3 -->
<g id="edge3" class="edge"><title>0&#45;&#45;3</title>
<path fill="none" stroke="black" d="M92.0117,-74.2009C84.8587,-74.008 59.2643,-73.3181 52.2074,-73.1278"/>
</g>
<!-- 4 -->
<g id="node5" class="node"><title>4</title>
<ellipse fill="black" stroke="black" cx="97.5258" cy="-148.937" rx="1.8" ry="1.8"/>
</g>
<!-- 0&#45;&#45;4 -->
<g id="edge4" class="edge"><title>0&#45;&#45;4</title>
<path fill="none" stroke="black" d="M93.9703,-76.0974C94.4703,-86.3405 96.8999,-136.115 97.4254,-146.881"/>
</g>
<!-- 5 -->
<g id="node6" class="node"><title>5</title>
<ellipse fill="black" stroke="black" cx="144.78" cy="-150.598" rx="1.8" ry="1.8"/>
</g>
<!-- 0&#45;&#45;5 -->
<g id="edge5" class="edge"><title>0&#45;&#45;5</title>
<path fill="none" stroke="black" d="M94.9433,-75.8458C101.567,-85.7816 137.115,-139.102 143.722,-149.012"/>
</g>
<!-- 6 -->
<g id="node7" class="node"><title>6</title>
<ellipse fill="black" stroke="black" cx="1.8" cy="-99.9485" rx="1.8" ry="1.8"/>
</g>
<!-- 0&#45;&#45;6 -->
<g id="edge6" class="edge"><title>0&#45;&#45;6</title>
<path fill="none" stroke="black" d="M91.957,-74.788C79.9736,-78.1322 15.6652,-96.0791 3.71264,-99.4147"/>
</g>
<!-- 7 -->
<g id="node8" class="node"><title>7</title>
<ellipse fill="black" stroke="black" cx="163.345" cy="-30.3547" rx="1.8" ry="1.8"/>
</g>
<!-- 0&#45;&#45;7 -->
<g id="edge7" class="edge"><title>0&#45;&#45;7</title>
<path fill="none" stroke="black" d="M95.5973,-73.1662C105.124,-67.1458 151.42,-37.8906 161.433,-31.5631"/>
</g>
<!-- 8 -->
<g id="node9" class="node"><title>8</title>
<ellipse fill="black" stroke="black" cx="57.6435" cy="-1.8" rx="1.8" ry="1.8"/>
</g>
<!-- 0&#45;&#45;8 -->
<g id="edge8" class="edge"><title>0&#45;&#45;8</title>
<path fill="none" stroke="black" d="M92.9845,-72.4603C87.971,-62.4365 63.4393,-13.3879 58.5079,-3.52834"/>
</g>
<!-- 1&#45;&#45;2 -->
<g id="edge9" class="edge"><title>1&#45;&#45;2</title>
<path fill="none" stroke="black" d="M61.7478,-134.512C71.5623,-129.268 123.862,-101.325 134.385,-95.7032"/>
</g>
<!-- 1&#45;&#45;3 -->
<g id="edge10" class="edge"><title>1&#45;&#45;3</title>
<path fill="none" stroke="black" d="M59.8772,-133.564C58.4763,-124.629 52.2666,-85.0214 50.736,-75.2591"/>
</g>
<!-- 1&#45;&#45;4 -->
<g id="edge11" class="edge"><title>1&#45;&#45;4</title>
<path fill="none" stroke="black" d="M62.168,-136.091C68.7167,-138.47 89.3862,-145.98 95.6855,-148.269"/>
</g>
<!-- 1&#45;&#45;5 -->
<g id="edge12" class="edge"><title>1&#45;&#45;5</title>
<path fill="none" stroke="black" d="M62.2507,-135.738C73.9581,-137.846 131.245,-148.161 142.761,-150.234"/>
</g>
<!-- 1&#45;&#45;6 -->
<g id="edge13" class="edge"><title>1&#45;&#45;6</title>
<path fill="none" stroke="black" d="M58.2172,-134.183C49.1986,-128.71 11.4935,-105.831 3.35344,-100.891"/>
</g>
<!-- 2&#45;&#45;3 -->
<g id="edge14" class="edge"><title>2&#45;&#45;3</title>
<path fill="none" stroke="black" d="M134.437,-94.2654C123.266,-91.4494 63.319,-76.3372 52.1771,-73.5284"/>
</g>
<!-- 2&#45;&#45;4 -->
<g id="edge15" class="edge"><title>2&#45;&#45;4</title>
<path fill="none" stroke="black" d="M134.942,-96.5214C129.066,-104.753 104.826,-138.71 98.858,-147.071"/>
</g>
<!-- 2&#45;&#45;5 -->
<g id="edge16" class="edge"><title>2&#45;&#45;5</title>
<path fill="none" stroke="black" d="M136.514,-96.5766C137.812,-105.061 143.167,-140.057 144.485,-148.674"/>
</g>
<!-- 2&#45;&#45;7 -->
<g id="edge17" class="edge"><title>2&#45;&#45;7</title>
<path fill="none" stroke="black" d="M137.012,-92.8605C140.972,-83.4618 158.766,-41.2241 162.611,-32.0971"/>
</g>
<!-- 3&#45;&#45;4 -->
<g id="edge18" class="edge"><title>3&#45;&#45;4</title>
<path fill="none" stroke="black" d="M51.3786,-74.6633C57.5123,-84.5356 90.4288,-137.515 96.5468,-147.361"/>
</g>
<!-- 3&#45;&#45;6 -->
<g id="edge19" class="edge"><title>3&#45;&#45;6</title>
<path fill="none" stroke="black" d="M48.7774,-73.9729C41.3995,-78.0524 10.9659,-94.8804 3.47272,-99.0236"/>
</g>
<!-- 3&#45;&#45;8 -->
<g id="edge20" class="edge"><title>3&#45;&#45;8</title>
<path fill="none" stroke="black" d="M50.6033,-71.0226C51.6619,-60.6139 56.4193,-13.8374 57.4473,-3.72961"/>
</g>
<!-- 4&#45;&#45;5 -->
<g id="edge21" class="edge"><title>4&#45;&#45;5</title>
<path fill="none" stroke="black" d="M99.5562,-149.008C107.329,-149.282 135.141,-150.259 142.809,-150.528"/>
</g>
</g>
</svg>
