<?xml version="1.0" encoding="UTF-8" standalone="no"?>
<!DOCTYPE svg PUBLIC "-//W3C//DTD SVG 1.1//EN"
 "http://www.w3.org/Graphics/SVG/1.1/DTD/svg11.dtd">
<!-- Generated by graphviz version 2.36.0 (20140111.2315)
 -->
<!-- Title: %3 Pages: 1 -->
<svg width="355pt" height="304pt"
 viewBox="0.00 0.00 355.46 303.78" xmlns="http://www.w3.org/2000/svg" xmlns:xlink="http://www.w3.org/1999/xlink">
<g id="graph0" class="graph" transform="scale(1 1) rotate(0) translate(4 299.779)">
<title>%3</title>
<!-- 0 -->
<g id="node1" class="node"><title>0</title>
<ellipse fill="black" stroke="black" cx="73.1773" cy="-138.861" rx="1.8" ry="1.8"/>
</g>
<!-- 2 -->
<g id="node2" class="node"><title>2</title>
<ellipse fill="black" stroke="black" cx="147.478" cy="-144.453" rx="1.8" ry="1.8"/>
</g>
<!-- 0&#45;&#45;2 -->
<g id="edge1" class="edge"><title>0&#45;&#45;2</title>
<path fill="none" stroke="black" d="M75.0139,-138.999C85.2041,-139.766 134.722,-143.493 145.432,-144.3"/>
</g>
<!-- 3 -->
<g id="node3" class="node"><title>3</title>
<ellipse fill="black" stroke="black" cx="114.743" cy="-77.5489" rx="1.8" ry="1.8"/>
</g>
<!-- 0&#45;&#45;3 -->
<g id="edge2" class="edge"><title>0&#45;&#45;3</title>
<path fill="none" stroke="black" d="M74.2047,-137.345C79.9054,-128.936 107.607,-88.0746 113.599,-79.2367"/>
</g>
<!-- 8 -->
<g id="node4" class="node"><title>8</title>
<ellipse fill="black" stroke="black" cx="1.8" cy="-164.362" rx="1.8" ry="1.8"/>
</g>
<!-- 0&#45;&#45;8 -->
<g id="edge3" class="edge"><title>0&#45;&#45;8</title>
<path fill="none" stroke="black" d="M71.4129,-139.491C61.5377,-143.019 13.2162,-160.283 3.50272,-163.753"/>
</g>
<!-- 2&#45;&#45;3 -->
<g id="edge7" class="edge"><title>2&#45;&#45;3</title>
<path fill="none" stroke="black" d="M146.668,-142.8C142.179,-133.624 120.363,-89.0347 115.644,-79.3906"/>
</g>
<!-- 5 -->
<g id="node7" class="node"><title>5</title>
<ellipse fill="black" stroke="black" cx="209.507" cy="-187.507" rx="1.8" ry="1.8"/>
</g>
<!-- 2&#45;&#45;5 -->
<g id="edge8" class="edge"><title>2&#45;&#45;5</title>
<path fill="none" stroke="black" d="M149.011,-145.518C157.518,-151.422 198.858,-180.116 207.8,-186.322"/>
</g>
<!-- 7 -->
<g id="node9" class="node"><title>7</title>
<ellipse fill="black" stroke="black" cx="112.085" cy="-1.8" rx="1.8" ry="1.8"/>
</g>
<!-- 3&#45;&#45;7 -->
<g id="edge9" class="edge"><title>3&#45;&#45;7</title>
<path fill="none" stroke="black" d="M114.677,-75.6765C114.309,-65.1965 112.51,-13.9154 112.148,-3.607"/>
</g>
<!-- 1 -->
<g id="node5" class="node"><title>1</title>
<ellipse fill="black" stroke="black" cx="272.029" cy="-228.33" rx="1.8" ry="1.8"/>
</g>
<!-- 4 -->
<g id="node6" class="node"><title>4</title>
<ellipse fill="black" stroke="black" cx="306.138" cy="-293.979" rx="1.8" ry="1.8"/>
</g>
<!-- 1&#45;&#45;4 -->
<g id="edge4" class="edge"><title>1&#45;&#45;4</title>
<path fill="none" stroke="black" d="M272.872,-229.953C277.55,-238.957 300.282,-282.709 305.199,-292.172"/>
</g>
<!-- 1&#45;&#45;5 -->
<g id="edge5" class="edge"><title>1&#45;&#45;5</title>
<path fill="none" stroke="black" d="M270.484,-227.321C261.909,-221.722 220.241,-194.515 211.228,-188.631"/>
</g>
<!-- 6 -->
<g id="node8" class="node"><title>6</title>
<ellipse fill="black" stroke="black" cx="345.659" cy="-235.093" rx="1.8" ry="1.8"/>
</g>
<!-- 1&#45;&#45;6 -->
<g id="edge6" class="edge"><title>1&#45;&#45;6</title>
<path fill="none" stroke="black" d="M273.849,-228.498C283.947,-229.425 333.018,-233.932 343.632,-234.907"/>
</g>
<!-- 4&#45;&#45;6 -->
<g id="edge10" class="edge"><title>4&#45;&#45;6</title>
<path fill="none" stroke="black" d="M307.278,-292.28C313.049,-283.681 338.984,-245.037 344.589,-236.687"/>
</g>
</g>
</svg>
