<?xml version="1.0" encoding="UTF-8" standalone="no"?>
<!DOCTYPE svg PUBLIC "-//W3C//DTD SVG 1.1//EN"
 "http://www.w3.org/Graphics/SVG/1.1/DTD/svg11.dtd">
<!-- Generated by graphviz version 2.36.0 (20140111.2315)
 -->
<!-- Title: %3 Pages: 1 -->
<svg width="149pt" height="103pt"
 viewBox="0.00 0.00 148.54 102.68" xmlns="http://www.w3.org/2000/svg" xmlns:xlink="http://www.w3.org/1999/xlink">
<g id="graph0" class="graph" transform="scale(1 1) rotate(0) translate(4 98.6845)">
<title>%3</title>
<!-- 0 -->
<g id="node1" class="node"><title>0</title>
<ellipse fill="black" stroke="black" cx="51.0936" cy="-31.1646" rx="1.8" ry="1.8"/>
</g>
<!-- 1 -->
<g id="node2" class="node"><title>1</title>
<ellipse fill="black" stroke="black" cx="84.7209" cy="-49.1777" rx="1.8" ry="1.8"/>
</g>
<!-- 0&#45;&#45;1 -->
<g id="edge1" class="edge"><title>0&#45;&#45;1</title>
<path fill="none" stroke="black" d="M52.9016,-32.1331C58.7949,-35.29 77.3959,-45.2539 83.0648,-48.2906"/>
</g>
<!-- 2 -->
<g id="node3" class="node"><title>2</title>
<ellipse fill="black" stroke="black" cx="71.7294" cy="-1.8" rx="1.8" ry="1.8"/>
</g>
<!-- 0&#45;&#45;2 -->
<g id="edge2" class="edge"><title>0&#45;&#45;2</title>
<path fill="none" stroke="black" d="M52.2031,-29.5859C55.7526,-24.5349 66.8142,-8.79428 70.5118,-3.53267"/>
</g>
<!-- 3 -->
<g id="node4" class="node"><title>3</title>
<ellipse fill="black" stroke="black" cx="100.735" cy="-87.434" rx="1.8" ry="1.8"/>
</g>
<!-- 0&#45;&#45;3 -->
<g id="edge3" class="edge"><title>0&#45;&#45;3</title>
<path fill="none" stroke="black" d="M52.3207,-32.5556C59.1289,-40.2729 92.2126,-77.774 99.3683,-85.8851"/>
</g>
<!-- 4 -->
<g id="node5" class="node"><title>4</title>
<ellipse fill="black" stroke="black" cx="39.8601" cy="-92.8845" rx="1.8" ry="1.8"/>
</g>
<!-- 0&#45;&#45;4 -->
<g id="edge4" class="edge"><title>0&#45;&#45;4</title>
<path fill="none" stroke="black" d="M50.7695,-32.9452C49.1579,-41.7999 42.0141,-81.0499 40.2533,-90.724"/>
</g>
<!-- 5 -->
<g id="node6" class="node"><title>5</title>
<ellipse fill="black" stroke="black" cx="9.93904" cy="-65.1648" rx="1.8" ry="1.8"/>
</g>
<!-- 0&#45;&#45;5 -->
<g id="edge5" class="edge"><title>0&#45;&#45;5</title>
<path fill="none" stroke="black" d="M49.3252,-32.6256C42.5557,-38.2183 18.3336,-58.2295 11.655,-63.7471"/>
</g>
<!-- 6 -->
<g id="node7" class="node"><title>6</title>
<ellipse fill="black" stroke="black" cx="1.8" cy="-9.85051" rx="1.8" ry="1.8"/>
</g>
<!-- 0&#45;&#45;6 -->
<g id="edge6" class="edge"><title>0&#45;&#45;6</title>
<path fill="none" stroke="black" d="M48.9755,-30.2488C40.8672,-26.7428 11.8547,-14.1981 3.85533,-10.7392"/>
</g>
<!-- 7 -->
<g id="node8" class="node"><title>7</title>
<ellipse fill="black" stroke="black" cx="138.739" cy="-19.2016" rx="1.8" ry="1.8"/>
</g>
<!-- 0&#45;&#45;7 -->
<g id="edge7" class="edge"><title>0&#45;&#45;7</title>
<path fill="none" stroke="black" d="M52.9242,-30.9148C64.3304,-29.3579 125.542,-21.003 136.919,-19.4501"/>
</g>
<!-- 1&#45;&#45;2 -->
<g id="edge8" class="edge"><title>1&#45;&#45;2</title>
<path fill="none" stroke="black" d="M84.1627,-47.142C82.0257,-39.3488 74.3794,-11.464 72.2711,-3.77544"/>
</g>
<!-- 1&#45;&#45;3 -->
<g id="edge9" class="edge"><title>1&#45;&#45;3</title>
<path fill="none" stroke="black" d="M85.5819,-51.2346C88.3884,-57.9392 97.2465,-79.1006 99.9461,-85.5499"/>
</g>
<!-- 1&#45;&#45;4 -->
<g id="edge10" class="edge"><title>1&#45;&#45;4</title>
<path fill="none" stroke="black" d="M83.2283,-50.6319C76.4173,-57.2677 48.3217,-84.6405 41.4043,-91.38"/>
</g>
<!-- 1&#45;&#45;5 -->
<g id="edge11" class="edge"><title>1&#45;&#45;5</title>
<path fill="none" stroke="black" d="M82.8724,-49.5729C72.5262,-51.7848 21.8997,-62.6078 11.723,-64.7834"/>
</g>
<!-- 1&#45;&#45;6 -->
<g id="edge12" class="edge"><title>1&#45;&#45;6</title>
<path fill="none" stroke="black" d="M82.989,-48.3563C72.1976,-43.2383 14.286,-15.7723 3.52239,-10.6674"/>
</g>
<!-- 1&#45;&#45;7 -->
<g id="edge13" class="edge"><title>1&#45;&#45;7</title>
<path fill="none" stroke="black" d="M86.5182,-48.1804C94.7196,-43.6292 128.55,-24.8557 136.88,-20.2334"/>
</g>
<!-- 2&#45;&#45;3 -->
<g id="edge14" class="edge"><title>2&#45;&#45;3</title>
<path fill="none" stroke="black" d="M72.3352,-3.58859C76.11,-14.733 96.3672,-74.5395 100.132,-85.6553"/>
</g>
<!-- 2&#45;&#45;4 -->
<g id="edge15" class="edge"><title>2&#45;&#45;4</title>
<path fill="none" stroke="black" d="M71.0638,-3.70243C66.9163,-15.5562 44.6588,-79.1692 40.522,-90.9925"/>
</g>
<!-- 2&#45;&#45;5 -->
<g id="edge16" class="edge"><title>2&#45;&#45;5</title>
<path fill="none" stroke="black" d="M70.202,-3.36633C61.5788,-12.2092 19.0918,-55.7787 11.2013,-63.8703"/>
</g>
<!-- 2&#45;&#45;6 -->
<g id="edge17" class="edge"><title>2&#45;&#45;6</title>
<path fill="none" stroke="black" d="M69.712,-2.03225C59.5004,-3.20785 13.6095,-8.49096 3.69307,-9.63257"/>
</g>
<!-- 2&#45;&#45;7 -->
<g id="edge18" class="edge"><title>2&#45;&#45;7</title>
<path fill="none" stroke="black" d="M73.6626,-2.30203C83.4478,-4.84314 127.423,-16.2629 136.925,-18.7305"/>
</g>
<!-- 3&#45;&#45;4 -->
<g id="edge19" class="edge"><title>3&#45;&#45;4</title>
<path fill="none" stroke="black" d="M98.7093,-87.6153C89.467,-88.4429 51.3423,-91.8564 41.9555,-92.6969"/>
</g>
<!-- 3&#45;&#45;5 -->
<g id="edge20" class="edge"><title>3&#45;&#45;5</title>
<path fill="none" stroke="black" d="M98.8383,-86.9689C87.0222,-84.0707 23.6108,-68.518 11.825,-65.6273"/>
</g>
<!-- 3&#45;&#45;7 -->
<g id="edge21" class="edge"><title>3&#45;&#45;7</title>
<path fill="none" stroke="black" d="M101.674,-85.7473C106.886,-76.3894 132.215,-30.9153 137.693,-21.0798"/>
</g>
<!-- 4&#45;&#45;5 -->
<g id="edge22" class="edge"><title>4&#45;&#45;5</title>
<path fill="none" stroke="black" d="M38.2514,-91.3941C33.0075,-86.5361 16.4567,-71.2029 11.4126,-66.5299"/>
</g>
<!-- 4&#45;&#45;6 -->
<g id="edge23" class="edge"><title>4&#45;&#45;6</title>
<path fill="none" stroke="black" d="M39.0651,-91.1502C34.112,-80.3441 7.53097,-22.3535 2.59056,-11.5753"/>
</g>
<!-- 5&#45;&#45;6 -->
<g id="edge24" class="edge"><title>5&#45;&#45;6</title>
<path fill="none" stroke="black" d="M9.66824,-63.3244C8.43252,-54.9262 3.33519,-20.2839 2.08016,-11.7546"/>
</g>
</g>
</svg>
