<?xml version="1.0" encoding="UTF-8" standalone="no"?>
<!DOCTYPE svg PUBLIC "-//W3C//DTD SVG 1.1//EN"
 "http://www.w3.org/Graphics/SVG/1.1/DTD/svg11.dtd">
<!-- Generated by graphviz version 2.36.0 (20140111.2315)
 -->
<!-- Title: %3 Pages: 1 -->
<svg width="113pt" height="226pt"
 viewBox="0.00 0.00 112.93 225.70" xmlns="http://www.w3.org/2000/svg" xmlns:xlink="http://www.w3.org/1999/xlink">
<g id="graph0" class="graph" transform="scale(1 1) rotate(0) translate(4 221.695)">
<title>%3</title>
<!-- 0 -->
<g id="node1" class="node"><title>0</title>
<ellipse fill="black" stroke="black" cx="42.6213" cy="-136.43" rx="1.8" ry="1.8"/>
</g>
<!-- 1 -->
<g id="node2" class="node"><title>1</title>
<ellipse fill="black" stroke="black" cx="90.9129" cy="-138.114" rx="1.8" ry="1.8"/>
</g>
<!-- 0&#45;&#45;1 -->
<g id="edge1" class="edge"><title>0&#45;&#45;1</title>
<path fill="none" stroke="black" d="M44.6963,-136.503C52.6398,-136.78 81.0625,-137.771 88.8993,-138.044"/>
</g>
<!-- 2 -->
<g id="node3" class="node"><title>2</title>
<ellipse fill="black" stroke="black" cx="9.30907" cy="-169.158" rx="1.8" ry="1.8"/>
</g>
<!-- 0&#45;&#45;2 -->
<g id="edge2" class="edge"><title>0&#45;&#45;2</title>
<path fill="none" stroke="black" d="M41.1899,-137.836C35.7104,-143.22 16.104,-162.482 10.698,-167.793"/>
</g>
<!-- 3 -->
<g id="node4" class="node"><title>3</title>
<ellipse fill="black" stroke="black" cx="53.7344" cy="-214.459" rx="1.8" ry="1.8"/>
</g>
<!-- 0&#45;&#45;3 -->
<g id="edge3" class="edge"><title>0&#45;&#45;3</title>
<path fill="none" stroke="black" d="M42.896,-138.359C44.4335,-149.154 51.9569,-201.979 53.4693,-212.597"/>
</g>
<!-- 4 -->
<g id="node5" class="node"><title>4</title>
<ellipse fill="black" stroke="black" cx="88.1475" cy="-198.566" rx="1.8" ry="1.8"/>
</g>
<!-- 0&#45;&#45;4 -->
<g id="edge4" class="edge"><title>0&#45;&#45;4</title>
<path fill="none" stroke="black" d="M43.7466,-137.966C49.9905,-146.488 80.3318,-187.899 86.8943,-196.856"/>
</g>
<!-- 5 -->
<g id="node6" class="node"><title>5</title>
<ellipse fill="black" stroke="black" cx="1.8" cy="-215.895" rx="1.8" ry="1.8"/>
</g>
<!-- 0&#45;&#45;5 -->
<g id="edge5" class="edge"><title>0&#45;&#45;5</title>
<path fill="none" stroke="black" d="M41.7687,-138.09C36.4562,-148.432 7.94674,-203.93 2.64792,-214.245"/>
</g>
<!-- 6 -->
<g id="node7" class="node"><title>6</title>
<ellipse fill="black" stroke="black" cx="43.4774" cy="-66.074" rx="1.8" ry="1.8"/>
</g>
<!-- 0&#45;&#45;6 -->
<g id="edge6" class="edge"><title>0&#45;&#45;6</title>
<path fill="none" stroke="black" d="M42.646,-134.4C42.771,-124.126 43.3329,-77.9556 43.4543,-67.9786"/>
</g>
<!-- 7 -->
<g id="node8" class="node"><title>7</title>
<ellipse fill="black" stroke="black" cx="103.13" cy="-75.2058" rx="1.8" ry="1.8"/>
</g>
<!-- 0&#45;&#45;7 -->
<g id="edge7" class="edge"><title>0&#45;&#45;7</title>
<path fill="none" stroke="black" d="M44.117,-134.917C52.4157,-126.52 92.7423,-85.7164 101.464,-76.8911"/>
</g>
<!-- 1&#45;&#45;2 -->
<g id="edge8" class="edge"><title>1&#45;&#45;2</title>
<path fill="none" stroke="black" d="M89.2085,-138.763C78.5885,-142.803 21.5967,-164.484 11.0041,-168.513"/>
</g>
<!-- 1&#45;&#45;3 -->
<g id="edge9" class="edge"><title>1&#45;&#45;3</title>
<path fill="none" stroke="black" d="M89.9939,-140.002C84.8502,-150.564 59.6808,-202.248 54.6213,-212.638"/>
</g>
<!-- 1&#45;&#45;4 -->
<g id="edge10" class="edge"><title>1&#45;&#45;4</title>
<path fill="none" stroke="black" d="M90.8209,-140.126C90.401,-149.304 88.6691,-187.164 88.2427,-196.485"/>
</g>
<!-- 1&#45;&#45;6 -->
<g id="edge11" class="edge"><title>1&#45;&#45;6</title>
<path fill="none" stroke="black" d="M89.9221,-136.61C83.8021,-127.315 51.1893,-77.786 44.628,-67.8213"/>
</g>
<!-- 1&#45;&#45;7 -->
<g id="edge12" class="edge"><title>1&#45;&#45;7</title>
<path fill="none" stroke="black" d="M91.2654,-136.299C93.0181,-127.274 100.787,-87.2683 102.702,-77.4078"/>
</g>
<!-- 2&#45;&#45;3 -->
<g id="edge13" class="edge"><title>2&#45;&#45;3</title>
<path fill="none" stroke="black" d="M10.7872,-170.665C17.5321,-177.543 45.3549,-205.914 52.2052,-212.9"/>
</g>
<!-- 2&#45;&#45;4 -->
<g id="edge14" class="edge"><title>2&#45;&#45;4</title>
<path fill="none" stroke="black" d="M11.2579,-169.885C22.1653,-173.954 75.538,-193.862 86.2668,-197.864"/>
</g>
<!-- 2&#45;&#45;5 -->
<g id="edge15" class="edge"><title>2&#45;&#45;5</title>
<path fill="none" stroke="black" d="M8.98641,-171.166C7.75125,-178.854 3.33167,-206.362 2.1131,-213.947"/>
</g>
<!-- 3&#45;&#45;4 -->
<g id="edge16" class="edge"><title>3&#45;&#45;4</title>
<path fill="none" stroke="black" d="M55.5846,-213.604C61.6157,-210.819 80.6513,-202.028 86.4527,-199.349"/>
</g>
<!-- 3&#45;&#45;5 -->
<g id="edge17" class="edge"><title>3&#45;&#45;5</title>
<path fill="none" stroke="black" d="M51.5028,-214.521C42.9602,-214.757 12.3934,-215.602 3.96544,-215.835"/>
</g>
<!-- 4&#45;&#45;5 -->
<g id="edge18" class="edge"><title>4&#45;&#45;5</title>
<path fill="none" stroke="black" d="M86.344,-198.928C75.1067,-201.183 14.8019,-213.286 3.59357,-215.535"/>
</g>
<!-- 6&#45;&#45;7 -->
<g id="edge19" class="edge"><title>6&#45;&#45;7</title>
<path fill="none" stroke="black" d="M45.4622,-66.3778C54.519,-67.7643 91.8784,-73.4833 101.077,-74.8914"/>
</g>
<!-- 8 -->
<g id="node9" class="node"><title>8</title>
<ellipse fill="black" stroke="black" cx="83.4118" cy="-1.8" rx="1.8" ry="1.8"/>
</g>
<!-- 6&#45;&#45;8 -->
<g id="edge20" class="edge"><title>6&#45;&#45;8</title>
<path fill="none" stroke="black" d="M44.4646,-64.4852C49.9415,-55.6701 76.5561,-12.8342 82.3125,-3.56929"/>
</g>
<!-- 7&#45;&#45;8 -->
<g id="edge21" class="edge"><title>7&#45;&#45;8</title>
<path fill="none" stroke="black" d="M102.643,-73.3912C99.9146,-63.2354 86.5656,-13.5406 83.8822,-3.55111"/>
</g>
</g>
</svg>
