<?xml version="1.0" encoding="UTF-8" standalone="no"?>
<!DOCTYPE svg PUBLIC "-//W3C//DTD SVG 1.1//EN"
 "http://www.w3.org/Graphics/SVG/1.1/DTD/svg11.dtd">
<!-- Generated by graphviz version 2.36.0 (20140111.2315)
 -->
<!-- Title: %3 Pages: 1 -->
<svg width="172pt" height="121pt"
 viewBox="0.00 0.00 171.91 121.26" xmlns="http://www.w3.org/2000/svg" xmlns:xlink="http://www.w3.org/1999/xlink">
<g id="graph0" class="graph" transform="scale(1 1) rotate(0) translate(4 117.264)">
<title>%3</title>
<!-- 0 -->
<g id="node1" class="node"><title>0</title>
<ellipse fill="black" stroke="black" cx="90.6101" cy="-76.6118" rx="1.8" ry="1.8"/>
</g>
<!-- 2 -->
<g id="node2" class="node"><title>2</title>
<ellipse fill="black" stroke="black" cx="60.2945" cy="-106.436" rx="1.8" ry="1.8"/>
</g>
<!-- 0&#45;&#45;2 -->
<g id="edge1" class="edge"><title>0&#45;&#45;2</title>
<path fill="none" stroke="black" d="M89.3074,-77.8933C84.4115,-82.7098 67.1227,-99.7181 61.8395,-104.916"/>
</g>
<!-- 3 -->
<g id="node3" class="node"><title>3</title>
<ellipse fill="black" stroke="black" cx="47.9948" cy="-1.8" rx="1.8" ry="1.8"/>
</g>
<!-- 0&#45;&#45;3 -->
<g id="edge2" class="edge"><title>0&#45;&#45;3</title>
<path fill="none" stroke="black" d="M89.5566,-74.7625C83.6607,-64.4122 54.8107,-13.7655 49.0113,-3.58465"/>
</g>
<!-- 4 -->
<g id="node4" class="node"><title>4</title>
<ellipse fill="black" stroke="black" cx="1.8" cy="-79.6757" rx="1.8" ry="1.8"/>
</g>
<!-- 0&#45;&#45;4 -->
<g id="edge3" class="edge"><title>0&#45;&#45;4</title>
<path fill="none" stroke="black" d="M88.7551,-76.6758C77.1973,-77.0745 15.1727,-79.2143 3.64472,-79.612"/>
</g>
<!-- 5 -->
<g id="node5" class="node"><title>5</title>
<ellipse fill="black" stroke="black" cx="99.3" cy="-8.48047" rx="1.8" ry="1.8"/>
</g>
<!-- 0&#45;&#45;5 -->
<g id="edge4" class="edge"><title>0&#45;&#45;5</title>
<path fill="none" stroke="black" d="M90.8608,-74.6463C92.1297,-64.6972 97.8324,-19.9863 99.0647,-10.3249"/>
</g>
<!-- 7 -->
<g id="node6" class="node"><title>7</title>
<ellipse fill="black" stroke="black" cx="162.115" cy="-111.464" rx="1.8" ry="1.8"/>
</g>
<!-- 0&#45;&#45;7 -->
<g id="edge5" class="edge"><title>0&#45;&#45;7</title>
<path fill="none" stroke="black" d="M92.3776,-77.4733C102.27,-82.2952 150.678,-105.89 160.409,-110.632"/>
</g>
<!-- 2&#45;&#45;4 -->
<g id="edge11" class="edge"><title>2&#45;&#45;4</title>
<path fill="none" stroke="black" d="M58.6069,-105.664C50.215,-101.824 13.0161,-84.8068 3.84755,-80.6124"/>
</g>
<!-- 2&#45;&#45;5 -->
<g id="edge12" class="edge"><title>2&#45;&#45;5</title>
<path fill="none" stroke="black" d="M60.9715,-104.735C65.7059,-92.8458 93.809,-22.2699 98.6043,-10.2275"/>
</g>
<!-- 6 -->
<g id="node8" class="node"><title>6</title>
<ellipse fill="black" stroke="black" cx="123.127" cy="-51.4905" rx="1.8" ry="1.8"/>
</g>
<!-- 2&#45;&#45;6 -->
<g id="edge13" class="edge"><title>2&#45;&#45;6</title>
<path fill="none" stroke="black" d="M61.8476,-105.077C70.465,-97.5417 112.34,-60.9232 121.397,-53.003"/>
</g>
<!-- 3&#45;&#45;4 -->
<g id="edge14" class="edge"><title>3&#45;&#45;4</title>
<path fill="none" stroke="black" d="M47.0299,-3.42654C41.0181,-13.5613 8.75587,-67.9494 2.75953,-78.0581"/>
</g>
<!-- 3&#45;&#45;5 -->
<g id="edge15" class="edge"><title>3&#45;&#45;5</title>
<path fill="none" stroke="black" d="M50.1993,-2.08705C58.6385,-3.18592 88.8349,-7.11781 97.1608,-8.20192"/>
</g>
<!-- 3&#45;&#45;6 -->
<g id="edge16" class="edge"><title>3&#45;&#45;6</title>
<path fill="none" stroke="black" d="M49.564,-2.83786C59.3417,-9.3046 111.814,-44.0083 121.566,-50.4584"/>
</g>
<!-- 1 -->
<g id="node7" class="node"><title>1</title>
<ellipse fill="black" stroke="black" cx="38.5959" cy="-43.5793" rx="1.8" ry="1.8"/>
</g>
<!-- 1&#45;&#45;2 -->
<g id="edge6" class="edge"><title>1&#45;&#45;2</title>
<path fill="none" stroke="black" d="M39.2219,-45.3927C42.3905,-54.5714 56.6301,-95.8206 59.7071,-104.734"/>
</g>
<!-- 1&#45;&#45;3 -->
<g id="edge7" class="edge"><title>1&#45;&#45;3</title>
<path fill="none" stroke="black" d="M38.9998,-41.7841C40.5177,-35.0368 45.8778,-11.2103 47.5157,-3.92928"/>
</g>
<!-- 1&#45;&#45;4 -->
<g id="edge8" class="edge"><title>1&#45;&#45;4</title>
<path fill="none" stroke="black" d="M37.0148,-45.1303C30.9623,-51.0678 9.3055,-72.3129 3.33423,-78.1706"/>
</g>
<!-- 1&#45;&#45;5 -->
<g id="edge9" class="edge"><title>1&#45;&#45;5</title>
<path fill="none" stroke="black" d="M40.3472,-42.5667C49.2116,-37.4413 89.0484,-14.4079 97.6566,-9.43064"/>
</g>
<!-- 1&#45;&#45;6 -->
<g id="edge10" class="edge"><title>1&#45;&#45;6</title>
<path fill="none" stroke="black" d="M40.6854,-43.7749C52.3805,-44.8694 109.607,-50.2252 121.11,-51.3018"/>
</g>
<!-- 6&#45;&#45;7 -->
<g id="edge17" class="edge"><title>6&#45;&#45;7</title>
<path fill="none" stroke="black" d="M124.252,-53.2207C129.945,-61.9785 155.531,-101.336 161.059,-109.84"/>
</g>
</g>
</svg>
