<?xml version="1.0" encoding="UTF-8" standalone="no"?>
<!DOCTYPE svg PUBLIC "-//W3C//DTD SVG 1.1//EN"
 "http://www.w3.org/Graphics/SVG/1.1/DTD/svg11.dtd">
<!-- Generated by graphviz version 2.36.0 (20140111.2315)
 -->
<!-- Title: %3 Pages: 1 -->
<svg width="218pt" height="263pt"
 viewBox="0.00 0.00 218.00 262.64" xmlns="http://www.w3.org/2000/svg" xmlns:xlink="http://www.w3.org/1999/xlink">
<g id="graph0" class="graph" transform="scale(1 1) rotate(0) translate(4 258.636)">
<title>%3</title>
<!-- 0 -->
<g id="node1" class="node"><title>0</title>
<ellipse fill="black" stroke="black" cx="134.244" cy="-104.152" rx="1.8" ry="1.8"/>
</g>
<!-- 1 -->
<g id="node2" class="node"><title>1</title>
<ellipse fill="black" stroke="black" cx="56.0275" cy="-83.9739" rx="1.8" ry="1.8"/>
</g>
<!-- 0&#45;&#45;1 -->
<g id="edge1" class="edge"><title>0&#45;&#45;1</title>
<path fill="none" stroke="black" d="M132.31,-103.653C121.489,-100.862 68.5376,-87.2012 57.8934,-84.4553"/>
</g>
<!-- 3 -->
<g id="node3" class="node"><title>3</title>
<ellipse fill="black" stroke="black" cx="92.623" cy="-43.1157" rx="1.8" ry="1.8"/>
</g>
<!-- 0&#45;&#45;3 -->
<g id="edge2" class="edge"><title>0&#45;&#45;3</title>
<path fill="none" stroke="black" d="M133.215,-102.643C127.507,-94.2724 99.7683,-53.5941 93.7688,-44.7959"/>
</g>
<!-- 5 -->
<g id="node4" class="node"><title>5</title>
<ellipse fill="black" stroke="black" cx="147.718" cy="-182.351" rx="1.8" ry="1.8"/>
</g>
<!-- 0&#45;&#45;5 -->
<g id="edge3" class="edge"><title>0&#45;&#45;5</title>
<path fill="none" stroke="black" d="M134.577,-106.085C136.441,-116.904 145.563,-169.844 147.397,-180.486"/>
</g>
<!-- 7 -->
<g id="node5" class="node"><title>7</title>
<ellipse fill="black" stroke="black" cx="208.198" cy="-69.0226" rx="1.8" ry="1.8"/>
</g>
<!-- 0&#45;&#45;7 -->
<g id="edge4" class="edge"><title>0&#45;&#45;7</title>
<path fill="none" stroke="black" d="M136.072,-103.284C146.304,-98.4236 196.37,-74.6413 206.434,-69.8606"/>
</g>
<!-- 1&#45;&#45;3 -->
<g id="edge6" class="edge"><title>1&#45;&#45;3</title>
<path fill="none" stroke="black" d="M57.2451,-82.6145C62.8013,-76.4111 85.7204,-50.8224 91.3633,-44.5222"/>
</g>
<!-- 2 -->
<g id="node6" class="node"><title>2</title>
<ellipse fill="black" stroke="black" cx="1.8" cy="-58.9858" rx="1.8" ry="1.8"/>
</g>
<!-- 1&#45;&#45;2 -->
<g id="edge5" class="edge"><title>1&#45;&#45;2</title>
<path fill="none" stroke="black" d="M54.2233,-83.1425C45.9901,-79.3487 12.0284,-63.6991 3.66663,-59.846"/>
</g>
<!-- 4 -->
<g id="node7" class="node"><title>4</title>
<ellipse fill="black" stroke="black" cx="17.3447" cy="-1.8" rx="1.8" ry="1.8"/>
</g>
<!-- 1&#45;&#45;4 -->
<g id="edge7" class="edge"><title>1&#45;&#45;4</title>
<path fill="none" stroke="black" d="M55.2196,-82.2576C50.1854,-71.5634 23.1695,-14.1735 18.1482,-3.50688"/>
</g>
<!-- 6 -->
<g id="node8" class="node"><title>6</title>
<ellipse fill="black" stroke="black" cx="171.016" cy="-252.836" rx="1.8" ry="1.8"/>
</g>
<!-- 5&#45;&#45;6 -->
<g id="edge10" class="edge"><title>5&#45;&#45;6</title>
<path fill="none" stroke="black" d="M148.294,-184.094C151.49,-193.76 167.017,-240.735 170.375,-250.895"/>
</g>
<!-- 2&#45;&#45;3 -->
<g id="edge8" class="edge"><title>2&#45;&#45;3</title>
<path fill="none" stroke="black" d="M3.69697,-58.6544C15.5167,-56.589 78.9472,-45.5054 90.7365,-43.4454"/>
</g>
<!-- 2&#45;&#45;4 -->
<g id="edge9" class="edge"><title>2&#45;&#45;4</title>
<path fill="none" stroke="black" d="M2.3172,-57.0832C4.67729,-48.4009 14.4127,-12.5864 16.8096,-3.76847"/>
</g>
</g>
</svg>
