<?xml version="1.0" encoding="UTF-8" standalone="no"?>
<!DOCTYPE svg PUBLIC "-//W3C//DTD SVG 1.1//EN"
 "http://www.w3.org/Graphics/SVG/1.1/DTD/svg11.dtd">
<!-- Generated by graphviz version 2.36.0 (20140111.2315)
 -->
<!-- Title: %3 Pages: 1 -->
<svg width="175pt" height="172pt"
 viewBox="0.00 0.00 174.54 171.63" xmlns="http://www.w3.org/2000/svg" xmlns:xlink="http://www.w3.org/1999/xlink">
<g id="graph0" class="graph" transform="scale(1 1) rotate(0) translate(4 167.634)">
<title>%3</title>
<!-- 0 -->
<g id="node1" class="node"><title>0</title>
<ellipse fill="black" stroke="black" cx="90.8326" cy="-109.836" rx="1.8" ry="1.8"/>
</g>
<!-- 1 -->
<g id="node2" class="node"><title>1</title>
<ellipse fill="black" stroke="black" cx="46.4914" cy="-75.0483" rx="1.8" ry="1.8"/>
</g>
<!-- 0&#45;&#45;1 -->
<g id="edge1" class="edge"><title>0&#45;&#45;1</title>
<path fill="none" stroke="black" d="M89.3573,-108.679C82.6251,-103.397 54.855,-81.6099 48.0177,-76.2457"/>
</g>
<!-- 2 -->
<g id="node3" class="node"><title>2</title>
<ellipse fill="black" stroke="black" cx="105.823" cy="-22.3105" rx="1.8" ry="1.8"/>
</g>
<!-- 0&#45;&#45;2 -->
<g id="edge2" class="edge"><title>0&#45;&#45;2</title>
<path fill="none" stroke="black" d="M91.1457,-108.008C93.0966,-96.6173 103.566,-35.4898 105.512,-24.1286"/>
</g>
<!-- 3 -->
<g id="node4" class="node"><title>3</title>
<ellipse fill="black" stroke="black" cx="115.835" cy="-55.0362" rx="1.8" ry="1.8"/>
</g>
<!-- 0&#45;&#45;3 -->
<g id="edge3" class="edge"><title>0&#45;&#45;3</title>
<path fill="none" stroke="black" d="M91.6644,-108.013C95.4604,-99.6927 111.119,-65.3725 114.974,-56.9225"/>
</g>
<!-- 4 -->
<g id="node5" class="node"><title>4</title>
<ellipse fill="black" stroke="black" cx="66.7049" cy="-161.834" rx="1.8" ry="1.8"/>
</g>
<!-- 0&#45;&#45;4 -->
<g id="edge4" class="edge"><title>0&#45;&#45;4</title>
<path fill="none" stroke="black" d="M90.0298,-111.566C86.3666,-119.461 71.2559,-152.026 67.5354,-160.044"/>
</g>
<!-- 5 -->
<g id="node6" class="node"><title>5</title>
<ellipse fill="black" stroke="black" cx="21.6055" cy="-152.284" rx="1.8" ry="1.8"/>
</g>
<!-- 0&#45;&#45;5 -->
<g id="edge5" class="edge"><title>0&#45;&#45;5</title>
<path fill="none" stroke="black" d="M89.1213,-110.885C79.6269,-116.707 33.49,-144.997 23.5111,-151.116"/>
</g>
<!-- 6 -->
<g id="node7" class="node"><title>6</title>
<ellipse fill="black" stroke="black" cx="1.8" cy="-110.732" rx="1.8" ry="1.8"/>
</g>
<!-- 0&#45;&#45;6 -->
<g id="edge6" class="edge"><title>0&#45;&#45;6</title>
<path fill="none" stroke="black" d="M88.973,-109.855C77.3863,-109.971 15.2063,-110.597 3.64934,-110.713"/>
</g>
<!-- 7 -->
<g id="node8" class="node"><title>7</title>
<ellipse fill="black" stroke="black" cx="164.736" cy="-83.9331" rx="1.8" ry="1.8"/>
</g>
<!-- 0&#45;&#45;7 -->
<g id="edge7" class="edge"><title>0&#45;&#45;7</title>
<path fill="none" stroke="black" d="M92.6594,-109.196C102.884,-105.612 152.915,-88.0761 162.973,-84.5511"/>
</g>
<!-- 1&#45;&#45;2 -->
<g id="edge8" class="edge"><title>1&#45;&#45;2</title>
<path fill="none" stroke="black" d="M47.958,-73.7446C56.0953,-66.5117 95.6374,-31.3642 104.19,-23.7623"/>
</g>
<!-- 1&#45;&#45;3 -->
<g id="edge9" class="edge"><title>1&#45;&#45;3</title>
<path fill="none" stroke="black" d="M48.4919,-74.4709C58.6179,-71.5486 104.124,-58.4158 113.958,-55.5779"/>
</g>
<!-- 1&#45;&#45;4 -->
<g id="edge10" class="edge"><title>1&#45;&#45;4</title>
<path fill="none" stroke="black" d="M46.9135,-76.8609C49.5441,-88.1552 63.6612,-148.766 66.2851,-160.031"/>
</g>
<!-- 1&#45;&#45;5 -->
<g id="edge11" class="edge"><title>1&#45;&#45;5</title>
<path fill="none" stroke="black" d="M45.8762,-76.9575C42.4332,-87.6432 25.5858,-139.931 22.1992,-150.442"/>
</g>
<!-- 1&#45;&#45;6 -->
<g id="edge12" class="edge"><title>1&#45;&#45;6</title>
<path fill="none" stroke="black" d="M45.0044,-76.2355C38.2191,-81.6532 10.2297,-104.001 3.33838,-109.504"/>
</g>
<!-- 8 -->
<g id="node9" class="node"><title>8</title>
<ellipse fill="black" stroke="black" cx="48.514" cy="-1.8" rx="1.8" ry="1.8"/>
</g>
<!-- 1&#45;&#45;8 -->
<g id="edge13" class="edge"><title>1&#45;&#45;8</title>
<path fill="none" stroke="black" d="M46.5413,-73.2376C46.8187,-63.1917 48.1667,-14.3748 48.4583,-3.81632"/>
</g>
<!-- 2&#45;&#45;3 -->
<g id="edge14" class="edge"><title>2&#45;&#45;3</title>
<path fill="none" stroke="black" d="M106.361,-24.07C108.084,-29.6991 113.45,-47.2413 115.244,-53.1052"/>
</g>
<!-- 2&#45;&#45;7 -->
<g id="edge15" class="edge"><title>2&#45;&#45;7</title>
<path fill="none" stroke="black" d="M107.279,-23.8338C115.359,-32.2853 154.622,-73.3541 163.114,-82.2368"/>
</g>
<!-- 2&#45;&#45;8 -->
<g id="edge16" class="edge"><title>2&#45;&#45;8</title>
<path fill="none" stroke="black" d="M103.916,-21.6281C95.2153,-18.5141 59.3236,-5.6687 50.4867,-2.50602"/>
</g>
<!-- 3&#45;&#45;7 -->
<g id="edge17" class="edge"><title>3&#45;&#45;7</title>
<path fill="none" stroke="black" d="M117.462,-55.9976C124.886,-60.3849 155.512,-78.4826 163.052,-82.9384"/>
</g>
<!-- 3&#45;&#45;8 -->
<g id="edge18" class="edge"><title>3&#45;&#45;8</title>
<path fill="none" stroke="black" d="M114.171,-53.7202C104.938,-46.4189 60.0712,-10.9393 50.3671,-3.26545"/>
</g>
<!-- 4&#45;&#45;5 -->
<g id="edge19" class="edge"><title>4&#45;&#45;5</title>
<path fill="none" stroke="black" d="M64.7671,-161.423C57.3487,-159.853 30.8047,-154.232 23.486,-152.683"/>
</g>
<!-- 4&#45;&#45;6 -->
<g id="edge20" class="edge"><title>4&#45;&#45;6</title>
<path fill="none" stroke="black" d="M65.1005,-160.571C56.1989,-153.562 12.9425,-119.505 3.58665,-112.139"/>
</g>
<!-- 5&#45;&#45;6 -->
<g id="edge21" class="edge"><title>5&#45;&#45;6</title>
<path fill="none" stroke="black" d="M20.7545,-150.499C17.4967,-143.664 5.83986,-119.208 2.6258,-112.465"/>
</g>
</g>
</svg>
