<?xml version="1.0" encoding="UTF-8" standalone="no"?>
<!DOCTYPE svg PUBLIC "-//W3C//DTD SVG 1.1//EN"
 "http://www.w3.org/Graphics/SVG/1.1/DTD/svg11.dtd">
<!-- Generated by graphviz version 2.36.0 (20140111.2315)
 -->
<!-- Title: %3 Pages: 1 -->
<svg width="145pt" height="157pt"
 viewBox="0.00 0.00 144.92 156.71" xmlns="http://www.w3.org/2000/svg" xmlns:xlink="http://www.w3.org/1999/xlink">
<g id="graph0" class="graph" transform="scale(1 1) rotate(0) translate(4 152.715)">
<title>%3</title>
<!-- 0 -->
<g id="node1" class="node"><title>0</title>
<ellipse fill="black" stroke="black" cx="60.8989" cy="-77.8051" rx="1.8" ry="1.8"/>
</g>
<!-- 1 -->
<g id="node2" class="node"><title>1</title>
<ellipse fill="black" stroke="black" cx="88.6821" cy="-64.4923" rx="1.8" ry="1.8"/>
</g>
<!-- 0&#45;&#45;1 -->
<g id="edge1" class="edge"><title>0&#45;&#45;1</title>
<path fill="none" stroke="black" d="M62.7218,-76.9316C67.7439,-74.5252 81.7429,-67.8173 86.816,-65.3865"/>
</g>
<!-- 2 -->
<g id="node3" class="node"><title>2</title>
<ellipse fill="black" stroke="black" cx="67.8043" cy="-1.8" rx="1.8" ry="1.8"/>
</g>
<!-- 0&#45;&#45;2 -->
<g id="edge2" class="edge"><title>0&#45;&#45;2</title>
<path fill="none" stroke="black" d="M61.0696,-75.9263C62.025,-65.4109 66.6998,-13.9563 67.6396,-3.61312"/>
</g>
<!-- 3 -->
<g id="node4" class="node"><title>3</title>
<ellipse fill="black" stroke="black" cx="55.5833" cy="-142.169" rx="1.8" ry="1.8"/>
</g>
<!-- 0&#45;&#45;3 -->
<g id="edge3" class="edge"><title>0&#45;&#45;3</title>
<path fill="none" stroke="black" d="M60.7456,-79.662C59.9829,-88.8959 56.6026,-129.827 55.7694,-139.916"/>
</g>
<!-- 4 -->
<g id="node5" class="node"><title>4</title>
<ellipse fill="black" stroke="black" cx="17.9638" cy="-11.9084" rx="1.8" ry="1.8"/>
</g>
<!-- 0&#45;&#45;4 -->
<g id="edge4" class="edge"><title>0&#45;&#45;4</title>
<path fill="none" stroke="black" d="M59.8376,-76.1762C53.9491,-67.1385 25.3346,-23.2211 19.1456,-13.7223"/>
</g>
<!-- 5 -->
<g id="node6" class="node"><title>5</title>
<ellipse fill="black" stroke="black" cx="103.281" cy="-146.915" rx="1.8" ry="1.8"/>
</g>
<!-- 0&#45;&#45;5 -->
<g id="edge5" class="edge"><title>0&#45;&#45;5</title>
<path fill="none" stroke="black" d="M61.9466,-79.5134C67.7592,-88.9917 96.005,-135.05 102.114,-145.012"/>
</g>
<!-- 6 -->
<g id="node7" class="node"><title>6</title>
<ellipse fill="black" stroke="black" cx="1.8" cy="-57.7956" rx="1.8" ry="1.8"/>
</g>
<!-- 0&#45;&#45;6 -->
<g id="edge6" class="edge"><title>0&#45;&#45;6</title>
<path fill="none" stroke="black" d="M59.1939,-77.2278C50.7153,-74.3572 13.132,-61.6324 3.86871,-58.496"/>
</g>
<!-- 7 -->
<g id="node8" class="node"><title>7</title>
<ellipse fill="black" stroke="black" cx="135.118" cy="-111.513" rx="1.8" ry="1.8"/>
</g>
<!-- 0&#45;&#45;7 -->
<g id="edge7" class="edge"><title>0&#45;&#45;7</title>
<path fill="none" stroke="black" d="M62.7335,-78.6383C73.0018,-83.3018 123.247,-106.121 133.347,-110.708"/>
</g>
<!-- 8 -->
<g id="node9" class="node"><title>8</title>
<ellipse fill="black" stroke="black" cx="132.55" cy="-14.3669" rx="1.8" ry="1.8"/>
</g>
<!-- 0&#45;&#45;8 -->
<g id="edge8" class="edge"><title>0&#45;&#45;8</title>
<path fill="none" stroke="black" d="M62.3954,-76.4801C71.7202,-68.2242 121.761,-23.9192 131.062,-15.6846"/>
</g>
<!-- 1&#45;&#45;2 -->
<g id="edge9" class="edge"><title>1&#45;&#45;2</title>
<path fill="none" stroke="black" d="M88.0798,-62.6837C85.0845,-53.6895 71.8076,-13.8211 68.5351,-3.99449"/>
</g>
<!-- 1&#45;&#45;3 -->
<g id="edge10" class="edge"><title>1&#45;&#45;3</title>
<path fill="none" stroke="black" d="M87.8639,-66.4124C83.2846,-77.1591 60.8772,-129.745 56.3729,-140.316"/>
</g>
<!-- 1&#45;&#45;4 -->
<g id="edge11" class="edge"><title>1&#45;&#45;4</title>
<path fill="none" stroke="black" d="M87.205,-63.394C78.0017,-56.5507 28.6123,-19.8263 19.4327,-13.0006"/>
</g>
<!-- 1&#45;&#45;5 -->
<g id="edge12" class="edge"><title>1&#45;&#45;5</title>
<path fill="none" stroke="black" d="M89.043,-66.5297C91.0627,-77.933 100.946,-133.732 102.933,-144.948"/>
</g>
<!-- 1&#45;&#45;6 -->
<g id="edge13" class="edge"><title>1&#45;&#45;6</title>
<path fill="none" stroke="black" d="M86.8674,-64.3525C75.5605,-63.4809 14.8824,-58.804 3.60467,-57.9347"/>
</g>
<!-- 1&#45;&#45;7 -->
<g id="edge14" class="edge"><title>1&#45;&#45;7</title>
<path fill="none" stroke="black" d="M90.2271,-66.0568C97.2772,-73.1957 126.359,-102.644 133.519,-109.894"/>
</g>
<!-- 1&#45;&#45;8 -->
<g id="edge15" class="edge"><title>1&#45;&#45;8</title>
<path fill="none" stroke="black" d="M90.1416,-62.8246C96.8019,-55.2142 124.276,-23.8216 131.04,-16.0923"/>
</g>
<!-- 2&#45;&#45;4 -->
<g id="edge16" class="edge"><title>2&#45;&#45;4</title>
<path fill="none" stroke="black" d="M65.6627,-2.23434C57.4645,-3.89707 28.1301,-9.8465 20.0419,-11.4869"/>
</g>
<!-- 2&#45;&#45;6 -->
<g id="edge17" class="edge"><title>2&#45;&#45;6</title>
<path fill="none" stroke="black" d="M66.1727,-3.18417C57.1203,-10.8639 13.1312,-48.1826 3.61692,-56.2542"/>
</g>
<!-- 2&#45;&#45;8 -->
<g id="edge18" class="edge"><title>2&#45;&#45;8</title>
<path fill="none" stroke="black" d="M69.6722,-2.16255C78.961,-3.96546 120.135,-11.9572 130.284,-13.927"/>
</g>
<!-- 3&#45;&#45;5 -->
<g id="edge19" class="edge"><title>3&#45;&#45;5</title>
<path fill="none" stroke="black" d="M57.6328,-142.373C65.4786,-143.153 93.5517,-145.947 101.292,-146.717"/>
</g>
<!-- 3&#45;&#45;7 -->
<g id="edge20" class="edge"><title>3&#45;&#45;7</title>
<path fill="none" stroke="black" d="M57.5493,-141.411C68.5531,-137.17 122.397,-116.416 133.22,-112.244"/>
</g>
<!-- 4&#45;&#45;6 -->
<g id="edge21" class="edge"><title>4&#45;&#45;6</title>
<path fill="none" stroke="black" d="M17.2692,-13.8801C14.6104,-21.4281 5.09703,-48.4357 2.47396,-55.8823"/>
</g>
<!-- 5&#45;&#45;7 -->
<g id="edge22" class="edge"><title>5&#45;&#45;7</title>
<path fill="none" stroke="black" d="M104.649,-145.393C109.886,-139.57 128.624,-118.734 133.79,-112.989"/>
</g>
</g>
</svg>
