<?xml version="1.0" encoding="UTF-8" standalone="no"?>
<!DOCTYPE svg PUBLIC "-//W3C//DTD SVG 1.1//EN"
 "http://www.w3.org/Graphics/SVG/1.1/DTD/svg11.dtd">
<!-- Generated by graphviz version 2.36.0 (20140111.2315)
 -->
<!-- Title: %3 Pages: 1 -->
<svg width="157pt" height="172pt"
 viewBox="0.00 0.00 156.99 171.86" xmlns="http://www.w3.org/2000/svg" xmlns:xlink="http://www.w3.org/1999/xlink">
<g id="graph0" class="graph" transform="scale(1 1) rotate(0) translate(4 167.858)">
<title>%3</title>
<!-- 0 -->
<g id="node1" class="node"><title>0</title>
<ellipse fill="black" stroke="black" cx="74.269" cy="-71.7263" rx="1.8" ry="1.8"/>
</g>
<!-- 1 -->
<g id="node2" class="node"><title>1</title>
<ellipse fill="black" stroke="black" cx="87.452" cy="-109.794" rx="1.8" ry="1.8"/>
</g>
<!-- 0&#45;&#45;1 -->
<g id="edge1" class="edge"><title>0&#45;&#45;1</title>
<path fill="none" stroke="black" d="M74.9778,-73.773C77.2882,-80.4447 84.5803,-101.502 86.8027,-107.92"/>
</g>
<!-- 2 -->
<g id="node3" class="node"><title>2</title>
<ellipse fill="black" stroke="black" cx="45.1898" cy="-132.568" rx="1.8" ry="1.8"/>
</g>
<!-- 0&#45;&#45;2 -->
<g id="edge2" class="edge"><title>0&#45;&#45;2</title>
<path fill="none" stroke="black" d="M73.4301,-73.4816C69.1837,-82.3661 50.1006,-122.293 45.977,-130.921"/>
</g>
<!-- 3 -->
<g id="node4" class="node"><title>3</title>
<ellipse fill="black" stroke="black" cx="65.0699" cy="-162.058" rx="1.8" ry="1.8"/>
</g>
<!-- 0&#45;&#45;3 -->
<g id="edge3" class="edge"><title>0&#45;&#45;3</title>
<path fill="none" stroke="black" d="M74.0769,-73.613C72.8797,-85.3688 66.4551,-148.456 65.261,-160.181"/>
</g>
<!-- 4 -->
<g id="node5" class="node"><title>4</title>
<ellipse fill="black" stroke="black" cx="1.8" cy="-125.316" rx="1.8" ry="1.8"/>
</g>
<!-- 0&#45;&#45;4 -->
<g id="edge4" class="edge"><title>0&#45;&#45;4</title>
<path fill="none" stroke="black" d="M72.7554,-72.8456C63.3242,-79.8197 12.7122,-117.246 3.30529,-124.203"/>
</g>
<!-- 5 -->
<g id="node6" class="node"><title>5</title>
<ellipse fill="black" stroke="black" cx="132.137" cy="-135.765" rx="1.8" ry="1.8"/>
</g>
<!-- 0&#45;&#45;5 -->
<g id="edge5" class="edge"><title>0&#45;&#45;5</title>
<path fill="none" stroke="black" d="M75.6995,-73.3093C83.6361,-82.092 122.203,-124.771 130.545,-134.002"/>
</g>
<!-- 6 -->
<g id="node7" class="node"><title>6</title>
<ellipse fill="black" stroke="black" cx="14.3492" cy="-77.6823" rx="1.8" ry="1.8"/>
</g>
<!-- 0&#45;&#45;6 -->
<g id="edge6" class="edge"><title>0&#45;&#45;6</title>
<path fill="none" stroke="black" d="M72.2754,-71.9245C63.178,-72.8287 25.6513,-76.5588 16.4117,-77.4772"/>
</g>
<!-- 7 -->
<g id="node8" class="node"><title>7</title>
<ellipse fill="black" stroke="black" cx="147.192" cy="-62.5512" rx="1.8" ry="1.8"/>
</g>
<!-- 0&#45;&#45;7 -->
<g id="edge7" class="edge"><title>0&#45;&#45;7</title>
<path fill="none" stroke="black" d="M76.0716,-71.4995C86.073,-70.2411 134.673,-64.1263 145.185,-62.8037"/>
</g>
<!-- 8 -->
<g id="node9" class="node"><title>8</title>
<ellipse fill="black" stroke="black" cx="106.658" cy="-1.8" rx="1.8" ry="1.8"/>
</g>
<!-- 0&#45;&#45;8 -->
<g id="edge8" class="edge"><title>0&#45;&#45;8</title>
<path fill="none" stroke="black" d="M75.0696,-69.9978C79.5117,-60.4075 101.097,-13.8045 105.766,-3.72488"/>
</g>
<!-- 1&#45;&#45;2 -->
<g id="edge9" class="edge"><title>1&#45;&#45;2</title>
<path fill="none" stroke="black" d="M85.636,-110.773C78.6843,-114.519 53.8103,-127.923 46.952,-131.618"/>
</g>
<!-- 1&#45;&#45;3 -->
<g id="edge10" class="edge"><title>1&#45;&#45;3</title>
<path fill="none" stroke="black" d="M86.7073,-111.533C83.3091,-119.468 69.2916,-152.2 65.8404,-160.259"/>
</g>
<!-- 1&#45;&#45;4 -->
<g id="edge11" class="edge"><title>1&#45;&#45;4</title>
<path fill="none" stroke="black" d="M85.663,-110.119C74.5162,-112.139 14.6972,-122.979 3.57912,-124.993"/>
</g>
<!-- 1&#45;&#45;5 -->
<g id="edge12" class="edge"><title>1&#45;&#45;5</title>
<path fill="none" stroke="black" d="M89.372,-110.91C96.7224,-115.182 123.023,-130.467 130.274,-134.682"/>
</g>
<!-- 1&#45;&#45;6 -->
<g id="edge13" class="edge"><title>1&#45;&#45;6</title>
<path fill="none" stroke="black" d="M85.6449,-109.001C75.531,-104.558 26.0413,-82.8183 16.093,-78.4483"/>
</g>
<!-- 1&#45;&#45;7 -->
<g id="edge14" class="edge"><title>1&#45;&#45;7</title>
<path fill="none" stroke="black" d="M88.9287,-108.627C97.122,-102.147 136.937,-70.6616 145.548,-63.8516"/>
</g>
<!-- 2&#45;&#45;3 -->
<g id="edge15" class="edge"><title>2&#45;&#45;3</title>
<path fill="none" stroke="black" d="M46.2587,-134.153C49.6782,-139.226 60.3347,-155.034 63.8969,-160.318"/>
</g>
<!-- 2&#45;&#45;4 -->
<g id="edge16" class="edge"><title>2&#45;&#45;4</title>
<path fill="none" stroke="black" d="M43.3254,-132.256C36.1882,-131.063 10.6505,-126.795 3.60916,-125.618"/>
</g>
<!-- 2&#45;&#45;5 -->
<g id="edge17" class="edge"><title>2&#45;&#45;5</title>
<path fill="none" stroke="black" d="M47.0058,-132.635C58.3213,-133.051 119.045,-135.283 130.331,-135.698"/>
</g>
<!-- 2&#45;&#45;6 -->
<g id="edge18" class="edge"><title>2&#45;&#45;6</title>
<path fill="none" stroke="black" d="M44.1637,-130.742C39.4813,-122.409 20.1663,-88.0348 15.4108,-79.5715"/>
</g>
<!-- 3&#45;&#45;4 -->
<g id="edge19" class="edge"><title>3&#45;&#45;4</title>
<path fill="none" stroke="black" d="M63.5059,-161.149C54.8285,-156.11 12.6618,-131.623 3.54165,-126.327"/>
</g>
<!-- 3&#45;&#45;5 -->
<g id="edge20" class="edge"><title>3&#45;&#45;5</title>
<path fill="none" stroke="black" d="M67.0048,-161.299C76.7985,-157.46 120.811,-140.205 130.322,-136.476"/>
</g>
<!-- 3&#45;&#45;6 -->
<g id="edge21" class="edge"><title>3&#45;&#45;6</title>
<path fill="none" stroke="black" d="M64.0105,-160.295C57.4097,-149.315 21.9865,-90.3873 15.4027,-79.4349"/>
</g>
<!-- 4&#45;&#45;6 -->
<g id="edge22" class="edge"><title>4&#45;&#45;6</title>
<path fill="none" stroke="black" d="M2.33922,-123.269C4.40343,-115.434 11.7894,-87.3984 13.8259,-79.6684"/>
</g>
<!-- 5&#45;&#45;7 -->
<g id="edge23" class="edge"><title>5&#45;&#45;7</title>
<path fill="none" stroke="black" d="M132.51,-133.955C134.574,-123.914 144.608,-75.12 146.778,-64.5665"/>
</g>
<!-- 7&#45;&#45;8 -->
<g id="edge24" class="edge"><title>7&#45;&#45;8</title>
<path fill="none" stroke="black" d="M146.19,-61.0494C140.631,-52.7175 113.617,-12.2294 107.774,-3.47231"/>
</g>
</g>
</svg>
