<?xml version="1.0" encoding="UTF-8" standalone="no"?>
<!DOCTYPE svg PUBLIC "-//W3C//DTD SVG 1.1//EN"
 "http://www.w3.org/Graphics/SVG/1.1/DTD/svg11.dtd">
<!-- Generated by graphviz version 2.36.0 (20140111.2315)
 -->
<!-- Title: %3 Pages: 1 -->
<svg width="150pt" height="185pt"
 viewBox="0.00 0.00 149.55 184.80" xmlns="http://www.w3.org/2000/svg" xmlns:xlink="http://www.w3.org/1999/xlink">
<g id="graph0" class="graph" transform="scale(1 1) rotate(0) translate(4 180.801)">
<title>%3</title>
<!-- 0 -->
<g id="node1" class="node"><title>0</title>
<ellipse fill="black" stroke="black" cx="68.9645" cy="-75.8994" rx="1.8" ry="1.8"/>
</g>
<!-- 1 -->
<g id="node2" class="node"><title>1</title>
<ellipse fill="black" stroke="black" cx="54.375" cy="-127.213" rx="1.8" ry="1.8"/>
</g>
<!-- 0&#45;&#45;1 -->
<g id="edge1" class="edge"><title>0&#45;&#45;1</title>
<path fill="none" stroke="black" d="M68.3376,-78.1042C65.9378,-86.5448 57.3509,-116.746 54.9833,-125.073"/>
</g>
<!-- 2 -->
<g id="node3" class="node"><title>2</title>
<ellipse fill="black" stroke="black" cx="85.6071" cy="-112.35" rx="1.8" ry="1.8"/>
</g>
<!-- 0&#45;&#45;2 -->
<g id="edge2" class="edge"><title>0&#45;&#45;2</title>
<path fill="none" stroke="black" d="M69.8593,-77.8591C72.776,-84.2472 81.9819,-104.41 84.7875,-110.555"/>
</g>
<!-- 3 -->
<g id="node4" class="node"><title>3</title>
<ellipse fill="black" stroke="black" cx="126.477" cy="-146.281" rx="1.8" ry="1.8"/>
</g>
<!-- 0&#45;&#45;3 -->
<g id="edge3" class="edge"><title>0&#45;&#45;3</title>
<path fill="none" stroke="black" d="M70.1658,-77.3694C77.6505,-86.5288 117.817,-135.683 125.282,-144.819"/>
</g>
<!-- 4 -->
<g id="node5" class="node"><title>4</title>
<ellipse fill="black" stroke="black" cx="1.8" cy="-127.885" rx="1.8" ry="1.8"/>
</g>
<!-- 0&#45;&#45;4 -->
<g id="edge4" class="edge"><title>0&#45;&#45;4</title>
<path fill="none" stroke="black" d="M67.3043,-77.1844C58.0927,-84.3141 13.3304,-118.96 3.64885,-126.454"/>
</g>
<!-- 5 -->
<g id="node6" class="node"><title>5</title>
<ellipse fill="black" stroke="black" cx="59.6829" cy="-175.001" rx="1.8" ry="1.8"/>
</g>
<!-- 0&#45;&#45;5 -->
<g id="edge5" class="edge"><title>0&#45;&#45;5</title>
<path fill="none" stroke="black" d="M68.7707,-77.9692C67.5628,-90.8663 61.0805,-160.078 59.8757,-172.942"/>
</g>
<!-- 6 -->
<g id="node7" class="node"><title>6</title>
<ellipse fill="black" stroke="black" cx="10.651" cy="-63.3826" rx="1.8" ry="1.8"/>
</g>
<!-- 0&#45;&#45;6 -->
<g id="edge6" class="edge"><title>0&#45;&#45;6</title>
<path fill="none" stroke="black" d="M67.0243,-75.4829C58.1708,-73.5825 21.6501,-65.7435 12.6583,-63.8135"/>
</g>
<!-- 7 -->
<g id="node8" class="node"><title>7</title>
<ellipse fill="black" stroke="black" cx="139.747" cy="-82.3333" rx="1.8" ry="1.8"/>
</g>
<!-- 0&#45;&#45;7 -->
<g id="edge7" class="edge"><title>0&#45;&#45;7</title>
<path fill="none" stroke="black" d="M71.0066,-76.085C81.3428,-77.0245 127.794,-81.2468 137.831,-82.1592"/>
</g>
<!-- 8 -->
<g id="node9" class="node"><title>8</title>
<ellipse fill="black" stroke="black" cx="45.4638" cy="-1.8" rx="1.8" ry="1.8"/>
</g>
<!-- 0&#45;&#45;8 -->
<g id="edge8" class="edge"><title>0&#45;&#45;8</title>
<path fill="none" stroke="black" d="M68.3836,-74.0677C65.1322,-63.8159 49.2225,-13.6515 46.0244,-3.56765"/>
</g>
<!-- 1&#45;&#45;2 -->
<g id="edge9" class="edge"><title>1&#45;&#45;2</title>
<path fill="none" stroke="black" d="M56.0542,-126.414C61.4264,-123.857 78.168,-115.89 83.7643,-113.227"/>
</g>
<!-- 1&#45;&#45;3 -->
<g id="edge10" class="edge"><title>1&#45;&#45;3</title>
<path fill="none" stroke="black" d="M56.1573,-127.684C66.046,-130.299 114.099,-143.007 124.492,-145.756"/>
</g>
<!-- 1&#45;&#45;4 -->
<g id="edge11" class="edge"><title>1&#45;&#45;4</title>
<path fill="none" stroke="black" d="M52.1159,-127.242C43.4679,-127.352 12.5241,-127.748 3.99215,-127.857"/>
</g>
<!-- 1&#45;&#45;5 -->
<g id="edge12" class="edge"><title>1&#45;&#45;5</title>
<path fill="none" stroke="black" d="M54.6031,-129.266C55.4762,-137.127 58.6002,-165.253 59.4616,-173.008"/>
</g>
<!-- 1&#45;&#45;6 -->
<g id="edge13" class="edge"><title>1&#45;&#45;6</title>
<path fill="none" stroke="black" d="M53.2942,-125.635C47.2975,-116.881 18.1573,-74.3406 11.8546,-65.1397"/>
</g>
<!-- 1&#45;&#45;7 -->
<g id="edge14" class="edge"><title>1&#45;&#45;7</title>
<path fill="none" stroke="black" d="M56.1581,-126.276C67.2686,-120.435 126.892,-89.0912 137.974,-83.2655"/>
</g>
<!-- 2&#45;&#45;3 -->
<g id="edge15" class="edge"><title>2&#45;&#45;3</title>
<path fill="none" stroke="black" d="M87.3633,-113.808C94.0859,-119.389 118.141,-139.36 124.773,-144.866"/>
</g>
<!-- 2&#45;&#45;4 -->
<g id="edge16" class="edge"><title>2&#45;&#45;4</title>
<path fill="none" stroke="black" d="M83.5355,-112.734C71.9406,-114.883 15.2042,-125.4 3.79923,-127.514"/>
</g>
<!-- 2&#45;&#45;5 -->
<g id="edge17" class="edge"><title>2&#45;&#45;5</title>
<path fill="none" stroke="black" d="M84.8592,-114.157C81.0736,-123.306 64.0609,-164.42 60.3847,-173.305"/>
</g>
<!-- 2&#45;&#45;6 -->
<g id="edge18" class="edge"><title>2&#45;&#45;6</title>
<path fill="none" stroke="black" d="M84.0416,-111.327C74.2867,-104.954 21.9377,-70.7559 12.2079,-64.3997"/>
</g>
<!-- 2&#45;&#45;7 -->
<g id="edge19" class="edge"><title>2&#45;&#45;7</title>
<path fill="none" stroke="black" d="M87.4085,-111.351C95.6284,-106.794 129.535,-87.995 137.884,-83.3666"/>
</g>
<!-- 3&#45;&#45;5 -->
<g id="edge20" class="edge"><title>3&#45;&#45;5</title>
<path fill="none" stroke="black" d="M124.55,-147.109C114.796,-151.303 70.9629,-170.151 61.4911,-174.223"/>
</g>
<!-- 3&#45;&#45;7 -->
<g id="edge21" class="edge"><title>3&#45;&#45;7</title>
<path fill="none" stroke="black" d="M126.86,-144.436C128.764,-135.262 137.203,-94.595 139.283,-84.5717"/>
</g>
<!-- 4&#45;&#45;5 -->
<g id="edge22" class="edge"><title>4&#45;&#45;5</title>
<path fill="none" stroke="black" d="M3.23082,-129.05C11.1694,-135.511 49.7459,-166.912 58.0895,-173.704"/>
</g>
<!-- 4&#45;&#45;6 -->
<g id="edge23" class="edge"><title>4&#45;&#45;6</title>
<path fill="none" stroke="black" d="M2.05535,-126.024C3.32516,-116.77 8.95384,-75.7507 10.3412,-65.6405"/>
</g>
<!-- 6&#45;&#45;8 -->
<g id="edge24" class="edge"><title>6&#45;&#45;8</title>
<path fill="none" stroke="black" d="M11.6553,-61.606C16.7389,-52.6132 39.5847,-12.1999 44.5213,-3.46711"/>
</g>
</g>
</svg>
