<?xml version="1.0" encoding="UTF-8" standalone="no"?>
<!DOCTYPE svg PUBLIC "-//W3C//DTD SVG 1.1//EN"
 "http://www.w3.org/Graphics/SVG/1.1/DTD/svg11.dtd">
<!-- Generated by graphviz version 2.36.0 (20140111.2315)
 -->
<!-- Title: %3 Pages: 1 -->
<svg width="152pt" height="183pt"
 viewBox="0.00 0.00 151.81 183.00" xmlns="http://www.w3.org/2000/svg" xmlns:xlink="http://www.w3.org/1999/xlink">
<g id="graph0" class="graph" transform="scale(1 1) rotate(0) translate(4 179.004)">
<title>%3</title>
<!-- 0 -->
<g id="node1" class="node"><title>0</title>
<ellipse fill="black" stroke="black" cx="67.1834" cy="-82.5255" rx="1.8" ry="1.8"/>
</g>
<!-- 1 -->
<g id="node2" class="node"><title>1</title>
<ellipse fill="black" stroke="black" cx="72.2361" cy="-113.577" rx="1.8" ry="1.8"/>
</g>
<!-- 0&#45;&#45;1 -->
<g id="edge1" class="edge"><title>0&#45;&#45;1</title>
<path fill="none" stroke="black" d="M67.5149,-84.5629C68.4282,-90.1758 70.9741,-105.822 71.8967,-111.492"/>
</g>
<!-- 2 -->
<g id="node3" class="node"><title>2</title>
<ellipse fill="black" stroke="black" cx="37.6672" cy="-164.132" rx="1.8" ry="1.8"/>
</g>
<!-- 0&#45;&#45;2 -->
<g id="edge2" class="edge"><title>0&#45;&#45;2</title>
<path fill="none" stroke="black" d="M66.5669,-84.2299C62.7256,-94.8502 42.1116,-151.844 38.2803,-162.436"/>
</g>
<!-- 3 -->
<g id="node4" class="node"><title>3</title>
<ellipse fill="black" stroke="black" cx="75.5945" cy="-173.204" rx="1.8" ry="1.8"/>
</g>
<!-- 0&#45;&#45;3 -->
<g id="edge3" class="edge"><title>0&#45;&#45;3</title>
<path fill="none" stroke="black" d="M67.3591,-84.4194C68.4537,-96.2203 74.328,-159.55 75.4198,-171.32"/>
</g>
<!-- 4 -->
<g id="node5" class="node"><title>4</title>
<ellipse fill="black" stroke="black" cx="123.105" cy="-149.051" rx="1.8" ry="1.8"/>
</g>
<!-- 0&#45;&#45;4 -->
<g id="edge4" class="edge"><title>0&#45;&#45;4</title>
<path fill="none" stroke="black" d="M68.5657,-84.1699C76.2353,-93.2939 113.505,-137.631 121.566,-147.22"/>
</g>
<!-- 5 -->
<g id="node6" class="node"><title>5</title>
<ellipse fill="black" stroke="black" cx="1.8" cy="-129.239" rx="1.8" ry="1.8"/>
</g>
<!-- 0&#45;&#45;5 -->
<g id="edge5" class="edge"><title>0&#45;&#45;5</title>
<path fill="none" stroke="black" d="M65.5672,-83.6802C56.5999,-90.087 13.0246,-121.22 3.59982,-127.954"/>
</g>
<!-- 6 -->
<g id="node7" class="node"><title>6</title>
<ellipse fill="black" stroke="black" cx="5.73232" cy="-49.396" rx="1.8" ry="1.8"/>
</g>
<!-- 0&#45;&#45;6 -->
<g id="edge6" class="edge"><title>0&#45;&#45;6</title>
<path fill="none" stroke="black" d="M65.4105,-81.5697C56.437,-76.7319 16.11,-54.9908 7.39587,-50.2929"/>
</g>
<!-- 7 -->
<g id="node8" class="node"><title>7</title>
<ellipse fill="black" stroke="black" cx="142.008" cy="-66.249" rx="1.8" ry="1.8"/>
</g>
<!-- 0&#45;&#45;7 -->
<g id="edge7" class="edge"><title>0&#45;&#45;7</title>
<path fill="none" stroke="black" d="M69.033,-82.1231C79.3851,-79.8712 130.04,-68.8522 140.223,-66.6372"/>
</g>
<!-- 8 -->
<g id="node9" class="node"><title>8</title>
<ellipse fill="black" stroke="black" cx="78.5763" cy="-1.8" rx="1.8" ry="1.8"/>
</g>
<!-- 0&#45;&#45;8 -->
<g id="edge8" class="edge"><title>0&#45;&#45;8</title>
<path fill="none" stroke="black" d="M67.465,-80.53C69.0412,-69.3615 76.7541,-14.7113 78.3046,-3.72572"/>
</g>
<!-- 1&#45;&#45;2 -->
<g id="edge9" class="edge"><title>1&#45;&#45;2</title>
<path fill="none" stroke="black" d="M71.0859,-115.259C65.8374,-122.935 44.1876,-154.596 38.8571,-162.391"/>
</g>
<!-- 1&#45;&#45;3 -->
<g id="edge10" class="edge"><title>1&#45;&#45;3</title>
<path fill="none" stroke="black" d="M72.3478,-115.561C72.8577,-124.614 74.961,-161.957 75.4789,-171.151"/>
</g>
<!-- 1&#45;&#45;4 -->
<g id="edge11" class="edge"><title>1&#45;&#45;4</title>
<path fill="none" stroke="black" d="M73.9286,-114.758C81.6518,-120.143 113.51,-142.36 121.354,-147.83"/>
</g>
<!-- 1&#45;&#45;5 -->
<g id="edge12" class="edge"><title>1&#45;&#45;5</title>
<path fill="none" stroke="black" d="M70.204,-114.029C59.9184,-116.316 13.6951,-126.594 3.70679,-128.815"/>
</g>
<!-- 1&#45;&#45;6 -->
<g id="edge13" class="edge"><title>1&#45;&#45;6</title>
<path fill="none" stroke="black" d="M70.5922,-111.991C61.3112,-103.034 15.5833,-58.903 7.09089,-50.7071"/>
</g>
<!-- 1&#45;&#45;7 -->
<g id="edge14" class="edge"><title>1&#45;&#45;7</title>
<path fill="none" stroke="black" d="M73.9608,-112.407C83.5299,-105.916 130.03,-74.374 140.087,-67.5518"/>
</g>
<!-- 2&#45;&#45;3 -->
<g id="edge15" class="edge"><title>2&#45;&#45;3</title>
<path fill="none" stroke="black" d="M39.7063,-164.619C46.3533,-166.209 67.3328,-171.227 73.7266,-172.757"/>
</g>
<!-- 2&#45;&#45;4 -->
<g id="edge16" class="edge"><title>2&#45;&#45;4</title>
<path fill="none" stroke="black" d="M39.4517,-163.817C50.5706,-161.854 110.24,-151.322 121.33,-149.365"/>
</g>
<!-- 2&#45;&#45;5 -->
<g id="edge17" class="edge"><title>2&#45;&#45;5</title>
<path fill="none" stroke="black" d="M36.126,-162.632C30.2262,-156.893 9.11606,-136.357 3.2955,-130.694"/>
</g>
<!-- 3&#45;&#45;4 -->
<g id="edge18" class="edge"><title>3&#45;&#45;4</title>
<path fill="none" stroke="black" d="M77.636,-172.166C85.451,-168.193 113.414,-153.978 121.124,-150.058"/>
</g>
<!-- 3&#45;&#45;5 -->
<g id="edge19" class="edge"><title>3&#45;&#45;5</title>
<path fill="none" stroke="black" d="M73.7704,-172.117C63.5608,-166.034 13.6028,-136.271 3.56038,-130.288"/>
</g>
</g>
</svg>
