<?xml version="1.0" encoding="UTF-8" standalone="no"?>
<!DOCTYPE svg PUBLIC "-//W3C//DTD SVG 1.1//EN"
 "http://www.w3.org/Graphics/SVG/1.1/DTD/svg11.dtd">
<!-- Generated by graphviz version 2.36.0 (20140111.2315)
 -->
<!-- Title: %3 Pages: 1 -->
<svg width="185pt" height="159pt"
 viewBox="0.00 0.00 184.67 159.35" xmlns="http://www.w3.org/2000/svg" xmlns:xlink="http://www.w3.org/1999/xlink">
<g id="graph0" class="graph" transform="scale(1 1) rotate(0) translate(4 155.345)">
<title>%3</title>
<!-- 0 -->
<g id="node1" class="node"><title>0</title>
<ellipse fill="black" stroke="black" cx="74.8805" cy="-130.297" rx="1.8" ry="1.8"/>
</g>
<!-- 1 -->
<g id="node2" class="node"><title>1</title>
<ellipse fill="black" stroke="black" cx="68.4823" cy="-77.6787" rx="1.8" ry="1.8"/>
</g>
<!-- 0&#45;&#45;1 -->
<g id="edge1" class="edge"><title>0&#45;&#45;1</title>
<path fill="none" stroke="black" d="M74.6056,-128.036C73.5532,-119.381 69.7874,-88.4116 68.7491,-79.8726"/>
</g>
<!-- 2 -->
<g id="node3" class="node"><title>2</title>
<ellipse fill="black" stroke="black" cx="123.556" cy="-65.793" rx="1.8" ry="1.8"/>
</g>
<!-- 0&#45;&#45;2 -->
<g id="edge2" class="edge"><title>0&#45;&#45;2</title>
<path fill="none" stroke="black" d="M76.0838,-128.703C82.7595,-119.856 115.2,-76.8667 122.216,-67.5686"/>
</g>
<!-- 3 -->
<g id="node4" class="node"><title>3</title>
<ellipse fill="black" stroke="black" cx="156.434" cy="-99.2347" rx="1.8" ry="1.8"/>
</g>
<!-- 0&#45;&#45;3 -->
<g id="edge3" class="edge"><title>0&#45;&#45;3</title>
<path fill="none" stroke="black" d="M76.5839,-129.648C87.1973,-125.606 144.154,-103.912 154.74,-99.8799"/>
</g>
<!-- 5 -->
<g id="node5" class="node"><title>5</title>
<ellipse fill="black" stroke="black" cx="122.592" cy="-149.545" rx="1.8" ry="1.8"/>
</g>
<!-- 0&#45;&#45;5 -->
<g id="edge4" class="edge"><title>0&#45;&#45;5</title>
<path fill="none" stroke="black" d="M76.9306,-131.124C84.7786,-134.29 112.86,-145.619 120.602,-148.743"/>
</g>
<!-- 7 -->
<g id="node6" class="node"><title>7</title>
<ellipse fill="black" stroke="black" cx="1.8" cy="-112.842" rx="1.8" ry="1.8"/>
</g>
<!-- 0&#45;&#45;7 -->
<g id="edge5" class="edge"><title>0&#45;&#45;7</title>
<path fill="none" stroke="black" d="M73.074,-129.866C63.0511,-127.472 14.346,-115.838 3.81171,-113.322"/>
</g>
<!-- 1&#45;&#45;3 -->
<g id="edge6" class="edge"><title>1&#45;&#45;3</title>
<path fill="none" stroke="black" d="M70.3193,-78.1289C81.7653,-80.9342 143.19,-95.9888 154.607,-98.7869"/>
</g>
<!-- 1&#45;&#45;5 -->
<g id="edge7" class="edge"><title>1&#45;&#45;5</title>
<path fill="none" stroke="black" d="M69.6125,-79.1797C76.6543,-88.5325 114.444,-138.724 121.468,-148.053"/>
</g>
<!-- 1&#45;&#45;7 -->
<g id="edge9" class="edge"><title>1&#45;&#45;7</title>
<path fill="none" stroke="black" d="M66.834,-78.5479C57.6886,-83.3705 13.2476,-106.805 3.63558,-111.874"/>
</g>
<!-- 6 -->
<g id="node7" class="node"><title>6</title>
<ellipse fill="black" stroke="black" cx="97.2102" cy="-1.8" rx="1.8" ry="1.8"/>
</g>
<!-- 1&#45;&#45;6 -->
<g id="edge8" class="edge"><title>1&#45;&#45;6</title>
<path fill="none" stroke="black" d="M69.1925,-75.803C73.167,-65.305 92.6154,-13.9361 96.5248,-3.6101"/>
</g>
<!-- 2&#45;&#45;3 -->
<g id="edge10" class="edge"><title>2&#45;&#45;3</title>
<path fill="none" stroke="black" d="M124.969,-67.2299C130.377,-72.7307 149.727,-92.4134 155.063,-97.8403"/>
</g>
<!-- 2&#45;&#45;5 -->
<g id="edge12" class="edge"><title>2&#45;&#45;5</title>
<path fill="none" stroke="black" d="M123.532,-67.8633C123.399,-79.4506 122.746,-136.15 122.615,-147.548"/>
</g>
<!-- 2&#45;&#45;6 -->
<g id="edge13" class="edge"><title>2&#45;&#45;6</title>
<path fill="none" stroke="black" d="M122.796,-63.9468C118.949,-54.6021 101.659,-12.607 97.9234,-3.53237"/>
</g>
<!-- 4 -->
<g id="node8" class="node"><title>4</title>
<ellipse fill="black" stroke="black" cx="174.873" cy="-20.6932" rx="1.8" ry="1.8"/>
</g>
<!-- 2&#45;&#45;4 -->
<g id="edge11" class="edge"><title>2&#45;&#45;4</title>
<path fill="none" stroke="black" d="M125.263,-64.2924C133.194,-57.3228 166.349,-28.1843 173.507,-21.8937"/>
</g>
<!-- 3&#45;&#45;4 -->
<g id="edge14" class="edge"><title>3&#45;&#45;4</title>
<path fill="none" stroke="black" d="M156.89,-97.2932C159.441,-86.4268 171.924,-33.2552 174.433,-22.5668"/>
</g>
<!-- 4&#45;&#45;6 -->
<g id="edge15" class="edge"><title>4&#45;&#45;6</title>
<path fill="none" stroke="black" d="M172.954,-20.2262C162.209,-17.6123 109.632,-4.8218 99.0628,-2.2507"/>
</g>
</g>
</svg>
