<?xml version="1.0" encoding="UTF-8" standalone="no"?>
<!DOCTYPE svg PUBLIC "-//W3C//DTD SVG 1.1//EN"
 "http://www.w3.org/Graphics/SVG/1.1/DTD/svg11.dtd">
<!-- Generated by graphviz version 2.36.0 (20140111.2315)
 -->
<!-- Title: %3 Pages: 1 -->
<svg width="223pt" height="155pt"
 viewBox="0.00 0.00 223.31 154.63" xmlns="http://www.w3.org/2000/svg" xmlns:xlink="http://www.w3.org/1999/xlink">
<g id="graph0" class="graph" transform="scale(1 1) rotate(0) translate(4 150.625)">
<title>%3</title>
<!-- 0 -->
<g id="node1" class="node"><title>0</title>
<ellipse fill="black" stroke="black" cx="127.765" cy="-55.2517" rx="1.8" ry="1.8"/>
</g>
<!-- 1 -->
<g id="node2" class="node"><title>1</title>
<ellipse fill="black" stroke="black" cx="78.0602" cy="-91.0868" rx="1.8" ry="1.8"/>
</g>
<!-- 0&#45;&#45;1 -->
<g id="edge1" class="edge"><title>0&#45;&#45;1</title>
<path fill="none" stroke="black" d="M126.111,-56.444C118.564,-61.8847 87.4355,-84.3276 79.7712,-89.8533"/>
</g>
<!-- 2 -->
<g id="node3" class="node"><title>2</title>
<ellipse fill="black" stroke="black" cx="162.145" cy="-99.9894" rx="1.8" ry="1.8"/>
</g>
<!-- 0&#45;&#45;2 -->
<g id="edge2" class="edge"><title>0&#45;&#45;2</title>
<path fill="none" stroke="black" d="M128.908,-56.7402C134.128,-63.5326 155.66,-91.551 160.962,-98.4495"/>
</g>
<!-- 3 -->
<g id="node4" class="node"><title>3</title>
<ellipse fill="black" stroke="black" cx="41.9375" cy="-43.6081" rx="1.8" ry="1.8"/>
</g>
<!-- 0&#45;&#45;3 -->
<g id="edge3" class="edge"><title>0&#45;&#45;3</title>
<path fill="none" stroke="black" d="M125.972,-55.0085C114.899,-53.5063 55.8909,-45.5011 44.0192,-43.8905"/>
</g>
<!-- 4 -->
<g id="node5" class="node"><title>4</title>
<ellipse fill="black" stroke="black" cx="213.515" cy="-67.8779" rx="1.8" ry="1.8"/>
</g>
<!-- 0&#45;&#45;4 -->
<g id="edge4" class="edge"><title>0&#45;&#45;4</title>
<path fill="none" stroke="black" d="M129.556,-55.5154C140.715,-57.1586 200.603,-65.9767 211.734,-67.6156"/>
</g>
<!-- 5 -->
<g id="node6" class="node"><title>5</title>
<ellipse fill="black" stroke="black" cx="119.515" cy="-144.825" rx="1.8" ry="1.8"/>
</g>
<!-- 0&#45;&#45;5 -->
<g id="edge5" class="edge"><title>0&#45;&#45;5</title>
<path fill="none" stroke="black" d="M127.592,-57.1226C126.519,-68.7797 120.758,-131.337 119.687,-142.964"/>
</g>
<!-- 6 -->
<g id="node7" class="node"><title>6</title>
<ellipse fill="black" stroke="black" cx="81.4651" cy="-1.8" rx="1.8" ry="1.8"/>
</g>
<!-- 0&#45;&#45;6 -->
<g id="edge6" class="edge"><title>0&#45;&#45;6</title>
<path fill="none" stroke="black" d="M126.224,-53.4733C119.069,-45.213 89.1555,-10.6784 82.6975,-3.22281"/>
</g>
<!-- 7 -->
<g id="node8" class="node"><title>7</title>
<ellipse fill="black" stroke="black" cx="188.242" cy="-17.0435" rx="1.8" ry="1.8"/>
</g>
<!-- 0&#45;&#45;7 -->
<g id="edge7" class="edge"><title>0&#45;&#45;7</title>
<path fill="none" stroke="black" d="M129.509,-54.1494C138.341,-48.57 178.029,-23.496 186.605,-18.0778"/>
</g>
<!-- 1&#45;&#45;2 -->
<g id="edge8" class="edge"><title>1&#45;&#45;2</title>
<path fill="none" stroke="black" d="M80.1387,-91.3069C91.772,-92.5386 148.696,-98.5656 160.139,-99.7771"/>
</g>
<!-- 1&#45;&#45;3 -->
<g id="edge9" class="edge"><title>1&#45;&#45;3</title>
<path fill="none" stroke="black" d="M76.8584,-89.5071C71.374,-82.2986 48.7509,-52.5636 43.1809,-45.2424"/>
</g>
<!-- 1&#45;&#45;5 -->
<g id="edge10" class="edge"><title>1&#45;&#45;5</title>
<path fill="none" stroke="black" d="M79.4395,-92.8748C85.8459,-101.179 112.63,-135.899 118.412,-143.395"/>
</g>
<!-- 1&#45;&#45;6 -->
<g id="edge11" class="edge"><title>1&#45;&#45;6</title>
<path fill="none" stroke="black" d="M78.1313,-89.2219C78.5744,-77.6021 80.9524,-15.2445 81.3944,-3.65462"/>
</g>
<!-- 8 -->
<g id="node9" class="node"><title>8</title>
<ellipse fill="black" stroke="black" cx="1.8" cy="-104.746" rx="1.8" ry="1.8"/>
</g>
<!-- 1&#45;&#45;8 -->
<g id="edge12" class="edge"><title>1&#45;&#45;8</title>
<path fill="none" stroke="black" d="M76.1751,-91.4245C65.6244,-93.3143 13.9972,-102.562 3.6192,-104.421"/>
</g>
<!-- 2&#45;&#45;4 -->
<g id="edge13" class="edge"><title>2&#45;&#45;4</title>
<path fill="none" stroke="black" d="M163.854,-98.921C171.654,-94.0457 203.825,-73.9348 211.747,-68.9833"/>
</g>
<!-- 2&#45;&#45;5 -->
<g id="edge14" class="edge"><title>2&#45;&#45;5</title>
<path fill="none" stroke="black" d="M160.727,-101.481C154.254,-108.288 127.556,-136.368 120.983,-143.282"/>
</g>
<!-- 2&#45;&#45;7 -->
<g id="edge15" class="edge"><title>2&#45;&#45;7</title>
<path fill="none" stroke="black" d="M162.69,-98.257C166.086,-87.4624 184.313,-29.5332 187.7,-18.7664"/>
</g>
<!-- 3&#45;&#45;6 -->
<g id="edge16" class="edge"><title>3&#45;&#45;6</title>
<path fill="none" stroke="black" d="M43.2526,-42.2171C49.2539,-35.8695 74.0094,-9.68586 80.1045,-3.23913"/>
</g>
<!-- 3&#45;&#45;8 -->
<g id="edge17" class="edge"><title>3&#45;&#45;8</title>
<path fill="none" stroke="black" d="M40.9453,-45.1194C35.4405,-53.5044 8.69056,-94.2505 2.90487,-103.063"/>
</g>
<!-- 4&#45;&#45;7 -->
<g id="edge18" class="edge"><title>4&#45;&#45;7</title>
<path fill="none" stroke="black" d="M212.674,-66.1866C208.837,-58.4686 193.009,-26.6319 189.112,-18.7933"/>
</g>
</g>
</svg>
