<?xml version="1.0" encoding="UTF-8" standalone="no"?>
<!DOCTYPE svg PUBLIC "-//W3C//DTD SVG 1.1//EN"
 "http://www.w3.org/Graphics/SVG/1.1/DTD/svg11.dtd">
<!-- Generated by graphviz version 2.36.0 (20140111.2315)
 -->
<!-- Title: %3 Pages: 1 -->
<svg width="152pt" height="250pt"
 viewBox="0.00 0.00 152.03 250.29" xmlns="http://www.w3.org/2000/svg" xmlns:xlink="http://www.w3.org/1999/xlink">
<g id="graph0" class="graph" transform="scale(1 1) rotate(0) translate(4 246.289)">
<title>%3</title>
<!-- 0 -->
<g id="node1" class="node"><title>0</title>
<ellipse fill="black" stroke="black" cx="20.7812" cy="-132.539" rx="1.8" ry="1.8"/>
</g>
<!-- 1 -->
<g id="node2" class="node"><title>1</title>
<ellipse fill="black" stroke="black" cx="98.9158" cy="-178.958" rx="1.8" ry="1.8"/>
</g>
<!-- 0&#45;&#45;1 -->
<g id="edge1" class="edge"><title>0&#45;&#45;1</title>
<path fill="none" stroke="black" d="M22.4132,-133.509C32.5816,-139.55 87.1505,-171.968 97.2928,-177.994"/>
</g>
<!-- 2 -->
<g id="node3" class="node"><title>2</title>
<ellipse fill="black" stroke="black" cx="34.8199" cy="-69.0214" rx="1.8" ry="1.8"/>
</g>
<!-- 0&#45;&#45;2 -->
<g id="edge2" class="edge"><title>0&#45;&#45;2</title>
<path fill="none" stroke="black" d="M21.1862,-130.707C23.2003,-121.594 32.128,-81.2007 34.3285,-71.2448"/>
</g>
<!-- 3 -->
<g id="node4" class="node"><title>3</title>
<ellipse fill="black" stroke="black" cx="47.0563" cy="-160.89" rx="1.8" ry="1.8"/>
</g>
<!-- 0&#45;&#45;3 -->
<g id="edge3" class="edge"><title>0&#45;&#45;3</title>
<path fill="none" stroke="black" d="M22.1939,-134.063C26.7987,-139.032 41.3328,-154.715 45.7623,-159.494"/>
</g>
<!-- 4 -->
<g id="node5" class="node"><title>4</title>
<ellipse fill="black" stroke="black" cx="97.1069" cy="-88.2768" rx="1.8" ry="1.8"/>
</g>
<!-- 0&#45;&#45;4 -->
<g id="edge4" class="edge"><title>0&#45;&#45;4</title>
<path fill="none" stroke="black" d="M22.3754,-131.615C32.3085,-125.854 85.614,-94.9416 95.5215,-89.1961"/>
</g>
<!-- 5 -->
<g id="node6" class="node"><title>5</title>
<ellipse fill="black" stroke="black" cx="108.219" cy="-124.918" rx="1.8" ry="1.8"/>
</g>
<!-- 0&#45;&#45;5 -->
<g id="edge5" class="edge"><title>0&#45;&#45;5</title>
<path fill="none" stroke="black" d="M22.6075,-132.38C33.9867,-131.388 95.0533,-126.065 106.403,-125.076"/>
</g>
<!-- 6 -->
<g id="node7" class="node"><title>6</title>
<ellipse fill="black" stroke="black" cx="61.2251" cy="-114.927" rx="1.8" ry="1.8"/>
</g>
<!-- 0&#45;&#45;6 -->
<g id="edge6" class="edge"><title>0&#45;&#45;6</title>
<path fill="none" stroke="black" d="M22.519,-131.782C29.1717,-128.885 52.9755,-118.52 59.5388,-115.662"/>
</g>
<!-- 1&#45;&#45;3 -->
<g id="edge7" class="edge"><title>1&#45;&#45;3</title>
<path fill="none" stroke="black" d="M97.1903,-178.357C89.3167,-175.614 56.8381,-164.298 48.8415,-161.512"/>
</g>
<!-- 1&#45;&#45;4 -->
<g id="edge8" class="edge"><title>1&#45;&#45;4</title>
<path fill="none" stroke="black" d="M98.878,-177.064C98.6426,-165.263 97.3793,-101.931 97.1445,-90.1603"/>
</g>
<!-- 1&#45;&#45;5 -->
<g id="edge9" class="edge"><title>1&#45;&#45;5</title>
<path fill="none" stroke="black" d="M99.2254,-177.16C100.638,-168.955 106.465,-135.111 107.899,-126.778"/>
</g>
<!-- 1&#45;&#45;6 -->
<g id="edge10" class="edge"><title>1&#45;&#45;6</title>
<path fill="none" stroke="black" d="M97.9841,-177.375C92.8149,-168.594 67.6956,-125.92 62.2626,-116.69"/>
</g>
<!-- 7 -->
<g id="node8" class="node"><title>7</title>
<ellipse fill="black" stroke="black" cx="142.235" cy="-240.489" rx="1.8" ry="1.8"/>
</g>
<!-- 1&#45;&#45;7 -->
<g id="edge11" class="edge"><title>1&#45;&#45;7</title>
<path fill="none" stroke="black" d="M99.9866,-180.479C105.928,-188.918 134.798,-229.926 141.042,-238.795"/>
</g>
<!-- 2&#45;&#45;3 -->
<g id="edge12" class="edge"><title>2&#45;&#45;3</title>
<path fill="none" stroke="black" d="M35.0754,-70.9402C36.6679,-82.8961 45.2138,-147.057 46.8022,-158.982"/>
</g>
<!-- 2&#45;&#45;4 -->
<g id="edge13" class="edge"><title>2&#45;&#45;4</title>
<path fill="none" stroke="black" d="M36.6168,-69.5769C45.5529,-72.3394 85.1635,-84.5846 94.9266,-87.6027"/>
</g>
<!-- 2&#45;&#45;5 -->
<g id="edge14" class="edge"><title>2&#45;&#45;5</title>
<path fill="none" stroke="black" d="M36.3529,-70.1889C45.9052,-77.4633 97.1672,-116.501 106.695,-123.757"/>
</g>
<!-- 2&#45;&#45;6 -->
<g id="edge15" class="edge"><title>2&#45;&#45;6</title>
<path fill="none" stroke="black" d="M35.9545,-70.9939C40.2979,-78.5449 55.8391,-105.563 60.1241,-113.013"/>
</g>
<!-- 8 -->
<g id="node9" class="node"><title>8</title>
<ellipse fill="black" stroke="black" cx="1.8" cy="-1.8" rx="1.8" ry="1.8"/>
</g>
<!-- 2&#45;&#45;8 -->
<g id="edge16" class="edge"><title>2&#45;&#45;8</title>
<path fill="none" stroke="black" d="M34.0036,-67.3597C29.475,-58.1404 7.46866,-13.3402 2.70895,-3.65042"/>
</g>
<!-- 3&#45;&#45;4 -->
<g id="edge17" class="edge"><title>3&#45;&#45;4</title>
<path fill="none" stroke="black" d="M48.1017,-159.374C54.6153,-149.924 89.5704,-99.2107 96.0673,-89.785"/>
</g>
<!-- 3&#45;&#45;5 -->
<g id="edge18" class="edge"><title>3&#45;&#45;5</title>
<path fill="none" stroke="black" d="M48.8209,-159.853C57.7524,-154.6 97.8904,-130.993 106.564,-125.892"/>
</g>
<!-- 3&#45;&#45;6 -->
<g id="edge19" class="edge"><title>3&#45;&#45;6</title>
<path fill="none" stroke="black" d="M47.6652,-158.915C49.9958,-151.355 58.335,-124.303 60.6343,-116.844"/>
</g>
<!-- 4&#45;&#45;5 -->
<g id="edge20" class="edge"><title>4&#45;&#45;5</title>
<path fill="none" stroke="black" d="M97.7044,-90.2467C99.6519,-96.6683 105.799,-116.936 107.672,-123.113"/>
</g>
<!-- 4&#45;&#45;6 -->
<g id="edge21" class="edge"><title>4&#45;&#45;6</title>
<path fill="none" stroke="black" d="M95.5651,-89.4219C89.6629,-93.8056 68.5442,-109.491 62.7212,-113.816"/>
</g>
<!-- 5&#45;&#45;6 -->
<g id="edge22" class="edge"><title>5&#45;&#45;6</title>
<path fill="none" stroke="black" d="M106.2,-124.489C98.4701,-122.845 70.8109,-116.965 63.1846,-115.344"/>
</g>
</g>
</svg>
