<?xml version="1.0" encoding="UTF-8" standalone="no"?>
<!DOCTYPE svg PUBLIC "-//W3C//DTD SVG 1.1//EN"
 "http://www.w3.org/Graphics/SVG/1.1/DTD/svg11.dtd">
<!-- Generated by graphviz version 2.36.0 (20140111.2315)
 -->
<!-- Title: %3 Pages: 1 -->
<svg width="201pt" height="216pt"
 viewBox="0.00 0.00 200.92 215.75" xmlns="http://www.w3.org/2000/svg" xmlns:xlink="http://www.w3.org/1999/xlink">
<g id="graph0" class="graph" transform="scale(1 1) rotate(0) translate(4 211.748)">
<title>%3</title>
<!-- 0 -->
<g id="node1" class="node"><title>0</title>
<ellipse fill="black" stroke="black" cx="50.7348" cy="-139.948" rx="1.8" ry="1.8"/>
</g>
<!-- 1 -->
<g id="node2" class="node"><title>1</title>
<ellipse fill="black" stroke="black" cx="130.622" cy="-123.756" rx="1.8" ry="1.8"/>
</g>
<!-- 0&#45;&#45;1 -->
<g id="edge1" class="edge"><title>0&#45;&#45;1</title>
<path fill="none" stroke="black" d="M52.7096,-139.547C63.7622,-137.307 117.845,-126.345 128.717,-124.142"/>
</g>
<!-- 2 -->
<g id="node3" class="node"><title>2</title>
<ellipse fill="black" stroke="black" cx="96.3195" cy="-71.7821" rx="1.8" ry="1.8"/>
</g>
<!-- 0&#45;&#45;2 -->
<g id="edge2" class="edge"><title>0&#45;&#45;2</title>
<path fill="none" stroke="black" d="M51.8616,-138.263C58.1135,-128.914 88.4938,-83.4844 95.0647,-73.6585"/>
</g>
<!-- 3 -->
<g id="node4" class="node"><title>3</title>
<ellipse fill="black" stroke="black" cx="109.514" cy="-153.101" rx="1.8" ry="1.8"/>
</g>
<!-- 0&#45;&#45;3 -->
<g id="edge3" class="edge"><title>0&#45;&#45;3</title>
<path fill="none" stroke="black" d="M52.6905,-140.385C61.6148,-142.382 98.4273,-150.62 107.491,-152.648"/>
</g>
<!-- 4 -->
<g id="node5" class="node"><title>4</title>
<ellipse fill="black" stroke="black" cx="61.2992" cy="-81.5724" rx="1.8" ry="1.8"/>
</g>
<!-- 0&#45;&#45;4 -->
<g id="edge4" class="edge"><title>0&#45;&#45;4</title>
<path fill="none" stroke="black" d="M51.0863,-138.005C52.6902,-129.142 59.3065,-92.5831 60.9355,-83.5818"/>
</g>
<!-- 5 -->
<g id="node6" class="node"><title>5</title>
<ellipse fill="black" stroke="black" cx="81.7201" cy="-205.948" rx="1.8" ry="1.8"/>
</g>
<!-- 0&#45;&#45;5 -->
<g id="edge5" class="edge"><title>0&#45;&#45;5</title>
<path fill="none" stroke="black" d="M51.5007,-141.579C55.7503,-150.631 76.4007,-194.617 80.8672,-204.131"/>
</g>
<!-- 6 -->
<g id="node7" class="node"><title>6</title>
<ellipse fill="black" stroke="black" cx="1.8" cy="-85.3645" rx="1.8" ry="1.8"/>
</g>
<!-- 0&#45;&#45;6 -->
<g id="edge6" class="edge"><title>0&#45;&#45;6</title>
<path fill="none" stroke="black" d="M49.5252,-138.598C42.8138,-131.112 10.2008,-94.735 3.14704,-86.867"/>
</g>
<!-- 1&#45;&#45;2 -->
<g id="edge7" class="edge"><title>1&#45;&#45;2</title>
<path fill="none" stroke="black" d="M129.481,-122.026C124.273,-114.136 102.79,-81.5854 97.5003,-73.5712"/>
</g>
<!-- 1&#45;&#45;3 -->
<g id="edge8" class="edge"><title>1&#45;&#45;3</title>
<path fill="none" stroke="black" d="M129.488,-125.333C125.857,-130.381 114.542,-146.111 110.76,-151.369"/>
</g>
<!-- 1&#45;&#45;4 -->
<g id="edge9" class="edge"><title>1&#45;&#45;4</title>
<path fill="none" stroke="black" d="M128.909,-122.713C119.401,-116.928 73.2002,-88.8142 63.2075,-82.7336"/>
</g>
<!-- 1&#45;&#45;5 -->
<g id="edge10" class="edge"><title>1&#45;&#45;5</title>
<path fill="none" stroke="black" d="M129.601,-125.472C123.237,-136.169 89.0837,-193.571 82.7359,-204.24"/>
</g>
<!-- 7 -->
<g id="node8" class="node"><title>7</title>
<ellipse fill="black" stroke="black" cx="191.119" cy="-162.135" rx="1.8" ry="1.8"/>
</g>
<!-- 1&#45;&#45;7 -->
<g id="edge11" class="edge"><title>1&#45;&#45;7</title>
<path fill="none" stroke="black" d="M132.368,-124.863C141.202,-130.467 180.902,-155.654 189.481,-161.096"/>
</g>
<!-- 2&#45;&#45;3 -->
<g id="edge12" class="edge"><title>2&#45;&#45;3</title>
<path fill="none" stroke="black" d="M96.6457,-73.7922C98.4712,-85.0428 107.404,-140.094 109.2,-151.161"/>
</g>
<!-- 2&#45;&#45;4 -->
<g id="edge13" class="edge"><title>2&#45;&#45;4</title>
<path fill="none" stroke="black" d="M94.4367,-72.3085C88.4128,-73.9925 69.6406,-79.2404 63.3656,-80.9947"/>
</g>
<!-- 2&#45;&#45;6 -->
<g id="edge14" class="edge"><title>2&#45;&#45;6</title>
<path fill="none" stroke="black" d="M94.3453,-72.0658C82.0445,-73.8334 16.0325,-83.3193 3.76331,-85.0823"/>
</g>
<!-- 8 -->
<g id="node9" class="node"><title>8</title>
<ellipse fill="black" stroke="black" cx="81.5557" cy="-1.8" rx="1.8" ry="1.8"/>
</g>
<!-- 2&#45;&#45;8 -->
<g id="edge15" class="edge"><title>2&#45;&#45;8</title>
<path fill="none" stroke="black" d="M95.8936,-69.7632C93.7377,-59.5439 84.049,-13.6184 81.9554,-3.6945"/>
</g>
<!-- 3&#45;&#45;4 -->
<g id="edge16" class="edge"><title>3&#45;&#45;4</title>
<path fill="none" stroke="black" d="M108.507,-151.607C102.287,-142.378 69.1378,-93.2011 62.4686,-83.3072"/>
</g>
<!-- 3&#45;&#45;5 -->
<g id="edge17" class="edge"><title>3&#45;&#45;5</title>
<path fill="none" stroke="black" d="M108.59,-154.859C104.37,-162.882 86.9627,-195.98 82.6769,-204.129"/>
</g>
<!-- 3&#45;&#45;7 -->
<g id="edge18" class="edge"><title>3&#45;&#45;7</title>
<path fill="none" stroke="black" d="M111.532,-153.324C122.822,-154.574 178.067,-160.69 189.172,-161.92"/>
</g>
<!-- 4&#45;&#45;6 -->
<g id="edge19" class="edge"><title>4&#45;&#45;6</title>
<path fill="none" stroke="black" d="M59.3195,-81.6985C50.286,-82.2743 13.0228,-84.6492 3.8481,-85.2339"/>
</g>
<!-- 4&#45;&#45;8 -->
<g id="edge20" class="edge"><title>4&#45;&#45;8</title>
<path fill="none" stroke="black" d="M61.7999,-79.6004C64.6025,-68.5638 78.3159,-14.5589 81.0725,-3.70298"/>
</g>
</g>
</svg>
