<?xml version="1.0" encoding="UTF-8" standalone="no"?>
<!DOCTYPE svg PUBLIC "-//W3C//DTD SVG 1.1//EN"
 "http://www.w3.org/Graphics/SVG/1.1/DTD/svg11.dtd">
<!-- Generated by graphviz version 2.36.0 (20140111.2315)
 -->
<!-- Title: %3 Pages: 1 -->
<svg width="226pt" height="128pt"
 viewBox="0.00 0.00 225.60 127.60" xmlns="http://www.w3.org/2000/svg" xmlns:xlink="http://www.w3.org/1999/xlink">
<g id="graph0" class="graph" transform="scale(1 1) rotate(0) translate(4 123.6)">
<title>%3</title>
<!-- 0 -->
<g id="node1" class="node"><title>0</title>
<ellipse fill="black" stroke="black" cx="60.4967" cy="-58.0282" rx="1.8" ry="1.8"/>
</g>
<!-- 1 -->
<g id="node2" class="node"><title>1</title>
<ellipse fill="black" stroke="black" cx="145.074" cy="-34.3534" rx="1.8" ry="1.8"/>
</g>
<!-- 0&#45;&#45;1 -->
<g id="edge1" class="edge"><title>0&#45;&#45;1</title>
<path fill="none" stroke="black" d="M62.2632,-57.5337C73.2701,-54.4527 132.338,-37.9183 143.317,-34.8452"/>
</g>
<!-- 2 -->
<g id="node3" class="node"><title>2</title>
<ellipse fill="black" stroke="black" cx="100.102" cy="-15.2201" rx="1.8" ry="1.8"/>
</g>
<!-- 0&#45;&#45;2 -->
<g id="edge2" class="edge"><title>0&#45;&#45;2</title>
<path fill="none" stroke="black" d="M61.8144,-56.6039C67.8276,-50.1045 92.6318,-23.2946 98.7389,-16.6936"/>
</g>
<!-- 3 -->
<g id="node4" class="node"><title>3</title>
<ellipse fill="black" stroke="black" cx="144.54" cy="-82.7615" rx="1.8" ry="1.8"/>
</g>
<!-- 0&#45;&#45;3 -->
<g id="edge3" class="edge"><title>0&#45;&#45;3</title>
<path fill="none" stroke="black" d="M62.2521,-58.5448C73.1895,-61.7636 131.885,-79.0373 142.794,-82.2478"/>
</g>
<!-- 4 -->
<g id="node5" class="node"><title>4</title>
<ellipse fill="black" stroke="black" cx="99.265" cy="-100.143" rx="1.8" ry="1.8"/>
</g>
<!-- 0&#45;&#45;4 -->
<g id="edge4" class="edge"><title>0&#45;&#45;4</title>
<path fill="none" stroke="black" d="M61.7866,-59.4294C67.6726,-65.8235 91.9525,-92.1992 97.9305,-98.6932"/>
</g>
<!-- 6 -->
<g id="node6" class="node"><title>6</title>
<ellipse fill="black" stroke="black" cx="4.08335" cy="-117.8" rx="1.8" ry="1.8"/>
</g>
<!-- 0&#45;&#45;6 -->
<g id="edge5" class="edge"><title>0&#45;&#45;6</title>
<path fill="none" stroke="black" d="M59.1022,-59.5057C51.3652,-67.7033 13.7681,-107.538 5.63626,-116.154"/>
</g>
<!-- 7 -->
<g id="node7" class="node"><title>7</title>
<ellipse fill="black" stroke="black" cx="1.8" cy="-1.8" rx="1.8" ry="1.8"/>
</g>
<!-- 0&#45;&#45;7 -->
<g id="edge6" class="edge"><title>0&#45;&#45;7</title>
<path fill="none" stroke="black" d="M59.0458,-56.6383C50.9956,-48.9267 11.8767,-11.4529 3.41576,-3.34781"/>
</g>
<!-- 1&#45;&#45;2 -->
<g id="edge7" class="edge"><title>1&#45;&#45;2</title>
<path fill="none" stroke="black" d="M143.141,-33.5313C135.744,-30.384 109.275,-19.1228 101.977,-16.0179"/>
</g>
<!-- 1&#45;&#45;3 -->
<g id="edge8" class="edge"><title>1&#45;&#45;3</title>
<path fill="none" stroke="black" d="M145.051,-36.4334C144.963,-44.3961 144.649,-72.8874 144.562,-80.7431"/>
</g>
<!-- 1&#45;&#45;4 -->
<g id="edge9" class="edge"><title>1&#45;&#45;4</title>
<path fill="none" stroke="black" d="M143.941,-35.9797C137.659,-45.0026 107.129,-88.8485 100.526,-98.3319"/>
</g>
<!-- 5 -->
<g id="node8" class="node"><title>5</title>
<ellipse fill="black" stroke="black" cx="215.795" cy="-60.445" rx="1.8" ry="1.8"/>
</g>
<!-- 1&#45;&#45;5 -->
<g id="edge10" class="edge"><title>1&#45;&#45;5</title>
<path fill="none" stroke="black" d="M146.822,-34.9984C156.521,-38.5768 203.654,-55.9657 213.848,-59.7267"/>
</g>
<!-- 2&#45;&#45;3 -->
<g id="edge11" class="edge"><title>2&#45;&#45;3</title>
<path fill="none" stroke="black" d="M101.201,-16.8897C107.295,-26.1529 136.911,-71.1664 143.317,-80.9023"/>
</g>
<!-- 2&#45;&#45;4 -->
<g id="edge12" class="edge"><title>2&#45;&#45;4</title>
<path fill="none" stroke="black" d="M100.081,-17.3193C99.9657,-29.0686 99.3989,-86.5602 99.285,-98.1171"/>
</g>
<!-- 3&#45;&#45;5 -->
<g id="edge13" class="edge"><title>3&#45;&#45;5</title>
<path fill="none" stroke="black" d="M146.301,-82.2099C156.074,-79.1492 203.562,-64.2761 213.834,-61.0593"/>
</g>
</g>
</svg>
