<?xml version="1.0" encoding="UTF-8" standalone="no"?>
<!DOCTYPE svg PUBLIC "-//W3C//DTD SVG 1.1//EN"
 "http://www.w3.org/Graphics/SVG/1.1/DTD/svg11.dtd">
<!-- Generated by graphviz version 2.36.0 (20140111.2315)
 -->
<!-- Title: %3 Pages: 1 -->
<svg width="153pt" height="186pt"
 viewBox="0.00 0.00 152.92 186.14" xmlns="http://www.w3.org/2000/svg" xmlns:xlink="http://www.w3.org/1999/xlink">
<g id="graph0" class="graph" transform="scale(1 1) rotate(0) translate(4 182.135)">
<title>%3</title>
<!-- 0 -->
<g id="node1" class="node"><title>0</title>
<ellipse fill="black" stroke="black" cx="75.4196" cy="-80.5567" rx="1.8" ry="1.8"/>
</g>
<!-- 1 -->
<g id="node2" class="node"><title>1</title>
<ellipse fill="black" stroke="black" cx="48.5394" cy="-138.581" rx="1.8" ry="1.8"/>
</g>
<!-- 0&#45;&#45;1 -->
<g id="edge1" class="edge"><title>0&#45;&#45;1</title>
<path fill="none" stroke="black" d="M74.5252,-82.4873C70.4441,-91.2968 53.6095,-127.636 49.4646,-136.584"/>
</g>
<!-- 2 -->
<g id="node3" class="node"><title>2</title>
<ellipse fill="black" stroke="black" cx="105.623" cy="-111.535" rx="1.8" ry="1.8"/>
</g>
<!-- 0&#45;&#45;2 -->
<g id="edge2" class="edge"><title>0&#45;&#45;2</title>
<path fill="none" stroke="black" d="M76.7174,-81.8878C81.6855,-86.9834 99.4621,-105.216 104.364,-110.243"/>
</g>
<!-- 3 -->
<g id="node4" class="node"><title>3</title>
<ellipse fill="black" stroke="black" cx="88.3698" cy="-176.335" rx="1.8" ry="1.8"/>
</g>
<!-- 0&#45;&#45;3 -->
<g id="edge3" class="edge"><title>0&#45;&#45;3</title>
<path fill="none" stroke="black" d="M75.6901,-82.5572C77.3754,-95.0219 86.4198,-161.913 88.1008,-174.346"/>
</g>
<!-- 4 -->
<g id="node5" class="node"><title>4</title>
<ellipse fill="black" stroke="black" cx="8.43745" cy="-111.539" rx="1.8" ry="1.8"/>
</g>
<!-- 0&#45;&#45;4 -->
<g id="edge4" class="edge"><title>0&#45;&#45;4</title>
<path fill="none" stroke="black" d="M73.7638,-81.3226C64.5773,-85.5718 19.9366,-106.22 10.2813,-110.686"/>
</g>
<!-- 5 -->
<g id="node6" class="node"><title>5</title>
<ellipse fill="black" stroke="black" cx="135.335" cy="-149.387" rx="1.8" ry="1.8"/>
</g>
<!-- 0&#45;&#45;5 -->
<g id="edge5" class="edge"><title>0&#45;&#45;5</title>
<path fill="none" stroke="black" d="M76.671,-81.9943C84.4685,-90.9519 126.314,-139.023 134.091,-147.957"/>
</g>
<!-- 6 -->
<g id="node7" class="node"><title>6</title>
<ellipse fill="black" stroke="black" cx="1.8" cy="-61.0587" rx="1.8" ry="1.8"/>
</g>
<!-- 0&#45;&#45;6 -->
<g id="edge6" class="edge"><title>0&#45;&#45;6</title>
<path fill="none" stroke="black" d="M73.5998,-80.0747C63.4144,-77.3772 13.5748,-64.1773 3.55621,-61.5239"/>
</g>
<!-- 7 -->
<g id="node8" class="node"><title>7</title>
<ellipse fill="black" stroke="black" cx="143.123" cy="-44.2019" rx="1.8" ry="1.8"/>
</g>
<!-- 0&#45;&#45;7 -->
<g id="edge7" class="edge"><title>0&#45;&#45;7</title>
<path fill="none" stroke="black" d="M77.0932,-79.658C86.3786,-74.672 131.5,-50.4431 141.259,-45.2026"/>
</g>
<!-- 8 -->
<g id="node9" class="node"><title>8</title>
<ellipse fill="black" stroke="black" cx="93.7481" cy="-1.8" rx="1.8" ry="1.8"/>
</g>
<!-- 0&#45;&#45;8 -->
<g id="edge8" class="edge"><title>0&#45;&#45;8</title>
<path fill="none" stroke="black" d="M75.8727,-78.6099C78.4085,-67.7138 90.8166,-14.3964 93.3109,-3.67876"/>
</g>
<!-- 1&#45;&#45;2 -->
<g id="edge9" class="edge"><title>1&#45;&#45;2</title>
<path fill="none" stroke="black" d="M50.4386,-137.681C59.1054,-133.575 94.8558,-116.636 103.658,-112.466"/>
</g>
<!-- 1&#45;&#45;3 -->
<g id="edge10" class="edge"><title>1&#45;&#45;3</title>
<path fill="none" stroke="black" d="M49.8646,-139.837C55.9119,-145.569 80.857,-169.214 86.9988,-175.036"/>
</g>
<!-- 1&#45;&#45;4 -->
<g id="edge11" class="edge"><title>1&#45;&#45;4</title>
<path fill="none" stroke="black" d="M46.8162,-137.419C40.2199,-132.971 16.6173,-117.055 10.1095,-112.667"/>
</g>
<!-- 1&#45;&#45;5 -->
<g id="edge12" class="edge"><title>1&#45;&#45;5</title>
<path fill="none" stroke="black" d="M50.3522,-138.807C61.6479,-140.213 122.266,-147.76 133.533,-149.163"/>
</g>
<!-- 1&#45;&#45;6 -->
<g id="edge13" class="edge"><title>1&#45;&#45;6</title>
<path fill="none" stroke="black" d="M47.5631,-136.962C41.4805,-126.873 8.83787,-72.7318 2.77085,-62.669"/>
</g>
<!-- 2&#45;&#45;3 -->
<g id="edge14" class="edge"><title>2&#45;&#45;3</title>
<path fill="none" stroke="black" d="M105.125,-113.404C102.606,-122.867 91.2835,-165.392 88.8369,-174.581"/>
</g>
<!-- 2&#45;&#45;4 -->
<g id="edge15" class="edge"><title>2&#45;&#45;4</title>
<path fill="none" stroke="black" d="M103.593,-111.535C90.9453,-111.535 23.0713,-111.539 10.4561,-111.539"/>
</g>
<!-- 2&#45;&#45;5 -->
<g id="edge16" class="edge"><title>2&#45;&#45;5</title>
<path fill="none" stroke="black" d="M106.9,-113.161C111.787,-119.388 129.275,-141.666 134.097,-147.809"/>
</g>
<!-- 2&#45;&#45;7 -->
<g id="edge17" class="edge"><title>2&#45;&#45;7</title>
<path fill="none" stroke="black" d="M106.55,-109.87C111.693,-100.636 136.685,-55.7612 142.091,-46.0554"/>
</g>
<!-- 3&#45;&#45;5 -->
<g id="edge18" class="edge"><title>3&#45;&#45;5</title>
<path fill="none" stroke="black" d="M89.9324,-175.439C97.063,-171.347 126.477,-154.47 133.719,-150.315"/>
</g>
<!-- 4&#45;&#45;6 -->
<g id="edge19" class="edge"><title>4&#45;&#45;6</title>
<path fill="none" stroke="black" d="M8.15225,-109.37C7.06045,-101.067 3.15388,-71.3556 2.07675,-63.1635"/>
</g>
<!-- 7&#45;&#45;8 -->
<g id="edge20" class="edge"><title>7&#45;&#45;8</title>
<path fill="none" stroke="black" d="M141.48,-42.7911C133.984,-36.3534 103.061,-9.79786 95.4477,-3.25957"/>
</g>
</g>
</svg>
