<?xml version="1.0" encoding="UTF-8" standalone="no"?>
<!DOCTYPE svg PUBLIC "-//W3C//DTD SVG 1.1//EN"
 "http://www.w3.org/Graphics/SVG/1.1/DTD/svg11.dtd">
<!-- Generated by graphviz version 2.36.0 (20140111.2315)
 -->
<!-- Title: %3 Pages: 1 -->
<svg width="139pt" height="175pt"
 viewBox="0.00 0.00 139.20 174.99" xmlns="http://www.w3.org/2000/svg" xmlns:xlink="http://www.w3.org/1999/xlink">
<g id="graph0" class="graph" transform="scale(1 1) rotate(0) translate(4 170.992)">
<title>%3</title>
<!-- 0 -->
<g id="node1" class="node"><title>0</title>
<ellipse fill="black" stroke="black" cx="42.1717" cy="-76.3672" rx="1.8" ry="1.8"/>
</g>
<!-- 1 -->
<g id="node2" class="node"><title>1</title>
<ellipse fill="black" stroke="black" cx="96.665" cy="-141.703" rx="1.8" ry="1.8"/>
</g>
<!-- 0&#45;&#45;1 -->
<g id="edge1" class="edge"><title>0&#45;&#45;1</title>
<path fill="none" stroke="black" d="M43.5187,-77.9822C50.9924,-86.9429 87.3099,-130.486 95.1649,-139.904"/>
</g>
<!-- 2 -->
<g id="node3" class="node"><title>2</title>
<ellipse fill="black" stroke="black" cx="79.8968" cy="-89.8256" rx="1.8" ry="1.8"/>
</g>
<!-- 0&#45;&#45;2 -->
<g id="edge2" class="edge"><title>0&#45;&#45;2</title>
<path fill="none" stroke="black" d="M44.2,-77.0908C50.8115,-79.4494 71.6792,-86.8939 78.0389,-89.1627"/>
</g>
<!-- 3 -->
<g id="node4" class="node"><title>3</title>
<ellipse fill="black" stroke="black" cx="68.0911" cy="-165.192" rx="1.8" ry="1.8"/>
</g>
<!-- 0&#45;&#45;3 -->
<g id="edge3" class="edge"><title>0&#45;&#45;3</title>
<path fill="none" stroke="black" d="M42.7131,-78.2224C46.0862,-89.7821 64.1882,-151.817 67.5527,-163.347"/>
</g>
<!-- 4 -->
<g id="node5" class="node"><title>4</title>
<ellipse fill="black" stroke="black" cx="53.0375" cy="-123.747" rx="1.8" ry="1.8"/>
</g>
<!-- 0&#45;&#45;4 -->
<g id="edge4" class="edge"><title>0&#45;&#45;4</title>
<path fill="none" stroke="black" d="M42.6386,-78.403C44.4259,-86.1965 50.8211,-114.082 52.5844,-121.771"/>
</g>
<!-- 5 -->
<g id="node6" class="node"><title>5</title>
<ellipse fill="black" stroke="black" cx="16.5811" cy="-160.445" rx="1.8" ry="1.8"/>
</g>
<!-- 0&#45;&#45;5 -->
<g id="edge5" class="edge"><title>0&#45;&#45;5</title>
<path fill="none" stroke="black" d="M41.6372,-78.1232C38.3068,-89.0651 20.4344,-147.784 17.1126,-158.698"/>
</g>
<!-- 6 -->
<g id="node7" class="node"><title>6</title>
<ellipse fill="black" stroke="black" cx="1.8" cy="-116.58" rx="1.8" ry="1.8"/>
</g>
<!-- 0&#45;&#45;6 -->
<g id="edge6" class="edge"><title>0&#45;&#45;6</title>
<path fill="none" stroke="black" d="M40.8285,-77.7051C34.699,-83.8106 9.41493,-108.995 3.18968,-115.196"/>
</g>
<!-- 7 -->
<g id="node8" class="node"><title>7</title>
<ellipse fill="black" stroke="black" cx="129.403" cy="-97.5829" rx="1.8" ry="1.8"/>
</g>
<!-- 0&#45;&#45;7 -->
<g id="edge7" class="edge"><title>0&#45;&#45;7</title>
<path fill="none" stroke="black" d="M43.9936,-76.8103C55.346,-79.5713 116.268,-94.3883 127.591,-97.1422"/>
</g>
<!-- 8 -->
<g id="node9" class="node"><title>8</title>
<ellipse fill="black" stroke="black" cx="20.4547" cy="-1.8" rx="1.8" ry="1.8"/>
</g>
<!-- 0&#45;&#45;8 -->
<g id="edge8" class="edge"><title>0&#45;&#45;8</title>
<path fill="none" stroke="black" d="M41.6349,-74.5239C38.6303,-64.2074 23.9282,-13.7264 20.9728,-3.57881"/>
</g>
<!-- 1&#45;&#45;2 -->
<g id="edge9" class="edge"><title>1&#45;&#45;2</title>
<path fill="none" stroke="black" d="M96.1071,-139.977C93.5612,-132.1 83.0596,-99.6107 80.474,-91.6113"/>
</g>
<!-- 1&#45;&#45;3 -->
<g id="edge10" class="edge"><title>1&#45;&#45;3</title>
<path fill="none" stroke="black" d="M95.1287,-142.966C90.121,-147.082 74.3154,-160.075 69.4983,-164.035"/>
</g>
<!-- 1&#45;&#45;4 -->
<g id="edge11" class="edge"><title>1&#45;&#45;4</title>
<path fill="none" stroke="black" d="M94.7904,-140.931C87.6141,-137.978 61.9365,-127.409 54.8565,-124.495"/>
</g>
<!-- 1&#45;&#45;5 -->
<g id="edge12" class="edge"><title>1&#45;&#45;5</title>
<path fill="none" stroke="black" d="M94.6854,-142.166C83.6056,-144.759 29.3898,-157.447 18.4915,-159.998"/>
</g>
<!-- 1&#45;&#45;6 -->
<g id="edge13" class="edge"><title>1&#45;&#45;6</title>
<path fill="none" stroke="black" d="M94.6836,-141.178C82.3378,-137.909 16.0845,-120.363 3.77049,-117.102"/>
</g>
<!-- 1&#45;&#45;7 -->
<g id="edge14" class="edge"><title>1&#45;&#45;7</title>
<path fill="none" stroke="black" d="M97.7542,-140.235C102.725,-133.536 123.228,-105.905 128.276,-99.1016"/>
</g>
<!-- 2&#45;&#45;3 -->
<g id="edge15" class="edge"><title>2&#45;&#45;3</title>
<path fill="none" stroke="black" d="M79.605,-91.6886C77.9717,-102.116 69.9793,-153.138 68.3727,-163.394"/>
</g>
<!-- 2&#45;&#45;4 -->
<g id="edge16" class="edge"><title>2&#45;&#45;4</title>
<path fill="none" stroke="black" d="M78.7427,-91.2831C74.3246,-96.8628 58.5162,-116.828 54.1574,-122.332"/>
</g>
<!-- 2&#45;&#45;5 -->
<g id="edge17" class="edge"><title>2&#45;&#45;5</title>
<path fill="none" stroke="black" d="M78.5744,-91.3005C70.3344,-100.491 26.115,-149.811 17.8963,-158.978"/>
</g>
<!-- 2&#45;&#45;6 -->
<g id="edge18" class="edge"><title>2&#45;&#45;6</title>
<path fill="none" stroke="black" d="M77.9663,-90.4869C67.1615,-94.1885 14.2909,-112.301 3.66301,-115.942"/>
</g>
<!-- 2&#45;&#45;7 -->
<g id="edge19" class="edge"><title>2&#45;&#45;7</title>
<path fill="none" stroke="black" d="M82.024,-90.1589C90.1673,-91.4349 119.305,-96.0006 127.339,-97.2594"/>
</g>
<!-- 3&#45;&#45;4 -->
<g id="edge20" class="edge"><title>3&#45;&#45;4</title>
<path fill="none" stroke="black" d="M67.4443,-163.411C64.9681,-156.594 56.1081,-132.201 53.6651,-125.475"/>
</g>
<!-- 3&#45;&#45;5 -->
<g id="edge21" class="edge"><title>3&#45;&#45;5</title>
<path fill="none" stroke="black" d="M65.8778,-164.988C57.4049,-164.207 27.0879,-161.413 18.7288,-160.643"/>
</g>
<!-- 3&#45;&#45;6 -->
<g id="edge22" class="edge"><title>3&#45;&#45;6</title>
<path fill="none" stroke="black" d="M66.4524,-163.99C57.3607,-157.323 13.1805,-124.926 3.62481,-117.919"/>
</g>
<!-- 3&#45;&#45;7 -->
<g id="edge23" class="edge"><title>3&#45;&#45;7</title>
<path fill="none" stroke="black" d="M69.6067,-163.521C78.1631,-154.086 120.321,-107.598 128.151,-98.964"/>
</g>
<!-- 4&#45;&#45;5 -->
<g id="edge24" class="edge"><title>4&#45;&#45;5</title>
<path fill="none" stroke="black" d="M51.471,-125.324C45.4743,-131.36 24.0173,-152.959 18.1012,-158.914"/>
</g>
<!-- 4&#45;&#45;6 -->
<g id="edge25" class="edge"><title>4&#45;&#45;6</title>
<path fill="none" stroke="black" d="M50.8359,-123.439C42.4078,-122.26 12.2512,-118.042 3.93638,-116.879"/>
</g>
<!-- 4&#45;&#45;7 -->
<g id="edge26" class="edge"><title>4&#45;&#45;7</title>
<path fill="none" stroke="black" d="M54.9252,-123.1C65.4905,-119.48 117.189,-101.768 127.581,-98.207"/>
</g>
<!-- 5&#45;&#45;6 -->
<g id="edge27" class="edge"><title>5&#45;&#45;6</title>
<path fill="none" stroke="black" d="M15.946,-158.56C13.5146,-151.345 4.815,-125.528 2.41631,-118.409"/>
</g>
</g>
</svg>
