<?xml version="1.0" encoding="UTF-8" standalone="no"?>
<!DOCTYPE svg PUBLIC "-//W3C//DTD SVG 1.1//EN"
 "http://www.w3.org/Graphics/SVG/1.1/DTD/svg11.dtd">
<!-- Generated by graphviz version 2.36.0 (20140111.2315)
 -->
<!-- Title: %3 Pages: 1 -->
<svg width="165pt" height="160pt"
 viewBox="0.00 0.00 165.23 159.70" xmlns="http://www.w3.org/2000/svg" xmlns:xlink="http://www.w3.org/1999/xlink">
<g id="graph0" class="graph" transform="scale(1 1) rotate(0) translate(4 155.705)">
<title>%3</title>
<!-- 0 -->
<g id="node1" class="node"><title>0</title>
<ellipse fill="black" stroke="black" cx="79.8889" cy="-71.1549" rx="1.8" ry="1.8"/>
</g>
<!-- 1 -->
<g id="node2" class="node"><title>1</title>
<ellipse fill="black" stroke="black" cx="31.0702" cy="-106.81" rx="1.8" ry="1.8"/>
</g>
<!-- 0&#45;&#45;1 -->
<g id="edge1" class="edge"><title>0&#45;&#45;1</title>
<path fill="none" stroke="black" d="M78.2646,-72.3412C70.8527,-77.7545 40.2784,-100.084 32.7506,-105.582"/>
</g>
<!-- 2 -->
<g id="node3" class="node"><title>2</title>
<ellipse fill="black" stroke="black" cx="1.8" cy="-72.1888" rx="1.8" ry="1.8"/>
</g>
<!-- 0&#45;&#45;2 -->
<g id="edge2" class="edge"><title>0&#45;&#45;2</title>
<path fill="none" stroke="black" d="M77.9586,-71.1805C67.1549,-71.3235 14.2896,-72.0234 3.66283,-72.1641"/>
</g>
<!-- 3 -->
<g id="node4" class="node"><title>3</title>
<ellipse fill="black" stroke="black" cx="101.564" cy="-142.016" rx="1.8" ry="1.8"/>
</g>
<!-- 0&#45;&#45;3 -->
<g id="edge3" class="edge"><title>0&#45;&#45;3</title>
<path fill="none" stroke="black" d="M80.4247,-72.9066C83.3974,-82.6251 97.8431,-129.851 100.968,-140.066"/>
</g>
<!-- 4 -->
<g id="node5" class="node"><title>4</title>
<ellipse fill="black" stroke="black" cx="59.1513" cy="-1.8" rx="1.8" ry="1.8"/>
</g>
<!-- 0&#45;&#45;4 -->
<g id="edge4" class="edge"><title>0&#45;&#45;4</title>
<path fill="none" stroke="black" d="M79.2906,-69.1541C76.2624,-59.0263 62.6534,-13.5125 59.7127,-3.67752"/>
</g>
<!-- 5 -->
<g id="node6" class="node"><title>5</title>
<ellipse fill="black" stroke="black" cx="37.2077" cy="-149.905" rx="1.8" ry="1.8"/>
</g>
<!-- 0&#45;&#45;5 -->
<g id="edge5" class="edge"><title>0&#45;&#45;5</title>
<path fill="none" stroke="black" d="M78.9974,-72.7997C73.4429,-83.0483 43.6345,-138.047 38.0943,-148.269"/>
</g>
<!-- 6 -->
<g id="node7" class="node"><title>6</title>
<ellipse fill="black" stroke="black" cx="9.45594" cy="-26.1039" rx="1.8" ry="1.8"/>
</g>
<!-- 0&#45;&#45;6 -->
<g id="edge6" class="edge"><title>0&#45;&#45;6</title>
<path fill="none" stroke="black" d="M78.1478,-70.0413C68.488,-63.8626 21.5475,-33.838 11.3948,-27.344"/>
</g>
<!-- 7 -->
<g id="node8" class="node"><title>7</title>
<ellipse fill="black" stroke="black" cx="155.432" cy="-101.929" rx="1.8" ry="1.8"/>
</g>
<!-- 0&#45;&#45;7 -->
<g id="edge7" class="edge"><title>0&#45;&#45;7</title>
<path fill="none" stroke="black" d="M81.7563,-71.9156C92.2078,-76.1734 143.35,-97.0073 153.63,-101.195"/>
</g>
<!-- 8 -->
<g id="node9" class="node"><title>8</title>
<ellipse fill="black" stroke="black" cx="126.616" cy="-4.58385" rx="1.8" ry="1.8"/>
</g>
<!-- 0&#45;&#45;8 -->
<g id="edge8" class="edge"><title>0&#45;&#45;8</title>
<path fill="none" stroke="black" d="M81.044,-69.5093C87.4526,-60.3792 118.595,-16.0124 125.33,-6.41636"/>
</g>
<!-- 1&#45;&#45;2 -->
<g id="edge9" class="edge"><title>1&#45;&#45;2</title>
<path fill="none" stroke="black" d="M29.8125,-105.322C24.9978,-99.6273 7.77044,-79.2506 3.02044,-73.6323"/>
</g>
<!-- 1&#45;&#45;3 -->
<g id="edge10" class="edge"><title>1&#45;&#45;3</title>
<path fill="none" stroke="black" d="M32.8128,-107.68C42.5657,-112.551 90.2893,-136.385 99.8826,-141.176"/>
</g>
<!-- 1&#45;&#45;5 -->
<g id="edge11" class="edge"><title>1&#45;&#45;5</title>
<path fill="none" stroke="black" d="M31.3339,-108.661C32.3435,-115.75 35.9558,-141.114 36.9518,-148.108"/>
</g>
<!-- 1&#45;&#45;6 -->
<g id="edge12" class="edge"><title>1&#45;&#45;6</title>
<path fill="none" stroke="black" d="M30.5359,-104.815C27.5455,-93.6489 12.9129,-39.0121 9.97155,-28.0292"/>
</g>
<!-- 2&#45;&#45;4 -->
<g id="edge13" class="edge"><title>2&#45;&#45;4</title>
<path fill="none" stroke="black" d="M2.99786,-70.7186C10.4616,-61.5582 50.5155,-12.3989 57.96,-3.26208"/>
</g>
<!-- 2&#45;&#45;5 -->
<g id="edge14" class="edge"><title>2&#45;&#45;5</title>
<path fill="none" stroke="black" d="M2.67525,-74.1098C7.57398,-84.862 31.5446,-137.475 36.363,-148.051"/>
</g>
<!-- 2&#45;&#45;6 -->
<g id="edge15" class="edge"><title>2&#45;&#45;6</title>
<path fill="none" stroke="black" d="M2.12897,-70.2085C3.38829,-62.6281 7.89431,-35.5041 9.13672,-28.0255"/>
</g>
<!-- 3&#45;&#45;5 -->
<g id="edge16" class="edge"><title>3&#45;&#45;5</title>
<path fill="none" stroke="black" d="M99.7076,-142.244C90.4746,-143.376 49.5479,-148.392 39.4605,-149.629"/>
</g>
<!-- 3&#45;&#45;7 -->
<g id="edge17" class="edge"><title>3&#45;&#45;7</title>
<path fill="none" stroke="black" d="M103.357,-140.683C111.535,-134.596 145.271,-109.491 153.578,-103.309"/>
</g>
<!-- 4&#45;&#45;6 -->
<g id="edge18" class="edge"><title>4&#45;&#45;6</title>
<path fill="none" stroke="black" d="M57.4979,-2.60863C49.9528,-6.2986 18.8295,-21.5197 11.1666,-25.2673"/>
</g>
<!-- 4&#45;&#45;8 -->
<g id="edge19" class="edge"><title>4&#45;&#45;8</title>
<path fill="none" stroke="black" d="M61.0977,-1.88031C70.9494,-2.28683 115.223,-4.11372 124.79,-4.50848"/>
</g>
</g>
</svg>
