<?xml version="1.0" encoding="UTF-8" standalone="no"?>
<!DOCTYPE svg PUBLIC "-//W3C//DTD SVG 1.1//EN"
 "http://www.w3.org/Graphics/SVG/1.1/DTD/svg11.dtd">
<!-- Generated by graphviz version 2.36.0 (20140111.2315)
 -->
<!-- Title: %3 Pages: 1 -->
<svg width="177pt" height="156pt"
 viewBox="0.00 0.00 176.89 155.84" xmlns="http://www.w3.org/2000/svg" xmlns:xlink="http://www.w3.org/1999/xlink">
<g id="graph0" class="graph" transform="scale(1 1) rotate(0) translate(4 151.837)">
<title>%3</title>
<!-- 0 -->
<g id="node1" class="node"><title>0</title>
<ellipse fill="black" stroke="black" cx="97.3849" cy="-77.7591" rx="1.8" ry="1.8"/>
</g>
<!-- 1 -->
<g id="node2" class="node"><title>1</title>
<ellipse fill="black" stroke="black" cx="101.656" cy="-136.698" rx="1.8" ry="1.8"/>
</g>
<!-- 0&#45;&#45;1 -->
<g id="edge1" class="edge"><title>0&#45;&#45;1</title>
<path fill="none" stroke="black" d="M97.527,-79.7201C98.1755,-88.6686 100.85,-125.581 101.509,-134.669"/>
</g>
<!-- 2 -->
<g id="node3" class="node"><title>2</title>
<ellipse fill="black" stroke="black" cx="167.088" cy="-87.9835" rx="1.8" ry="1.8"/>
</g>
<!-- 0&#45;&#45;2 -->
<g id="edge2" class="edge"><title>0&#45;&#45;2</title>
<path fill="none" stroke="black" d="M99.3958,-78.0541C109.574,-79.5471 155.317,-86.2569 165.201,-87.7067"/>
</g>
<!-- 3 -->
<g id="node4" class="node"><title>3</title>
<ellipse fill="black" stroke="black" cx="45.3961" cy="-68.3452" rx="1.8" ry="1.8"/>
</g>
<!-- 0&#45;&#45;3 -->
<g id="edge3" class="edge"><title>0&#45;&#45;3</title>
<path fill="none" stroke="black" d="M95.151,-77.3546C86.5994,-75.8061 56.0006,-70.2654 47.5638,-68.7377"/>
</g>
<!-- 4 -->
<g id="node5" class="node"><title>4</title>
<ellipse fill="black" stroke="black" cx="40.2371" cy="-138.813" rx="1.8" ry="1.8"/>
</g>
<!-- 0&#45;&#45;4 -->
<g id="edge4" class="edge"><title>0&#45;&#45;4</title>
<path fill="none" stroke="black" d="M95.9723,-79.2683C88.1345,-87.6419 50.0479,-128.332 41.8102,-137.133"/>
</g>
<!-- 5 -->
<g id="node6" class="node"><title>5</title>
<ellipse fill="black" stroke="black" cx="157.579" cy="-146.037" rx="1.8" ry="1.8"/>
</g>
<!-- 0&#45;&#45;5 -->
<g id="edge5" class="edge"><title>0&#45;&#45;5</title>
<path fill="none" stroke="black" d="M98.6422,-79.1852C106.476,-88.0708 148.515,-135.756 156.329,-144.618"/>
</g>
<!-- 6 -->
<g id="node7" class="node"><title>6</title>
<ellipse fill="black" stroke="black" cx="1.8" cy="-92.6386" rx="1.8" ry="1.8"/>
</g>
<!-- 0&#45;&#45;6 -->
<g id="edge6" class="edge"><title>0&#45;&#45;6</title>
<path fill="none" stroke="black" d="M95.3885,-78.0699C82.949,-80.0063 16.1929,-90.3981 3.78544,-92.3295"/>
</g>
<!-- 7 -->
<g id="node8" class="node"><title>7</title>
<ellipse fill="black" stroke="black" cx="158.021" cy="-22.0057" rx="1.8" ry="1.8"/>
</g>
<!-- 0&#45;&#45;7 -->
<g id="edge7" class="edge"><title>0&#45;&#45;7</title>
<path fill="none" stroke="black" d="M98.8838,-76.3809C107.2,-68.7344 147.612,-31.5771 156.352,-23.5404"/>
</g>
<!-- 8 -->
<g id="node9" class="node"><title>8</title>
<ellipse fill="black" stroke="black" cx="64.0159" cy="-1.8" rx="1.8" ry="1.8"/>
</g>
<!-- 0&#45;&#45;8 -->
<g id="edge8" class="edge"><title>0&#45;&#45;8</title>
<path fill="none" stroke="black" d="M96.5601,-75.8815C91.9434,-65.3724 69.353,-13.949 64.812,-3.61202"/>
</g>
<!-- 1&#45;&#45;2 -->
<g id="edge9" class="edge"><title>1&#45;&#45;2</title>
<path fill="none" stroke="black" d="M103.273,-135.494C112.247,-128.813 155.855,-96.3466 165.287,-89.3245"/>
</g>
<!-- 1&#45;&#45;3 -->
<g id="edge10" class="edge"><title>1&#45;&#45;3</title>
<path fill="none" stroke="black" d="M100.481,-135.271C93.1591,-126.375 53.8675,-78.6376 46.5647,-69.765"/>
</g>
<!-- 1&#45;&#45;4 -->
<g id="edge11" class="edge"><title>1&#45;&#45;4</title>
<path fill="none" stroke="black" d="M99.6124,-136.769C90.2874,-137.09 51.822,-138.415 42.3513,-138.741"/>
</g>
<!-- 1&#45;&#45;5 -->
<g id="edge12" class="edge"><title>1&#45;&#45;5</title>
<path fill="none" stroke="black" d="M103.517,-137.009C112.007,-138.427 147.031,-144.275 155.654,-145.715"/>
</g>
<!-- 2&#45;&#45;5 -->
<g id="edge13" class="edge"><title>2&#45;&#45;5</title>
<path fill="none" stroke="black" d="M166.772,-89.9151C165.328,-98.729 159.373,-135.087 157.906,-144.038"/>
</g>
<!-- 2&#45;&#45;7 -->
<g id="edge14" class="edge"><title>2&#45;&#45;7</title>
<path fill="none" stroke="black" d="M166.827,-86.0801C165.503,-76.4455 159.553,-33.1479 158.267,-23.7918"/>
</g>
<!-- 3&#45;&#45;4 -->
<g id="edge15" class="edge"><title>3&#45;&#45;4</title>
<path fill="none" stroke="black" d="M45.2472,-70.3782C44.4939,-80.6685 41.1084,-126.913 40.3768,-136.906"/>
</g>
<!-- 3&#45;&#45;8 -->
<g id="edge16" class="edge"><title>3&#45;&#45;8</title>
<path fill="none" stroke="black" d="M45.9332,-66.4254C48.6523,-56.708 60.8715,-13.038 63.5119,-3.60146"/>
</g>
<!-- 4&#45;&#45;6 -->
<g id="edge17" class="edge"><title>4&#45;&#45;6</title>
<path fill="none" stroke="black" d="M38.9583,-137.277C33.1225,-130.267 9.05003,-101.348 3.12309,-94.228"/>
</g>
</g>
</svg>
