<?xml version="1.0" encoding="UTF-8" standalone="no"?>
<!DOCTYPE svg PUBLIC "-//W3C//DTD SVG 1.1//EN"
 "http://www.w3.org/Graphics/SVG/1.1/DTD/svg11.dtd">
<!-- Generated by graphviz version 2.36.0 (20140111.2315)
 -->
<!-- Title: %3 Pages: 1 -->
<svg width="158pt" height="155pt"
 viewBox="0.00 0.00 157.96 155.37" xmlns="http://www.w3.org/2000/svg" xmlns:xlink="http://www.w3.org/1999/xlink">
<g id="graph0" class="graph" transform="scale(1 1) rotate(0) translate(4 151.37)">
<title>%3</title>
<!-- 0 -->
<g id="node1" class="node"><title>0</title>
<ellipse fill="black" stroke="black" cx="58.4873" cy="-132.899" rx="1.8" ry="1.8"/>
</g>
<!-- 1 -->
<g id="node2" class="node"><title>1</title>
<ellipse fill="black" stroke="black" cx="78.9343" cy="-93.2547" rx="1.8" ry="1.8"/>
</g>
<!-- 0&#45;&#45;1 -->
<g id="edge1" class="edge"><title>0&#45;&#45;1</title>
<path fill="none" stroke="black" d="M59.3659,-131.195C62.7292,-124.674 74.7636,-101.341 78.0818,-94.9077"/>
</g>
<!-- 2 -->
<g id="node3" class="node"><title>2</title>
<ellipse fill="black" stroke="black" cx="65.8945" cy="-49.7145" rx="1.8" ry="1.8"/>
</g>
<!-- 0&#45;&#45;2 -->
<g id="edge2" class="edge"><title>0&#45;&#45;2</title>
<path fill="none" stroke="black" d="M58.6704,-130.842C59.6952,-119.334 64.7098,-63.019 65.7178,-51.6988"/>
</g>
<!-- 3 -->
<g id="node4" class="node"><title>3</title>
<ellipse fill="black" stroke="black" cx="122.198" cy="-79.044" rx="1.8" ry="1.8"/>
</g>
<!-- 0&#45;&#45;3 -->
<g id="edge3" class="edge"><title>0&#45;&#45;3</title>
<path fill="none" stroke="black" d="M60.0622,-131.567C68.8,-124.181 111.26,-88.2894 120.444,-80.5264"/>
</g>
<!-- 4 -->
<g id="node5" class="node"><title>4</title>
<ellipse fill="black" stroke="black" cx="97.4769" cy="-145.57" rx="1.8" ry="1.8"/>
</g>
<!-- 0&#45;&#45;4 -->
<g id="edge4" class="edge"><title>0&#45;&#45;4</title>
<path fill="none" stroke="black" d="M60.5836,-133.58C67.4167,-135.801 88.9838,-142.81 95.5567,-144.946"/>
</g>
<!-- 5 -->
<g id="node6" class="node"><title>5</title>
<ellipse fill="black" stroke="black" cx="25.604" cy="-108.364" rx="1.8" ry="1.8"/>
</g>
<!-- 0&#45;&#45;5 -->
<g id="edge5" class="edge"><title>0&#45;&#45;5</title>
<path fill="none" stroke="black" d="M56.7194,-131.58C50.9564,-127.28 32.7669,-113.708 27.2234,-109.572"/>
</g>
<!-- 6 -->
<g id="node7" class="node"><title>6</title>
<ellipse fill="black" stroke="black" cx="1.8" cy="-63.1159" rx="1.8" ry="1.8"/>
</g>
<!-- 0&#45;&#45;6 -->
<g id="edge6" class="edge"><title>0&#45;&#45;6</title>
<path fill="none" stroke="black" d="M57.3033,-131.441C49.926,-122.36 10.3358,-73.6236 2.97748,-64.5654"/>
</g>
<!-- 7 -->
<g id="node8" class="node"><title>7</title>
<ellipse fill="black" stroke="black" cx="148.155" cy="-139.103" rx="1.8" ry="1.8"/>
</g>
<!-- 0&#45;&#45;7 -->
<g id="edge7" class="edge"><title>0&#45;&#45;7</title>
<path fill="none" stroke="black" d="M60.3602,-133.028C72.0296,-133.836 134.653,-138.169 146.293,-138.974"/>
</g>
<!-- 1&#45;&#45;2 -->
<g id="edge8" class="edge"><title>1&#45;&#45;2</title>
<path fill="none" stroke="black" d="M78.374,-91.3838C76.2291,-84.2219 68.5543,-58.5956 66.4382,-51.5299"/>
</g>
<!-- 1&#45;&#45;3 -->
<g id="edge9" class="edge"><title>1&#45;&#45;3</title>
<path fill="none" stroke="black" d="M80.7933,-92.6441C87.9097,-90.3065 113.373,-81.9426 120.394,-79.6365"/>
</g>
<!-- 1&#45;&#45;4 -->
<g id="edge10" class="edge"><title>1&#45;&#45;4</title>
<path fill="none" stroke="black" d="M79.5513,-94.9953C82.3665,-102.938 93.9794,-135.702 96.8386,-143.769"/>
</g>
<!-- 1&#45;&#45;5 -->
<g id="edge11" class="edge"><title>1&#45;&#45;5</title>
<path fill="none" stroke="black" d="M77.1599,-93.7574C69.063,-96.0514 35.6632,-105.514 27.4397,-107.844"/>
</g>
<!-- 1&#45;&#45;6 -->
<g id="edge12" class="edge"><title>1&#45;&#45;6</title>
<path fill="none" stroke="black" d="M77.0276,-92.5097C66.3559,-88.3399 14.137,-67.9364 3.64005,-63.8349"/>
</g>
<!-- 1&#45;&#45;7 -->
<g id="edge13" class="edge"><title>1&#45;&#45;7</title>
<path fill="none" stroke="black" d="M80.6454,-94.388C90.139,-100.676 136.272,-131.232 146.25,-137.841"/>
</g>
<!-- 2&#45;&#45;3 -->
<g id="edge14" class="edge"><title>2&#45;&#45;3</title>
<path fill="none" stroke="black" d="M67.7678,-50.6903C76.3161,-55.1433 111.578,-73.5118 120.26,-78.0344"/>
</g>
<!-- 2&#45;&#45;4 -->
<g id="edge15" class="edge"><title>2&#45;&#45;4</title>
<path fill="none" stroke="black" d="M66.5541,-51.7165C70.6643,-64.1912 92.7213,-131.136 96.8209,-143.579"/>
</g>
<!-- 2&#45;&#45;5 -->
<g id="edge16" class="edge"><title>2&#45;&#45;5</title>
<path fill="none" stroke="black" d="M64.7321,-51.4065C58.8486,-59.9709 32.4081,-98.4593 26.6947,-106.776"/>
</g>
<!-- 2&#45;&#45;6 -->
<g id="edge17" class="edge"><title>2&#45;&#45;6</title>
<path fill="none" stroke="black" d="M64.0454,-50.1011C54.8501,-52.0237 14.0899,-60.5462 4.04358,-62.6468"/>
</g>
<!-- 8 -->
<g id="node9" class="node"><title>8</title>
<ellipse fill="black" stroke="black" cx="126.733" cy="-1.8" rx="1.8" ry="1.8"/>
</g>
<!-- 2&#45;&#45;8 -->
<g id="edge18" class="edge"><title>2&#45;&#45;8</title>
<path fill="none" stroke="black" d="M67.3984,-48.53C75.7424,-41.9586 116.289,-10.0257 125.059,-3.11895"/>
</g>
<!-- 3&#45;&#45;4 -->
<g id="edge19" class="edge"><title>3&#45;&#45;4</title>
<path fill="none" stroke="black" d="M121.485,-80.9632C117.875,-90.6778 101.652,-134.335 98.1461,-143.769"/>
</g>
<!-- 3&#45;&#45;5 -->
<g id="edge20" class="edge"><title>3&#45;&#45;5</title>
<path fill="none" stroke="black" d="M120.18,-79.6564C107.61,-83.4721 40.1488,-103.949 27.6104,-107.755"/>
</g>
<!-- 3&#45;&#45;7 -->
<g id="edge21" class="edge"><title>3&#45;&#45;7</title>
<path fill="none" stroke="black" d="M122.947,-80.7767C126.671,-89.3931 143.178,-127.587 147.247,-137.001"/>
</g>
<!-- 3&#45;&#45;8 -->
<g id="edge22" class="edge"><title>3&#45;&#45;8</title>
<path fill="none" stroke="black" d="M122.31,-77.1346C122.938,-66.4477 126.008,-14.1545 126.625,-3.64267"/>
</g>
<!-- 4&#45;&#45;5 -->
<g id="edge23" class="edge"><title>4&#45;&#45;5</title>
<path fill="none" stroke="black" d="M95.7002,-144.65C85.7565,-139.503 37.0994,-114.315 27.3185,-109.251"/>
</g>
<!-- 4&#45;&#45;7 -->
<g id="edge24" class="edge"><title>4&#45;&#45;7</title>
<path fill="none" stroke="black" d="M99.6545,-145.292C107.991,-144.228 137.818,-140.422 146.042,-139.373"/>
</g>
<!-- 5&#45;&#45;6 -->
<g id="edge25" class="edge"><title>5&#45;&#45;6</title>
<path fill="none" stroke="black" d="M24.5811,-106.42C20.6656,-98.9768 6.65545,-72.3455 2.79252,-65.0026"/>
</g>
</g>
</svg>
