<?xml version="1.0" encoding="UTF-8" standalone="no"?>
<!DOCTYPE svg PUBLIC "-//W3C//DTD SVG 1.1//EN"
 "http://www.w3.org/Graphics/SVG/1.1/DTD/svg11.dtd">
<!-- Generated by graphviz version 2.36.0 (20140111.2315)
 -->
<!-- Title: %3 Pages: 1 -->
<svg width="403pt" height="235pt"
 viewBox="0.00 0.00 403.38 235.02" xmlns="http://www.w3.org/2000/svg" xmlns:xlink="http://www.w3.org/1999/xlink">
<g id="graph0" class="graph" transform="scale(1 1) rotate(0) translate(4 231.019)">
<title>%3</title>
<!-- 0 -->
<g id="node1" class="node"><title>0</title>
<ellipse fill="black" stroke="black" cx="172.239" cy="-151.019" rx="1.8" ry="1.8"/>
</g>
<!-- 1 -->
<g id="node2" class="node"><title>1</title>
<ellipse fill="black" stroke="black" cx="248.967" cy="-164.046" rx="1.8" ry="1.8"/>
</g>
<!-- 0&#45;&#45;1 -->
<g id="edge1" class="edge"><title>0&#45;&#45;1</title>
<path fill="none" stroke="black" d="M174.135,-151.341C184.751,-153.144 236.695,-161.962 247.136,-163.735"/>
</g>
<!-- 4 -->
<g id="node3" class="node"><title>4</title>
<ellipse fill="black" stroke="black" cx="229.002" cy="-98.6063" rx="1.8" ry="1.8"/>
</g>
<!-- 0&#45;&#45;4 -->
<g id="edge2" class="edge"><title>0&#45;&#45;4</title>
<path fill="none" stroke="black" d="M173.642,-149.724C181.427,-142.535 219.257,-107.604 227.439,-100.049"/>
</g>
<!-- 5 -->
<g id="node4" class="node"><title>5</title>
<ellipse fill="black" stroke="black" cx="109.626" cy="-102.065" rx="1.8" ry="1.8"/>
</g>
<!-- 0&#45;&#45;5 -->
<g id="edge3" class="edge"><title>0&#45;&#45;5</title>
<path fill="none" stroke="black" d="M170.691,-149.809C162.104,-143.095 120.375,-110.469 111.349,-103.412"/>
</g>
<!-- 6 -->
<g id="node5" class="node"><title>6</title>
<ellipse fill="black" stroke="black" cx="138.065" cy="-225.219" rx="1.8" ry="1.8"/>
</g>
<!-- 0&#45;&#45;6 -->
<g id="edge4" class="edge"><title>0&#45;&#45;6</title>
<path fill="none" stroke="black" d="M171.394,-152.854C166.666,-163.119 143.531,-213.351 138.881,-223.449"/>
</g>
<!-- 1&#45;&#45;4 -->
<g id="edge6" class="edge"><title>1&#45;&#45;4</title>
<path fill="none" stroke="black" d="M248.391,-162.158C245.475,-152.602 232.374,-109.658 229.542,-100.378"/>
</g>
<!-- 3 -->
<g id="node6" class="node"><title>3</title>
<ellipse fill="black" stroke="black" cx="320.895" cy="-186.41" rx="1.8" ry="1.8"/>
</g>
<!-- 1&#45;&#45;3 -->
<g id="edge5" class="edge"><title>1&#45;&#45;3</title>
<path fill="none" stroke="black" d="M250.745,-164.599C260.61,-167.666 308.547,-182.571 318.915,-185.794"/>
</g>
<!-- 8 -->
<g id="node9" class="node"><title>8</title>
<ellipse fill="black" stroke="black" cx="393.582" cy="-195.301" rx="1.8" ry="1.8"/>
</g>
<!-- 3&#45;&#45;8 -->
<g id="edge9" class="edge"><title>3&#45;&#45;8</title>
<path fill="none" stroke="black" d="M322.692,-186.63C332.661,-187.849 381.103,-193.774 391.581,-195.056"/>
</g>
<!-- 2 -->
<g id="node7" class="node"><title>2</title>
<ellipse fill="black" stroke="black" cx="52.2263" cy="-54.6479" rx="1.8" ry="1.8"/>
</g>
<!-- 2&#45;&#45;5 -->
<g id="edge7" class="edge"><title>2&#45;&#45;5</title>
<path fill="none" stroke="black" d="M53.6452,-55.82C61.5174,-62.3232 99.7717,-93.9246 108.046,-100.76"/>
</g>
<!-- 7 -->
<g id="node8" class="node"><title>7</title>
<ellipse fill="black" stroke="black" cx="1.8" cy="-1.8" rx="1.8" ry="1.8"/>
</g>
<!-- 2&#45;&#45;7 -->
<g id="edge8" class="edge"><title>2&#45;&#45;7</title>
<path fill="none" stroke="black" d="M50.9798,-53.3415C44.0639,-46.0935 10.4569,-10.8726 3.1881,-3.25476"/>
</g>
</g>
</svg>
