<?xml version="1.0" encoding="UTF-8" standalone="no"?>
<!DOCTYPE svg PUBLIC "-//W3C//DTD SVG 1.1//EN"
 "http://www.w3.org/Graphics/SVG/1.1/DTD/svg11.dtd">
<!-- Generated by graphviz version 2.36.0 (20140111.2315)
 -->
<!-- Title: %3 Pages: 1 -->
<svg width="206pt" height="246pt"
 viewBox="0.00 0.00 206.28 245.64" xmlns="http://www.w3.org/2000/svg" xmlns:xlink="http://www.w3.org/1999/xlink">
<g id="graph0" class="graph" transform="scale(1 1) rotate(0) translate(4 241.641)">
<title>%3</title>
<!-- 0 -->
<g id="node1" class="node"><title>0</title>
<ellipse fill="black" stroke="black" cx="115.014" cy="-131.609" rx="1.8" ry="1.8"/>
</g>
<!-- 1 -->
<g id="node2" class="node"><title>1</title>
<ellipse fill="black" stroke="black" cx="158.514" cy="-186.737" rx="1.8" ry="1.8"/>
</g>
<!-- 0&#45;&#45;1 -->
<g id="edge1" class="edge"><title>0&#45;&#45;1</title>
<path fill="none" stroke="black" d="M116.461,-133.443C123.184,-141.962 151.289,-177.58 157.356,-185.269"/>
</g>
<!-- 2 -->
<g id="node3" class="node"><title>2</title>
<ellipse fill="black" stroke="black" cx="189.821" cy="-154.339" rx="1.8" ry="1.8"/>
</g>
<!-- 0&#45;&#45;2 -->
<g id="edge2" class="edge"><title>0&#45;&#45;2</title>
<path fill="none" stroke="black" d="M116.863,-132.17C127.213,-135.315 177.856,-150.704 188.036,-153.797"/>
</g>
<!-- 3 -->
<g id="node4" class="node"><title>3</title>
<ellipse fill="black" stroke="black" cx="68.7121" cy="-70.4418" rx="1.8" ry="1.8"/>
</g>
<!-- 0&#45;&#45;3 -->
<g id="edge3" class="edge"><title>0&#45;&#45;3</title>
<path fill="none" stroke="black" d="M113.869,-130.097C107.519,-121.708 76.6609,-80.9426 69.9866,-72.1256"/>
</g>
<!-- 4 -->
<g id="node5" class="node"><title>4</title>
<ellipse fill="black" stroke="black" cx="119.276" cy="-209.293" rx="1.8" ry="1.8"/>
</g>
<!-- 0&#45;&#45;4 -->
<g id="edge4" class="edge"><title>0&#45;&#45;4</title>
<path fill="none" stroke="black" d="M115.119,-133.529C115.709,-144.277 118.595,-196.868 119.175,-207.44"/>
</g>
<!-- 1&#45;&#45;2 -->
<g id="edge5" class="edge"><title>1&#45;&#45;2</title>
<path fill="none" stroke="black" d="M159.859,-185.344C165.009,-180.015 183.435,-160.948 188.515,-155.69"/>
</g>
<!-- 1&#45;&#45;4 -->
<g id="edge6" class="edge"><title>1&#45;&#45;4</title>
<path fill="none" stroke="black" d="M156.828,-187.706C150.374,-191.416 127.28,-204.692 120.912,-208.353"/>
</g>
<!-- 6 -->
<g id="node6" class="node"><title>6</title>
<ellipse fill="black" stroke="black" cx="196.476" cy="-235.841" rx="1.8" ry="1.8"/>
</g>
<!-- 1&#45;&#45;6 -->
<g id="edge7" class="edge"><title>1&#45;&#45;6</title>
<path fill="none" stroke="black" d="M159.777,-188.37C165.541,-195.826 189.316,-226.579 195.17,-234.151"/>
</g>
<!-- 2&#45;&#45;4 -->
<g id="edge8" class="edge"><title>2&#45;&#45;4</title>
<path fill="none" stroke="black" d="M188.347,-155.487C179.167,-162.639 129.899,-201.019 120.742,-208.152"/>
</g>
<!-- 2&#45;&#45;6 -->
<g id="edge9" class="edge"><title>2&#45;&#45;6</title>
<path fill="none" stroke="black" d="M189.985,-156.354C190.906,-167.63 195.412,-222.806 196.318,-233.897"/>
</g>
<!-- 5 -->
<g id="node7" class="node"><title>5</title>
<ellipse fill="black" stroke="black" cx="1.8" cy="-55.0746" rx="1.8" ry="1.8"/>
</g>
<!-- 3&#45;&#45;5 -->
<g id="edge10" class="edge"><title>3&#45;&#45;5</title>
<path fill="none" stroke="black" d="M66.7817,-69.9985C57.0107,-67.7545 13.1,-57.6698 3.61139,-55.4906"/>
</g>
<!-- 7 -->
<g id="node8" class="node"><title>7</title>
<ellipse fill="black" stroke="black" cx="73.9678" cy="-1.8" rx="1.8" ry="1.8"/>
</g>
<!-- 3&#45;&#45;7 -->
<g id="edge11" class="edge"><title>3&#45;&#45;7</title>
<path fill="none" stroke="black" d="M68.8637,-68.4615C69.6312,-58.438 73.0802,-13.3921 73.8255,-3.65822"/>
</g>
<!-- 8 -->
<g id="node9" class="node"><title>8</title>
<ellipse fill="black" stroke="black" cx="19.4798" cy="-3.25066" rx="1.8" ry="1.8"/>
</g>
<!-- 3&#45;&#45;8 -->
<g id="edge12" class="edge"><title>3&#45;&#45;8</title>
<path fill="none" stroke="black" d="M67.4951,-68.7809C60.743,-59.5657 27.9317,-14.7856 20.835,-5.10025"/>
</g>
<!-- 4&#45;&#45;6 -->
<g id="edge13" class="edge"><title>4&#45;&#45;6</title>
<path fill="none" stroke="black" d="M121.185,-209.95C131.865,-213.623 184.129,-231.595 194.635,-235.208"/>
</g>
<!-- 5&#45;&#45;7 -->
<g id="edge14" class="edge"><title>5&#45;&#45;7</title>
<path fill="none" stroke="black" d="M3.30733,-53.9619C12.6993,-47.0287 63.101,-9.82192 72.4688,-2.90659"/>
</g>
<!-- 5&#45;&#45;8 -->
<g id="edge15" class="edge"><title>5&#45;&#45;8</title>
<path fill="none" stroke="black" d="M2.38824,-53.3503C5.07249,-45.4821 16.145,-13.0257 18.8712,-5.03456"/>
</g>
<!-- 7&#45;&#45;8 -->
<g id="edge16" class="edge"><title>7&#45;&#45;8</title>
<path fill="none" stroke="black" d="M72.1549,-1.84827C63.8822,-2.06851 29.7574,-2.97703 21.3554,-3.20072"/>
</g>
</g>
</svg>
