<?xml version="1.0" encoding="UTF-8" standalone="no"?>
<!DOCTYPE svg PUBLIC "-//W3C//DTD SVG 1.1//EN"
 "http://www.w3.org/Graphics/SVG/1.1/DTD/svg11.dtd">
<!-- Generated by graphviz version 2.36.0 (20140111.2315)
 -->
<!-- Title: %3 Pages: 1 -->
<svg width="133pt" height="184pt"
 viewBox="0.00 0.00 132.58 184.43" xmlns="http://www.w3.org/2000/svg" xmlns:xlink="http://www.w3.org/1999/xlink">
<g id="graph0" class="graph" transform="scale(1 1) rotate(0) translate(4 180.425)">
<title>%3</title>
<!-- 0 -->
<g id="node1" class="node"><title>0</title>
<ellipse fill="black" stroke="black" cx="25.33" cy="-67.4169" rx="1.8" ry="1.8"/>
</g>
<!-- 1 -->
<g id="node2" class="node"><title>1</title>
<ellipse fill="black" stroke="black" cx="63.8525" cy="-28.5465" rx="1.8" ry="1.8"/>
</g>
<!-- 0&#45;&#45;1 -->
<g id="edge1" class="edge"><title>0&#45;&#45;1</title>
<path fill="none" stroke="black" d="M26.6117,-66.1236C32.4604,-60.2221 56.5864,-35.8782 62.5264,-29.8845"/>
</g>
<!-- 2 -->
<g id="node3" class="node"><title>2</title>
<ellipse fill="black" stroke="black" cx="65.7522" cy="-61.3274" rx="1.8" ry="1.8"/>
</g>
<!-- 0&#45;&#45;2 -->
<g id="edge2" class="edge"><title>0&#45;&#45;2</title>
<path fill="none" stroke="black" d="M27.5033,-67.0895C34.5875,-66.0223 56.9471,-62.6539 63.7615,-61.6273"/>
</g>
<!-- 3 -->
<g id="node4" class="node"><title>3</title>
<ellipse fill="black" stroke="black" cx="110.021" cy="-97.9556" rx="1.8" ry="1.8"/>
</g>
<!-- 0&#45;&#45;3 -->
<g id="edge3" class="edge"><title>0&#45;&#45;3</title>
<path fill="none" stroke="black" d="M27.0989,-68.0548C38.1207,-72.0291 97.2689,-93.3572 108.262,-97.3213"/>
</g>
<!-- 4 -->
<g id="node5" class="node"><title>4</title>
<ellipse fill="black" stroke="black" cx="122.775" cy="-33.5708" rx="1.8" ry="1.8"/>
</g>
<!-- 0&#45;&#45;4 -->
<g id="edge4" class="edge"><title>0&#45;&#45;4</title>
<path fill="none" stroke="black" d="M27.3653,-66.71C40.1562,-62.2673 109.28,-38.2583 121.066,-34.1645"/>
</g>
<!-- 5 -->
<g id="node6" class="node"><title>5</title>
<ellipse fill="black" stroke="black" cx="34.6561" cy="-126.317" rx="1.8" ry="1.8"/>
</g>
<!-- 0&#45;&#45;5 -->
<g id="edge5" class="edge"><title>0&#45;&#45;5</title>
<path fill="none" stroke="black" d="M25.6403,-69.3767C27.0563,-78.3193 32.897,-115.208 34.3351,-124.29"/>
</g>
<!-- 6 -->
<g id="node7" class="node"><title>6</title>
<ellipse fill="black" stroke="black" cx="1.8" cy="-1.8" rx="1.8" ry="1.8"/>
</g>
<!-- 0&#45;&#45;6 -->
<g id="edge6" class="edge"><title>0&#45;&#45;6</title>
<path fill="none" stroke="black" d="M24.6512,-65.5239C21.2152,-55.942 5.7737,-12.8813 2.43699,-3.57633"/>
</g>
<!-- 1&#45;&#45;3 -->
<g id="edge7" class="edge"><title>1&#45;&#45;3</title>
<path fill="none" stroke="black" d="M64.9937,-30.2622C71.3258,-39.7816 102.095,-86.0399 108.751,-96.045"/>
</g>
<!-- 1&#45;&#45;4 -->
<g id="edge8" class="edge"><title>1&#45;&#45;4</title>
<path fill="none" stroke="black" d="M65.8129,-28.7136C74.759,-29.4765 111.661,-32.6231 120.747,-33.3979"/>
</g>
<!-- 1&#45;&#45;5 -->
<g id="edge9" class="edge"><title>1&#45;&#45;5</title>
<path fill="none" stroke="black" d="M63.2427,-30.5886C59.443,-43.3125 39.0524,-111.595 35.2626,-124.286"/>
</g>
<!-- 1&#45;&#45;6 -->
<g id="edge10" class="edge"><title>1&#45;&#45;6</title>
<path fill="none" stroke="black" d="M62.0623,-27.7748C53.0009,-23.8691 12.2793,-6.31689 3.47983,-2.52406"/>
</g>
<!-- 2&#45;&#45;3 -->
<g id="edge11" class="edge"><title>2&#45;&#45;3</title>
<path fill="none" stroke="black" d="M67.2251,-62.5461C73.9464,-68.1072 101.671,-91.0468 108.498,-96.6948"/>
</g>
<!-- 2&#45;&#45;4 -->
<g id="edge12" class="edge"><title>2&#45;&#45;4</title>
<path fill="none" stroke="black" d="M67.6495,-60.4039C76.3071,-56.1897 112.02,-38.8063 120.812,-34.5263"/>
</g>
<!-- 2&#45;&#45;5 -->
<g id="edge13" class="edge"><title>2&#45;&#45;5</title>
<path fill="none" stroke="black" d="M64.8551,-63.2024C60.3142,-72.6927 39.9076,-115.342 35.4979,-124.558"/>
</g>
<!-- 2&#45;&#45;6 -->
<g id="edge14" class="edge"><title>2&#45;&#45;6</title>
<path fill="none" stroke="black" d="M64.1714,-59.856C55.4004,-51.6918 12.7789,-12.0193 3.56043,-3.43863"/>
</g>
<!-- 3&#45;&#45;4 -->
<g id="edge15" class="edge"><title>3&#45;&#45;4</title>
<path fill="none" stroke="black" d="M110.389,-96.0981C112.219,-86.8612 120.33,-45.9164 122.329,-35.8246"/>
</g>
<!-- 7 -->
<g id="node8" class="node"><title>7</title>
<ellipse fill="black" stroke="black" cx="97.3275" cy="-174.625" rx="1.8" ry="1.8"/>
</g>
<!-- 3&#45;&#45;7 -->
<g id="edge16" class="edge"><title>3&#45;&#45;7</title>
<path fill="none" stroke="black" d="M109.708,-99.8508C107.951,-110.458 99.3578,-162.362 97.6303,-172.796"/>
</g>
<!-- 5&#45;&#45;7 -->
<g id="edge17" class="edge"><title>5&#45;&#45;7</title>
<path fill="none" stroke="black" d="M36.2053,-127.511C44.8006,-134.137 86.5684,-166.332 95.6023,-173.295"/>
</g>
</g>
</svg>
