<?xml version="1.0" encoding="UTF-8" standalone="no"?>
<!DOCTYPE svg PUBLIC "-//W3C//DTD SVG 1.1//EN"
 "http://www.w3.org/Graphics/SVG/1.1/DTD/svg11.dtd">
<!-- Generated by graphviz version 2.36.0 (20140111.2315)
 -->
<!-- Title: %3 Pages: 1 -->
<svg width="187pt" height="232pt"
 viewBox="0.00 0.00 187.13 231.89" xmlns="http://www.w3.org/2000/svg" xmlns:xlink="http://www.w3.org/1999/xlink">
<g id="graph0" class="graph" transform="scale(1 1) rotate(0) translate(4 227.888)">
<title>%3</title>
<!-- 0 -->
<g id="node1" class="node"><title>0</title>
<ellipse fill="black" stroke="black" cx="88.6148" cy="-138.298" rx="1.8" ry="1.8"/>
</g>
<!-- 1 -->
<g id="node2" class="node"><title>1</title>
<ellipse fill="black" stroke="black" cx="122.628" cy="-172.21" rx="1.8" ry="1.8"/>
</g>
<!-- 0&#45;&#45;1 -->
<g id="edge1" class="edge"><title>0&#45;&#45;1</title>
<path fill="none" stroke="black" d="M90.0763,-139.756C95.6711,-145.334 115.69,-165.293 121.21,-170.796"/>
</g>
<!-- 2 -->
<g id="node3" class="node"><title>2</title>
<ellipse fill="black" stroke="black" cx="45.6154" cy="-161.716" rx="1.8" ry="1.8"/>
</g>
<!-- 0&#45;&#45;2 -->
<g id="edge2" class="edge"><title>0&#45;&#45;2</title>
<path fill="none" stroke="black" d="M86.7672,-139.305C79.6943,-143.157 54.3863,-156.94 47.4083,-160.74"/>
</g>
<!-- 3 -->
<g id="node4" class="node"><title>3</title>
<ellipse fill="black" stroke="black" cx="46.1124" cy="-212.239" rx="1.8" ry="1.8"/>
</g>
<!-- 0&#45;&#45;3 -->
<g id="edge3" class="edge"><title>0&#45;&#45;3</title>
<path fill="none" stroke="black" d="M87.5642,-140.126C81.6839,-150.356 52.9103,-200.413 47.1263,-210.475"/>
</g>
<!-- 4 -->
<g id="node5" class="node"><title>4</title>
<ellipse fill="black" stroke="black" cx="96.8627" cy="-89.4132" rx="1.8" ry="1.8"/>
</g>
<!-- 0&#45;&#45;4 -->
<g id="edge4" class="edge"><title>0&#45;&#45;4</title>
<path fill="none" stroke="black" d="M88.9692,-136.198C90.3259,-128.157 95.1803,-99.3846 96.5188,-91.4515"/>
</g>
<!-- 5 -->
<g id="node6" class="node"><title>5</title>
<ellipse fill="black" stroke="black" cx="96.6573" cy="-222.088" rx="1.8" ry="1.8"/>
</g>
<!-- 0&#45;&#45;5 -->
<g id="edge5" class="edge"><title>0&#45;&#45;5</title>
<path fill="none" stroke="black" d="M88.8137,-140.37C89.9263,-151.962 95.371,-208.687 96.4654,-220.089"/>
</g>
<!-- 6 -->
<g id="node7" class="node"><title>6</title>
<ellipse fill="black" stroke="black" cx="39.3729" cy="-66.0512" rx="1.8" ry="1.8"/>
</g>
<!-- 0&#45;&#45;6 -->
<g id="edge6" class="edge"><title>0&#45;&#45;6</title>
<path fill="none" stroke="black" d="M87.5864,-136.789C81.178,-127.387 46.7876,-76.93 40.3957,-67.5519"/>
</g>
<!-- 7 -->
<g id="node8" class="node"><title>7</title>
<ellipse fill="black" stroke="black" cx="177.329" cy="-132.334" rx="1.8" ry="1.8"/>
</g>
<!-- 0&#45;&#45;7 -->
<g id="edge7" class="edge"><title>0&#45;&#45;7</title>
<path fill="none" stroke="black" d="M90.4678,-138.174C102.013,-137.398 163.971,-133.232 175.487,-132.458"/>
</g>
<!-- 1&#45;&#45;2 -->
<g id="edge8" class="edge"><title>1&#45;&#45;2</title>
<path fill="none" stroke="black" d="M120.724,-171.951C110.069,-170.499 57.9329,-163.395 47.4526,-161.967"/>
</g>
<!-- 1&#45;&#45;3 -->
<g id="edge9" class="edge"><title>1&#45;&#45;3</title>
<path fill="none" stroke="black" d="M121.03,-173.046C111.158,-178.211 58.552,-205.732 47.9683,-211.268"/>
</g>
<!-- 1&#45;&#45;4 -->
<g id="edge10" class="edge"><title>1&#45;&#45;4</title>
<path fill="none" stroke="black" d="M122.09,-170.481C118.737,-159.706 100.742,-101.881 97.3979,-91.133"/>
</g>
<!-- 1&#45;&#45;5 -->
<g id="edge11" class="edge"><title>1&#45;&#45;5</title>
<path fill="none" stroke="black" d="M121.764,-173.87C117.821,-181.442 101.556,-212.68 97.5512,-220.371"/>
</g>
<!-- 1&#45;&#45;7 -->
<g id="edge12" class="edge"><title>1&#45;&#45;7</title>
<path fill="none" stroke="black" d="M124.448,-170.883C132.901,-164.721 168.243,-138.958 175.873,-133.396"/>
</g>
<!-- 2&#45;&#45;3 -->
<g id="edge13" class="edge"><title>2&#45;&#45;3</title>
<path fill="none" stroke="black" d="M45.6368,-163.887C45.7185,-172.198 46.0111,-201.934 46.0917,-210.133"/>
</g>
<!-- 2&#45;&#45;4 -->
<g id="edge14" class="edge"><title>2&#45;&#45;4</title>
<path fill="none" stroke="black" d="M46.6858,-160.206C53.3551,-150.796 89.146,-100.3 95.7982,-90.915"/>
</g>
<!-- 2&#45;&#45;5 -->
<g id="edge15" class="edge"><title>2&#45;&#45;5</title>
<path fill="none" stroke="black" d="M46.8771,-163.209C53.8775,-171.488 87.8947,-211.724 95.2522,-220.426"/>
</g>
<!-- 3&#45;&#45;5 -->
<g id="edge16" class="edge"><title>3&#45;&#45;5</title>
<path fill="none" stroke="black" d="M48.2843,-212.663C56.5984,-214.283 86.3473,-220.079 94.5498,-221.677"/>
</g>
<!-- 4&#45;&#45;6 -->
<g id="edge17" class="edge"><title>4&#45;&#45;6</title>
<path fill="none" stroke="black" d="M94.9499,-88.6359C86.2215,-85.089 50.2166,-70.4578 41.3518,-66.8554"/>
</g>
<!-- 8 -->
<g id="node9" class="node"><title>8</title>
<ellipse fill="black" stroke="black" cx="1.8" cy="-1.8" rx="1.8" ry="1.8"/>
</g>
<!-- 6&#45;&#45;8 -->
<g id="edge18" class="edge"><title>6&#45;&#45;8</title>
<path fill="none" stroke="black" d="M38.4441,-64.463C33.291,-55.651 8.25029,-12.8303 2.83428,-3.56866"/>
</g>
</g>
</svg>
