<?xml version="1.0" encoding="UTF-8" standalone="no"?>
<!DOCTYPE svg PUBLIC "-//W3C//DTD SVG 1.1//EN"
 "http://www.w3.org/Graphics/SVG/1.1/DTD/svg11.dtd">
<!-- Generated by graphviz version 2.36.0 (20140111.2315)
 -->
<!-- Title: %3 Pages: 1 -->
<svg width="139pt" height="134pt"
 viewBox="0.00 0.00 138.93 133.80" xmlns="http://www.w3.org/2000/svg" xmlns:xlink="http://www.w3.org/1999/xlink">
<g id="graph0" class="graph" transform="scale(1 1) rotate(0) translate(4 129.804)">
<title>%3</title>
<!-- 0 -->
<g id="node1" class="node"><title>0</title>
<ellipse fill="black" stroke="black" cx="53.3874" cy="-74.6633" rx="1.8" ry="1.8"/>
</g>
<!-- 1 -->
<g id="node2" class="node"><title>1</title>
<ellipse fill="black" stroke="black" cx="76.7316" cy="-50.8897" rx="1.8" ry="1.8"/>
</g>
<!-- 0&#45;&#45;1 -->
<g id="edge1" class="edge"><title>0&#45;&#45;1</title>
<path fill="none" stroke="black" d="M54.9191,-73.1034C59.1388,-68.8061 70.9011,-56.8274 75.1636,-52.4865"/>
</g>
<!-- 2 -->
<g id="node3" class="node"><title>2</title>
<ellipse fill="black" stroke="black" cx="56.5069" cy="-1.8" rx="1.8" ry="1.8"/>
</g>
<!-- 0&#45;&#45;2 -->
<g id="edge2" class="edge"><title>0&#45;&#45;2</title>
<path fill="none" stroke="black" d="M53.4645,-72.8622C53.8923,-62.869 55.9713,-14.3087 56.421,-3.80573"/>
</g>
<!-- 3 -->
<g id="node4" class="node"><title>3</title>
<ellipse fill="black" stroke="black" cx="74.3978" cy="-124.004" rx="1.8" ry="1.8"/>
</g>
<!-- 0&#45;&#45;3 -->
<g id="edge3" class="edge"><title>0&#45;&#45;3</title>
<path fill="none" stroke="black" d="M54.2902,-76.7834C57.7462,-84.8993 70.1121,-113.939 73.5217,-121.946"/>
</g>
<!-- 4 -->
<g id="node5" class="node"><title>4</title>
<ellipse fill="black" stroke="black" cx="126.039" cy="-40.7894" rx="1.8" ry="1.8"/>
</g>
<!-- 0&#45;&#45;4 -->
<g id="edge4" class="edge"><title>0&#45;&#45;4</title>
<path fill="none" stroke="black" d="M55.1833,-73.8259C65.2347,-69.1394 114.419,-46.2073 124.305,-41.5975"/>
</g>
<!-- 5 -->
<g id="node6" class="node"><title>5</title>
<ellipse fill="black" stroke="black" cx="4.50133" cy="-85.534" rx="1.8" ry="1.8"/>
</g>
<!-- 0&#45;&#45;5 -->
<g id="edge5" class="edge"><title>0&#45;&#45;5</title>
<path fill="none" stroke="black" d="M51.2868,-75.1304C43.2456,-76.9185 14.4729,-83.3166 6.53967,-85.0808"/>
</g>
<!-- 6 -->
<g id="node7" class="node"><title>6</title>
<ellipse fill="black" stroke="black" cx="1.8" cy="-10.3176" rx="1.8" ry="1.8"/>
</g>
<!-- 0&#45;&#45;6 -->
<g id="edge6" class="edge"><title>0&#45;&#45;6</title>
<path fill="none" stroke="black" d="M52.1122,-73.0727C45.037,-64.2478 10.6562,-21.3641 3.22006,-12.0888"/>
</g>
<!-- 7 -->
<g id="node8" class="node"><title>7</title>
<ellipse fill="black" stroke="black" cx="129.132" cy="-114.256" rx="1.8" ry="1.8"/>
</g>
<!-- 0&#45;&#45;7 -->
<g id="edge7" class="edge"><title>0&#45;&#45;7</title>
<path fill="none" stroke="black" d="M55.2597,-75.642C65.7391,-81.1197 117.017,-107.923 127.325,-113.311"/>
</g>
<!-- 1&#45;&#45;2 -->
<g id="edge8" class="edge"><title>1&#45;&#45;2</title>
<path fill="none" stroke="black" d="M75.8625,-48.7804C72.5358,-40.7057 60.6322,-11.8132 57.3501,-3.84683"/>
</g>
<!-- 1&#45;&#45;3 -->
<g id="edge9" class="edge"><title>1&#45;&#45;3</title>
<path fill="none" stroke="black" d="M76.6739,-52.6971C76.3538,-62.7245 74.7984,-111.452 74.462,-121.991"/>
</g>
<!-- 1&#45;&#45;4 -->
<g id="edge10" class="edge"><title>1&#45;&#45;4</title>
<path fill="none" stroke="black" d="M78.8502,-50.4557C86.9607,-48.7944 115.981,-42.8497 123.983,-41.2106"/>
</g>
<!-- 1&#45;&#45;5 -->
<g id="edge11" class="edge"><title>1&#45;&#45;5</title>
<path fill="none" stroke="black" d="M74.9461,-51.7461C64.9529,-56.5392 16.0539,-79.993 6.2244,-84.7076"/>
</g>
<!-- 1&#45;&#45;6 -->
<g id="edge12" class="edge"><title>1&#45;&#45;6</title>
<path fill="none" stroke="black" d="M74.8793,-49.8868C64.5124,-44.2736 13.7846,-16.8067 3.58751,-11.2854"/>
</g>
<!-- 1&#45;&#45;7 -->
<g id="edge13" class="edge"><title>1&#45;&#45;7</title>
<path fill="none" stroke="black" d="M78.0269,-52.4561C85.2135,-61.1467 120.136,-103.377 127.689,-112.511"/>
</g>
<!-- 2&#45;&#45;4 -->
<g id="edge14" class="edge"><title>2&#45;&#45;4</title>
<path fill="none" stroke="black" d="M58.2256,-2.76379C67.7618,-8.11115 114.102,-34.096 124.125,-39.7162"/>
</g>
<!-- 2&#45;&#45;5 -->
<g id="edge15" class="edge"><title>2&#45;&#45;5</title>
<path fill="none" stroke="black" d="M55.4206,-3.5489C48.6526,-14.4461 12.3322,-72.9256 5.58156,-83.7947"/>
</g>
<!-- 2&#45;&#45;6 -->
<g id="edge16" class="edge"><title>2&#45;&#45;6</title>
<path fill="none" stroke="black" d="M54.6867,-2.08339C46.3807,-3.37658 12.1188,-8.71098 3.68313,-10.0244"/>
</g>
<!-- 3&#45;&#45;4 -->
<g id="edge17" class="edge"><title>3&#45;&#45;4</title>
<path fill="none" stroke="black" d="M75.4764,-122.266C82.1969,-111.436 118.263,-53.3196 124.966,-42.5179"/>
</g>
<!-- 3&#45;&#45;5 -->
<g id="edge18" class="edge"><title>3&#45;&#45;5</title>
<path fill="none" stroke="black" d="M72.67,-123.053C63.0838,-117.777 16.5007,-92.1382 6.42539,-86.593"/>
</g>
<!-- 3&#45;&#45;7 -->
<g id="edge19" class="edge"><title>3&#45;&#45;7</title>
<path fill="none" stroke="black" d="M76.2189,-123.679C84.5289,-122.199 118.808,-116.094 127.248,-114.591"/>
</g>
</g>
</svg>
