<?xml version="1.0" encoding="UTF-8" standalone="no"?>
<!DOCTYPE svg PUBLIC "-//W3C//DTD SVG 1.1//EN"
 "http://www.w3.org/Graphics/SVG/1.1/DTD/svg11.dtd">
<!-- Generated by graphviz version 2.36.0 (20140111.2315)
 -->
<!-- Title: %3 Pages: 1 -->
<svg width="159pt" height="228pt"
 viewBox="0.00 0.00 159.45 227.96" xmlns="http://www.w3.org/2000/svg" xmlns:xlink="http://www.w3.org/1999/xlink">
<g id="graph0" class="graph" transform="scale(1 1) rotate(0) translate(4 223.956)">
<title>%3</title>
<!-- 0 -->
<g id="node1" class="node"><title>0</title>
<ellipse fill="black" stroke="black" cx="67.6869" cy="-144.824" rx="1.8" ry="1.8"/>
</g>
<!-- 1 -->
<g id="node2" class="node"><title>1</title>
<ellipse fill="black" stroke="black" cx="76.1027" cy="-218.156" rx="1.8" ry="1.8"/>
</g>
<!-- 0&#45;&#45;1 -->
<g id="edge1" class="edge"><title>0&#45;&#45;1</title>
<path fill="none" stroke="black" d="M67.8949,-146.637C69.0491,-156.695 74.6579,-205.567 75.871,-216.137"/>
</g>
<!-- 2 -->
<g id="node3" class="node"><title>2</title>
<ellipse fill="black" stroke="black" cx="109.766" cy="-124.318" rx="1.8" ry="1.8"/>
</g>
<!-- 0&#45;&#45;2 -->
<g id="edge2" class="edge"><title>0&#45;&#45;2</title>
<path fill="none" stroke="black" d="M69.495,-143.943C76.4165,-140.57 101.183,-128.501 108.011,-125.173"/>
</g>
<!-- 3 -->
<g id="node4" class="node"><title>3</title>
<ellipse fill="black" stroke="black" cx="127.768" cy="-200.486" rx="1.8" ry="1.8"/>
</g>
<!-- 0&#45;&#45;3 -->
<g id="edge3" class="edge"><title>0&#45;&#45;3</title>
<path fill="none" stroke="black" d="M69.172,-146.2C77.4121,-153.834 117.453,-190.931 126.114,-198.954"/>
</g>
<!-- 4 -->
<g id="node5" class="node"><title>4</title>
<ellipse fill="black" stroke="black" cx="149.654" cy="-159.656" rx="1.8" ry="1.8"/>
</g>
<!-- 0&#45;&#45;4 -->
<g id="edge4" class="edge"><title>0&#45;&#45;4</title>
<path fill="none" stroke="black" d="M69.7131,-145.191C81.0534,-147.243 136.544,-157.284 147.699,-159.302"/>
</g>
<!-- 5 -->
<g id="node6" class="node"><title>5</title>
<ellipse fill="black" stroke="black" cx="21.3632" cy="-180.056" rx="1.8" ry="1.8"/>
</g>
<!-- 0&#45;&#45;5 -->
<g id="edge5" class="edge"><title>0&#45;&#45;5</title>
<path fill="none" stroke="black" d="M66.1456,-145.997C59.1125,-151.346 30.1008,-173.411 22.9577,-178.843"/>
</g>
<!-- 6 -->
<g id="node7" class="node"><title>6</title>
<ellipse fill="black" stroke="black" cx="27.1617" cy="-71.8927" rx="1.8" ry="1.8"/>
</g>
<!-- 0&#45;&#45;6 -->
<g id="edge6" class="edge"><title>0&#45;&#45;6</title>
<path fill="none" stroke="black" d="M66.6851,-143.022C61.0784,-132.931 33.6433,-83.5575 28.1284,-73.6325"/>
</g>
<!-- 1&#45;&#45;3 -->
<g id="edge7" class="edge"><title>1&#45;&#45;3</title>
<path fill="none" stroke="black" d="M77.8216,-217.568C85.6657,-214.885 118.023,-203.819 125.989,-201.095"/>
</g>
<!-- 1&#45;&#45;4 -->
<g id="edge8" class="edge"><title>1&#45;&#45;4</title>
<path fill="none" stroke="black" d="M77.6389,-216.934C87.2109,-209.321 138.579,-168.465 148.127,-160.871"/>
</g>
<!-- 1&#45;&#45;5 -->
<g id="edge9" class="edge"><title>1&#45;&#45;5</title>
<path fill="none" stroke="black" d="M74.2814,-216.888C65.9705,-211.104 31.6882,-187.242 23.2474,-181.367"/>
</g>
<!-- 2&#45;&#45;3 -->
<g id="edge10" class="edge"><title>2&#45;&#45;3</title>
<path fill="none" stroke="black" d="M110.211,-126.201C112.701,-136.739 124.888,-188.304 127.338,-198.669"/>
</g>
<!-- 2&#45;&#45;4 -->
<g id="edge11" class="edge"><title>2&#45;&#45;4</title>
<path fill="none" stroke="black" d="M111.48,-125.836C118.041,-131.649 141.518,-152.448 147.991,-158.182"/>
</g>
<!-- 2&#45;&#45;5 -->
<g id="edge12" class="edge"><title>2&#45;&#45;5</title>
<path fill="none" stroke="black" d="M108.231,-125.285C97.5011,-132.051 33.8078,-172.21 22.9398,-179.062"/>
</g>
<!-- 3&#45;&#45;4 -->
<g id="edge13" class="edge"><title>3&#45;&#45;4</title>
<path fill="none" stroke="black" d="M128.708,-198.732C132.308,-192.016 145.19,-167.984 148.742,-161.358"/>
</g>
<!-- 7 -->
<g id="node8" class="node"><title>7</title>
<ellipse fill="black" stroke="black" cx="1.8" cy="-1.8" rx="1.8" ry="1.8"/>
</g>
<!-- 6&#45;&#45;7 -->
<g id="edge14" class="edge"><title>6&#45;&#45;7</title>
<path fill="none" stroke="black" d="M26.5347,-70.1601C23.0564,-60.5469 6.15394,-13.8331 2.49814,-3.72946"/>
</g>
</g>
</svg>
