<?xml version="1.0" encoding="UTF-8" standalone="no"?>
<!DOCTYPE svg PUBLIC "-//W3C//DTD SVG 1.1//EN"
 "http://www.w3.org/Graphics/SVG/1.1/DTD/svg11.dtd">
<!-- Generated by graphviz version 2.36.0 (20140111.2315)
 -->
<!-- Title: %3 Pages: 1 -->
<svg width="212pt" height="212pt"
 viewBox="0.00 0.00 211.87 212.37" xmlns="http://www.w3.org/2000/svg" xmlns:xlink="http://www.w3.org/1999/xlink">
<g id="graph0" class="graph" transform="scale(1 1) rotate(0) translate(4 208.371)">
<title>%3</title>
<!-- 0 -->
<g id="node1" class="node"><title>0</title>
<ellipse fill="black" stroke="black" cx="76.1235" cy="-138.038" rx="1.8" ry="1.8"/>
</g>
<!-- 1 -->
<g id="node2" class="node"><title>1</title>
<ellipse fill="black" stroke="black" cx="122.094" cy="-80.5753" rx="1.8" ry="1.8"/>
</g>
<!-- 0&#45;&#45;1 -->
<g id="edge1" class="edge"><title>0&#45;&#45;1</title>
<path fill="none" stroke="black" d="M77.2599,-136.617C83.5647,-128.737 114.202,-90.4402 120.829,-82.1571"/>
</g>
<!-- 2 -->
<g id="node3" class="node"><title>2</title>
<ellipse fill="black" stroke="black" cx="41.901" cy="-113.946" rx="1.8" ry="1.8"/>
</g>
<!-- 0&#45;&#45;2 -->
<g id="edge2" class="edge"><title>0&#45;&#45;2</title>
<path fill="none" stroke="black" d="M74.2835,-136.743C68.2859,-132.52 49.3557,-119.194 43.5864,-115.132"/>
</g>
<!-- 3 -->
<g id="node4" class="node"><title>3</title>
<ellipse fill="black" stroke="black" cx="1.8" cy="-171.921" rx="1.8" ry="1.8"/>
</g>
<!-- 0&#45;&#45;3 -->
<g id="edge3" class="edge"><title>0&#45;&#45;3</title>
<path fill="none" stroke="black" d="M74.2863,-138.875C64.0035,-143.563 13.6874,-166.502 3.573,-171.113"/>
</g>
<!-- 4 -->
<g id="node5" class="node"><title>4</title>
<ellipse fill="black" stroke="black" cx="152.372" cy="-143.907" rx="1.8" ry="1.8"/>
</g>
<!-- 0&#45;&#45;4 -->
<g id="edge4" class="edge"><title>0&#45;&#45;4</title>
<path fill="none" stroke="black" d="M78.0083,-138.183C88.5574,-138.995 140.176,-142.968 150.553,-143.767"/>
</g>
<!-- 5 -->
<g id="node6" class="node"><title>5</title>
<ellipse fill="black" stroke="black" cx="51.6177" cy="-202.571" rx="1.8" ry="1.8"/>
</g>
<!-- 0&#45;&#45;5 -->
<g id="edge5" class="edge"><title>0&#45;&#45;5</title>
<path fill="none" stroke="black" d="M75.4165,-139.9C71.838,-149.323 55.7562,-191.673 52.2811,-200.824"/>
</g>
<!-- 7 -->
<g id="node7" class="node"><title>7</title>
<ellipse fill="black" stroke="black" cx="1.86683" cy="-73.1429" rx="1.8" ry="1.8"/>
</g>
<!-- 0&#45;&#45;7 -->
<g id="edge6" class="edge"><title>0&#45;&#45;7</title>
<path fill="none" stroke="black" d="M74.5725,-136.682C64.9087,-128.237 13.0482,-82.9146 3.40925,-74.4909"/>
</g>
<!-- 1&#45;&#45;2 -->
<g id="edge7" class="edge"><title>1&#45;&#45;2</title>
<path fill="none" stroke="black" d="M120.419,-81.2723C109.983,-85.6151 53.9763,-108.921 43.5668,-113.253"/>
</g>
<!-- 1&#45;&#45;4 -->
<g id="edge8" class="edge"><title>1&#45;&#45;4</title>
<path fill="none" stroke="black" d="M122.968,-82.4024C127.389,-91.6506 147.258,-133.212 151.552,-142.193"/>
</g>
<!-- 6 -->
<g id="node8" class="node"><title>6</title>
<ellipse fill="black" stroke="black" cx="202.069" cy="-95.7879" rx="1.8" ry="1.8"/>
</g>
<!-- 1&#45;&#45;6 -->
<g id="edge9" class="edge"><title>1&#45;&#45;6</title>
<path fill="none" stroke="black" d="M124.071,-80.9514C135.136,-83.056 189.278,-93.3548 200.162,-95.425"/>
</g>
<!-- 8 -->
<g id="node9" class="node"><title>8</title>
<ellipse fill="black" stroke="black" cx="135.611" cy="-1.8" rx="1.8" ry="1.8"/>
</g>
<!-- 1&#45;&#45;8 -->
<g id="edge10" class="edge"><title>1&#45;&#45;8</title>
<path fill="none" stroke="black" d="M122.428,-78.628C124.298,-67.7293 133.449,-14.3994 135.289,-3.6792"/>
</g>
<!-- 2&#45;&#45;3 -->
<g id="edge11" class="edge"><title>2&#45;&#45;3</title>
<path fill="none" stroke="black" d="M40.5668,-115.875C34.3697,-124.834 8.46086,-162.292 2.86743,-170.378"/>
</g>
<!-- 2&#45;&#45;5 -->
<g id="edge12" class="edge"><title>2&#45;&#45;5</title>
<path fill="none" stroke="black" d="M42.104,-115.797C43.3685,-127.331 50.1546,-189.226 51.4159,-200.73"/>
</g>
<!-- 2&#45;&#45;7 -->
<g id="edge13" class="edge"><title>2&#45;&#45;7</title>
<path fill="none" stroke="black" d="M40.569,-112.588C34.4908,-106.393 9.41809,-80.8392 3.2449,-74.5474"/>
</g>
<!-- 3&#45;&#45;5 -->
<g id="edge14" class="edge"><title>3&#45;&#45;5</title>
<path fill="none" stroke="black" d="M3.45753,-172.941C11.0212,-177.595 42.2211,-196.79 49.9029,-201.516"/>
</g>
<!-- 4&#45;&#45;6 -->
<g id="edge15" class="edge"><title>4&#45;&#45;6</title>
<path fill="none" stroke="black" d="M154.025,-142.306C161.705,-134.87 193.815,-103.781 200.747,-97.0688"/>
</g>
</g>
</svg>
