<?xml version="1.0" encoding="UTF-8" standalone="no"?>
<!DOCTYPE svg PUBLIC "-//W3C//DTD SVG 1.1//EN"
 "http://www.w3.org/Graphics/SVG/1.1/DTD/svg11.dtd">
<!-- Generated by graphviz version 2.36.0 (20140111.2315)
 -->
<!-- Title: %3 Pages: 1 -->
<svg width="161pt" height="138pt"
 viewBox="0.00 0.00 160.85 138.48" xmlns="http://www.w3.org/2000/svg" xmlns:xlink="http://www.w3.org/1999/xlink">
<g id="graph0" class="graph" transform="scale(1 1) rotate(0) translate(4 134.476)">
<title>%3</title>
<!-- 0 -->
<g id="node1" class="node"><title>0</title>
<ellipse fill="black" stroke="black" cx="57.2449" cy="-63.7494" rx="1.8" ry="1.8"/>
</g>
<!-- 1 -->
<g id="node2" class="node"><title>1</title>
<ellipse fill="black" stroke="black" cx="90.373" cy="-61.5597" rx="1.8" ry="1.8"/>
</g>
<!-- 0&#45;&#45;1 -->
<g id="edge1" class="edge"><title>0&#45;&#45;1</title>
<path fill="none" stroke="black" d="M59.4185,-63.6057C65.5219,-63.2023 82.7448,-62.0639 88.4849,-61.6845"/>
</g>
<!-- 2 -->
<g id="node3" class="node"><title>2</title>
<ellipse fill="black" stroke="black" cx="85.3259" cy="-25.1674" rx="1.8" ry="1.8"/>
</g>
<!-- 0&#45;&#45;2 -->
<g id="edge2" class="edge"><title>0&#45;&#45;2</title>
<path fill="none" stroke="black" d="M58.4515,-62.0916C63.0705,-55.7452 79.5981,-33.0372 84.1551,-26.7761"/>
</g>
<!-- 3 -->
<g id="node4" class="node"><title>3</title>
<ellipse fill="black" stroke="black" cx="27.9173" cy="-87.7716" rx="1.8" ry="1.8"/>
</g>
<!-- 0&#45;&#45;3 -->
<g id="edge3" class="edge"><title>0&#45;&#45;3</title>
<path fill="none" stroke="black" d="M55.6681,-65.0409C50.5283,-69.2509 34.3057,-82.5388 29.3617,-86.5885"/>
</g>
<!-- 4 -->
<g id="node5" class="node"><title>4</title>
<ellipse fill="black" stroke="black" cx="119.902" cy="-84.9255" rx="1.8" ry="1.8"/>
</g>
<!-- 0&#45;&#45;4 -->
<g id="edge4" class="edge"><title>0&#45;&#45;4</title>
<path fill="none" stroke="black" d="M59.0525,-64.3603C68.0417,-67.3983 107.888,-80.865 117.709,-84.1842"/>
</g>
<!-- 5 -->
<g id="node6" class="node"><title>5</title>
<ellipse fill="black" stroke="black" cx="78.6477" cy="-128.676" rx="1.8" ry="1.8"/>
</g>
<!-- 0&#45;&#45;5 -->
<g id="edge5" class="edge"><title>0&#45;&#45;5</title>
<path fill="none" stroke="black" d="M57.8623,-65.6225C60.9877,-75.1035 75.0332,-117.711 78.0683,-126.918"/>
</g>
<!-- 6 -->
<g id="node7" class="node"><title>6</title>
<ellipse fill="black" stroke="black" cx="1.8" cy="-29.7472" rx="1.8" ry="1.8"/>
</g>
<!-- 0&#45;&#45;6 -->
<g id="edge6" class="edge"><title>0&#45;&#45;6</title>
<path fill="none" stroke="black" d="M55.4001,-62.6181C46.9822,-57.4556 12.258,-36.1607 3.70854,-30.9176"/>
</g>
<!-- 7 -->
<g id="node8" class="node"><title>7</title>
<ellipse fill="black" stroke="black" cx="151.052" cy="-28.6456" rx="1.8" ry="1.8"/>
</g>
<!-- 0&#45;&#45;7 -->
<g id="edge7" class="edge"><title>0&#45;&#45;7</title>
<path fill="none" stroke="black" d="M59.2042,-63.0162C71.4122,-58.4478 136.926,-33.9314 149.103,-29.3748"/>
</g>
<!-- 8 -->
<g id="node9" class="node"><title>8</title>
<ellipse fill="black" stroke="black" cx="54.2679" cy="-1.8" rx="1.8" ry="1.8"/>
</g>
<!-- 0&#45;&#45;8 -->
<g id="edge8" class="edge"><title>0&#45;&#45;8</title>
<path fill="none" stroke="black" d="M57.1458,-61.6882C56.6938,-52.2827 54.8294,-13.4849 54.3703,-3.93244"/>
</g>
<!-- 1&#45;&#45;2 -->
<g id="edge9" class="edge"><title>1&#45;&#45;2</title>
<path fill="none" stroke="black" d="M90.1016,-59.6031C89.2171,-53.2251 86.4253,-33.0947 85.5745,-26.9596"/>
</g>
<!-- 1&#45;&#45;3 -->
<g id="edge10" class="edge"><title>1&#45;&#45;3</title>
<path fill="none" stroke="black" d="M88.5711,-62.3159C79.4509,-66.1435 38.4647,-83.345 29.6081,-87.062"/>
</g>
<!-- 1&#45;&#45;4 -->
<g id="edge11" class="edge"><title>1&#45;&#45;4</title>
<path fill="none" stroke="black" d="M91.9606,-62.8159C97.1357,-66.9109 113.47,-79.8357 118.448,-83.7747"/>
</g>
<!-- 1&#45;&#45;5 -->
<g id="edge12" class="edge"><title>1&#45;&#45;5</title>
<path fill="none" stroke="black" d="M90.0347,-63.4959C88.3225,-73.2967 80.6278,-117.341 78.9651,-126.859"/>
</g>
<!-- 1&#45;&#45;6 -->
<g id="edge13" class="edge"><title>1&#45;&#45;6</title>
<path fill="none" stroke="black" d="M88.523,-60.8952C76.9961,-56.7551 15.137,-34.5374 3.63979,-30.408"/>
</g>
<!-- 1&#45;&#45;7 -->
<g id="edge14" class="edge"><title>1&#45;&#45;7</title>
<path fill="none" stroke="black" d="M92.1235,-60.6101C100.984,-55.8038 140.804,-34.2041 149.409,-29.5367"/>
</g>
<!-- 1&#45;&#45;8 -->
<g id="edge15" class="edge"><title>1&#45;&#45;8</title>
<path fill="none" stroke="black" d="M89.3313,-59.8356C84.059,-51.1091 60.3652,-11.8921 55.2453,-3.41776"/>
</g>
<!-- 2&#45;&#45;3 -->
<g id="edge16" class="edge"><title>2&#45;&#45;3</title>
<path fill="none" stroke="black" d="M83.9068,-26.7149C76.0333,-35.301 37.7729,-77.0241 29.4976,-86.0483"/>
</g>
<!-- 2&#45;&#45;4 -->
<g id="edge17" class="edge"><title>2&#45;&#45;4</title>
<path fill="none" stroke="black" d="M86.3234,-26.8914C91.3725,-35.6177 114.063,-74.8336 118.966,-83.3077"/>
</g>
<!-- 2&#45;&#45;5 -->
<g id="edge18" class="edge"><title>2&#45;&#45;5</title>
<path fill="none" stroke="black" d="M85.21,-26.9639C84.3994,-39.5276 79.5878,-114.105 78.7668,-126.83"/>
</g>
<!-- 2&#45;&#45;6 -->
<g id="edge19" class="edge"><title>2&#45;&#45;6</title>
<path fill="none" stroke="black" d="M83.2612,-25.2806C71.7053,-25.9142 15.1592,-29.0147 3.79253,-29.6379"/>
</g>
<!-- 2&#45;&#45;7 -->
<g id="edge20" class="edge"><title>2&#45;&#45;7</title>
<path fill="none" stroke="black" d="M87.2221,-25.2677C96.6514,-25.7667 138.449,-27.9787 148.751,-28.5239"/>
</g>
<!-- 3&#45;&#45;4 -->
<g id="edge21" class="edge"><title>3&#45;&#45;4</title>
<path fill="none" stroke="black" d="M29.8386,-87.7121C41.8095,-87.3418 106.051,-85.354 117.991,-84.9846"/>
</g>
<!-- 3&#45;&#45;5 -->
<g id="edge22" class="edge"><title>3&#45;&#45;5</title>
<path fill="none" stroke="black" d="M29.6052,-89.1325C37.3074,-95.3428 69.0789,-120.96 76.9015,-127.268"/>
</g>
<!-- 3&#45;&#45;6 -->
<g id="edge23" class="edge"><title>3&#45;&#45;6</title>
<path fill="none" stroke="black" d="M27.0484,-85.841C23.0831,-77.0314 6.72626,-40.6918 2.69902,-31.7445"/>
</g>
<!-- 3&#45;&#45;8 -->
<g id="edge24" class="edge"><title>3&#45;&#45;8</title>
<path fill="none" stroke="black" d="M28.4677,-85.976C31.897,-74.7876 50.3001,-14.7453 53.7205,-3.58576"/>
</g>
<!-- 4&#45;&#45;5 -->
<g id="edge25" class="edge"><title>4&#45;&#45;5</title>
<path fill="none" stroke="black" d="M118.529,-86.3811C112.266,-93.0235 86.4291,-120.423 80.0678,-127.17"/>
</g>
<!-- 4&#45;&#45;7 -->
<g id="edge26" class="edge"><title>4&#45;&#45;7</title>
<path fill="none" stroke="black" d="M120.938,-83.0529C125.668,-74.5082 145.176,-39.2612 149.979,-30.5829"/>
</g>
<!-- 4&#45;&#45;8 -->
<g id="edge27" class="edge"><title>4&#45;&#45;8</title>
<path fill="none" stroke="black" d="M118.763,-83.4827C110.796,-73.3931 63.5074,-13.5018 55.4384,-3.28252"/>
</g>
</g>
</svg>
