<?xml version="1.0" encoding="UTF-8" standalone="no"?>
<!DOCTYPE svg PUBLIC "-//W3C//DTD SVG 1.1//EN"
 "http://www.w3.org/Graphics/SVG/1.1/DTD/svg11.dtd">
<!-- Generated by graphviz version 2.36.0 (20140111.2315)
 -->
<!-- Title: %3 Pages: 1 -->
<svg width="235pt" height="170pt"
 viewBox="0.00 0.00 235.25 169.62" xmlns="http://www.w3.org/2000/svg" xmlns:xlink="http://www.w3.org/1999/xlink">
<g id="graph0" class="graph" transform="scale(1 1) rotate(0) translate(4 165.625)">
<title>%3</title>
<!-- 0 -->
<g id="node1" class="node"><title>0</title>
<ellipse fill="black" stroke="black" cx="141.454" cy="-88.2149" rx="1.8" ry="1.8"/>
</g>
<!-- 1 -->
<g id="node2" class="node"><title>1</title>
<ellipse fill="black" stroke="black" cx="154.718" cy="-44.8526" rx="1.8" ry="1.8"/>
</g>
<!-- 0&#45;&#45;1 -->
<g id="edge1" class="edge"><title>0&#45;&#45;1</title>
<path fill="none" stroke="black" d="M142.024,-86.3516C144.206,-79.219 152.012,-53.6975 154.165,-46.6606"/>
</g>
<!-- 2 -->
<g id="node3" class="node"><title>2</title>
<ellipse fill="black" stroke="black" cx="203.345" cy="-26.6971" rx="1.8" ry="1.8"/>
</g>
<!-- 0&#45;&#45;2 -->
<g id="edge2" class="edge"><title>0&#45;&#45;2</title>
<path fill="none" stroke="black" d="M142.984,-86.6942C151.473,-78.2571 192.72,-37.2581 201.641,-28.3905"/>
</g>
<!-- 3 -->
<g id="node4" class="node"><title>3</title>
<ellipse fill="black" stroke="black" cx="194.018" cy="-108.801" rx="1.8" ry="1.8"/>
</g>
<!-- 0&#45;&#45;3 -->
<g id="edge3" class="edge"><title>0&#45;&#45;3</title>
<path fill="none" stroke="black" d="M143.203,-88.8998C151.184,-92.0253 184.103,-104.918 192.208,-108.093"/>
</g>
<!-- 4 -->
<g id="node5" class="node"><title>4</title>
<ellipse fill="black" stroke="black" cx="225.448" cy="-85.6391" rx="1.8" ry="1.8"/>
</g>
<!-- 0&#45;&#45;4 -->
<g id="edge4" class="edge"><title>0&#45;&#45;4</title>
<path fill="none" stroke="black" d="M143.531,-88.1512C155.151,-87.7948 212.014,-86.0511 223.445,-85.7005"/>
</g>
<!-- 5 -->
<g id="node6" class="node"><title>5</title>
<ellipse fill="black" stroke="black" cx="76.6776" cy="-54.0625" rx="1.8" ry="1.8"/>
</g>
<!-- 0&#45;&#45;5 -->
<g id="edge5" class="edge"><title>0&#45;&#45;5</title>
<path fill="none" stroke="black" d="M139.853,-87.3706C130.969,-82.6867 87.7981,-59.9256 78.4608,-55.0026"/>
</g>
<!-- 6 -->
<g id="node7" class="node"><title>6</title>
<ellipse fill="black" stroke="black" cx="125.809" cy="-1.8" rx="1.8" ry="1.8"/>
</g>
<!-- 0&#45;&#45;6 -->
<g id="edge6" class="edge"><title>0&#45;&#45;6</title>
<path fill="none" stroke="black" d="M141.128,-86.41C139.092,-75.1639 128.165,-14.8121 126.134,-3.59497"/>
</g>
<!-- 7 -->
<g id="node8" class="node"><title>7</title>
<ellipse fill="black" stroke="black" cx="177.338" cy="-159.825" rx="1.8" ry="1.8"/>
</g>
<!-- 0&#45;&#45;7 -->
<g id="edge7" class="edge"><title>0&#45;&#45;7</title>
<path fill="none" stroke="black" d="M142.342,-89.985C147.306,-99.8924 171.599,-148.372 176.482,-158.117"/>
</g>
<!-- 1&#45;&#45;2 -->
<g id="edge8" class="edge"><title>1&#45;&#45;2</title>
<path fill="none" stroke="black" d="M156.807,-44.0725C164.806,-41.0861 193.426,-30.4004 201.317,-27.4541"/>
</g>
<!-- 1&#45;&#45;3 -->
<g id="edge9" class="edge"><title>1&#45;&#45;3</title>
<path fill="none" stroke="black" d="M155.689,-46.4334C161.079,-55.2039 187.271,-97.8229 192.936,-107.041"/>
</g>
<!-- 1&#45;&#45;4 -->
<g id="edge10" class="edge"><title>1&#45;&#45;4</title>
<path fill="none" stroke="black" d="M156.466,-45.8608C166.252,-51.5037 214.136,-79.1157 223.761,-84.6661"/>
</g>
<!-- 1&#45;&#45;5 -->
<g id="edge11" class="edge"><title>1&#45;&#45;5</title>
<path fill="none" stroke="black" d="M152.789,-45.0803C141.992,-46.3545 89.1594,-52.5895 78.5393,-53.8428"/>
</g>
<!-- 1&#45;&#45;6 -->
<g id="edge12" class="edge"><title>1&#45;&#45;6</title>
<path fill="none" stroke="black" d="M153.475,-43.0027C148.72,-35.921 131.706,-10.5817 127.015,-3.59511"/>
</g>
<!-- 2&#45;&#45;3 -->
<g id="edge13" class="edge"><title>2&#45;&#45;3</title>
<path fill="none" stroke="black" d="M203.114,-28.7266C201.824,-40.0859 195.509,-95.6694 194.24,-106.843"/>
</g>
<!-- 2&#45;&#45;4 -->
<g id="edge14" class="edge"><title>2&#45;&#45;4</title>
<path fill="none" stroke="black" d="M203.982,-28.3975C207.154,-36.8537 221.21,-74.3371 224.675,-83.5759"/>
</g>
<!-- 2&#45;&#45;6 -->
<g id="edge15" class="edge"><title>2&#45;&#45;6</title>
<path fill="none" stroke="black" d="M201.428,-26.0817C190.701,-22.6371 138.21,-5.78207 127.659,-2.39392"/>
</g>
<!-- 3&#45;&#45;4 -->
<g id="edge16" class="edge"><title>3&#45;&#45;4</title>
<path fill="none" stroke="black" d="M195.707,-107.556C201.216,-103.497 218.602,-90.6845 223.9,-86.7798"/>
</g>
<!-- 3&#45;&#45;7 -->
<g id="edge17" class="edge"><title>3&#45;&#45;7</title>
<path fill="none" stroke="black" d="M193.301,-110.994C190.557,-119.387 180.74,-149.417 178.033,-157.697"/>
</g>
<!-- 4&#45;&#45;7 -->
<g id="edge18" class="edge"><title>4&#45;&#45;7</title>
<path fill="none" stroke="black" d="M224.444,-87.1886C218.182,-96.8432 184.582,-148.654 178.337,-158.284"/>
</g>
<!-- 5&#45;&#45;6 -->
<g id="edge19" class="edge"><title>5&#45;&#45;6</title>
<path fill="none" stroke="black" d="M78.3123,-52.3236C85.905,-44.2471 117.648,-10.4809 124.501,-3.19116"/>
</g>
<!-- 8 -->
<g id="node9" class="node"><title>8</title>
<ellipse fill="black" stroke="black" cx="1.8" cy="-51.4123" rx="1.8" ry="1.8"/>
</g>
<!-- 5&#45;&#45;8 -->
<g id="edge20" class="edge"><title>5&#45;&#45;8</title>
<path fill="none" stroke="black" d="M74.8267,-53.997C64.5573,-53.6335 14.6546,-51.8672 3.86117,-51.4852"/>
</g>
</g>
</svg>
