<?xml version="1.0" encoding="UTF-8" standalone="no"?>
<!DOCTYPE svg PUBLIC "-//W3C//DTD SVG 1.1//EN"
 "http://www.w3.org/Graphics/SVG/1.1/DTD/svg11.dtd">
<!-- Generated by graphviz version 2.36.0 (20140111.2315)
 -->
<!-- Title: %3 Pages: 1 -->
<svg width="202pt" height="148pt"
 viewBox="0.00 0.00 201.86 147.68" xmlns="http://www.w3.org/2000/svg" xmlns:xlink="http://www.w3.org/1999/xlink">
<g id="graph0" class="graph" transform="scale(1 1) rotate(0) translate(4 143.682)">
<title>%3</title>
<!-- 0 -->
<g id="node1" class="node"><title>0</title>
<ellipse fill="black" stroke="black" cx="65.1101" cy="-49.1219" rx="1.8" ry="1.8"/>
</g>
<!-- 1 -->
<g id="node2" class="node"><title>1</title>
<ellipse fill="black" stroke="black" cx="139.702" cy="-56.0534" rx="1.8" ry="1.8"/>
</g>
<!-- 0&#45;&#45;1 -->
<g id="edge1" class="edge"><title>0&#45;&#45;1</title>
<path fill="none" stroke="black" d="M66.9539,-49.2932C77.1841,-50.2439 126.896,-54.8635 137.648,-55.8626"/>
</g>
<!-- 2 -->
<g id="node3" class="node"><title>2</title>
<ellipse fill="black" stroke="black" cx="121.498" cy="-95.3393" rx="1.8" ry="1.8"/>
</g>
<!-- 0&#45;&#45;2 -->
<g id="edge2" class="edge"><title>0&#45;&#45;2</title>
<path fill="none" stroke="black" d="M66.5039,-50.2643C74.2374,-56.603 111.818,-87.4049 119.946,-94.067"/>
</g>
<!-- 3 -->
<g id="node4" class="node"><title>3</title>
<ellipse fill="black" stroke="black" cx="61.4302" cy="-87.3722" rx="1.8" ry="1.8"/>
</g>
<!-- 0&#45;&#45;3 -->
<g id="edge3" class="edge"><title>0&#45;&#45;3</title>
<path fill="none" stroke="black" d="M64.9122,-51.1784C64.2673,-57.882 62.2318,-79.0402 61.6115,-85.4884"/>
</g>
<!-- 4 -->
<g id="node5" class="node"><title>4</title>
<ellipse fill="black" stroke="black" cx="90.505" cy="-128.476" rx="1.8" ry="1.8"/>
</g>
<!-- 0&#45;&#45;4 -->
<g id="edge4" class="edge"><title>0&#45;&#45;4</title>
<path fill="none" stroke="black" d="M65.7378,-51.0834C69.2512,-62.0622 86.4433,-115.784 89.8992,-126.583"/>
</g>
<!-- 5 -->
<g id="node6" class="node"><title>5</title>
<ellipse fill="black" stroke="black" cx="40.3442" cy="-137.882" rx="1.8" ry="1.8"/>
</g>
<!-- 0&#45;&#45;5 -->
<g id="edge5" class="edge"><title>0&#45;&#45;5</title>
<path fill="none" stroke="black" d="M64.5928,-50.9758C61.3697,-62.527 44.0734,-124.516 40.8586,-136.038"/>
</g>
<!-- 6 -->
<g id="node7" class="node"><title>6</title>
<ellipse fill="black" stroke="black" cx="1.8" cy="-90.1057" rx="1.8" ry="1.8"/>
</g>
<!-- 0&#45;&#45;6 -->
<g id="edge6" class="edge"><title>0&#45;&#45;6</title>
<path fill="none" stroke="black" d="M63.5451,-50.135C54.8622,-55.7559 12.6687,-83.0699 3.54275,-88.9776"/>
</g>
<!-- 7 -->
<g id="node8" class="node"><title>7</title>
<ellipse fill="black" stroke="black" cx="119.618" cy="-1.8" rx="1.8" ry="1.8"/>
</g>
<!-- 0&#45;&#45;7 -->
<g id="edge7" class="edge"><title>0&#45;&#45;7</title>
<path fill="none" stroke="black" d="M66.9236,-47.5474C75.3471,-40.2344 110.564,-9.66026 118.167,-3.05964"/>
</g>
<!-- 1&#45;&#45;2 -->
<g id="edge8" class="edge"><title>1&#45;&#45;2</title>
<path fill="none" stroke="black" d="M138.92,-57.7415C135.925,-64.2036 125.211,-87.3259 122.257,-93.7012"/>
</g>
<!-- 1&#45;&#45;3 -->
<g id="edge9" class="edge"><title>1&#45;&#45;3</title>
<path fill="none" stroke="black" d="M137.767,-56.8276C126.938,-61.1606 73.9491,-82.3631 63.2974,-86.6251"/>
</g>
<!-- 1&#45;&#45;4 -->
<g id="edge10" class="edge"><title>1&#45;&#45;4</title>
<path fill="none" stroke="black" d="M138.674,-57.5661C132.272,-66.9912 97.9129,-117.571 91.5269,-126.971"/>
</g>
<!-- 1&#45;&#45;7 -->
<g id="edge11" class="edge"><title>1&#45;&#45;7</title>
<path fill="none" stroke="black" d="M139.034,-54.2483C135.984,-46.0112 123.406,-12.0333 120.309,-3.66753"/>
</g>
<!-- 8 -->
<g id="node9" class="node"><title>8</title>
<ellipse fill="black" stroke="black" cx="192.057" cy="-2.27882" rx="1.8" ry="1.8"/>
</g>
<!-- 1&#45;&#45;8 -->
<g id="edge12" class="edge"><title>1&#45;&#45;8</title>
<path fill="none" stroke="black" d="M140.996,-54.7242C148.176,-47.349 183.069,-11.5105 190.616,-3.75909"/>
</g>
<!-- 2&#45;&#45;3 -->
<g id="edge13" class="edge"><title>2&#45;&#45;3</title>
<path fill="none" stroke="black" d="M119.499,-95.0742C110.38,-93.8646 72.7602,-88.875 63.4979,-87.6465"/>
</g>
<!-- 2&#45;&#45;4 -->
<g id="edge14" class="edge"><title>2&#45;&#45;4</title>
<path fill="none" stroke="black" d="M120.166,-96.7631C115.068,-102.214 96.8268,-121.717 91.7972,-127.094"/>
</g>
<!-- 2&#45;&#45;5 -->
<g id="edge15" class="edge"><title>2&#45;&#45;5</title>
<path fill="none" stroke="black" d="M119.803,-96.2278C109.242,-101.764 52.5641,-131.476 42.0299,-136.998"/>
</g>
<!-- 2&#45;&#45;7 -->
<g id="edge16" class="edge"><title>2&#45;&#45;7</title>
<path fill="none" stroke="black" d="M121.459,-93.3856C121.214,-81.2123 119.901,-15.8849 119.657,-3.74295"/>
</g>
<!-- 3&#45;&#45;4 -->
<g id="edge17" class="edge"><title>3&#45;&#45;4</title>
<path fill="none" stroke="black" d="M62.6795,-89.1384C67.462,-95.8995 84.5744,-120.092 89.2927,-126.762"/>
</g>
<!-- 3&#45;&#45;5 -->
<g id="edge18" class="edge"><title>3&#45;&#45;5</title>
<path fill="none" stroke="black" d="M60.7287,-89.0528C57.5273,-96.7214 44.3214,-128.355 41.07,-136.143"/>
</g>
<!-- 3&#45;&#45;6 -->
<g id="edge19" class="edge"><title>3&#45;&#45;6</title>
<path fill="none" stroke="black" d="M59.4462,-87.4632C50.3928,-87.8782 13.0475,-89.5901 3.85261,-90.0116"/>
</g>
<!-- 4&#45;&#45;5 -->
<g id="edge20" class="edge"><title>4&#45;&#45;5</title>
<path fill="none" stroke="black" d="M88.3496,-128.88C80.0987,-130.427 50.5758,-135.963 42.4357,-137.489"/>
</g>
<!-- 4&#45;&#45;6 -->
<g id="edge21" class="edge"><title>4&#45;&#45;6</title>
<path fill="none" stroke="black" d="M88.6522,-127.674C77.1081,-122.681 15.1569,-95.8834 3.64254,-90.9027"/>
</g>
<!-- 5&#45;&#45;6 -->
<g id="edge22" class="edge"><title>5&#45;&#45;6</title>
<path fill="none" stroke="black" d="M39.0617,-136.292C33.2097,-129.038 9.07022,-99.1172 3.12678,-91.7503"/>
</g>
<!-- 7&#45;&#45;8 -->
<g id="edge23" class="edge"><title>7&#45;&#45;8</title>
<path fill="none" stroke="black" d="M121.707,-1.81381C132.286,-1.88373 179.823,-2.19796 190.096,-2.26586"/>
</g>
</g>
</svg>
