<?xml version="1.0" encoding="UTF-8" standalone="no"?>
<!DOCTYPE svg PUBLIC "-//W3C//DTD SVG 1.1//EN"
 "http://www.w3.org/Graphics/SVG/1.1/DTD/svg11.dtd">
<!-- Generated by graphviz version 2.36.0 (20140111.2315)
 -->
<!-- Title: %3 Pages: 1 -->
<svg width="142pt" height="177pt"
 viewBox="0.00 0.00 141.69 177.03" xmlns="http://www.w3.org/2000/svg" xmlns:xlink="http://www.w3.org/1999/xlink">
<g id="graph0" class="graph" transform="scale(1 1) rotate(0) translate(4 173.026)">
<title>%3</title>
<!-- 0 -->
<g id="node1" class="node"><title>0</title>
<ellipse fill="black" stroke="black" cx="61.4126" cy="-79.8666" rx="1.8" ry="1.8"/>
</g>
<!-- 1 -->
<g id="node2" class="node"><title>1</title>
<ellipse fill="black" stroke="black" cx="53.191" cy="-137.946" rx="1.8" ry="1.8"/>
</g>
<!-- 0&#45;&#45;1 -->
<g id="edge1" class="edge"><title>0&#45;&#45;1</title>
<path fill="none" stroke="black" d="M61.139,-81.799C59.8908,-90.6169 54.7418,-126.991 53.474,-135.946"/>
</g>
<!-- 2 -->
<g id="node3" class="node"><title>2</title>
<ellipse fill="black" stroke="black" cx="80.8734" cy="-112.88" rx="1.8" ry="1.8"/>
</g>
<!-- 0&#45;&#45;2 -->
<g id="edge2" class="edge"><title>0&#45;&#45;2</title>
<path fill="none" stroke="black" d="M62.4589,-81.6415C65.8695,-87.4273 76.6342,-105.689 79.9149,-111.254"/>
</g>
<!-- 3 -->
<g id="node4" class="node"><title>3</title>
<ellipse fill="black" stroke="black" cx="72.3516" cy="-167.226" rx="1.8" ry="1.8"/>
</g>
<!-- 0&#45;&#45;3 -->
<g id="edge3" class="edge"><title>0&#45;&#45;3</title>
<path fill="none" stroke="black" d="M61.641,-81.6912C63.0647,-93.0602 70.7044,-154.072 72.1243,-165.411"/>
</g>
<!-- 4 -->
<g id="node5" class="node"><title>4</title>
<ellipse fill="black" stroke="black" cx="4.31642" cy="-153.143" rx="1.8" ry="1.8"/>
</g>
<!-- 0&#45;&#45;4 -->
<g id="edge4" class="edge"><title>0&#45;&#45;4</title>
<path fill="none" stroke="black" d="M60.22,-81.3971C52.7895,-90.9334 12.9138,-142.11 5.50239,-151.621"/>
</g>
<!-- 5 -->
<g id="node6" class="node"><title>5</title>
<ellipse fill="black" stroke="black" cx="129.551" cy="-150.234" rx="1.8" ry="1.8"/>
</g>
<!-- 0&#45;&#45;5 -->
<g id="edge5" class="edge"><title>0&#45;&#45;5</title>
<path fill="none" stroke="black" d="M62.8357,-81.3363C71.7033,-90.494 119.291,-139.639 128.136,-148.773"/>
</g>
<!-- 6 -->
<g id="node7" class="node"><title>6</title>
<ellipse fill="black" stroke="black" cx="1.8" cy="-102.126" rx="1.8" ry="1.8"/>
</g>
<!-- 0&#45;&#45;6 -->
<g id="edge6" class="edge"><title>0&#45;&#45;6</title>
<path fill="none" stroke="black" d="M59.6928,-80.5088C51.1404,-83.7022 13.2305,-97.8578 3.88669,-101.347"/>
</g>
<!-- 7 -->
<g id="node8" class="node"><title>7</title>
<ellipse fill="black" stroke="black" cx="131.887" cy="-98.5669" rx="1.8" ry="1.8"/>
</g>
<!-- 0&#45;&#45;7 -->
<g id="edge7" class="edge"><title>0&#45;&#45;7</title>
<path fill="none" stroke="black" d="M63.1546,-80.3289C72.8201,-82.8936 119.788,-95.3566 129.947,-98.0522"/>
</g>
<!-- 8 -->
<g id="node9" class="node"><title>8</title>
<ellipse fill="black" stroke="black" cx="58.3181" cy="-1.8" rx="1.8" ry="1.8"/>
</g>
<!-- 0&#45;&#45;8 -->
<g id="edge8" class="edge"><title>0&#45;&#45;8</title>
<path fill="none" stroke="black" d="M61.3361,-77.9368C60.9079,-67.1362 58.813,-14.2861 58.3919,-3.66229"/>
</g>
<!-- 1&#45;&#45;2 -->
<g id="edge9" class="edge"><title>1&#45;&#45;2</title>
<path fill="none" stroke="black" d="M54.6794,-136.598C59.5308,-132.205 74.8433,-118.34 79.51,-114.114"/>
</g>
<!-- 1&#45;&#45;3 -->
<g id="edge10" class="edge"><title>1&#45;&#45;3</title>
<path fill="none" stroke="black" d="M54.2212,-139.52C57.517,-144.556 67.7878,-160.252 71.221,-165.498"/>
</g>
<!-- 1&#45;&#45;4 -->
<g id="edge11" class="edge"><title>1&#45;&#45;4</title>
<path fill="none" stroke="black" d="M51.0909,-138.599C43.0516,-141.098 14.2857,-150.043 6.35428,-152.51"/>
</g>
<!-- 1&#45;&#45;5 -->
<g id="edge12" class="edge"><title>1&#45;&#45;5</title>
<path fill="none" stroke="black" d="M55.0786,-138.249C65.6431,-139.95 117.338,-148.269 127.729,-149.941"/>
</g>
<!-- 1&#45;&#45;6 -->
<g id="edge13" class="edge"><title>1&#45;&#45;6</title>
<path fill="none" stroke="black" d="M51.4812,-136.754C43.6787,-131.315 11.4934,-108.882 3.569,-103.359"/>
</g>
<!-- 1&#45;&#45;7 -->
<g id="edge14" class="edge"><title>1&#45;&#45;7</title>
<path fill="none" stroke="black" d="M54.8347,-137.123C65.0762,-131.998 120.037,-104.496 130.252,-99.3849"/>
</g>
<!-- 2&#45;&#45;3 -->
<g id="edge15" class="edge"><title>2&#45;&#45;3</title>
<path fill="none" stroke="black" d="M80.5898,-114.688C79.296,-122.939 73.959,-156.975 72.6449,-165.355"/>
</g>
<!-- 2&#45;&#45;4 -->
<g id="edge16" class="edge"><title>2&#45;&#45;4</title>
<path fill="none" stroke="black" d="M79.2744,-113.721C69.3971,-118.916 16.7627,-146.598 6.17327,-152.167"/>
</g>
<!-- 2&#45;&#45;5 -->
<g id="edge17" class="edge"><title>2&#45;&#45;5</title>
<path fill="none" stroke="black" d="M82.4929,-114.123C89.8835,-119.794 120.369,-143.189 127.875,-148.949"/>
</g>
<!-- 2&#45;&#45;6 -->
<g id="edge18" class="edge"><title>2&#45;&#45;6</title>
<path fill="none" stroke="black" d="M78.9187,-112.614C67.9788,-111.126 14.4471,-103.846 3.68631,-102.382"/>
</g>
<!-- 2&#45;&#45;7 -->
<g id="edge19" class="edge"><title>2&#45;&#45;7</title>
<path fill="none" stroke="black" d="M83.0653,-112.265C91.4565,-109.911 121.481,-101.486 129.759,-99.1637"/>
</g>
<!-- 3&#45;&#45;4 -->
<g id="edge20" class="edge"><title>3&#45;&#45;4</title>
<path fill="none" stroke="black" d="M70.3888,-166.82C60.4538,-164.763 15.8061,-155.522 6.15821,-153.525"/>
</g>
<!-- 3&#45;&#45;5 -->
<g id="edge21" class="edge"><title>3&#45;&#45;5</title>
<path fill="none" stroke="black" d="M74.2547,-166.661C82.9391,-164.081 118.762,-153.439 127.582,-150.819"/>
</g>
<!-- 3&#45;&#45;6 -->
<g id="edge22" class="edge"><title>3&#45;&#45;6</title>
<path fill="none" stroke="black" d="M70.878,-165.866C61.6964,-157.394 12.4234,-111.928 3.26546,-103.478"/>
</g>
<!-- 3&#45;&#45;7 -->
<g id="edge23" class="edge"><title>3&#45;&#45;7</title>
<path fill="none" stroke="black" d="M73.595,-165.792C81.3429,-156.857 122.922,-108.905 130.65,-99.9931"/>
</g>
<!-- 4&#45;&#45;6 -->
<g id="edge24" class="edge"><title>4&#45;&#45;6</title>
<path fill="none" stroke="black" d="M4.20829,-150.951C3.79437,-142.559 2.31329,-112.532 1.90492,-104.253"/>
</g>
<!-- 5&#45;&#45;7 -->
<g id="edge25" class="edge"><title>5&#45;&#45;7</title>
<path fill="none" stroke="black" d="M129.651,-148.014C130.036,-139.516 131.41,-109.106 131.789,-100.721"/>
</g>
</g>
</svg>
