<?xml version="1.0" encoding="UTF-8" standalone="no"?>
<!DOCTYPE svg PUBLIC "-//W3C//DTD SVG 1.1//EN"
 "http://www.w3.org/Graphics/SVG/1.1/DTD/svg11.dtd">
<!-- Generated by graphviz version 2.36.0 (20140111.2315)
 -->
<!-- Title: %3 Pages: 1 -->
<svg width="157pt" height="174pt"
 viewBox="0.00 0.00 156.54 173.79" xmlns="http://www.w3.org/2000/svg" xmlns:xlink="http://www.w3.org/1999/xlink">
<g id="graph0" class="graph" transform="scale(1 1) rotate(0) translate(4 169.791)">
<title>%3</title>
<!-- 0 -->
<g id="node1" class="node"><title>0</title>
<ellipse fill="black" stroke="black" cx="75.6226" cy="-131.849" rx="1.8" ry="1.8"/>
</g>
<!-- 1 -->
<g id="node2" class="node"><title>1</title>
<ellipse fill="black" stroke="black" cx="77.1639" cy="-96.2493" rx="1.8" ry="1.8"/>
</g>
<!-- 0&#45;&#45;1 -->
<g id="edge1" class="edge"><title>0&#45;&#45;1</title>
<path fill="none" stroke="black" d="M75.7054,-129.935C75.9706,-123.811 76.7968,-104.729 77.073,-98.3499"/>
</g>
<!-- 2 -->
<g id="node3" class="node"><title>2</title>
<ellipse fill="black" stroke="black" cx="88.7759" cy="-50.631" rx="1.8" ry="1.8"/>
</g>
<!-- 0&#45;&#45;2 -->
<g id="edge2" class="edge"><title>0&#45;&#45;2</title>
<path fill="none" stroke="black" d="M75.9477,-129.841C77.7675,-118.605 86.6722,-63.6211 88.4622,-52.5685"/>
</g>
<!-- 3 -->
<g id="node4" class="node"><title>3</title>
<ellipse fill="black" stroke="black" cx="143.428" cy="-75.5536" rx="1.8" ry="1.8"/>
</g>
<!-- 0&#45;&#45;3 -->
<g id="edge3" class="edge"><title>0&#45;&#45;3</title>
<path fill="none" stroke="black" d="M77.2987,-130.457C86.7613,-122.601 133.384,-83.8924 142.043,-76.7036"/>
</g>
<!-- 4 -->
<g id="node5" class="node"><title>4</title>
<ellipse fill="black" stroke="black" cx="146.413" cy="-118.349" rx="1.8" ry="1.8"/>
</g>
<!-- 0&#45;&#45;4 -->
<g id="edge4" class="edge"><title>0&#45;&#45;4</title>
<path fill="none" stroke="black" d="M77.6649,-131.459C88.0022,-129.488 134.458,-120.629 144.497,-118.714"/>
</g>
<!-- 5 -->
<g id="node6" class="node"><title>5</title>
<ellipse fill="black" stroke="black" cx="17.946" cy="-117.733" rx="1.8" ry="1.8"/>
</g>
<!-- 0&#45;&#45;5 -->
<g id="edge5" class="edge"><title>0&#45;&#45;5</title>
<path fill="none" stroke="black" d="M73.7036,-131.379C64.9468,-129.236 28.825,-120.396 19.9314,-118.219"/>
</g>
<!-- 6 -->
<g id="node7" class="node"><title>6</title>
<ellipse fill="black" stroke="black" cx="1.8" cy="-73.9394" rx="1.8" ry="1.8"/>
</g>
<!-- 0&#45;&#45;6 -->
<g id="edge6" class="edge"><title>0&#45;&#45;6</title>
<path fill="none" stroke="black" d="M74.0807,-130.639C64.4734,-123.103 12.916,-82.6592 3.33341,-75.1422"/>
</g>
<!-- 7 -->
<g id="node8" class="node"><title>7</title>
<ellipse fill="black" stroke="black" cx="129.518" cy="-163.991" rx="1.8" ry="1.8"/>
</g>
<!-- 0&#45;&#45;7 -->
<g id="edge7" class="edge"><title>0&#45;&#45;7</title>
<path fill="none" stroke="black" d="M77.4158,-132.918C85.5984,-137.798 119.352,-157.928 127.662,-162.884"/>
</g>
<!-- 1&#45;&#45;2 -->
<g id="edge8" class="edge"><title>1&#45;&#45;2</title>
<path fill="none" stroke="black" d="M77.6629,-94.2891C79.5729,-86.7854 86.4074,-59.9361 88.2918,-52.5331"/>
</g>
<!-- 1&#45;&#45;3 -->
<g id="edge9" class="edge"><title>1&#45;&#45;3</title>
<path fill="none" stroke="black" d="M79.0756,-95.6522C88.752,-92.6301 132.238,-79.0486 141.634,-76.1138"/>
</g>
<!-- 1&#45;&#45;4 -->
<g id="edge10" class="edge"><title>1&#45;&#45;4</title>
<path fill="none" stroke="black" d="M79.1617,-96.8868C89.274,-100.114 134.719,-114.617 144.539,-117.751"/>
</g>
<!-- 1&#45;&#45;5 -->
<g id="edge11" class="edge"><title>1&#45;&#45;5</title>
<path fill="none" stroke="black" d="M75.4555,-96.8691C66.9598,-99.9513 29.3009,-113.614 20.0189,-116.981"/>
</g>
<!-- 1&#45;&#45;6 -->
<g id="edge12" class="edge"><title>1&#45;&#45;6</title>
<path fill="none" stroke="black" d="M75.301,-95.6978C64.8742,-92.6112 13.8538,-77.5076 3.59782,-74.4716"/>
</g>
<!-- 1&#45;&#45;7 -->
<g id="edge13" class="edge"><title>1&#45;&#45;7</title>
<path fill="none" stroke="black" d="M78.4581,-97.9238C85.6383,-107.214 120.53,-152.361 128.076,-162.126"/>
</g>
<!-- 2&#45;&#45;3 -->
<g id="edge14" class="edge"><title>2&#45;&#45;3</title>
<path fill="none" stroke="black" d="M90.5943,-51.4603C98.892,-55.2441 133.12,-70.8527 141.547,-74.6957"/>
</g>
<!-- 2&#45;&#45;4 -->
<g id="edge15" class="edge"><title>2&#45;&#45;4</title>
<path fill="none" stroke="black" d="M90.2007,-52.305C98.2443,-61.7553 137.876,-108.318 145.236,-116.965"/>
</g>
<!-- 2&#45;&#45;5 -->
<g id="edge16" class="edge"><title>2&#45;&#45;5</title>
<path fill="none" stroke="black" d="M87.2966,-52.0326C78.0787,-60.7652 28.6114,-107.629 19.4173,-116.339"/>
</g>
<!-- 8 -->
<g id="node9" class="node"><title>8</title>
<ellipse fill="black" stroke="black" cx="146.742" cy="-1.8" rx="1.8" ry="1.8"/>
</g>
<!-- 2&#45;&#45;8 -->
<g id="edge17" class="edge"><title>2&#45;&#45;8</title>
<path fill="none" stroke="black" d="M90.2088,-49.424C98.1588,-42.7269 136.791,-10.183 145.147,-3.14418"/>
</g>
<!-- 3&#45;&#45;4 -->
<g id="edge18" class="edge"><title>3&#45;&#45;4</title>
<path fill="none" stroke="black" d="M143.557,-77.3924C144.039,-84.3038 145.741,-108.71 146.261,-116.168"/>
</g>
<!-- 3&#45;&#45;7 -->
<g id="edge19" class="edge"><title>3&#45;&#45;7</title>
<path fill="none" stroke="black" d="M143.138,-77.4007C141.327,-88.9099 131.612,-150.674 129.807,-162.154"/>
</g>
<!-- 3&#45;&#45;8 -->
<g id="edge20" class="edge"><title>3&#45;&#45;8</title>
<path fill="none" stroke="black" d="M143.51,-73.7304C143.965,-63.6152 146.173,-14.4616 146.651,-3.83023"/>
</g>
<!-- 5&#45;&#45;6 -->
<g id="edge21" class="edge"><title>5&#45;&#45;6</title>
<path fill="none" stroke="black" d="M17.2522,-115.851C14.5964,-108.648 5.09341,-82.8722 2.47322,-75.7654"/>
</g>
</g>
</svg>
