<?xml version="1.0" encoding="UTF-8" standalone="no"?>
<!DOCTYPE svg PUBLIC "-//W3C//DTD SVG 1.1//EN"
 "http://www.w3.org/Graphics/SVG/1.1/DTD/svg11.dtd">
<!-- Generated by graphviz version 2.36.0 (20140111.2315)
 -->
<!-- Title: %3 Pages: 1 -->
<svg width="158pt" height="215pt"
 viewBox="0.00 0.00 158.09 215.27" xmlns="http://www.w3.org/2000/svg" xmlns:xlink="http://www.w3.org/1999/xlink">
<g id="graph0" class="graph" transform="scale(1 1) rotate(0) translate(4 211.266)">
<title>%3</title>
<!-- 0 -->
<g id="node1" class="node"><title>0</title>
<ellipse fill="black" stroke="black" cx="46.9291" cy="-131.247" rx="1.8" ry="1.8"/>
</g>
<!-- 1 -->
<g id="node2" class="node"><title>1</title>
<ellipse fill="black" stroke="black" cx="126.219" cy="-105.557" rx="1.8" ry="1.8"/>
</g>
<!-- 0&#45;&#45;1 -->
<g id="edge1" class="edge"><title>0&#45;&#45;1</title>
<path fill="none" stroke="black" d="M48.8891,-130.612C59.859,-127.058 113.537,-109.666 124.328,-106.17"/>
</g>
<!-- 4 -->
<g id="node3" class="node"><title>4</title>
<ellipse fill="black" stroke="black" cx="1.8" cy="-66.7333" rx="1.8" ry="1.8"/>
</g>
<!-- 0&#45;&#45;4 -->
<g id="edge2" class="edge"><title>0&#45;&#45;4</title>
<path fill="none" stroke="black" d="M45.8136,-129.653C39.6241,-120.805 9.5475,-77.8087 3.04228,-68.5092"/>
</g>
<!-- 5 -->
<g id="node4" class="node"><title>5</title>
<ellipse fill="black" stroke="black" cx="71.9237" cy="-205.466" rx="1.8" ry="1.8"/>
</g>
<!-- 0&#45;&#45;5 -->
<g id="edge3" class="edge"><title>0&#45;&#45;5</title>
<path fill="none" stroke="black" d="M47.547,-133.082C51.005,-143.35 67.926,-193.595 71.3275,-203.695"/>
</g>
<!-- 2 -->
<g id="node5" class="node"><title>2</title>
<ellipse fill="black" stroke="black" cx="148.29" cy="-180.837" rx="1.8" ry="1.8"/>
</g>
<!-- 1&#45;&#45;2 -->
<g id="edge4" class="edge"><title>1&#45;&#45;2</title>
<path fill="none" stroke="black" d="M126.765,-107.418C129.818,-117.833 144.76,-168.797 147.764,-179.042"/>
</g>
<!-- 3 -->
<g id="node6" class="node"><title>3</title>
<ellipse fill="black" stroke="black" cx="123.757" cy="-26.7724" rx="1.8" ry="1.8"/>
</g>
<!-- 1&#45;&#45;3 -->
<g id="edge5" class="edge"><title>1&#45;&#45;3</title>
<path fill="none" stroke="black" d="M126.158,-103.609C125.818,-92.7094 124.151,-39.3733 123.816,-28.6518"/>
</g>
<!-- 6 -->
<g id="node7" class="node"><title>6</title>
<ellipse fill="black" stroke="black" cx="47.9983" cy="-1.8" rx="1.8" ry="1.8"/>
</g>
<!-- 4&#45;&#45;6 -->
<g id="edge8" class="edge"><title>4&#45;&#45;6</title>
<path fill="none" stroke="black" d="M2.94199,-65.1282C9.27802,-56.2227 40.0672,-12.9474 46.7265,-3.58743"/>
</g>
<!-- 2&#45;&#45;5 -->
<g id="edge6" class="edge"><title>2&#45;&#45;5</title>
<path fill="none" stroke="black" d="M146.402,-181.446C135.837,-184.854 84.1378,-201.527 73.7454,-204.878"/>
</g>
<!-- 3&#45;&#45;6 -->
<g id="edge7" class="edge"><title>3&#45;&#45;6</title>
<path fill="none" stroke="black" d="M121.884,-26.1551C111.403,-22.7001 60.1152,-5.79411 49.8055,-2.39572"/>
</g>
</g>
</svg>
