<?xml version="1.0" encoding="UTF-8" standalone="no"?>
<!DOCTYPE svg PUBLIC "-//W3C//DTD SVG 1.1//EN"
 "http://www.w3.org/Graphics/SVG/1.1/DTD/svg11.dtd">
<!-- Generated by graphviz version 2.36.0 (20140111.2315)
 -->
<!-- Title: %3 Pages: 1 -->
<svg width="195pt" height="322pt"
 viewBox="0.00 0.00 195.08 321.77" xmlns="http://www.w3.org/2000/svg" xmlns:xlink="http://www.w3.org/1999/xlink">
<g id="graph0" class="graph" transform="scale(1 1) rotate(0) translate(4 317.774)">
<title>%3</title>
<!-- 0 -->
<g id="node1" class="node"><title>0</title>
<ellipse fill="black" stroke="black" cx="79.5989" cy="-202.425" rx="1.8" ry="1.8"/>
</g>
<!-- 1 -->
<g id="node2" class="node"><title>1</title>
<ellipse fill="black" stroke="black" cx="67.0568" cy="-120.662" rx="1.8" ry="1.8"/>
</g>
<!-- 0&#45;&#45;1 -->
<g id="edge1" class="edge"><title>0&#45;&#45;1</title>
<path fill="none" stroke="black" d="M79.2889,-200.404C77.5536,-189.092 69.0628,-133.74 67.3559,-122.613"/>
</g>
<!-- 2 -->
<g id="node3" class="node"><title>2</title>
<ellipse fill="black" stroke="black" cx="18.241" cy="-177.034" rx="1.8" ry="1.8"/>
</g>
<!-- 0&#45;&#45;2 -->
<g id="edge2" class="edge"><title>0&#45;&#45;2</title>
<path fill="none" stroke="black" d="M77.8287,-201.692C69.026,-198.05 30.0062,-181.903 20.3888,-177.923"/>
</g>
<!-- 3 -->
<g id="node4" class="node"><title>3</title>
<ellipse fill="black" stroke="black" cx="11.0744" cy="-247.279" rx="1.8" ry="1.8"/>
</g>
<!-- 0&#45;&#45;3 -->
<g id="edge3" class="edge"><title>0&#45;&#45;3</title>
<path fill="none" stroke="black" d="M77.905,-203.534C68.507,-209.685 22.8383,-239.578 12.9606,-246.044"/>
</g>
<!-- 4 -->
<g id="node5" class="node"><title>4</title>
<ellipse fill="black" stroke="black" cx="136.557" cy="-255.782" rx="1.8" ry="1.8"/>
</g>
<!-- 0&#45;&#45;4 -->
<g id="edge4" class="edge"><title>0&#45;&#45;4</title>
<path fill="none" stroke="black" d="M81.0069,-203.744C88.8187,-211.062 126.779,-246.622 134.99,-254.313"/>
</g>
<!-- 1&#45;&#45;2 -->
<g id="edge5" class="edge"><title>1&#45;&#45;2</title>
<path fill="none" stroke="black" d="M65.8501,-122.056C59.155,-129.787 26.6214,-167.356 19.5848,-175.482"/>
</g>
<!-- 5 -->
<g id="node6" class="node"><title>5</title>
<ellipse fill="black" stroke="black" cx="122.451" cy="-63.8349" rx="1.8" ry="1.8"/>
</g>
<!-- 1&#45;&#45;5 -->
<g id="edge6" class="edge"><title>1&#45;&#45;5</title>
<path fill="none" stroke="black" d="M68.4261,-119.258C76.0233,-111.464 112.941,-73.5907 120.926,-65.3992"/>
</g>
<!-- 8 -->
<g id="node7" class="node"><title>8</title>
<ellipse fill="black" stroke="black" cx="1.8" cy="-69.4708" rx="1.8" ry="1.8"/>
</g>
<!-- 1&#45;&#45;8 -->
<g id="edge7" class="edge"><title>1&#45;&#45;8</title>
<path fill="none" stroke="black" d="M65.4437,-119.397C56.4938,-112.376 13.0029,-78.2591 3.59634,-70.88"/>
</g>
<!-- 2&#45;&#45;3 -->
<g id="edge8" class="edge"><title>2&#45;&#45;3</title>
<path fill="none" stroke="black" d="M18.0343,-179.061C16.9877,-189.318 12.2846,-235.416 11.2684,-245.377"/>
</g>
<!-- 6 -->
<g id="node8" class="node"><title>6</title>
<ellipse fill="black" stroke="black" cx="185.28" cy="-311.974" rx="1.8" ry="1.8"/>
</g>
<!-- 4&#45;&#45;6 -->
<g id="edge9" class="edge"><title>4&#45;&#45;6</title>
<path fill="none" stroke="black" d="M137.762,-257.171C144.444,-264.877 176.916,-302.327 183.939,-310.427"/>
</g>
<!-- 7 -->
<g id="node9" class="node"><title>7</title>
<ellipse fill="black" stroke="black" cx="164.507" cy="-1.8" rx="1.8" ry="1.8"/>
</g>
<!-- 5&#45;&#45;7 -->
<g id="edge10" class="edge"><title>5&#45;&#45;7</title>
<path fill="none" stroke="black" d="M123.491,-62.3015C129.259,-53.7935 157.287,-12.4498 163.349,-3.50765"/>
</g>
</g>
</svg>
