<?xml version="1.0" encoding="UTF-8" standalone="no"?>
<!DOCTYPE svg PUBLIC "-//W3C//DTD SVG 1.1//EN"
 "http://www.w3.org/Graphics/SVG/1.1/DTD/svg11.dtd">
<!-- Generated by graphviz version 2.36.0 (20140111.2315)
 -->
<!-- Title: %3 Pages: 1 -->
<svg width="170pt" height="186pt"
 viewBox="0.00 0.00 170.25 185.94" xmlns="http://www.w3.org/2000/svg" xmlns:xlink="http://www.w3.org/1999/xlink">
<g id="graph0" class="graph" transform="scale(1 1) rotate(0) translate(4 181.94)">
<title>%3</title>
<!-- 0 -->
<g id="node1" class="node"><title>0</title>
<ellipse fill="black" stroke="black" cx="87.1936" cy="-110.508" rx="1.8" ry="1.8"/>
</g>
<!-- 1 -->
<g id="node2" class="node"><title>1</title>
<ellipse fill="black" stroke="black" cx="56.6513" cy="-79.0342" rx="1.8" ry="1.8"/>
</g>
<!-- 0&#45;&#45;1 -->
<g id="edge1" class="edge"><title>0&#45;&#45;1</title>
<path fill="none" stroke="black" d="M85.8812,-109.156C80.8573,-103.979 62.8812,-85.4542 57.9248,-80.3465"/>
</g>
<!-- 2 -->
<g id="node3" class="node"><title>2</title>
<ellipse fill="black" stroke="black" cx="31.0405" cy="-120.218" rx="1.8" ry="1.8"/>
</g>
<!-- 0&#45;&#45;2 -->
<g id="edge2" class="edge"><title>0&#45;&#45;2</title>
<path fill="none" stroke="black" d="M85.3253,-110.831C76.7998,-112.305 41.6321,-118.386 32.9734,-119.883"/>
</g>
<!-- 3 -->
<g id="node4" class="node"><title>3</title>
<ellipse fill="black" stroke="black" cx="1.8" cy="-136.571" rx="1.8" ry="1.8"/>
</g>
<!-- 0&#45;&#45;3 -->
<g id="edge3" class="edge"><title>0&#45;&#45;3</title>
<path fill="none" stroke="black" d="M85.41,-111.053C74.2969,-114.444 14.6583,-132.647 3.57375,-136.03"/>
</g>
<!-- 4 -->
<g id="node5" class="node"><title>4</title>
<ellipse fill="black" stroke="black" cx="90.6883" cy="-157.326" rx="1.8" ry="1.8"/>
</g>
<!-- 0&#45;&#45;4 -->
<g id="edge4" class="edge"><title>0&#45;&#45;4</title>
<path fill="none" stroke="black" d="M87.3437,-112.52C87.9186,-120.221 89.9754,-147.776 90.5425,-155.374"/>
</g>
<!-- 5 -->
<g id="node6" class="node"><title>5</title>
<ellipse fill="black" stroke="black" cx="42.6388" cy="-176.14" rx="1.8" ry="1.8"/>
</g>
<!-- 0&#45;&#45;5 -->
<g id="edge5" class="edge"><title>0&#45;&#45;5</title>
<path fill="none" stroke="black" d="M86.0922,-112.131C79.9816,-121.132 50.2877,-164.873 43.8652,-174.334"/>
</g>
<!-- 6 -->
<g id="node7" class="node"><title>6</title>
<ellipse fill="black" stroke="black" cx="6.0355" cy="-60.7897" rx="1.8" ry="1.8"/>
</g>
<!-- 0&#45;&#45;6 -->
<g id="edge6" class="edge"><title>0&#45;&#45;6</title>
<path fill="none" stroke="black" d="M85.4985,-109.47C74.9365,-102.999 18.256,-68.2761 7.72128,-61.8224"/>
</g>
<!-- 8 -->
<g id="node8" class="node"><title>8</title>
<ellipse fill="black" stroke="black" cx="160.45" cy="-137.067" rx="1.8" ry="1.8"/>
</g>
<!-- 0&#45;&#45;8 -->
<g id="edge7" class="edge"><title>0&#45;&#45;8</title>
<path fill="none" stroke="black" d="M89.0044,-111.165C99.1396,-114.839 148.733,-132.819 158.702,-136.433"/>
</g>
<!-- 1&#45;&#45;2 -->
<g id="edge8" class="edge"><title>1&#45;&#45;2</title>
<path fill="none" stroke="black" d="M55.5508,-80.8038C51.3381,-87.578 36.2645,-111.817 32.1084,-118.5"/>
</g>
<!-- 1&#45;&#45;3 -->
<g id="edge9" class="edge"><title>1&#45;&#45;3</title>
<path fill="none" stroke="black" d="M55.2954,-80.4565C47.7726,-88.3476 11.2166,-126.694 3.30991,-134.987"/>
</g>
<!-- 1&#45;&#45;4 -->
<g id="edge10" class="edge"><title>1&#45;&#45;4</title>
<path fill="none" stroke="black" d="M57.4927,-80.9695C62.2018,-91.8013 85.2443,-144.804 89.8763,-155.458"/>
</g>
<!-- 1&#45;&#45;5 -->
<g id="edge11" class="edge"><title>1&#45;&#45;5</title>
<path fill="none" stroke="black" d="M56.3586,-81.0624C54.535,-93.6998 44.7487,-161.518 42.9298,-174.123"/>
</g>
<!-- 1&#45;&#45;6 -->
<g id="edge12" class="edge"><title>1&#45;&#45;6</title>
<path fill="none" stroke="black" d="M54.4764,-78.2502C46.1506,-75.2492 16.3599,-64.5111 8.14596,-61.5504"/>
</g>
<!-- 7 -->
<g id="node9" class="node"><title>7</title>
<ellipse fill="black" stroke="black" cx="42.0148" cy="-1.8" rx="1.8" ry="1.8"/>
</g>
<!-- 1&#45;&#45;7 -->
<g id="edge13" class="edge"><title>1&#45;&#45;7</title>
<path fill="none" stroke="black" d="M56.2895,-77.125C54.2645,-66.4395 44.3557,-14.1529 42.3639,-3.64244"/>
</g>
<!-- 2&#45;&#45;3 -->
<g id="edge14" class="edge"><title>2&#45;&#45;3</title>
<path fill="none" stroke="black" d="M29.4684,-121.097C24.4387,-123.91 8.76472,-132.676 3.52535,-135.606"/>
</g>
<!-- 2&#45;&#45;4 -->
<g id="edge15" class="edge"><title>2&#45;&#45;4</title>
<path fill="none" stroke="black" d="M32.7613,-121.288C41.4715,-126.707 80.6151,-151.059 89.0735,-156.321"/>
</g>
<!-- 2&#45;&#45;5 -->
<g id="edge16" class="edge"><title>2&#45;&#45;5</title>
<path fill="none" stroke="black" d="M31.4264,-122.078C33.1873,-130.569 40.4511,-165.592 42.2395,-174.215"/>
</g>
<!-- 2&#45;&#45;6 -->
<g id="edge17" class="edge"><title>2&#45;&#45;6</title>
<path fill="none" stroke="black" d="M30.3191,-118.503C26.7318,-109.977 10.8301,-72.1848 6.91078,-62.8699"/>
</g>
<!-- 3&#45;&#45;4 -->
<g id="edge18" class="edge"><title>3&#45;&#45;4</title>
<path fill="none" stroke="black" d="M3.65656,-137.005C15.2245,-139.706 77.3037,-154.201 88.8419,-156.895"/>
</g>
<!-- 3&#45;&#45;5 -->
<g id="edge19" class="edge"><title>3&#45;&#45;5</title>
<path fill="none" stroke="black" d="M3.15878,-137.888C9.35916,-143.895 34.9357,-168.677 41.233,-174.778"/>
</g>
<!-- 3&#45;&#45;6 -->
<g id="edge20" class="edge"><title>3&#45;&#45;6</title>
<path fill="none" stroke="black" d="M1.9047,-134.698C2.49069,-124.213 5.35807,-72.9102 5.93446,-62.5974"/>
</g>
<!-- 4&#45;&#45;5 -->
<g id="edge21" class="edge"><title>4&#45;&#45;5</title>
<path fill="none" stroke="black" d="M88.6236,-158.134C80.72,-161.229 52.4397,-172.303 44.6422,-175.356"/>
</g>
<!-- 4&#45;&#45;8 -->
<g id="edge22" class="edge"><title>4&#45;&#45;8</title>
<path fill="none" stroke="black" d="M92.7009,-156.742C102.888,-153.783 148.669,-140.488 158.561,-137.615"/>
</g>
<!-- 6&#45;&#45;7 -->
<g id="edge23" class="edge"><title>6&#45;&#45;7</title>
<path fill="none" stroke="black" d="M7.07349,-59.0878C12.3274,-50.4737 35.9386,-11.7621 41.0407,-3.39692"/>
</g>
</g>
</svg>
