<?xml version="1.0" encoding="UTF-8" standalone="no"?>
<!DOCTYPE svg PUBLIC "-//W3C//DTD SVG 1.1//EN"
 "http://www.w3.org/Graphics/SVG/1.1/DTD/svg11.dtd">
<!-- Generated by graphviz version 2.36.0 (20140111.2315)
 -->
<!-- Title: %3 Pages: 1 -->
<svg width="183pt" height="195pt"
 viewBox="0.00 0.00 183.00 194.82" xmlns="http://www.w3.org/2000/svg" xmlns:xlink="http://www.w3.org/1999/xlink">
<g id="graph0" class="graph" transform="scale(1 1) rotate(0) translate(4 190.819)">
<title>%3</title>
<!-- 0 -->
<g id="node1" class="node"><title>0</title>
<ellipse fill="black" stroke="black" cx="119.645" cy="-85.3624" rx="1.8" ry="1.8"/>
</g>
<!-- 1 -->
<g id="node2" class="node"><title>1</title>
<ellipse fill="black" stroke="black" cx="73.2055" cy="-47.7805" rx="1.8" ry="1.8"/>
</g>
<!-- 0&#45;&#45;1 -->
<g id="edge1" class="edge"><title>0&#45;&#45;1</title>
<path fill="none" stroke="black" d="M118.1,-84.112C111.049,-78.4061 81.965,-54.8692 74.8041,-49.0741"/>
</g>
<!-- 2 -->
<g id="node3" class="node"><title>2</title>
<ellipse fill="black" stroke="black" cx="163.536" cy="-55.2092" rx="1.8" ry="1.8"/>
</g>
<!-- 0&#45;&#45;2 -->
<g id="edge2" class="edge"><title>0&#45;&#45;2</title>
<path fill="none" stroke="black" d="M121.531,-84.0668C128.751,-79.1069 154.583,-61.3597 161.706,-56.4664"/>
</g>
<!-- 3 -->
<g id="node4" class="node"><title>3</title>
<ellipse fill="black" stroke="black" cx="53.6755" cy="-123.204" rx="1.8" ry="1.8"/>
</g>
<!-- 0&#45;&#45;3 -->
<g id="edge3" class="edge"><title>0&#45;&#45;3</title>
<path fill="none" stroke="black" d="M118.015,-86.2978C108.967,-91.4877 65.0009,-116.707 55.4915,-122.162"/>
</g>
<!-- 4 -->
<g id="node5" class="node"><title>4</title>
<ellipse fill="black" stroke="black" cx="124.334" cy="-1.8" rx="1.8" ry="1.8"/>
</g>
<!-- 0&#45;&#45;4 -->
<g id="edge4" class="edge"><title>0&#45;&#45;4</title>
<path fill="none" stroke="black" d="M119.761,-83.2968C120.41,-71.7358 123.584,-15.1651 124.222,-3.7934"/>
</g>
<!-- 5 -->
<g id="node6" class="node"><title>5</title>
<ellipse fill="black" stroke="black" cx="173.201" cy="-136.016" rx="1.8" ry="1.8"/>
</g>
<!-- 0&#45;&#45;5 -->
<g id="edge5" class="edge"><title>0&#45;&#45;5</title>
<path fill="none" stroke="black" d="M120.969,-86.6146C128.314,-93.5617 164.007,-127.32 171.727,-134.622"/>
</g>
<!-- 1&#45;&#45;2 -->
<g id="edge6" class="edge"><title>1&#45;&#45;2</title>
<path fill="none" stroke="black" d="M75.0922,-47.9356C86.8479,-48.9024 149.934,-54.0906 161.66,-55.0549"/>
</g>
<!-- 1&#45;&#45;3 -->
<g id="edge7" class="edge"><title>1&#45;&#45;3</title>
<path fill="none" stroke="black" d="M72.7228,-49.6449C70.0208,-60.0798 56.7992,-111.14 54.1414,-121.404"/>
</g>
<!-- 1&#45;&#45;4 -->
<g id="edge8" class="edge"><title>1&#45;&#45;4</title>
<path fill="none" stroke="black" d="M74.9067,-46.2506C82.8079,-39.1449 115.842,-9.43744 122.973,-3.02394"/>
</g>
<!-- 7 -->
<g id="node7" class="node"><title>7</title>
<ellipse fill="black" stroke="black" cx="1.8" cy="-70.9996" rx="1.8" ry="1.8"/>
</g>
<!-- 1&#45;&#45;7 -->
<g id="edge9" class="edge"><title>1&#45;&#45;7</title>
<path fill="none" stroke="black" d="M71.4404,-48.3544C61.6473,-51.5389 14.0585,-67.0135 3.7656,-70.3605"/>
</g>
<!-- 2&#45;&#45;4 -->
<g id="edge10" class="edge"><title>2&#45;&#45;4</title>
<path fill="none" stroke="black" d="M162.232,-53.4322C156.28,-45.3233 131.728,-11.8741 125.683,-3.63846"/>
</g>
<!-- 2&#45;&#45;5 -->
<g id="edge11" class="edge"><title>2&#45;&#45;5</title>
<path fill="none" stroke="black" d="M163.775,-57.2067C165.112,-68.3865 171.655,-123.092 172.97,-134.089"/>
</g>
<!-- 3&#45;&#45;7 -->
<g id="edge13" class="edge"><title>3&#45;&#45;7</title>
<path fill="none" stroke="black" d="M52.3932,-121.913C45.2785,-114.753 10.7057,-79.9617 3.22799,-72.4366"/>
</g>
<!-- 6 -->
<g id="node8" class="node"><title>6</title>
<ellipse fill="black" stroke="black" cx="105.789" cy="-185.019" rx="1.8" ry="1.8"/>
</g>
<!-- 3&#45;&#45;6 -->
<g id="edge12" class="edge"><title>3&#45;&#45;6</title>
<path fill="none" stroke="black" d="M54.9637,-124.732C62.111,-133.209 96.8421,-174.407 104.354,-183.317"/>
</g>
<!-- 5&#45;&#45;6 -->
<g id="edge14" class="edge"><title>5&#45;&#45;6</title>
<path fill="none" stroke="black" d="M171.534,-137.228C162.289,-143.948 117.361,-176.606 107.644,-183.67"/>
</g>
</g>
</svg>
