<?xml version="1.0" encoding="UTF-8" standalone="no"?>
<!DOCTYPE svg PUBLIC "-//W3C//DTD SVG 1.1//EN"
 "http://www.w3.org/Graphics/SVG/1.1/DTD/svg11.dtd">
<!-- Generated by graphviz version 2.36.0 (20140111.2315)
 -->
<!-- Title: %3 Pages: 1 -->
<svg width="239pt" height="183pt"
 viewBox="0.00 0.00 238.95 182.85" xmlns="http://www.w3.org/2000/svg" xmlns:xlink="http://www.w3.org/1999/xlink">
<g id="graph0" class="graph" transform="scale(1 1) rotate(0) translate(4 178.853)">
<title>%3</title>
<!-- 0 -->
<g id="node1" class="node"><title>0</title>
<ellipse fill="black" stroke="black" cx="97.8873" cy="-81.4677" rx="1.8" ry="1.8"/>
</g>
<!-- 1 -->
<g id="node2" class="node"><title>1</title>
<ellipse fill="black" stroke="black" cx="151.191" cy="-116.172" rx="1.8" ry="1.8"/>
</g>
<!-- 0&#45;&#45;1 -->
<g id="edge1" class="edge"><title>0&#45;&#45;1</title>
<path fill="none" stroke="black" d="M99.6608,-82.6224C107.754,-87.8913 141.137,-109.626 149.356,-114.977"/>
</g>
<!-- 2 -->
<g id="node3" class="node"><title>2</title>
<ellipse fill="black" stroke="black" cx="50.7612" cy="-51.3552" rx="1.8" ry="1.8"/>
</g>
<!-- 0&#45;&#45;2 -->
<g id="edge2" class="edge"><title>0&#45;&#45;2</title>
<path fill="none" stroke="black" d="M96.3193,-80.4658C89.1644,-75.894 59.6501,-57.035 52.3834,-52.3917"/>
</g>
<!-- 3 -->
<g id="node4" class="node"><title>3</title>
<ellipse fill="black" stroke="black" cx="50.9523" cy="-120.46" rx="1.8" ry="1.8"/>
</g>
<!-- 0&#45;&#45;3 -->
<g id="edge3" class="edge"><title>0&#45;&#45;3</title>
<path fill="none" stroke="black" d="M96.3257,-82.7651C89.1997,-88.6852 59.8052,-113.106 52.5679,-119.118"/>
</g>
<!-- 4 -->
<g id="node5" class="node"><title>4</title>
<ellipse fill="black" stroke="black" cx="90.4865" cy="-139.489" rx="1.8" ry="1.8"/>
</g>
<!-- 0&#45;&#45;4 -->
<g id="edge4" class="edge"><title>0&#45;&#45;4</title>
<path fill="none" stroke="black" d="M97.6411,-83.3982C96.5174,-92.2073 91.8824,-128.545 90.7413,-137.492"/>
</g>
<!-- 5 -->
<g id="node6" class="node"><title>5</title>
<ellipse fill="black" stroke="black" cx="131.807" cy="-173.053" rx="1.8" ry="1.8"/>
</g>
<!-- 0&#45;&#45;5 -->
<g id="edge5" class="edge"><title>0&#45;&#45;5</title>
<path fill="none" stroke="black" d="M98.5958,-83.3806C103.01,-95.2996 126.7,-159.262 131.102,-171.151"/>
</g>
<!-- 6 -->
<g id="node7" class="node"><title>6</title>
<ellipse fill="black" stroke="black" cx="1.8" cy="-83.6717" rx="1.8" ry="1.8"/>
</g>
<!-- 0&#45;&#45;6 -->
<g id="edge6" class="edge"><title>0&#45;&#45;6</title>
<path fill="none" stroke="black" d="M95.8804,-81.5138C83.3755,-81.8006 16.2685,-83.3398 3.79588,-83.6259"/>
</g>
<!-- 7 -->
<g id="node8" class="node"><title>7</title>
<ellipse fill="black" stroke="black" cx="102.453" cy="-1.8" rx="1.8" ry="1.8"/>
</g>
<!-- 0&#45;&#45;7 -->
<g id="edge7" class="edge"><title>0&#45;&#45;7</title>
<path fill="none" stroke="black" d="M98.0002,-79.4984C98.6318,-68.4762 101.723,-14.5422 102.344,-3.70049"/>
</g>
<!-- 1&#45;&#45;3 -->
<g id="edge8" class="edge"><title>1&#45;&#45;3</title>
<path fill="none" stroke="black" d="M149.098,-116.261C136.053,-116.819 66.046,-119.815 53.0344,-120.371"/>
</g>
<!-- 1&#45;&#45;4 -->
<g id="edge9" class="edge"><title>1&#45;&#45;4</title>
<path fill="none" stroke="black" d="M149.44,-116.844C140.731,-120.19 102.126,-135.018 92.6114,-138.673"/>
</g>
<!-- 1&#45;&#45;5 -->
<g id="edge10" class="edge"><title>1&#45;&#45;5</title>
<path fill="none" stroke="black" d="M150.546,-118.064C147.603,-126.7 135.463,-162.324 132.474,-171.095"/>
</g>
<!-- 8 -->
<g id="node9" class="node"><title>8</title>
<ellipse fill="black" stroke="black" cx="229.151" cy="-117.922" rx="1.8" ry="1.8"/>
</g>
<!-- 1&#45;&#45;8 -->
<g id="edge11" class="edge"><title>1&#45;&#45;8</title>
<path fill="none" stroke="black" d="M153.118,-116.215C163.904,-116.457 216.682,-117.642 227.291,-117.881"/>
</g>
<!-- 2&#45;&#45;3 -->
<g id="edge12" class="edge"><title>2&#45;&#45;3</title>
<path fill="none" stroke="black" d="M50.7667,-53.3489C50.7946,-63.4401 50.92,-108.79 50.9472,-118.59"/>
</g>
<!-- 2&#45;&#45;4 -->
<g id="edge13" class="edge"><title>2&#45;&#45;4</title>
<path fill="none" stroke="black" d="M51.5909,-53.196C56.7608,-64.6658 84.5048,-126.218 89.6614,-137.658"/>
</g>
<!-- 2&#45;&#45;6 -->
<g id="edge14" class="edge"><title>2&#45;&#45;6</title>
<path fill="none" stroke="black" d="M49.1322,-52.4304C41.6986,-57.3369 11.0351,-77.5761 3.48535,-82.5593"/>
</g>
<!-- 2&#45;&#45;7 -->
<g id="edge15" class="edge"><title>2&#45;&#45;7</title>
<path fill="none" stroke="black" d="M52.4811,-49.7064C60.4693,-42.0483 93.8668,-10.0312 101.077,-3.11909"/>
</g>
<!-- 3&#45;&#45;4 -->
<g id="edge16" class="edge"><title>3&#45;&#45;4</title>
<path fill="none" stroke="black" d="M52.6511,-121.278C59.154,-124.408 82.4225,-135.608 88.8381,-138.696"/>
</g>
<!-- 3&#45;&#45;6 -->
<g id="edge17" class="edge"><title>3&#45;&#45;6</title>
<path fill="none" stroke="black" d="M49.3169,-119.236C41.8543,-113.651 11.0711,-90.6108 3.49193,-84.938"/>
</g>
<!-- 4&#45;&#45;5 -->
<g id="edge18" class="edge"><title>4&#45;&#45;5</title>
<path fill="none" stroke="black" d="M92.262,-140.931C99.0588,-146.452 123.379,-166.207 130.084,-171.654"/>
</g>
</g>
</svg>
