<?xml version="1.0" encoding="UTF-8" standalone="no"?>
<!DOCTYPE svg PUBLIC "-//W3C//DTD SVG 1.1//EN"
 "http://www.w3.org/Graphics/SVG/1.1/DTD/svg11.dtd">
<!-- Generated by graphviz version 2.36.0 (20140111.2315)
 -->
<!-- Title: %3 Pages: 1 -->
<svg width="139pt" height="122pt"
 viewBox="0.00 0.00 139.24 122.17" xmlns="http://www.w3.org/2000/svg" xmlns:xlink="http://www.w3.org/1999/xlink">
<g id="graph0" class="graph" transform="scale(1 1) rotate(0) translate(4 118.174)">
<title>%3</title>
<!-- 0 -->
<g id="node1" class="node"><title>0</title>
<ellipse fill="black" stroke="black" cx="4.68943" cy="-77.3294" rx="1.8" ry="1.8"/>
</g>
<!-- 1 -->
<g id="node2" class="node"><title>1</title>
<ellipse fill="black" stroke="black" cx="79.0478" cy="-56.6763" rx="1.8" ry="1.8"/>
</g>
<!-- 0&#45;&#45;1 -->
<g id="edge1" class="edge"><title>0&#45;&#45;1</title>
<path fill="none" stroke="black" d="M6.52751,-76.8189C16.8151,-73.9615 67.1548,-59.9796 77.2739,-57.169"/>
</g>
<!-- 2 -->
<g id="node3" class="node"><title>2</title>
<ellipse fill="black" stroke="black" cx="53.5489" cy="-1.8" rx="1.8" ry="1.8"/>
</g>
<!-- 0&#45;&#45;2 -->
<g id="edge2" class="edge"><title>0&#45;&#45;2</title>
<path fill="none" stroke="black" d="M5.70993,-75.7519C12.0685,-65.9224 46.1918,-13.173 52.534,-3.36886"/>
</g>
<!-- 3 -->
<g id="node4" class="node"><title>3</title>
<ellipse fill="black" stroke="black" cx="51.5702" cy="-42.0765" rx="1.8" ry="1.8"/>
</g>
<!-- 0&#45;&#45;3 -->
<g id="edge3" class="edge"><title>0&#45;&#45;3</title>
<path fill="none" stroke="black" d="M6.24923,-76.1565C13.367,-70.8042 42.7275,-48.7259 49.9565,-43.29"/>
</g>
<!-- 4 -->
<g id="node5" class="node"><title>4</title>
<ellipse fill="black" stroke="black" cx="87.0841" cy="-102.656" rx="1.8" ry="1.8"/>
</g>
<!-- 0&#45;&#45;4 -->
<g id="edge4" class="edge"><title>0&#45;&#45;4</title>
<path fill="none" stroke="black" d="M6.41035,-77.8584C17.0408,-81.126 73.6887,-98.5387 85.0856,-102.042"/>
</g>
<!-- 5 -->
<g id="node6" class="node"><title>5</title>
<ellipse fill="black" stroke="black" cx="38.0361" cy="-112.374" rx="1.8" ry="1.8"/>
</g>
<!-- 0&#45;&#45;5 -->
<g id="edge5" class="edge"><title>0&#45;&#45;5</title>
<path fill="none" stroke="black" d="M6.12229,-78.8352C11.6075,-84.5997 31.2342,-105.226 36.6457,-110.913"/>
</g>
<!-- 6 -->
<g id="node7" class="node"><title>6</title>
<ellipse fill="black" stroke="black" cx="1.8" cy="-25.9377" rx="1.8" ry="1.8"/>
</g>
<!-- 0&#45;&#45;6 -->
<g id="edge6" class="edge"><title>0&#45;&#45;6</title>
<path fill="none" stroke="black" d="M4.56527,-75.1212C4.08999,-66.6678 2.38938,-36.4204 1.92048,-28.0805"/>
</g>
<!-- 1&#45;&#45;2 -->
<g id="edge7" class="edge"><title>1&#45;&#45;2</title>
<path fill="none" stroke="black" d="M78.1994,-54.8505C74.328,-46.5188 58.3585,-12.1508 54.4267,-3.68897"/>
</g>
<!-- 1&#45;&#45;4 -->
<g id="edge8" class="edge"><title>1&#45;&#45;4</title>
<path fill="none" stroke="black" d="M79.3931,-58.652C80.715,-66.2152 85.4448,-93.2774 86.749,-100.739"/>
</g>
<!-- 1&#45;&#45;5 -->
<g id="edge9" class="edge"><title>1&#45;&#45;5</title>
<path fill="none" stroke="black" d="M77.6832,-58.5295C71.3454,-67.1368 44.8482,-103.123 39.1278,-110.891"/>
</g>
<!-- 1&#45;&#45;6 -->
<g id="edge10" class="edge"><title>1&#45;&#45;6</title>
<path fill="none" stroke="black" d="M77.1383,-55.9165C66.4509,-51.6637 14.1551,-30.854 3.64276,-26.6709"/>
</g>
<!-- 7 -->
<g id="node8" class="node"><title>7</title>
<ellipse fill="black" stroke="black" cx="129.443" cy="-27.5153" rx="1.8" ry="1.8"/>
</g>
<!-- 1&#45;&#45;7 -->
<g id="edge11" class="edge"><title>1&#45;&#45;7</title>
<path fill="none" stroke="black" d="M80.7245,-55.7061C88.3758,-51.2787 119.937,-33.0156 127.708,-28.5191"/>
</g>
<!-- 2&#45;&#45;3 -->
<g id="edge12" class="edge"><title>2&#45;&#45;3</title>
<path fill="none" stroke="black" d="M53.4425,-3.96544C53.0958,-11.0241 52.0012,-33.3031 51.6677,-40.0929"/>
</g>
<!-- 2&#45;&#45;5 -->
<g id="edge13" class="edge"><title>2&#45;&#45;5</title>
<path fill="none" stroke="black" d="M53.2797,-3.71922C51.3968,-17.1405 40.2199,-96.8082 38.3128,-110.402"/>
</g>
<!-- 2&#45;&#45;6 -->
<g id="edge14" class="edge"><title>2&#45;&#45;6</title>
<path fill="none" stroke="black" d="M51.8272,-2.6031C43.9703,-6.26782 11.5609,-21.3848 3.58132,-25.1068"/>
</g>
<!-- 2&#45;&#45;7 -->
<g id="edge15" class="edge"><title>2&#45;&#45;7</title>
<path fill="none" stroke="black" d="M55.425,-2.43566C65.9251,-5.99342 117.304,-23.4023 127.633,-26.9018"/>
</g>
<!-- 3&#45;&#45;5 -->
<g id="edge16" class="edge"><title>3&#45;&#45;5</title>
<path fill="none" stroke="black" d="M51.1798,-44.1046C49.2034,-54.3699 40.3217,-100.502 38.4025,-110.471"/>
</g>
<!-- 3&#45;&#45;6 -->
<g id="edge17" class="edge"><title>3&#45;&#45;6</title>
<path fill="none" stroke="black" d="M49.4317,-41.383C41.245,-38.7284 11.952,-29.2296 3.8752,-26.6106"/>
</g>
<!-- 3&#45;&#45;7 -->
<g id="edge18" class="edge"><title>3&#45;&#45;7</title>
<path fill="none" stroke="black" d="M53.4952,-41.7166C64.269,-39.702 116.988,-29.8442 127.585,-27.8626"/>
</g>
<!-- 4&#45;&#45;5 -->
<g id="edge19" class="edge"><title>4&#45;&#45;5</title>
<path fill="none" stroke="black" d="M84.9765,-103.074C76.9086,-104.672 48.0407,-110.392 40.0812,-111.969"/>
</g>
<!-- 4&#45;&#45;6 -->
<g id="edge20" class="edge"><title>4&#45;&#45;6</title>
<path fill="none" stroke="black" d="M85.6038,-101.325C75.2522,-92.0127 13.8057,-36.7376 3.32101,-27.3059"/>
</g>
<!-- 4&#45;&#45;7 -->
<g id="edge21" class="edge"><title>4&#45;&#45;7</title>
<path fill="none" stroke="black" d="M87.9688,-101.087C93.4339,-91.3922 122.556,-39.7314 128.416,-29.3378"/>
</g>
</g>
</svg>
