<?xml version="1.0" encoding="UTF-8" standalone="no"?>
<!DOCTYPE svg PUBLIC "-//W3C//DTD SVG 1.1//EN"
 "http://www.w3.org/Graphics/SVG/1.1/DTD/svg11.dtd">
<!-- Generated by graphviz version 2.36.0 (20140111.2315)
 -->
<!-- Title: %3 Pages: 1 -->
<svg width="163pt" height="167pt"
 viewBox="0.00 0.00 163.36 167.32" xmlns="http://www.w3.org/2000/svg" xmlns:xlink="http://www.w3.org/1999/xlink">
<g id="graph0" class="graph" transform="scale(1 1) rotate(0) translate(4 163.321)">
<title>%3</title>
<!-- 0 -->
<g id="node1" class="node"><title>0</title>
<ellipse fill="black" stroke="black" cx="85.9053" cy="-72.157" rx="1.8" ry="1.8"/>
</g>
<!-- 1 -->
<g id="node2" class="node"><title>1</title>
<ellipse fill="black" stroke="black" cx="122.838" cy="-92.7576" rx="1.8" ry="1.8"/>
</g>
<!-- 0&#45;&#45;1 -->
<g id="edge1" class="edge"><title>0&#45;&#45;1</title>
<path fill="none" stroke="black" d="M87.4923,-73.0422C93.4569,-76.3691 114.519,-88.1175 120.956,-91.7077"/>
</g>
<!-- 2 -->
<g id="node3" class="node"><title>2</title>
<ellipse fill="black" stroke="black" cx="59.9835" cy="-40.6218" rx="1.8" ry="1.8"/>
</g>
<!-- 0&#45;&#45;2 -->
<g id="edge2" class="edge"><title>0&#45;&#45;2</title>
<path fill="none" stroke="black" d="M84.5117,-70.4615C79.9687,-64.9348 65.63,-47.4911 61.2601,-42.1749"/>
</g>
<!-- 3 -->
<g id="node4" class="node"><title>3</title>
<ellipse fill="black" stroke="black" cx="31.9116" cy="-111.56" rx="1.8" ry="1.8"/>
</g>
<!-- 0&#45;&#45;3 -->
<g id="edge3" class="edge"><title>0&#45;&#45;3</title>
<path fill="none" stroke="black" d="M84.1089,-73.468C75.9112,-79.4504 42.096,-104.128 33.7702,-110.204"/>
</g>
<!-- 4 -->
<g id="node5" class="node"><title>4</title>
<ellipse fill="black" stroke="black" cx="61.2689" cy="-125.188" rx="1.8" ry="1.8"/>
</g>
<!-- 0&#45;&#45;4 -->
<g id="edge4" class="edge"><title>0&#45;&#45;4</title>
<path fill="none" stroke="black" d="M85.0856,-73.9214C81.3452,-81.973 65.9158,-115.186 62.117,-123.363"/>
</g>
<!-- 5 -->
<g id="node6" class="node"><title>5</title>
<ellipse fill="black" stroke="black" cx="103.845" cy="-157.521" rx="1.8" ry="1.8"/>
</g>
<!-- 0&#45;&#45;5 -->
<g id="edge5" class="edge"><title>0&#45;&#45;5</title>
<path fill="none" stroke="black" d="M86.28,-73.9399C88.6147,-85.0492 101.144,-144.667 103.473,-155.748"/>
</g>
<!-- 6 -->
<g id="node7" class="node"><title>6</title>
<ellipse fill="black" stroke="black" cx="1.8" cy="-63.5851" rx="1.8" ry="1.8"/>
</g>
<!-- 0&#45;&#45;6 -->
<g id="edge6" class="edge"><title>0&#45;&#45;6</title>
<path fill="none" stroke="black" d="M83.8263,-71.9451C72.1902,-70.7591 15.2519,-64.9561 3.80635,-63.7896"/>
</g>
<!-- 7 -->
<g id="node8" class="node"><title>7</title>
<ellipse fill="black" stroke="black" cx="153.558" cy="-41.7423" rx="1.8" ry="1.8"/>
</g>
<!-- 0&#45;&#45;7 -->
<g id="edge7" class="edge"><title>0&#45;&#45;7</title>
<path fill="none" stroke="black" d="M87.5777,-71.4051C96.8561,-67.2338 141.944,-46.9637 151.696,-42.5795"/>
</g>
<!-- 8 -->
<g id="node9" class="node"><title>8</title>
<ellipse fill="black" stroke="black" cx="123.468" cy="-1.8" rx="1.8" ry="1.8"/>
</g>
<!-- 0&#45;&#45;8 -->
<g id="edge8" class="edge"><title>0&#45;&#45;8</title>
<path fill="none" stroke="black" d="M86.8339,-70.4178C91.9856,-60.7684 117.02,-13.8785 122.434,-3.73673"/>
</g>
<!-- 1&#45;&#45;2 -->
<g id="edge9" class="edge"><title>1&#45;&#45;2</title>
<path fill="none" stroke="black" d="M121.284,-91.4688C112.664,-84.3185 70.774,-49.5722 61.7137,-42.057"/>
</g>
<!-- 1&#45;&#45;3 -->
<g id="edge10" class="edge"><title>1&#45;&#45;3</title>
<path fill="none" stroke="black" d="M120.939,-93.1503C109.106,-95.5973 45.6031,-108.729 33.8003,-111.17"/>
</g>
<!-- 1&#45;&#45;4 -->
<g id="edge11" class="edge"><title>1&#45;&#45;4</title>
<path fill="none" stroke="black" d="M121.062,-93.6932C112.071,-98.429 71.6666,-119.712 62.9357,-124.31"/>
</g>
<!-- 1&#45;&#45;5 -->
<g id="edge12" class="edge"><title>1&#45;&#45;5</title>
<path fill="none" stroke="black" d="M122.29,-94.626C119.517,-104.083 107.053,-146.584 104.359,-155.768"/>
</g>
<!-- 1&#45;&#45;7 -->
<g id="edge13" class="edge"><title>1&#45;&#45;7</title>
<path fill="none" stroke="black" d="M123.86,-91.0602C128.524,-83.3147 147.764,-51.3648 152.501,-43.4983"/>
</g>
<!-- 1&#45;&#45;8 -->
<g id="edge14" class="edge"><title>1&#45;&#45;8</title>
<path fill="none" stroke="black" d="M122.851,-90.8578C122.933,-79.0205 123.373,-15.4961 123.455,-3.68933"/>
</g>
<!-- 2&#45;&#45;3 -->
<g id="edge15" class="edge"><title>2&#45;&#45;3</title>
<path fill="none" stroke="black" d="M59.2895,-42.3754C55.4058,-52.1898 36.4015,-100.214 32.5813,-109.868"/>
</g>
<!-- 2&#45;&#45;4 -->
<g id="edge16" class="edge"><title>2&#45;&#45;4</title>
<path fill="none" stroke="black" d="M60.0152,-42.7122C60.1931,-54.4122 61.0633,-111.663 61.2382,-123.171"/>
</g>
<!-- 2&#45;&#45;6 -->
<g id="edge17" class="edge"><title>2&#45;&#45;6</title>
<path fill="none" stroke="black" d="M58.0476,-41.3859C49.2138,-44.8723 12.7746,-59.2537 3.80281,-62.7946"/>
</g>
<!-- 2&#45;&#45;7 -->
<g id="edge18" class="edge"><title>2&#45;&#45;7</title>
<path fill="none" stroke="black" d="M61.9379,-40.6452C74.1157,-40.791 139.468,-41.5735 151.614,-41.719"/>
</g>
<!-- 3&#45;&#45;4 -->
<g id="edge19" class="edge"><title>3&#45;&#45;4</title>
<path fill="none" stroke="black" d="M33.8379,-112.454C39.2465,-114.965 54.5091,-122.05 59.5958,-124.412"/>
</g>
<!-- 3&#45;&#45;5 -->
<g id="edge20" class="edge"><title>3&#45;&#45;5</title>
<path fill="none" stroke="black" d="M33.6898,-112.696C43.6419,-119.055 92.3401,-150.17 102.129,-156.424"/>
</g>
<!-- 3&#45;&#45;6 -->
<g id="edge21" class="edge"><title>3&#45;&#45;6</title>
<path fill="none" stroke="black" d="M30.9098,-109.964C26.338,-102.68 7.47967,-72.6342 2.83651,-65.2365"/>
</g>
<!-- 4&#45;&#45;5 -->
<g id="edge22" class="edge"><title>4&#45;&#45;5</title>
<path fill="none" stroke="black" d="M63.0984,-126.578C70.1017,-131.896 95.1607,-150.926 102.07,-156.173"/>
</g>
<!-- 4&#45;&#45;6 -->
<g id="edge23" class="edge"><title>4&#45;&#45;6</title>
<path fill="none" stroke="black" d="M59.7989,-123.666C51.6428,-115.217 12.0093,-74.1608 3.43702,-65.2809"/>
</g>
<!-- 7&#45;&#45;8 -->
<g id="edge24" class="edge"><title>7&#45;&#45;8</title>
<path fill="none" stroke="black" d="M152.265,-40.026C147.316,-33.4559 129.606,-9.94729 124.723,-3.46542"/>
</g>
</g>
</svg>
