<?xml version="1.0" encoding="UTF-8" standalone="no"?>
<!DOCTYPE svg PUBLIC "-//W3C//DTD SVG 1.1//EN"
 "http://www.w3.org/Graphics/SVG/1.1/DTD/svg11.dtd">
<!-- Generated by graphviz version 2.36.0 (20140111.2315)
 -->
<!-- Title: %3 Pages: 1 -->
<svg width="138pt" height="217pt"
 viewBox="0.00 0.00 137.54 216.73" xmlns="http://www.w3.org/2000/svg" xmlns:xlink="http://www.w3.org/1999/xlink">
<g id="graph0" class="graph" transform="scale(1 1) rotate(0) translate(4 212.729)">
<title>%3</title>
<!-- 0 -->
<g id="node1" class="node"><title>0</title>
<ellipse fill="black" stroke="black" cx="37.4094" cy="-93.6213" rx="1.8" ry="1.8"/>
</g>
<!-- 1 -->
<g id="node2" class="node"><title>1</title>
<ellipse fill="black" stroke="black" cx="67.5498" cy="-105.79" rx="1.8" ry="1.8"/>
</g>
<!-- 0&#45;&#45;1 -->
<g id="edge1" class="edge"><title>0&#45;&#45;1</title>
<path fill="none" stroke="black" d="M39.387,-94.4197C44.94,-96.6617 60.6096,-102.988 65.832,-105.097"/>
</g>
<!-- 2 -->
<g id="node3" class="node"><title>2</title>
<ellipse fill="black" stroke="black" cx="95.8651" cy="-55.7963" rx="1.8" ry="1.8"/>
</g>
<!-- 0&#45;&#45;2 -->
<g id="edge2" class="edge"><title>0&#45;&#45;2</title>
<path fill="none" stroke="black" d="M39.3544,-92.3628C48.3879,-86.5174 86.1555,-62.0791 94.3091,-56.8032"/>
</g>
<!-- 3 -->
<g id="node4" class="node"><title>3</title>
<ellipse fill="black" stroke="black" cx="1.8" cy="-54.8373" rx="1.8" ry="1.8"/>
</g>
<!-- 0&#45;&#45;3 -->
<g id="edge3" class="edge"><title>0&#45;&#45;3</title>
<path fill="none" stroke="black" d="M35.8794,-91.9548C30.022,-85.5752 9.06349,-62.7484 3.28476,-56.4545"/>
</g>
<!-- 4 -->
<g id="node5" class="node"><title>4</title>
<ellipse fill="black" stroke="black" cx="118.255" cy="-131.502" rx="1.8" ry="1.8"/>
</g>
<!-- 0&#45;&#45;4 -->
<g id="edge4" class="edge"><title>0&#45;&#45;4</title>
<path fill="none" stroke="black" d="M39.098,-94.4125C49.6194,-99.3422 106.082,-125.798 116.576,-130.715"/>
</g>
<!-- 5 -->
<g id="node6" class="node"><title>5</title>
<ellipse fill="black" stroke="black" cx="59.6526" cy="-171.878" rx="1.8" ry="1.8"/>
</g>
<!-- 0&#45;&#45;5 -->
<g id="edge5" class="edge"><title>0&#45;&#45;5</title>
<path fill="none" stroke="black" d="M37.9593,-95.5557C41.0367,-106.383 56.095,-159.362 59.122,-170.011"/>
</g>
<!-- 6 -->
<g id="node7" class="node"><title>6</title>
<ellipse fill="black" stroke="black" cx="34.7308" cy="-27.1087" rx="1.8" ry="1.8"/>
</g>
<!-- 0&#45;&#45;6 -->
<g id="edge6" class="edge"><title>0&#45;&#45;6</title>
<path fill="none" stroke="black" d="M37.3322,-91.7024C36.941,-81.9898 35.1832,-38.3412 34.8033,-28.9093"/>
</g>
<!-- 7 -->
<g id="node8" class="node"><title>7</title>
<ellipse fill="black" stroke="black" cx="64.8601" cy="-1.8" rx="1.8" ry="1.8"/>
</g>
<!-- 0&#45;&#45;7 -->
<g id="edge7" class="edge"><title>0&#45;&#45;7</title>
<path fill="none" stroke="black" d="M37.9828,-91.7035C41.5552,-79.7538 60.7266,-15.6262 64.2899,-3.70727"/>
</g>
<!-- 1&#45;&#45;2 -->
<g id="edge8" class="edge"><title>1&#45;&#45;2</title>
<path fill="none" stroke="black" d="M68.4919,-104.127C72.7909,-96.5366 90.5243,-65.2262 94.8904,-57.5172"/>
</g>
<!-- 1&#45;&#45;3 -->
<g id="edge9" class="edge"><title>1&#45;&#45;3</title>
<path fill="none" stroke="black" d="M65.9245,-104.531C56.907,-97.5427 13.0875,-63.5847 3.60991,-56.2399"/>
</g>
<!-- 1&#45;&#45;4 -->
<g id="edge10" class="edge"><title>1&#45;&#45;4</title>
<path fill="none" stroke="black" d="M69.2369,-106.646C76.9353,-110.55 108.691,-126.652 116.51,-130.617"/>
</g>
<!-- 1&#45;&#45;5 -->
<g id="edge11" class="edge"><title>1&#45;&#45;5</title>
<path fill="none" stroke="black" d="M67.322,-107.697C66.1688,-117.348 60.9863,-160.717 59.8664,-170.089"/>
</g>
<!-- 1&#45;&#45;6 -->
<g id="edge12" class="edge"><title>1&#45;&#45;6</title>
<path fill="none" stroke="black" d="M66.7385,-103.845C62.198,-92.9597 39.9799,-39.6932 35.5137,-28.9857"/>
</g>
<!-- 2&#45;&#45;3 -->
<g id="edge13" class="edge"><title>2&#45;&#45;3</title>
<path fill="none" stroke="black" d="M93.9004,-55.7763C81.6587,-55.6515 15.964,-54.9817 3.75387,-54.8573"/>
</g>
<!-- 2&#45;&#45;4 -->
<g id="edge14" class="edge"><title>2&#45;&#45;4</title>
<path fill="none" stroke="black" d="M96.4186,-57.6677C99.5163,-68.1417 114.674,-119.393 117.721,-129.696"/>
</g>
<!-- 2&#45;&#45;6 -->
<g id="edge15" class="edge"><title>2&#45;&#45;6</title>
<path fill="none" stroke="black" d="M94.1014,-54.9687C85.1741,-50.7795 45.0551,-31.9534 36.3858,-27.8854"/>
</g>
<!-- 2&#45;&#45;7 -->
<g id="edge16" class="edge"><title>2&#45;&#45;7</title>
<path fill="none" stroke="black" d="M94.8335,-53.9998C90.1261,-45.8017 70.7082,-11.9848 65.9273,-3.65868"/>
</g>
<!-- 3&#45;&#45;6 -->
<g id="edge17" class="edge"><title>3&#45;&#45;6</title>
<path fill="none" stroke="black" d="M3.215,-53.6459C8.53329,-49.1677 27.3135,-33.3543 33.0525,-28.5219"/>
</g>
<!-- 3&#45;&#45;7 -->
<g id="edge18" class="edge"><title>3&#45;&#45;7</title>
<path fill="none" stroke="black" d="M3.3588,-53.5263C12.0074,-46.2523 54.0343,-10.9051 63.1242,-3.25997"/>
</g>
<!-- 4&#45;&#45;5 -->
<g id="edge19" class="edge"><title>4&#45;&#45;5</title>
<path fill="none" stroke="black" d="M116.565,-132.667C108.007,-138.563 69.5493,-165.059 61.239,-170.785"/>
</g>
<!-- 8 -->
<g id="node9" class="node"><title>8</title>
<ellipse fill="black" stroke="black" cx="127.743" cy="-206.929" rx="1.8" ry="1.8"/>
</g>
<!-- 4&#45;&#45;8 -->
<g id="edge20" class="edge"><title>4&#45;&#45;8</title>
<path fill="none" stroke="black" d="M118.49,-133.366C119.803,-143.802 126.225,-194.865 127.517,-205.129"/>
</g>
<!-- 5&#45;&#45;8 -->
<g id="edge21" class="edge"><title>5&#45;&#45;8</title>
<path fill="none" stroke="black" d="M61.3357,-172.744C70.6742,-177.552 116.054,-200.911 125.869,-205.964"/>
</g>
</g>
</svg>
