<?xml version="1.0" encoding="UTF-8" standalone="no"?>
<!DOCTYPE svg PUBLIC "-//W3C//DTD SVG 1.1//EN"
 "http://www.w3.org/Graphics/SVG/1.1/DTD/svg11.dtd">
<!-- Generated by graphviz version 2.36.0 (20140111.2315)
 -->
<!-- Title: %3 Pages: 1 -->
<svg width="193pt" height="193pt"
 viewBox="0.00 0.00 193.45 193.46" xmlns="http://www.w3.org/2000/svg" xmlns:xlink="http://www.w3.org/1999/xlink">
<g id="graph0" class="graph" transform="scale(1 1) rotate(0) translate(4 189.464)">
<title>%3</title>
<!-- 0 -->
<g id="node1" class="node"><title>0</title>
<ellipse fill="black" stroke="black" cx="79.4781" cy="-103.551" rx="1.8" ry="1.8"/>
</g>
<!-- 1 -->
<g id="node2" class="node"><title>1</title>
<ellipse fill="black" stroke="black" cx="154.719" cy="-71.4405" rx="1.8" ry="1.8"/>
</g>
<!-- 0&#45;&#45;1 -->
<g id="edge1" class="edge"><title>0&#45;&#45;1</title>
<path fill="none" stroke="black" d="M81.338,-102.758C91.7477,-98.3151 142.685,-76.5764 152.924,-72.2065"/>
</g>
<!-- 2 -->
<g id="node3" class="node"><title>2</title>
<ellipse fill="black" stroke="black" cx="112.551" cy="-29.2042" rx="1.8" ry="1.8"/>
</g>
<!-- 0&#45;&#45;2 -->
<g id="edge2" class="edge"><title>0&#45;&#45;2</title>
<path fill="none" stroke="black" d="M80.2956,-101.714C84.8713,-91.4275 107.261,-41.0954 111.762,-30.9777"/>
</g>
<!-- 4 -->
<g id="node4" class="node"><title>4</title>
<ellipse fill="black" stroke="black" cx="72.0218" cy="-183.664" rx="1.8" ry="1.8"/>
</g>
<!-- 0&#45;&#45;4 -->
<g id="edge3" class="edge"><title>0&#45;&#45;4</title>
<path fill="none" stroke="black" d="M79.2937,-105.532C78.2622,-116.615 73.2144,-170.85 72.1997,-181.752"/>
</g>
<!-- 5 -->
<g id="node5" class="node"><title>5</title>
<ellipse fill="black" stroke="black" cx="129.95" cy="-169.629" rx="1.8" ry="1.8"/>
</g>
<!-- 0&#45;&#45;5 -->
<g id="edge4" class="edge"><title>0&#45;&#45;5</title>
<path fill="none" stroke="black" d="M80.7257,-105.185C87.6479,-114.247 121.286,-158.285 128.561,-167.81"/>
</g>
<!-- 6 -->
<g id="node6" class="node"><title>6</title>
<ellipse fill="black" stroke="black" cx="1.8" cy="-130.255" rx="1.8" ry="1.8"/>
</g>
<!-- 0&#45;&#45;6 -->
<g id="edge5" class="edge"><title>0&#45;&#45;6</title>
<path fill="none" stroke="black" d="M77.5579,-104.212C66.811,-107.906 14.2239,-125.984 3.65302,-129.618"/>
</g>
<!-- 7 -->
<g id="node7" class="node"><title>7</title>
<ellipse fill="black" stroke="black" cx="14.688" cy="-49.9916" rx="1.8" ry="1.8"/>
</g>
<!-- 0&#45;&#45;7 -->
<g id="edge6" class="edge"><title>0&#45;&#45;7</title>
<path fill="none" stroke="black" d="M77.8765,-102.227C68.9906,-94.8818 25.8108,-59.1864 16.4715,-51.4659"/>
</g>
<!-- 1&#45;&#45;2 -->
<g id="edge7" class="edge"><title>1&#45;&#45;2</title>
<path fill="none" stroke="black" d="M153.316,-70.0352C146.914,-63.6227 120.505,-37.1708 114.002,-30.6581"/>
</g>
<!-- 3 -->
<g id="node8" class="node"><title>3</title>
<ellipse fill="black" stroke="black" cx="183.651" cy="-1.8" rx="1.8" ry="1.8"/>
</g>
<!-- 1&#45;&#45;3 -->
<g id="edge8" class="edge"><title>1&#45;&#45;3</title>
<path fill="none" stroke="black" d="M155.434,-69.719C159.402,-60.1679 178.684,-13.7555 182.855,-3.71701"/>
</g>
<!-- 2&#45;&#45;3 -->
<g id="edge9" class="edge"><title>2&#45;&#45;3</title>
<path fill="none" stroke="black" d="M114.308,-28.5268C124.145,-24.7353 172.279,-6.18306 181.955,-2.45373"/>
</g>
<!-- 4&#45;&#45;5 -->
<g id="edge10" class="edge"><title>4&#45;&#45;5</title>
<path fill="none" stroke="black" d="M73.9492,-183.197C82.7443,-181.066 119.024,-172.276 127.956,-170.112"/>
</g>
</g>
</svg>
