<?xml version="1.0" encoding="UTF-8" standalone="no"?>
<!DOCTYPE svg PUBLIC "-//W3C//DTD SVG 1.1//EN"
 "http://www.w3.org/Graphics/SVG/1.1/DTD/svg11.dtd">
<!-- Generated by graphviz version 2.36.0 (20140111.2315)
 -->
<!-- Title: %3 Pages: 1 -->
<svg width="154pt" height="180pt"
 viewBox="0.00 0.00 154.04 179.99" xmlns="http://www.w3.org/2000/svg" xmlns:xlink="http://www.w3.org/1999/xlink">
<g id="graph0" class="graph" transform="scale(1 1) rotate(0) translate(4 175.991)">
<title>%3</title>
<!-- 0 -->
<g id="node1" class="node"><title>0</title>
<ellipse fill="black" stroke="black" cx="54.7266" cy="-86.7802" rx="1.8" ry="1.8"/>
</g>
<!-- 1 -->
<g id="node2" class="node"><title>1</title>
<ellipse fill="black" stroke="black" cx="92.7528" cy="-99.0253" rx="1.8" ry="1.8"/>
</g>
<!-- 0&#45;&#45;1 -->
<g id="edge1" class="edge"><title>0&#45;&#45;1</title>
<path fill="none" stroke="black" d="M56.7711,-87.4385C63.4354,-89.5845 84.4695,-96.358 90.88,-98.4223"/>
</g>
<!-- 2 -->
<g id="node3" class="node"><title>2</title>
<ellipse fill="black" stroke="black" cx="16.8596" cy="-121.971" rx="1.8" ry="1.8"/>
</g>
<!-- 0&#45;&#45;2 -->
<g id="edge2" class="edge"><title>0&#45;&#45;2</title>
<path fill="none" stroke="black" d="M53.0995,-88.2923C46.8708,-94.0808 24.5836,-114.793 18.4385,-120.504"/>
</g>
<!-- 3 -->
<g id="node4" class="node"><title>3</title>
<ellipse fill="black" stroke="black" cx="53.1693" cy="-170.191" rx="1.8" ry="1.8"/>
</g>
<!-- 0&#45;&#45;3 -->
<g id="edge3" class="edge"><title>0&#45;&#45;3</title>
<path fill="none" stroke="black" d="M54.6881,-88.842C54.4727,-100.382 53.4184,-156.85 53.2065,-168.201"/>
</g>
<!-- 4 -->
<g id="node5" class="node"><title>4</title>
<ellipse fill="black" stroke="black" cx="89.0583" cy="-156.839" rx="1.8" ry="1.8"/>
</g>
<!-- 0&#45;&#45;4 -->
<g id="edge4" class="edge"><title>0&#45;&#45;4</title>
<path fill="none" stroke="black" d="M55.5753,-88.5119C60.2838,-98.1204 83.1644,-144.812 88.1132,-154.91"/>
</g>
<!-- 5 -->
<g id="node6" class="node"><title>5</title>
<ellipse fill="black" stroke="black" cx="1.8" cy="-164.701" rx="1.8" ry="1.8"/>
</g>
<!-- 0&#45;&#45;5 -->
<g id="edge5" class="edge"><title>0&#45;&#45;5</title>
<path fill="none" stroke="black" d="M53.6212,-88.4076C46.7333,-98.5484 9.76953,-152.968 2.89937,-163.083"/>
</g>
<!-- 6 -->
<g id="node7" class="node"><title>6</title>
<ellipse fill="black" stroke="black" cx="15.4247" cy="-36.5926" rx="1.8" ry="1.8"/>
</g>
<!-- 0&#45;&#45;6 -->
<g id="edge6" class="edge"><title>0&#45;&#45;6</title>
<path fill="none" stroke="black" d="M53.419,-85.1103C47.4519,-77.4906 22.8379,-46.059 16.7776,-38.3202"/>
</g>
<!-- 7 -->
<g id="node8" class="node"><title>7</title>
<ellipse fill="black" stroke="black" cx="59.1952" cy="-1.8" rx="1.8" ry="1.8"/>
</g>
<!-- 0&#45;&#45;7 -->
<g id="edge7" class="edge"><title>0&#45;&#45;7</title>
<path fill="none" stroke="black" d="M54.8371,-84.6795C55.4553,-72.9223 58.4805,-15.3918 59.0886,-3.82722"/>
</g>
<!-- 8 -->
<g id="node9" class="node"><title>8</title>
<ellipse fill="black" stroke="black" cx="144.236" cy="-65.0714" rx="1.8" ry="1.8"/>
</g>
<!-- 0&#45;&#45;8 -->
<g id="edge8" class="edge"><title>0&#45;&#45;8</title>
<path fill="none" stroke="black" d="M56.5962,-86.3267C68.2449,-83.5016 130.758,-68.3403 142.376,-65.5224"/>
</g>
<!-- 1&#45;&#45;2 -->
<g id="edge9" class="edge"><title>1&#45;&#45;2</title>
<path fill="none" stroke="black" d="M90.8767,-99.5925C80.3768,-102.767 28.9981,-118.301 18.6701,-121.424"/>
</g>
<!-- 1&#45;&#45;3 -->
<g id="edge10" class="edge"><title>1&#45;&#45;3</title>
<path fill="none" stroke="black" d="M91.7743,-100.784C86.2979,-110.63 59.5003,-158.809 54.1136,-168.493"/>
</g>
<!-- 1&#45;&#45;4 -->
<g id="edge11" class="edge"><title>1&#45;&#45;4</title>
<path fill="none" stroke="black" d="M92.6298,-100.949C92.0689,-109.726 89.7552,-145.934 89.1855,-154.849"/>
</g>
<!-- 1&#45;&#45;6 -->
<g id="edge12" class="edge"><title>1&#45;&#45;6</title>
<path fill="none" stroke="black" d="M91.1377,-97.7213C81.0742,-89.5963 27.0685,-45.9935 17.0309,-37.8894"/>
</g>
<!-- 1&#45;&#45;8 -->
<g id="edge13" class="edge"><title>1&#45;&#45;8</title>
<path fill="none" stroke="black" d="M94.4657,-97.8956C102.282,-92.7405 134.525,-71.4758 142.464,-66.2402"/>
</g>
<!-- 2&#45;&#45;3 -->
<g id="edge14" class="edge"><title>2&#45;&#45;3</title>
<path fill="none" stroke="black" d="M18.0677,-123.575C23.5805,-130.896 46.3206,-161.096 51.9195,-168.531"/>
</g>
<!-- 2&#45;&#45;4 -->
<g id="edge15" class="edge"><title>2&#45;&#45;4</title>
<path fill="none" stroke="black" d="M18.6443,-122.833C28.6331,-127.657 77.5108,-151.262 87.336,-156.007"/>
</g>
<!-- 2&#45;&#45;5 -->
<g id="edge16" class="edge"><title>2&#45;&#45;5</title>
<path fill="none" stroke="black" d="M16.2125,-123.807C13.7354,-130.836 4.87181,-155.985 2.42792,-162.92"/>
</g>
<!-- 3&#45;&#45;4 -->
<g id="edge17" class="edge"><title>3&#45;&#45;4</title>
<path fill="none" stroke="black" d="M55.0989,-169.473C61.3886,-167.133 81.2406,-159.747 87.2908,-157.496"/>
</g>
<!-- 3&#45;&#45;5 -->
<g id="edge18" class="edge"><title>3&#45;&#45;5</title>
<path fill="none" stroke="black" d="M50.962,-169.955C42.5123,-169.052 12.2781,-165.821 3.94188,-164.93"/>
</g>
<!-- 4&#45;&#45;5 -->
<g id="edge19" class="edge"><title>4&#45;&#45;5</title>
<path fill="none" stroke="black" d="M87.2358,-157.003C75.8799,-158.026 14.9391,-163.517 3.61249,-164.538"/>
</g>
<!-- 6&#45;&#45;7 -->
<g id="edge20" class="edge"><title>6&#45;&#45;7</title>
<path fill="none" stroke="black" d="M16.881,-35.435C23.5265,-30.1526 50.9392,-8.3626 57.6885,-2.99764"/>
</g>
</g>
</svg>
