<?xml version="1.0" encoding="UTF-8" standalone="no"?>
<!DOCTYPE svg PUBLIC "-//W3C//DTD SVG 1.1//EN"
 "http://www.w3.org/Graphics/SVG/1.1/DTD/svg11.dtd">
<!-- Generated by graphviz version 2.36.0 (20140111.2315)
 -->
<!-- Title: %3 Pages: 1 -->
<svg width="176pt" height="248pt"
 viewBox="0.00 0.00 176.38 248.42" xmlns="http://www.w3.org/2000/svg" xmlns:xlink="http://www.w3.org/1999/xlink">
<g id="graph0" class="graph" transform="scale(1 1) rotate(0) translate(4 244.424)">
<title>%3</title>
<!-- 0 -->
<g id="node1" class="node"><title>0</title>
<ellipse fill="black" stroke="black" cx="81.7493" cy="-159.297" rx="1.8" ry="1.8"/>
</g>
<!-- 1 -->
<g id="node2" class="node"><title>1</title>
<ellipse fill="black" stroke="black" cx="108.81" cy="-74.895" rx="1.8" ry="1.8"/>
</g>
<!-- 0&#45;&#45;1 -->
<g id="edge1" class="edge"><title>0&#45;&#45;1</title>
<path fill="none" stroke="black" d="M82.3145,-157.534C85.8362,-146.55 104.735,-87.604 108.248,-76.6482"/>
</g>
<!-- 2 -->
<g id="node3" class="node"><title>2</title>
<ellipse fill="black" stroke="black" cx="117.583" cy="-126.242" rx="1.8" ry="1.8"/>
</g>
<!-- 0&#45;&#45;2 -->
<g id="edge2" class="edge"><title>0&#45;&#45;2</title>
<path fill="none" stroke="black" d="M83.289,-157.876C89.1832,-152.439 110.273,-132.984 116.088,-127.62"/>
</g>
<!-- 3 -->
<g id="node4" class="node"><title>3</title>
<ellipse fill="black" stroke="black" cx="142.967" cy="-199.565" rx="1.8" ry="1.8"/>
</g>
<!-- 0&#45;&#45;3 -->
<g id="edge3" class="edge"><title>0&#45;&#45;3</title>
<path fill="none" stroke="black" d="M83.2626,-160.292C91.6586,-165.815 132.458,-192.652 141.282,-198.457"/>
</g>
<!-- 4 -->
<g id="node5" class="node"><title>4</title>
<ellipse fill="black" stroke="black" cx="166.581" cy="-133.667" rx="1.8" ry="1.8"/>
</g>
<!-- 0&#45;&#45;4 -->
<g id="edge4" class="edge"><title>0&#45;&#45;4</title>
<path fill="none" stroke="black" d="M83.5212,-158.761C94.5612,-155.426 153.807,-137.526 164.819,-134.199"/>
</g>
<!-- 5 -->
<g id="node6" class="node"><title>5</title>
<ellipse fill="black" stroke="black" cx="42.3185" cy="-101.416" rx="1.8" ry="1.8"/>
</g>
<!-- 0&#45;&#45;5 -->
<g id="edge5" class="edge"><title>0&#45;&#45;5</title>
<path fill="none" stroke="black" d="M80.4374,-157.371C74.3439,-148.426 48.868,-111.03 43.3681,-102.957"/>
</g>
<!-- 6 -->
<g id="node7" class="node"><title>6</title>
<ellipse fill="black" stroke="black" cx="1.8" cy="-158.916" rx="1.8" ry="1.8"/>
</g>
<!-- 0&#45;&#45;6 -->
<g id="edge6" class="edge"><title>0&#45;&#45;6</title>
<path fill="none" stroke="black" d="M79.773,-159.287C68.7119,-159.235 14.5872,-158.977 3.70721,-158.925"/>
</g>
<!-- 7 -->
<g id="node8" class="node"><title>7</title>
<ellipse fill="black" stroke="black" cx="86.0602" cy="-238.624" rx="1.8" ry="1.8"/>
</g>
<!-- 0&#45;&#45;7 -->
<g id="edge7" class="edge"><title>0&#45;&#45;7</title>
<path fill="none" stroke="black" d="M81.8559,-161.258C82.4523,-172.233 85.3707,-225.936 85.9573,-236.732"/>
</g>
<!-- 1&#45;&#45;2 -->
<g id="edge8" class="edge"><title>1&#45;&#45;2</title>
<path fill="none" stroke="black" d="M109.187,-77.1013C110.63,-85.5474 115.793,-115.768 117.217,-124.101"/>
</g>
<!-- 1&#45;&#45;4 -->
<g id="edge9" class="edge"><title>1&#45;&#45;4</title>
<path fill="none" stroke="black" d="M110.238,-76.3478C118.161,-84.4083 156.663,-123.577 164.991,-132.049"/>
</g>
<!-- 1&#45;&#45;5 -->
<g id="edge10" class="edge"><title>1&#45;&#45;5</title>
<path fill="none" stroke="black" d="M106.892,-75.6601C97.1821,-79.5329 53.5474,-96.9371 44.1185,-100.698"/>
</g>
<!-- 8 -->
<g id="node9" class="node"><title>8</title>
<ellipse fill="black" stroke="black" cx="129.849" cy="-1.8" rx="1.8" ry="1.8"/>
</g>
<!-- 1&#45;&#45;8 -->
<g id="edge11" class="edge"><title>1&#45;&#45;8</title>
<path fill="none" stroke="black" d="M109.33,-73.0882C112.241,-62.9753 126.484,-13.4909 129.347,-3.5437"/>
</g>
<!-- 2&#45;&#45;3 -->
<g id="edge12" class="edge"><title>2&#45;&#45;3</title>
<path fill="none" stroke="black" d="M118.21,-128.054C121.722,-138.199 138.907,-187.838 142.362,-197.816"/>
</g>
<!-- 2&#45;&#45;4 -->
<g id="edge13" class="edge"><title>2&#45;&#45;4</title>
<path fill="none" stroke="black" d="M119.688,-126.561C127.748,-127.782 156.587,-132.153 164.538,-133.357"/>
</g>
<!-- 2&#45;&#45;5 -->
<g id="edge14" class="edge"><title>2&#45;&#45;5</title>
<path fill="none" stroke="black" d="M115.722,-125.628C105.309,-122.194 54.3563,-105.387 44.1139,-102.008"/>
</g>
<!-- 3&#45;&#45;4 -->
<g id="edge15" class="edge"><title>3&#45;&#45;4</title>
<path fill="none" stroke="black" d="M143.649,-197.664C147.097,-188.041 162.593,-144.796 165.942,-135.451"/>
</g>
<!-- 3&#45;&#45;7 -->
<g id="edge16" class="edge"><title>3&#45;&#45;7</title>
<path fill="none" stroke="black" d="M141.074,-200.865C132.28,-206.901 95.5126,-232.136 87.575,-237.584"/>
</g>
<!-- 5&#45;&#45;6 -->
<g id="edge17" class="edge"><title>5&#45;&#45;6</title>
<path fill="none" stroke="black" d="M40.9704,-103.329C34.7088,-112.215 8.5302,-149.365 2.87855,-157.386"/>
</g>
</g>
</svg>
