<?xml version="1.0" encoding="UTF-8" standalone="no"?>
<!DOCTYPE svg PUBLIC "-//W3C//DTD SVG 1.1//EN"
 "http://www.w3.org/Graphics/SVG/1.1/DTD/svg11.dtd">
<!-- Generated by graphviz version 2.36.0 (20140111.2315)
 -->
<!-- Title: %3 Pages: 1 -->
<svg width="104pt" height="160pt"
 viewBox="0.00 0.00 103.54 160.09" xmlns="http://www.w3.org/2000/svg" xmlns:xlink="http://www.w3.org/1999/xlink">
<g id="graph0" class="graph" transform="scale(1 1) rotate(0) translate(4 156.086)">
<title>%3</title>
<!-- 0 -->
<g id="node1" class="node"><title>0</title>
<ellipse fill="black" stroke="black" cx="1.8" cy="-75.7985" rx="1.8" ry="1.8"/>
</g>
<!-- 1 -->
<g id="node2" class="node"><title>1</title>
<ellipse fill="black" stroke="black" cx="53.3782" cy="-76.4396" rx="1.8" ry="1.8"/>
</g>
<!-- 0&#45;&#45;1 -->
<g id="edge1" class="edge"><title>0&#45;&#45;1</title>
<path fill="none" stroke="black" d="M4.01625,-75.826C12.5003,-75.9315 42.8574,-76.3088 51.2276,-76.4129"/>
</g>
<!-- 2 -->
<g id="node3" class="node"><title>2</title>
<ellipse fill="black" stroke="black" cx="51.0032" cy="-51.1313" rx="1.8" ry="1.8"/>
</g>
<!-- 0&#45;&#45;2 -->
<g id="edge2" class="edge"><title>0&#45;&#45;2</title>
<path fill="none" stroke="black" d="M3.43708,-74.9777C10.9074,-71.2326 41.7224,-55.7841 49.3095,-51.9804"/>
</g>
<!-- 3 -->
<g id="node4" class="node"><title>3</title>
<ellipse fill="black" stroke="black" cx="49.1335" cy="-150.286" rx="1.8" ry="1.8"/>
</g>
<!-- 0&#45;&#45;3 -->
<g id="edge3" class="edge"><title>0&#45;&#45;3</title>
<path fill="none" stroke="black" d="M2.78863,-77.3542C8.94864,-87.048 42.0062,-139.07 48.1504,-148.738"/>
</g>
<!-- 4 -->
<g id="node5" class="node"><title>4</title>
<ellipse fill="black" stroke="black" cx="82.2404" cy="-130.611" rx="1.8" ry="1.8"/>
</g>
<!-- 0&#45;&#45;4 -->
<g id="edge4" class="edge"><title>0&#45;&#45;4</title>
<path fill="none" stroke="black" d="M3.48011,-76.9433C13.9487,-84.0766 70.1279,-122.357 80.5695,-129.472"/>
</g>
<!-- 5 -->
<g id="node6" class="node"><title>5</title>
<ellipse fill="black" stroke="black" cx="3.49343" cy="-136.155" rx="1.8" ry="1.8"/>
</g>
<!-- 0&#45;&#45;5 -->
<g id="edge5" class="edge"><title>0&#45;&#45;5</title>
<path fill="none" stroke="black" d="M1.85634,-77.8066C2.11345,-86.9702 3.17402,-124.77 3.43514,-134.077"/>
</g>
<!-- 6 -->
<g id="node7" class="node"><title>6</title>
<ellipse fill="black" stroke="black" cx="23.1822" cy="-112.196" rx="1.8" ry="1.8"/>
</g>
<!-- 0&#45;&#45;6 -->
<g id="edge6" class="edge"><title>0&#45;&#45;6</title>
<path fill="none" stroke="black" d="M2.71877,-77.3624C6.17198,-83.2405 18.3661,-103.998 22.0925,-110.341"/>
</g>
<!-- 7 -->
<g id="node8" class="node"><title>7</title>
<ellipse fill="black" stroke="black" cx="93.7419" cy="-93.4252" rx="1.8" ry="1.8"/>
</g>
<!-- 0&#45;&#45;7 -->
<g id="edge7" class="edge"><title>0&#45;&#45;7</title>
<path fill="none" stroke="black" d="M3.72034,-76.1666C15.6857,-78.4606 79.8975,-90.771 91.8321,-93.0591"/>
</g>
<!-- 8 -->
<g id="node9" class="node"><title>8</title>
<ellipse fill="black" stroke="black" cx="8.17036" cy="-1.8" rx="1.8" ry="1.8"/>
</g>
<!-- 0&#45;&#45;8 -->
<g id="edge8" class="edge"><title>0&#45;&#45;8</title>
<path fill="none" stroke="black" d="M1.95747,-73.9693C2.83116,-63.8205 7.07673,-14.5036 7.995,-3.83697"/>
</g>
<!-- 1&#45;&#45;2 -->
<g id="edge9" class="edge"><title>1&#45;&#45;2</title>
<path fill="none" stroke="black" d="M53.1918,-74.4537C52.7457,-69.6994 51.6208,-57.7123 51.1822,-53.0387"/>
</g>
<!-- 1&#45;&#45;3 -->
<g id="edge10" class="edge"><title>1&#45;&#45;3</title>
<path fill="none" stroke="black" d="M53.2733,-78.265C52.6911,-88.3929 49.8622,-137.608 49.2504,-148.253"/>
</g>
<!-- 1&#45;&#45;4 -->
<g id="edge11" class="edge"><title>1&#45;&#45;4</title>
<path fill="none" stroke="black" d="M54.3385,-78.242C58.7205,-86.4666 76.7964,-120.393 81.2469,-128.746"/>
</g>
<!-- 1&#45;&#45;5 -->
<g id="edge12" class="edge"><title>1&#45;&#45;5</title>
<path fill="none" stroke="black" d="M52.1451,-77.9157C45.3034,-86.1056 12.0574,-125.903 4.86662,-134.511"/>
</g>
<!-- 1&#45;&#45;6 -->
<g id="edge13" class="edge"><title>1&#45;&#45;6</title>
<path fill="none" stroke="black" d="M52.0807,-77.976C47.1138,-83.8576 29.3415,-104.902 24.4413,-110.705"/>
</g>
<!-- 1&#45;&#45;7 -->
<g id="edge14" class="edge"><title>1&#45;&#45;7</title>
<path fill="none" stroke="black" d="M55.1126,-77.1695C61.752,-79.9634 85.5086,-89.9606 92.0589,-92.717"/>
</g>
<!-- 1&#45;&#45;8 -->
<g id="edge15" class="edge"><title>1&#45;&#45;8</title>
<path fill="none" stroke="black" d="M52.434,-74.8807C46.5506,-65.167 14.9776,-13.039 9.10939,-3.35038"/>
</g>
<!-- 2&#45;&#45;3 -->
<g id="edge16" class="edge"><title>2&#45;&#45;3</title>
<path fill="none" stroke="black" d="M50.9641,-53.2023C50.7208,-66.1063 49.4151,-135.355 49.1724,-148.226"/>
</g>
<!-- 2&#45;&#45;4 -->
<g id="edge17" class="edge"><title>2&#45;&#45;4</title>
<path fill="none" stroke="black" d="M51.7753,-53.096C56.0971,-64.0921 77.2443,-117.899 81.4952,-128.715"/>
</g>
<!-- 2&#45;&#45;5 -->
<g id="edge18" class="edge"><title>2&#45;&#45;5</title>
<path fill="none" stroke="black" d="M50.0109,-52.9072C43.8279,-63.9721 10.6473,-123.352 4.48028,-134.389"/>
</g>
<!-- 2&#45;&#45;6 -->
<g id="edge19" class="edge"><title>2&#45;&#45;6</title>
<path fill="none" stroke="black" d="M50.2005,-52.893C46.1379,-61.8101 27.8806,-101.883 23.9354,-110.543"/>
</g>
<!-- 2&#45;&#45;7 -->
<g id="edge20" class="edge"><title>2&#45;&#45;7</title>
<path fill="none" stroke="black" d="M52.4252,-52.5385C58.914,-58.9598 85.6805,-85.4477 92.2707,-91.9694"/>
</g>
<!-- 2&#45;&#45;8 -->
<g id="edge21" class="edge"><title>2&#45;&#45;8</title>
<path fill="none" stroke="black" d="M49.578,-49.49C43.0749,-42.0002 16.2495,-11.1049 9.64476,-3.4981"/>
</g>
<!-- 3&#45;&#45;4 -->
<g id="edge22" class="edge"><title>3&#45;&#45;4</title>
<path fill="none" stroke="black" d="M50.9135,-149.228C56.7157,-145.78 75.0287,-134.896 80.6099,-131.58"/>
</g>
<!-- 3&#45;&#45;5 -->
<g id="edge23" class="edge"><title>3&#45;&#45;5</title>
<path fill="none" stroke="black" d="M47.1724,-149.678C39.6651,-147.354 12.8029,-139.037 5.39642,-136.744"/>
</g>
<!-- 3&#45;&#45;6 -->
<g id="edge24" class="edge"><title>3&#45;&#45;6</title>
<path fill="none" stroke="black" d="M48.0184,-148.649C43.7497,-142.384 28.4757,-119.965 24.2643,-113.784"/>
</g>
<!-- 3&#45;&#45;7 -->
<g id="edge25" class="edge"><title>3&#45;&#45;7</title>
<path fill="none" stroke="black" d="M50.6177,-148.394C57.5114,-139.607 86.3323,-102.87 92.5545,-94.9388"/>
</g>
<!-- 4&#45;&#45;5 -->
<g id="edge26" class="edge"><title>4&#45;&#45;5</title>
<path fill="none" stroke="black" d="M80.2938,-130.748C69.399,-131.515 16.0883,-135.268 5.37195,-136.022"/>
</g>
<!-- 4&#45;&#45;6 -->
<g id="edge27" class="edge"><title>4&#45;&#45;6</title>
<path fill="none" stroke="black" d="M80.2754,-129.998C71.3089,-127.202 34.3218,-115.669 25.2152,-112.83"/>
</g>
<!-- 4&#45;&#45;7 -->
<g id="edge28" class="edge"><title>4&#45;&#45;7</title>
<path fill="none" stroke="black" d="M82.8588,-128.611C84.8745,-122.094 91.2365,-101.525 93.1754,-95.2566"/>
</g>
<!-- 5&#45;&#45;6 -->
<g id="edge29" class="edge"><title>5&#45;&#45;6</title>
<path fill="none" stroke="black" d="M4.78527,-134.583C8.34421,-130.252 18.2648,-118.18 21.8598,-113.805"/>
</g>
<!-- 5&#45;&#45;7 -->
<g id="edge30" class="edge"><title>5&#45;&#45;7</title>
<path fill="none" stroke="black" d="M5.3784,-135.262C17.1234,-129.701 80.1525,-99.8593 91.8673,-94.3128"/>
</g>
<!-- 6&#45;&#45;7 -->
<g id="edge31" class="edge"><title>6&#45;&#45;7</title>
<path fill="none" stroke="black" d="M24.9264,-111.732C34.6036,-109.157 81.6286,-96.6477 91.7996,-93.9419"/>
</g>
</g>
</svg>
