<?xml version="1.0" encoding="UTF-8" standalone="no"?>
<!DOCTYPE svg PUBLIC "-//W3C//DTD SVG 1.1//EN"
 "http://www.w3.org/Graphics/SVG/1.1/DTD/svg11.dtd">
<!-- Generated by graphviz version 2.36.0 (20140111.2315)
 -->
<!-- Title: %3 Pages: 1 -->
<svg width="238pt" height="160pt"
 viewBox="0.00 0.00 238.15 159.59" xmlns="http://www.w3.org/2000/svg" xmlns:xlink="http://www.w3.org/1999/xlink">
<g id="graph0" class="graph" transform="scale(1 1) rotate(0) translate(4 155.588)">
<title>%3</title>
<!-- 0 -->
<g id="node1" class="node"><title>0</title>
<ellipse fill="black" stroke="black" cx="77.9633" cy="-70.2622" rx="1.8" ry="1.8"/>
</g>
<!-- 1 -->
<g id="node2" class="node"><title>1</title>
<ellipse fill="black" stroke="black" cx="164.088" cy="-85.1188" rx="1.8" ry="1.8"/>
</g>
<!-- 0&#45;&#45;1 -->
<g id="edge1" class="edge"><title>0&#45;&#45;1</title>
<path fill="none" stroke="black" d="M79.7621,-70.5725C90.9704,-72.5059 151.12,-82.8817 162.299,-84.8102"/>
</g>
<!-- 2 -->
<g id="node3" class="node"><title>2</title>
<ellipse fill="black" stroke="black" cx="145.965" cy="-42.135" rx="1.8" ry="1.8"/>
</g>
<!-- 0&#45;&#45;2 -->
<g id="edge2" class="edge"><title>0&#45;&#45;2</title>
<path fill="none" stroke="black" d="M79.6442,-69.5669C88.9707,-65.7093 134.291,-46.9637 144.094,-42.9093"/>
</g>
<!-- 3 -->
<g id="node4" class="node"><title>3</title>
<ellipse fill="black" stroke="black" cx="116.292" cy="-123.711" rx="1.8" ry="1.8"/>
</g>
<!-- 0&#45;&#45;3 -->
<g id="edge3" class="edge"><title>0&#45;&#45;3</title>
<path fill="none" stroke="black" d="M79.2386,-72.0405C85.0579,-80.1555 109.063,-113.63 114.973,-121.872"/>
</g>
<!-- 6 -->
<g id="node5" class="node"><title>6</title>
<ellipse fill="black" stroke="black" cx="34.9195" cy="-1.8" rx="1.8" ry="1.8"/>
</g>
<!-- 0&#45;&#45;6 -->
<g id="edge4" class="edge"><title>0&#45;&#45;6</title>
<path fill="none" stroke="black" d="M76.8993,-68.5698C70.9959,-59.1803 42.309,-13.5532 36.1044,-3.68457"/>
</g>
<!-- 7 -->
<g id="node6" class="node"><title>7</title>
<ellipse fill="black" stroke="black" cx="51.3709" cy="-149.788" rx="1.8" ry="1.8"/>
</g>
<!-- 0&#45;&#45;7 -->
<g id="edge5" class="edge"><title>0&#45;&#45;7</title>
<path fill="none" stroke="black" d="M77.3059,-72.228C73.6268,-83.2306 55.6241,-137.069 52.0052,-147.891"/>
</g>
<!-- 8 -->
<g id="node7" class="node"><title>8</title>
<ellipse fill="black" stroke="black" cx="1.8" cy="-55.4194" rx="1.8" ry="1.8"/>
</g>
<!-- 0&#45;&#45;8 -->
<g id="edge6" class="edge"><title>0&#45;&#45;8</title>
<path fill="none" stroke="black" d="M76.0806,-69.8953C65.5432,-67.8417 13.9816,-57.7934 3.61689,-55.7735"/>
</g>
<!-- 1&#45;&#45;2 -->
<g id="edge7" class="edge"><title>1&#45;&#45;2</title>
<path fill="none" stroke="black" d="M163.309,-83.2718C160.328,-76.2014 149.662,-50.9027 146.721,-43.9273"/>
</g>
<!-- 1&#45;&#45;3 -->
<g id="edge8" class="edge"><title>1&#45;&#45;3</title>
<path fill="none" stroke="black" d="M162.498,-86.4028C155.241,-92.2622 125.307,-116.432 117.937,-122.383"/>
</g>
<!-- 4 -->
<g id="node8" class="node"><title>4</title>
<ellipse fill="black" stroke="black" cx="228.349" cy="-69.0735" rx="1.8" ry="1.8"/>
</g>
<!-- 1&#45;&#45;4 -->
<g id="edge9" class="edge"><title>1&#45;&#45;4</title>
<path fill="none" stroke="black" d="M165.942,-84.6559C175.161,-82.3539 216.027,-72.1502 226.1,-69.6352"/>
</g>
<!-- 5 -->
<g id="node9" class="node"><title>5</title>
<ellipse fill="black" stroke="black" cx="206.305" cy="-10.7765" rx="1.8" ry="1.8"/>
</g>
<!-- 1&#45;&#45;5 -->
<g id="edge10" class="edge"><title>1&#45;&#45;5</title>
<path fill="none" stroke="black" d="M165.132,-83.2811C170.972,-72.9957 199.552,-22.6669 205.297,-12.5499"/>
</g>
<!-- 2&#45;&#45;3 -->
<g id="edge11" class="edge"><title>2&#45;&#45;3</title>
<path fill="none" stroke="black" d="M145.346,-43.8389C141.484,-54.4553 120.76,-111.428 116.909,-122.017"/>
</g>
<!-- 2&#45;&#45;4 -->
<g id="edge12" class="edge"><title>2&#45;&#45;4</title>
<path fill="none" stroke="black" d="M147.686,-42.6977C158.408,-46.2035 215.944,-65.0172 226.638,-68.514"/>
</g>
<!-- 2&#45;&#45;5 -->
<g id="edge13" class="edge"><title>2&#45;&#45;5</title>
<path fill="none" stroke="black" d="M147.706,-41.2303C156.517,-36.6511 196.115,-16.0722 204.671,-11.6254"/>
</g>
<!-- 3&#45;&#45;7 -->
<g id="edge14" class="edge"><title>3&#45;&#45;7</title>
<path fill="none" stroke="black" d="M114.419,-124.464C104.939,-128.272 62.3346,-145.385 53.1284,-149.083"/>
</g>
<!-- 6&#45;&#45;8 -->
<g id="edge16" class="edge"><title>6&#45;&#45;8</title>
<path fill="none" stroke="black" d="M33.8175,-3.58402C28.7891,-11.7248 8.04701,-45.3057 2.94005,-53.5737"/>
</g>
<!-- 4&#45;&#45;5 -->
<g id="edge15" class="edge"><title>4&#45;&#45;5</title>
<path fill="none" stroke="black" d="M227.616,-67.1339C224.269,-58.2829 210.463,-21.7725 207.063,-12.7832"/>
</g>
</g>
</svg>
