<?xml version="1.0" encoding="UTF-8" standalone="no"?>
<!DOCTYPE svg PUBLIC "-//W3C//DTD SVG 1.1//EN"
 "http://www.w3.org/Graphics/SVG/1.1/DTD/svg11.dtd">
<!-- Generated by graphviz version 2.36.0 (20140111.2315)
 -->
<!-- Title: %3 Pages: 1 -->
<svg width="149pt" height="175pt"
 viewBox="0.00 0.00 148.88 174.54" xmlns="http://www.w3.org/2000/svg" xmlns:xlink="http://www.w3.org/1999/xlink">
<g id="graph0" class="graph" transform="scale(1 1) rotate(0) translate(4 170.538)">
<title>%3</title>
<!-- 0 -->
<g id="node1" class="node"><title>0</title>
<ellipse fill="black" stroke="black" cx="63.0323" cy="-78.6105" rx="1.8" ry="1.8"/>
</g>
<!-- 1 -->
<g id="node2" class="node"><title>1</title>
<ellipse fill="black" stroke="black" cx="54.4212" cy="-124.283" rx="1.8" ry="1.8"/>
</g>
<!-- 0&#45;&#45;1 -->
<g id="edge1" class="edge"><title>0&#45;&#45;1</title>
<path fill="none" stroke="black" d="M62.6623,-80.573C61.2459,-88.0857 56.1777,-114.967 54.7803,-122.379"/>
</g>
<!-- 2 -->
<g id="node3" class="node"><title>2</title>
<ellipse fill="black" stroke="black" cx="90.9772" cy="-108.537" rx="1.8" ry="1.8"/>
</g>
<!-- 0&#45;&#45;2 -->
<g id="edge2" class="edge"><title>0&#45;&#45;2</title>
<path fill="none" stroke="black" d="M64.5348,-80.2195C69.4322,-85.4642 84.8899,-102.018 89.6009,-107.063"/>
</g>
<!-- 3 -->
<g id="node4" class="node"><title>3</title>
<ellipse fill="black" stroke="black" cx="76.8245" cy="-163.807" rx="1.8" ry="1.8"/>
</g>
<!-- 0&#45;&#45;3 -->
<g id="edge3" class="edge"><title>0&#45;&#45;3</title>
<path fill="none" stroke="black" d="M63.3204,-80.3899C65.0998,-91.3819 74.5822,-149.956 76.4899,-161.741"/>
</g>
<!-- 4 -->
<g id="node5" class="node"><title>4</title>
<ellipse fill="black" stroke="black" cx="120.156" cy="-155.405" rx="1.8" ry="1.8"/>
</g>
<!-- 0&#45;&#45;4 -->
<g id="edge4" class="edge"><title>0&#45;&#45;4</title>
<path fill="none" stroke="black" d="M64.2254,-80.2144C71.6596,-90.2085 111.555,-143.841 118.97,-153.81"/>
</g>
<!-- 5 -->
<g id="node6" class="node"><title>5</title>
<ellipse fill="black" stroke="black" cx="29.4459" cy="-164.738" rx="1.8" ry="1.8"/>
</g>
<!-- 0&#45;&#45;5 -->
<g id="edge5" class="edge"><title>0&#45;&#45;5</title>
<path fill="none" stroke="black" d="M62.3308,-80.4094C57.9599,-91.618 34.5033,-151.769 30.1436,-162.949"/>
</g>
<!-- 6 -->
<g id="node7" class="node"><title>6</title>
<ellipse fill="black" stroke="black" cx="1.8" cy="-111.692" rx="1.8" ry="1.8"/>
</g>
<!-- 0&#45;&#45;6 -->
<g id="edge6" class="edge"><title>0&#45;&#45;6</title>
<path fill="none" stroke="black" d="M61.2658,-79.5649C52.3242,-84.3957 12.1408,-106.105 3.45763,-110.797"/>
</g>
<!-- 7 -->
<g id="node8" class="node"><title>7</title>
<ellipse fill="black" stroke="black" cx="139.076" cy="-99.3452" rx="1.8" ry="1.8"/>
</g>
<!-- 0&#45;&#45;7 -->
<g id="edge7" class="edge"><title>0&#45;&#45;7</title>
<path fill="none" stroke="black" d="M64.912,-79.123C75.4328,-81.9917 126.913,-96.0288 137.262,-98.8505"/>
</g>
<!-- 8 -->
<g id="node9" class="node"><title>8</title>
<ellipse fill="black" stroke="black" cx="54.5269" cy="-1.8" rx="1.8" ry="1.8"/>
</g>
<!-- 0&#45;&#45;8 -->
<g id="edge8" class="edge"><title>0&#45;&#45;8</title>
<path fill="none" stroke="black" d="M62.8221,-76.7118C61.6453,-66.0849 55.8873,-14.0852 54.7298,-3.63233"/>
</g>
<!-- 1&#45;&#45;2 -->
<g id="edge9" class="edge"><title>1&#45;&#45;2</title>
<path fill="none" stroke="black" d="M56.3866,-123.437C62.7933,-120.677 83.0142,-111.967 89.1768,-109.312"/>
</g>
<!-- 1&#45;&#45;3 -->
<g id="edge10" class="edge"><title>1&#45;&#45;3</title>
<path fill="none" stroke="black" d="M55.3839,-125.982C59.069,-132.483 72.2547,-155.745 75.8904,-162.159"/>
</g>
<!-- 1&#45;&#45;4 -->
<g id="edge11" class="edge"><title>1&#45;&#45;4</title>
<path fill="none" stroke="black" d="M56.3177,-125.181C65.9168,-129.726 109.055,-150.149 118.377,-154.562"/>
</g>
<!-- 1&#45;&#45;5 -->
<g id="edge12" class="edge"><title>1&#45;&#45;5</title>
<path fill="none" stroke="black" d="M53.3481,-126.022C49.2399,-132.676 34.5403,-156.486 30.4873,-163.051"/>
</g>
<!-- 1&#45;&#45;6 -->
<g id="edge13" class="edge"><title>1&#45;&#45;6</title>
<path fill="none" stroke="black" d="M52.6704,-123.864C44.6812,-121.953 11.7254,-114.067 3.61134,-112.126"/>
</g>
<!-- 1&#45;&#45;7 -->
<g id="edge14" class="edge"><title>1&#45;&#45;7</title>
<path fill="none" stroke="black" d="M56.1894,-123.763C67.2063,-120.517 126.329,-103.1 137.317,-99.8632"/>
</g>
<!-- 2&#45;&#45;3 -->
<g id="edge15" class="edge"><title>2&#45;&#45;3</title>
<path fill="none" stroke="black" d="M90.5063,-110.376C88.3575,-118.767 79.494,-153.382 77.3116,-161.905"/>
</g>
<!-- 2&#45;&#45;4 -->
<g id="edge16" class="edge"><title>2&#45;&#45;4</title>
<path fill="none" stroke="black" d="M91.948,-110.096C96.3781,-117.212 114.652,-146.565 119.152,-153.792"/>
</g>
<!-- 2&#45;&#45;5 -->
<g id="edge17" class="edge"><title>2&#45;&#45;5</title>
<path fill="none" stroke="black" d="M89.4562,-109.926C81.0172,-117.634 40.0093,-155.089 31.1397,-163.191"/>
</g>
<!-- 2&#45;&#45;6 -->
<g id="edge18" class="edge"><title>2&#45;&#45;6</title>
<path fill="none" stroke="black" d="M89.1146,-108.603C77.509,-109.013 15.228,-111.217 3.65234,-111.627"/>
</g>
<!-- 2&#45;&#45;7 -->
<g id="edge19" class="edge"><title>2&#45;&#45;7</title>
<path fill="none" stroke="black" d="M93.0439,-108.142C100.956,-106.63 129.265,-101.22 137.07,-99.7284"/>
</g>
<!-- 3&#45;&#45;4 -->
<g id="edge20" class="edge"><title>3&#45;&#45;4</title>
<path fill="none" stroke="black" d="M78.6864,-163.446C85.814,-162.064 111.318,-157.119 118.349,-155.755"/>
</g>
<!-- 3&#45;&#45;5 -->
<g id="edge21" class="edge"><title>3&#45;&#45;5</title>
<path fill="none" stroke="black" d="M74.7887,-163.847C66.9954,-164 39.1101,-164.548 31.4214,-164.699"/>
</g>
<!-- 3&#45;&#45;6 -->
<g id="edge22" class="edge"><title>3&#45;&#45;6</title>
<path fill="none" stroke="black" d="M75.2575,-162.719C65.4938,-155.937 13.097,-119.539 3.35837,-112.775"/>
</g>
<!-- 3&#45;&#45;7 -->
<g id="edge23" class="edge"><title>3&#45;&#45;7</title>
<path fill="none" stroke="black" d="M78.3633,-162.214C87.0507,-153.218 129.855,-108.894 137.804,-100.662"/>
</g>
<!-- 4&#45;&#45;5 -->
<g id="edge24" class="edge"><title>4&#45;&#45;5</title>
<path fill="none" stroke="black" d="M118.262,-155.6C106.456,-156.814 43.1048,-163.332 31.3301,-164.544"/>
</g>
<!-- 4&#45;&#45;7 -->
<g id="edge25" class="edge"><title>4&#45;&#45;7</title>
<path fill="none" stroke="black" d="M120.786,-153.54C123.658,-145.028 135.507,-109.919 138.424,-101.275"/>
</g>
<!-- 5&#45;&#45;6 -->
<g id="edge26" class="edge"><title>5&#45;&#45;6</title>
<path fill="none" stroke="black" d="M28.5261,-162.973C24.3287,-154.919 7.01459,-121.698 2.75164,-113.518"/>
</g>
</g>
</svg>
