<?xml version="1.0" encoding="UTF-8" standalone="no"?>
<!DOCTYPE svg PUBLIC "-//W3C//DTD SVG 1.1//EN"
 "http://www.w3.org/Graphics/SVG/1.1/DTD/svg11.dtd">
<!-- Generated by graphviz version 2.36.0 (20140111.2315)
 -->
<!-- Title: %3 Pages: 1 -->
<svg width="285pt" height="111pt"
 viewBox="0.00 0.00 284.94 110.53" xmlns="http://www.w3.org/2000/svg" xmlns:xlink="http://www.w3.org/1999/xlink">
<g id="graph0" class="graph" transform="scale(1 1) rotate(0) translate(4 106.535)">
<title>%3</title>
<!-- 0 -->
<g id="node1" class="node"><title>0</title>
<ellipse fill="black" stroke="black" cx="70.9364" cy="-53.6471" rx="1.8" ry="1.8"/>
</g>
<!-- 1 -->
<g id="node2" class="node"><title>1</title>
<ellipse fill="black" stroke="black" cx="71.2803" cy="-14.4525" rx="1.8" ry="1.8"/>
</g>
<!-- 0&#45;&#45;1 -->
<g id="edge1" class="edge"><title>0&#45;&#45;1</title>
<path fill="none" stroke="black" d="M70.9549,-51.5398C71.0152,-44.6708 71.2054,-22.9902 71.2633,-16.3828"/>
</g>
<!-- 2 -->
<g id="node3" class="node"><title>2</title>
<ellipse fill="black" stroke="black" cx="130.797" cy="-48.2414" rx="1.8" ry="1.8"/>
</g>
<!-- 0&#45;&#45;2 -->
<g id="edge2" class="edge"><title>0&#45;&#45;2</title>
<path fill="none" stroke="black" d="M72.9281,-53.4673C82.0166,-52.6465 119.506,-49.261 128.737,-48.4275"/>
</g>
<!-- 3 -->
<g id="node4" class="node"><title>3</title>
<ellipse fill="black" stroke="black" cx="131.543" cy="-87.4068" rx="1.8" ry="1.8"/>
</g>
<!-- 0&#45;&#45;3 -->
<g id="edge3" class="edge"><title>0&#45;&#45;3</title>
<path fill="none" stroke="black" d="M72.6849,-54.6211C81.5352,-59.5509 121.308,-81.7055 129.902,-86.4929"/>
</g>
<!-- 4 -->
<g id="node5" class="node"><title>4</title>
<ellipse fill="black" stroke="black" cx="140.868" cy="-1.8" rx="1.8" ry="1.8"/>
</g>
<!-- 0&#45;&#45;4 -->
<g id="edge4" class="edge"><title>0&#45;&#45;4</title>
<path fill="none" stroke="black" d="M72.3971,-52.5642C81.498,-45.8168 130.338,-9.60698 139.416,-2.87694"/>
</g>
<!-- 5 -->
<g id="node6" class="node"><title>5</title>
<ellipse fill="black" stroke="black" cx="62.4604" cy="-100.735" rx="1.8" ry="1.8"/>
</g>
<!-- 0&#45;&#45;5 -->
<g id="edge5" class="edge"><title>0&#45;&#45;5</title>
<path fill="none" stroke="black" d="M70.5722,-55.6704C69.178,-63.4158 64.1893,-91.1298 62.8138,-98.7712"/>
</g>
<!-- 7 -->
<g id="node7" class="node"><title>7</title>
<ellipse fill="black" stroke="black" cx="1.8" cy="-51.1499" rx="1.8" ry="1.8"/>
</g>
<!-- 0&#45;&#45;7 -->
<g id="edge6" class="edge"><title>0&#45;&#45;7</title>
<path fill="none" stroke="black" d="M68.9419,-53.5751C58.8461,-53.2104 13.4756,-51.5717 3.67161,-51.2175"/>
</g>
<!-- 1&#45;&#45;2 -->
<g id="edge7" class="edge"><title>1&#45;&#45;2</title>
<path fill="none" stroke="black" d="M72.9973,-15.4273C81.6884,-20.3614 120.746,-42.5352 129.186,-47.3267"/>
</g>
<!-- 1&#45;&#45;3 -->
<g id="edge8" class="edge"><title>1&#45;&#45;3</title>
<path fill="none" stroke="black" d="M72.5389,-15.9762C80.3816,-25.4705 122.469,-76.4215 130.291,-85.8914"/>
</g>
<!-- 1&#45;&#45;4 -->
<g id="edge9" class="edge"><title>1&#45;&#45;4</title>
<path fill="none" stroke="black" d="M73.2878,-14.0875C83.4496,-12.2399 129.116,-3.93672 138.985,-2.14252"/>
</g>
<!-- 1&#45;&#45;5 -->
<g id="edge10" class="edge"><title>1&#45;&#45;5</title>
<path fill="none" stroke="black" d="M71.096,-16.2546C69.9482,-27.4834 63.7885,-87.7424 62.6436,-98.9423"/>
</g>
<!-- 1&#45;&#45;7 -->
<g id="edge11" class="edge"><title>1&#45;&#45;7</title>
<path fill="none" stroke="black" d="M69.5628,-15.3596C60.0336,-20.3926 13.728,-44.8499 3.7126,-50.1398"/>
</g>
<!-- 2&#45;&#45;3 -->
<g id="edge12" class="edge"><title>2&#45;&#45;3</title>
<path fill="none" stroke="black" d="M130.837,-50.3471C130.968,-57.211 131.381,-78.8754 131.506,-85.4779"/>
</g>
<!-- 2&#45;&#45;4 -->
<g id="edge13" class="edge"><title>2&#45;&#45;4</title>
<path fill="none" stroke="black" d="M131.23,-46.2458C132.887,-38.6067 138.814,-11.273 140.448,-3.7364"/>
</g>
<!-- 2&#45;&#45;5 -->
<g id="edge14" class="edge"><title>2&#45;&#45;5</title>
<path fill="none" stroke="black" d="M129.108,-49.539C119.736,-56.7383 74.1921,-91.7228 64.3415,-99.2895"/>
</g>
<!-- 6 -->
<g id="node8" class="node"><title>6</title>
<ellipse fill="black" stroke="black" cx="201.095" cy="-52.4076" rx="1.8" ry="1.8"/>
</g>
<!-- 2&#45;&#45;6 -->
<g id="edge15" class="edge"><title>2&#45;&#45;6</title>
<path fill="none" stroke="black" d="M132.825,-48.3616C143.091,-48.9699 189.224,-51.704 199.192,-52.2948"/>
</g>
<!-- 3&#45;&#45;4 -->
<g id="edge16" class="edge"><title>3&#45;&#45;4</title>
<path fill="none" stroke="black" d="M131.774,-85.2906C133.064,-73.4468 139.377,-15.4921 140.646,-3.84217"/>
</g>
<!-- 3&#45;&#45;5 -->
<g id="edge17" class="edge"><title>3&#45;&#45;5</title>
<path fill="none" stroke="black" d="M129.55,-87.7913C119.462,-89.7375 74.1269,-98.4838 64.3305,-100.374"/>
</g>
<!-- 3&#45;&#45;6 -->
<g id="edge18" class="edge"><title>3&#45;&#45;6</title>
<path fill="none" stroke="black" d="M133.262,-86.5416C142.801,-81.7415 189.155,-58.416 199.181,-53.371"/>
</g>
<!-- 4&#45;&#45;6 -->
<g id="edge19" class="edge"><title>4&#45;&#45;6</title>
<path fill="none" stroke="black" d="M142.357,-3.05098C150.617,-9.99175 190.756,-43.7196 199.437,-51.0145"/>
</g>
<!-- 5&#45;&#45;7 -->
<g id="edge20" class="edge"><title>5&#45;&#45;7</title>
<path fill="none" stroke="black" d="M60.9609,-99.5088C52.6414,-92.7084 12.2138,-59.6623 3.46981,-52.5149"/>
</g>
<!-- 8 -->
<g id="node9" class="node"><title>8</title>
<ellipse fill="black" stroke="black" cx="275.136" cy="-52.0297" rx="1.8" ry="1.8"/>
</g>
<!-- 6&#45;&#45;8 -->
<g id="edge21" class="edge"><title>6&#45;&#45;8</title>
<path fill="none" stroke="black" d="M202.926,-52.3982C213.08,-52.3464 262.425,-52.0946 273.098,-52.0401"/>
</g>
</g>
</svg>
