<?xml version="1.0" encoding="UTF-8" standalone="no"?>
<!DOCTYPE svg PUBLIC "-//W3C//DTD SVG 1.1//EN"
 "http://www.w3.org/Graphics/SVG/1.1/DTD/svg11.dtd">
<!-- Generated by graphviz version 2.36.0 (20140111.2315)
 -->
<!-- Title: %3 Pages: 1 -->
<svg width="160pt" height="149pt"
 viewBox="0.00 0.00 159.92 148.74" xmlns="http://www.w3.org/2000/svg" xmlns:xlink="http://www.w3.org/1999/xlink">
<g id="graph0" class="graph" transform="scale(1 1) rotate(0) translate(4 144.744)">
<title>%3</title>
<!-- 0 -->
<g id="node1" class="node"><title>0</title>
<ellipse fill="black" stroke="black" cx="86.3896" cy="-79.7989" rx="1.8" ry="1.8"/>
</g>
<!-- 1 -->
<g id="node2" class="node"><title>1</title>
<ellipse fill="black" stroke="black" cx="78.6852" cy="-125.957" rx="1.8" ry="1.8"/>
</g>
<!-- 0&#45;&#45;1 -->
<g id="edge1" class="edge"><title>0&#45;&#45;1</title>
<path fill="none" stroke="black" d="M86.0586,-81.7822C84.7913,-89.3747 80.2567,-116.542 79.0064,-124.032"/>
</g>
<!-- 2 -->
<g id="node3" class="node"><title>2</title>
<ellipse fill="black" stroke="black" cx="57.2537" cy="-43.3113" rx="1.8" ry="1.8"/>
</g>
<!-- 0&#45;&#45;2 -->
<g id="edge2" class="edge"><title>0&#45;&#45;2</title>
<path fill="none" stroke="black" d="M85.1377,-78.231C80.3451,-72.2292 63.1967,-50.7539 58.4685,-44.8327"/>
</g>
<!-- 3 -->
<g id="node4" class="node"><title>3</title>
<ellipse fill="black" stroke="black" cx="130.063" cy="-68.5365" rx="1.8" ry="1.8"/>
</g>
<!-- 0&#45;&#45;3 -->
<g id="edge3" class="edge"><title>0&#45;&#45;3</title>
<path fill="none" stroke="black" d="M88.2662,-79.3149C95.45,-77.4624 121.155,-70.8338 128.242,-69.0061"/>
</g>
<!-- 4 -->
<g id="node5" class="node"><title>4</title>
<ellipse fill="black" stroke="black" cx="35.7315" cy="-93.0906" rx="1.8" ry="1.8"/>
</g>
<!-- 0&#45;&#45;4 -->
<g id="edge4" class="edge"><title>0&#45;&#45;4</title>
<path fill="none" stroke="black" d="M84.2129,-80.37C75.8802,-82.5563 46.0646,-90.3794 37.8438,-92.5364"/>
</g>
<!-- 5 -->
<g id="node6" class="node"><title>5</title>
<ellipse fill="black" stroke="black" cx="22.2144" cy="-138.944" rx="1.8" ry="1.8"/>
</g>
<!-- 0&#45;&#45;5 -->
<g id="edge5" class="edge"><title>0&#45;&#45;5</title>
<path fill="none" stroke="black" d="M84.8033,-81.2609C76.0017,-89.3726 33.2316,-128.791 23.981,-137.316"/>
</g>
<!-- 6 -->
<g id="node7" class="node"><title>6</title>
<ellipse fill="black" stroke="black" cx="1.8" cy="-59.0062" rx="1.8" ry="1.8"/>
</g>
<!-- 0&#45;&#45;6 -->
<g id="edge6" class="edge"><title>0&#45;&#45;6</title>
<path fill="none" stroke="black" d="M84.6229,-79.3646C73.6143,-76.6586 14.5372,-62.1371 3.55705,-59.4381"/>
</g>
<!-- 7 -->
<g id="node8" class="node"><title>7</title>
<ellipse fill="black" stroke="black" cx="150.12" cy="-133.66" rx="1.8" ry="1.8"/>
</g>
<!-- 0&#45;&#45;7 -->
<g id="edge7" class="edge"><title>0&#45;&#45;7</title>
<path fill="none" stroke="black" d="M87.965,-81.1303C96.7055,-88.5173 139.179,-124.413 148.365,-132.177"/>
</g>
<!-- 8 -->
<g id="node9" class="node"><title>8</title>
<ellipse fill="black" stroke="black" cx="115.893" cy="-1.8" rx="1.8" ry="1.8"/>
</g>
<!-- 0&#45;&#45;8 -->
<g id="edge8" class="edge"><title>0&#45;&#45;8</title>
<path fill="none" stroke="black" d="M87.1189,-77.8708C91.2008,-67.0795 111.174,-14.2752 115.189,-3.66068"/>
</g>
<!-- 1&#45;&#45;2 -->
<g id="edge9" class="edge"><title>1&#45;&#45;2</title>
<path fill="none" stroke="black" d="M78.1554,-123.914C75.1903,-112.48 60.6814,-56.5297 57.7649,-45.2828"/>
</g>
<!-- 1&#45;&#45;3 -->
<g id="edge10" class="edge"><title>1&#45;&#45;3</title>
<path fill="none" stroke="black" d="M79.9552,-124.537C87.0016,-116.662 121.243,-78.3941 128.649,-70.1171"/>
</g>
<!-- 1&#45;&#45;4 -->
<g id="edge11" class="edge"><title>1&#45;&#45;4</title>
<path fill="none" stroke="black" d="M76.8395,-124.544C69.7741,-119.138 44.4931,-99.7945 37.5225,-94.4609"/>
</g>
<!-- 1&#45;&#45;5 -->
<g id="edge12" class="edge"><title>1&#45;&#45;5</title>
<path fill="none" stroke="black" d="M76.8063,-126.389C68.2325,-128.361 32.8659,-136.495 24.1583,-138.497"/>
</g>
<!-- 1&#45;&#45;6 -->
<g id="edge13" class="edge"><title>1&#45;&#45;6</title>
<path fill="none" stroke="black" d="M77.0793,-124.558C67.0734,-115.845 13.3771,-69.0874 3.39702,-60.3969"/>
</g>
<!-- 1&#45;&#45;7 -->
<g id="edge14" class="edge"><title>1&#45;&#45;7</title>
<path fill="none" stroke="black" d="M80.746,-126.179C91.1774,-127.304 138.056,-132.359 148.186,-133.452"/>
</g>
<!-- 2&#45;&#45;3 -->
<g id="edge15" class="edge"><title>2&#45;&#45;3</title>
<path fill="none" stroke="black" d="M59.0535,-43.9349C69.1268,-47.4248 118.418,-64.502 128.326,-67.9348"/>
</g>
<!-- 2&#45;&#45;4 -->
<g id="edge16" class="edge"><title>2&#45;&#45;4</title>
<path fill="none" stroke="black" d="M56.5376,-44.9676C53.27,-52.5253 39.7911,-83.7012 36.4724,-91.377"/>
</g>
<!-- 2&#45;&#45;5 -->
<g id="edge17" class="edge"><title>2&#45;&#45;5</title>
<path fill="none" stroke="black" d="M56.5218,-45.3087C51.9618,-57.7545 27.4905,-124.544 22.9422,-136.958"/>
</g>
<!-- 2&#45;&#45;6 -->
<g id="edge18" class="edge"><title>2&#45;&#45;6</title>
<path fill="none" stroke="black" d="M55.4086,-43.8335C46.9893,-46.2164 12.2597,-56.0458 3.70884,-58.4659"/>
</g>
<!-- 2&#45;&#45;8 -->
<g id="edge19" class="edge"><title>2&#45;&#45;8</title>
<path fill="none" stroke="black" d="M58.9454,-42.1137C67.5084,-36.0519 105.99,-8.81034 114.306,-2.92376"/>
</g>
<!-- 3&#45;&#45;4 -->
<g id="edge20" class="edge"><title>3&#45;&#45;4</title>
<path fill="none" stroke="black" d="M128.093,-69.0494C115.816,-72.2448 49.9357,-89.3933 37.691,-92.5805"/>
</g>
<!-- 3&#45;&#45;7 -->
<g id="edge21" class="edge"><title>3&#45;&#45;7</title>
<path fill="none" stroke="black" d="M130.642,-70.4153C133.57,-79.9251 146.733,-122.662 149.577,-131.897"/>
</g>
<!-- 3&#45;&#45;8 -->
<g id="edge22" class="edge"><title>3&#45;&#45;8</title>
<path fill="none" stroke="black" d="M129.654,-66.6112C127.585,-56.8658 118.286,-13.0703 116.277,-3.60664"/>
</g>
<!-- 4&#45;&#45;5 -->
<g id="edge23" class="edge"><title>4&#45;&#45;5</title>
<path fill="none" stroke="black" d="M35.1507,-95.0608C32.9273,-102.603 24.9716,-129.591 22.778,-137.032"/>
</g>
<!-- 4&#45;&#45;6 -->
<g id="edge24" class="edge"><title>4&#45;&#45;6</title>
<path fill="none" stroke="black" d="M34.2735,-91.626C28.6922,-86.0195 8.72124,-65.9586 3.2148,-60.4274"/>
</g>
</g>
</svg>
