<?xml version="1.0" encoding="UTF-8" standalone="no"?>
<!DOCTYPE svg PUBLIC "-//W3C//DTD SVG 1.1//EN"
 "http://www.w3.org/Graphics/SVG/1.1/DTD/svg11.dtd">
<!-- Generated by graphviz version 2.36.0 (20140111.2315)
 -->
<!-- Title: %3 Pages: 1 -->
<svg width="175pt" height="158pt"
 viewBox="0.00 0.00 174.74 158.33" xmlns="http://www.w3.org/2000/svg" xmlns:xlink="http://www.w3.org/1999/xlink">
<g id="graph0" class="graph" transform="scale(1 1) rotate(0) translate(4 154.326)">
<title>%3</title>
<!-- 0 -->
<g id="node1" class="node"><title>0</title>
<ellipse fill="black" stroke="black" cx="90.2316" cy="-130.89" rx="1.8" ry="1.8"/>
</g>
<!-- 1 -->
<g id="node2" class="node"><title>1</title>
<ellipse fill="black" stroke="black" cx="74.7982" cy="-56.987" rx="1.8" ry="1.8"/>
</g>
<!-- 0&#45;&#45;1 -->
<g id="edge1" class="edge"><title>0&#45;&#45;1</title>
<path fill="none" stroke="black" d="M89.8501,-129.064C87.7149,-118.839 77.2666,-68.8072 75.1663,-58.75"/>
</g>
<!-- 2 -->
<g id="node3" class="node"><title>2</title>
<ellipse fill="black" stroke="black" cx="29.8086" cy="-67.5283" rx="1.8" ry="1.8"/>
</g>
<!-- 0&#45;&#45;2 -->
<g id="edge2" class="edge"><title>0&#45;&#45;2</title>
<path fill="none" stroke="black" d="M88.738,-129.324C80.451,-120.634 40.1817,-78.4059 31.4719,-69.2725"/>
</g>
<!-- 3 -->
<g id="node4" class="node"><title>3</title>
<ellipse fill="black" stroke="black" cx="59.2613" cy="-91.2017" rx="1.8" ry="1.8"/>
</g>
<!-- 0&#45;&#45;3 -->
<g id="edge3" class="edge"><title>0&#45;&#45;3</title>
<path fill="none" stroke="black" d="M88.9008,-129.185C83.8065,-122.657 65.5785,-99.2973 60.5526,-92.8566"/>
</g>
<!-- 4 -->
<g id="node5" class="node"><title>4</title>
<ellipse fill="black" stroke="black" cx="130.254" cy="-77.4801" rx="1.8" ry="1.8"/>
</g>
<!-- 0&#45;&#45;4 -->
<g id="edge4" class="edge"><title>0&#45;&#45;4</title>
<path fill="none" stroke="black" d="M91.5632,-129.113C97.6396,-121.004 122.705,-87.5543 128.876,-79.3186"/>
</g>
<!-- 5 -->
<g id="node6" class="node"><title>5</title>
<ellipse fill="black" stroke="black" cx="36.0897" cy="-148.526" rx="1.8" ry="1.8"/>
</g>
<!-- 0&#45;&#45;5 -->
<g id="edge5" class="edge"><title>0&#45;&#45;5</title>
<path fill="none" stroke="black" d="M88.4302,-131.477C80.2101,-134.155 46.3019,-145.199 37.9534,-147.919"/>
</g>
<!-- 6 -->
<g id="node7" class="node"><title>6</title>
<ellipse fill="black" stroke="black" cx="1.8" cy="-114.585" rx="1.8" ry="1.8"/>
</g>
<!-- 0&#45;&#45;6 -->
<g id="edge6" class="edge"><title>0&#45;&#45;6</title>
<path fill="none" stroke="black" d="M88.3846,-130.55C76.876,-128.428 15.1158,-117.04 3.63686,-114.924"/>
</g>
<!-- 8 -->
<g id="node8" class="node"><title>8</title>
<ellipse fill="black" stroke="black" cx="164.943" cy="-145.704" rx="1.8" ry="1.8"/>
</g>
<!-- 0&#45;&#45;8 -->
<g id="edge7" class="edge"><title>0&#45;&#45;8</title>
<path fill="none" stroke="black" d="M92.0784,-131.257C102.415,-133.306 152.993,-143.335 163.161,-145.351"/>
</g>
<!-- 1&#45;&#45;2 -->
<g id="edge8" class="edge"><title>1&#45;&#45;2</title>
<path fill="none" stroke="black" d="M72.865,-57.44C65.4647,-59.1739 38.9854,-65.3781 31.6845,-67.0888"/>
</g>
<!-- 1&#45;&#45;3 -->
<g id="edge9" class="edge"><title>1&#45;&#45;3</title>
<path fill="none" stroke="black" d="M73.9628,-58.8266C71.2399,-64.8229 62.6457,-83.7488 60.0265,-89.5167"/>
</g>
<!-- 1&#45;&#45;4 -->
<g id="edge10" class="edge"><title>1&#45;&#45;4</title>
<path fill="none" stroke="black" d="M76.6433,-57.6689C85.0629,-60.7802 119.794,-73.6147 128.345,-76.7747"/>
</g>
<!-- 1&#45;&#45;5 -->
<g id="edge11" class="edge"><title>1&#45;&#45;5</title>
<path fill="none" stroke="black" d="M73.9897,-58.899C68.9521,-70.8118 41.9183,-134.742 36.8937,-146.624"/>
</g>
<!-- 1&#45;&#45;6 -->
<g id="edge12" class="edge"><title>1&#45;&#45;6</title>
<path fill="none" stroke="black" d="M73.2735,-58.19C63.7735,-65.6859 12.7918,-105.912 3.31628,-113.388"/>
</g>
<!-- 7 -->
<g id="node9" class="node"><title>7</title>
<ellipse fill="black" stroke="black" cx="33.6723" cy="-1.8" rx="1.8" ry="1.8"/>
</g>
<!-- 1&#45;&#45;7 -->
<g id="edge13" class="edge"><title>1&#45;&#45;7</title>
<path fill="none" stroke="black" d="M73.4298,-55.1509C67.0744,-46.6224 40.5034,-10.9667 34.767,-3.269"/>
</g>
<!-- 2&#45;&#45;3 -->
<g id="edge14" class="edge"><title>2&#45;&#45;3</title>
<path fill="none" stroke="black" d="M31.3921,-68.8011C36.5539,-72.95 52.8456,-86.045 57.8108,-90.0358"/>
</g>
<!-- 2&#45;&#45;4 -->
<g id="edge15" class="edge"><title>2&#45;&#45;4</title>
<path fill="none" stroke="black" d="M31.9066,-67.7362C44.9785,-69.0313 115.129,-75.9816 128.167,-77.2734"/>
</g>
<!-- 2&#45;&#45;5 -->
<g id="edge16" class="edge"><title>2&#45;&#45;5</title>
<path fill="none" stroke="black" d="M29.9639,-69.5305C30.8329,-80.7366 35.0851,-135.571 35.9398,-146.594"/>
</g>
<!-- 2&#45;&#45;6 -->
<g id="edge17" class="edge"><title>2&#45;&#45;6</title>
<path fill="none" stroke="black" d="M28.8767,-69.094C24.6243,-76.2384 7.083,-105.709 2.76412,-112.965"/>
</g>
<!-- 2&#45;&#45;7 -->
<g id="edge18" class="edge"><title>2&#45;&#45;7</title>
<path fill="none" stroke="black" d="M29.9201,-65.6321C30.4744,-56.2023 32.9315,-14.4032 33.5371,-4.10077"/>
</g>
<!-- 3&#45;&#45;4 -->
<g id="edge19" class="edge"><title>3&#45;&#45;4</title>
<path fill="none" stroke="black" d="M61.3094,-90.8059C71.6763,-88.8021 118.265,-79.7974 128.332,-77.8515"/>
</g>
<!-- 3&#45;&#45;5 -->
<g id="edge20" class="edge"><title>3&#45;&#45;5</title>
<path fill="none" stroke="black" d="M58.4903,-93.109C54.9723,-101.812 40.4603,-137.713 36.8873,-146.552"/>
</g>
<!-- 3&#45;&#45;6 -->
<g id="edge21" class="edge"><title>3&#45;&#45;6</title>
<path fill="none" stroke="black" d="M57.3495,-91.9797C48.6253,-95.5299 12.6384,-110.174 3.77795,-113.78"/>
</g>
<!-- 3&#45;&#45;7 -->
<g id="edge22" class="edge"><title>3&#45;&#45;7</title>
<path fill="none" stroke="black" d="M58.7268,-89.3345C55.3967,-77.6997 37.5254,-15.2618 34.2038,-3.65701"/>
</g>
<!-- 4&#45;&#45;8 -->
<g id="edge23" class="edge"><title>4&#45;&#45;8</title>
<path fill="none" stroke="black" d="M131.111,-79.1665C135.869,-88.5234 158.988,-133.992 163.988,-143.826"/>
</g>
</g>
</svg>
