<?xml version="1.0" encoding="UTF-8" standalone="no"?>
<!DOCTYPE svg PUBLIC "-//W3C//DTD SVG 1.1//EN"
 "http://www.w3.org/Graphics/SVG/1.1/DTD/svg11.dtd">
<!-- Generated by graphviz version 2.36.0 (20140111.2315)
 -->
<!-- Title: %3 Pages: 1 -->
<svg width="158pt" height="160pt"
 viewBox="0.00 0.00 157.92 159.85" xmlns="http://www.w3.org/2000/svg" xmlns:xlink="http://www.w3.org/1999/xlink">
<g id="graph0" class="graph" transform="scale(1 1) rotate(0) translate(4 155.854)">
<title>%3</title>
<!-- 0 -->
<g id="node1" class="node"><title>0</title>
<ellipse fill="black" stroke="black" cx="96.9384" cy="-77.4322" rx="1.8" ry="1.8"/>
</g>
<!-- 1 -->
<g id="node2" class="node"><title>1</title>
<ellipse fill="black" stroke="black" cx="53.4049" cy="-77.3664" rx="1.8" ry="1.8"/>
</g>
<!-- 0&#45;&#45;1 -->
<g id="edge1" class="edge"><title>0&#45;&#45;1</title>
<path fill="none" stroke="black" d="M95.0678,-77.4294C87.907,-77.4185 62.2847,-77.3798 55.2201,-77.3691"/>
</g>
<!-- 2 -->
<g id="node3" class="node"><title>2</title>
<ellipse fill="black" stroke="black" cx="94.8632" cy="-13.4457" rx="1.8" ry="1.8"/>
</g>
<!-- 0&#45;&#45;2 -->
<g id="edge2" class="edge"><title>0&#45;&#45;2</title>
<path fill="none" stroke="black" d="M96.8785,-75.5862C96.5808,-66.4064 95.2611,-25.7149 94.9358,-15.6855"/>
</g>
<!-- 3 -->
<g id="node4" class="node"><title>3</title>
<ellipse fill="black" stroke="black" cx="69.2816" cy="-150.054" rx="1.8" ry="1.8"/>
</g>
<!-- 0&#45;&#45;3 -->
<g id="edge3" class="edge"><title>0&#45;&#45;3</title>
<path fill="none" stroke="black" d="M96.2547,-79.2273C92.4284,-89.2748 73.705,-138.439 69.9413,-148.322"/>
</g>
<!-- 4 -->
<g id="node5" class="node"><title>4</title>
<ellipse fill="black" stroke="black" cx="148.117" cy="-47.6303" rx="1.8" ry="1.8"/>
</g>
<!-- 0&#45;&#45;4 -->
<g id="edge4" class="edge"><title>0&#45;&#45;4</title>
<path fill="none" stroke="black" d="M98.6412,-76.4406C106.411,-71.9159 138.464,-53.2515 146.356,-48.6561"/>
</g>
<!-- 5 -->
<g id="node6" class="node"><title>5</title>
<ellipse fill="black" stroke="black" cx="15.4236" cy="-37.3268" rx="1.8" ry="1.8"/>
</g>
<!-- 0&#45;&#45;5 -->
<g id="edge5" class="edge"><title>0&#45;&#45;5</title>
<path fill="none" stroke="black" d="M95.2358,-76.5945C84.6275,-71.3752 27.6978,-43.3657 17.1168,-38.1599"/>
</g>
<!-- 6 -->
<g id="node7" class="node"><title>6</title>
<ellipse fill="black" stroke="black" cx="47.3624" cy="-1.8" rx="1.8" ry="1.8"/>
</g>
<!-- 0&#45;&#45;6 -->
<g id="edge6" class="edge"><title>0&#45;&#45;6</title>
<path fill="none" stroke="black" d="M95.9029,-75.8525C89.4511,-66.0097 54.8274,-13.1885 48.3921,-3.37099"/>
</g>
<!-- 7 -->
<g id="node8" class="node"><title>7</title>
<ellipse fill="black" stroke="black" cx="136.973" cy="-148.01" rx="1.8" ry="1.8"/>
</g>
<!-- 0&#45;&#45;7 -->
<g id="edge7" class="edge"><title>0&#45;&#45;7</title>
<path fill="none" stroke="black" d="M97.928,-79.1768C103.467,-88.9413 130.569,-136.721 136.017,-146.326"/>
</g>
<!-- 1&#45;&#45;2 -->
<g id="edge8" class="edge"><title>1&#45;&#45;2</title>
<path fill="none" stroke="black" d="M54.4297,-75.7863C60.1157,-67.0196 87.7459,-24.4192 93.722,-15.2053"/>
</g>
<!-- 1&#45;&#45;3 -->
<g id="edge9" class="edge"><title>1&#45;&#45;3</title>
<path fill="none" stroke="black" d="M53.7974,-79.1632C55.9748,-89.1322 66.556,-137.576 68.8445,-148.053"/>
</g>
<!-- 1&#45;&#45;4 -->
<g id="edge10" class="edge"><title>1&#45;&#45;4</title>
<path fill="none" stroke="black" d="M55.3831,-76.7453C67.709,-72.8754 133.856,-52.1079 146.15,-48.2479"/>
</g>
<!-- 1&#45;&#45;5 -->
<g id="edge11" class="edge"><title>1&#45;&#45;5</title>
<path fill="none" stroke="black" d="M52.1412,-76.0342C46.3747,-69.9551 22.5876,-44.8791 16.731,-38.7051"/>
</g>
<!-- 1&#45;&#45;6 -->
<g id="edge12" class="edge"><title>1&#45;&#45;6</title>
<path fill="none" stroke="black" d="M53.2556,-75.4984C52.4196,-65.0437 48.3288,-13.8862 47.5065,-3.60265"/>
</g>
<!-- 8 -->
<g id="node9" class="node"><title>8</title>
<ellipse fill="black" stroke="black" cx="1.8" cy="-139.469" rx="1.8" ry="1.8"/>
</g>
<!-- 1&#45;&#45;8 -->
<g id="edge13" class="edge"><title>1&#45;&#45;8</title>
<path fill="none" stroke="black" d="M52.1293,-78.9015C45.0517,-87.4187 10.6592,-128.807 3.22054,-137.759"/>
</g>
<!-- 2&#45;&#45;4 -->
<g id="edge14" class="edge"><title>2&#45;&#45;4</title>
<path fill="none" stroke="black" d="M96.6351,-14.5831C104.72,-19.7732 138.072,-41.1824 146.284,-46.4536"/>
</g>
<!-- 2&#45;&#45;5 -->
<g id="edge15" class="edge"><title>2&#45;&#45;5</title>
<path fill="none" stroke="black" d="M92.8995,-14.036C81.9089,-17.34 28.1292,-33.5072 17.3186,-36.7571"/>
</g>
<!-- 2&#45;&#45;6 -->
<g id="edge16" class="edge"><title>2&#45;&#45;6</title>
<path fill="none" stroke="black" d="M92.8222,-12.9453C85.0088,-11.0297 57.0514,-4.17545 49.3429,-2.28557"/>
</g>
<!-- 3&#45;&#45;7 -->
<g id="edge17" class="edge"><title>3&#45;&#45;7</title>
<path fill="none" stroke="black" d="M71.2344,-149.995C81.1192,-149.697 125.541,-148.355 135.14,-148.065"/>
</g>
<!-- 3&#45;&#45;8 -->
<g id="edge18" class="edge"><title>3&#45;&#45;8</title>
<path fill="none" stroke="black" d="M67.3348,-149.749C57.4806,-148.203 13.1961,-141.256 3.62681,-139.755"/>
</g>
</g>
</svg>
