<?xml version="1.0" encoding="UTF-8" standalone="no"?>
<!DOCTYPE svg PUBLIC "-//W3C//DTD SVG 1.1//EN"
 "http://www.w3.org/Graphics/SVG/1.1/DTD/svg11.dtd">
<!-- Generated by graphviz version 2.36.0 (20140111.2315)
 -->
<!-- Title: %3 Pages: 1 -->
<svg width="281pt" height="133pt"
 viewBox="0.00 0.00 281.19 132.79" xmlns="http://www.w3.org/2000/svg" xmlns:xlink="http://www.w3.org/1999/xlink">
<g id="graph0" class="graph" transform="scale(1 1) rotate(0) translate(4 128.791)">
<title>%3</title>
<!-- 0 -->
<g id="node1" class="node"><title>0</title>
<ellipse fill="black" stroke="black" cx="62.6" cy="-68.1578" rx="1.8" ry="1.8"/>
</g>
<!-- 1 -->
<g id="node2" class="node"><title>1</title>
<ellipse fill="black" stroke="black" cx="77.652" cy="-37.6751" rx="1.8" ry="1.8"/>
</g>
<!-- 0&#45;&#45;1 -->
<g id="edge1" class="edge"><title>0&#45;&#45;1</title>
<path fill="none" stroke="black" d="M63.4092,-66.519C65.9983,-61.2756 74.0668,-44.9357 76.7639,-39.4737"/>
</g>
<!-- 2 -->
<g id="node3" class="node"><title>2</title>
<ellipse fill="black" stroke="black" cx="136.974" cy="-69.1808" rx="1.8" ry="1.8"/>
</g>
<!-- 0&#45;&#45;2 -->
<g id="edge2" class="edge"><title>0&#45;&#45;2</title>
<path fill="none" stroke="black" d="M64.4384,-68.1831C74.6388,-68.3234 124.206,-69.0052 134.927,-69.1526"/>
</g>
<!-- 3 -->
<g id="node4" class="node"><title>3</title>
<ellipse fill="black" stroke="black" cx="129.574" cy="-1.8" rx="1.8" ry="1.8"/>
</g>
<!-- 0&#45;&#45;3 -->
<g id="edge3" class="edge"><title>0&#45;&#45;3</title>
<path fill="none" stroke="black" d="M64.2555,-66.5175C73.6021,-57.257 119.653,-11.6294 128.206,-3.15559"/>
</g>
<!-- 5 -->
<g id="node5" class="node"><title>5</title>
<ellipse fill="black" stroke="black" cx="115.661" cy="-122.991" rx="1.8" ry="1.8"/>
</g>
<!-- 0&#45;&#45;5 -->
<g id="edge4" class="edge"><title>0&#45;&#45;5</title>
<path fill="none" stroke="black" d="M63.9116,-69.5133C71.1889,-77.0336 106.552,-113.577 114.201,-121.482"/>
</g>
<!-- 6 -->
<g id="node6" class="node"><title>6</title>
<ellipse fill="black" stroke="black" cx="66.5792" cy="-121.177" rx="1.8" ry="1.8"/>
</g>
<!-- 0&#45;&#45;6 -->
<g id="edge5" class="edge"><title>0&#45;&#45;6</title>
<path fill="none" stroke="black" d="M62.771,-70.436C63.4255,-79.157 65.7675,-110.362 66.4133,-118.966"/>
</g>
<!-- 7 -->
<g id="node7" class="node"><title>7</title>
<ellipse fill="black" stroke="black" cx="1.8" cy="-22.1812" rx="1.8" ry="1.8"/>
</g>
<!-- 0&#45;&#45;7 -->
<g id="edge6" class="edge"><title>0&#45;&#45;7</title>
<path fill="none" stroke="black" d="M61.097,-67.0213C52.7584,-60.7157 12.2378,-30.0742 3.47366,-23.4468"/>
</g>
<!-- 1&#45;&#45;2 -->
<g id="edge7" class="edge"><title>1&#45;&#45;2</title>
<path fill="none" stroke="black" d="M79.3634,-38.584C88.0261,-43.1847 126.956,-63.8601 135.368,-68.3279"/>
</g>
<!-- 1&#45;&#45;3 -->
<g id="edge8" class="edge"><title>1&#45;&#45;3</title>
<path fill="none" stroke="black" d="M79.3796,-36.4814C87.2626,-31.0347 119.78,-8.56677 127.787,-3.0349"/>
</g>
<!-- 1&#45;&#45;5 -->
<g id="edge9" class="edge"><title>1&#45;&#45;5</title>
<path fill="none" stroke="black" d="M78.4459,-39.457C83.3925,-50.5601 109.938,-110.144 114.872,-121.219"/>
</g>
<!-- 1&#45;&#45;6 -->
<g id="edge10" class="edge"><title>1&#45;&#45;6</title>
<path fill="none" stroke="black" d="M77.3783,-39.7392C75.8464,-51.2918 68.3502,-107.821 66.8433,-119.185"/>
</g>
<!-- 1&#45;&#45;7 -->
<g id="edge11" class="edge"><title>1&#45;&#45;7</title>
<path fill="none" stroke="black" d="M75.777,-37.2921C65.2828,-35.1485 13.9319,-24.6593 3.60946,-22.5508"/>
</g>
<!-- 2&#45;&#45;3 -->
<g id="edge12" class="edge"><title>2&#45;&#45;3</title>
<path fill="none" stroke="black" d="M136.761,-67.2369C135.68,-57.3974 130.824,-13.1791 129.774,-3.62408"/>
</g>
<!-- 2&#45;&#45;5 -->
<g id="edge14" class="edge"><title>2&#45;&#45;5</title>
<path fill="none" stroke="black" d="M136.265,-70.9711C133.029,-79.1409 119.681,-112.841 116.395,-121.139"/>
</g>
<!-- 2&#45;&#45;6 -->
<g id="edge15" class="edge"><title>2&#45;&#45;6</title>
<path fill="none" stroke="black" d="M135.504,-70.2668C126.342,-77.0335 77.179,-113.347 68.0414,-120.097"/>
</g>
<!-- 4 -->
<g id="node8" class="node"><title>4</title>
<ellipse fill="black" stroke="black" cx="201.227" cy="-28.2507" rx="1.8" ry="1.8"/>
</g>
<!-- 2&#45;&#45;4 -->
<g id="edge13" class="edge"><title>2&#45;&#45;4</title>
<path fill="none" stroke="black" d="M138.562,-68.169C147.374,-62.5555 190.196,-35.2774 199.458,-29.3774"/>
</g>
<!-- 3&#45;&#45;4 -->
<g id="edge16" class="edge"><title>3&#45;&#45;4</title>
<path fill="none" stroke="black" d="M131.345,-2.45384C141.258,-6.11335 189.766,-24.0202 199.517,-27.6197"/>
</g>
<!-- 8 -->
<g id="node9" class="node"><title>8</title>
<ellipse fill="black" stroke="black" cx="271.393" cy="-4.35733" rx="1.8" ry="1.8"/>
</g>
<!-- 4&#45;&#45;8 -->
<g id="edge17" class="edge"><title>4&#45;&#45;8</title>
<path fill="none" stroke="black" d="M202.961,-27.6601C212.584,-24.3832 259.347,-8.45921 269.461,-5.01505"/>
</g>
</g>
</svg>
