<?xml version="1.0" encoding="UTF-8" standalone="no"?>
<!DOCTYPE svg PUBLIC "-//W3C//DTD SVG 1.1//EN"
 "http://www.w3.org/Graphics/SVG/1.1/DTD/svg11.dtd">
<!-- Generated by graphviz version 2.36.0 (20140111.2315)
 -->
<!-- Title: %3 Pages: 1 -->
<svg width="169pt" height="146pt"
 viewBox="0.00 0.00 168.91 145.52" xmlns="http://www.w3.org/2000/svg" xmlns:xlink="http://www.w3.org/1999/xlink">
<g id="graph0" class="graph" transform="scale(1 1) rotate(0) translate(4 141.525)">
<title>%3</title>
<!-- 0 -->
<g id="node1" class="node"><title>0</title>
<ellipse fill="black" stroke="black" cx="72.8144" cy="-45.4912" rx="1.8" ry="1.8"/>
</g>
<!-- 1 -->
<g id="node2" class="node"><title>1</title>
<ellipse fill="black" stroke="black" cx="80.8155" cy="-75.5338" rx="1.8" ry="1.8"/>
</g>
<!-- 0&#45;&#45;1 -->
<g id="edge1" class="edge"><title>0&#45;&#45;1</title>
<path fill="none" stroke="black" d="M73.3393,-47.4624C74.7856,-52.8928 78.8171,-68.0303 80.2781,-73.516"/>
</g>
<!-- 2 -->
<g id="node3" class="node"><title>2</title>
<ellipse fill="black" stroke="black" cx="121.78" cy="-81.4247" rx="1.8" ry="1.8"/>
</g>
<!-- 0&#45;&#45;2 -->
<g id="edge2" class="edge"><title>0&#45;&#45;2</title>
<path fill="none" stroke="black" d="M74.4436,-46.6867C81.8779,-52.1424 112.544,-74.6469 120.095,-80.1878"/>
</g>
<!-- 3 -->
<g id="node4" class="node"><title>3</title>
<ellipse fill="black" stroke="black" cx="42.6445" cy="-119.243" rx="1.8" ry="1.8"/>
</g>
<!-- 0&#45;&#45;3 -->
<g id="edge3" class="edge"><title>0&#45;&#45;3</title>
<path fill="none" stroke="black" d="M72.0686,-47.3143C67.8945,-57.5179 47.4699,-107.447 43.3642,-117.483"/>
</g>
<!-- 4 -->
<g id="node5" class="node"><title>4</title>
<ellipse fill="black" stroke="black" cx="159.114" cy="-72.8923" rx="1.8" ry="1.8"/>
</g>
<!-- 0&#45;&#45;4 -->
<g id="edge4" class="edge"><title>0&#45;&#45;4</title>
<path fill="none" stroke="black" d="M74.6169,-46.0635C85.848,-49.6295 146.119,-68.7664 157.322,-72.3232"/>
</g>
<!-- 5 -->
<g id="node6" class="node"><title>5</title>
<ellipse fill="black" stroke="black" cx="108.836" cy="-135.725" rx="1.8" ry="1.8"/>
</g>
<!-- 0&#45;&#45;5 -->
<g id="edge5" class="edge"><title>0&#45;&#45;5</title>
<path fill="none" stroke="black" d="M73.5667,-47.3758C78.2545,-59.1189 103.412,-122.138 108.087,-133.851"/>
</g>
<!-- 6 -->
<g id="node7" class="node"><title>6</title>
<ellipse fill="black" stroke="black" cx="107.358" cy="-1.8" rx="1.8" ry="1.8"/>
</g>
<!-- 0&#45;&#45;6 -->
<g id="edge6" class="edge"><title>0&#45;&#45;6</title>
<path fill="none" stroke="black" d="M73.9637,-44.0375C79.2084,-37.404 100.843,-10.041 106.169,-3.30395"/>
</g>
<!-- 7 -->
<g id="node8" class="node"><title>7</title>
<ellipse fill="black" stroke="black" cx="144.906" cy="-12.9416" rx="1.8" ry="1.8"/>
</g>
<!-- 0&#45;&#45;7 -->
<g id="edge7" class="edge"><title>0&#45;&#45;7</title>
<path fill="none" stroke="black" d="M74.5964,-44.6866C84.5705,-40.1833 133.376,-18.1476 143.187,-13.7181"/>
</g>
<!-- 8 -->
<g id="node9" class="node"><title>8</title>
<ellipse fill="black" stroke="black" cx="1.8" cy="-61.3758" rx="1.8" ry="1.8"/>
</g>
<!-- 0&#45;&#45;8 -->
<g id="edge8" class="edge"><title>0&#45;&#45;8</title>
<path fill="none" stroke="black" d="M70.7656,-45.9494C60.3956,-48.269 13.7928,-58.6932 3.72244,-60.9457"/>
</g>
<!-- 1&#45;&#45;2 -->
<g id="edge9" class="edge"><title>1&#45;&#45;2</title>
<path fill="none" stroke="black" d="M83.018,-75.8505C90.1973,-76.883 112.857,-80.1415 119.763,-81.1346"/>
</g>
<!-- 1&#45;&#45;3 -->
<g id="edge10" class="edge"><title>1&#45;&#45;3</title>
<path fill="none" stroke="black" d="M79.5455,-76.9881C73.7501,-83.6242 49.8443,-110.998 43.9584,-117.738"/>
</g>
<!-- 1&#45;&#45;4 -->
<g id="edge11" class="edge"><title>1&#45;&#45;4</title>
<path fill="none" stroke="black" d="M82.751,-75.4685C93.5838,-75.1031 146.591,-73.3148 157.246,-72.9554"/>
</g>
<!-- 1&#45;&#45;5 -->
<g id="edge12" class="edge"><title>1&#45;&#45;5</title>
<path fill="none" stroke="black" d="M81.6239,-77.2703C85.6438,-85.9057 103.463,-124.183 107.855,-133.618"/>
</g>
<!-- 1&#45;&#45;6 -->
<g id="edge13" class="edge"><title>1&#45;&#45;6</title>
<path fill="none" stroke="black" d="M81.4716,-73.7112C85.1439,-63.51 103.113,-13.5931 106.725,-3.55893"/>
</g>
<!-- 1&#45;&#45;7 -->
<g id="edge14" class="edge"><title>1&#45;&#45;7</title>
<path fill="none" stroke="black" d="M82.3998,-73.9866C91.344,-65.2515 135.413,-22.2132 143.597,-14.2203"/>
</g>
<!-- 1&#45;&#45;8 -->
<g id="edge15" class="edge"><title>1&#45;&#45;8</title>
<path fill="none" stroke="black" d="M78.8623,-75.1838C67.9304,-73.2251 14.4378,-63.6402 3.68493,-61.7135"/>
</g>
<!-- 2&#45;&#45;3 -->
<g id="edge16" class="edge"><title>2&#45;&#45;3</title>
<path fill="none" stroke="black" d="M120.128,-82.2146C109.829,-87.1362 54.5605,-113.548 44.2883,-118.457"/>
</g>
<!-- 2&#45;&#45;4 -->
<g id="edge17" class="edge"><title>2&#45;&#45;4</title>
<path fill="none" stroke="black" d="M123.788,-80.966C130.331,-79.4706 150.982,-74.7509 157.276,-73.3126"/>
</g>
<!-- 2&#45;&#45;5 -->
<g id="edge18" class="edge"><title>2&#45;&#45;5</title>
<path fill="none" stroke="black" d="M121.35,-83.2314C119.384,-91.4756 111.277,-125.483 109.281,-133.856"/>
</g>
<!-- 2&#45;&#45;6 -->
<g id="edge19" class="edge"><title>2&#45;&#45;6</title>
<path fill="none" stroke="black" d="M121.424,-79.4565C119.429,-68.4402 109.665,-14.5353 107.702,-3.69946"/>
</g>
<!-- 2&#45;&#45;7 -->
<g id="edge20" class="edge"><title>2&#45;&#45;7</title>
<path fill="none" stroke="black" d="M122.448,-79.449C125.825,-69.4486 141.001,-24.5069 144.28,-14.7955"/>
</g>
<!-- 3&#45;&#45;5 -->
<g id="edge21" class="edge"><title>3&#45;&#45;5</title>
<path fill="none" stroke="black" d="M44.5541,-119.718C54.2198,-122.125 97.6573,-132.941 107.044,-135.279"/>
</g>
<!-- 3&#45;&#45;8 -->
<g id="edge22" class="edge"><title>3&#45;&#45;8</title>
<path fill="none" stroke="black" d="M41.2855,-117.317C34.9735,-108.375 8.58435,-70.9875 2.88722,-62.9161"/>
</g>
<!-- 4&#45;&#45;5 -->
<g id="edge23" class="edge"><title>4&#45;&#45;5</title>
<path fill="none" stroke="black" d="M157.871,-74.4455C150.976,-83.0629 117.467,-124.938 110.22,-133.995"/>
</g>
<!-- 4&#45;&#45;6 -->
<g id="edge24" class="edge"><title>4&#45;&#45;6</title>
<path fill="none" stroke="black" d="M158.033,-71.4075C151.298,-62.1555 115.152,-12.5049 108.433,-3.27669"/>
</g>
</g>
</svg>
