<?xml version="1.0" encoding="UTF-8" standalone="no"?>
<!DOCTYPE svg PUBLIC "-//W3C//DTD SVG 1.1//EN"
 "http://www.w3.org/Graphics/SVG/1.1/DTD/svg11.dtd">
<!-- Generated by graphviz version 2.36.0 (20140111.2315)
 -->
<!-- Title: %3 Pages: 1 -->
<svg width="171pt" height="190pt"
 viewBox="0.00 0.00 171.29 190.40" xmlns="http://www.w3.org/2000/svg" xmlns:xlink="http://www.w3.org/1999/xlink">
<g id="graph0" class="graph" transform="scale(1 1) rotate(0) translate(4 186.396)">
<title>%3</title>
<!-- 0 -->
<g id="node1" class="node"><title>0</title>
<ellipse fill="black" stroke="black" cx="83.8707" cy="-124.544" rx="1.8" ry="1.8"/>
</g>
<!-- 1 -->
<g id="node2" class="node"><title>1</title>
<ellipse fill="black" stroke="black" cx="56.8102" cy="-87.3436" rx="1.8" ry="1.8"/>
</g>
<!-- 0&#45;&#45;1 -->
<g id="edge1" class="edge"><title>0&#45;&#45;1</title>
<path fill="none" stroke="black" d="M82.7079,-122.945C78.2567,-116.826 62.3299,-94.9315 57.9385,-88.8947"/>
</g>
<!-- 2 -->
<g id="node3" class="node"><title>2</title>
<ellipse fill="black" stroke="black" cx="28.1115" cy="-108.687" rx="1.8" ry="1.8"/>
</g>
<!-- 0&#45;&#45;2 -->
<g id="edge2" class="edge"><title>0&#45;&#45;2</title>
<path fill="none" stroke="black" d="M82.0154,-124.016C73.5498,-121.609 38.6288,-111.678 30.0309,-109.233"/>
</g>
<!-- 3 -->
<g id="node4" class="node"><title>3</title>
<ellipse fill="black" stroke="black" cx="118.368" cy="-67.1136" rx="1.8" ry="1.8"/>
</g>
<!-- 0&#45;&#45;3 -->
<g id="edge3" class="edge"><title>0&#45;&#45;3</title>
<path fill="none" stroke="black" d="M85.0184,-122.633C90.256,-113.913 111.861,-77.946 117.18,-69.0904"/>
</g>
<!-- 4 -->
<g id="node5" class="node"><title>4</title>
<ellipse fill="black" stroke="black" cx="61.8271" cy="-180.596" rx="1.8" ry="1.8"/>
</g>
<!-- 0&#45;&#45;4 -->
<g id="edge4" class="edge"><title>0&#45;&#45;4</title>
<path fill="none" stroke="black" d="M83.1372,-126.409C79.7905,-134.919 65.985,-170.023 62.5859,-178.666"/>
</g>
<!-- 5 -->
<g id="node6" class="node"><title>5</title>
<ellipse fill="black" stroke="black" cx="1.8" cy="-154.253" rx="1.8" ry="1.8"/>
</g>
<!-- 0&#45;&#45;5 -->
<g id="edge5" class="edge"><title>0&#45;&#45;5</title>
<path fill="none" stroke="black" d="M82.1565,-125.164C71.4758,-129.031 14.1579,-149.78 3.50473,-153.636"/>
</g>
<!-- 6 -->
<g id="node7" class="node"><title>6</title>
<ellipse fill="black" stroke="black" cx="13.7299" cy="-47.3393" rx="1.8" ry="1.8"/>
</g>
<!-- 0&#45;&#45;6 -->
<g id="edge6" class="edge"><title>0&#45;&#45;6</title>
<path fill="none" stroke="black" d="M82.6532,-123.204C74.2125,-113.913 24.4646,-59.1551 15.2111,-48.9696"/>
</g>
<!-- 7 -->
<g id="node8" class="node"><title>7</title>
<ellipse fill="black" stroke="black" cx="161.488" cy="-127.485" rx="1.8" ry="1.8"/>
</g>
<!-- 0&#45;&#45;7 -->
<g id="edge7" class="edge"><title>0&#45;&#45;7</title>
<path fill="none" stroke="black" d="M85.7893,-124.616C96.5279,-125.023 149.074,-127.015 159.637,-127.415"/>
</g>
<!-- 1&#45;&#45;2 -->
<g id="edge8" class="edge"><title>1&#45;&#45;2</title>
<path fill="none" stroke="black" d="M55.2672,-88.4912C50.3308,-92.1625 34.9472,-103.604 29.8049,-107.428"/>
</g>
<!-- 1&#45;&#45;3 -->
<g id="edge9" class="edge"><title>1&#45;&#45;3</title>
<path fill="none" stroke="black" d="M58.5861,-86.76C67.4175,-83.8577 106.564,-70.9926 116.213,-67.8217"/>
</g>
<!-- 1&#45;&#45;4 -->
<g id="edge10" class="edge"><title>1&#45;&#45;4</title>
<path fill="none" stroke="black" d="M56.915,-89.2913C57.5679,-101.427 61.0717,-166.554 61.7229,-178.659"/>
</g>
<!-- 1&#45;&#45;5 -->
<g id="edge11" class="edge"><title>1&#45;&#45;5</title>
<path fill="none" stroke="black" d="M55.4504,-88.9976C47.9058,-98.1742 11.2438,-142.767 3.31428,-152.412"/>
</g>
<!-- 1&#45;&#45;6 -->
<g id="edge12" class="edge"><title>1&#45;&#45;6</title>
<path fill="none" stroke="black" d="M55.3769,-86.0126C48.8361,-79.9389 21.8557,-54.8849 15.2128,-48.7164"/>
</g>
<!-- 2&#45;&#45;3 -->
<g id="edge13" class="edge"><title>2&#45;&#45;3</title>
<path fill="none" stroke="black" d="M29.9966,-107.819C41.7426,-102.409 104.777,-73.3736 116.493,-67.9771"/>
</g>
<!-- 2&#45;&#45;4 -->
<g id="edge14" class="edge"><title>2&#45;&#45;4</title>
<path fill="none" stroke="black" d="M28.9449,-110.465C33.6096,-120.414 56.4346,-169.094 61.0228,-178.88"/>
</g>
<!-- 2&#45;&#45;5 -->
<g id="edge15" class="edge"><title>2&#45;&#45;5</title>
<path fill="none" stroke="black" d="M26.9809,-110.645C22.653,-118.14 7.16693,-144.959 2.89707,-152.353"/>
</g>
<!-- 2&#45;&#45;6 -->
<g id="edge16" class="edge"><title>2&#45;&#45;6</title>
<path fill="none" stroke="black" d="M27.6966,-106.918C25.6333,-98.1162 16.4875,-59.1026 14.2333,-49.4868"/>
</g>
<!-- 3&#45;&#45;7 -->
<g id="edge17" class="edge"><title>3&#45;&#45;7</title>
<path fill="none" stroke="black" d="M119.434,-68.6059C125.348,-76.8858 154.086,-117.121 160.301,-125.823"/>
</g>
<!-- 8 -->
<g id="node9" class="node"><title>8</title>
<ellipse fill="black" stroke="black" cx="160.676" cy="-1.8" rx="1.8" ry="1.8"/>
</g>
<!-- 3&#45;&#45;8 -->
<g id="edge18" class="edge"><title>3&#45;&#45;8</title>
<path fill="none" stroke="black" d="M119.413,-65.4991C125.216,-56.5414 153.413,-13.0127 159.512,-3.5979"/>
</g>
</g>
</svg>
