<?xml version="1.0" encoding="UTF-8" standalone="no"?>
<!DOCTYPE svg PUBLIC "-//W3C//DTD SVG 1.1//EN"
 "http://www.w3.org/Graphics/SVG/1.1/DTD/svg11.dtd">
<!-- Generated by graphviz version 2.36.0 (20140111.2315)
 -->
<!-- Title: %3 Pages: 1 -->
<svg width="149pt" height="166pt"
 viewBox="0.00 0.00 148.88 166.28" xmlns="http://www.w3.org/2000/svg" xmlns:xlink="http://www.w3.org/1999/xlink">
<g id="graph0" class="graph" transform="scale(1 1) rotate(0) translate(4 162.282)">
<title>%3</title>
<!-- 0 -->
<g id="node1" class="node"><title>0</title>
<ellipse fill="black" stroke="black" cx="41.3854" cy="-88.3739" rx="1.8" ry="1.8"/>
</g>
<!-- 1 -->
<g id="node2" class="node"><title>1</title>
<ellipse fill="black" stroke="black" cx="70.064" cy="-75.1537" rx="1.8" ry="1.8"/>
</g>
<!-- 0&#45;&#45;1 -->
<g id="edge1" class="edge"><title>0&#45;&#45;1</title>
<path fill="none" stroke="black" d="M43.2671,-87.5065C48.451,-85.1168 62.9012,-78.4556 68.1378,-76.0417"/>
</g>
<!-- 2 -->
<g id="node3" class="node"><title>2</title>
<ellipse fill="black" stroke="black" cx="91.7888" cy="-39.9089" rx="1.8" ry="1.8"/>
</g>
<!-- 0&#45;&#45;2 -->
<g id="edge2" class="edge"><title>0&#45;&#45;2</title>
<path fill="none" stroke="black" d="M43.0624,-86.7613C50.8516,-79.2717 83.4167,-47.959 90.4471,-41.1989"/>
</g>
<!-- 3 -->
<g id="node4" class="node"><title>3</title>
<ellipse fill="black" stroke="black" cx="86.8721" cy="-131.632" rx="1.8" ry="1.8"/>
</g>
<!-- 0&#45;&#45;3 -->
<g id="edge3" class="edge"><title>0&#45;&#45;3</title>
<path fill="none" stroke="black" d="M42.8988,-89.8132C49.8049,-96.3809 78.2924,-123.473 85.3063,-130.143"/>
</g>
<!-- 4 -->
<g id="node5" class="node"><title>4</title>
<ellipse fill="black" stroke="black" cx="119.691" cy="-122.202" rx="1.8" ry="1.8"/>
</g>
<!-- 0&#45;&#45;4 -->
<g id="edge4" class="edge"><title>0&#45;&#45;4</title>
<path fill="none" stroke="black" d="M43.321,-89.2101C54.1547,-93.8903 107.166,-116.791 117.823,-121.395"/>
</g>
<!-- 5 -->
<g id="node6" class="node"><title>5</title>
<ellipse fill="black" stroke="black" cx="1.8" cy="-38.3244" rx="1.8" ry="1.8"/>
</g>
<!-- 0&#45;&#45;5 -->
<g id="edge5" class="edge"><title>0&#45;&#45;5</title>
<path fill="none" stroke="black" d="M40.0683,-86.7086C34.0582,-79.1098 9.26661,-47.7648 3.16262,-40.0473"/>
</g>
<!-- 6 -->
<g id="node7" class="node"><title>6</title>
<ellipse fill="black" stroke="black" cx="39.402" cy="-156.482" rx="1.8" ry="1.8"/>
</g>
<!-- 0&#45;&#45;6 -->
<g id="edge6" class="edge"><title>0&#45;&#45;6</title>
<path fill="none" stroke="black" d="M41.3281,-90.3388C41.0385,-100.284 39.737,-144.98 39.4557,-154.639"/>
</g>
<!-- 7 -->
<g id="node8" class="node"><title>7</title>
<ellipse fill="black" stroke="black" cx="139.083" cy="-71.0613" rx="1.8" ry="1.8"/>
</g>
<!-- 0&#45;&#45;7 -->
<g id="edge7" class="edge"><title>0&#45;&#45;7</title>
<path fill="none" stroke="black" d="M43.4259,-88.0123C56.1403,-85.7592 124.372,-73.6682 137.053,-71.4209"/>
</g>
<!-- 8 -->
<g id="node9" class="node"><title>8</title>
<ellipse fill="black" stroke="black" cx="43.1334" cy="-1.8" rx="1.8" ry="1.8"/>
</g>
<!-- 0&#45;&#45;8 -->
<g id="edge8" class="edge"><title>0&#45;&#45;8</title>
<path fill="none" stroke="black" d="M41.4219,-86.5656C41.6474,-75.396 42.8492,-15.8748 43.091,-3.89981"/>
</g>
<!-- 1&#45;&#45;2 -->
<g id="edge9" class="edge"><title>1&#45;&#45;2</title>
<path fill="none" stroke="black" d="M71.232,-73.2588C75.0394,-67.082 87.0565,-47.5862 90.7188,-41.6446"/>
</g>
<!-- 1&#45;&#45;3 -->
<g id="edge10" class="edge"><title>1&#45;&#45;3</title>
<path fill="none" stroke="black" d="M70.6233,-77.0329C73.1752,-85.6078 83.7018,-120.979 86.2935,-129.688"/>
</g>
<!-- 1&#45;&#45;4 -->
<g id="edge11" class="edge"><title>1&#45;&#45;4</title>
<path fill="none" stroke="black" d="M71.7152,-76.7191C79.3844,-83.9898 111.448,-114.387 118.37,-120.95"/>
</g>
<!-- 1&#45;&#45;5 -->
<g id="edge12" class="edge"><title>1&#45;&#45;5</title>
<path fill="none" stroke="black" d="M68.3766,-74.2433C59.0143,-69.1922 13.5192,-44.6471 3.67912,-39.3383"/>
</g>
<!-- 1&#45;&#45;6 -->
<g id="edge13" class="edge"><title>1&#45;&#45;6</title>
<path fill="none" stroke="black" d="M69.4236,-76.8524C65.4332,-87.4365 44.019,-144.236 40.0389,-154.793"/>
</g>
<!-- 1&#45;&#45;7 -->
<g id="edge14" class="edge"><title>1&#45;&#45;7</title>
<path fill="none" stroke="black" d="M72.0552,-75.0357C82.1338,-74.4381 127.427,-71.7524 137.214,-71.1721"/>
</g>
<!-- 1&#45;&#45;8 -->
<g id="edge15" class="edge"><title>1&#45;&#45;8</title>
<path fill="none" stroke="black" d="M69.3983,-73.3405C65.6724,-63.1919 47.4407,-13.5323 43.7758,-3.54987"/>
</g>
<!-- 2&#45;&#45;3 -->
<g id="edge16" class="edge"><title>2&#45;&#45;3</title>
<path fill="none" stroke="black" d="M91.6861,-41.8246C91.0462,-53.7616 87.6124,-117.821 86.9742,-129.727"/>
</g>
<!-- 2&#45;&#45;4 -->
<g id="edge17" class="edge"><title>2&#45;&#45;4</title>
<path fill="none" stroke="black" d="M92.3715,-41.6277C96.0027,-52.3373 115.489,-109.811 119.111,-120.493"/>
</g>
<!-- 2&#45;&#45;5 -->
<g id="edge18" class="edge"><title>2&#45;&#45;5</title>
<path fill="none" stroke="black" d="M89.9092,-39.8758C78.198,-39.6696 15.3502,-38.563 3.6692,-38.3574"/>
</g>
<!-- 2&#45;&#45;7 -->
<g id="edge19" class="edge"><title>2&#45;&#45;7</title>
<path fill="none" stroke="black" d="M93.3623,-40.9453C100.543,-45.6751 130.162,-65.1853 137.455,-69.989"/>
</g>
<!-- 2&#45;&#45;8 -->
<g id="edge20" class="edge"><title>2&#45;&#45;8</title>
<path fill="none" stroke="black" d="M90.1699,-38.6409C82.7828,-32.855 52.3108,-8.98811 44.8082,-3.11179"/>
</g>
<!-- 3&#45;&#45;4 -->
<g id="edge21" class="edge"><title>3&#45;&#45;4</title>
<path fill="none" stroke="black" d="M88.6366,-131.125C94.2817,-129.503 111.874,-124.448 117.754,-122.758"/>
</g>
<!-- 3&#45;&#45;6 -->
<g id="edge22" class="edge"><title>3&#45;&#45;6</title>
<path fill="none" stroke="black" d="M84.8324,-132.7C77.024,-136.788 49.0848,-151.413 41.3813,-155.446"/>
</g>
<!-- 3&#45;&#45;7 -->
<g id="edge23" class="edge"><title>3&#45;&#45;7</title>
<path fill="none" stroke="black" d="M88.1627,-130.135C95.3233,-121.828 130.119,-81.4598 137.645,-72.7287"/>
</g>
<!-- 4&#45;&#45;6 -->
<g id="edge24" class="edge"><title>4&#45;&#45;6</title>
<path fill="none" stroke="black" d="M118.014,-122.918C107.565,-127.379 51.4916,-151.32 41.0697,-155.77"/>
</g>
<!-- 5&#45;&#45;8 -->
<g id="edge25" class="edge"><title>5&#45;&#45;8</title>
<path fill="none" stroke="black" d="M3.17524,-37.1092C9.45071,-31.5639 35.3371,-8.68926 41.7106,-3.05725"/>
</g>
</g>
</svg>
