<?xml version="1.0" encoding="UTF-8" standalone="no"?>
<!DOCTYPE svg PUBLIC "-//W3C//DTD SVG 1.1//EN"
 "http://www.w3.org/Graphics/SVG/1.1/DTD/svg11.dtd">
<!-- Generated by graphviz version 2.36.0 (20140111.2315)
 -->
<!-- Title: %3 Pages: 1 -->
<svg width="162pt" height="150pt"
 viewBox="0.00 0.00 162.46 150.03" xmlns="http://www.w3.org/2000/svg" xmlns:xlink="http://www.w3.org/1999/xlink">
<g id="graph0" class="graph" transform="scale(1 1) rotate(0) translate(4 146.025)">
<title>%3</title>
<!-- 0 -->
<g id="node1" class="node"><title>0</title>
<ellipse fill="black" stroke="black" cx="68.3337" cy="-81.722" rx="1.8" ry="1.8"/>
</g>
<!-- 1 -->
<g id="node2" class="node"><title>1</title>
<ellipse fill="black" stroke="black" cx="79.2787" cy="-53.4341" rx="1.8" ry="1.8"/>
</g>
<!-- 0&#45;&#45;1 -->
<g id="edge1" class="edge"><title>0&#45;&#45;1</title>
<path fill="none" stroke="black" d="M69.0518,-79.8659C71.0302,-74.7526 76.5451,-60.4993 78.5436,-55.3341"/>
</g>
<!-- 2 -->
<g id="node3" class="node"><title>2</title>
<ellipse fill="black" stroke="black" cx="5.14931" cy="-81.2359" rx="1.8" ry="1.8"/>
</g>
<!-- 0&#45;&#45;2 -->
<g id="edge2" class="edge"><title>0&#45;&#45;2</title>
<path fill="none" stroke="black" d="M66.5109,-81.7079C57.4461,-81.6382 17.2647,-81.3291 7.36103,-81.253"/>
</g>
<!-- 3 -->
<g id="node4" class="node"><title>3</title>
<ellipse fill="black" stroke="black" cx="114.34" cy="-124.309" rx="1.8" ry="1.8"/>
</g>
<!-- 0&#45;&#45;3 -->
<g id="edge3" class="edge"><title>0&#45;&#45;3</title>
<path fill="none" stroke="black" d="M69.8644,-83.1389C76.8494,-89.6047 105.662,-116.276 112.756,-122.843"/>
</g>
<!-- 4 -->
<g id="node5" class="node"><title>4</title>
<ellipse fill="black" stroke="black" cx="1.8" cy="-29.2352" rx="1.8" ry="1.8"/>
</g>
<!-- 0&#45;&#45;4 -->
<g id="edge4" class="edge"><title>0&#45;&#45;4</title>
<path fill="none" stroke="black" d="M66.689,-80.4245C57.564,-73.226 13.2221,-38.2458 3.63149,-30.68"/>
</g>
<!-- 5 -->
<g id="node6" class="node"><title>5</title>
<ellipse fill="black" stroke="black" cx="44.8588" cy="-140.225" rx="1.8" ry="1.8"/>
</g>
<!-- 0&#45;&#45;5 -->
<g id="edge5" class="edge"><title>0&#45;&#45;5</title>
<path fill="none" stroke="black" d="M67.6565,-83.4097C64.2886,-91.8029 49.3601,-129.007 45.6805,-138.177"/>
</g>
<!-- 6 -->
<g id="node7" class="node"><title>6</title>
<ellipse fill="black" stroke="black" cx="42.898" cy="-1.8" rx="1.8" ry="1.8"/>
</g>
<!-- 0&#45;&#45;6 -->
<g id="edge6" class="edge"><title>0&#45;&#45;6</title>
<path fill="none" stroke="black" d="M67.7049,-79.7463C64.1859,-68.689 46.9662,-14.5828 43.5048,-3.70655"/>
</g>
<!-- 7 -->
<g id="node8" class="node"><title>7</title>
<ellipse fill="black" stroke="black" cx="152.66" cy="-89.4722" rx="1.8" ry="1.8"/>
</g>
<!-- 0&#45;&#45;7 -->
<g id="edge7" class="edge"><title>0&#45;&#45;7</title>
<path fill="none" stroke="black" d="M70.4182,-81.9135C82.0848,-82.9858 139.172,-88.2326 150.648,-89.2873"/>
</g>
<!-- 8 -->
<g id="node9" class="node"><title>8</title>
<ellipse fill="black" stroke="black" cx="140.838" cy="-39.7339" rx="1.8" ry="1.8"/>
</g>
<!-- 0&#45;&#45;8 -->
<g id="edge8" class="edge"><title>0&#45;&#45;8</title>
<path fill="none" stroke="black" d="M70.1259,-80.684C80.1571,-74.8749 129.242,-46.4495 139.108,-40.7355"/>
</g>
<!-- 1&#45;&#45;2 -->
<g id="edge9" class="edge"><title>1&#45;&#45;2</title>
<path fill="none" stroke="black" d="M77.4463,-54.1214C67.1903,-57.9678 17.0057,-76.7893 6.91768,-80.5727"/>
</g>
<!-- 1&#45;&#45;3 -->
<g id="edge10" class="edge"><title>1&#45;&#45;3</title>
<path fill="none" stroke="black" d="M80.1454,-55.1861C84.9962,-64.9917 108.732,-112.973 113.504,-122.618"/>
</g>
<!-- 1&#45;&#45;4 -->
<g id="edge11" class="edge"><title>1&#45;&#45;4</title>
<path fill="none" stroke="black" d="M77.3635,-52.8359C66.6441,-49.488 14.192,-33.1056 3.64827,-29.8125"/>
</g>
<!-- 1&#45;&#45;5 -->
<g id="edge12" class="edge"><title>1&#45;&#45;5</title>
<path fill="none" stroke="black" d="M78.5598,-55.2469C74.0804,-66.5419 50.0417,-127.156 45.5738,-138.422"/>
</g>
<!-- 1&#45;&#45;6 -->
<g id="edge13" class="edge"><title>1&#45;&#45;6</title>
<path fill="none" stroke="black" d="M78.0682,-51.7162C72.5447,-43.8768 49.7601,-11.5393 44.1503,-3.57736"/>
</g>
<!-- 1&#45;&#45;7 -->
<g id="edge14" class="edge"><title>1&#45;&#45;7</title>
<path fill="none" stroke="black" d="M81.0926,-54.325C91.245,-59.3109 140.923,-83.7082 150.909,-88.6125"/>
</g>
<!-- 1&#45;&#45;8 -->
<g id="edge15" class="edge"><title>1&#45;&#45;8</title>
<path fill="none" stroke="black" d="M81.0546,-53.0389C89.8863,-51.0734 129.034,-42.3609 138.683,-40.2135"/>
</g>
<!-- 2&#45;&#45;4 -->
<g id="edge16" class="edge"><title>2&#45;&#45;4</title>
<path fill="none" stroke="black" d="M5.0054,-79.0015C4.45447,-70.448 2.48318,-39.8422 1.93965,-31.4034"/>
</g>
<!-- 2&#45;&#45;5 -->
<g id="edge17" class="edge"><title>2&#45;&#45;5</title>
<path fill="none" stroke="black" d="M6.29491,-82.9378C12.0936,-91.5518 38.1528,-130.263 43.7838,-138.628"/>
</g>
<!-- 2&#45;&#45;6 -->
<g id="edge18" class="edge"><title>2&#45;&#45;6</title>
<path fill="none" stroke="black" d="M5.93775,-79.5768C10.8504,-69.239 37.2139,-13.7612 42.1139,-3.45"/>
</g>
<!-- 3&#45;&#45;5 -->
<g id="edge19" class="edge"><title>3&#45;&#45;5</title>
<path fill="none" stroke="black" d="M112.336,-124.768C102.189,-127.092 56.5927,-137.537 46.7398,-139.794"/>
</g>
<!-- 3&#45;&#45;7 -->
<g id="edge20" class="edge"><title>3&#45;&#45;7</title>
<path fill="none" stroke="black" d="M115.987,-122.812C122.29,-117.082 144.843,-96.5781 151.062,-90.9247"/>
</g>
<!-- 3&#45;&#45;8 -->
<g id="edge21" class="edge"><title>3&#45;&#45;8</title>
<path fill="none" stroke="black" d="M114.893,-122.542C118.342,-111.536 136.848,-52.4689 140.288,-41.4907"/>
</g>
<!-- 4&#45;&#45;6 -->
<g id="edge22" class="edge"><title>4&#45;&#45;6</title>
<path fill="none" stroke="black" d="M3.56593,-28.0564C10.3261,-23.5436 34.515,-7.39615 41.1844,-2.94393"/>
</g>
</g>
</svg>
