<?xml version="1.0" encoding="UTF-8" standalone="no"?>
<!DOCTYPE svg PUBLIC "-//W3C//DTD SVG 1.1//EN"
 "http://www.w3.org/Graphics/SVG/1.1/DTD/svg11.dtd">
<!-- Generated by graphviz version 2.36.0 (20140111.2315)
 -->
<!-- Title: %3 Pages: 1 -->
<svg width="135pt" height="176pt"
 viewBox="0.00 0.00 135.19 176.04" xmlns="http://www.w3.org/2000/svg" xmlns:xlink="http://www.w3.org/1999/xlink">
<g id="graph0" class="graph" transform="scale(1 1) rotate(0) translate(4 172.042)">
<title>%3</title>
<!-- 0 -->
<g id="node1" class="node"><title>0</title>
<ellipse fill="black" stroke="black" cx="80.3867" cy="-82.0518" rx="1.8" ry="1.8"/>
</g>
<!-- 1 -->
<g id="node2" class="node"><title>1</title>
<ellipse fill="black" stroke="black" cx="125.389" cy="-97.8326" rx="1.8" ry="1.8"/>
</g>
<!-- 0&#45;&#45;1 -->
<g id="edge1" class="edge"><title>0&#45;&#45;1</title>
<path fill="none" stroke="black" d="M82.3204,-82.7299C89.7227,-85.3257 116.209,-94.6137 123.512,-97.1747"/>
</g>
<!-- 2 -->
<g id="node3" class="node"><title>2</title>
<ellipse fill="black" stroke="black" cx="51.3957" cy="-130.163" rx="1.8" ry="1.8"/>
</g>
<!-- 0&#45;&#45;2 -->
<g id="edge2" class="edge"><title>0&#45;&#45;2</title>
<path fill="none" stroke="black" d="M79.4221,-83.6526C75.0205,-90.9572 56.864,-121.089 52.3937,-128.507"/>
</g>
<!-- 3 -->
<g id="node4" class="node"><title>3</title>
<ellipse fill="black" stroke="black" cx="1.8" cy="-101.402" rx="1.8" ry="1.8"/>
</g>
<!-- 0&#45;&#45;3 -->
<g id="edge3" class="edge"><title>0&#45;&#45;3</title>
<path fill="none" stroke="black" d="M78.4441,-82.5301C67.5715,-85.2073 14.3692,-98.3074 3.6747,-100.941"/>
</g>
<!-- 4 -->
<g id="node5" class="node"><title>4</title>
<ellipse fill="black" stroke="black" cx="120.742" cy="-137.709" rx="1.8" ry="1.8"/>
</g>
<!-- 0&#45;&#45;4 -->
<g id="edge4" class="edge"><title>0&#45;&#45;4</title>
<path fill="none" stroke="black" d="M81.7294,-83.9036C87.9658,-92.5047 114.039,-128.464 119.668,-136.228"/>
</g>
<!-- 5 -->
<g id="node6" class="node"><title>5</title>
<ellipse fill="black" stroke="black" cx="62.7834" cy="-166.242" rx="1.8" ry="1.8"/>
</g>
<!-- 0&#45;&#45;5 -->
<g id="edge5" class="edge"><title>0&#45;&#45;5</title>
<path fill="none" stroke="black" d="M79.9515,-84.1329C77.5161,-95.7807 65.5989,-152.776 63.2033,-164.233"/>
</g>
<!-- 6 -->
<g id="node7" class="node"><title>6</title>
<ellipse fill="black" stroke="black" cx="54.2302" cy="-51.044" rx="1.8" ry="1.8"/>
</g>
<!-- 0&#45;&#45;6 -->
<g id="edge6" class="edge"><title>0&#45;&#45;6</title>
<path fill="none" stroke="black" d="M78.9804,-80.3847C74.3963,-74.9504 59.9278,-57.7985 55.5183,-52.5711"/>
</g>
<!-- 7 -->
<g id="node8" class="node"><title>7</title>
<ellipse fill="black" stroke="black" cx="118.166" cy="-1.8" rx="1.8" ry="1.8"/>
</g>
<!-- 0&#45;&#45;7 -->
<g id="edge7" class="edge"><title>0&#45;&#45;7</title>
<path fill="none" stroke="black" d="M81.1758,-80.3756C86.0923,-69.9316 112.477,-13.8841 117.381,-3.46695"/>
</g>
<!-- 1&#45;&#45;2 -->
<g id="edge8" class="edge"><title>1&#45;&#45;2</title>
<path fill="none" stroke="black" d="M123.56,-98.6318C113.323,-103.105 63.2302,-124.992 53.1608,-129.392"/>
</g>
<!-- 1&#45;&#45;4 -->
<g id="edge9" class="edge"><title>1&#45;&#45;4</title>
<path fill="none" stroke="black" d="M125.139,-99.9766C124.325,-106.965 121.754,-129.023 120.971,-135.745"/>
</g>
<!-- 1&#45;&#45;5 -->
<g id="edge10" class="edge"><title>1&#45;&#45;5</title>
<path fill="none" stroke="black" d="M124.081,-99.2615C115.934,-108.164 72.2103,-155.941 64.0838,-164.821"/>
</g>
<!-- 1&#45;&#45;6 -->
<g id="edge11" class="edge"><title>1&#45;&#45;6</title>
<path fill="none" stroke="black" d="M123.63,-96.6761C113.785,-90.2028 65.6113,-58.5275 55.9277,-52.1602"/>
</g>
<!-- 2&#45;&#45;3 -->
<g id="edge12" class="edge"><title>2&#45;&#45;3</title>
<path fill="none" stroke="black" d="M49.7456,-129.207C42.2157,-124.84 11.1548,-106.827 3.5072,-102.392"/>
</g>
<!-- 2&#45;&#45;4 -->
<g id="edge13" class="edge"><title>2&#45;&#45;4</title>
<path fill="none" stroke="black" d="M53.3963,-130.381C63.5228,-131.483 109.031,-136.435 118.865,-137.505"/>
</g>
<!-- 2&#45;&#45;5 -->
<g id="edge14" class="edge"><title>2&#45;&#45;5</title>
<path fill="none" stroke="black" d="M52.008,-132.103C54.0037,-138.426 60.3028,-158.383 62.2225,-164.465"/>
</g>
<!-- 3&#45;&#45;5 -->
<g id="edge15" class="edge"><title>3&#45;&#45;5</title>
<path fill="none" stroke="black" d="M3.30746,-103.005C11.818,-112.054 53.7501,-156.637 61.5376,-164.917"/>
</g>
<!-- 3&#45;&#45;6 -->
<g id="edge16" class="edge"><title>3&#45;&#45;6</title>
<path fill="none" stroke="black" d="M3.54444,-99.7268C11.6468,-91.9446 45.5214,-59.4086 52.8345,-52.3845"/>
</g>
<!-- 4&#45;&#45;6 -->
<g id="edge17" class="edge"><title>4&#45;&#45;6</title>
<path fill="none" stroke="black" d="M119.588,-136.205C111.515,-125.686 63.5932,-63.2441 55.4164,-52.5897"/>
</g>
</g>
</svg>
