<?xml version="1.0" encoding="UTF-8" standalone="no"?>
<!DOCTYPE svg PUBLIC "-//W3C//DTD SVG 1.1//EN"
 "http://www.w3.org/Graphics/SVG/1.1/DTD/svg11.dtd">
<!-- Generated by graphviz version 2.36.0 (20140111.2315)
 -->
<!-- Title: %3 Pages: 1 -->
<svg width="197pt" height="270pt"
 viewBox="0.00 0.00 197.31 270.15" xmlns="http://www.w3.org/2000/svg" xmlns:xlink="http://www.w3.org/1999/xlink">
<g id="graph0" class="graph" transform="scale(1 1) rotate(0) translate(4 266.148)">
<title>%3</title>
<!-- 0 -->
<g id="node1" class="node"><title>0</title>
<ellipse fill="black" stroke="black" cx="67.8952" cy="-196.102" rx="1.8" ry="1.8"/>
</g>
<!-- 1 -->
<g id="node2" class="node"><title>1</title>
<ellipse fill="black" stroke="black" cx="103.284" cy="-127.243" rx="1.8" ry="1.8"/>
</g>
<!-- 0&#45;&#45;1 -->
<g id="edge1" class="edge"><title>0&#45;&#45;1</title>
<path fill="none" stroke="black" d="M68.77,-194.4C73.6235,-184.956 97.2089,-139.064 102.31,-129.139"/>
</g>
<!-- 3 -->
<g id="node3" class="node"><title>3</title>
<ellipse fill="black" stroke="black" cx="30.8918" cy="-127.632" rx="1.8" ry="1.8"/>
</g>
<!-- 0&#45;&#45;3 -->
<g id="edge2" class="edge"><title>0&#45;&#45;3</title>
<path fill="none" stroke="black" d="M66.9805,-194.41C61.9055,-185.019 37.2443,-139.386 31.9104,-129.516"/>
</g>
<!-- 4 -->
<g id="node4" class="node"><title>4</title>
<ellipse fill="black" stroke="black" cx="140.021" cy="-194.205" rx="1.8" ry="1.8"/>
</g>
<!-- 0&#45;&#45;4 -->
<g id="edge3" class="edge"><title>0&#45;&#45;4</title>
<path fill="none" stroke="black" d="M69.976,-196.047C80.5083,-195.77 127.841,-194.526 138.069,-194.257"/>
</g>
<!-- 6 -->
<g id="node5" class="node"><title>6</title>
<ellipse fill="black" stroke="black" cx="115.493" cy="-260.348" rx="1.8" ry="1.8"/>
</g>
<!-- 0&#45;&#45;6 -->
<g id="edge4" class="edge"><title>0&#45;&#45;6</title>
<path fill="none" stroke="black" d="M69.0717,-197.69C75.5997,-206.501 107.322,-249.319 114.183,-258.579"/>
</g>
<!-- 8 -->
<g id="node6" class="node"><title>8</title>
<ellipse fill="black" stroke="black" cx="1.8" cy="-240.976" rx="1.8" ry="1.8"/>
</g>
<!-- 0&#45;&#45;8 -->
<g id="edge5" class="edge"><title>0&#45;&#45;8</title>
<path fill="none" stroke="black" d="M66.2613,-197.211C57.1965,-203.366 13.1468,-233.273 3.61942,-239.741"/>
</g>
<!-- 1&#45;&#45;3 -->
<g id="edge7" class="edge"><title>1&#45;&#45;3</title>
<path fill="none" stroke="black" d="M101.196,-127.254C90.6245,-127.311 43.1173,-127.566 32.8516,-127.621"/>
</g>
<!-- 1&#45;&#45;4 -->
<g id="edge8" class="edge"><title>1&#45;&#45;4</title>
<path fill="none" stroke="black" d="M104.192,-128.898C109.231,-138.082 133.714,-182.71 139.01,-192.362"/>
</g>
<!-- 2 -->
<g id="node7" class="node"><title>2</title>
<ellipse fill="black" stroke="black" cx="67.3641" cy="-62.4557" rx="1.8" ry="1.8"/>
</g>
<!-- 1&#45;&#45;2 -->
<g id="edge6" class="edge"><title>1&#45;&#45;2</title>
<path fill="none" stroke="black" d="M102.396,-125.642C97.4699,-116.756 73.5307,-73.578 68.3529,-64.2391"/>
</g>
<!-- 5 -->
<g id="node8" class="node"><title>5</title>
<ellipse fill="black" stroke="black" cx="140.208" cy="-59.6256" rx="1.8" ry="1.8"/>
</g>
<!-- 1&#45;&#45;5 -->
<g id="edge9" class="edge"><title>1&#45;&#45;5</title>
<path fill="none" stroke="black" d="M104.197,-125.572C109.261,-116.298 133.87,-71.2337 139.192,-61.4869"/>
</g>
<!-- 4&#45;&#45;6 -->
<g id="edge12" class="edge"><title>4&#45;&#45;6</title>
<path fill="none" stroke="black" d="M139.313,-196.114C135.732,-205.772 119.635,-249.178 116.157,-258.557"/>
</g>
<!-- 2&#45;&#45;3 -->
<g id="edge10" class="edge"><title>2&#45;&#45;3</title>
<path fill="none" stroke="black" d="M66.4626,-64.0668C61.4604,-73.0056 37.1532,-116.443 31.8958,-125.838"/>
</g>
<!-- 2&#45;&#45;5 -->
<g id="edge11" class="edge"><title>2&#45;&#45;5</title>
<path fill="none" stroke="black" d="M69.1648,-62.3858C79.1553,-61.9976 127.703,-60.1114 138.203,-59.7035"/>
</g>
<!-- 7 -->
<g id="node9" class="node"><title>7</title>
<ellipse fill="black" stroke="black" cx="187.507" cy="-1.8" rx="1.8" ry="1.8"/>
</g>
<!-- 5&#45;&#45;7 -->
<g id="edge13" class="edge"><title>5&#45;&#45;7</title>
<path fill="none" stroke="black" d="M141.378,-58.1962C147.865,-50.2654 179.387,-11.7272 186.205,-3.39178"/>
</g>
</g>
</svg>
