<?xml version="1.0" encoding="UTF-8" standalone="no"?>
<!DOCTYPE svg PUBLIC "-//W3C//DTD SVG 1.1//EN"
 "http://www.w3.org/Graphics/SVG/1.1/DTD/svg11.dtd">
<!-- Generated by graphviz version 2.36.0 (20140111.2315)
 -->
<!-- Title: %3 Pages: 1 -->
<svg width="159pt" height="171pt"
 viewBox="0.00 0.00 158.76 170.88" xmlns="http://www.w3.org/2000/svg" xmlns:xlink="http://www.w3.org/1999/xlink">
<g id="graph0" class="graph" transform="scale(1 1) rotate(0) translate(4 166.885)">
<title>%3</title>
<!-- 0 -->
<g id="node1" class="node"><title>0</title>
<ellipse fill="black" stroke="black" cx="85.032" cy="-67.684" rx="1.8" ry="1.8"/>
</g>
<!-- 1 -->
<g id="node2" class="node"><title>1</title>
<ellipse fill="black" stroke="black" cx="72.3958" cy="-93.1351" rx="1.8" ry="1.8"/>
</g>
<!-- 0&#45;&#45;1 -->
<g id="edge1" class="edge"><title>0&#45;&#45;1</title>
<path fill="none" stroke="black" d="M84.2029,-69.3539C81.9188,-73.9544 75.5518,-86.7784 73.2445,-91.4257"/>
</g>
<!-- 2 -->
<g id="node3" class="node"><title>2</title>
<ellipse fill="black" stroke="black" cx="124.552" cy="-106.385" rx="1.8" ry="1.8"/>
</g>
<!-- 0&#45;&#45;2 -->
<g id="edge2" class="edge"><title>0&#45;&#45;2</title>
<path fill="none" stroke="black" d="M86.3469,-68.9717C92.3471,-74.8475 117.098,-99.0854 123.192,-105.053"/>
</g>
<!-- 3 -->
<g id="node4" class="node"><title>3</title>
<ellipse fill="black" stroke="black" cx="84.1489" cy="-161.085" rx="1.8" ry="1.8"/>
</g>
<!-- 0&#45;&#45;3 -->
<g id="edge3" class="edge"><title>0&#45;&#45;3</title>
<path fill="none" stroke="black" d="M85.0136,-69.6348C84.8987,-81.79 84.2819,-147.021 84.1672,-159.145"/>
</g>
<!-- 4 -->
<g id="node5" class="node"><title>4</title>
<ellipse fill="black" stroke="black" cx="25.8135" cy="-122.001" rx="1.8" ry="1.8"/>
</g>
<!-- 0&#45;&#45;4 -->
<g id="edge4" class="edge"><title>0&#45;&#45;4</title>
<path fill="none" stroke="black" d="M83.5682,-69.0267C75.4464,-76.4762 35.9798,-112.676 27.4436,-120.506"/>
</g>
<!-- 5 -->
<g id="node6" class="node"><title>5</title>
<ellipse fill="black" stroke="black" cx="139.223" cy="-147.051" rx="1.8" ry="1.8"/>
</g>
<!-- 0&#45;&#45;5 -->
<g id="edge5" class="edge"><title>0&#45;&#45;5</title>
<path fill="none" stroke="black" d="M86.1639,-69.3417C93.2163,-79.6706 131.063,-135.1 138.097,-145.403"/>
</g>
<!-- 6 -->
<g id="node7" class="node"><title>6</title>
<ellipse fill="black" stroke="black" cx="1.8" cy="-64.673" rx="1.8" ry="1.8"/>
</g>
<!-- 0&#45;&#45;6 -->
<g id="edge6" class="edge"><title>0&#45;&#45;6</title>
<path fill="none" stroke="black" d="M82.9746,-67.6096C71.4593,-67.193 15.1122,-65.1546 3.78552,-64.7449"/>
</g>
<!-- 7 -->
<g id="node8" class="node"><title>7</title>
<ellipse fill="black" stroke="black" cx="148.957" cy="-42.9064" rx="1.8" ry="1.8"/>
</g>
<!-- 0&#45;&#45;7 -->
<g id="edge7" class="edge"><title>0&#45;&#45;7</title>
<path fill="none" stroke="black" d="M86.8762,-66.9692C96.211,-63.351 138.161,-47.0908 147.226,-43.5772"/>
</g>
<!-- 8 -->
<g id="node9" class="node"><title>8</title>
<ellipse fill="black" stroke="black" cx="65.6513" cy="-1.8" rx="1.8" ry="1.8"/>
</g>
<!-- 0&#45;&#45;8 -->
<g id="edge8" class="edge"><title>0&#45;&#45;8</title>
<path fill="none" stroke="black" d="M84.4729,-65.7833C81.6428,-56.1624 68.9243,-12.9264 66.176,-3.58356"/>
</g>
<!-- 1&#45;&#45;2 -->
<g id="edge9" class="edge"><title>1&#45;&#45;2</title>
<path fill="none" stroke="black" d="M74.6369,-93.7044C83.2161,-95.884 113.914,-103.683 122.378,-105.833"/>
</g>
<!-- 1&#45;&#45;3 -->
<g id="edge10" class="edge"><title>1&#45;&#45;3</title>
<path fill="none" stroke="black" d="M72.7349,-95.0954C74.4511,-105.018 82.164,-149.61 83.8307,-159.245"/>
</g>
<!-- 1&#45;&#45;4 -->
<g id="edge11" class="edge"><title>1&#45;&#45;4</title>
<path fill="none" stroke="black" d="M70.8459,-94.0955C63.7735,-98.4781 34.5998,-116.556 27.4169,-121.007"/>
</g>
<!-- 1&#45;&#45;5 -->
<g id="edge12" class="edge"><title>1&#45;&#45;5</title>
<path fill="none" stroke="black" d="M74.0477,-94.4679C83.213,-101.862 127.75,-137.795 137.383,-145.567"/>
</g>
<!-- 1&#45;&#45;6 -->
<g id="edge13" class="edge"><title>1&#45;&#45;6</title>
<path fill="none" stroke="black" d="M70.6507,-92.4315C60.8837,-88.4938 13.0912,-69.2253 3.48408,-65.352"/>
</g>
<!-- 1&#45;&#45;7 -->
<g id="edge14" class="edge"><title>1&#45;&#45;7</title>
<path fill="none" stroke="black" d="M73.9949,-92.086C83.9586,-85.5492 137.428,-50.4697 147.366,-43.9497"/>
</g>
<!-- 1&#45;&#45;8 -->
<g id="edge15" class="edge"><title>1&#45;&#45;8</title>
<path fill="none" stroke="black" d="M72.2549,-91.2274C71.3772,-79.341 66.6669,-15.553 65.7914,-3.69717"/>
</g>
<!-- 2&#45;&#45;3 -->
<g id="edge16" class="edge"><title>2&#45;&#45;3</title>
<path fill="none" stroke="black" d="M123.208,-108.205C116.964,-116.658 90.86,-151.999 85.2244,-159.629"/>
</g>
<!-- 2&#45;&#45;4 -->
<g id="edge17" class="edge"><title>2&#45;&#45;4</title>
<path fill="none" stroke="black" d="M122.49,-106.711C109.64,-108.744 40.6812,-119.65 27.8644,-121.677"/>
</g>
<!-- 2&#45;&#45;5 -->
<g id="edge18" class="edge"><title>2&#45;&#45;5</title>
<path fill="none" stroke="black" d="M125.183,-108.133C127.596,-114.822 136.23,-138.756 138.611,-145.356"/>
</g>
<!-- 2&#45;&#45;7 -->
<g id="edge19" class="edge"><title>2&#45;&#45;7</title>
<path fill="none" stroke="black" d="M125.256,-104.554C128.82,-95.2843 144.835,-53.6266 148.296,-44.6249"/>
</g>
<!-- 3&#45;&#45;5 -->
<g id="edge20" class="edge"><title>3&#45;&#45;5</title>
<path fill="none" stroke="black" d="M85.9813,-160.618C94.3429,-158.487 128.835,-149.698 137.327,-147.534"/>
</g>
<!-- 4&#45;&#45;6 -->
<g id="edge21" class="edge"><title>4&#45;&#45;6</title>
<path fill="none" stroke="black" d="M25.0145,-120.094C21.3686,-111.39 6.32943,-75.4863 2.6266,-66.6464"/>
</g>
</g>
</svg>
