<?xml version="1.0" encoding="UTF-8" standalone="no"?>
<!DOCTYPE svg PUBLIC "-//W3C//DTD SVG 1.1//EN"
 "http://www.w3.org/Graphics/SVG/1.1/DTD/svg11.dtd">
<!-- Generated by graphviz version 2.36.0 (20140111.2315)
 -->
<!-- Title: %3 Pages: 1 -->
<svg width="210pt" height="218pt"
 viewBox="0.00 0.00 210.03 218.44" xmlns="http://www.w3.org/2000/svg" xmlns:xlink="http://www.w3.org/1999/xlink">
<g id="graph0" class="graph" transform="scale(1 1) rotate(0) translate(4 214.437)">
<title>%3</title>
<!-- 0 -->
<g id="node1" class="node"><title>0</title>
<ellipse fill="black" stroke="black" cx="72.1947" cy="-140.268" rx="1.8" ry="1.8"/>
</g>
<!-- 1 -->
<g id="node2" class="node"><title>1</title>
<ellipse fill="black" stroke="black" cx="122.796" cy="-79.289" rx="1.8" ry="1.8"/>
</g>
<!-- 0&#45;&#45;1 -->
<g id="edge1" class="edge"><title>0&#45;&#45;1</title>
<path fill="none" stroke="black" d="M73.4456,-138.761C80.3855,-130.397 114.109,-89.7576 121.403,-80.9676"/>
</g>
<!-- 3 -->
<g id="node3" class="node"><title>3</title>
<ellipse fill="black" stroke="black" cx="1.8" cy="-136.968" rx="1.8" ry="1.8"/>
</g>
<!-- 0&#45;&#45;3 -->
<g id="edge2" class="edge"><title>0&#45;&#45;3</title>
<path fill="none" stroke="black" d="M70.1639,-140.173C59.8843,-139.691 13.6881,-137.525 3.70567,-137.057"/>
</g>
<!-- 4 -->
<g id="node4" class="node"><title>4</title>
<ellipse fill="black" stroke="black" cx="3.7824" cy="-189.748" rx="1.8" ry="1.8"/>
</g>
<!-- 0&#45;&#45;4 -->
<g id="edge3" class="edge"><title>0&#45;&#45;4</title>
<path fill="none" stroke="black" d="M70.5036,-141.491C61.121,-148.277 15.527,-181.254 5.6656,-188.386"/>
</g>
<!-- 5 -->
<g id="node5" class="node"><title>5</title>
<ellipse fill="black" stroke="black" cx="148.135" cy="-145.286" rx="1.8" ry="1.8"/>
</g>
<!-- 0&#45;&#45;5 -->
<g id="edge4" class="edge"><title>0&#45;&#45;5</title>
<path fill="none" stroke="black" d="M74.0719,-140.392C84.5784,-141.086 135.989,-144.483 146.323,-145.166"/>
</g>
<!-- 7 -->
<g id="node6" class="node"><title>7</title>
<ellipse fill="black" stroke="black" cx="53.214" cy="-208.637" rx="1.8" ry="1.8"/>
</g>
<!-- 0&#45;&#45;7 -->
<g id="edge5" class="edge"><title>0&#45;&#45;7</title>
<path fill="none" stroke="black" d="M71.6472,-142.24C68.8755,-152.224 56.4195,-197.091 53.7279,-206.786"/>
</g>
<!-- 1&#45;&#45;5 -->
<g id="edge7" class="edge"><title>1&#45;&#45;5</title>
<path fill="none" stroke="black" d="M123.527,-81.193C127.227,-90.8303 143.856,-134.14 147.449,-143.499"/>
</g>
<!-- 2 -->
<g id="node7" class="node"><title>2</title>
<ellipse fill="black" stroke="black" cx="200.233" cy="-92.8584" rx="1.8" ry="1.8"/>
</g>
<!-- 1&#45;&#45;2 -->
<g id="edge6" class="edge"><title>1&#45;&#45;2</title>
<path fill="none" stroke="black" d="M124.71,-79.6245C135.424,-81.5018 187.847,-90.6881 198.385,-92.5347"/>
</g>
<!-- 6 -->
<g id="node8" class="node"><title>6</title>
<ellipse fill="black" stroke="black" cx="173.768" cy="-25.7454" rx="1.8" ry="1.8"/>
</g>
<!-- 1&#45;&#45;6 -->
<g id="edge8" class="edge"><title>1&#45;&#45;6</title>
<path fill="none" stroke="black" d="M124.056,-77.9655C131.047,-70.622 165.017,-34.9375 172.365,-27.2193"/>
</g>
<!-- 8 -->
<g id="node9" class="node"><title>8</title>
<ellipse fill="black" stroke="black" cx="108.455" cy="-1.8" rx="1.8" ry="1.8"/>
</g>
<!-- 1&#45;&#45;8 -->
<g id="edge9" class="edge"><title>1&#45;&#45;8</title>
<path fill="none" stroke="black" d="M122.442,-77.3736C120.457,-66.6528 110.749,-14.1937 108.797,-3.64852"/>
</g>
<!-- 3&#45;&#45;4 -->
<g id="edge12" class="edge"><title>3&#45;&#45;4</title>
<path fill="none" stroke="black" d="M1.88518,-139.236C2.21127,-147.917 3.37803,-178.982 3.69974,-187.548"/>
</g>
<!-- 3&#45;&#45;7 -->
<g id="edge13" class="edge"><title>3&#45;&#45;7</title>
<path fill="none" stroke="black" d="M2.87386,-138.465C9.5649,-147.792 45.4723,-197.845 52.1461,-207.148"/>
</g>
<!-- 4&#45;&#45;7 -->
<g id="edge14" class="edge"><title>4&#45;&#45;7</title>
<path fill="none" stroke="black" d="M5.90641,-190.56C14.0374,-193.667 43.1311,-204.784 51.153,-207.849"/>
</g>
<!-- 2&#45;&#45;5 -->
<g id="edge10" class="edge"><title>2&#45;&#45;5</title>
<path fill="none" stroke="black" d="M198.945,-94.1543C191.8,-101.345 157.079,-136.285 149.569,-143.843"/>
</g>
<!-- 2&#45;&#45;6 -->
<g id="edge11" class="edge"><title>2&#45;&#45;6</title>
<path fill="none" stroke="black" d="M199.469,-90.9222C195.605,-81.1219 178.237,-37.0793 174.484,-27.5623"/>
</g>
<!-- 6&#45;&#45;8 -->
<g id="edge15" class="edge"><title>6&#45;&#45;8</title>
<path fill="none" stroke="black" d="M171.884,-25.0546C162.346,-21.5579 119.485,-5.84385 110.223,-2.44823"/>
</g>
</g>
</svg>
