<?xml version="1.0" encoding="UTF-8" standalone="no"?>
<!DOCTYPE svg PUBLIC "-//W3C//DTD SVG 1.1//EN"
 "http://www.w3.org/Graphics/SVG/1.1/DTD/svg11.dtd">
<!-- Generated by graphviz version 2.36.0 (20140111.2315)
 -->
<!-- Title: %3 Pages: 1 -->
<svg width="133pt" height="209pt"
 viewBox="0.00 0.00 132.83 208.98" xmlns="http://www.w3.org/2000/svg" xmlns:xlink="http://www.w3.org/1999/xlink">
<g id="graph0" class="graph" transform="scale(1 1) rotate(0) translate(4 204.981)">
<title>%3</title>
<!-- 0 -->
<g id="node1" class="node"><title>0</title>
<ellipse fill="black" stroke="black" cx="55.2612" cy="-63.085" rx="1.8" ry="1.8"/>
</g>
<!-- 1 -->
<g id="node2" class="node"><title>1</title>
<ellipse fill="black" stroke="black" cx="87.6108" cy="-81.5249" rx="1.8" ry="1.8"/>
</g>
<!-- 0&#45;&#45;1 -->
<g id="edge1" class="edge"><title>0&#45;&#45;1</title>
<path fill="none" stroke="black" d="M57.0005,-64.0764C62.6699,-67.3081 80.5641,-77.5081 86.0176,-80.6168"/>
</g>
<!-- 2 -->
<g id="node3" class="node"><title>2</title>
<ellipse fill="black" stroke="black" cx="10.2441" cy="-67.5295" rx="1.8" ry="1.8"/>
</g>
<!-- 0&#45;&#45;2 -->
<g id="edge2" class="edge"><title>0&#45;&#45;2</title>
<path fill="none" stroke="black" d="M53.3269,-63.2759C45.922,-64.007 19.4265,-66.6229 12.1211,-67.3442"/>
</g>
<!-- 3 -->
<g id="node4" class="node"><title>3</title>
<ellipse fill="black" stroke="black" cx="38.015" cy="-135.715" rx="1.8" ry="1.8"/>
</g>
<!-- 0&#45;&#45;3 -->
<g id="edge3" class="edge"><title>0&#45;&#45;3</title>
<path fill="none" stroke="black" d="M54.8349,-64.8803C52.4696,-74.8414 40.9757,-123.246 38.4898,-133.715"/>
</g>
<!-- 4 -->
<g id="node5" class="node"><title>4</title>
<ellipse fill="black" stroke="black" cx="76.2651" cy="-139.619" rx="1.8" ry="1.8"/>
</g>
<!-- 0&#45;&#45;4 -->
<g id="edge4" class="edge"><title>0&#45;&#45;4</title>
<path fill="none" stroke="black" d="M55.7804,-64.9768C58.6863,-75.5654 72.9057,-127.378 75.7641,-137.793"/>
</g>
<!-- 5 -->
<g id="node6" class="node"><title>5</title>
<ellipse fill="black" stroke="black" cx="1.8" cy="-121.406" rx="1.8" ry="1.8"/>
</g>
<!-- 0&#45;&#45;5 -->
<g id="edge5" class="edge"><title>0&#45;&#45;5</title>
<path fill="none" stroke="black" d="M53.9397,-64.5266C46.6075,-72.5253 10.9779,-111.394 3.27164,-119.801"/>
</g>
<!-- 6 -->
<g id="node7" class="node"><title>6</title>
<ellipse fill="black" stroke="black" cx="55.8524" cy="-1.8" rx="1.8" ry="1.8"/>
</g>
<!-- 0&#45;&#45;6 -->
<g id="edge6" class="edge"><title>0&#45;&#45;6</title>
<path fill="none" stroke="black" d="M55.2809,-61.0459C55.3706,-51.7413 55.7409,-13.3596 55.832,-3.90957"/>
</g>
<!-- 8 -->
<g id="node8" class="node"><title>8</title>
<ellipse fill="black" stroke="black" cx="123.032" cy="-19.8316" rx="1.8" ry="1.8"/>
</g>
<!-- 0&#45;&#45;8 -->
<g id="edge7" class="edge"><title>0&#45;&#45;8</title>
<path fill="none" stroke="black" d="M56.9364,-62.0158C66.2312,-56.0836 111.398,-27.2571 121.167,-21.0223"/>
</g>
<!-- 1&#45;&#45;2 -->
<g id="edge8" class="edge"><title>1&#45;&#45;2</title>
<path fill="none" stroke="black" d="M85.6984,-81.179C74.9945,-79.2427 22.6182,-69.7679 12.0897,-67.8633"/>
</g>
<!-- 1&#45;&#45;3 -->
<g id="edge9" class="edge"><title>1&#45;&#45;3</title>
<path fill="none" stroke="black" d="M86.3848,-82.8644C79.5828,-90.2965 46.5293,-126.412 39.3803,-134.223"/>
</g>
<!-- 1&#45;&#45;4 -->
<g id="edge10" class="edge"><title>1&#45;&#45;4</title>
<path fill="none" stroke="black" d="M87.2333,-83.4578C85.5107,-92.2779 78.4052,-128.661 76.6557,-137.619"/>
</g>
<!-- 1&#45;&#45;5 -->
<g id="edge11" class="edge"><title>1&#45;&#45;5</title>
<path fill="none" stroke="black" d="M85.8185,-82.3579C74.6511,-87.548 14.7211,-115.401 3.58242,-120.578"/>
</g>
<!-- 1&#45;&#45;6 -->
<g id="edge12" class="edge"><title>1&#45;&#45;6</title>
<path fill="none" stroke="black" d="M86.8258,-79.5542C82.4319,-68.5241 60.9319,-14.5513 56.61,-3.70185"/>
</g>
<!-- 1&#45;&#45;8 -->
<g id="edge13" class="edge"><title>1&#45;&#45;8</title>
<path fill="none" stroke="black" d="M88.6327,-79.7451C93.8052,-70.7362 117.05,-30.2503 122.073,-21.5017"/>
</g>
<!-- 2&#45;&#45;3 -->
<g id="edge14" class="edge"><title>2&#45;&#45;3</title>
<path fill="none" stroke="black" d="M10.9306,-69.215C14.7393,-78.5665 33.2475,-124.009 37.2506,-133.838"/>
</g>
<!-- 2&#45;&#45;4 -->
<g id="edge15" class="edge"><title>2&#45;&#45;4</title>
<path fill="none" stroke="black" d="M11.623,-69.0352C20.215,-78.4169 66.3239,-128.764 74.8938,-138.121"/>
</g>
<!-- 2&#45;&#45;5 -->
<g id="edge16" class="edge"><title>2&#45;&#45;5</title>
<path fill="none" stroke="black" d="M9.96313,-69.3221C8.6811,-77.5019 3.39273,-111.244 2.09066,-119.552"/>
</g>
<!-- 2&#45;&#45;6 -->
<g id="edge17" class="edge"><title>2&#45;&#45;6</title>
<path fill="none" stroke="black" d="M11.3715,-65.9047C17.6266,-56.89 48.0226,-13.0841 54.5969,-3.60935"/>
</g>
<!-- 3&#45;&#45;4 -->
<g id="edge18" class="edge"><title>3&#45;&#45;4</title>
<path fill="none" stroke="black" d="M40.0715,-135.925C46.7751,-136.609 67.9331,-138.768 74.3813,-139.426"/>
</g>
<!-- 3&#45;&#45;5 -->
<g id="edge19" class="edge"><title>3&#45;&#45;5</title>
<path fill="none" stroke="black" d="M36.0679,-134.945C29.7211,-132.438 9.68871,-124.523 3.58356,-122.111"/>
</g>
<!-- 7 -->
<g id="node9" class="node"><title>7</title>
<ellipse fill="black" stroke="black" cx="21.4707" cy="-199.181" rx="1.8" ry="1.8"/>
</g>
<!-- 3&#45;&#45;7 -->
<g id="edge20" class="edge"><title>3&#45;&#45;7</title>
<path fill="none" stroke="black" d="M37.5377,-137.546C35.1642,-146.651 24.643,-187.011 22.0498,-196.959"/>
</g>
<!-- 4&#45;&#45;5 -->
<g id="edge21" class="edge"><title>4&#45;&#45;5</title>
<path fill="none" stroke="black" d="M74.4244,-139.168C64.122,-136.649 13.71,-124.319 3.57638,-121.841"/>
</g>
<!-- 4&#45;&#45;7 -->
<g id="edge22" class="edge"><title>4&#45;&#45;7</title>
<path fill="none" stroke="black" d="M74.9106,-141.091C67.3957,-149.26 30.8775,-188.955 22.979,-197.541"/>
</g>
<!-- 5&#45;&#45;7 -->
<g id="edge23" class="edge"><title>5&#45;&#45;7</title>
<path fill="none" stroke="black" d="M2.28624,-123.329C5.00772,-134.089 18.3245,-186.741 21.0014,-197.325"/>
</g>
<!-- 6&#45;&#45;8 -->
<g id="edge24" class="edge"><title>6&#45;&#45;8</title>
<path fill="none" stroke="black" d="M57.7905,-2.32021C67.6006,-4.95331 111.687,-16.7865 121.213,-19.3435"/>
</g>
</g>
</svg>
