<?xml version="1.0" encoding="UTF-8" standalone="no"?>
<!DOCTYPE svg PUBLIC "-//W3C//DTD SVG 1.1//EN"
 "http://www.w3.org/Graphics/SVG/1.1/DTD/svg11.dtd">
<!-- Generated by graphviz version 2.36.0 (20140111.2315)
 -->
<!-- Title: %3 Pages: 1 -->
<svg width="147pt" height="152pt"
 viewBox="0.00 0.00 147.44 151.94" xmlns="http://www.w3.org/2000/svg" xmlns:xlink="http://www.w3.org/1999/xlink">
<g id="graph0" class="graph" transform="scale(1 1) rotate(0) translate(4 147.944)">
<title>%3</title>
<!-- 0 -->
<g id="node1" class="node"><title>0</title>
<ellipse fill="black" stroke="black" cx="85.6709" cy="-60.6217" rx="1.8" ry="1.8"/>
</g>
<!-- 1 -->
<g id="node2" class="node"><title>1</title>
<ellipse fill="black" stroke="black" cx="67.5674" cy="-103.549" rx="1.8" ry="1.8"/>
</g>
<!-- 0&#45;&#45;1 -->
<g id="edge1" class="edge"><title>0&#45;&#45;1</title>
<path fill="none" stroke="black" d="M84.893,-62.4662C81.9152,-69.5273 71.2601,-94.7926 68.3222,-101.759"/>
</g>
<!-- 2 -->
<g id="node3" class="node"><title>2</title>
<ellipse fill="black" stroke="black" cx="60.9225" cy="-39.3027" rx="1.8" ry="1.8"/>
</g>
<!-- 0&#45;&#45;2 -->
<g id="edge2" class="edge"><title>0&#45;&#45;2</title>
<path fill="none" stroke="black" d="M84.0471,-59.2229C79.5736,-55.3693 67.1037,-44.6273 62.5848,-40.7346"/>
</g>
<!-- 3 -->
<g id="node4" class="node"><title>3</title>
<ellipse fill="black" stroke="black" cx="27.9823" cy="-100.738" rx="1.8" ry="1.8"/>
</g>
<!-- 0&#45;&#45;3 -->
<g id="edge3" class="edge"><title>0&#45;&#45;3</title>
<path fill="none" stroke="black" d="M83.7515,-61.9565C74.8365,-68.156 37.5645,-94.075 29.5179,-99.6706"/>
</g>
<!-- 4 -->
<g id="node5" class="node"><title>4</title>
<ellipse fill="black" stroke="black" cx="137.639" cy="-94.303" rx="1.8" ry="1.8"/>
</g>
<!-- 0&#45;&#45;4 -->
<g id="edge4" class="edge"><title>0&#45;&#45;4</title>
<path fill="none" stroke="black" d="M87.4,-61.7423C95.2902,-66.856 127.837,-87.95 135.851,-93.1436"/>
</g>
<!-- 5 -->
<g id="node6" class="node"><title>5</title>
<ellipse fill="black" stroke="black" cx="85.0702" cy="-142.144" rx="1.8" ry="1.8"/>
</g>
<!-- 0&#45;&#45;5 -->
<g id="edge5" class="edge"><title>0&#45;&#45;5</title>
<path fill="none" stroke="black" d="M85.6561,-62.6369C85.573,-73.9157 85.1663,-129.105 85.0846,-140.199"/>
</g>
<!-- 6 -->
<g id="node7" class="node"><title>6</title>
<ellipse fill="black" stroke="black" cx="1.8" cy="-46.6472" rx="1.8" ry="1.8"/>
</g>
<!-- 0&#45;&#45;6 -->
<g id="edge6" class="edge"><title>0&#45;&#45;6</title>
<path fill="none" stroke="black" d="M83.5977,-60.2763C71.994,-58.3429 15.2144,-48.8823 3.80076,-46.9806"/>
</g>
<!-- 7 -->
<g id="node8" class="node"><title>7</title>
<ellipse fill="black" stroke="black" cx="137.08" cy="-69.9374" rx="1.8" ry="1.8"/>
</g>
<!-- 0&#45;&#45;7 -->
<g id="edge7" class="edge"><title>0&#45;&#45;7</title>
<path fill="none" stroke="black" d="M87.8799,-61.022C96.3363,-62.5543 126.594,-68.0372 134.937,-69.549"/>
</g>
<!-- 8 -->
<g id="node9" class="node"><title>8</title>
<ellipse fill="black" stroke="black" cx="128.992" cy="-1.8" rx="1.8" ry="1.8"/>
</g>
<!-- 0&#45;&#45;8 -->
<g id="edge8" class="edge"><title>0&#45;&#45;8</title>
<path fill="none" stroke="black" d="M86.7418,-59.1677C92.6832,-51.1003 121.555,-11.8982 127.799,-3.4192"/>
</g>
<!-- 1&#45;&#45;2 -->
<g id="edge9" class="edge"><title>1&#45;&#45;2</title>
<path fill="none" stroke="black" d="M67.3757,-101.695C66.4224,-92.4781 62.1967,-51.6217 61.1551,-41.5516"/>
</g>
<!-- 1&#45;&#45;3 -->
<g id="edge10" class="edge"><title>1&#45;&#45;3</title>
<path fill="none" stroke="black" d="M65.4391,-103.398C58.5016,-102.905 36.6051,-101.351 29.9318,-100.877"/>
</g>
<!-- 1&#45;&#45;4 -->
<g id="edge11" class="edge"><title>1&#45;&#45;4</title>
<path fill="none" stroke="black" d="M69.5889,-103.282C79.8213,-101.932 125.806,-95.8644 135.743,-94.5533"/>
</g>
<!-- 1&#45;&#45;5 -->
<g id="edge12" class="edge"><title>1&#45;&#45;5</title>
<path fill="none" stroke="black" d="M68.3194,-105.207C71.1461,-111.44 81.1279,-133.451 84.1782,-140.177"/>
</g>
<!-- 1&#45;&#45;6 -->
<g id="edge13" class="edge"><title>1&#45;&#45;6</title>
<path fill="none" stroke="black" d="M65.9416,-102.142C56.9217,-94.3382 13.0906,-56.4157 3.61039,-48.2136"/>
</g>
<!-- 1&#45;&#45;7 -->
<g id="edge14" class="edge"><title>1&#45;&#45;7</title>
<path fill="none" stroke="black" d="M69.2857,-102.718C78.8193,-98.1081 125.147,-75.7076 135.167,-70.8626"/>
</g>
<!-- 2&#45;&#45;3 -->
<g id="edge15" class="edge"><title>2&#45;&#45;3</title>
<path fill="none" stroke="black" d="M59.9722,-41.0751C55.1621,-50.0464 33.5452,-90.3633 28.874,-99.0753"/>
</g>
<!-- 2&#45;&#45;4 -->
<g id="edge16" class="edge"><title>2&#45;&#45;4</title>
<path fill="none" stroke="black" d="M62.5249,-40.4514C72.5089,-47.6092 126.088,-86.0212 136.046,-93.1606"/>
</g>
<!-- 2&#45;&#45;5 -->
<g id="edge17" class="edge"><title>2&#45;&#45;5</title>
<path fill="none" stroke="black" d="M61.3417,-41.0877C64.2727,-53.5704 81.6709,-127.667 84.6396,-140.31"/>
</g>
<!-- 2&#45;&#45;6 -->
<g id="edge18" class="edge"><title>2&#45;&#45;6</title>
<path fill="none" stroke="black" d="M58.9554,-39.547C49.9791,-40.6621 12.9517,-45.2619 3.83513,-46.3944"/>
</g>
<!-- 2&#45;&#45;8 -->
<g id="edge19" class="edge"><title>2&#45;&#45;8</title>
<path fill="none" stroke="black" d="M62.6052,-38.3756C71.9408,-33.2322 117.306,-8.23824 127.118,-2.83235"/>
</g>
<!-- 3&#45;&#45;5 -->
<g id="edge20" class="edge"><title>3&#45;&#45;5</title>
<path fill="none" stroke="black" d="M29.8817,-102.116C38.7039,-108.515 75.5878,-135.267 83.5506,-141.042"/>
</g>
<!-- 3&#45;&#45;6 -->
<g id="edge21" class="edge"><title>3&#45;&#45;6</title>
<path fill="none" stroke="black" d="M27.1111,-98.9387C23.136,-90.7263 6.73851,-56.8499 2.70125,-48.5092"/>
</g>
<!-- 3&#45;&#45;7 -->
<g id="edge22" class="edge"><title>3&#45;&#45;7</title>
<path fill="none" stroke="black" d="M29.8759,-100.204C43.118,-96.4652 121.722,-74.2734 135.135,-70.4867"/>
</g>
<!-- 4&#45;&#45;5 -->
<g id="edge23" class="edge"><title>4&#45;&#45;5</title>
<path fill="none" stroke="black" d="M135.89,-95.8948C127.766,-103.288 93.8021,-134.198 86.4696,-140.871"/>
</g>
<!-- 4&#45;&#45;8 -->
<g id="edge24" class="edge"><title>4&#45;&#45;8</title>
<path fill="none" stroke="black" d="M137.459,-92.371C136.333,-80.3326 130.294,-15.7288 129.171,-3.72143"/>
</g>
</g>
</svg>
