<?xml version="1.0" encoding="UTF-8" standalone="no"?>
<!DOCTYPE svg PUBLIC "-//W3C//DTD SVG 1.1//EN"
 "http://www.w3.org/Graphics/SVG/1.1/DTD/svg11.dtd">
<!-- Generated by graphviz version 2.36.0 (20140111.2315)
 -->
<!-- Title: %3 Pages: 1 -->
<svg width="162pt" height="187pt"
 viewBox="0.00 0.00 161.73 187.03" xmlns="http://www.w3.org/2000/svg" xmlns:xlink="http://www.w3.org/1999/xlink">
<g id="graph0" class="graph" transform="scale(1 1) rotate(0) translate(4 183.032)">
<title>%3</title>
<!-- 0 -->
<g id="node1" class="node"><title>0</title>
<ellipse fill="black" stroke="black" cx="83.5376" cy="-117.755" rx="1.8" ry="1.8"/>
</g>
<!-- 1 -->
<g id="node2" class="node"><title>1</title>
<ellipse fill="black" stroke="black" cx="42.4142" cy="-93.7165" rx="1.8" ry="1.8"/>
</g>
<!-- 0&#45;&#45;1 -->
<g id="edge1" class="edge"><title>0&#45;&#45;1</title>
<path fill="none" stroke="black" d="M81.7705,-116.722C75.0062,-112.768 50.8024,-98.6198 44.1289,-94.7188"/>
</g>
<!-- 2 -->
<g id="node3" class="node"><title>2</title>
<ellipse fill="black" stroke="black" cx="79.3759" cy="-54.5828" rx="1.8" ry="1.8"/>
</g>
<!-- 0&#45;&#45;2 -->
<g id="edge2" class="edge"><title>0&#45;&#45;2</title>
<path fill="none" stroke="black" d="M83.4175,-115.933C82.8204,-106.87 80.1739,-66.6959 79.5216,-56.7941"/>
</g>
<!-- 3 -->
<g id="node4" class="node"><title>3</title>
<ellipse fill="black" stroke="black" cx="11.7836" cy="-123.498" rx="1.8" ry="1.8"/>
</g>
<!-- 0&#45;&#45;3 -->
<g id="edge3" class="edge"><title>0&#45;&#45;3</title>
<path fill="none" stroke="black" d="M81.4675,-117.921C70.9895,-118.76 23.9013,-122.529 13.7261,-123.343"/>
</g>
<!-- 4 -->
<g id="node5" class="node"><title>4</title>
<ellipse fill="black" stroke="black" cx="77.4633" cy="-173.388" rx="1.8" ry="1.8"/>
</g>
<!-- 0&#45;&#45;4 -->
<g id="edge4" class="edge"><title>0&#45;&#45;4</title>
<path fill="none" stroke="black" d="M83.3355,-119.606C82.4132,-128.053 78.6091,-162.894 77.6724,-171.473"/>
</g>
<!-- 5 -->
<g id="node6" class="node"><title>5</title>
<ellipse fill="black" stroke="black" cx="1.8" cy="-60.8086" rx="1.8" ry="1.8"/>
</g>
<!-- 0&#45;&#45;5 -->
<g id="edge5" class="edge"><title>0&#45;&#45;5</title>
<path fill="none" stroke="black" d="M81.8304,-116.566C71.193,-109.155 14.1078,-69.3834 3.49781,-61.9915"/>
</g>
<!-- 6 -->
<g id="node7" class="node"><title>6</title>
<ellipse fill="black" stroke="black" cx="25.7489" cy="-177.232" rx="1.8" ry="1.8"/>
</g>
<!-- 0&#45;&#45;6 -->
<g id="edge6" class="edge"><title>0&#45;&#45;6</title>
<path fill="none" stroke="black" d="M82.1091,-119.225C74.1834,-127.382 35.6697,-167.021 27.3397,-175.594"/>
</g>
<!-- 7 -->
<g id="node8" class="node"><title>7</title>
<ellipse fill="black" stroke="black" cx="151.926" cy="-80.2785" rx="1.8" ry="1.8"/>
</g>
<!-- 0&#45;&#45;7 -->
<g id="edge7" class="edge"><title>0&#45;&#45;7</title>
<path fill="none" stroke="black" d="M85.2281,-116.829C94.6075,-111.689 140.186,-86.7123 150.044,-81.3101"/>
</g>
<!-- 1&#45;&#45;2 -->
<g id="edge8" class="edge"><title>1&#45;&#45;2</title>
<path fill="none" stroke="black" d="M44.0024,-92.035C50.0822,-85.5979 71.8366,-62.5651 77.8348,-56.2145"/>
</g>
<!-- 1&#45;&#45;3 -->
<g id="edge9" class="edge"><title>1&#45;&#45;3</title>
<path fill="none" stroke="black" d="M41.098,-94.9962C36.1512,-99.806 18.6828,-116.79 13.3447,-121.981"/>
</g>
<!-- 1&#45;&#45;4 -->
<g id="edge10" class="edge"><title>1&#45;&#45;4</title>
<path fill="none" stroke="black" d="M43.1463,-95.3806C47.7076,-105.749 72.1857,-161.391 76.7353,-171.733"/>
</g>
<!-- 1&#45;&#45;5 -->
<g id="edge11" class="edge"><title>1&#45;&#45;5</title>
<path fill="none" stroke="black" d="M40.6691,-92.3025C33.9884,-86.8895 10.0843,-67.5211 3.49343,-62.1807"/>
</g>
<!-- 1&#45;&#45;6 -->
<g id="edge12" class="edge"><title>1&#45;&#45;6</title>
<path fill="none" stroke="black" d="M42.0023,-95.781C39.6966,-107.335 28.4144,-163.874 26.1465,-175.239"/>
</g>
<!-- 8 -->
<g id="node9" class="node"><title>8</title>
<ellipse fill="black" stroke="black" cx="51.3595" cy="-1.8" rx="1.8" ry="1.8"/>
</g>
<!-- 1&#45;&#45;8 -->
<g id="edge13" class="edge"><title>1&#45;&#45;8</title>
<path fill="none" stroke="black" d="M42.601,-91.7967C43.7652,-79.8347 50.0126,-15.6405 51.1737,-3.70924"/>
</g>
<!-- 2&#45;&#45;3 -->
<g id="edge14" class="edge"><title>2&#45;&#45;3</title>
<path fill="none" stroke="black" d="M77.9642,-56.0222C69.1677,-64.9909 21.9615,-113.121 13.1876,-122.067"/>
</g>
<!-- 2&#45;&#45;5 -->
<g id="edge15" class="edge"><title>2&#45;&#45;5</title>
<path fill="none" stroke="black" d="M77.4583,-54.7367C66.7255,-55.598 14.2076,-59.8128 3.65059,-60.6601"/>
</g>
<!-- 2&#45;&#45;7 -->
<g id="edge16" class="edge"><title>2&#45;&#45;7</title>
<path fill="none" stroke="black" d="M81.1693,-55.2179C91.2068,-58.773 140.322,-76.1687 150.196,-79.6655"/>
</g>
<!-- 2&#45;&#45;8 -->
<g id="edge17" class="edge"><title>2&#45;&#45;8</title>
<path fill="none" stroke="black" d="M78.4438,-52.8266C74.1902,-44.8128 56.644,-11.7559 52.3239,-3.6169"/>
</g>
<!-- 3&#45;&#45;4 -->
<g id="edge18" class="edge"><title>3&#45;&#45;4</title>
<path fill="none" stroke="black" d="M13.4072,-124.732C22.4151,-131.574 66.1878,-164.823 75.6554,-172.014"/>
</g>
<!-- 3&#45;&#45;5 -->
<g id="edge19" class="edge"><title>3&#45;&#45;5</title>
<path fill="none" stroke="black" d="M11.4956,-121.69C10.0633,-112.696 3.71433,-72.8292 2.14947,-63.003"/>
</g>
<!-- 4&#45;&#45;6 -->
<g id="edge20" class="edge"><title>4&#45;&#45;6</title>
<path fill="none" stroke="black" d="M75.2412,-173.553C66.7347,-174.185 36.2975,-176.448 27.9052,-177.071"/>
</g>
</g>
</svg>
