<?xml version="1.0" encoding="UTF-8" standalone="no"?>
<!DOCTYPE svg PUBLIC "-//W3C//DTD SVG 1.1//EN"
 "http://www.w3.org/Graphics/SVG/1.1/DTD/svg11.dtd">
<!-- Generated by graphviz version 2.36.0 (20140111.2315)
 -->
<!-- Title: %3 Pages: 1 -->
<svg width="146pt" height="163pt"
 viewBox="0.00 0.00 146.16 162.66" xmlns="http://www.w3.org/2000/svg" xmlns:xlink="http://www.w3.org/1999/xlink">
<g id="graph0" class="graph" transform="scale(1 1) rotate(0) translate(4 158.658)">
<title>%3</title>
<!-- 0 -->
<g id="node1" class="node"><title>0</title>
<ellipse fill="black" stroke="black" cx="67.6308" cy="-60.3225" rx="1.8" ry="1.8"/>
</g>
<!-- 1 -->
<g id="node2" class="node"><title>1</title>
<ellipse fill="black" stroke="black" cx="87.5022" cy="-136.72" rx="1.8" ry="1.8"/>
</g>
<!-- 0&#45;&#45;1 -->
<g id="edge1" class="edge"><title>0&#45;&#45;1</title>
<path fill="none" stroke="black" d="M68.122,-62.211C70.8712,-72.7807 84.3239,-124.501 87.0281,-134.897"/>
</g>
<!-- 2 -->
<g id="node3" class="node"><title>2</title>
<ellipse fill="black" stroke="black" cx="78.8115" cy="-102.954" rx="1.8" ry="1.8"/>
</g>
<!-- 0&#45;&#45;2 -->
<g id="edge2" class="edge"><title>0&#45;&#45;2</title>
<path fill="none" stroke="black" d="M68.1112,-62.1544C69.9503,-69.1668 76.5309,-94.2582 78.3453,-101.177"/>
</g>
<!-- 3 -->
<g id="node4" class="node"><title>3</title>
<ellipse fill="black" stroke="black" cx="30.6229" cy="-78.2278" rx="1.8" ry="1.8"/>
</g>
<!-- 0&#45;&#45;3 -->
<g id="edge3" class="edge"><title>0&#45;&#45;3</title>
<path fill="none" stroke="black" d="M65.6411,-61.2852C59.1552,-64.4232 38.6843,-74.3275 32.4455,-77.346"/>
</g>
<!-- 4 -->
<g id="node5" class="node"><title>4</title>
<ellipse fill="black" stroke="black" cx="33.318" cy="-152.858" rx="1.8" ry="1.8"/>
</g>
<!-- 0&#45;&#45;4 -->
<g id="edge4" class="edge"><title>0&#45;&#45;4</title>
<path fill="none" stroke="black" d="M66.9141,-62.2553C62.4486,-74.2979 38.4847,-138.925 34.0308,-150.936"/>
</g>
<!-- 5 -->
<g id="node6" class="node"><title>5</title>
<ellipse fill="black" stroke="black" cx="132.842" cy="-100.868" rx="1.8" ry="1.8"/>
</g>
<!-- 0&#45;&#45;5 -->
<g id="edge5" class="edge"><title>0&#45;&#45;5</title>
<path fill="none" stroke="black" d="M69.2427,-61.3248C78.1864,-66.8856 121.647,-93.9077 131.047,-99.7522"/>
</g>
<!-- 6 -->
<g id="node7" class="node"><title>6</title>
<ellipse fill="black" stroke="black" cx="1.8" cy="-117.034" rx="1.8" ry="1.8"/>
</g>
<!-- 0&#45;&#45;6 -->
<g id="edge6" class="edge"><title>0&#45;&#45;6</title>
<path fill="none" stroke="black" d="M66.0035,-61.7244C56.9749,-69.5023 13.1014,-107.298 3.61214,-115.473"/>
</g>
<!-- 7 -->
<g id="node8" class="node"><title>7</title>
<ellipse fill="black" stroke="black" cx="136.364" cy="-53.0143" rx="1.8" ry="1.8"/>
</g>
<!-- 0&#45;&#45;7 -->
<g id="edge7" class="edge"><title>0&#45;&#45;7</title>
<path fill="none" stroke="black" d="M69.6137,-60.1117C79.6506,-59.0445 124.757,-54.2485 134.503,-53.2122"/>
</g>
<!-- 8 -->
<g id="node9" class="node"><title>8</title>
<ellipse fill="black" stroke="black" cx="18.2533" cy="-1.8" rx="1.8" ry="1.8"/>
</g>
<!-- 0&#45;&#45;8 -->
<g id="edge8" class="edge"><title>0&#45;&#45;8</title>
<path fill="none" stroke="black" d="M66.4102,-58.8759C59.6381,-50.8496 26.7301,-11.8468 19.6125,-3.41096"/>
</g>
<!-- 1&#45;&#45;2 -->
<g id="edge9" class="edge"><title>1&#45;&#45;2</title>
<path fill="none" stroke="black" d="M87.0349,-134.904C85.54,-129.096 80.8815,-110.997 79.3243,-104.946"/>
</g>
<!-- 1&#45;&#45;3 -->
<g id="edge10" class="edge"><title>1&#45;&#45;3</title>
<path fill="none" stroke="black" d="M86.0961,-135.274C78.2952,-127.252 40.3876,-88.2694 32.1887,-79.838"/>
</g>
<!-- 1&#45;&#45;4 -->
<g id="edge11" class="edge"><title>1&#45;&#45;4</title>
<path fill="none" stroke="black" d="M85.6994,-137.257C77.4728,-139.707 43.5383,-149.814 35.1832,-152.303"/>
</g>
<!-- 1&#45;&#45;5 -->
<g id="edge12" class="edge"><title>1&#45;&#45;5</title>
<path fill="none" stroke="black" d="M89.0107,-135.527C95.8945,-130.084 124.29,-107.631 131.281,-102.102"/>
</g>
<!-- 1&#45;&#45;6 -->
<g id="edge13" class="edge"><title>1&#45;&#45;6</title>
<path fill="none" stroke="black" d="M85.7121,-136.309C74.5588,-133.747 14.7048,-119.998 3.58016,-117.443"/>
</g>
<!-- 1&#45;&#45;7 -->
<g id="edge14" class="edge"><title>1&#45;&#45;7</title>
<path fill="none" stroke="black" d="M88.5227,-134.972C94.8816,-124.078 129.007,-65.6184 135.349,-54.753"/>
</g>
<!-- 2&#45;&#45;3 -->
<g id="edge15" class="edge"><title>2&#45;&#45;3</title>
<path fill="none" stroke="black" d="M77.2082,-102.131C69.8919,-98.3773 39.7123,-82.8917 32.2817,-79.079"/>
</g>
<!-- 2&#45;&#45;4 -->
<g id="edge16" class="edge"><title>2&#45;&#45;4</title>
<path fill="none" stroke="black" d="M77.2978,-104.614C70.3907,-112.191 41.899,-143.445 34.884,-151.14"/>
</g>
<!-- 2&#45;&#45;5 -->
<g id="edge17" class="edge"><title>2&#45;&#45;5</title>
<path fill="none" stroke="black" d="M81.1331,-102.864C90.1014,-102.518 122.401,-101.271 130.823,-100.946"/>
</g>
<!-- 2&#45;&#45;6 -->
<g id="edge18" class="edge"><title>2&#45;&#45;6</title>
<path fill="none" stroke="black" d="M76.9078,-103.302C66.2531,-105.25 14.1173,-114.782 3.63712,-116.698"/>
</g>
<!-- 2&#45;&#45;7 -->
<g id="edge19" class="edge"><title>2&#45;&#45;7</title>
<path fill="none" stroke="black" d="M80.2341,-101.72C88.1274,-94.8704 126.484,-61.5877 134.78,-54.389"/>
</g>
<!-- 3&#45;&#45;4 -->
<g id="edge20" class="edge"><title>3&#45;&#45;4</title>
<path fill="none" stroke="black" d="M30.6896,-80.0726C31.0592,-90.3081 32.8554,-140.046 33.2438,-150.804"/>
</g>
<!-- 3&#45;&#45;5 -->
<g id="edge21" class="edge"><title>3&#45;&#45;5</title>
<path fill="none" stroke="black" d="M32.3971,-78.6208C44.8043,-81.3689 118.452,-97.6812 131.019,-100.465"/>
</g>
<!-- 3&#45;&#45;6 -->
<g id="edge22" class="edge"><title>3&#45;&#45;6</title>
<path fill="none" stroke="black" d="M29.3845,-79.8953C24.6434,-86.2785 7.67921,-109.119 3.00179,-115.416"/>
</g>
<!-- 3&#45;&#45;8 -->
<g id="edge23" class="edge"><title>3&#45;&#45;8</title>
<path fill="none" stroke="black" d="M30.3172,-76.3386C28.6058,-65.7647 20.2317,-14.024 18.5484,-3.6232"/>
</g>
<!-- 4&#45;&#45;6 -->
<g id="edge24" class="edge"><title>4&#45;&#45;6</title>
<path fill="none" stroke="black" d="M31.9637,-151.319C26.7794,-145.426 8.22894,-124.341 3.11416,-118.528"/>
</g>
<!-- 5&#45;&#45;7 -->
<g id="edge25" class="edge"><title>5&#45;&#45;7</title>
<path fill="none" stroke="black" d="M132.993,-98.8121C133.573,-90.9406 135.646,-62.7754 136.217,-55.0096"/>
</g>
</g>
</svg>
