<?xml version="1.0" encoding="UTF-8" standalone="no"?>
<!DOCTYPE svg PUBLIC "-//W3C//DTD SVG 1.1//EN"
 "http://www.w3.org/Graphics/SVG/1.1/DTD/svg11.dtd">
<!-- Generated by graphviz version 2.36.0 (20140111.2315)
 -->
<!-- Title: %3 Pages: 1 -->
<svg width="150pt" height="163pt"
 viewBox="0.00 0.00 149.56 163.25" xmlns="http://www.w3.org/2000/svg" xmlns:xlink="http://www.w3.org/1999/xlink">
<g id="graph0" class="graph" transform="scale(1 1) rotate(0) translate(4 159.249)">
<title>%3</title>
<!-- 0 -->
<g id="node1" class="node"><title>0</title>
<ellipse fill="black" stroke="black" cx="1.8" cy="-128.541" rx="1.8" ry="1.8"/>
</g>
<!-- 4 -->
<g id="node2" class="node"><title>4</title>
<ellipse fill="black" stroke="black" cx="8.68363" cy="-44.0578" rx="1.8" ry="1.8"/>
</g>
<!-- 0&#45;&#45;4 -->
<g id="edge1" class="edge"><title>0&#45;&#45;4</title>
<path fill="none" stroke="black" d="M1.97016,-126.452C2.92252,-114.764 7.58265,-57.5701 8.51942,-46.0731"/>
</g>
<!-- 5 -->
<g id="node3" class="node"><title>5</title>
<ellipse fill="black" stroke="black" cx="59.6256" cy="-152.419" rx="1.8" ry="1.8"/>
</g>
<!-- 0&#45;&#45;5 -->
<g id="edge2" class="edge"><title>0&#45;&#45;5</title>
<path fill="none" stroke="black" d="M3.72396,-129.335C12.5034,-132.96 48.7185,-147.915 57.6351,-151.597"/>
</g>
<!-- 6 -->
<g id="node4" class="node"><title>6</title>
<ellipse fill="black" stroke="black" cx="93.3452" cy="-153.449" rx="1.8" ry="1.8"/>
</g>
<!-- 0&#45;&#45;6 -->
<g id="edge3" class="edge"><title>0&#45;&#45;6</title>
<path fill="none" stroke="black" d="M3.71205,-129.061C15.6258,-132.303 79.5606,-149.698 91.4436,-152.932"/>
</g>
<!-- 7 -->
<g id="node6" class="node"><title>7</title>
<ellipse fill="black" stroke="black" cx="106.99" cy="-27.168" rx="1.8" ry="1.8"/>
</g>
<!-- 4&#45;&#45;7 -->
<g id="edge12" class="edge"><title>4&#45;&#45;7</title>
<path fill="none" stroke="black" d="M10.7369,-43.705C23.5306,-41.507 92.1877,-29.7112 104.948,-27.5188"/>
</g>
<!-- 1 -->
<g id="node5" class="node"><title>1</title>
<ellipse fill="black" stroke="black" cx="139.757" cy="-106.429" rx="1.8" ry="1.8"/>
</g>
<!-- 1&#45;&#45;5 -->
<g id="edge4" class="edge"><title>1&#45;&#45;5</title>
<path fill="none" stroke="black" d="M138.083,-107.39C127.655,-113.375 71.6916,-145.494 61.2901,-151.463"/>
</g>
<!-- 1&#45;&#45;6 -->
<g id="edge5" class="edge"><title>1&#45;&#45;6</title>
<path fill="none" stroke="black" d="M138.213,-107.993C131.166,-115.132 102.099,-144.58 94.9428,-151.83"/>
</g>
<!-- 1&#45;&#45;7 -->
<g id="edge6" class="edge"><title>1&#45;&#45;7</title>
<path fill="none" stroke="black" d="M138.947,-104.47C134.414,-93.5039 112.231,-39.8451 107.772,-29.0588"/>
</g>
<!-- 2 -->
<g id="node7" class="node"><title>2</title>
<ellipse fill="black" stroke="black" cx="52.3242" cy="-1.8" rx="1.8" ry="1.8"/>
</g>
<!-- 2&#45;&#45;4 -->
<g id="edge8" class="edge"><title>2&#45;&#45;4</title>
<path fill="none" stroke="black" d="M50.8722,-3.20599C44.2464,-9.62181 16.9151,-36.0871 10.1858,-42.6031"/>
</g>
<!-- 2&#45;&#45;7 -->
<g id="edge9" class="edge"><title>2&#45;&#45;7</title>
<path fill="none" stroke="black" d="M54.143,-2.64404C62.4428,-6.49556 96.6792,-22.3831 105.109,-26.2948"/>
</g>
<!-- 3 -->
<g id="node8" class="node"><title>3</title>
<ellipse fill="black" stroke="black" cx="70.0699" cy="-83.2533" rx="1.8" ry="1.8"/>
</g>
<!-- 2&#45;&#45;3 -->
<g id="edge7" class="edge"><title>2&#45;&#45;3</title>
<path fill="none" stroke="black" d="M52.7628,-3.81346C55.218,-15.0827 67.2316,-70.2255 69.6466,-81.3102"/>
</g>
<!-- 3&#45;&#45;5 -->
<g id="edge10" class="edge"><title>3&#45;&#45;5</title>
<path fill="none" stroke="black" d="M69.7686,-85.2486C68.2434,-95.3487 61.3894,-140.738 59.9084,-150.546"/>
</g>
<!-- 3&#45;&#45;6 -->
<g id="edge11" class="edge"><title>3&#45;&#45;6</title>
<path fill="none" stroke="black" d="M70.6453,-84.9884C73.8374,-94.6157 89.3494,-141.398 92.7045,-151.517"/>
</g>
</g>
</svg>
