<?xml version="1.0" encoding="UTF-8" standalone="no"?>
<!DOCTYPE svg PUBLIC "-//W3C//DTD SVG 1.1//EN"
 "http://www.w3.org/Graphics/SVG/1.1/DTD/svg11.dtd">
<!-- Generated by graphviz version 2.36.0 (20140111.2315)
 -->
<!-- Title: %3 Pages: 1 -->
<svg width="205pt" height="155pt"
 viewBox="0.00 0.00 204.90 155.15" xmlns="http://www.w3.org/2000/svg" xmlns:xlink="http://www.w3.org/1999/xlink">
<g id="graph0" class="graph" transform="scale(1 1) rotate(0) translate(4 151.149)">
<title>%3</title>
<!-- 0 -->
<g id="node1" class="node"><title>0</title>
<ellipse fill="black" stroke="black" cx="126.186" cy="-43.9053" rx="1.8" ry="1.8"/>
</g>
<!-- 1 -->
<g id="node2" class="node"><title>1</title>
<ellipse fill="black" stroke="black" cx="91.5971" cy="-97.4609" rx="1.8" ry="1.8"/>
</g>
<!-- 0&#45;&#45;1 -->
<g id="edge1" class="edge"><title>0&#45;&#45;1</title>
<path fill="none" stroke="black" d="M125.036,-45.6872C119.784,-53.8184 98.1214,-87.3592 92.7878,-95.6174"/>
</g>
<!-- 2 -->
<g id="node3" class="node"><title>2</title>
<ellipse fill="black" stroke="black" cx="78.009" cy="-6.62015" rx="1.8" ry="1.8"/>
</g>
<!-- 0&#45;&#45;2 -->
<g id="edge2" class="edge"><title>0&#45;&#45;2</title>
<path fill="none" stroke="black" d="M124.584,-42.6648C117.269,-37.0039 87.0963,-13.6529 79.6674,-7.90359"/>
</g>
<!-- 3 -->
<g id="node4" class="node"><title>3</title>
<ellipse fill="black" stroke="black" cx="37.7655" cy="-69.1124" rx="1.8" ry="1.8"/>
</g>
<!-- 0&#45;&#45;3 -->
<g id="edge3" class="edge"><title>0&#45;&#45;3</title>
<path fill="none" stroke="black" d="M124.34,-44.4318C112.833,-47.7123 51.0796,-65.3168 39.6021,-68.5888"/>
</g>
<!-- 5 -->
<g id="node5" class="node"><title>5</title>
<ellipse fill="black" stroke="black" cx="195.104" cy="-81.1325" rx="1.8" ry="1.8"/>
</g>
<!-- 0&#45;&#45;5 -->
<g id="edge4" class="edge"><title>0&#45;&#45;5</title>
<path fill="none" stroke="black" d="M127.89,-44.8256C137.342,-49.9312 183.273,-74.7415 193.207,-80.1077"/>
</g>
<!-- 1&#45;&#45;2 -->
<g id="edge5" class="edge"><title>1&#45;&#45;2</title>
<path fill="none" stroke="black" d="M91.3133,-95.5636C89.545,-83.7415 80.0551,-20.2987 78.2913,-8.50705"/>
</g>
<!-- 1&#45;&#45;3 -->
<g id="edge6" class="edge"><title>1&#45;&#45;3</title>
<path fill="none" stroke="black" d="M89.8061,-96.5177C81.633,-92.2137 47.9192,-74.4595 39.6185,-70.0882"/>
</g>
<!-- 6 -->
<g id="node6" class="node"><title>6</title>
<ellipse fill="black" stroke="black" cx="153.516" cy="-145.349" rx="1.8" ry="1.8"/>
</g>
<!-- 1&#45;&#45;6 -->
<g id="edge7" class="edge"><title>1&#45;&#45;6</title>
<path fill="none" stroke="black" d="M93.1277,-98.6447C101.62,-105.212 142.886,-137.128 151.811,-144.031"/>
</g>
<!-- 4 -->
<g id="node7" class="node"><title>4</title>
<ellipse fill="black" stroke="black" cx="1.8" cy="-1.8" rx="1.8" ry="1.8"/>
</g>
<!-- 2&#45;&#45;4 -->
<g id="edge8" class="edge"><title>2&#45;&#45;4</title>
<path fill="none" stroke="black" d="M76.1252,-6.501C65.5815,-5.83412 13.989,-2.57094 3.61798,-1.91499"/>
</g>
<!-- 3&#45;&#45;4 -->
<g id="edge9" class="edge"><title>3&#45;&#45;4</title>
<path fill="none" stroke="black" d="M36.8764,-67.4485C31.9438,-58.2167 7.97434,-13.3558 2.79003,-3.65293"/>
</g>
<!-- 5&#45;&#45;6 -->
<g id="edge10" class="edge"><title>5&#45;&#45;6</title>
<path fill="none" stroke="black" d="M194.076,-82.7198C188.372,-91.5271 160.655,-134.325 154.66,-143.581"/>
</g>
</g>
</svg>
