<?xml version="1.0" encoding="UTF-8" standalone="no"?>
<!DOCTYPE svg PUBLIC "-//W3C//DTD SVG 1.1//EN"
 "http://www.w3.org/Graphics/SVG/1.1/DTD/svg11.dtd">
<!-- Generated by graphviz version 2.36.0 (20140111.2315)
 -->
<!-- Title: %3 Pages: 1 -->
<svg width="278pt" height="203pt"
 viewBox="0.00 0.00 278.34 202.67" xmlns="http://www.w3.org/2000/svg" xmlns:xlink="http://www.w3.org/1999/xlink">
<g id="graph0" class="graph" transform="scale(1 1) rotate(0) translate(4 198.669)">
<title>%3</title>
<!-- 0 -->
<g id="node1" class="node"><title>0</title>
<ellipse fill="black" stroke="black" cx="144.744" cy="-113.362" rx="1.8" ry="1.8"/>
</g>
<!-- 1 -->
<g id="node2" class="node"><title>1</title>
<ellipse fill="black" stroke="black" cx="75.6004" cy="-145.053" rx="1.8" ry="1.8"/>
</g>
<!-- 0&#45;&#45;1 -->
<g id="edge1" class="edge"><title>0&#45;&#45;1</title>
<path fill="none" stroke="black" d="M143.034,-114.145C133.552,-118.491 87.4705,-139.612 77.5037,-144.18"/>
</g>
<!-- 2 -->
<g id="node3" class="node"><title>2</title>
<ellipse fill="black" stroke="black" cx="180.514" cy="-44.7208" rx="1.8" ry="1.8"/>
</g>
<!-- 0&#45;&#45;2 -->
<g id="edge2" class="edge"><title>0&#45;&#45;2</title>
<path fill="none" stroke="black" d="M145.628,-111.665C150.534,-102.251 174.373,-56.5047 179.529,-46.6103"/>
</g>
<!-- 3 -->
<g id="node4" class="node"><title>3</title>
<ellipse fill="black" stroke="black" cx="217.494" cy="-88.7036" rx="1.8" ry="1.8"/>
</g>
<!-- 0&#45;&#45;3 -->
<g id="edge3" class="edge"><title>0&#45;&#45;3</title>
<path fill="none" stroke="black" d="M146.542,-112.752C156.607,-109.341 205.858,-92.6474 215.758,-89.2918"/>
</g>
<!-- 7 -->
<g id="node5" class="node"><title>7</title>
<ellipse fill="black" stroke="black" cx="135.912" cy="-187.538" rx="1.8" ry="1.8"/>
</g>
<!-- 0&#45;&#45;7 -->
<g id="edge4" class="edge"><title>0&#45;&#45;7</title>
<path fill="none" stroke="black" d="M144.525,-115.195C143.314,-125.369 137.428,-174.804 136.155,-185.496"/>
</g>
<!-- 1&#45;&#45;7 -->
<g id="edge6" class="edge"><title>1&#45;&#45;7</title>
<path fill="none" stroke="black" d="M77.0913,-146.103C85.3629,-151.93 125.558,-180.245 134.252,-186.369"/>
</g>
<!-- 6 -->
<g id="node6" class="node"><title>6</title>
<ellipse fill="black" stroke="black" cx="17.1366" cy="-192.869" rx="1.8" ry="1.8"/>
</g>
<!-- 1&#45;&#45;6 -->
<g id="edge5" class="edge"><title>1&#45;&#45;6</title>
<path fill="none" stroke="black" d="M74.1552,-146.235C66.137,-152.793 27.1733,-184.66 18.7459,-191.553"/>
</g>
<!-- 8 -->
<g id="node7" class="node"><title>8</title>
<ellipse fill="black" stroke="black" cx="1.8" cy="-126.146" rx="1.8" ry="1.8"/>
</g>
<!-- 1&#45;&#45;8 -->
<g id="edge7" class="edge"><title>1&#45;&#45;8</title>
<path fill="none" stroke="black" d="M73.7761,-144.585C63.5657,-141.97 13.6037,-129.17 3.56052,-126.597"/>
</g>
<!-- 2&#45;&#45;3 -->
<g id="edge8" class="edge"><title>2&#45;&#45;3</title>
<path fill="none" stroke="black" d="M181.744,-46.1842C187.359,-52.8619 210.519,-80.4075 216.221,-87.1896"/>
</g>
<!-- 4 -->
<g id="node8" class="node"><title>4</title>
<ellipse fill="black" stroke="black" cx="268.543" cy="-49.3994" rx="1.8" ry="1.8"/>
</g>
<!-- 2&#45;&#45;4 -->
<g id="edge9" class="edge"><title>2&#45;&#45;4</title>
<path fill="none" stroke="black" d="M182.352,-44.8185C193.808,-45.4274 255.287,-48.6949 266.714,-49.3023"/>
</g>
<!-- 5 -->
<g id="node9" class="node"><title>5</title>
<ellipse fill="black" stroke="black" cx="229.314" cy="-1.8" rx="1.8" ry="1.8"/>
</g>
<!-- 2&#45;&#45;5 -->
<g id="edge10" class="edge"><title>2&#45;&#45;5</title>
<path fill="none" stroke="black" d="M182.137,-43.2927C189.546,-36.7762 220.109,-9.89574 227.634,-3.27743"/>
</g>
<!-- 3&#45;&#45;4 -->
<g id="edge11" class="edge"><title>3&#45;&#45;4</title>
<path fill="none" stroke="black" d="M219.192,-87.3958C226.943,-81.4285 258.914,-56.813 266.785,-50.7524"/>
</g>
<!-- 3&#45;&#45;5 -->
<g id="edge12" class="edge"><title>3&#45;&#45;5</title>
<path fill="none" stroke="black" d="M217.741,-86.8885C219.279,-75.5788 227.534,-14.8857 229.069,-3.60512"/>
</g>
<!-- 6&#45;&#45;8 -->
<g id="edge14" class="edge"><title>6&#45;&#45;8</title>
<path fill="none" stroke="black" d="M16.6941,-190.944C14.4545,-181.201 4.39001,-137.414 2.21518,-127.953"/>
</g>
<!-- 4&#45;&#45;5 -->
<g id="edge13" class="edge"><title>4&#45;&#45;5</title>
<path fill="none" stroke="black" d="M267.237,-47.8157C261.282,-40.5889 236.714,-10.7782 230.665,-3.43848"/>
</g>
</g>
</svg>
