<?xml version="1.0" encoding="UTF-8" standalone="no"?>
<!DOCTYPE svg PUBLIC "-//W3C//DTD SVG 1.1//EN"
 "http://www.w3.org/Graphics/SVG/1.1/DTD/svg11.dtd">
<!-- Generated by graphviz version 2.36.0 (20140111.2315)
 -->
<!-- Title: %3 Pages: 1 -->
<svg width="183pt" height="169pt"
 viewBox="0.00 0.00 182.58 168.55" xmlns="http://www.w3.org/2000/svg" xmlns:xlink="http://www.w3.org/1999/xlink">
<g id="graph0" class="graph" transform="scale(1 1) rotate(0) translate(4 164.551)">
<title>%3</title>
<!-- 0 -->
<g id="node1" class="node"><title>0</title>
<ellipse fill="black" stroke="black" cx="77.0628" cy="-82.0824" rx="1.8" ry="1.8"/>
</g>
<!-- 1 -->
<g id="node2" class="node"><title>1</title>
<ellipse fill="black" stroke="black" cx="68.2729" cy="-143.922" rx="1.8" ry="1.8"/>
</g>
<!-- 0&#45;&#45;1 -->
<g id="edge1" class="edge"><title>0&#45;&#45;1</title>
<path fill="none" stroke="black" d="M76.8092,-83.8665C75.5482,-92.7383 69.9584,-132.064 68.5806,-141.757"/>
</g>
<!-- 2 -->
<g id="node3" class="node"><title>2</title>
<ellipse fill="black" stroke="black" cx="42.7695" cy="-108.897" rx="1.8" ry="1.8"/>
</g>
<!-- 0&#45;&#45;2 -->
<g id="edge2" class="edge"><title>0&#45;&#45;2</title>
<path fill="none" stroke="black" d="M75.5892,-83.2346C69.9483,-87.6453 49.7645,-103.427 44.1993,-107.779"/>
</g>
<!-- 3 -->
<g id="node4" class="node"><title>3</title>
<ellipse fill="black" stroke="black" cx="116.015" cy="-67.8328" rx="1.8" ry="1.8"/>
</g>
<!-- 0&#45;&#45;3 -->
<g id="edge3" class="edge"><title>0&#45;&#45;3</title>
<path fill="none" stroke="black" d="M79.157,-81.3163C85.9836,-78.819 107.53,-70.9368 114.097,-68.5346"/>
</g>
<!-- 4 -->
<g id="node5" class="node"><title>4</title>
<ellipse fill="black" stroke="black" cx="125.324" cy="-137.733" rx="1.8" ry="1.8"/>
</g>
<!-- 0&#45;&#45;4 -->
<g id="edge4" class="edge"><title>0&#45;&#45;4</title>
<path fill="none" stroke="black" d="M78.2558,-83.4581C84.8747,-91.0905 117.039,-128.179 123.995,-136.201"/>
</g>
<!-- 5 -->
<g id="node6" class="node"><title>5</title>
<ellipse fill="black" stroke="black" cx="12.4842" cy="-158.751" rx="1.8" ry="1.8"/>
</g>
<!-- 0&#45;&#45;5 -->
<g id="edge5" class="edge"><title>0&#45;&#45;5</title>
<path fill="none" stroke="black" d="M75.714,-83.6838C67.3097,-93.6615 22.2083,-147.207 13.8256,-157.159"/>
</g>
<!-- 6 -->
<g id="node7" class="node"><title>6</title>
<ellipse fill="black" stroke="black" cx="1.8" cy="-72.06" rx="1.8" ry="1.8"/>
</g>
<!-- 0&#45;&#45;6 -->
<g id="edge6" class="edge"><title>0&#45;&#45;6</title>
<path fill="none" stroke="black" d="M75.2023,-81.8347C64.7896,-80.448 13.8376,-73.663 3.59541,-72.2991"/>
</g>
<!-- 7 -->
<g id="node8" class="node"><title>7</title>
<ellipse fill="black" stroke="black" cx="172.782" cy="-97.6182" rx="1.8" ry="1.8"/>
</g>
<!-- 0&#45;&#45;7 -->
<g id="edge7" class="edge"><title>0&#45;&#45;7</title>
<path fill="none" stroke="black" d="M79.062,-82.4069C91.519,-84.4287 158.369,-95.2789 170.794,-97.2955"/>
</g>
<!-- 8 -->
<g id="node9" class="node"><title>8</title>
<ellipse fill="black" stroke="black" cx="90.8457" cy="-1.8" rx="1.8" ry="1.8"/>
</g>
<!-- 0&#45;&#45;8 -->
<g id="edge8" class="edge"><title>0&#45;&#45;8</title>
<path fill="none" stroke="black" d="M77.4035,-80.0979C79.3104,-68.9907 88.6413,-14.6405 90.5169,-3.71515"/>
</g>
<!-- 1&#45;&#45;2 -->
<g id="edge9" class="edge"><title>1&#45;&#45;2</title>
<path fill="none" stroke="black" d="M67.1771,-142.417C62.982,-136.656 47.9716,-116.041 43.8328,-110.357"/>
</g>
<!-- 1&#45;&#45;3 -->
<g id="edge10" class="edge"><title>1&#45;&#45;3</title>
<path fill="none" stroke="black" d="M69.2701,-142.333C75.4833,-132.431 108.826,-79.2901 115.023,-69.4133"/>
</g>
<!-- 1&#45;&#45;4 -->
<g id="edge11" class="edge"><title>1&#45;&#45;4</title>
<path fill="none" stroke="black" d="M70.1711,-143.716C78.8329,-142.776 114.563,-138.9 123.36,-137.946"/>
</g>
<!-- 1&#45;&#45;5 -->
<g id="edge12" class="edge"><title>1&#45;&#45;5</title>
<path fill="none" stroke="black" d="M66.4167,-144.415C57.9466,-146.667 23.0071,-155.954 14.4046,-158.241"/>
</g>
<!-- 1&#45;&#45;6 -->
<g id="edge13" class="edge"><title>1&#45;&#45;6</title>
<path fill="none" stroke="black" d="M66.8845,-142.421C58.2337,-133.069 11.8093,-82.8807 3.18074,-73.5527"/>
</g>
<!-- 2&#45;&#45;3 -->
<g id="edge14" class="edge"><title>2&#45;&#45;3</title>
<path fill="none" stroke="black" d="M44.58,-107.882C54.7137,-102.2 104.3,-74.4006 114.268,-68.8124"/>
</g>
<!-- 2&#45;&#45;4 -->
<g id="edge15" class="edge"><title>2&#45;&#45;4</title>
<path fill="none" stroke="black" d="M44.4937,-109.499C55.2374,-113.252 112.893,-133.391 123.609,-137.134"/>
</g>
<!-- 2&#45;&#45;5 -->
<g id="edge16" class="edge"><title>2&#45;&#45;5</title>
<path fill="none" stroke="black" d="M41.7618,-110.556C37.1637,-118.125 18.1967,-149.348 13.5267,-157.035"/>
</g>
<!-- 2&#45;&#45;6 -->
<g id="edge17" class="edge"><title>2&#45;&#45;6</title>
<path fill="none" stroke="black" d="M41.4063,-107.671C35.1861,-102.078 9.52768,-79.0082 3.21026,-73.328"/>
</g>
<!-- 3&#45;&#45;4 -->
<g id="edge18" class="edge"><title>3&#45;&#45;4</title>
<path fill="none" stroke="black" d="M116.284,-69.8494C117.643,-80.0568 123.752,-125.929 125.072,-135.841"/>
</g>
<!-- 3&#45;&#45;8 -->
<g id="edge19" class="edge"><title>3&#45;&#45;8</title>
<path fill="none" stroke="black" d="M115.289,-65.9278C111.614,-56.2852 95.0963,-12.9515 91.5271,-3.58759"/>
</g>
<!-- 4&#45;&#45;7 -->
<g id="edge20" class="edge"><title>4&#45;&#45;7</title>
<path fill="none" stroke="black" d="M126.903,-136.398C134.108,-130.308 163.831,-105.185 171.149,-98.999"/>
</g>
</g>
</svg>
