<?xml version="1.0" encoding="UTF-8" standalone="no"?>
<!DOCTYPE svg PUBLIC "-//W3C//DTD SVG 1.1//EN"
 "http://www.w3.org/Graphics/SVG/1.1/DTD/svg11.dtd">
<!-- Generated by graphviz version 2.36.0 (20140111.2315)
 -->
<!-- Title: %3 Pages: 1 -->
<svg width="350pt" height="250pt"
 viewBox="0.00 0.00 350.03 250.37" xmlns="http://www.w3.org/2000/svg" xmlns:xlink="http://www.w3.org/1999/xlink">
<g id="graph0" class="graph" transform="scale(1 1) rotate(0) translate(4 246.373)">
<title>%3</title>
<!-- 0 -->
<g id="node1" class="node"><title>0</title>
<ellipse fill="black" stroke="black" cx="146.281" cy="-171.019" rx="1.8" ry="1.8"/>
</g>
<!-- 3 -->
<g id="node2" class="node"><title>3</title>
<ellipse fill="black" stroke="black" cx="206.93" cy="-117.783" rx="1.8" ry="1.8"/>
</g>
<!-- 0&#45;&#45;3 -->
<g id="edge1" class="edge"><title>0&#45;&#45;3</title>
<path fill="none" stroke="black" d="M147.78,-169.703C156.098,-162.402 196.518,-126.922 205.26,-119.248"/>
</g>
<!-- 4 -->
<g id="node3" class="node"><title>4</title>
<ellipse fill="black" stroke="black" cx="73.4292" cy="-132.691" rx="1.8" ry="1.8"/>
</g>
<!-- 0&#45;&#45;4 -->
<g id="edge2" class="edge"><title>0&#45;&#45;4</title>
<path fill="none" stroke="black" d="M144.48,-170.072C134.401,-164.769 85.0811,-138.821 75.1671,-133.605"/>
</g>
<!-- 7 -->
<g id="node4" class="node"><title>7</title>
<ellipse fill="black" stroke="black" cx="104.688" cy="-239.002" rx="1.8" ry="1.8"/>
</g>
<!-- 0&#45;&#45;7 -->
<g id="edge3" class="edge"><title>0&#45;&#45;7</title>
<path fill="none" stroke="black" d="M145.252,-172.7C139.548,-182.024 111.828,-227.331 105.833,-237.131"/>
</g>
<!-- 8 -->
<g id="node5" class="node"><title>8</title>
<ellipse fill="black" stroke="black" cx="190.558" cy="-240.573" rx="1.8" ry="1.8"/>
</g>
<!-- 0&#45;&#45;8 -->
<g id="edge4" class="edge"><title>0&#45;&#45;8</title>
<path fill="none" stroke="black" d="M147.375,-172.739C153.448,-182.278 182.957,-228.632 189.34,-238.658"/>
</g>
<!-- 6 -->
<g id="node9" class="node"><title>6</title>
<ellipse fill="black" stroke="black" cx="1.8" cy="-107.658" rx="1.8" ry="1.8"/>
</g>
<!-- 4&#45;&#45;6 -->
<g id="edge9" class="edge"><title>4&#45;&#45;6</title>
<path fill="none" stroke="black" d="M71.6586,-132.072C61.7486,-128.608 13.2565,-111.662 3.50873,-108.255"/>
</g>
<!-- 1 -->
<g id="node6" class="node"><title>1</title>
<ellipse fill="black" stroke="black" cx="267.213" cy="-70.7225" rx="1.8" ry="1.8"/>
</g>
<!-- 1&#45;&#45;3 -->
<g id="edge6" class="edge"><title>1&#45;&#45;3</title>
<path fill="none" stroke="black" d="M265.722,-71.8858C257.455,-78.3401 217.279,-109.704 208.589,-116.487"/>
</g>
<!-- 2 -->
<g id="node7" class="node"><title>2</title>
<ellipse fill="black" stroke="black" cx="295.854" cy="-1.8" rx="1.8" ry="1.8"/>
</g>
<!-- 1&#45;&#45;2 -->
<g id="edge5" class="edge"><title>1&#45;&#45;2</title>
<path fill="none" stroke="black" d="M267.921,-69.0188C271.849,-59.5662 290.937,-13.6322 295.066,-3.69725"/>
</g>
<!-- 5 -->
<g id="node8" class="node"><title>5</title>
<ellipse fill="black" stroke="black" cx="340.235" cy="-56.3113" rx="1.8" ry="1.8"/>
</g>
<!-- 1&#45;&#45;5 -->
<g id="edge7" class="edge"><title>1&#45;&#45;5</title>
<path fill="none" stroke="black" d="M269.018,-70.3663C279.032,-68.3898 327.699,-58.7853 338.224,-56.708"/>
</g>
<!-- 2&#45;&#45;5 -->
<g id="edge8" class="edge"><title>2&#45;&#45;5</title>
<path fill="none" stroke="black" d="M297.331,-3.61369C304.189,-12.0377 332.863,-47.2569 339.053,-54.8603"/>
</g>
</g>
</svg>
