<?xml version="1.0" encoding="UTF-8" standalone="no"?>
<!DOCTYPE svg PUBLIC "-//W3C//DTD SVG 1.1//EN"
 "http://www.w3.org/Graphics/SVG/1.1/DTD/svg11.dtd">
<!-- Generated by graphviz version 2.36.0 (20140111.2315)
 -->
<!-- Title: %3 Pages: 1 -->
<svg width="385pt" height="273pt"
 viewBox="0.00 0.00 385.13 273.02" xmlns="http://www.w3.org/2000/svg" xmlns:xlink="http://www.w3.org/1999/xlink">
<g id="graph0" class="graph" transform="scale(1 1) rotate(0) translate(4 269.017)">
<title>%3</title>
<!-- 0 -->
<g id="node1" class="node"><title>0</title>
<ellipse fill="black" stroke="black" cx="233.539" cy="-193.766" rx="1.8" ry="1.8"/>
</g>
<!-- 2 -->
<g id="node2" class="node"><title>2</title>
<ellipse fill="black" stroke="black" cx="172.084" cy="-141.811" rx="1.8" ry="1.8"/>
</g>
<!-- 0&#45;&#45;2 -->
<g id="edge1" class="edge"><title>0&#45;&#45;2</title>
<path fill="none" stroke="black" d="M232.02,-192.482C223.591,-185.356 182.634,-150.73 173.775,-143.241"/>
</g>
<!-- 3 -->
<g id="node3" class="node"><title>3</title>
<ellipse fill="black" stroke="black" cx="304.587" cy="-152.572" rx="1.8" ry="1.8"/>
</g>
<!-- 0&#45;&#45;3 -->
<g id="edge2" class="edge"><title>0&#45;&#45;3</title>
<path fill="none" stroke="black" d="M235.295,-192.748C245.125,-187.049 293.224,-159.16 302.893,-153.554"/>
</g>
<!-- 7 -->
<g id="node4" class="node"><title>7</title>
<ellipse fill="black" stroke="black" cx="189.65" cy="-263.217" rx="1.8" ry="1.8"/>
</g>
<!-- 0&#45;&#45;7 -->
<g id="edge3" class="edge"><title>0&#45;&#45;7</title>
<path fill="none" stroke="black" d="M232.454,-195.483C226.435,-205.008 197.185,-251.294 190.858,-261.305"/>
</g>
<!-- 8 -->
<g id="node5" class="node"><title>8</title>
<ellipse fill="black" stroke="black" cx="276.594" cy="-260.895" rx="1.8" ry="1.8"/>
</g>
<!-- 0&#45;&#45;8 -->
<g id="edge4" class="edge"><title>0&#45;&#45;8</title>
<path fill="none" stroke="black" d="M234.603,-195.426C240.508,-204.632 269.203,-249.371 275.409,-259.047"/>
</g>
<!-- 5 -->
<g id="node8" class="node"><title>5</title>
<ellipse fill="black" stroke="black" cx="375.325" cy="-125.381" rx="1.8" ry="1.8"/>
</g>
<!-- 3&#45;&#45;5 -->
<g id="edge7" class="edge"><title>3&#45;&#45;5</title>
<path fill="none" stroke="black" d="M306.336,-151.9C316.123,-148.138 364.012,-129.73 373.638,-126.03"/>
</g>
<!-- 1 -->
<g id="node6" class="node"><title>1</title>
<ellipse fill="black" stroke="black" cx="110.394" cy="-98.826" rx="1.8" ry="1.8"/>
</g>
<!-- 1&#45;&#45;2 -->
<g id="edge5" class="edge"><title>1&#45;&#45;2</title>
<path fill="none" stroke="black" d="M111.919,-99.8886C120.38,-105.784 161.493,-134.432 170.385,-140.628"/>
</g>
<!-- 4 -->
<g id="node7" class="node"><title>4</title>
<ellipse fill="black" stroke="black" cx="51.0702" cy="-55.4815" rx="1.8" ry="1.8"/>
</g>
<!-- 1&#45;&#45;4 -->
<g id="edge6" class="edge"><title>1&#45;&#45;4</title>
<path fill="none" stroke="black" d="M108.928,-97.7546C100.791,-91.8099 61.2545,-62.9227 52.7032,-56.6747"/>
</g>
<!-- 6 -->
<g id="node9" class="node"><title>6</title>
<ellipse fill="black" stroke="black" cx="1.8" cy="-1.8" rx="1.8" ry="1.8"/>
</g>
<!-- 4&#45;&#45;6 -->
<g id="edge8" class="edge"><title>4&#45;&#45;6</title>
<path fill="none" stroke="black" d="M49.8523,-54.1546C43.0949,-46.7922 10.2584,-11.0157 3.15627,-3.2777"/>
</g>
</g>
</svg>
