<?xml version="1.0" encoding="UTF-8" standalone="no"?>
<!DOCTYPE svg PUBLIC "-//W3C//DTD SVG 1.1//EN"
 "http://www.w3.org/Graphics/SVG/1.1/DTD/svg11.dtd">
<!-- Generated by graphviz version 2.36.0 (20140111.2315)
 -->
<!-- Title: %3 Pages: 1 -->
<svg width="165pt" height="162pt"
 viewBox="0.00 0.00 165.45 162.36" xmlns="http://www.w3.org/2000/svg" xmlns:xlink="http://www.w3.org/1999/xlink">
<g id="graph0" class="graph" transform="scale(1 1) rotate(0) translate(4 158.356)">
<title>%3</title>
<!-- 0 -->
<g id="node1" class="node"><title>0</title>
<ellipse fill="black" stroke="black" cx="86.3266" cy="-133.203" rx="1.8" ry="1.8"/>
</g>
<!-- 1 -->
<g id="node2" class="node"><title>1</title>
<ellipse fill="black" stroke="black" cx="115.642" cy="-77.7526" rx="1.8" ry="1.8"/>
</g>
<!-- 0&#45;&#45;1 -->
<g id="edge1" class="edge"><title>0&#45;&#45;1</title>
<path fill="none" stroke="black" d="M87.302,-131.358C91.7529,-122.939 110.113,-88.2117 114.633,-79.6613"/>
</g>
<!-- 2 -->
<g id="node3" class="node"><title>2</title>
<ellipse fill="black" stroke="black" cx="59.3556" cy="-49.9624" rx="1.8" ry="1.8"/>
</g>
<!-- 0&#45;&#45;2 -->
<g id="edge2" class="edge"><title>0&#45;&#45;2</title>
<path fill="none" stroke="black" d="M85.7633,-131.465C82.2533,-120.632 63.4168,-62.4966 59.9158,-51.6915"/>
</g>
<!-- 3 -->
<g id="node4" class="node"><title>3</title>
<ellipse fill="black" stroke="black" cx="70.2609" cy="-79.4506" rx="1.8" ry="1.8"/>
</g>
<!-- 0&#45;&#45;3 -->
<g id="edge3" class="edge"><title>0&#45;&#45;3</title>
<path fill="none" stroke="black" d="M85.7921,-131.415C83.3529,-123.254 73.2912,-89.5895 70.8139,-81.3009"/>
</g>
<!-- 4 -->
<g id="node5" class="node"><title>4</title>
<ellipse fill="black" stroke="black" cx="151.076" cy="-90.9765" rx="1.8" ry="1.8"/>
</g>
<!-- 0&#45;&#45;4 -->
<g id="edge4" class="edge"><title>0&#45;&#45;4</title>
<path fill="none" stroke="black" d="M87.9272,-132.159C96.8075,-126.368 139.96,-98.2257 149.294,-92.1388"/>
</g>
<!-- 5 -->
<g id="node6" class="node"><title>5</title>
<ellipse fill="black" stroke="black" cx="35.119" cy="-129.727" rx="1.8" ry="1.8"/>
</g>
<!-- 0&#45;&#45;5 -->
<g id="edge5" class="edge"><title>0&#45;&#45;5</title>
<path fill="none" stroke="black" d="M84.1263,-133.054C75.7032,-132.482 45.5641,-130.436 37.2541,-129.872"/>
</g>
<!-- 6 -->
<g id="node7" class="node"><title>6</title>
<ellipse fill="black" stroke="black" cx="1.8" cy="-91.0602" rx="1.8" ry="1.8"/>
</g>
<!-- 0&#45;&#45;6 -->
<g id="edge6" class="edge"><title>0&#45;&#45;6</title>
<path fill="none" stroke="black" d="M84.5612,-132.323C73.5608,-126.838 14.5278,-97.4059 3.55575,-91.9355"/>
</g>
<!-- 7 -->
<g id="node8" class="node"><title>7</title>
<ellipse fill="black" stroke="black" cx="155.653" cy="-152.556" rx="1.8" ry="1.8"/>
</g>
<!-- 0&#45;&#45;7 -->
<g id="edge7" class="edge"><title>0&#45;&#45;7</title>
<path fill="none" stroke="black" d="M88.3267,-133.762C98.4502,-136.588 143.945,-149.288 153.776,-152.032"/>
</g>
<!-- 1&#45;&#45;2 -->
<g id="edge8" class="edge"><title>1&#45;&#45;2</title>
<path fill="none" stroke="black" d="M113.77,-76.828C105.224,-72.6087 69.9724,-55.2042 61.2931,-50.919"/>
</g>
<!-- 1&#45;&#45;3 -->
<g id="edge9" class="edge"><title>1&#45;&#45;3</title>
<path fill="none" stroke="black" d="M113.692,-77.8256C106.228,-78.1049 79.5176,-79.1043 72.1531,-79.3798"/>
</g>
<!-- 1&#45;&#45;4 -->
<g id="edge10" class="edge"><title>1&#45;&#45;4</title>
<path fill="none" stroke="black" d="M117.548,-78.4636C123.757,-80.7811 143.358,-88.0959 149.331,-90.3252"/>
</g>
<!-- 1&#45;&#45;5 -->
<g id="edge11" class="edge"><title>1&#45;&#45;5</title>
<path fill="none" stroke="black" d="M113.961,-78.8382C103.481,-85.6021 47.244,-121.901 36.7916,-128.647"/>
</g>
<!-- 1&#45;&#45;7 -->
<g id="edge12" class="edge"><title>1&#45;&#45;7</title>
<path fill="none" stroke="black" d="M116.631,-79.6017C122.167,-89.9509 149.254,-140.592 154.698,-150.772"/>
</g>
<!-- 8 -->
<g id="node9" class="node"><title>8</title>
<ellipse fill="black" stroke="black" cx="101.586" cy="-1.8" rx="1.8" ry="1.8"/>
</g>
<!-- 1&#45;&#45;8 -->
<g id="edge13" class="edge"><title>1&#45;&#45;8</title>
<path fill="none" stroke="black" d="M115.295,-75.8751C113.35,-65.3669 103.834,-13.948 101.921,-3.61186"/>
</g>
<!-- 2&#45;&#45;3 -->
<g id="edge14" class="edge"><title>2&#45;&#45;3</title>
<path fill="none" stroke="black" d="M60.0711,-51.8972C62.0423,-57.2275 67.5372,-72.0856 69.5284,-77.47"/>
</g>
<!-- 2&#45;&#45;4 -->
<g id="edge15" class="edge"><title>2&#45;&#45;4</title>
<path fill="none" stroke="black" d="M61.2713,-50.8191C73.2079,-56.1567 137.265,-84.8007 149.171,-90.1245"/>
</g>
<!-- 2&#45;&#45;5 -->
<g id="edge16" class="edge"><title>2&#45;&#45;5</title>
<path fill="none" stroke="black" d="M58.7565,-51.9342C55.4033,-62.9697 38.9954,-116.969 35.6971,-127.824"/>
</g>
<!-- 2&#45;&#45;6 -->
<g id="edge17" class="edge"><title>2&#45;&#45;6</title>
<path fill="none" stroke="black" d="M57.4406,-51.3298C48.5461,-57.681 11.3601,-84.2337 3.33205,-89.9662"/>
</g>
<!-- 2&#45;&#45;8 -->
<g id="edge18" class="edge"><title>2&#45;&#45;8</title>
<path fill="none" stroke="black" d="M60.7607,-48.36C67.1723,-41.0477 93.6204,-10.8844 100.132,-3.45786"/>
</g>
<!-- 3&#45;&#45;4 -->
<g id="edge19" class="edge"><title>3&#45;&#45;4</title>
<path fill="none" stroke="black" d="M72.2586,-79.7355C83.4395,-81.3302 138.151,-89.133 149.148,-90.7015"/>
</g>
<!-- 3&#45;&#45;5 -->
<g id="edge20" class="edge"><title>3&#45;&#45;5</title>
<path fill="none" stroke="black" d="M69.0916,-81.1234C63.7562,-88.7566 41.7475,-120.244 36.3286,-127.996"/>
</g>
<!-- 3&#45;&#45;6 -->
<g id="edge21" class="edge"><title>3&#45;&#45;6</title>
<path fill="none" stroke="black" d="M68.2858,-79.7856C58.2886,-81.4809 13.3615,-89.0996 3.65332,-90.7459"/>
</g>
<!-- 3&#45;&#45;8 -->
<g id="edge22" class="edge"><title>3&#45;&#45;8</title>
<path fill="none" stroke="black" d="M71.0352,-77.5312C75.3691,-66.7881 96.5757,-14.2195 100.839,-3.65237"/>
</g>
<!-- 4&#45;&#45;7 -->
<g id="edge23" class="edge"><title>4&#45;&#45;7</title>
<path fill="none" stroke="black" d="M151.229,-93.0253C151.923,-102.375 154.79,-140.941 155.495,-150.437"/>
</g>
<!-- 5&#45;&#45;6 -->
<g id="edge24" class="edge"><title>5&#45;&#45;6</title>
<path fill="none" stroke="black" d="M33.6873,-128.065C28.2067,-121.705 8.59629,-98.9472 3.18925,-92.6724"/>
</g>
</g>
</svg>
