<?xml version="1.0" encoding="UTF-8" standalone="no"?>
<!DOCTYPE svg PUBLIC "-//W3C//DTD SVG 1.1//EN"
 "http://www.w3.org/Graphics/SVG/1.1/DTD/svg11.dtd">
<!-- Generated by graphviz version 2.36.0 (20140111.2315)
 -->
<!-- Title: %3 Pages: 1 -->
<svg width="249pt" height="268pt"
 viewBox="0.00 0.00 248.76 268.09" xmlns="http://www.w3.org/2000/svg" xmlns:xlink="http://www.w3.org/1999/xlink">
<g id="graph0" class="graph" transform="scale(1 1) rotate(0) translate(4 264.094)">
<title>%3</title>
<!-- 0 -->
<g id="node1" class="node"><title>0</title>
<ellipse fill="black" stroke="black" cx="121.055" cy="-129.991" rx="1.8" ry="1.8"/>
</g>
<!-- 1 -->
<g id="node2" class="node"><title>1</title>
<ellipse fill="black" stroke="black" cx="187.566" cy="-165.729" rx="1.8" ry="1.8"/>
</g>
<!-- 0&#45;&#45;1 -->
<g id="edge1" class="edge"><title>0&#45;&#45;1</title>
<path fill="none" stroke="black" d="M122.699,-130.875C131.821,-135.776 176.148,-159.593 185.735,-164.745"/>
</g>
<!-- 2 -->
<g id="node3" class="node"><title>2</title>
<ellipse fill="black" stroke="black" cx="145.085" cy="-201.621" rx="1.8" ry="1.8"/>
</g>
<!-- 0&#45;&#45;2 -->
<g id="edge2" class="edge"><title>0&#45;&#45;2</title>
<path fill="none" stroke="black" d="M121.649,-131.762C124.974,-141.672 141.242,-190.165 144.512,-199.913"/>
</g>
<!-- 3 -->
<g id="node4" class="node"><title>3</title>
<ellipse fill="black" stroke="black" cx="70.3518" cy="-74.6491" rx="1.8" ry="1.8"/>
</g>
<!-- 0&#45;&#45;3 -->
<g id="edge3" class="edge"><title>0&#45;&#45;3</title>
<path fill="none" stroke="black" d="M119.802,-128.623C112.848,-121.033 79.0563,-84.1499 71.7475,-76.1725"/>
</g>
<!-- 4 -->
<g id="node5" class="node"><title>4</title>
<ellipse fill="black" stroke="black" cx="238.957" cy="-199.877" rx="1.8" ry="1.8"/>
</g>
<!-- 1&#45;&#45;4 -->
<g id="edge4" class="edge"><title>1&#45;&#45;4</title>
<path fill="none" stroke="black" d="M189.276,-166.865C197.078,-172.049 229.263,-193.436 237.188,-198.701"/>
</g>
<!-- 5 -->
<g id="node6" class="node"><title>5</title>
<ellipse fill="black" stroke="black" cx="168.846" cy="-258.294" rx="1.8" ry="1.8"/>
</g>
<!-- 1&#45;&#45;5 -->
<g id="edge5" class="edge"><title>1&#45;&#45;5</title>
<path fill="none" stroke="black" d="M187.175,-167.662C184.739,-179.708 171.665,-244.356 169.235,-256.372"/>
</g>
<!-- 2&#45;&#45;4 -->
<g id="edge6" class="edge"><title>2&#45;&#45;4</title>
<path fill="none" stroke="black" d="M147.046,-201.585C159.262,-201.358 224.822,-200.139 237.007,-199.913"/>
</g>
<!-- 2&#45;&#45;5 -->
<g id="edge7" class="edge"><title>2&#45;&#45;5</title>
<path fill="none" stroke="black" d="M145.876,-203.507C149.483,-212.112 164.364,-247.605 168.028,-256.344"/>
</g>
<!-- 6 -->
<g id="node7" class="node"><title>6</title>
<ellipse fill="black" stroke="black" cx="1.8" cy="-47.3949" rx="1.8" ry="1.8"/>
</g>
<!-- 3&#45;&#45;6 -->
<g id="edge8" class="edge"><title>3&#45;&#45;6</title>
<path fill="none" stroke="black" d="M68.6572,-73.9754C59.2554,-70.2375 13.5686,-52.0737 3.68704,-48.1451"/>
</g>
<!-- 7 -->
<g id="node8" class="node"><title>7</title>
<ellipse fill="black" stroke="black" cx="56.2157" cy="-1.8" rx="1.8" ry="1.8"/>
</g>
<!-- 3&#45;&#45;7 -->
<g id="edge9" class="edge"><title>3&#45;&#45;7</title>
<path fill="none" stroke="black" d="M70.0024,-72.8483C68.0636,-62.8571 58.6425,-14.3063 56.6048,-3.80533"/>
</g>
<!-- 6&#45;&#45;7 -->
<g id="edge10" class="edge"><title>6&#45;&#45;7</title>
<path fill="none" stroke="black" d="M3.61051,-45.8778C12.0198,-38.8317 47.1771,-9.3734 54.7672,-3.01367"/>
</g>
</g>
</svg>
