<?xml version="1.0" encoding="UTF-8" standalone="no"?>
<!DOCTYPE svg PUBLIC "-//W3C//DTD SVG 1.1//EN"
 "http://www.w3.org/Graphics/SVG/1.1/DTD/svg11.dtd">
<!-- Generated by graphviz version 2.36.0 (20140111.2315)
 -->
<!-- Title: %3 Pages: 1 -->
<svg width="155pt" height="150pt"
 viewBox="0.00 0.00 154.55 149.61" xmlns="http://www.w3.org/2000/svg" xmlns:xlink="http://www.w3.org/1999/xlink">
<g id="graph0" class="graph" transform="scale(1 1) rotate(0) translate(4 145.612)">
<title>%3</title>
<!-- 0 -->
<g id="node1" class="node"><title>0</title>
<ellipse fill="black" stroke="black" cx="87.1912" cy="-73.7396" rx="1.8" ry="1.8"/>
</g>
<!-- 1 -->
<g id="node2" class="node"><title>1</title>
<ellipse fill="black" stroke="black" cx="62.6193" cy="-110.972" rx="1.8" ry="1.8"/>
</g>
<!-- 0&#45;&#45;1 -->
<g id="edge1" class="edge"><title>0&#45;&#45;1</title>
<path fill="none" stroke="black" d="M86.1354,-75.3395C82.0935,-81.4638 67.6314,-103.378 63.6438,-109.42"/>
</g>
<!-- 2 -->
<g id="node3" class="node"><title>2</title>
<ellipse fill="black" stroke="black" cx="58.8041" cy="-46.1068" rx="1.8" ry="1.8"/>
</g>
<!-- 0&#45;&#45;2 -->
<g id="edge2" class="edge"><title>0&#45;&#45;2</title>
<path fill="none" stroke="black" d="M85.665,-72.254C80.69,-67.4112 64.9876,-52.126 60.2021,-47.4677"/>
</g>
<!-- 3 -->
<g id="node4" class="node"><title>3</title>
<ellipse fill="black" stroke="black" cx="89.557" cy="-139.812" rx="1.8" ry="1.8"/>
</g>
<!-- 0&#45;&#45;3 -->
<g id="edge3" class="edge"><title>0&#45;&#45;3</title>
<path fill="none" stroke="black" d="M87.2594,-75.6458C87.5989,-85.1249 89.1034,-127.143 89.4742,-137.499"/>
</g>
<!-- 4 -->
<g id="node5" class="node"><title>4</title>
<ellipse fill="black" stroke="black" cx="136.747" cy="-71.7468" rx="1.8" ry="1.8"/>
</g>
<!-- 0&#45;&#45;4 -->
<g id="edge4" class="edge"><title>0&#45;&#45;4</title>
<path fill="none" stroke="black" d="M89.3205,-73.654C97.4719,-73.3262 126.639,-72.1533 134.681,-71.8299"/>
</g>
<!-- 5 -->
<g id="node6" class="node"><title>5</title>
<ellipse fill="black" stroke="black" cx="13.5386" cy="-115.369" rx="1.8" ry="1.8"/>
</g>
<!-- 0&#45;&#45;5 -->
<g id="edge5" class="edge"><title>0&#45;&#45;5</title>
<path fill="none" stroke="black" d="M85.3706,-74.7687C75.1806,-80.5281 25.3187,-108.711 15.2956,-114.376"/>
</g>
<!-- 6 -->
<g id="node7" class="node"><title>6</title>
<ellipse fill="black" stroke="black" cx="1.8" cy="-56.6025" rx="1.8" ry="1.8"/>
</g>
<!-- 0&#45;&#45;6 -->
<g id="edge6" class="edge"><title>0&#45;&#45;6</title>
<path fill="none" stroke="black" d="M85.4077,-73.3817C74.2948,-71.1515 14.6579,-59.183 3.5737,-56.9585"/>
</g>
<!-- 7 -->
<g id="node8" class="node"><title>7</title>
<ellipse fill="black" stroke="black" cx="144.747" cy="-133.843" rx="1.8" ry="1.8"/>
</g>
<!-- 0&#45;&#45;7 -->
<g id="edge7" class="edge"><title>0&#45;&#45;7</title>
<path fill="none" stroke="black" d="M88.6139,-75.2253C96.5076,-83.4684 134.866,-123.525 143.162,-132.188"/>
</g>
<!-- 8 -->
<g id="node9" class="node"><title>8</title>
<ellipse fill="black" stroke="black" cx="118.199" cy="-1.8" rx="1.8" ry="1.8"/>
</g>
<!-- 0&#45;&#45;8 -->
<g id="edge8" class="edge"><title>0&#45;&#45;8</title>
<path fill="none" stroke="black" d="M87.9577,-71.9613C92.2476,-62.0083 113.239,-13.3061 117.459,-3.51613"/>
</g>
<!-- 1&#45;&#45;2 -->
<g id="edge9" class="edge"><title>1&#45;&#45;2</title>
<path fill="none" stroke="black" d="M62.5092,-109.101C61.9619,-99.7949 59.5356,-58.5445 58.9376,-48.3773"/>
</g>
<!-- 1&#45;&#45;3 -->
<g id="edge10" class="edge"><title>1&#45;&#45;3</title>
<path fill="none" stroke="black" d="M64.0676,-112.523C68.7886,-117.577 83.6892,-133.53 88.2304,-138.392"/>
</g>
<!-- 1&#45;&#45;4 -->
<g id="edge11" class="edge"><title>1&#45;&#45;4</title>
<path fill="none" stroke="black" d="M64.4517,-110.003C74.7074,-104.576 124.891,-78.0205 134.979,-72.6825"/>
</g>
<!-- 1&#45;&#45;5 -->
<g id="edge12" class="edge"><title>1&#45;&#45;5</title>
<path fill="none" stroke="black" d="M60.5104,-111.161C52.4371,-111.884 23.5499,-114.472 15.585,-115.185"/>
</g>
<!-- 1&#45;&#45;6 -->
<g id="edge13" class="edge"><title>1&#45;&#45;6</title>
<path fill="none" stroke="black" d="M61.1159,-109.628C52.7746,-102.171 12.2411,-65.9364 3.47419,-58.0992"/>
</g>
<!-- 1&#45;&#45;7 -->
<g id="edge14" class="edge"><title>1&#45;&#45;7</title>
<path fill="none" stroke="black" d="M64.6494,-111.538C76.0119,-114.702 131.611,-130.185 142.787,-133.297"/>
</g>
<!-- 2&#45;&#45;3 -->
<g id="edge15" class="edge"><title>2&#45;&#45;3</title>
<path fill="none" stroke="black" d="M59.4464,-48.064C63.4486,-60.2588 84.9263,-125.702 88.9183,-137.866"/>
</g>
<!-- 2&#45;&#45;4 -->
<g id="edge16" class="edge"><title>2&#45;&#45;4</title>
<path fill="none" stroke="black" d="M60.7308,-46.7406C71.5143,-50.2879 124.281,-67.6459 134.888,-71.1351"/>
</g>
<!-- 2&#45;&#45;5 -->
<g id="edge17" class="edge"><title>2&#45;&#45;5</title>
<path fill="none" stroke="black" d="M57.6851,-47.8189C51.477,-57.3181 21.3095,-103.478 14.7846,-113.462"/>
</g>
<!-- 2&#45;&#45;6 -->
<g id="edge18" class="edge"><title>2&#45;&#45;6</title>
<path fill="none" stroke="black" d="M56.9074,-46.456C48.2527,-48.0495 12.5521,-54.6228 3.76221,-56.2412"/>
</g>
<!-- 2&#45;&#45;8 -->
<g id="edge19" class="edge"><title>2&#45;&#45;8</title>
<path fill="none" stroke="black" d="M60.2723,-45.0116C68.4181,-38.9349 108.002,-9.40633 116.564,-3.01964"/>
</g>
<!-- 3&#45;&#45;4 -->
<g id="edge20" class="edge"><title>3&#45;&#45;4</title>
<path fill="none" stroke="black" d="M90.7235,-138.13C97.1956,-128.795 128.646,-83.4319 135.448,-73.6204"/>
</g>
<!-- 3&#45;&#45;5 -->
<g id="edge21" class="edge"><title>3&#45;&#45;5</title>
<path fill="none" stroke="black" d="M87.6779,-139.208C77.1606,-135.826 25.6971,-119.278 15.352,-115.952"/>
</g>
<!-- 3&#45;&#45;7 -->
<g id="edge22" class="edge"><title>3&#45;&#45;7</title>
<path fill="none" stroke="black" d="M91.3933,-139.614C99.7725,-138.707 134.337,-134.969 142.847,-134.048"/>
</g>
<!-- 4&#45;&#45;7 -->
<g id="edge23" class="edge"><title>4&#45;&#45;7</title>
<path fill="none" stroke="black" d="M136.978,-73.5382C138.125,-82.4469 143.213,-121.936 144.467,-131.669"/>
</g>
<!-- 4&#45;&#45;8 -->
<g id="edge24" class="edge"><title>4&#45;&#45;8</title>
<path fill="none" stroke="black" d="M136.212,-69.7288C133.503,-59.5147 121.331,-13.6125 118.701,-3.69354"/>
</g>
<!-- 5&#45;&#45;6 -->
<g id="edge25" class="edge"><title>5&#45;&#45;6</title>
<path fill="none" stroke="black" d="M13.148,-113.414C11.3658,-104.491 4.01414,-67.687 2.20407,-58.6254"/>
</g>
</g>
</svg>
