<?xml version="1.0" encoding="UTF-8" standalone="no"?>
<!DOCTYPE svg PUBLIC "-//W3C//DTD SVG 1.1//EN"
 "http://www.w3.org/Graphics/SVG/1.1/DTD/svg11.dtd">
<!-- Generated by graphviz version 2.36.0 (20140111.2315)
 -->
<!-- Title: %3 Pages: 1 -->
<svg width="288pt" height="213pt"
 viewBox="0.00 0.00 288.46 212.81" xmlns="http://www.w3.org/2000/svg" xmlns:xlink="http://www.w3.org/1999/xlink">
<g id="graph0" class="graph" transform="scale(1 1) rotate(0) translate(4 208.807)">
<title>%3</title>
<!-- 0 -->
<g id="node1" class="node"><title>0</title>
<ellipse fill="black" stroke="black" cx="131.459" cy="-91.7551" rx="1.8" ry="1.8"/>
</g>
<!-- 1 -->
<g id="node2" class="node"><title>1</title>
<ellipse fill="black" stroke="black" cx="69.5125" cy="-129.205" rx="1.8" ry="1.8"/>
</g>
<!-- 0&#45;&#45;1 -->
<g id="edge1" class="edge"><title>0&#45;&#45;1</title>
<path fill="none" stroke="black" d="M129.671,-92.8355C120.626,-98.3041 79.9738,-122.88 71.1895,-128.191"/>
</g>
<!-- 2 -->
<g id="node3" class="node"><title>2</title>
<ellipse fill="black" stroke="black" cx="60.5487" cy="-56.7207" rx="1.8" ry="1.8"/>
</g>
<!-- 0&#45;&#45;2 -->
<g id="edge2" class="edge"><title>0&#45;&#45;2</title>
<path fill="none" stroke="black" d="M129.706,-90.889C119.895,-86.042 71.8901,-62.3241 62.2402,-57.5564"/>
</g>
<!-- 3 -->
<g id="node4" class="node"><title>3</title>
<ellipse fill="black" stroke="black" cx="122.465" cy="-173.092" rx="1.8" ry="1.8"/>
</g>
<!-- 0&#45;&#45;3 -->
<g id="edge3" class="edge"><title>0&#45;&#45;3</title>
<path fill="none" stroke="black" d="M131.236,-93.7656C129.992,-105.019 123.903,-160.083 122.679,-171.152"/>
</g>
<!-- 4 -->
<g id="node5" class="node"><title>4</title>
<ellipse fill="black" stroke="black" cx="203.594" cy="-60.0933" rx="1.8" ry="1.8"/>
</g>
<!-- 0&#45;&#45;4 -->
<g id="edge4" class="edge"><title>0&#45;&#45;4</title>
<path fill="none" stroke="black" d="M133.242,-90.9724C143.222,-86.5919 192.056,-65.1573 201.873,-60.8486"/>
</g>
<!-- 1&#45;&#45;2 -->
<g id="edge5" class="edge"><title>1&#45;&#45;2</title>
<path fill="none" stroke="black" d="M69.291,-127.413C68.0616,-117.472 62.0875,-69.1643 60.7954,-58.716"/>
</g>
<!-- 1&#45;&#45;3 -->
<g id="edge6" class="edge"><title>1&#45;&#45;3</title>
<path fill="none" stroke="black" d="M71.2743,-130.665C79.4574,-137.447 113.669,-165.802 121.055,-171.924"/>
</g>
<!-- 6 -->
<g id="node6" class="node"><title>6</title>
<ellipse fill="black" stroke="black" cx="54.0095" cy="-203.007" rx="1.8" ry="1.8"/>
</g>
<!-- 1&#45;&#45;6 -->
<g id="edge7" class="edge"><title>1&#45;&#45;6</title>
<path fill="none" stroke="black" d="M69.1293,-131.029C67.0031,-141.151 56.6709,-190.337 54.4362,-200.976"/>
</g>
<!-- 8 -->
<g id="node7" class="node"><title>8</title>
<ellipse fill="black" stroke="black" cx="1.8" cy="-8.27182" rx="1.8" ry="1.8"/>
</g>
<!-- 2&#45;&#45;8 -->
<g id="edge8" class="edge"><title>2&#45;&#45;8</title>
<path fill="none" stroke="black" d="M59.0965,-55.5231C51.0391,-48.8784 11.8856,-16.5892 3.41719,-9.60549"/>
</g>
<!-- 3&#45;&#45;6 -->
<g id="edge9" class="edge"><title>3&#45;&#45;6</title>
<path fill="none" stroke="black" d="M120.773,-173.831C111.384,-177.934 65.7615,-197.872 55.8939,-202.184"/>
</g>
<!-- 5 -->
<g id="node8" class="node"><title>5</title>
<ellipse fill="black" stroke="black" cx="278.659" cy="-65.3334" rx="1.8" ry="1.8"/>
</g>
<!-- 4&#45;&#45;5 -->
<g id="edge10" class="edge"><title>4&#45;&#45;5</title>
<path fill="none" stroke="black" d="M205.449,-60.2228C215.744,-60.9415 265.772,-64.4338 276.593,-65.1892"/>
</g>
<!-- 7 -->
<g id="node9" class="node"><title>7</title>
<ellipse fill="black" stroke="black" cx="250.908" cy="-1.8" rx="1.8" ry="1.8"/>
</g>
<!-- 4&#45;&#45;7 -->
<g id="edge11" class="edge"><title>4&#45;&#45;7</title>
<path fill="none" stroke="black" d="M204.763,-58.6523C211.252,-50.6574 242.785,-11.8074 249.606,-3.40465"/>
</g>
<!-- 5&#45;&#45;7 -->
<g id="edge12" class="edge"><title>5&#45;&#45;7</title>
<path fill="none" stroke="black" d="M277.858,-63.5005C273.806,-54.2229 255.594,-12.5294 251.659,-3.51992"/>
</g>
</g>
</svg>
