<?xml version="1.0" encoding="UTF-8" standalone="no"?>
<!DOCTYPE svg PUBLIC "-//W3C//DTD SVG 1.1//EN"
 "http://www.w3.org/Graphics/SVG/1.1/DTD/svg11.dtd">
<!-- Generated by graphviz version 2.36.0 (20140111.2315)
 -->
<!-- Title: %3 Pages: 1 -->
<svg width="170pt" height="201pt"
 viewBox="0.00 0.00 169.94 201.28" xmlns="http://www.w3.org/2000/svg" xmlns:xlink="http://www.w3.org/1999/xlink">
<g id="graph0" class="graph" transform="scale(1 1) rotate(0) translate(4 197.284)">
<title>%3</title>
<!-- 0 -->
<g id="node1" class="node"><title>0</title>
<ellipse fill="black" stroke="black" cx="83.6157" cy="-131.384" rx="1.8" ry="1.8"/>
</g>
<!-- 1 -->
<g id="node2" class="node"><title>1</title>
<ellipse fill="black" stroke="black" cx="70.149" cy="-96.8989" rx="1.8" ry="1.8"/>
</g>
<!-- 0&#45;&#45;1 -->
<g id="edge1" class="edge"><title>0&#45;&#45;1</title>
<path fill="none" stroke="black" d="M82.8917,-129.53C80.5316,-123.486 73.0825,-104.411 70.8122,-98.5972"/>
</g>
<!-- 2 -->
<g id="node3" class="node"><title>2</title>
<ellipse fill="black" stroke="black" cx="33.8069" cy="-131.662" rx="1.8" ry="1.8"/>
</g>
<!-- 0&#45;&#45;2 -->
<g id="edge2" class="edge"><title>0&#45;&#45;2</title>
<path fill="none" stroke="black" d="M81.4755,-131.396C73.2825,-131.442 43.9667,-131.605 35.8837,-131.65"/>
</g>
<!-- 3 -->
<g id="node4" class="node"><title>3</title>
<ellipse fill="black" stroke="black" cx="115.478" cy="-74.8698" rx="1.8" ry="1.8"/>
</g>
<!-- 0&#45;&#45;3 -->
<g id="edge3" class="edge"><title>0&#45;&#45;3</title>
<path fill="none" stroke="black" d="M84.6759,-129.504C89.5135,-120.923 109.469,-85.5295 114.382,-76.8152"/>
</g>
<!-- 4 -->
<g id="node5" class="node"><title>4</title>
<ellipse fill="black" stroke="black" cx="111.269" cy="-164.465" rx="1.8" ry="1.8"/>
</g>
<!-- 0&#45;&#45;4 -->
<g id="edge4" class="edge"><title>0&#45;&#45;4</title>
<path fill="none" stroke="black" d="M84.804,-132.805C89.27,-138.148 105.041,-157.014 109.86,-162.779"/>
</g>
<!-- 5 -->
<g id="node6" class="node"><title>5</title>
<ellipse fill="black" stroke="black" cx="50.5851" cy="-191.484" rx="1.8" ry="1.8"/>
</g>
<!-- 0&#45;&#45;5 -->
<g id="edge5" class="edge"><title>0&#45;&#45;5</title>
<path fill="none" stroke="black" d="M82.6628,-133.118C77.8395,-141.894 56.1633,-181.335 51.4793,-189.857"/>
</g>
<!-- 6 -->
<g id="node7" class="node"><title>6</title>
<ellipse fill="black" stroke="black" cx="1.8" cy="-81.0528" rx="1.8" ry="1.8"/>
</g>
<!-- 0&#45;&#45;6 -->
<g id="edge6" class="edge"><title>0&#45;&#45;6</title>
<path fill="none" stroke="black" d="M81.9069,-130.333C71.2594,-123.783 14.1196,-88.6315 3.49944,-82.0982"/>
</g>
<!-- 7 -->
<g id="node8" class="node"><title>7</title>
<ellipse fill="black" stroke="black" cx="160.143" cy="-111.69" rx="1.8" ry="1.8"/>
</g>
<!-- 0&#45;&#45;7 -->
<g id="edge7" class="edge"><title>0&#45;&#45;7</title>
<path fill="none" stroke="black" d="M85.5074,-130.897C96.0951,-128.172 147.903,-114.84 158.317,-112.16"/>
</g>
<!-- 1&#45;&#45;2 -->
<g id="edge8" class="edge"><title>1&#45;&#45;2</title>
<path fill="none" stroke="black" d="M68.5874,-98.3926C62.6095,-104.111 41.2198,-124.571 35.3222,-130.212"/>
</g>
<!-- 1&#45;&#45;3 -->
<g id="edge9" class="edge"><title>1&#45;&#45;3</title>
<path fill="none" stroke="black" d="M72.0967,-95.9523C79.553,-92.3287 106.232,-79.3632 113.588,-75.7883"/>
</g>
<!-- 1&#45;&#45;4 -->
<g id="edge10" class="edge"><title>1&#45;&#45;4</title>
<path fill="none" stroke="black" d="M71.1655,-98.569C76.8051,-107.836 104.21,-152.866 110.138,-162.605"/>
</g>
<!-- 1&#45;&#45;5 -->
<g id="edge11" class="edge"><title>1&#45;&#45;5</title>
<path fill="none" stroke="black" d="M69.7404,-98.8744C67.1943,-111.184 53.531,-177.242 50.9915,-189.52"/>
</g>
<!-- 1&#45;&#45;6 -->
<g id="edge12" class="edge"><title>1&#45;&#45;6</title>
<path fill="none" stroke="black" d="M68.1771,-96.4417C58.1963,-94.1277 13.3426,-83.7288 3.65029,-81.4817"/>
</g>
<!-- 1&#45;&#45;7 -->
<g id="edge13" class="edge"><title>1&#45;&#45;7</title>
<path fill="none" stroke="black" d="M72.0286,-97.2078C83.7405,-99.1327 146.592,-109.463 158.273,-111.383"/>
</g>
<!-- 2&#45;&#45;3 -->
<g id="edge14" class="edge"><title>2&#45;&#45;3</title>
<path fill="none" stroke="black" d="M35.5127,-130.475C46.1415,-123.084 103.181,-83.4213 113.782,-76.0495"/>
</g>
<!-- 2&#45;&#45;4 -->
<g id="edge15" class="edge"><title>2&#45;&#45;4</title>
<path fill="none" stroke="black" d="M35.7217,-132.472C46.4388,-137.011 98.88,-159.219 109.422,-163.683"/>
</g>
<!-- 2&#45;&#45;5 -->
<g id="edge16" class="edge"><title>2&#45;&#45;5</title>
<path fill="none" stroke="black" d="M34.3651,-133.652C36.9125,-142.735 47.4204,-180.201 50.0076,-189.425"/>
</g>
<!-- 2&#45;&#45;6 -->
<g id="edge17" class="edge"><title>2&#45;&#45;6</title>
<path fill="none" stroke="black" d="M32.7419,-129.978C27.8825,-122.294 7.83715,-90.5986 2.90175,-82.7948"/>
</g>
<!-- 3&#45;&#45;4 -->
<g id="edge18" class="edge"><title>3&#45;&#45;4</title>
<path fill="none" stroke="black" d="M115.391,-76.7412C114.843,-88.4011 111.903,-150.974 111.357,-162.604"/>
</g>
<!-- 3&#45;&#45;7 -->
<g id="edge19" class="edge"><title>3&#45;&#45;7</title>
<path fill="none" stroke="black" d="M116.965,-76.0949C123.746,-81.6852 151.718,-104.745 158.605,-110.423"/>
</g>
<!-- 8 -->
<g id="node9" class="node"><title>8</title>
<ellipse fill="black" stroke="black" cx="144.121" cy="-1.8" rx="1.8" ry="1.8"/>
</g>
<!-- 3&#45;&#45;8 -->
<g id="edge20" class="edge"><title>3&#45;&#45;8</title>
<path fill="none" stroke="black" d="M116.186,-73.0636C120.149,-62.9542 139.539,-13.4869 143.437,-3.54309"/>
</g>
<!-- 4&#45;&#45;5 -->
<g id="edge21" class="edge"><title>4&#45;&#45;5</title>
<path fill="none" stroke="black" d="M109.519,-165.245C100.813,-169.121 62.2212,-186.304 52.7093,-190.539"/>
</g>
</g>
</svg>
