<?xml version="1.0" encoding="UTF-8" standalone="no"?>
<!DOCTYPE svg PUBLIC "-//W3C//DTD SVG 1.1//EN"
 "http://www.w3.org/Graphics/SVG/1.1/DTD/svg11.dtd">
<!-- Generated by graphviz version 2.36.0 (20140111.2315)
 -->
<!-- Title: %3 Pages: 1 -->
<svg width="174pt" height="153pt"
 viewBox="0.00 0.00 173.60 153.40" xmlns="http://www.w3.org/2000/svg" xmlns:xlink="http://www.w3.org/1999/xlink">
<g id="graph0" class="graph" transform="scale(1 1) rotate(0) translate(4 149.396)">
<title>%3</title>
<!-- 0 -->
<g id="node1" class="node"><title>0</title>
<ellipse fill="black" stroke="black" cx="88.8563" cy="-54.7688" rx="1.8" ry="1.8"/>
</g>
<!-- 1 -->
<g id="node2" class="node"><title>1</title>
<ellipse fill="black" stroke="black" cx="34.6757" cy="-83.1302" rx="1.8" ry="1.8"/>
</g>
<!-- 0&#45;&#45;1 -->
<g id="edge1" class="edge"><title>0&#45;&#45;1</title>
<path fill="none" stroke="black" d="M87.0536,-55.7124C78.8276,-60.0184 44.8953,-77.7806 36.5407,-82.1539"/>
</g>
<!-- 2 -->
<g id="node3" class="node"><title>2</title>
<ellipse fill="black" stroke="black" cx="66.7004" cy="-86.602" rx="1.8" ry="1.8"/>
</g>
<!-- 0&#45;&#45;2 -->
<g id="edge2" class="edge"><title>0&#45;&#45;2</title>
<path fill="none" stroke="black" d="M87.6651,-56.4803C83.7822,-62.0592 71.5267,-79.6678 67.7916,-85.0342"/>
</g>
<!-- 3 -->
<g id="node4" class="node"><title>3</title>
<ellipse fill="black" stroke="black" cx="97.648" cy="-138.927" rx="1.8" ry="1.8"/>
</g>
<!-- 0&#45;&#45;3 -->
<g id="edge3" class="edge"><title>0&#45;&#45;3</title>
<path fill="none" stroke="black" d="M89.0736,-56.8491C90.29,-68.4926 96.2418,-125.467 97.4382,-136.92"/>
</g>
<!-- 4 -->
<g id="node5" class="node"><title>4</title>
<ellipse fill="black" stroke="black" cx="135.943" cy="-90.5245" rx="1.8" ry="1.8"/>
</g>
<!-- 0&#45;&#45;4 -->
<g id="edge4" class="edge"><title>0&#45;&#45;4</title>
<path fill="none" stroke="black" d="M90.423,-55.9584C97.5719,-61.3871 127.061,-83.7802 134.322,-89.2937"/>
</g>
<!-- 5 -->
<g id="node6" class="node"><title>5</title>
<ellipse fill="black" stroke="black" cx="37.9293" cy="-143.596" rx="1.8" ry="1.8"/>
</g>
<!-- 0&#45;&#45;5 -->
<g id="edge5" class="edge"><title>0&#45;&#45;5</title>
<path fill="none" stroke="black" d="M87.7926,-56.624C81.165,-68.1841 45.5978,-130.221 38.9872,-141.751"/>
</g>
<!-- 6 -->
<g id="node7" class="node"><title>6</title>
<ellipse fill="black" stroke="black" cx="1.8" cy="-36.8414" rx="1.8" ry="1.8"/>
</g>
<!-- 0&#45;&#45;6 -->
<g id="edge6" class="edge"><title>0&#45;&#45;6</title>
<path fill="none" stroke="black" d="M87.038,-54.3943C75.7085,-52.0612 14.9087,-39.5408 3.60829,-37.2138"/>
</g>
<!-- 7 -->
<g id="node8" class="node"><title>7</title>
<ellipse fill="black" stroke="black" cx="54.0689" cy="-1.8" rx="1.8" ry="1.8"/>
</g>
<!-- 0&#45;&#45;7 -->
<g id="edge7" class="edge"><title>0&#45;&#45;7</title>
<path fill="none" stroke="black" d="M87.6989,-53.0064C82.4173,-44.9644 60.6305,-11.791 55.2664,-3.6233"/>
</g>
<!-- 8 -->
<g id="node9" class="node"><title>8</title>
<ellipse fill="black" stroke="black" cx="163.803" cy="-26.6605" rx="1.8" ry="1.8"/>
</g>
<!-- 0&#45;&#45;8 -->
<g id="edge8" class="edge"><title>0&#45;&#45;8</title>
<path fill="none" stroke="black" d="M90.7089,-54.0739C101.078,-50.1851 151.816,-31.1562 162.015,-27.331"/>
</g>
<!-- 1&#45;&#45;2 -->
<g id="edge9" class="edge"><title>1&#45;&#45;2</title>
<path fill="none" stroke="black" d="M36.7769,-83.358C42.677,-83.9976 59.3264,-85.8026 64.8753,-86.4041"/>
</g>
<!-- 1&#45;&#45;3 -->
<g id="edge10" class="edge"><title>1&#45;&#45;3</title>
<path fill="none" stroke="black" d="M36.2323,-84.5094C44.8689,-92.162 86.8373,-129.349 95.9145,-137.392"/>
</g>
<!-- 1&#45;&#45;4 -->
<g id="edge11" class="edge"><title>1&#45;&#45;4</title>
<path fill="none" stroke="black" d="M36.7908,-83.2846C49.9698,-84.2469 120.694,-89.411 133.839,-90.3709"/>
</g>
<!-- 1&#45;&#45;5 -->
<g id="edge12" class="edge"><title>1&#45;&#45;5</title>
<path fill="none" stroke="black" d="M34.784,-85.142C35.2779,-94.3223 37.3156,-132.191 37.8173,-141.515"/>
</g>
<!-- 1&#45;&#45;6 -->
<g id="edge13" class="edge"><title>1&#45;&#45;6</title>
<path fill="none" stroke="black" d="M33.5819,-81.5901C28.5905,-74.5622 8.00103,-45.5724 2.93166,-38.4347"/>
</g>
<!-- 1&#45;&#45;7 -->
<g id="edge14" class="edge"><title>1&#45;&#45;7</title>
<path fill="none" stroke="black" d="M35.1551,-81.1198C37.8382,-69.8676 50.9672,-14.808 53.6063,-3.74015"/>
</g>
<!-- 2&#45;&#45;3 -->
<g id="edge15" class="edge"><title>2&#45;&#45;3</title>
<path fill="none" stroke="black" d="M67.7301,-88.343C72.4288,-96.2873 91.8106,-129.058 96.5827,-137.126"/>
</g>
<!-- 2&#45;&#45;4 -->
<g id="edge16" class="edge"><title>2&#45;&#45;4</title>
<path fill="none" stroke="black" d="M68.6981,-86.7152C78.8094,-87.2879 124.249,-89.862 134.068,-90.4183"/>
</g>
<!-- 2&#45;&#45;5 -->
<g id="edge17" class="edge"><title>2&#45;&#45;5</title>
<path fill="none" stroke="black" d="M65.7432,-88.4983C61.375,-97.1515 43.3562,-132.846 38.9197,-141.634"/>
</g>
<!-- 2&#45;&#45;6 -->
<g id="edge18" class="edge"><title>2&#45;&#45;6</title>
<path fill="none" stroke="black" d="M65.0962,-85.3719C56.1951,-78.5473 12.9417,-45.384 3.58653,-38.2112"/>
</g>
<!-- 2&#45;&#45;7 -->
<g id="edge19" class="edge"><title>2&#45;&#45;7</title>
<path fill="none" stroke="black" d="M66.3882,-84.5058C64.6406,-72.7732 56.0892,-15.3633 54.3703,-3.82297"/>
</g>
<!-- 3&#45;&#45;4 -->
<g id="edge20" class="edge"><title>3&#45;&#45;4</title>
<path fill="none" stroke="black" d="M98.9221,-137.317C104.736,-129.968 128.72,-99.6543 134.625,-92.1906"/>
</g>
<!-- 3&#45;&#45;5 -->
<g id="edge21" class="edge"><title>3&#45;&#45;5</title>
<path fill="none" stroke="black" d="M95.661,-139.083C86.5942,-139.792 49.1935,-142.715 39.985,-143.435"/>
</g>
<!-- 4&#45;&#45;8 -->
<g id="edge22" class="edge"><title>4&#45;&#45;8</title>
<path fill="none" stroke="black" d="M136.747,-88.682C140.815,-79.3561 159.098,-37.4457 163.049,-28.3894"/>
</g>
</g>
</svg>
