<?xml version="1.0" encoding="UTF-8" standalone="no"?>
<!DOCTYPE svg PUBLIC "-//W3C//DTD SVG 1.1//EN"
 "http://www.w3.org/Graphics/SVG/1.1/DTD/svg11.dtd">
<!-- Generated by graphviz version 2.36.0 (20140111.2315)
 -->
<!-- Title: %3 Pages: 1 -->
<svg width="181pt" height="172pt"
 viewBox="0.00 0.00 180.71 171.54" xmlns="http://www.w3.org/2000/svg" xmlns:xlink="http://www.w3.org/1999/xlink">
<g id="graph0" class="graph" transform="scale(1 1) rotate(0) translate(4 167.536)">
<title>%3</title>
<!-- 0 -->
<g id="node1" class="node"><title>0</title>
<ellipse fill="black" stroke="black" cx="84.9788" cy="-80.0386" rx="1.8" ry="1.8"/>
</g>
<!-- 1 -->
<g id="node2" class="node"><title>1</title>
<ellipse fill="black" stroke="black" cx="121.151" cy="-152.059" rx="1.8" ry="1.8"/>
</g>
<!-- 0&#45;&#45;1 -->
<g id="edge1" class="edge"><title>0&#45;&#45;1</title>
<path fill="none" stroke="black" d="M85.8729,-81.8189C90.8773,-91.783 115.365,-140.54 120.288,-150.341"/>
</g>
<!-- 2 -->
<g id="node3" class="node"><title>2</title>
<ellipse fill="black" stroke="black" cx="120.553" cy="-21.8896" rx="1.8" ry="1.8"/>
</g>
<!-- 0&#45;&#45;2 -->
<g id="edge2" class="edge"><title>0&#45;&#45;2</title>
<path fill="none" stroke="black" d="M86.1624,-78.1038C91.6599,-69.1177 114.644,-31.5482 119.606,-23.4374"/>
</g>
<!-- 3 -->
<g id="node4" class="node"><title>3</title>
<ellipse fill="black" stroke="black" cx="146.426" cy="-103.787" rx="1.8" ry="1.8"/>
</g>
<!-- 0&#45;&#45;3 -->
<g id="edge3" class="edge"><title>0&#45;&#45;3</title>
<path fill="none" stroke="black" d="M86.7515,-80.7237C95.567,-84.1307 134.643,-99.2332 144.275,-102.956"/>
</g>
<!-- 4 -->
<g id="node5" class="node"><title>4</title>
<ellipse fill="black" stroke="black" cx="84.216" cy="-161.736" rx="1.8" ry="1.8"/>
</g>
<!-- 0&#45;&#45;4 -->
<g id="edge4" class="edge"><title>0&#45;&#45;4</title>
<path fill="none" stroke="black" d="M84.9599,-82.0581C84.8544,-93.361 84.338,-148.669 84.2342,-159.787"/>
</g>
<!-- 5 -->
<g id="node6" class="node"><title>5</title>
<ellipse fill="black" stroke="black" cx="33.5661" cy="-132.899" rx="1.8" ry="1.8"/>
</g>
<!-- 0&#45;&#45;5 -->
<g id="edge5" class="edge"><title>0&#45;&#45;5</title>
<path fill="none" stroke="black" d="M83.7079,-81.3452C76.6567,-88.595 42.3923,-123.824 34.9814,-131.444"/>
</g>
<!-- 6 -->
<g id="node7" class="node"><title>6</title>
<ellipse fill="black" stroke="black" cx="1.8" cy="-76.0156" rx="1.8" ry="1.8"/>
</g>
<!-- 0&#45;&#45;6 -->
<g id="edge6" class="edge"><title>0&#45;&#45;6</title>
<path fill="none" stroke="black" d="M82.9226,-79.9391C71.4147,-79.3825 15.1037,-76.659 3.78424,-76.1115"/>
</g>
<!-- 7 -->
<g id="node8" class="node"><title>7</title>
<ellipse fill="black" stroke="black" cx="170.912" cy="-41.8159" rx="1.8" ry="1.8"/>
</g>
<!-- 0&#45;&#45;7 -->
<g id="edge7" class="edge"><title>0&#45;&#45;7</title>
<path fill="none" stroke="black" d="M86.7736,-79.2402C97.957,-74.2659 157.973,-47.5713 169.127,-42.6098"/>
</g>
<!-- 8 -->
<g id="node9" class="node"><title>8</title>
<ellipse fill="black" stroke="black" cx="58.7693" cy="-1.8" rx="1.8" ry="1.8"/>
</g>
<!-- 0&#45;&#45;8 -->
<g id="edge8" class="edge"><title>0&#45;&#45;8</title>
<path fill="none" stroke="black" d="M84.3309,-78.1046C80.7048,-67.2801 62.9613,-14.3136 59.3945,-3.6664"/>
</g>
<!-- 1&#45;&#45;3 -->
<g id="edge9" class="edge"><title>1&#45;&#45;3</title>
<path fill="none" stroke="black" d="M121.992,-150.453C125.829,-143.124 141.658,-112.892 145.556,-105.448"/>
</g>
<!-- 1&#45;&#45;4 -->
<g id="edge10" class="edge"><title>1&#45;&#45;4</title>
<path fill="none" stroke="black" d="M119.165,-152.579C112.692,-154.275 92.2615,-159.628 86.035,-161.259"/>
</g>
<!-- 1&#45;&#45;5 -->
<g id="edge11" class="edge"><title>1&#45;&#45;5</title>
<path fill="none" stroke="black" d="M119.321,-151.659C107.923,-149.165 46.7543,-135.784 35.3854,-133.297"/>
</g>
<!-- 2&#45;&#45;3 -->
<g id="edge12" class="edge"><title>2&#45;&#45;3</title>
<path fill="none" stroke="black" d="M121.192,-23.914C124.772,-35.2447 142.287,-90.6881 145.808,-101.833"/>
</g>
<!-- 2&#45;&#45;7 -->
<g id="edge13" class="edge"><title>2&#45;&#45;7</title>
<path fill="none" stroke="black" d="M122.228,-22.5526C129.874,-25.5779 161.413,-38.0574 169.179,-41.13"/>
</g>
<!-- 2&#45;&#45;8 -->
<g id="edge14" class="edge"><title>2&#45;&#45;8</title>
<path fill="none" stroke="black" d="M118.77,-21.31C109.906,-18.4278 70.6161,-5.65212 60.932,-2.50322"/>
</g>
<!-- 3&#45;&#45;4 -->
<g id="edge15" class="edge"><title>3&#45;&#45;4</title>
<path fill="none" stroke="black" d="M144.888,-105.219C136.356,-113.167 94.8958,-151.788 85.9285,-160.141"/>
</g>
<!-- 5&#45;&#45;6 -->
<g id="edge16" class="edge"><title>5&#45;&#45;6</title>
<path fill="none" stroke="black" d="M32.5092,-131.006C27.6863,-122.37 7.79174,-86.745 2.89346,-77.9736"/>
</g>
</g>
</svg>
