<?xml version="1.0" encoding="UTF-8" standalone="no"?>
<!DOCTYPE svg PUBLIC "-//W3C//DTD SVG 1.1//EN"
 "http://www.w3.org/Graphics/SVG/1.1/DTD/svg11.dtd">
<!-- Generated by graphviz version 2.36.0 (20140111.2315)
 -->
<!-- Title: %3 Pages: 1 -->
<svg width="174pt" height="286pt"
 viewBox="0.00 0.00 174.17 285.59" xmlns="http://www.w3.org/2000/svg" xmlns:xlink="http://www.w3.org/1999/xlink">
<g id="graph0" class="graph" transform="scale(1 1) rotate(0) translate(4 281.586)">
<title>%3</title>
<!-- 0 -->
<g id="node1" class="node"><title>0</title>
<ellipse fill="black" stroke="black" cx="111.734" cy="-191.244" rx="1.8" ry="1.8"/>
</g>
<!-- 1 -->
<g id="node2" class="node"><title>1</title>
<ellipse fill="black" stroke="black" cx="156.161" cy="-263.711" rx="1.8" ry="1.8"/>
</g>
<!-- 0&#45;&#45;1 -->
<g id="edge1" class="edge"><title>0&#45;&#45;1</title>
<path fill="none" stroke="black" d="M112.832,-193.036C118.979,-203.061 149.056,-252.12 155.101,-261.982"/>
</g>
<!-- 2 -->
<g id="node3" class="node"><title>2</title>
<ellipse fill="black" stroke="black" cx="164.372" cy="-218.954" rx="1.8" ry="1.8"/>
</g>
<!-- 0&#45;&#45;2 -->
<g id="edge2" class="edge"><title>0&#45;&#45;2</title>
<path fill="none" stroke="black" d="M113.485,-192.166C121.477,-196.373 154.443,-213.728 162.56,-218"/>
</g>
<!-- 3 -->
<g id="node4" class="node"><title>3</title>
<ellipse fill="black" stroke="black" cx="78.936" cy="-240.975" rx="1.8" ry="1.8"/>
</g>
<!-- 0&#45;&#45;3 -->
<g id="edge3" class="edge"><title>0&#45;&#45;3</title>
<path fill="none" stroke="black" d="M110.643,-192.899C105.663,-200.449 85.1224,-231.595 80.065,-239.263"/>
</g>
<!-- 4 -->
<g id="node5" class="node"><title>4</title>
<ellipse fill="black" stroke="black" cx="108.751" cy="-275.786" rx="1.8" ry="1.8"/>
</g>
<!-- 0&#45;&#45;4 -->
<g id="edge4" class="edge"><title>0&#45;&#45;4</title>
<path fill="none" stroke="black" d="M111.66,-193.334C111.247,-205.031 109.228,-262.264 108.823,-273.769"/>
</g>
<!-- 6 -->
<g id="node6" class="node"><title>6</title>
<ellipse fill="black" stroke="black" cx="97.083" cy="-114.83" rx="1.8" ry="1.8"/>
</g>
<!-- 0&#45;&#45;6 -->
<g id="edge5" class="edge"><title>0&#45;&#45;6</title>
<path fill="none" stroke="black" d="M111.372,-189.355C109.345,-178.783 99.4263,-127.052 97.4325,-116.653"/>
</g>
<!-- 1&#45;&#45;2 -->
<g id="edge6" class="edge"><title>1&#45;&#45;2</title>
<path fill="none" stroke="black" d="M156.514,-261.788C157.865,-254.426 162.697,-228.084 164.029,-220.82"/>
</g>
<!-- 1&#45;&#45;3 -->
<g id="edge7" class="edge"><title>1&#45;&#45;3</title>
<path fill="none" stroke="black" d="M154.252,-263.149C143.568,-260.003 91.2875,-244.611 80.7783,-241.517"/>
</g>
<!-- 1&#45;&#45;4 -->
<g id="edge8" class="edge"><title>1&#45;&#45;4</title>
<path fill="none" stroke="black" d="M154.124,-264.23C146.326,-266.216 118.422,-273.323 110.728,-275.282"/>
</g>
<!-- 2&#45;&#45;3 -->
<g id="edge9" class="edge"><title>2&#45;&#45;3</title>
<path fill="none" stroke="black" d="M162.587,-219.414C151.469,-222.28 91.8007,-237.659 80.7107,-240.517"/>
</g>
<!-- 2&#45;&#45;4 -->
<g id="edge10" class="edge"><title>2&#45;&#45;4</title>
<path fill="none" stroke="black" d="M162.997,-220.359C155.369,-228.154 118.3,-266.029 110.282,-274.221"/>
</g>
<!-- 3&#45;&#45;4 -->
<g id="edge11" class="edge"><title>3&#45;&#45;4</title>
<path fill="none" stroke="black" d="M80.2172,-242.471C85.1215,-248.197 102.67,-268.685 107.508,-274.334"/>
</g>
<!-- 7 -->
<g id="node8" class="node"><title>7</title>
<ellipse fill="black" stroke="black" cx="128.607" cy="-46.6488" rx="1.8" ry="1.8"/>
</g>
<!-- 6&#45;&#45;7 -->
<g id="edge15" class="edge"><title>6&#45;&#45;7</title>
<path fill="none" stroke="black" d="M97.8623,-113.145C102.186,-103.794 123.195,-58.3538 127.739,-48.5256"/>
</g>
<!-- 5 -->
<g id="node7" class="node"><title>5</title>
<ellipse fill="black" stroke="black" cx="56.4697" cy="-52.5675" rx="1.8" ry="1.8"/>
</g>
<!-- 5&#45;&#45;6 -->
<g id="edge12" class="edge"><title>5&#45;&#45;6</title>
<path fill="none" stroke="black" d="M57.4736,-54.1066C63.0437,-62.6459 90.1108,-104.141 95.9651,-113.116"/>
</g>
<!-- 5&#45;&#45;7 -->
<g id="edge13" class="edge"><title>5&#45;&#45;7</title>
<path fill="none" stroke="black" d="M58.5508,-52.3968C69.0848,-51.5325 116.424,-47.6483 126.654,-46.809"/>
</g>
<!-- 8 -->
<g id="node9" class="node"><title>8</title>
<ellipse fill="black" stroke="black" cx="1.8" cy="-1.8" rx="1.8" ry="1.8"/>
</g>
<!-- 5&#45;&#45;8 -->
<g id="edge14" class="edge"><title>5&#45;&#45;8</title>
<path fill="none" stroke="black" d="M55.1183,-51.3126C47.6204,-44.3499 11.1854,-10.5155 3.3049,-3.19749"/>
</g>
</g>
</svg>
