<?xml version="1.0" encoding="UTF-8" standalone="no"?>
<!DOCTYPE svg PUBLIC "-//W3C//DTD SVG 1.1//EN"
 "http://www.w3.org/Graphics/SVG/1.1/DTD/svg11.dtd">
<!-- Generated by graphviz version 2.36.0 (20140111.2315)
 -->
<!-- Title: %3 Pages: 1 -->
<svg width="151pt" height="187pt"
 viewBox="0.00 0.00 151.03 186.95" xmlns="http://www.w3.org/2000/svg" xmlns:xlink="http://www.w3.org/1999/xlink">
<g id="graph0" class="graph" transform="scale(1 1) rotate(0) translate(4 182.95)">
<title>%3</title>
<!-- 0 -->
<g id="node1" class="node"><title>0</title>
<ellipse fill="black" stroke="black" cx="82.0224" cy="-91.4034" rx="1.8" ry="1.8"/>
</g>
<!-- 1 -->
<g id="node2" class="node"><title>1</title>
<ellipse fill="black" stroke="black" cx="60.0468" cy="-133.735" rx="1.8" ry="1.8"/>
</g>
<!-- 0&#45;&#45;1 -->
<g id="edge1" class="edge"><title>0&#45;&#45;1</title>
<path fill="none" stroke="black" d="M81.0781,-93.2224C77.4634,-100.186 64.5293,-125.101 60.9631,-131.97"/>
</g>
<!-- 2 -->
<g id="node3" class="node"><title>2</title>
<ellipse fill="black" stroke="black" cx="37.3617" cy="-64.191" rx="1.8" ry="1.8"/>
</g>
<!-- 0&#45;&#45;2 -->
<g id="edge2" class="edge"><title>0&#45;&#45;2</title>
<path fill="none" stroke="black" d="M80.1034,-90.2342C72.7572,-85.758 46.4714,-69.7417 39.2238,-65.3256"/>
</g>
<!-- 3 -->
<g id="node4" class="node"><title>3</title>
<ellipse fill="black" stroke="black" cx="89.0051" cy="-177.15" rx="1.8" ry="1.8"/>
</g>
<!-- 0&#45;&#45;3 -->
<g id="edge3" class="edge"><title>0&#45;&#45;3</title>
<path fill="none" stroke="black" d="M82.195,-93.523C83.1611,-105.386 87.8883,-163.436 88.8385,-175.105"/>
</g>
<!-- 4 -->
<g id="node5" class="node"><title>4</title>
<ellipse fill="black" stroke="black" cx="92.7038" cy="-29.3694" rx="1.8" ry="1.8"/>
</g>
<!-- 0&#45;&#45;4 -->
<g id="edge4" class="edge"><title>0&#45;&#45;4</title>
<path fill="none" stroke="black" d="M82.3306,-89.6138C83.863,-80.714 90.6556,-41.2642 92.3299,-31.5408"/>
</g>
<!-- 5 -->
<g id="node6" class="node"><title>5</title>
<ellipse fill="black" stroke="black" cx="14.5407" cy="-148.726" rx="1.8" ry="1.8"/>
</g>
<!-- 0&#45;&#45;5 -->
<g id="edge5" class="edge"><title>0&#45;&#45;5</title>
<path fill="none" stroke="black" d="M80.3543,-92.8204C70.9369,-100.82 24.5366,-140.235 15.9193,-147.555"/>
</g>
<!-- 6 -->
<g id="node7" class="node"><title>6</title>
<ellipse fill="black" stroke="black" cx="1.8" cy="-74.653" rx="1.8" ry="1.8"/>
</g>
<!-- 0&#45;&#45;6 -->
<g id="edge6" class="edge"><title>0&#45;&#45;6</title>
<path fill="none" stroke="black" d="M80.0394,-90.9894C68.9405,-88.6719 14.6309,-77.3321 3.71372,-75.0526"/>
</g>
<!-- 7 -->
<g id="node8" class="node"><title>7</title>
<ellipse fill="black" stroke="black" cx="141.23" cy="-135.384" rx="1.8" ry="1.8"/>
</g>
<!-- 0&#45;&#45;7 -->
<g id="edge7" class="edge"><title>0&#45;&#45;7</title>
<path fill="none" stroke="black" d="M83.486,-92.4906C91.6063,-98.5226 131.066,-127.834 139.6,-134.174"/>
</g>
<!-- 8 -->
<g id="node9" class="node"><title>8</title>
<ellipse fill="black" stroke="black" cx="52.8789" cy="-1.8" rx="1.8" ry="1.8"/>
</g>
<!-- 0&#45;&#45;8 -->
<g id="edge8" class="edge"><title>0&#45;&#45;8</title>
<path fill="none" stroke="black" d="M81.4137,-89.532C77.621,-77.8709 57.2672,-15.2922 53.4843,-3.6612"/>
</g>
<!-- 1&#45;&#45;2 -->
<g id="edge9" class="edge"><title>1&#45;&#45;2</title>
<path fill="none" stroke="black" d="M59.486,-132.016C56.3748,-122.478 41.2561,-76.13 37.9861,-66.1054"/>
</g>
<!-- 1&#45;&#45;3 -->
<g id="edge10" class="edge"><title>1&#45;&#45;3</title>
<path fill="none" stroke="black" d="M61.2911,-135.601C66.0544,-142.742 83.0983,-168.295 87.7976,-175.34"/>
</g>
<!-- 1&#45;&#45;5 -->
<g id="edge11" class="edge"><title>1&#45;&#45;5</title>
<path fill="none" stroke="black" d="M58.0915,-134.38C50.6062,-136.845 23.8229,-145.669 16.4381,-148.101"/>
</g>
<!-- 1&#45;&#45;6 -->
<g id="edge12" class="edge"><title>1&#45;&#45;6</title>
<path fill="none" stroke="black" d="M58.607,-132.275C50.6185,-124.172 11.7995,-84.7959 3.40337,-76.2794"/>
</g>
<!-- 1&#45;&#45;7 -->
<g id="edge13" class="edge"><title>1&#45;&#45;7</title>
<path fill="none" stroke="black" d="M62.0536,-133.776C73.2855,-134.004 128.246,-135.121 139.293,-135.345"/>
</g>
<!-- 2&#45;&#45;4 -->
<g id="edge14" class="edge"><title>2&#45;&#45;4</title>
<path fill="none" stroke="black" d="M39.203,-63.0324C47.6054,-57.7456 82.2651,-35.9375 90.7988,-30.568"/>
</g>
<!-- 2&#45;&#45;5 -->
<g id="edge15" class="edge"><title>2&#45;&#45;5</title>
<path fill="none" stroke="black" d="M36.885,-65.9566C33.9151,-76.9581 17.977,-135.997 15.0147,-146.97"/>
</g>
<!-- 2&#45;&#45;6 -->
<g id="edge16" class="edge"><title>2&#45;&#45;6</title>
<path fill="none" stroke="black" d="M35.4497,-64.7535C29.2173,-66.587 9.54639,-72.3741 3.55138,-74.1378"/>
</g>
<!-- 2&#45;&#45;8 -->
<g id="edge17" class="edge"><title>2&#45;&#45;8</title>
<path fill="none" stroke="black" d="M37.8093,-62.391C40.0355,-53.4401 49.9035,-13.7633 52.3357,-3.98395"/>
</g>
<!-- 3&#45;&#45;5 -->
<g id="edge18" class="edge"><title>3&#45;&#45;5</title>
<path fill="none" stroke="black" d="M87.1644,-176.448C76.8621,-172.515 26.4506,-153.273 16.3171,-149.404"/>
</g>
<!-- 3&#45;&#45;7 -->
<g id="edge19" class="edge"><title>3&#45;&#45;7</title>
<path fill="none" stroke="black" d="M90.7427,-175.761C98.6718,-169.419 131.379,-143.262 139.432,-136.822"/>
</g>
<!-- 4&#45;&#45;6 -->
<g id="edge20" class="edge"><title>4&#45;&#45;6</title>
<path fill="none" stroke="black" d="M90.8051,-30.3152C78.9748,-36.2084 15.488,-67.8343 3.68821,-73.7124"/>
</g>
<!-- 4&#45;&#45;8 -->
<g id="edge21" class="edge"><title>4&#45;&#45;8</title>
<path fill="none" stroke="black" d="M90.9925,-28.1848C84.4418,-23.6499 61.0022,-7.42351 54.5394,-2.94952"/>
</g>
</g>
</svg>
