<?xml version="1.0" encoding="UTF-8" standalone="no"?>
<!DOCTYPE svg PUBLIC "-//W3C//DTD SVG 1.1//EN"
 "http://www.w3.org/Graphics/SVG/1.1/DTD/svg11.dtd">
<!-- Generated by graphviz version 2.36.0 (20140111.2315)
 -->
<!-- Title: %3 Pages: 1 -->
<svg width="167pt" height="166pt"
 viewBox="0.00 0.00 166.71 165.93" xmlns="http://www.w3.org/2000/svg" xmlns:xlink="http://www.w3.org/1999/xlink">
<g id="graph0" class="graph" transform="scale(1 1) rotate(0) translate(4 161.933)">
<title>%3</title>
<!-- 0 -->
<g id="node1" class="node"><title>0</title>
<ellipse fill="black" stroke="black" cx="36.0048" cy="-87.771" rx="1.8" ry="1.8"/>
</g>
<!-- 1 -->
<g id="node2" class="node"><title>1</title>
<ellipse fill="black" stroke="black" cx="101.612" cy="-89.3858" rx="1.8" ry="1.8"/>
</g>
<!-- 0&#45;&#45;1 -->
<g id="edge1" class="edge"><title>0&#45;&#45;1</title>
<path fill="none" stroke="black" d="M37.8976,-87.8176C47.31,-88.0493 89.0323,-89.0762 99.3159,-89.3293"/>
</g>
<!-- 2 -->
<g id="node3" class="node"><title>2</title>
<ellipse fill="black" stroke="black" cx="75.894" cy="-61.5726" rx="1.8" ry="1.8"/>
</g>
<!-- 0&#45;&#45;2 -->
<g id="edge2" class="edge"><title>0&#45;&#45;2</title>
<path fill="none" stroke="black" d="M37.7188,-86.6453C44.2802,-82.336 67.7576,-66.9165 74.2308,-62.665"/>
</g>
<!-- 3 -->
<g id="node4" class="node"><title>3</title>
<ellipse fill="black" stroke="black" cx="27.1255" cy="-131.236" rx="1.8" ry="1.8"/>
</g>
<!-- 0&#45;&#45;3 -->
<g id="edge3" class="edge"><title>0&#45;&#45;3</title>
<path fill="none" stroke="black" d="M35.6233,-89.6387C34.1627,-96.7883 28.9367,-122.37 27.4957,-129.424"/>
</g>
<!-- 4 -->
<g id="node5" class="node"><title>4</title>
<ellipse fill="black" stroke="black" cx="104.858" cy="-128.711" rx="1.8" ry="1.8"/>
</g>
<!-- 0&#45;&#45;4 -->
<g id="edge4" class="edge"><title>0&#45;&#45;4</title>
<path fill="none" stroke="black" d="M37.7068,-88.7831C47.15,-94.398 93.038,-121.683 102.963,-127.584"/>
</g>
<!-- 5 -->
<g id="node6" class="node"><title>5</title>
<ellipse fill="black" stroke="black" cx="75.1998" cy="-156.133" rx="1.8" ry="1.8"/>
</g>
<!-- 0&#45;&#45;5 -->
<g id="edge5" class="edge"><title>0&#45;&#45;5</title>
<path fill="none" stroke="black" d="M36.9737,-89.4609C42.3492,-98.8367 68.471,-144.397 74.1208,-154.251"/>
</g>
<!-- 6 -->
<g id="node7" class="node"><title>6</title>
<ellipse fill="black" stroke="black" cx="9.06989" cy="-57.1806" rx="1.8" ry="1.8"/>
</g>
<!-- 0&#45;&#45;6 -->
<g id="edge6" class="edge"><title>0&#45;&#45;6</title>
<path fill="none" stroke="black" d="M34.5567,-86.1264C29.8362,-80.7652 14.9371,-63.8441 10.3964,-58.6872"/>
</g>
<!-- 8 -->
<g id="node8" class="node"><title>8</title>
<ellipse fill="black" stroke="black" cx="1.8" cy="-1.8" rx="1.8" ry="1.8"/>
</g>
<!-- 0&#45;&#45;8 -->
<g id="edge7" class="edge"><title>0&#45;&#45;8</title>
<path fill="none" stroke="black" d="M35.2904,-85.9754C30.839,-74.7871 6.95046,-14.7453 2.51049,-3.58575"/>
</g>
<!-- 1&#45;&#45;2 -->
<g id="edge8" class="edge"><title>1&#45;&#45;2</title>
<path fill="none" stroke="black" d="M100.23,-87.8905C95.7224,-83.016 81.4963,-67.6312 77.1607,-62.9424"/>
</g>
<!-- 1&#45;&#45;3 -->
<g id="edge9" class="edge"><title>1&#45;&#45;3</title>
<path fill="none" stroke="black" d="M99.7711,-90.4203C89.4657,-96.2104 39.039,-124.543 28.9024,-130.238"/>
</g>
<!-- 1&#45;&#45;4 -->
<g id="edge10" class="edge"><title>1&#45;&#45;4</title>
<path fill="none" stroke="black" d="M101.787,-91.5001C102.356,-98.3921 104.151,-120.145 104.698,-126.775"/>
</g>
<!-- 1&#45;&#45;5 -->
<g id="edge11" class="edge"><title>1&#45;&#45;5</title>
<path fill="none" stroke="black" d="M100.85,-91.3114C96.9934,-101.058 79.6603,-144.861 75.9148,-154.326"/>
</g>
<!-- 1&#45;&#45;6 -->
<g id="edge12" class="edge"><title>1&#45;&#45;6</title>
<path fill="none" stroke="black" d="M99.6795,-88.7132C87.636,-84.522 23.0047,-62.03 10.9921,-57.8496"/>
</g>
<!-- 7 -->
<g id="node9" class="node"><title>7</title>
<ellipse fill="black" stroke="black" cx="156.91" cy="-150.61" rx="1.8" ry="1.8"/>
</g>
<!-- 1&#45;&#45;7 -->
<g id="edge13" class="edge"><title>1&#45;&#45;7</title>
<path fill="none" stroke="black" d="M102.979,-90.8992C110.563,-99.296 147.416,-140.099 155.387,-148.924"/>
</g>
<!-- 2&#45;&#45;3 -->
<g id="edge14" class="edge"><title>2&#45;&#45;3</title>
<path fill="none" stroke="black" d="M74.6885,-63.2947C68,-72.8489 35.4978,-119.277 28.468,-129.319"/>
</g>
<!-- 2&#45;&#45;4 -->
<g id="edge15" class="edge"><title>2&#45;&#45;4</title>
<path fill="none" stroke="black" d="M76.61,-63.2323C80.5824,-72.4402 99.8859,-117.185 104.061,-126.863"/>
</g>
<!-- 2&#45;&#45;5 -->
<g id="edge16" class="edge"><title>2&#45;&#45;5</title>
<path fill="none" stroke="black" d="M75.8795,-63.5477C75.7892,-75.8538 75.3043,-141.894 75.2142,-154.169"/>
</g>
<!-- 2&#45;&#45;6 -->
<g id="edge17" class="edge"><title>2&#45;&#45;6</title>
<path fill="none" stroke="black" d="M73.9662,-61.4459C64.208,-60.8046 20.355,-57.9223 10.8789,-57.2995"/>
</g>
<!-- 3&#45;&#45;4 -->
<g id="edge18" class="edge"><title>3&#45;&#45;4</title>
<path fill="none" stroke="black" d="M29.047,-131.174C39.8015,-130.824 92.4257,-129.115 103.004,-128.772"/>
</g>
<!-- 3&#45;&#45;5 -->
<g id="edge19" class="edge"><title>3&#45;&#45;5</title>
<path fill="none" stroke="black" d="M28.725,-132.065C36.0239,-135.845 66.132,-151.437 73.5449,-155.276"/>
</g>
<!-- 3&#45;&#45;6 -->
<g id="edge20" class="edge"><title>3&#45;&#45;6</title>
<path fill="none" stroke="black" d="M26.6792,-129.406C24.1812,-119.16 11.9577,-69.0251 9.50061,-58.9472"/>
</g>
<!-- 4&#45;&#45;5 -->
<g id="edge21" class="edge"><title>4&#45;&#45;5</title>
<path fill="none" stroke="black" d="M103.264,-130.186C98.0659,-134.991 81.6603,-150.16 76.6604,-154.782"/>
</g>
<!-- 4&#45;&#45;7 -->
<g id="edge22" class="edge"><title>4&#45;&#45;7</title>
<path fill="none" stroke="black" d="M106.59,-129.44C114.493,-132.765 147.092,-146.479 155.118,-149.856"/>
</g>
<!-- 5&#45;&#45;7 -->
<g id="edge23" class="edge"><title>5&#45;&#45;7</title>
<path fill="none" stroke="black" d="M77.2196,-155.996C88.5243,-155.232 143.841,-151.493 154.96,-150.741"/>
</g>
<!-- 6&#45;&#45;8 -->
<g id="edge24" class="edge"><title>6&#45;&#45;8</title>
<path fill="none" stroke="black" d="M8.828,-55.338C7.72425,-46.9298 3.17125,-12.2459 2.05025,-3.70633"/>
</g>
</g>
</svg>
