<?xml version="1.0" encoding="UTF-8" standalone="no"?>
<!DOCTYPE svg PUBLIC "-//W3C//DTD SVG 1.1//EN"
 "http://www.w3.org/Graphics/SVG/1.1/DTD/svg11.dtd">
<!-- Generated by graphviz version 2.36.0 (20140111.2315)
 -->
<!-- Title: %3 Pages: 1 -->
<svg width="150pt" height="221pt"
 viewBox="0.00 0.00 149.71 221.35" xmlns="http://www.w3.org/2000/svg" xmlns:xlink="http://www.w3.org/1999/xlink">
<g id="graph0" class="graph" transform="scale(1 1) rotate(0) translate(4 217.352)">
<title>%3</title>
<!-- 0 -->
<g id="node1" class="node"><title>0</title>
<ellipse fill="black" stroke="black" cx="56.2024" cy="-91.8992" rx="1.8" ry="1.8"/>
</g>
<!-- 1 -->
<g id="node2" class="node"><title>1</title>
<ellipse fill="black" stroke="black" cx="119.353" cy="-73.0753" rx="1.8" ry="1.8"/>
</g>
<!-- 0&#45;&#45;1 -->
<g id="edge1" class="edge"><title>0&#45;&#45;1</title>
<path fill="none" stroke="black" d="M58.0243,-91.3562C67.0842,-88.6556 107.244,-76.6848 117.143,-73.7343"/>
</g>
<!-- 2 -->
<g id="node3" class="node"><title>2</title>
<ellipse fill="black" stroke="black" cx="72.9021" cy="-1.8" rx="1.8" ry="1.8"/>
</g>
<!-- 0&#45;&#45;2 -->
<g id="edge2" class="edge"><title>0&#45;&#45;2</title>
<path fill="none" stroke="black" d="M56.5512,-90.0174C58.7245,-78.2918 70.3875,-15.3669 72.5552,-3.6715"/>
</g>
<!-- 3 -->
<g id="node4" class="node"><title>3</title>
<ellipse fill="black" stroke="black" cx="65.8656" cy="-35.7306" rx="1.8" ry="1.8"/>
</g>
<!-- 0&#45;&#45;3 -->
<g id="edge3" class="edge"><title>0&#45;&#45;3</title>
<path fill="none" stroke="black" d="M56.5239,-90.0304C57.9911,-81.5025 64.043,-46.3251 65.533,-37.664"/>
</g>
<!-- 4 -->
<g id="node5" class="node"><title>4</title>
<ellipse fill="black" stroke="black" cx="133.423" cy="-136.632" rx="1.8" ry="1.8"/>
</g>
<!-- 0&#45;&#45;4 -->
<g id="edge4" class="edge"><title>0&#45;&#45;4</title>
<path fill="none" stroke="black" d="M57.8153,-92.8335C67.8648,-98.655 121.796,-129.896 131.819,-135.703"/>
</g>
<!-- 5 -->
<g id="node6" class="node"><title>5</title>
<ellipse fill="black" stroke="black" cx="79.8745" cy="-153.095" rx="1.8" ry="1.8"/>
</g>
<!-- 0&#45;&#45;5 -->
<g id="edge5" class="edge"><title>0&#45;&#45;5</title>
<path fill="none" stroke="black" d="M56.8853,-93.6647C60.2815,-102.444 75.3355,-141.361 79.0459,-150.953"/>
</g>
<!-- 6 -->
<g id="node7" class="node"><title>6</title>
<ellipse fill="black" stroke="black" cx="1.8" cy="-38.2612" rx="1.8" ry="1.8"/>
</g>
<!-- 0&#45;&#45;6 -->
<g id="edge6" class="edge"><title>0&#45;&#45;6</title>
<path fill="none" stroke="black" d="M54.8576,-90.5733C47.3964,-83.2169 11.1395,-47.4695 3.29755,-39.7377"/>
</g>
<!-- 1&#45;&#45;2 -->
<g id="edge7" class="edge"><title>1&#45;&#45;2</title>
<path fill="none" stroke="black" d="M118.205,-71.3135C111.778,-61.4524 80.3315,-13.1999 74.0102,-3.50029"/>
</g>
<!-- 1&#45;&#45;3 -->
<g id="edge8" class="edge"><title>1&#45;&#45;3</title>
<path fill="none" stroke="black" d="M117.573,-71.8328C109.453,-66.1629 75.9545,-42.7746 67.7068,-37.0161"/>
</g>
<!-- 1&#45;&#45;4 -->
<g id="edge9" class="edge"><title>1&#45;&#45;4</title>
<path fill="none" stroke="black" d="M119.759,-74.9089C121.778,-84.0271 130.725,-124.445 132.931,-134.407"/>
</g>
<!-- 1&#45;&#45;5 -->
<g id="edge10" class="edge"><title>1&#45;&#45;5</title>
<path fill="none" stroke="black" d="M118.529,-74.7467C113.391,-85.1604 85.8191,-141.046 80.6945,-151.433"/>
</g>
<!-- 7 -->
<g id="node8" class="node"><title>7</title>
<ellipse fill="black" stroke="black" cx="139.907" cy="-3.87327" rx="1.8" ry="1.8"/>
</g>
<!-- 1&#45;&#45;7 -->
<g id="edge11" class="edge"><title>1&#45;&#45;7</title>
<path fill="none" stroke="black" d="M119.946,-71.0789C122.947,-60.9735 136.436,-15.56 139.35,-5.74665"/>
</g>
<!-- 2&#45;&#45;3 -->
<g id="edge12" class="edge"><title>2&#45;&#45;3</title>
<path fill="none" stroke="black" d="M72.5238,-3.62426C71.3134,-9.46066 67.5416,-27.6487 66.2808,-33.7285"/>
</g>
<!-- 2&#45;&#45;6 -->
<g id="edge13" class="edge"><title>2&#45;&#45;6</title>
<path fill="none" stroke="black" d="M71.1445,-2.70129C61.3074,-7.74577 13.1722,-32.4296 3.49615,-37.3914"/>
</g>
<!-- 2&#45;&#45;7 -->
<g id="edge14" class="edge"><title>2&#45;&#45;7</title>
<path fill="none" stroke="black" d="M74.8352,-1.85981C84.6197,-2.16257 128.591,-3.52314 138.093,-3.81714"/>
</g>
<!-- 3&#45;&#45;6 -->
<g id="edge15" class="edge"><title>3&#45;&#45;6</title>
<path fill="none" stroke="black" d="M64.0174,-35.8036C54.8262,-36.1666 14.0844,-37.776 4.04257,-38.1726"/>
</g>
<!-- 3&#45;&#45;7 -->
<g id="edge16" class="edge"><title>3&#45;&#45;7</title>
<path fill="none" stroke="black" d="M67.6959,-34.9431C77.9396,-30.5356 128.065,-8.96856 138.141,-4.63323"/>
</g>
<!-- 4&#45;&#45;5 -->
<g id="edge17" class="edge"><title>4&#45;&#45;5</title>
<path fill="none" stroke="black" d="M131.642,-137.18C123.511,-139.679 89.9749,-149.989 81.7178,-152.528"/>
</g>
<!-- 8 -->
<g id="node9" class="node"><title>8</title>
<ellipse fill="black" stroke="black" cx="128.211" cy="-211.552" rx="1.8" ry="1.8"/>
</g>
<!-- 4&#45;&#45;8 -->
<g id="edge18" class="edge"><title>4&#45;&#45;8</title>
<path fill="none" stroke="black" d="M133.294,-138.484C132.579,-148.759 129.105,-198.69 128.354,-209.49"/>
</g>
<!-- 5&#45;&#45;8 -->
<g id="edge19" class="edge"><title>5&#45;&#45;8</title>
<path fill="none" stroke="black" d="M81.0693,-154.54C87.6986,-162.557 119.913,-201.516 126.88,-209.943"/>
</g>
</g>
</svg>
