<?xml version="1.0" encoding="UTF-8" standalone="no"?>
<!DOCTYPE svg PUBLIC "-//W3C//DTD SVG 1.1//EN"
 "http://www.w3.org/Graphics/SVG/1.1/DTD/svg11.dtd">
<!-- Generated by graphviz version 2.36.0 (20140111.2315)
 -->
<!-- Title: %3 Pages: 1 -->
<svg width="149pt" height="170pt"
 viewBox="0.00 0.00 149.09 170.22" xmlns="http://www.w3.org/2000/svg" xmlns:xlink="http://www.w3.org/1999/xlink">
<g id="graph0" class="graph" transform="scale(1 1) rotate(0) translate(4 166.222)">
<title>%3</title>
<!-- 0 -->
<g id="node1" class="node"><title>0</title>
<ellipse fill="black" stroke="black" cx="57.7557" cy="-107.985" rx="1.8" ry="1.8"/>
</g>
<!-- 1 -->
<g id="node2" class="node"><title>1</title>
<ellipse fill="black" stroke="black" cx="74.3793" cy="-59.7513" rx="1.8" ry="1.8"/>
</g>
<!-- 0&#45;&#45;1 -->
<g id="edge1" class="edge"><title>0&#45;&#45;1</title>
<path fill="none" stroke="black" d="M58.47,-105.912C61.2044,-97.9782 70.9885,-69.5898 73.6862,-61.7625"/>
</g>
<!-- 2 -->
<g id="node3" class="node"><title>2</title>
<ellipse fill="black" stroke="black" cx="75.1547" cy="-28.7485" rx="1.8" ry="1.8"/>
</g>
<!-- 0&#45;&#45;2 -->
<g id="edge2" class="edge"><title>0&#45;&#45;2</title>
<path fill="none" stroke="black" d="M58.1858,-106.026C60.593,-95.0634 72.3719,-41.4216 74.7396,-30.6387"/>
</g>
<!-- 3 -->
<g id="node4" class="node"><title>3</title>
<ellipse fill="black" stroke="black" cx="139.289" cy="-73.107" rx="1.8" ry="1.8"/>
</g>
<!-- 0&#45;&#45;3 -->
<g id="edge3" class="edge"><title>0&#45;&#45;3</title>
<path fill="none" stroke="black" d="M59.4587,-107.256C70.0694,-102.717 127.012,-78.3587 137.595,-73.8314"/>
</g>
<!-- 4 -->
<g id="node5" class="node"><title>4</title>
<ellipse fill="black" stroke="black" cx="1.8" cy="-81.1587" rx="1.8" ry="1.8"/>
</g>
<!-- 0&#45;&#45;4 -->
<g id="edge4" class="edge"><title>0&#45;&#45;4</title>
<path fill="none" stroke="black" d="M55.894,-107.092C47.3984,-103.019 12.3544,-86.2186 3.72612,-82.0821"/>
</g>
<!-- 5 -->
<g id="node6" class="node"><title>5</title>
<ellipse fill="black" stroke="black" cx="114.836" cy="-110.831" rx="1.8" ry="1.8"/>
</g>
<!-- 0&#45;&#45;5 -->
<g id="edge5" class="edge"><title>0&#45;&#45;5</title>
<path fill="none" stroke="black" d="M59.6549,-108.079C68.3212,-108.511 104.07,-110.294 112.872,-110.733"/>
</g>
<!-- 6 -->
<g id="node7" class="node"><title>6</title>
<ellipse fill="black" stroke="black" cx="10.9319" cy="-29.5694" rx="1.8" ry="1.8"/>
</g>
<!-- 0&#45;&#45;6 -->
<g id="edge6" class="edge"><title>0&#45;&#45;6</title>
<path fill="none" stroke="black" d="M56.7777,-106.347C50.6841,-96.1417 17.9825,-41.3769 11.9045,-31.1982"/>
</g>
<!-- 8 -->
<g id="node8" class="node"><title>8</title>
<ellipse fill="black" stroke="black" cx="120.277" cy="-160.422" rx="1.8" ry="1.8"/>
</g>
<!-- 0&#45;&#45;8 -->
<g id="edge7" class="edge"><title>0&#45;&#45;8</title>
<path fill="none" stroke="black" d="M59.3012,-109.281C67.876,-116.472 109.544,-151.42 118.556,-158.978"/>
</g>
<!-- 1&#45;&#45;2 -->
<g id="edge8" class="edge"><title>1&#45;&#45;2</title>
<path fill="none" stroke="black" d="M74.4302,-57.7172C74.5703,-52.1131 74.961,-36.4918 75.1026,-30.8308"/>
</g>
<!-- 1&#45;&#45;3 -->
<g id="edge9" class="edge"><title>1&#45;&#45;3</title>
<path fill="none" stroke="black" d="M76.2519,-60.1366C85.5642,-62.0527 126.843,-70.5461 137.017,-72.6395"/>
</g>
<!-- 1&#45;&#45;4 -->
<g id="edge10" class="edge"><title>1&#45;&#45;4</title>
<path fill="none" stroke="black" d="M72.5852,-60.2805C62.5437,-63.2423 13.4084,-77.7348 3.53139,-80.6481"/>
</g>
<!-- 1&#45;&#45;5 -->
<g id="edge11" class="edge"><title>1&#45;&#45;5</title>
<path fill="none" stroke="black" d="M75.7254,-61.4508C81.8678,-69.206 107.205,-101.196 113.444,-109.072"/>
</g>
<!-- 1&#45;&#45;6 -->
<g id="edge12" class="edge"><title>1&#45;&#45;6</title>
<path fill="none" stroke="black" d="M72.5489,-58.8806C63.2838,-54.4732 21.6468,-34.6664 12.6495,-30.3864"/>
</g>
<!-- 7 -->
<g id="node9" class="node"><title>7</title>
<ellipse fill="black" stroke="black" cx="136.087" cy="-1.8" rx="1.8" ry="1.8"/>
</g>
<!-- 1&#45;&#45;7 -->
<g id="edge13" class="edge"><title>1&#45;&#45;7</title>
<path fill="none" stroke="black" d="M75.9047,-58.3188C84.3679,-50.3709 125.494,-11.7487 134.389,-3.39524"/>
</g>
<!-- 2&#45;&#45;3 -->
<g id="edge14" class="edge"><title>2&#45;&#45;3</title>
<path fill="none" stroke="black" d="M76.74,-29.845C85.536,-35.9287 128.279,-65.4918 137.523,-71.8859"/>
</g>
<!-- 2&#45;&#45;4 -->
<g id="edge15" class="edge"><title>2&#45;&#45;4</title>
<path fill="none" stroke="black" d="M73.6226,-29.8432C64.0761,-36.6639 12.8455,-73.267 3.32369,-80.0701"/>
</g>
<!-- 2&#45;&#45;5 -->
<g id="edge16" class="edge"><title>2&#45;&#45;5</title>
<path fill="none" stroke="black" d="M75.9835,-30.4629C81.1477,-41.1451 108.861,-98.471 114.012,-109.126"/>
</g>
<!-- 2&#45;&#45;6 -->
<g id="edge17" class="edge"><title>2&#45;&#45;6</title>
<path fill="none" stroke="black" d="M73.3019,-28.7722C64.0881,-28.89 23.2464,-29.412 13.1799,-29.5406"/>
</g>
<!-- 2&#45;&#45;7 -->
<g id="edge18" class="edge"><title>2&#45;&#45;7</title>
<path fill="none" stroke="black" d="M76.9126,-27.9711C85.8104,-24.0358 125.797,-6.35101 134.438,-2.52953"/>
</g>
<!-- 3&#45;&#45;5 -->
<g id="edge19" class="edge"><title>3&#45;&#45;5</title>
<path fill="none" stroke="black" d="M138.238,-74.7279C134.216,-80.9331 119.824,-103.136 115.856,-109.258"/>
</g>
<!-- 3&#45;&#45;8 -->
<g id="edge21" class="edge"><title>3&#45;&#45;8</title>
<path fill="none" stroke="black" d="M138.892,-74.9307C136.418,-86.2939 123.14,-147.274 120.672,-158.608"/>
</g>
<!-- 3&#45;&#45;7 -->
<g id="edge20" class="edge"><title>3&#45;&#45;7</title>
<path fill="none" stroke="black" d="M139.197,-71.0498C138.729,-60.637 136.628,-13.8422 136.174,-3.73036"/>
</g>
<!-- 4&#45;&#45;6 -->
<g id="edge22" class="edge"><title>4&#45;&#45;6</title>
<path fill="none" stroke="black" d="M2.19239,-78.942C3.69449,-70.4561 9.06919,-40.0924 10.5511,-31.7204"/>
</g>
</g>
</svg>
