<?xml version="1.0" encoding="UTF-8" standalone="no"?>
<!DOCTYPE svg PUBLIC "-//W3C//DTD SVG 1.1//EN"
 "http://www.w3.org/Graphics/SVG/1.1/DTD/svg11.dtd">
<!-- Generated by graphviz version 2.36.0 (20140111.2315)
 -->
<!-- Title: %3 Pages: 1 -->
<svg width="141pt" height="163pt"
 viewBox="0.00 0.00 140.89 163.49" xmlns="http://www.w3.org/2000/svg" xmlns:xlink="http://www.w3.org/1999/xlink">
<g id="graph0" class="graph" transform="scale(1 1) rotate(0) translate(4 159.492)">
<title>%3</title>
<!-- 0 -->
<g id="node1" class="node"><title>0</title>
<ellipse fill="black" stroke="black" cx="50.3492" cy="-81.5912" rx="1.8" ry="1.8"/>
</g>
<!-- 1 -->
<g id="node2" class="node"><title>1</title>
<ellipse fill="black" stroke="black" cx="77.3514" cy="-74.7949" rx="1.8" ry="1.8"/>
</g>
<!-- 0&#45;&#45;1 -->
<g id="edge1" class="edge"><title>0&#45;&#45;1</title>
<path fill="none" stroke="black" d="M52.1209,-81.1453C57.0018,-79.9168 70.6073,-76.4923 75.5378,-75.2514"/>
</g>
<!-- 2 -->
<g id="node3" class="node"><title>2</title>
<ellipse fill="black" stroke="black" cx="6.07104" cy="-39.9121" rx="1.8" ry="1.8"/>
</g>
<!-- 0&#45;&#45;2 -->
<g id="edge2" class="edge"><title>0&#45;&#45;2</title>
<path fill="none" stroke="black" d="M48.876,-80.2044C42.1534,-73.8765 14.4228,-47.7736 7.59519,-41.3468"/>
</g>
<!-- 3 -->
<g id="node4" class="node"><title>3</title>
<ellipse fill="black" stroke="black" cx="46.4509" cy="-153.692" rx="1.8" ry="1.8"/>
</g>
<!-- 0&#45;&#45;3 -->
<g id="edge3" class="edge"><title>0&#45;&#45;3</title>
<path fill="none" stroke="black" d="M50.2367,-83.6712C49.6675,-94.1999 47.1092,-141.516 46.5564,-151.74"/>
</g>
<!-- 4 -->
<g id="node5" class="node"><title>4</title>
<ellipse fill="black" stroke="black" cx="83.7707" cy="-144.644" rx="1.8" ry="1.8"/>
</g>
<!-- 0&#45;&#45;4 -->
<g id="edge4" class="edge"><title>0&#45;&#45;4</title>
<path fill="none" stroke="black" d="M51.3134,-83.4102C56.1938,-92.6177 78.1265,-133.996 82.8659,-142.938"/>
</g>
<!-- 5 -->
<g id="node6" class="node"><title>5</title>
<ellipse fill="black" stroke="black" cx="1.8" cy="-115.126" rx="1.8" ry="1.8"/>
</g>
<!-- 0&#45;&#45;5 -->
<g id="edge5" class="edge"><title>0&#45;&#45;5</title>
<path fill="none" stroke="black" d="M48.7339,-82.7069C41.3629,-87.7984 10.9574,-108.801 3.47117,-113.972"/>
</g>
<!-- 6 -->
<g id="node7" class="node"><title>6</title>
<ellipse fill="black" stroke="black" cx="40.9653" cy="-1.8" rx="1.8" ry="1.8"/>
</g>
<!-- 0&#45;&#45;6 -->
<g id="edge6" class="edge"><title>0&#45;&#45;6</title>
<path fill="none" stroke="black" d="M50.1172,-79.6188C48.819,-68.5795 42.4662,-14.5619 41.1892,-3.70343"/>
</g>
<!-- 7 -->
<g id="node8" class="node"><title>7</title>
<ellipse fill="black" stroke="black" cx="90.2848" cy="-5.41301" rx="1.8" ry="1.8"/>
</g>
<!-- 0&#45;&#45;7 -->
<g id="edge7" class="edge"><title>0&#45;&#45;7</title>
<path fill="none" stroke="black" d="M51.3364,-79.7081C56.8615,-69.1687 83.8975,-17.597 89.3322,-7.23025"/>
</g>
<!-- 8 -->
<g id="node9" class="node"><title>8</title>
<ellipse fill="black" stroke="black" cx="131.086" cy="-127.388" rx="1.8" ry="1.8"/>
</g>
<!-- 0&#45;&#45;8 -->
<g id="edge8" class="edge"><title>0&#45;&#45;8</title>
<path fill="none" stroke="black" d="M52.0355,-82.5477C62.5427,-88.5077 118.929,-120.492 129.409,-126.436"/>
</g>
<!-- 1&#45;&#45;2 -->
<g id="edge9" class="edge"><title>1&#45;&#45;2</title>
<path fill="none" stroke="black" d="M75.5894,-73.9326C65.7276,-69.1065 17.4717,-45.4913 7.77144,-40.7442"/>
</g>
<!-- 1&#45;&#45;3 -->
<g id="edge10" class="edge"><title>1&#45;&#45;3</title>
<path fill="none" stroke="black" d="M76.5875,-76.7452C72.3124,-87.6607 51.3931,-141.073 47.188,-151.81"/>
</g>
<!-- 1&#45;&#45;4 -->
<g id="edge11" class="edge"><title>1&#45;&#45;4</title>
<path fill="none" stroke="black" d="M77.5366,-76.81C78.474,-87.01 82.6866,-132.848 83.5969,-142.754"/>
</g>
<!-- 1&#45;&#45;5 -->
<g id="edge12" class="edge"><title>1&#45;&#45;5</title>
<path fill="none" stroke="black" d="M75.4838,-75.7919C65.0311,-81.3717 13.8838,-108.675 3.60229,-114.164"/>
</g>
<!-- 1&#45;&#45;6 -->
<g id="edge13" class="edge"><title>1&#45;&#45;6</title>
<path fill="none" stroke="black" d="M76.4519,-72.9905C71.4179,-62.8915 46.7849,-13.4749 41.8333,-3.54131"/>
</g>
<!-- 2&#45;&#45;5 -->
<g id="edge14" class="edge"><title>2&#45;&#45;5</title>
<path fill="none" stroke="black" d="M5.96546,-41.7713C5.37969,-52.0868 2.53323,-102.214 1.91757,-113.056"/>
</g>
<!-- 2&#45;&#45;6 -->
<g id="edge15" class="edge"><title>2&#45;&#45;6</title>
<path fill="none" stroke="black" d="M7.5704,-38.2744C13.3102,-32.0054 33.8477,-9.57397 39.5104,-3.38911"/>
</g>
<!-- 2&#45;&#45;7 -->
<g id="edge16" class="edge"><title>2&#45;&#45;7</title>
<path fill="none" stroke="black" d="M7.82996,-39.1915C18.7896,-34.7018 77.6042,-10.6078 88.5356,-6.12961"/>
</g>
<!-- 3&#45;&#45;4 -->
<g id="edge17" class="edge"><title>3&#45;&#45;4</title>
<path fill="none" stroke="black" d="M48.4573,-153.205C54.9978,-151.62 75.6413,-146.615 81.9327,-145.09"/>
</g>
<!-- 3&#45;&#45;5 -->
<g id="edge18" class="edge"><title>3&#45;&#45;5</title>
<path fill="none" stroke="black" d="M44.9652,-152.409C38.1861,-146.553 10.2221,-122.4 3.33698,-116.454"/>
</g>
<!-- 3&#45;&#45;8 -->
<g id="edge19" class="edge"><title>3&#45;&#45;8</title>
<path fill="none" stroke="black" d="M48.2186,-153.142C59.2331,-149.719 118.342,-131.348 129.328,-127.934"/>
</g>
<!-- 4&#45;&#45;5 -->
<g id="edge20" class="edge"><title>4&#45;&#45;5</title>
<path fill="none" stroke="black" d="M82.0586,-144.028C71.3909,-140.186 14.1429,-119.571 3.50265,-115.739"/>
</g>
<!-- 4&#45;&#45;8 -->
<g id="edge21" class="edge"><title>4&#45;&#45;8</title>
<path fill="none" stroke="black" d="M85.8038,-143.903C93.5867,-141.064 121.435,-130.908 129.114,-128.107"/>
</g>
<!-- 6&#45;&#45;7 -->
<g id="edge22" class="edge"><title>6&#45;&#45;7</title>
<path fill="none" stroke="black" d="M43.0845,-1.95525C51.1971,-2.54955 80.2248,-4.67604 88.2284,-5.26236"/>
</g>
</g>
</svg>
