<?xml version="1.0" encoding="UTF-8" standalone="no"?>
<!DOCTYPE svg PUBLIC "-//W3C//DTD SVG 1.1//EN"
 "http://www.w3.org/Graphics/SVG/1.1/DTD/svg11.dtd">
<!-- Generated by graphviz version 2.36.0 (20140111.2315)
 -->
<!-- Title: %3 Pages: 1 -->
<svg width="340pt" height="181pt"
 viewBox="0.00 0.00 340.48 181.16" xmlns="http://www.w3.org/2000/svg" xmlns:xlink="http://www.w3.org/1999/xlink">
<g id="graph0" class="graph" transform="scale(1 1) rotate(0) translate(4 177.161)">
<title>%3</title>
<!-- 0 -->
<g id="node1" class="node"><title>0</title>
<ellipse fill="black" stroke="black" cx="138.269" cy="-62.5104" rx="1.8" ry="1.8"/>
</g>
<!-- 1 -->
<g id="node2" class="node"><title>1</title>
<ellipse fill="black" stroke="black" cx="68.6512" cy="-31.2649" rx="1.8" ry="1.8"/>
</g>
<!-- 0&#45;&#45;1 -->
<g id="edge1" class="edge"><title>0&#45;&#45;1</title>
<path fill="none" stroke="black" d="M136.548,-61.738C127,-57.4527 80.6028,-36.629 70.5676,-32.125"/>
</g>
<!-- 2 -->
<g id="node3" class="node"><title>2</title>
<ellipse fill="black" stroke="black" cx="63.3534" cy="-80.7043" rx="1.8" ry="1.8"/>
</g>
<!-- 0&#45;&#45;2 -->
<g id="edge2" class="edge"><title>0&#45;&#45;2</title>
<path fill="none" stroke="black" d="M136.417,-62.9601C126.052,-65.4773 75.3355,-77.7944 65.1405,-80.2703"/>
</g>
<!-- 3 -->
<g id="node4" class="node"><title>3</title>
<ellipse fill="black" stroke="black" cx="206.798" cy="-92.5694" rx="1.8" ry="1.8"/>
</g>
<!-- 0&#45;&#45;3 -->
<g id="edge3" class="edge"><title>0&#45;&#45;3</title>
<path fill="none" stroke="black" d="M139.963,-63.2534C149.362,-67.376 195.034,-87.409 204.912,-91.7419"/>
</g>
<!-- 5 -->
<g id="node5" class="node"><title>5</title>
<ellipse fill="black" stroke="black" cx="200.721" cy="-20.2217" rx="1.8" ry="1.8"/>
</g>
<!-- 0&#45;&#45;5 -->
<g id="edge4" class="edge"><title>0&#45;&#45;5</title>
<path fill="none" stroke="black" d="M139.813,-61.465C148.378,-55.6652 190,-27.4815 199.002,-21.3857"/>
</g>
<!-- 1&#45;&#45;2 -->
<g id="edge5" class="edge"><title>1&#45;&#45;2</title>
<path fill="none" stroke="black" d="M68.4235,-33.3893C67.5521,-41.5215 64.434,-70.6199 63.5743,-78.6429"/>
</g>
<!-- 6 -->
<g id="node6" class="node"><title>6</title>
<ellipse fill="black" stroke="black" cx="1.8" cy="-95.2201" rx="1.8" ry="1.8"/>
</g>
<!-- 1&#45;&#45;6 -->
<g id="edge6" class="edge"><title>1&#45;&#45;6</title>
<path fill="none" stroke="black" d="M66.9987,-32.8458C57.6693,-41.7711 11.7025,-85.7466 3.16567,-93.9136"/>
</g>
<!-- 7 -->
<g id="node7" class="node"><title>7</title>
<ellipse fill="black" stroke="black" cx="13.5526" cy="-1.8" rx="1.8" ry="1.8"/>
</g>
<!-- 1&#45;&#45;7 -->
<g id="edge7" class="edge"><title>1&#45;&#45;7</title>
<path fill="none" stroke="black" d="M66.818,-30.2846C58.4526,-25.811 23.9454,-7.35769 15.4493,-2.81425"/>
</g>
<!-- 2&#45;&#45;6 -->
<g id="edge8" class="edge"><title>2&#45;&#45;6</title>
<path fill="none" stroke="black" d="M61.5776,-81.1231C52.7468,-83.2056 13.6027,-92.4367 3.95463,-94.712"/>
</g>
<!-- 2&#45;&#45;7 -->
<g id="edge9" class="edge"><title>2&#45;&#45;7</title>
<path fill="none" stroke="black" d="M62.3132,-79.0563C55.8321,-68.7877 21.0515,-13.6812 14.5871,-3.43896"/>
</g>
<!-- 3&#45;&#45;5 -->
<g id="edge11" class="edge"><title>3&#45;&#45;5</title>
<path fill="none" stroke="black" d="M206.623,-90.4822C205.736,-79.9174 201.748,-32.4396 200.886,-22.1802"/>
</g>
<!-- 4 -->
<g id="node8" class="node"><title>4</title>
<ellipse fill="black" stroke="black" cx="264.363" cy="-140.543" rx="1.8" ry="1.8"/>
</g>
<!-- 3&#45;&#45;4 -->
<g id="edge10" class="edge"><title>3&#45;&#45;4</title>
<path fill="none" stroke="black" d="M208.221,-93.7552C216.116,-100.335 254.48,-132.307 262.778,-139.222"/>
</g>
<!-- 8 -->
<g id="node9" class="node"><title>8</title>
<ellipse fill="black" stroke="black" cx="330.682" cy="-171.361" rx="1.8" ry="1.8"/>
</g>
<!-- 4&#45;&#45;8 -->
<g id="edge12" class="edge"><title>4&#45;&#45;8</title>
<path fill="none" stroke="black" d="M266.002,-141.305C275.098,-145.531 319.297,-166.07 328.857,-170.512"/>
</g>
</g>
</svg>
