<?xml version="1.0" encoding="UTF-8" standalone="no"?>
<!DOCTYPE svg PUBLIC "-//W3C//DTD SVG 1.1//EN"
 "http://www.w3.org/Graphics/SVG/1.1/DTD/svg11.dtd">
<!-- Generated by graphviz version 2.36.0 (20140111.2315)
 -->
<!-- Title: %3 Pages: 1 -->
<svg width="233pt" height="242pt"
 viewBox="0.00 0.00 232.97 242.36" xmlns="http://www.w3.org/2000/svg" xmlns:xlink="http://www.w3.org/1999/xlink">
<g id="graph0" class="graph" transform="scale(1 1) rotate(0) translate(4 238.36)">
<title>%3</title>
<!-- 0 -->
<g id="node1" class="node"><title>0</title>
<ellipse fill="black" stroke="black" cx="124.227" cy="-155.548" rx="1.8" ry="1.8"/>
</g>
<!-- 1 -->
<g id="node2" class="node"><title>1</title>
<ellipse fill="black" stroke="black" cx="143.828" cy="-83.6478" rx="1.8" ry="1.8"/>
</g>
<!-- 0&#45;&#45;1 -->
<g id="edge1" class="edge"><title>0&#45;&#45;1</title>
<path fill="none" stroke="black" d="M124.711,-153.771C127.4,-143.91 140.463,-95.9912 143.288,-85.627"/>
</g>
<!-- 2 -->
<g id="node3" class="node"><title>2</title>
<ellipse fill="black" stroke="black" cx="78.4169" cy="-82.2949" rx="1.8" ry="1.8"/>
</g>
<!-- 0&#45;&#45;2 -->
<g id="edge2" class="edge"><title>0&#45;&#45;2</title>
<path fill="none" stroke="black" d="M123.27,-154.018C117.36,-144.567 85.8645,-94.2041 79.528,-84.0716"/>
</g>
<!-- 3 -->
<g id="node4" class="node"><title>3</title>
<ellipse fill="black" stroke="black" cx="66.7458" cy="-126.866" rx="1.8" ry="1.8"/>
</g>
<!-- 0&#45;&#45;3 -->
<g id="edge3" class="edge"><title>0&#45;&#45;3</title>
<path fill="none" stroke="black" d="M122.314,-154.594C113.587,-150.239 77.5879,-132.276 68.7244,-127.853"/>
</g>
<!-- 5 -->
<g id="node5" class="node"><title>5</title>
<ellipse fill="black" stroke="black" cx="169.17" cy="-218.158" rx="1.8" ry="1.8"/>
</g>
<!-- 0&#45;&#45;5 -->
<g id="edge4" class="edge"><title>0&#45;&#45;5</title>
<path fill="none" stroke="black" d="M125.338,-157.096C131.502,-165.683 161.455,-207.41 167.933,-216.435"/>
</g>
<!-- 6 -->
<g id="node6" class="node"><title>6</title>
<ellipse fill="black" stroke="black" cx="105.152" cy="-232.56" rx="1.8" ry="1.8"/>
</g>
<!-- 0&#45;&#45;6 -->
<g id="edge5" class="edge"><title>0&#45;&#45;6</title>
<path fill="none" stroke="black" d="M123.755,-157.452C121.116,-168.106 108.203,-220.243 105.607,-230.723"/>
</g>
<!-- 1&#45;&#45;2 -->
<g id="edge6" class="edge"><title>1&#45;&#45;2</title>
<path fill="none" stroke="black" d="M141.941,-83.6088C132.557,-83.4147 90.9593,-82.5543 80.7065,-82.3422"/>
</g>
<!-- 1&#45;&#45;3 -->
<g id="edge7" class="edge"><title>1&#45;&#45;3</title>
<path fill="none" stroke="black" d="M142.218,-84.5505C132.187,-90.1749 78.3526,-120.358 68.3469,-125.968"/>
</g>
<!-- 7 -->
<g id="node7" class="node"><title>7</title>
<ellipse fill="black" stroke="black" cx="150.498" cy="-1.8" rx="1.8" ry="1.8"/>
</g>
<!-- 1&#45;&#45;7 -->
<g id="edge8" class="edge"><title>1&#45;&#45;7</title>
<path fill="none" stroke="black" d="M143.993,-81.6246C144.916,-70.3008 149.431,-14.8908 150.339,-3.7525"/>
</g>
<!-- 8 -->
<g id="node8" class="node"><title>8</title>
<ellipse fill="black" stroke="black" cx="223.172" cy="-72.7838" rx="1.8" ry="1.8"/>
</g>
<!-- 1&#45;&#45;8 -->
<g id="edge9" class="edge"><title>1&#45;&#45;8</title>
<path fill="none" stroke="black" d="M145.789,-83.3793C156.767,-81.8762 210.482,-74.5214 221.279,-73.043"/>
</g>
<!-- 2&#45;&#45;3 -->
<g id="edge10" class="edge"><title>2&#45;&#45;3</title>
<path fill="none" stroke="black" d="M77.9154,-84.21C75.9956,-91.5414 69.1264,-117.774 67.2324,-125.007"/>
</g>
<!-- 4 -->
<g id="node9" class="node"><title>4</title>
<ellipse fill="black" stroke="black" cx="1.8" cy="-88.2541" rx="1.8" ry="1.8"/>
</g>
<!-- 2&#45;&#45;4 -->
<g id="edge11" class="edge"><title>2&#45;&#45;4</title>
<path fill="none" stroke="black" d="M76.523,-82.4422C65.9229,-83.2666 14.0542,-87.3009 3.62771,-88.1119"/>
</g>
<!-- 3&#45;&#45;4 -->
<g id="edge12" class="edge"><title>3&#45;&#45;4</title>
<path fill="none" stroke="black" d="M65.1404,-125.911C56.2331,-120.616 12.9495,-94.8827 3.58778,-89.3169"/>
</g>
<!-- 5&#45;&#45;6 -->
<g id="edge13" class="edge"><title>5&#45;&#45;6</title>
<path fill="none" stroke="black" d="M167.323,-218.574C158.139,-220.64 117.428,-229.798 107.393,-232.056"/>
</g>
</g>
</svg>
