<?xml version="1.0" encoding="UTF-8" standalone="no"?>
<!DOCTYPE svg PUBLIC "-//W3C//DTD SVG 1.1//EN"
 "http://www.w3.org/Graphics/SVG/1.1/DTD/svg11.dtd">
<!-- Generated by graphviz version 2.36.0 (20140111.2315)
 -->
<!-- Title: %3 Pages: 1 -->
<svg width="143pt" height="219pt"
 viewBox="0.00 0.00 143.39 218.65" xmlns="http://www.w3.org/2000/svg" xmlns:xlink="http://www.w3.org/1999/xlink">
<g id="graph0" class="graph" transform="scale(1 1) rotate(0) translate(4 214.651)">
<title>%3</title>
<!-- 0 -->
<g id="node1" class="node"><title>0</title>
<ellipse fill="black" stroke="black" cx="1.8" cy="-167.034" rx="1.8" ry="1.8"/>
</g>
<!-- 2 -->
<g id="node2" class="node"><title>2</title>
<ellipse fill="black" stroke="black" cx="41.5606" cy="-152.495" rx="1.8" ry="1.8"/>
</g>
<!-- 0&#45;&#45;2 -->
<g id="edge1" class="edge"><title>0&#45;&#45;2</title>
<path fill="none" stroke="black" d="M3.50846,-166.409C9.92976,-164.061 32.6049,-155.77 39.5342,-153.236"/>
</g>
<!-- 3 -->
<g id="node3" class="node"><title>3</title>
<ellipse fill="black" stroke="black" cx="3.98679" cy="-87.9669" rx="1.8" ry="1.8"/>
</g>
<!-- 0&#45;&#45;3 -->
<g id="edge2" class="edge"><title>0&#45;&#45;3</title>
<path fill="none" stroke="black" d="M1.85406,-165.079C2.1566,-154.14 3.63703,-100.613 3.93462,-89.8531"/>
</g>
<!-- 4 -->
<g id="node4" class="node"><title>4</title>
<ellipse fill="black" stroke="black" cx="92.5741" cy="-135.994" rx="1.8" ry="1.8"/>
</g>
<!-- 0&#45;&#45;4 -->
<g id="edge3" class="edge"><title>0&#45;&#45;4</title>
<path fill="none" stroke="black" d="M3.69595,-166.386C15.5093,-162.346 78.9056,-140.668 90.6886,-136.639"/>
</g>
<!-- 5 -->
<g id="node5" class="node"><title>5</title>
<ellipse fill="black" stroke="black" cx="69.7811" cy="-208.851" rx="1.8" ry="1.8"/>
</g>
<!-- 0&#45;&#45;5 -->
<g id="edge4" class="edge"><title>0&#45;&#45;5</title>
<path fill="none" stroke="black" d="M3.48044,-168.068C12.804,-173.803 58.1105,-201.672 67.9097,-207.7"/>
</g>
<!-- 2&#45;&#45;3 -->
<g id="edge9" class="edge"><title>2&#45;&#45;3</title>
<path fill="none" stroke="black" d="M40.6318,-150.9C35.4786,-142.05 10.4372,-99.0447 5.02109,-89.7432"/>
</g>
<!-- 2&#45;&#45;4 -->
<g id="edge10" class="edge"><title>2&#45;&#45;4</title>
<path fill="none" stroke="black" d="M43.7526,-151.786C52.1438,-149.072 82.1686,-139.36 90.4471,-136.682"/>
</g>
<!-- 2&#45;&#45;5 -->
<g id="edge11" class="edge"><title>2&#45;&#45;5</title>
<path fill="none" stroke="black" d="M42.4995,-154.37C46.7841,-162.926 64.4581,-198.221 68.8097,-206.911"/>
</g>
<!-- 6 -->
<g id="node7" class="node"><title>6</title>
<ellipse fill="black" stroke="black" cx="7.02219" cy="-17.9046" rx="1.8" ry="1.8"/>
</g>
<!-- 3&#45;&#45;6 -->
<g id="edge12" class="edge"><title>3&#45;&#45;6</title>
<path fill="none" stroke="black" d="M4.07436,-85.9456C4.51761,-75.7146 6.50958,-29.7365 6.94002,-19.8012"/>
</g>
<!-- 4&#45;&#45;5 -->
<g id="edge13" class="edge"><title>4&#45;&#45;5</title>
<path fill="none" stroke="black" d="M92.0107,-137.795C88.8572,-147.875 73.4266,-197.198 70.3248,-207.113"/>
</g>
<!-- 1 -->
<g id="node6" class="node"><title>1</title>
<ellipse fill="black" stroke="black" cx="75.4783" cy="-53.7455" rx="1.8" ry="1.8"/>
</g>
<!-- 1&#45;&#45;3 -->
<g id="edge5" class="edge"><title>1&#45;&#45;3</title>
<path fill="none" stroke="black" d="M73.7111,-54.5914C63.8201,-59.326 15.4212,-82.4935 5.69223,-87.1506"/>
</g>
<!-- 1&#45;&#45;4 -->
<g id="edge6" class="edge"><title>1&#45;&#45;4</title>
<path fill="none" stroke="black" d="M75.9009,-55.7786C78.2661,-67.1579 89.8398,-122.839 92.1663,-134.032"/>
</g>
<!-- 1&#45;&#45;6 -->
<g id="edge7" class="edge"><title>1&#45;&#45;6</title>
<path fill="none" stroke="black" d="M73.7861,-52.8595C64.3974,-47.944 18.7743,-24.0575 8.9066,-18.8912"/>
</g>
<!-- 7 -->
<g id="node8" class="node"><title>7</title>
<ellipse fill="black" stroke="black" cx="133.592" cy="-1.8" rx="1.8" ry="1.8"/>
</g>
<!-- 1&#45;&#45;7 -->
<g id="edge8" class="edge"><title>1&#45;&#45;7</title>
<path fill="none" stroke="black" d="M76.9148,-52.4615C84.8851,-45.3372 123.615,-10.7177 131.992,-3.22992"/>
</g>
</g>
</svg>
