<?xml version="1.0" encoding="UTF-8" standalone="no"?>
<!DOCTYPE svg PUBLIC "-//W3C//DTD SVG 1.1//EN"
 "http://www.w3.org/Graphics/SVG/1.1/DTD/svg11.dtd">
<!-- Generated by graphviz version 2.36.0 (20140111.2315)
 -->
<!-- Title: %3 Pages: 1 -->
<svg width="178pt" height="188pt"
 viewBox="0.00 0.00 177.86 188.09" xmlns="http://www.w3.org/2000/svg" xmlns:xlink="http://www.w3.org/1999/xlink">
<g id="graph0" class="graph" transform="scale(1 1) rotate(0) translate(4 184.085)">
<title>%3</title>
<!-- 0 -->
<g id="node1" class="node"><title>0</title>
<ellipse fill="black" stroke="black" cx="58.0584" cy="-67.0958" rx="1.8" ry="1.8"/>
</g>
<!-- 1 -->
<g id="node2" class="node"><title>1</title>
<ellipse fill="black" stroke="black" cx="58.298" cy="-115.846" rx="1.8" ry="1.8"/>
</g>
<!-- 0&#45;&#45;1 -->
<g id="edge1" class="edge"><title>0&#45;&#45;1</title>
<path fill="none" stroke="black" d="M58.0687,-69.1906C58.1081,-77.2095 58.2491,-105.902 58.288,-113.813"/>
</g>
<!-- 2 -->
<g id="node3" class="node"><title>2</title>
<ellipse fill="black" stroke="black" cx="96.2086" cy="-74.5843" rx="1.8" ry="1.8"/>
</g>
<!-- 0&#45;&#45;2 -->
<g id="edge2" class="edge"><title>0&#45;&#45;2</title>
<path fill="none" stroke="black" d="M60.1096,-67.4985C66.7956,-68.8108 87.8983,-72.9531 94.3297,-74.2155"/>
</g>
<!-- 3 -->
<g id="node4" class="node"><title>3</title>
<ellipse fill="black" stroke="black" cx="33.3771" cy="-138.914" rx="1.8" ry="1.8"/>
</g>
<!-- 0&#45;&#45;3 -->
<g id="edge3" class="edge"><title>0&#45;&#45;3</title>
<path fill="none" stroke="black" d="M57.4483,-68.8711C54.0336,-78.8073 37.3247,-127.427 33.9659,-137.201"/>
</g>
<!-- 4 -->
<g id="node5" class="node"><title>4</title>
<ellipse fill="black" stroke="black" cx="126.372" cy="-115.383" rx="1.8" ry="1.8"/>
</g>
<!-- 0&#45;&#45;4 -->
<g id="edge4" class="edge"><title>0&#45;&#45;4</title>
<path fill="none" stroke="black" d="M59.7471,-68.2895C69.1163,-74.9119 114.645,-107.093 124.492,-114.053"/>
</g>
<!-- 5 -->
<g id="node6" class="node"><title>5</title>
<ellipse fill="black" stroke="black" cx="96.1033" cy="-154.898" rx="1.8" ry="1.8"/>
</g>
<!-- 0&#45;&#45;5 -->
<g id="edge5" class="edge"><title>0&#45;&#45;5</title>
<path fill="none" stroke="black" d="M58.8531,-68.9297C63.8042,-80.3563 90.3746,-141.677 95.3131,-153.074"/>
</g>
<!-- 6 -->
<g id="node7" class="node"><title>6</title>
<ellipse fill="black" stroke="black" cx="1.8" cy="-71.282" rx="1.8" ry="1.8"/>
</g>
<!-- 0&#45;&#45;6 -->
<g id="edge6" class="edge"><title>0&#45;&#45;6</title>
<path fill="none" stroke="black" d="M56.1866,-67.2351C47.6451,-67.8707 12.4115,-70.4924 3.73654,-71.1379"/>
</g>
<!-- 8 -->
<g id="node8" class="node"><title>8</title>
<ellipse fill="black" stroke="black" cx="17.961" cy="-1.8" rx="1.8" ry="1.8"/>
</g>
<!-- 0&#45;&#45;8 -->
<g id="edge7" class="edge"><title>0&#45;&#45;8</title>
<path fill="none" stroke="black" d="M57.0673,-65.4818C51.568,-56.5265 24.8447,-13.0096 19.0648,-3.59741"/>
</g>
<!-- 1&#45;&#45;2 -->
<g id="edge8" class="edge"><title>1&#45;&#45;2</title>
<path fill="none" stroke="black" d="M59.5593,-114.473C65.3151,-108.209 89.0578,-82.3671 94.9036,-76.0046"/>
</g>
<!-- 1&#45;&#45;3 -->
<g id="edge9" class="edge"><title>1&#45;&#45;3</title>
<path fill="none" stroke="black" d="M56.9581,-117.086C52.6715,-121.054 39.3129,-133.419 34.8476,-137.553"/>
</g>
<!-- 1&#45;&#45;4 -->
<g id="edge10" class="edge"><title>1&#45;&#45;4</title>
<path fill="none" stroke="black" d="M60.2619,-115.833C70.2026,-115.765 114.876,-115.461 124.53,-115.395"/>
</g>
<!-- 1&#45;&#45;5 -->
<g id="edge11" class="edge"><title>1&#45;&#45;5</title>
<path fill="none" stroke="black" d="M59.5558,-117.145C65.2956,-123.074 88.9725,-147.532 94.802,-153.554"/>
</g>
<!-- 1&#45;&#45;6 -->
<g id="edge12" class="edge"><title>1&#45;&#45;6</title>
<path fill="none" stroke="black" d="M56.4182,-114.363C47.6871,-107.476 11.1844,-78.6842 3.3039,-72.4683"/>
</g>
<!-- 2&#45;&#45;3 -->
<g id="edge13" class="edge"><title>2&#45;&#45;3</title>
<path fill="none" stroke="black" d="M94.6554,-76.1745C85.887,-85.152 42.6841,-129.385 34.6607,-137.6"/>
</g>
<!-- 2&#45;&#45;4 -->
<g id="edge14" class="edge"><title>2&#45;&#45;4</title>
<path fill="none" stroke="black" d="M97.5047,-76.3373C102.466,-83.0482 120.22,-107.061 125.115,-113.681"/>
</g>
<!-- 2&#45;&#45;5 -->
<g id="edge15" class="edge"><title>2&#45;&#45;5</title>
<path fill="none" stroke="black" d="M96.206,-76.5696C96.1914,-87.6811 96.1201,-142.052 96.1058,-152.982"/>
</g>
<!-- 2&#45;&#45;6 -->
<g id="edge16" class="edge"><title>2&#45;&#45;6</title>
<path fill="none" stroke="black" d="M94.2367,-74.5153C81.9503,-74.0856 16.0158,-71.7793 3.76101,-71.3506"/>
</g>
<!-- 3&#45;&#45;4 -->
<g id="edge17" class="edge"><title>3&#45;&#45;4</title>
<path fill="none" stroke="black" d="M35.3195,-138.422C47.4219,-135.36 112.369,-118.926 124.441,-115.871"/>
</g>
<!-- 3&#45;&#45;5 -->
<g id="edge18" class="edge"><title>3&#45;&#45;5</title>
<path fill="none" stroke="black" d="M35.1867,-139.375C44.1858,-141.668 84.0758,-151.833 93.9076,-154.338"/>
</g>
<!-- 3&#45;&#45;6 -->
<g id="edge19" class="edge"><title>3&#45;&#45;6</title>
<path fill="none" stroke="black" d="M32.5966,-137.242C28.2658,-127.966 7.22098,-82.8927 2.66923,-73.1437"/>
</g>
<!-- 4&#45;&#45;5 -->
<g id="edge20" class="edge"><title>4&#45;&#45;5</title>
<path fill="none" stroke="black" d="M125.072,-117.081C120.093,-123.58 102.277,-146.838 97.3654,-153.25"/>
</g>
<!-- 7 -->
<g id="node9" class="node"><title>7</title>
<ellipse fill="black" stroke="black" cx="168.065" cy="-178.285" rx="1.8" ry="1.8"/>
</g>
<!-- 4&#45;&#45;7 -->
<g id="edge21" class="edge"><title>4&#45;&#45;7</title>
<path fill="none" stroke="black" d="M127.403,-116.937C133.121,-125.565 160.907,-167.486 166.917,-176.554"/>
</g>
<!-- 5&#45;&#45;7 -->
<g id="edge22" class="edge"><title>5&#45;&#45;7</title>
<path fill="none" stroke="black" d="M97.8821,-155.476C107.838,-158.712 156.555,-174.545 166.348,-177.727"/>
</g>
<!-- 6&#45;&#45;8 -->
<g id="edge23" class="edge"><title>6&#45;&#45;8</title>
<path fill="none" stroke="black" d="M2.26624,-69.2775C4.62619,-59.1312 15.2318,-13.534 17.5235,-3.68096"/>
</g>
</g>
</svg>
