<?xml version="1.0" encoding="UTF-8" standalone="no"?>
<!DOCTYPE svg PUBLIC "-//W3C//DTD SVG 1.1//EN"
 "http://www.w3.org/Graphics/SVG/1.1/DTD/svg11.dtd">
<!-- Generated by graphviz version 2.36.0 (20140111.2315)
 -->
<!-- Title: %3 Pages: 1 -->
<svg width="159pt" height="206pt"
 viewBox="0.00 0.00 159.28 205.88" xmlns="http://www.w3.org/2000/svg" xmlns:xlink="http://www.w3.org/1999/xlink">
<g id="graph0" class="graph" transform="scale(1 1) rotate(0) translate(4 201.885)">
<title>%3</title>
<!-- 0 -->
<g id="node1" class="node"><title>0</title>
<ellipse fill="black" stroke="black" cx="79.8897" cy="-82.9669" rx="1.8" ry="1.8"/>
</g>
<!-- 1 -->
<g id="node2" class="node"><title>1</title>
<ellipse fill="black" stroke="black" cx="80.5874" cy="-132.157" rx="1.8" ry="1.8"/>
</g>
<!-- 0&#45;&#45;1 -->
<g id="edge1" class="edge"><title>0&#45;&#45;1</title>
<path fill="none" stroke="black" d="M79.9196,-85.0805C80.0344,-93.1719 80.4451,-122.124 80.5583,-130.106"/>
</g>
<!-- 2 -->
<g id="node3" class="node"><title>2</title>
<ellipse fill="black" stroke="black" cx="45.1478" cy="-56.0908" rx="1.8" ry="1.8"/>
</g>
<!-- 0&#45;&#45;2 -->
<g id="edge2" class="edge"><title>0&#45;&#45;2</title>
<path fill="none" stroke="black" d="M78.3968,-81.812C72.6822,-77.3912 52.2343,-61.5729 46.5964,-57.2114"/>
</g>
<!-- 3 -->
<g id="node4" class="node"><title>3</title>
<ellipse fill="black" stroke="black" cx="129.529" cy="-60.2157" rx="1.8" ry="1.8"/>
</g>
<!-- 0&#45;&#45;3 -->
<g id="edge3" class="edge"><title>0&#45;&#45;3</title>
<path fill="none" stroke="black" d="M81.5413,-82.2099C89.0779,-78.7557 120.166,-64.507 127.821,-60.9988"/>
</g>
<!-- 4 -->
<g id="node5" class="node"><title>4</title>
<ellipse fill="black" stroke="black" cx="149.476" cy="-127.286" rx="1.8" ry="1.8"/>
</g>
<!-- 0&#45;&#45;4 -->
<g id="edge4" class="edge"><title>0&#45;&#45;4</title>
<path fill="none" stroke="black" d="M81.6098,-84.0624C91.1534,-90.1408 137.529,-119.678 147.56,-126.066"/>
</g>
<!-- 5 -->
<g id="node6" class="node"><title>5</title>
<ellipse fill="black" stroke="black" cx="19.5429" cy="-138.096" rx="1.8" ry="1.8"/>
</g>
<!-- 0&#45;&#45;5 -->
<g id="edge5" class="edge"><title>0&#45;&#45;5</title>
<path fill="none" stroke="black" d="M78.3979,-84.3296C70.1214,-91.8905 29.9029,-128.631 21.2041,-136.578"/>
</g>
<!-- 6 -->
<g id="node7" class="node"><title>6</title>
<ellipse fill="black" stroke="black" cx="1.8" cy="-93.4644" rx="1.8" ry="1.8"/>
</g>
<!-- 0&#45;&#45;6 -->
<g id="edge6" class="edge"><title>0&#45;&#45;6</title>
<path fill="none" stroke="black" d="M77.9593,-83.2263C67.1555,-84.6787 14.2898,-91.7854 3.66284,-93.214"/>
</g>
<!-- 7 -->
<g id="node8" class="node"><title>7</title>
<ellipse fill="black" stroke="black" cx="90.3279" cy="-1.8" rx="1.8" ry="1.8"/>
</g>
<!-- 0&#45;&#45;7 -->
<g id="edge7" class="edge"><title>0&#45;&#45;7</title>
<path fill="none" stroke="black" d="M80.1477,-80.9605C81.5918,-69.7309 88.6584,-14.7819 90.0789,-3.73625"/>
</g>
<!-- 1&#45;&#45;2 -->
<g id="edge8" class="edge"><title>1&#45;&#45;2</title>
<path fill="none" stroke="black" d="M79.7114,-130.277C74.8082,-119.753 50.8161,-68.257 45.9932,-57.9054"/>
</g>
<!-- 1&#45;&#45;3 -->
<g id="edge9" class="edge"><title>1&#45;&#45;3</title>
<path fill="none" stroke="black" d="M81.6096,-130.655C87.979,-121.292 122.16,-71.0485 128.513,-61.71"/>
</g>
<!-- 1&#45;&#45;4 -->
<g id="edge10" class="edge"><title>1&#45;&#45;4</title>
<path fill="none" stroke="black" d="M82.5748,-132.017C92.6344,-131.306 137.842,-128.109 147.611,-127.418"/>
</g>
<!-- 1&#45;&#45;5 -->
<g id="edge11" class="edge"><title>1&#45;&#45;5</title>
<path fill="none" stroke="black" d="M78.5564,-132.355C69.2882,-133.257 31.0571,-136.976 21.6442,-137.891"/>
</g>
<!-- 1&#45;&#45;6 -->
<g id="edge12" class="edge"><title>1&#45;&#45;6</title>
<path fill="none" stroke="black" d="M78.9418,-131.349C68.6884,-126.314 13.6636,-99.2907 3.43653,-94.2681"/>
</g>
<!-- 8 -->
<g id="node9" class="node"><title>8</title>
<ellipse fill="black" stroke="black" cx="124.616" cy="-196.085" rx="1.8" ry="1.8"/>
</g>
<!-- 1&#45;&#45;8 -->
<g id="edge13" class="edge"><title>1&#45;&#45;8</title>
<path fill="none" stroke="black" d="M81.6758,-133.738C87.7142,-142.505 117.057,-185.11 123.404,-194.325"/>
</g>
<!-- 2&#45;&#45;3 -->
<g id="edge14" class="edge"><title>2&#45;&#45;3</title>
<path fill="none" stroke="black" d="M47.2337,-56.1928C58.908,-56.7635 116.033,-59.556 127.517,-60.1173"/>
</g>
<!-- 2&#45;&#45;5 -->
<g id="edge15" class="edge"><title>2&#45;&#45;5</title>
<path fill="none" stroke="black" d="M44.5149,-58.1179C40.9724,-69.4634 23.6382,-124.98 20.1537,-136.139"/>
</g>
<!-- 2&#45;&#45;6 -->
<g id="edge16" class="edge"><title>2&#45;&#45;6</title>
<path fill="none" stroke="black" d="M43.7056,-57.3343C37.1242,-63.0086 9.97628,-86.415 3.29213,-92.1779"/>
</g>
<!-- 2&#45;&#45;7 -->
<g id="edge17" class="edge"><title>2&#45;&#45;7</title>
<path fill="none" stroke="black" d="M46.651,-54.2845C53.633,-45.8945 82.8234,-10.8178 89.1252,-3.24515"/>
</g>
<!-- 3&#45;&#45;4 -->
<g id="edge18" class="edge"><title>3&#45;&#45;4</title>
<path fill="none" stroke="black" d="M130.105,-62.1507C133.018,-71.9448 146.107,-115.96 148.936,-125.471"/>
</g>
<!-- 3&#45;&#45;7 -->
<g id="edge19" class="edge"><title>3&#45;&#45;7</title>
<path fill="none" stroke="black" d="M128.225,-58.2721C122.167,-49.2447 96.8393,-11.503 91.3714,-3.35495"/>
</g>
<!-- 4&#45;&#45;8 -->
<g id="edge20" class="edge"><title>4&#45;&#45;8</title>
<path fill="none" stroke="black" d="M148.861,-128.987C145.452,-138.423 128.884,-184.274 125.3,-194.191"/>
</g>
<!-- 5&#45;&#45;6 -->
<g id="edge21" class="edge"><title>5&#45;&#45;6</title>
<path fill="none" stroke="black" d="M18.7805,-136.178C15.862,-128.837 5.41913,-102.568 2.5398,-95.3253"/>
</g>
</g>
</svg>
