<?xml version="1.0" encoding="UTF-8" standalone="no"?>
<!DOCTYPE svg PUBLIC "-//W3C//DTD SVG 1.1//EN"
 "http://www.w3.org/Graphics/SVG/1.1/DTD/svg11.dtd">
<!-- Generated by graphviz version 2.36.0 (20140111.2315)
 -->
<!-- Title: %3 Pages: 1 -->
<svg width="152pt" height="217pt"
 viewBox="0.00 0.00 151.97 217.21" xmlns="http://www.w3.org/2000/svg" xmlns:xlink="http://www.w3.org/1999/xlink">
<g id="graph0" class="graph" transform="scale(1 1) rotate(0) translate(4 213.215)">
<title>%3</title>
<!-- 0 -->
<g id="node1" class="node"><title>0</title>
<ellipse fill="black" stroke="black" cx="74.7118" cy="-161.119" rx="1.8" ry="1.8"/>
</g>
<!-- 1 -->
<g id="node2" class="node"><title>1</title>
<ellipse fill="black" stroke="black" cx="95.586" cy="-136.116" rx="1.8" ry="1.8"/>
</g>
<!-- 0&#45;&#45;1 -->
<g id="edge1" class="edge"><title>0&#45;&#45;1</title>
<path fill="none" stroke="black" d="M76.0814,-159.479C79.8546,-154.959 90.3724,-142.361 94.1839,-137.796"/>
</g>
<!-- 2 -->
<g id="node3" class="node"><title>2</title>
<ellipse fill="black" stroke="black" cx="24.762" cy="-113.548" rx="1.8" ry="1.8"/>
</g>
<!-- 0&#45;&#45;2 -->
<g id="edge2" class="edge"><title>0&#45;&#45;2</title>
<path fill="none" stroke="black" d="M73.0499,-159.537C65.3308,-152.185 33.0588,-121.45 26.0916,-114.814"/>
</g>
<!-- 3 -->
<g id="node4" class="node"><title>3</title>
<ellipse fill="black" stroke="black" cx="27.2745" cy="-145.698" rx="1.8" ry="1.8"/>
</g>
<!-- 0&#45;&#45;3 -->
<g id="edge3" class="edge"><title>0&#45;&#45;3</title>
<path fill="none" stroke="black" d="M72.6735,-160.457C64.8705,-157.92 36.9506,-148.844 29.2525,-146.341"/>
</g>
<!-- 4 -->
<g id="node5" class="node"><title>4</title>
<ellipse fill="black" stroke="black" cx="74.243" cy="-75.7195" rx="1.8" ry="1.8"/>
</g>
<!-- 0&#45;&#45;4 -->
<g id="edge4" class="edge"><title>0&#45;&#45;4</title>
<path fill="none" stroke="black" d="M74.7002,-159.008C74.6353,-147.193 74.318,-89.3784 74.2542,-77.7567"/>
</g>
<!-- 5 -->
<g id="node6" class="node"><title>5</title>
<ellipse fill="black" stroke="black" cx="70.5295" cy="-207.415" rx="1.8" ry="1.8"/>
</g>
<!-- 0&#45;&#45;5 -->
<g id="edge5" class="edge"><title>0&#45;&#45;5</title>
<path fill="none" stroke="black" d="M74.5321,-163.109C73.8441,-170.724 71.3826,-197.972 70.7039,-205.484"/>
</g>
<!-- 6 -->
<g id="node7" class="node"><title>6</title>
<ellipse fill="black" stroke="black" cx="1.8" cy="-184.482" rx="1.8" ry="1.8"/>
</g>
<!-- 0&#45;&#45;6 -->
<g id="edge6" class="edge"><title>0&#45;&#45;6</title>
<path fill="none" stroke="black" d="M72.9095,-161.697C62.822,-164.929 13.4616,-180.746 3.53932,-183.925"/>
</g>
<!-- 7 -->
<g id="node8" class="node"><title>7</title>
<ellipse fill="black" stroke="black" cx="142.174" cy="-195.95" rx="1.8" ry="1.8"/>
</g>
<!-- 0&#45;&#45;7 -->
<g id="edge7" class="edge"><title>0&#45;&#45;7</title>
<path fill="none" stroke="black" d="M76.3794,-161.98C85.6317,-166.757 130.592,-189.971 140.317,-194.991"/>
</g>
<!-- 1&#45;&#45;2 -->
<g id="edge8" class="edge"><title>1&#45;&#45;2</title>
<path fill="none" stroke="black" d="M93.8352,-135.558C84.1218,-132.463 36.9207,-117.422 26.7116,-114.169"/>
</g>
<!-- 1&#45;&#45;3 -->
<g id="edge9" class="edge"><title>1&#45;&#45;3</title>
<path fill="none" stroke="black" d="M93.6152,-136.393C83.6399,-137.792 38.8108,-144.08 29.1238,-145.439"/>
</g>
<!-- 1&#45;&#45;4 -->
<g id="edge10" class="edge"><title>1&#45;&#45;4</title>
<path fill="none" stroke="black" d="M94.9702,-134.374C91.9082,-125.709 78.3355,-87.3003 74.9901,-77.8336"/>
</g>
<!-- 1&#45;&#45;5 -->
<g id="edge11" class="edge"><title>1&#45;&#45;5</title>
<path fill="none" stroke="black" d="M94.9666,-137.879C91.5,-147.743 74.5371,-196.011 71.1273,-205.714"/>
</g>
<!-- 1&#45;&#45;6 -->
<g id="edge12" class="edge"><title>1&#45;&#45;6</title>
<path fill="none" stroke="black" d="M93.9581,-136.956C82.5746,-142.826 15.0025,-177.674 3.47264,-183.62"/>
</g>
<!-- 1&#45;&#45;7 -->
<g id="edge13" class="edge"><title>1&#45;&#45;7</title>
<path fill="none" stroke="black" d="M96.7376,-137.595C103.127,-145.801 134.176,-185.678 140.891,-194.303"/>
</g>
<!-- 2&#45;&#45;3 -->
<g id="edge14" class="edge"><title>2&#45;&#45;3</title>
<path fill="none" stroke="black" d="M24.9269,-115.657C25.3898,-121.581 26.696,-138.295 27.1314,-143.866"/>
</g>
<!-- 2&#45;&#45;4 -->
<g id="edge15" class="edge"><title>2&#45;&#45;4</title>
<path fill="none" stroke="black" d="M26.4083,-112.289C33.9208,-106.546 64.9099,-82.8547 72.5398,-77.0216"/>
</g>
<!-- 2&#45;&#45;5 -->
<g id="edge16" class="edge"><title>2&#45;&#45;5</title>
<path fill="none" stroke="black" d="M25.5564,-115.177C31.1116,-126.57 64.0867,-194.201 69.7133,-205.741"/>
</g>
<!-- 2&#45;&#45;6 -->
<g id="edge17" class="edge"><title>2&#45;&#45;6</title>
<path fill="none" stroke="black" d="M24.1944,-115.301C21.0452,-125.03 5.74199,-172.305 2.43208,-182.53"/>
</g>
<!-- 3&#45;&#45;4 -->
<g id="edge18" class="edge"><title>3&#45;&#45;4</title>
<path fill="none" stroke="black" d="M28.4356,-143.969C34.8772,-134.371 66.1798,-87.733 72.9501,-77.6458"/>
</g>
<!-- 3&#45;&#45;5 -->
<g id="edge19" class="edge"><title>3&#45;&#45;5</title>
<path fill="none" stroke="black" d="M28.3438,-147.224C34.2762,-155.688 63.1038,-196.82 69.3388,-205.716"/>
</g>
<!-- 3&#45;&#45;6 -->
<g id="edge20" class="edge"><title>3&#45;&#45;6</title>
<path fill="none" stroke="black" d="M26.1799,-147.365C21.9896,-153.744 6.99621,-176.571 2.86218,-182.865"/>
</g>
<!-- 8 -->
<g id="node9" class="node"><title>8</title>
<ellipse fill="black" stroke="black" cx="87.6691" cy="-1.8" rx="1.8" ry="1.8"/>
</g>
<!-- 4&#45;&#45;8 -->
<g id="edge21" class="edge"><title>4&#45;&#45;8</title>
<path fill="none" stroke="black" d="M74.5749,-73.8922C76.4163,-63.7543 85.3642,-14.4901 87.2995,-3.8348"/>
</g>
<!-- 5&#45;&#45;7 -->
<g id="edge22" class="edge"><title>5&#45;&#45;7</title>
<path fill="none" stroke="black" d="M72.5964,-207.084C83.0584,-205.41 130.075,-197.886 140.234,-196.26"/>
</g>
</g>
</svg>
