<?xml version="1.0" encoding="UTF-8" standalone="no"?>
<!DOCTYPE svg PUBLIC "-//W3C//DTD SVG 1.1//EN"
 "http://www.w3.org/Graphics/SVG/1.1/DTD/svg11.dtd">
<!-- Generated by graphviz version 2.36.0 (20140111.2315)
 -->
<!-- Title: %3 Pages: 1 -->
<svg width="158pt" height="187pt"
 viewBox="0.00 0.00 158.19 186.73" xmlns="http://www.w3.org/2000/svg" xmlns:xlink="http://www.w3.org/1999/xlink">
<g id="graph0" class="graph" transform="scale(1 1) rotate(0) translate(4 182.733)">
<title>%3</title>
<!-- 0 -->
<g id="node1" class="node"><title>0</title>
<ellipse fill="black" stroke="black" cx="67.4094" cy="-89.4266" rx="1.8" ry="1.8"/>
</g>
<!-- 1 -->
<g id="node2" class="node"><title>1</title>
<ellipse fill="black" stroke="black" cx="86.5288" cy="-128.45" rx="1.8" ry="1.8"/>
</g>
<!-- 0&#45;&#45;1 -->
<g id="edge1" class="edge"><title>0&#45;&#45;1</title>
<path fill="none" stroke="black" d="M68.2309,-91.1033C71.3759,-97.5222 82.6289,-120.49 85.7316,-126.823"/>
</g>
<!-- 2 -->
<g id="node3" class="node"><title>2</title>
<ellipse fill="black" stroke="black" cx="84.9542" cy="-40.7825" rx="1.8" ry="1.8"/>
</g>
<!-- 0&#45;&#45;2 -->
<g id="edge2" class="edge"><title>0&#45;&#45;2</title>
<path fill="none" stroke="black" d="M68.1632,-87.3364C71.0492,-79.3349 81.3754,-50.7048 84.2226,-42.8108"/>
</g>
<!-- 3 -->
<g id="node4" class="node"><title>3</title>
<ellipse fill="black" stroke="black" cx="67.9144" cy="-176.933" rx="1.8" ry="1.8"/>
</g>
<!-- 0&#45;&#45;3 -->
<g id="edge3" class="edge"><title>0&#45;&#45;3</title>
<path fill="none" stroke="black" d="M67.4199,-91.2543C67.4856,-102.642 67.8384,-163.757 67.9039,-175.115"/>
</g>
<!-- 4 -->
<g id="node5" class="node"><title>4</title>
<ellipse fill="black" stroke="black" cx="134.972" cy="-151.927" rx="1.8" ry="1.8"/>
</g>
<!-- 0&#45;&#45;4 -->
<g id="edge4" class="edge"><title>0&#45;&#45;4</title>
<path fill="none" stroke="black" d="M69.0795,-90.9715C78.5082,-99.6938 124.964,-142.669 133.592,-150.65"/>
</g>
<!-- 5 -->
<g id="node6" class="node"><title>5</title>
<ellipse fill="black" stroke="black" cx="12.6476" cy="-146.542" rx="1.8" ry="1.8"/>
</g>
<!-- 0&#45;&#45;5 -->
<g id="edge5" class="edge"><title>0&#45;&#45;5</title>
<path fill="none" stroke="black" d="M66.0557,-90.8384C58.5452,-98.6717 22.0488,-136.737 14.155,-144.97"/>
</g>
<!-- 6 -->
<g id="node7" class="node"><title>6</title>
<ellipse fill="black" stroke="black" cx="1.8" cy="-51.9558" rx="1.8" ry="1.8"/>
</g>
<!-- 0&#45;&#45;6 -->
<g id="edge6" class="edge"><title>0&#45;&#45;6</title>
<path fill="none" stroke="black" d="M65.7875,-88.5003C56.7893,-83.3612 13.0634,-58.3886 3.60604,-52.9873"/>
</g>
<!-- 7 -->
<g id="node8" class="node"><title>7</title>
<ellipse fill="black" stroke="black" cx="148.391" cy="-48.0519" rx="1.8" ry="1.8"/>
</g>
<!-- 0&#45;&#45;7 -->
<g id="edge7" class="edge"><title>0&#45;&#45;7</title>
<path fill="none" stroke="black" d="M69.1008,-88.5624C79.6398,-83.1779 136.197,-54.2819 146.709,-48.9113"/>
</g>
<!-- 8 -->
<g id="node9" class="node"><title>8</title>
<ellipse fill="black" stroke="black" cx="47.5397" cy="-1.8" rx="1.8" ry="1.8"/>
</g>
<!-- 0&#45;&#45;8 -->
<g id="edge8" class="edge"><title>0&#45;&#45;8</title>
<path fill="none" stroke="black" d="M66.9944,-87.5964C64.4085,-76.1926 50.5316,-14.9945 47.9524,-3.62014"/>
</g>
<!-- 1&#45;&#45;2 -->
<g id="edge9" class="edge"><title>1&#45;&#45;2</title>
<path fill="none" stroke="black" d="M86.4959,-126.619C86.291,-115.21 85.1913,-53.9832 84.9869,-42.6035"/>
</g>
<!-- 1&#45;&#45;3 -->
<g id="edge10" class="edge"><title>1&#45;&#45;3</title>
<path fill="none" stroke="black" d="M85.729,-130.533C82.6671,-138.508 71.7113,-167.044 68.6906,-174.911"/>
</g>
<!-- 1&#45;&#45;4 -->
<g id="edge11" class="edge"><title>1&#45;&#45;4</title>
<path fill="none" stroke="black" d="M88.6104,-129.458C96.5788,-133.32 125.091,-147.138 132.952,-150.948"/>
</g>
<!-- 1&#45;&#45;5 -->
<g id="edge12" class="edge"><title>1&#45;&#45;5</title>
<path fill="none" stroke="black" d="M84.7026,-128.897C74.4809,-131.4 24.4643,-143.648 14.4101,-146.11"/>
</g>
<!-- 2&#45;&#45;6 -->
<g id="edge13" class="edge"><title>2&#45;&#45;6</title>
<path fill="none" stroke="black" d="M82.8987,-41.0587C71.3941,-42.6046 15.0998,-50.1687 3.78366,-51.6893"/>
</g>
<!-- 2&#45;&#45;7 -->
<g id="edge14" class="edge"><title>2&#45;&#45;7</title>
<path fill="none" stroke="black" d="M86.7843,-40.9922C95.8853,-42.0351 136.227,-46.658 146.171,-47.7974"/>
</g>
<!-- 2&#45;&#45;8 -->
<g id="edge15" class="edge"><title>2&#45;&#45;8</title>
<path fill="none" stroke="black" d="M83.3465,-39.1075C77.1922,-32.6953 55.1714,-9.75152 49.0997,-3.4254"/>
</g>
<!-- 3&#45;&#45;4 -->
<g id="edge16" class="edge"><title>3&#45;&#45;4</title>
<path fill="none" stroke="black" d="M69.849,-176.212C79.6412,-172.56 123.647,-156.15 133.157,-152.604"/>
</g>
<!-- 3&#45;&#45;5 -->
<g id="edge17" class="edge"><title>3&#45;&#45;5</title>
<path fill="none" stroke="black" d="M66.0756,-175.922C57.6847,-171.308 23.0721,-152.274 14.55,-147.588"/>
</g>
</g>
</svg>
