<?xml version="1.0" encoding="UTF-8" standalone="no"?>
<!DOCTYPE svg PUBLIC "-//W3C//DTD SVG 1.1//EN"
 "http://www.w3.org/Graphics/SVG/1.1/DTD/svg11.dtd">
<!-- Generated by graphviz version 2.36.0 (20140111.2315)
 -->
<!-- Title: %3 Pages: 1 -->
<svg width="152pt" height="161pt"
 viewBox="0.00 0.00 152.15 161.00" xmlns="http://www.w3.org/2000/svg" xmlns:xlink="http://www.w3.org/1999/xlink">
<g id="graph0" class="graph" transform="scale(1 1) rotate(0) translate(4 157.003)">
<title>%3</title>
<!-- 0 -->
<g id="node1" class="node"><title>0</title>
<ellipse fill="black" stroke="black" cx="39.288" cy="-70.144" rx="1.8" ry="1.8"/>
</g>
<!-- 1 -->
<g id="node2" class="node"><title>1</title>
<ellipse fill="black" stroke="black" cx="86.9749" cy="-40.75" rx="1.8" ry="1.8"/>
</g>
<!-- 0&#45;&#45;1 -->
<g id="edge1" class="edge"><title>0&#45;&#45;1</title>
<path fill="none" stroke="black" d="M40.8746,-69.1661C48.1147,-64.7033 77.9802,-46.2943 85.3334,-41.7618"/>
</g>
<!-- 2 -->
<g id="node3" class="node"><title>2</title>
<ellipse fill="black" stroke="black" cx="62.8998" cy="-1.8" rx="1.8" ry="1.8"/>
</g>
<!-- 0&#45;&#45;2 -->
<g id="edge2" class="edge"><title>0&#45;&#45;2</title>
<path fill="none" stroke="black" d="M39.9692,-68.1723C43.4171,-58.1922 58.9123,-13.3418 62.2606,-3.65015"/>
</g>
<!-- 3 -->
<g id="node4" class="node"><title>3</title>
<ellipse fill="black" stroke="black" cx="82.4611" cy="-97.3176" rx="1.8" ry="1.8"/>
</g>
<!-- 0&#45;&#45;3 -->
<g id="edge3" class="edge"><title>0&#45;&#45;3</title>
<path fill="none" stroke="black" d="M41.1431,-71.3117C48.2446,-75.7814 73.6548,-91.7748 80.661,-96.1846"/>
</g>
<!-- 5 -->
<g id="node5" class="node"><title>5</title>
<ellipse fill="black" stroke="black" cx="134.282" cy="-24.8076" rx="1.8" ry="1.8"/>
</g>
<!-- 0&#45;&#45;5 -->
<g id="edge4" class="edge"><title>0&#45;&#45;5</title>
<path fill="none" stroke="black" d="M40.9368,-69.3571C52.467,-63.8543 120.91,-31.1897 132.588,-25.6162"/>
</g>
<!-- 6 -->
<g id="node6" class="node"><title>6</title>
<ellipse fill="black" stroke="black" cx="72.1846" cy="-151.203" rx="1.8" ry="1.8"/>
</g>
<!-- 0&#45;&#45;6 -->
<g id="edge5" class="edge"><title>0&#45;&#45;6</title>
<path fill="none" stroke="black" d="M39.9751,-71.8371C44.2563,-82.3861 67.2311,-138.998 71.5012,-149.519"/>
</g>
<!-- 7 -->
<g id="node7" class="node"><title>7</title>
<ellipse fill="black" stroke="black" cx="1.8" cy="-16.8561" rx="1.8" ry="1.8"/>
</g>
<!-- 0&#45;&#45;7 -->
<g id="edge6" class="edge"><title>0&#45;&#45;7</title>
<path fill="none" stroke="black" d="M38.0407,-68.3711C32.349,-60.2806 8.871,-26.9073 3.09042,-18.6904"/>
</g>
<!-- 1&#45;&#45;2 -->
<g id="edge7" class="edge"><title>1&#45;&#45;2</title>
<path fill="none" stroke="black" d="M85.9404,-39.0764C81.9803,-32.6695 67.8105,-9.7449 63.9036,-3.42405"/>
</g>
<!-- 1&#45;&#45;3 -->
<g id="edge8" class="edge"><title>1&#45;&#45;3</title>
<path fill="none" stroke="black" d="M86.8247,-42.6321C86.1394,-51.2206 83.3125,-86.6478 82.6165,-95.3704"/>
</g>
<!-- 1&#45;&#45;5 -->
<g id="edge10" class="edge"><title>1&#45;&#45;5</title>
<path fill="none" stroke="black" d="M89.0077,-40.065C96.7892,-37.4426 124.633,-28.0595 132.31,-25.4723"/>
</g>
<!-- 1&#45;&#45;7 -->
<g id="edge11" class="edge"><title>1&#45;&#45;7</title>
<path fill="none" stroke="black" d="M85.1959,-40.251C74.1112,-37.1414 14.6254,-20.454 3.56921,-17.3524"/>
</g>
<!-- 4 -->
<g id="node8" class="node"><title>4</title>
<ellipse fill="black" stroke="black" cx="142.345" cy="-101.409" rx="1.8" ry="1.8"/>
</g>
<!-- 1&#45;&#45;4 -->
<g id="edge9" class="edge"><title>1&#45;&#45;4</title>
<path fill="none" stroke="black" d="M88.3436,-42.2495C95.9376,-50.5688 132.84,-90.9954 140.821,-99.7392"/>
</g>
<!-- 2&#45;&#45;3 -->
<g id="edge12" class="edge"><title>2&#45;&#45;3</title>
<path fill="none" stroke="black" d="M63.3084,-3.79502C65.8541,-16.2257 79.5156,-82.9349 82.0548,-95.3336"/>
</g>
<!-- 2&#45;&#45;5 -->
<g id="edge13" class="edge"><title>2&#45;&#45;5</title>
<path fill="none" stroke="black" d="M64.6643,-2.36873C74.4543,-5.5242 122.028,-20.8578 132.317,-24.1743"/>
</g>
<!-- 2&#45;&#45;7 -->
<g id="edge14" class="edge"><title>2&#45;&#45;7</title>
<path fill="none" stroke="black" d="M61.1371,-2.23436C52.3714,-4.39439 13.5157,-13.9691 3.93875,-16.3291"/>
</g>
<!-- 3&#45;&#45;6 -->
<g id="edge16" class="edge"><title>3&#45;&#45;6</title>
<path fill="none" stroke="black" d="M82.1192,-99.1105C80.559,-107.292 74.1229,-141.039 72.5383,-149.348"/>
</g>
<!-- 3&#45;&#45;4 -->
<g id="edge15" class="edge"><title>3&#45;&#45;4</title>
<path fill="none" stroke="black" d="M84.4536,-97.4537C93.5456,-98.0749 131.05,-100.637 140.284,-101.268"/>
</g>
<!-- 4&#45;&#45;5 -->
<g id="edge17" class="edge"><title>4&#45;&#45;5</title>
<path fill="none" stroke="black" d="M142.146,-99.5154C141.03,-88.9175 135.572,-37.0593 134.475,-26.6349"/>
</g>
<!-- 4&#45;&#45;6 -->
<g id="edge18" class="edge"><title>4&#45;&#45;6</title>
<path fill="none" stroke="black" d="M140.611,-102.64C130.989,-109.469 84.2293,-142.655 74.1159,-149.832"/>
</g>
</g>
</svg>
