<?xml version="1.0" encoding="UTF-8" standalone="no"?>
<!DOCTYPE svg PUBLIC "-//W3C//DTD SVG 1.1//EN"
 "http://www.w3.org/Graphics/SVG/1.1/DTD/svg11.dtd">
<!-- Generated by graphviz version 2.36.0 (20140111.2315)
 -->
<!-- Title: %3 Pages: 1 -->
<svg width="190pt" height="133pt"
 viewBox="0.00 0.00 189.98 132.86" xmlns="http://www.w3.org/2000/svg" xmlns:xlink="http://www.w3.org/1999/xlink">
<g id="graph0" class="graph" transform="scale(1 1) rotate(0) translate(4 128.863)">
<title>%3</title>
<!-- 0 -->
<g id="node1" class="node"><title>0</title>
<ellipse fill="black" stroke="black" cx="51.181" cy="-59.8632" rx="1.8" ry="1.8"/>
</g>
<!-- 1 -->
<g id="node2" class="node"><title>1</title>
<ellipse fill="black" stroke="black" cx="109.428" cy="-56.0528" rx="1.8" ry="1.8"/>
</g>
<!-- 0&#45;&#45;1 -->
<g id="edge1" class="edge"><title>0&#45;&#45;1</title>
<path fill="none" stroke="black" d="M53.119,-59.7364C61.9623,-59.1579 98.4412,-56.7715 107.423,-56.1839"/>
</g>
<!-- 3 -->
<g id="node3" class="node"><title>3</title>
<ellipse fill="black" stroke="black" cx="37.6166" cy="-8.37997" rx="1.8" ry="1.8"/>
</g>
<!-- 0&#45;&#45;3 -->
<g id="edge2" class="edge"><title>0&#45;&#45;3</title>
<path fill="none" stroke="black" d="M50.5981,-57.651C48.3669,-49.1825 40.3835,-18.8813 38.1822,-10.5266"/>
</g>
<!-- 4 -->
<g id="node4" class="node"><title>4</title>
<ellipse fill="black" stroke="black" cx="81.105" cy="-123.063" rx="1.8" ry="1.8"/>
</g>
<!-- 0&#45;&#45;4 -->
<g id="edge3" class="edge"><title>0&#45;&#45;4</title>
<path fill="none" stroke="black" d="M52.0443,-61.6864C56.414,-70.9154 76.0515,-112.39 80.295,-121.352"/>
</g>
<!-- 5 -->
<g id="node5" class="node"><title>5</title>
<ellipse fill="black" stroke="black" cx="111.948" cy="-1.8" rx="1.8" ry="1.8"/>
</g>
<!-- 0&#45;&#45;5 -->
<g id="edge4" class="edge"><title>0&#45;&#45;5</title>
<path fill="none" stroke="black" d="M52.6831,-58.4279C61.0172,-50.4646 101.516,-11.7679 110.275,-3.39832"/>
</g>
<!-- 7 -->
<g id="node6" class="node"><title>7</title>
<ellipse fill="black" stroke="black" cx="1.8" cy="-90.3877" rx="1.8" ry="1.8"/>
</g>
<!-- 0&#45;&#45;7 -->
<g id="edge5" class="edge"><title>0&#45;&#45;7</title>
<path fill="none" stroke="black" d="M49.538,-60.8788C42.0407,-65.5132 11.1143,-84.6301 3.49981,-89.337"/>
</g>
<!-- 1&#45;&#45;3 -->
<g id="edge7" class="edge"><title>1&#45;&#45;3</title>
<path fill="none" stroke="black" d="M107.928,-55.0571C98.6628,-48.9064 49.2914,-16.1304 39.3584,-9.53625"/>
</g>
<!-- 1&#45;&#45;4 -->
<g id="edge8" class="edge"><title>1&#45;&#45;4</title>
<path fill="none" stroke="black" d="M108.611,-57.986C104.475,-67.7713 85.8881,-111.746 81.8718,-121.249"/>
</g>
<!-- 2 -->
<g id="node7" class="node"><title>2</title>
<ellipse fill="black" stroke="black" cx="156.094" cy="-84.4538" rx="1.8" ry="1.8"/>
</g>
<!-- 1&#45;&#45;2 -->
<g id="edge6" class="edge"><title>1&#45;&#45;2</title>
<path fill="none" stroke="black" d="M110.98,-56.9977C118.066,-61.3097 147.292,-79.0968 154.488,-83.4762"/>
</g>
<!-- 6 -->
<g id="node8" class="node"><title>6</title>
<ellipse fill="black" stroke="black" cx="180.183" cy="-18.9678" rx="1.8" ry="1.8"/>
</g>
<!-- 1&#45;&#45;6 -->
<g id="edge9" class="edge"><title>1&#45;&#45;6</title>
<path fill="none" stroke="black" d="M111.177,-55.1361C120.966,-50.0053 168.866,-24.8992 178.495,-19.8525"/>
</g>
<!-- 3&#45;&#45;5 -->
<g id="edge13" class="edge"><title>3&#45;&#45;5</title>
<path fill="none" stroke="black" d="M39.4541,-8.21731C49.6485,-7.31488 99.1869,-2.92961 109.902,-1.98113"/>
</g>
<!-- 3&#45;&#45;7 -->
<g id="edge14" class="edge"><title>3&#45;&#45;7</title>
<path fill="none" stroke="black" d="M36.8686,-10.0928C32.2074,-20.7653 7.19316,-78.0392 2.54397,-88.6843"/>
</g>
<!-- 4&#45;&#45;7 -->
<g id="edge15" class="edge"><title>4&#45;&#45;7</title>
<path fill="none" stroke="black" d="M79.1447,-122.255C68.1727,-117.735 14.4841,-95.6138 3.69184,-91.1672"/>
</g>
<!-- 5&#45;&#45;6 -->
<g id="edge16" class="edge"><title>5&#45;&#45;6</title>
<path fill="none" stroke="black" d="M113.916,-2.29528C123.88,-4.80225 168.659,-16.0685 178.336,-18.5031"/>
</g>
<!-- 2&#45;&#45;4 -->
<g id="edge10" class="edge"><title>2&#45;&#45;4</title>
<path fill="none" stroke="black" d="M154.241,-85.4082C143.866,-90.7499 93.0989,-116.888 82.8939,-122.142"/>
</g>
<!-- 2&#45;&#45;5 -->
<g id="edge11" class="edge"><title>2&#45;&#45;5</title>
<path fill="none" stroke="black" d="M155.172,-82.7275C149.427,-71.9708 118.595,-14.2458 112.865,-3.51684"/>
</g>
<!-- 2&#45;&#45;6 -->
<g id="edge12" class="edge"><title>2&#45;&#45;6</title>
<path fill="none" stroke="black" d="M156.789,-82.5646C160.307,-73.0018 176.115,-30.0269 179.531,-20.7406"/>
</g>
</g>
</svg>
