<?xml version="1.0" encoding="UTF-8" standalone="no"?>
<!DOCTYPE svg PUBLIC "-//W3C//DTD SVG 1.1//EN"
 "http://www.w3.org/Graphics/SVG/1.1/DTD/svg11.dtd">
<!-- Generated by graphviz version 2.36.0 (20140111.2315)
 -->
<!-- Title: %3 Pages: 1 -->
<svg width="157pt" height="113pt"
 viewBox="0.00 0.00 157.40 113.36" xmlns="http://www.w3.org/2000/svg" xmlns:xlink="http://www.w3.org/1999/xlink">
<g id="graph0" class="graph" transform="scale(1 1) rotate(0) translate(4 109.36)">
<title>%3</title>
<!-- 0 -->
<g id="node1" class="node"><title>0</title>
<ellipse fill="black" stroke="black" cx="30.5268" cy="-54.9219" rx="1.8" ry="1.8"/>
</g>
<!-- 1 -->
<g id="node2" class="node"><title>1</title>
<ellipse fill="black" stroke="black" cx="70.5015" cy="-32.828" rx="1.8" ry="1.8"/>
</g>
<!-- 0&#45;&#45;1 -->
<g id="edge1" class="edge"><title>0&#45;&#45;1</title>
<path fill="none" stroke="black" d="M32.2445,-53.9725C38.8199,-50.3383 62.3476,-37.3346 68.8347,-33.7492"/>
</g>
<!-- 2 -->
<g id="node3" class="node"><title>2</title>
<ellipse fill="black" stroke="black" cx="81.1795" cy="-1.8" rx="1.8" ry="1.8"/>
</g>
<!-- 0&#45;&#45;2 -->
<g id="edge2" class="edge"><title>0&#45;&#45;2</title>
<path fill="none" stroke="black" d="M31.7789,-53.6087C38.7259,-46.3231 72.4838,-10.9197 79.7852,-3.2623"/>
</g>
<!-- 3 -->
<g id="node4" class="node"><title>3</title>
<ellipse fill="black" stroke="black" cx="20.9794" cy="-94.5516" rx="1.8" ry="1.8"/>
</g>
<!-- 0&#45;&#45;3 -->
<g id="edge3" class="edge"><title>0&#45;&#45;3</title>
<path fill="none" stroke="black" d="M30.0135,-57.0525C28.3403,-63.9979 23.0591,-85.9191 21.4496,-92.5999"/>
</g>
<!-- 4 -->
<g id="node5" class="node"><title>4</title>
<ellipse fill="black" stroke="black" cx="113.573" cy="-69.7069" rx="1.8" ry="1.8"/>
</g>
<!-- 0&#45;&#45;4 -->
<g id="edge4" class="edge"><title>0&#45;&#45;4</title>
<path fill="none" stroke="black" d="M32.5797,-55.2873C44.0693,-57.3329 100.291,-67.3422 111.592,-69.3542"/>
</g>
<!-- 5 -->
<g id="node6" class="node"><title>5</title>
<ellipse fill="black" stroke="black" cx="78.1929" cy="-103.56" rx="1.8" ry="1.8"/>
</g>
<!-- 0&#45;&#45;5 -->
<g id="edge5" class="edge"><title>0&#45;&#45;5</title>
<path fill="none" stroke="black" d="M32.1128,-56.5401C39.4789,-64.0565 70.2755,-95.4808 76.9241,-102.265"/>
</g>
<!-- 1&#45;&#45;3 -->
<g id="edge6" class="edge"><title>1&#45;&#45;3</title>
<path fill="none" stroke="black" d="M69.2774,-34.3538C62.4855,-42.8191 29.4811,-83.9553 22.3426,-92.8526"/>
</g>
<!-- 1&#45;&#45;5 -->
<g id="edge7" class="edge"><title>1&#45;&#45;5</title>
<path fill="none" stroke="black" d="M70.7234,-34.8686C71.8466,-45.1973 76.894,-91.6146 77.9847,-101.645"/>
</g>
<!-- 6 -->
<g id="node7" class="node"><title>6</title>
<ellipse fill="black" stroke="black" cx="1.8" cy="-2.00352" rx="1.8" ry="1.8"/>
</g>
<!-- 1&#45;&#45;6 -->
<g id="edge8" class="edge"><title>1&#45;&#45;6</title>
<path fill="none" stroke="black" d="M68.8033,-32.0661C59.3809,-27.8385 13.5943,-7.29529 3.69116,-2.85204"/>
</g>
<!-- 7 -->
<g id="node8" class="node"><title>7</title>
<ellipse fill="black" stroke="black" cx="147.604" cy="-4.87111" rx="1.8" ry="1.8"/>
</g>
<!-- 1&#45;&#45;7 -->
<g id="edge9" class="edge"><title>1&#45;&#45;7</title>
<path fill="none" stroke="black" d="M72.4074,-32.1369C83.0747,-28.2691 135.272,-9.34257 145.765,-5.53803"/>
</g>
<!-- 2&#45;&#45;4 -->
<g id="edge10" class="edge"><title>2&#45;&#45;4</title>
<path fill="none" stroke="black" d="M81.9803,-3.47861C86.4231,-12.792 108.012,-58.049 112.682,-67.8376"/>
</g>
<!-- 2&#45;&#45;5 -->
<g id="edge11" class="edge"><title>2&#45;&#45;5</title>
<path fill="none" stroke="black" d="M81.1171,-3.92539C80.7285,-17.1684 78.6426,-88.237 78.255,-101.446"/>
</g>
<!-- 2&#45;&#45;6 -->
<g id="edge12" class="edge"><title>2&#45;&#45;6</title>
<path fill="none" stroke="black" d="M79.2173,-1.80503C68.235,-1.83319 14.4961,-1.97097 3.69361,-1.99867"/>
</g>
<!-- 2&#45;&#45;7 -->
<g id="edge13" class="edge"><title>2&#45;&#45;7</title>
<path fill="none" stroke="black" d="M83.0958,-1.8886C92.7956,-2.33707 136.386,-4.35247 145.806,-4.78797"/>
</g>
<!-- 3&#45;&#45;4 -->
<g id="edge14" class="edge"><title>3&#45;&#45;4</title>
<path fill="none" stroke="black" d="M22.9134,-94.0327C34.9636,-90.7994 99.6309,-73.4479 111.65,-70.223"/>
</g>
<!-- 3&#45;&#45;5 -->
<g id="edge15" class="edge"><title>3&#45;&#45;5</title>
<path fill="none" stroke="black" d="M22.883,-94.8514C31.5695,-96.219 67.4013,-101.861 76.2235,-103.25"/>
</g>
<!-- 3&#45;&#45;6 -->
<g id="edge16" class="edge"><title>3&#45;&#45;6</title>
<path fill="none" stroke="black" d="M20.5789,-92.6186C18.0828,-80.5744 4.68798,-15.9391 2.19839,-3.92589"/>
</g>
<!-- 4&#45;&#45;5 -->
<g id="edge17" class="edge"><title>4&#45;&#45;5</title>
<path fill="none" stroke="black" d="M112.053,-71.1615C106.233,-76.7299 85.4097,-96.6545 79.6681,-102.148"/>
</g>
<!-- 4&#45;&#45;7 -->
<g id="edge18" class="edge"><title>4&#45;&#45;7</title>
<path fill="none" stroke="black" d="M114.415,-68.1042C119.082,-59.212 141.762,-16.0017 146.667,-6.65586"/>
</g>
</g>
</svg>
