<?xml version="1.0" encoding="UTF-8" standalone="no"?>
<!DOCTYPE svg PUBLIC "-//W3C//DTD SVG 1.1//EN"
 "http://www.w3.org/Graphics/SVG/1.1/DTD/svg11.dtd">
<!-- Generated by graphviz version 2.36.0 (20140111.2315)
 -->
<!-- Title: %3 Pages: 1 -->
<svg width="146pt" height="98pt"
 viewBox="0.00 0.00 145.65 98.47" xmlns="http://www.w3.org/2000/svg" xmlns:xlink="http://www.w3.org/1999/xlink">
<g id="graph0" class="graph" transform="scale(1 1) rotate(0) translate(4 94.474)">
<title>%3</title>
<!-- 0 -->
<g id="node1" class="node"><title>0</title>
<ellipse fill="black" stroke="black" cx="47.4664" cy="-37.2835" rx="1.8" ry="1.8"/>
</g>
<!-- 1 -->
<g id="node2" class="node"><title>1</title>
<ellipse fill="black" stroke="black" cx="87.4779" cy="-40.1201" rx="1.8" ry="1.8"/>
</g>
<!-- 0&#45;&#45;1 -->
<g id="edge1" class="edge"><title>0&#45;&#45;1</title>
<path fill="none" stroke="black" d="M49.6176,-37.436C56.6298,-37.9331 78.7622,-39.5022 85.5074,-39.9804"/>
</g>
<!-- 2 -->
<g id="node3" class="node"><title>2</title>
<ellipse fill="black" stroke="black" cx="70.6709" cy="-1.8" rx="1.8" ry="1.8"/>
</g>
<!-- 0&#45;&#45;2 -->
<g id="edge2" class="edge"><title>0&#45;&#45;2</title>
<path fill="none" stroke="black" d="M48.4634,-35.7588C52.211,-30.0282 65.4444,-9.79225 69.4883,-3.60841"/>
</g>
<!-- 3 -->
<g id="node4" class="node"><title>3</title>
<ellipse fill="black" stroke="black" cx="63.5034" cy="-86.2597" rx="1.8" ry="1.8"/>
</g>
<!-- 0&#45;&#45;3 -->
<g id="edge3" class="edge"><title>0&#45;&#45;3</title>
<path fill="none" stroke="black" d="M48.1555,-39.3879C50.7934,-47.444 60.2322,-76.2697 62.8347,-84.2176"/>
</g>
<!-- 4 -->
<g id="node5" class="node"><title>4</title>
<ellipse fill="black" stroke="black" cx="108.908" cy="-88.674" rx="1.8" ry="1.8"/>
</g>
<!-- 0&#45;&#45;4 -->
<g id="edge4" class="edge"><title>0&#45;&#45;4</title>
<path fill="none" stroke="black" d="M48.9852,-38.5538C57.4118,-45.6019 98.36,-79.8515 107.217,-87.2593"/>
</g>
<!-- 5 -->
<g id="node6" class="node"><title>5</title>
<ellipse fill="black" stroke="black" cx="18.1369" cy="-80.8594" rx="1.8" ry="1.8"/>
</g>
<!-- 0&#45;&#45;5 -->
<g id="edge5" class="edge"><title>0&#45;&#45;5</title>
<path fill="none" stroke="black" d="M46.2061,-39.1559C41.3817,-46.3237 24.1194,-71.9709 19.3598,-79.0425"/>
</g>
<!-- 6 -->
<g id="node7" class="node"><title>6</title>
<ellipse fill="black" stroke="black" cx="1.8" cy="-18.381" rx="1.8" ry="1.8"/>
</g>
<!-- 0&#45;&#45;6 -->
<g id="edge6" class="edge"><title>0&#45;&#45;6</title>
<path fill="none" stroke="black" d="M45.5041,-36.4712C37.9925,-33.362 11.1149,-22.2366 3.70409,-19.1691"/>
</g>
<!-- 7 -->
<g id="node8" class="node"><title>7</title>
<ellipse fill="black" stroke="black" cx="135.854" cy="-30.3669" rx="1.8" ry="1.8"/>
</g>
<!-- 0&#45;&#45;7 -->
<g id="edge7" class="edge"><title>0&#45;&#45;7</title>
<path fill="none" stroke="black" d="M49.3125,-37.139C60.8152,-36.2389 122.545,-31.4083 134.018,-30.5105"/>
</g>
<!-- 1&#45;&#45;2 -->
<g id="edge8" class="edge"><title>1&#45;&#45;2</title>
<path fill="none" stroke="black" d="M86.5743,-38.0598C83.6288,-31.344 74.332,-10.1473 71.4987,-3.68723"/>
</g>
<!-- 1&#45;&#45;3 -->
<g id="edge9" class="edge"><title>1&#45;&#45;3</title>
<path fill="none" stroke="black" d="M86.4478,-42.1027C82.5042,-49.6922 68.3936,-76.8483 64.503,-84.3359"/>
</g>
<!-- 1&#45;&#45;4 -->
<g id="edge10" class="edge"><title>1&#45;&#45;4</title>
<path fill="none" stroke="black" d="M88.3988,-42.2064C91.9238,-50.193 104.537,-78.7701 108.014,-86.6495"/>
</g>
<!-- 1&#45;&#45;5 -->
<g id="edge11" class="edge"><title>1&#45;&#45;5</title>
<path fill="none" stroke="black" d="M85.7639,-41.1271C76.2538,-46.7145 30.0409,-73.8655 20.0456,-79.738"/>
</g>
<!-- 1&#45;&#45;6 -->
<g id="edge12" class="edge"><title>1&#45;&#45;6</title>
<path fill="none" stroke="black" d="M85.6884,-39.666C74.5383,-36.8369 14.7011,-21.6544 3.57966,-18.8325"/>
</g>
<!-- 1&#45;&#45;7 -->
<g id="edge13" class="edge"><title>1&#45;&#45;7</title>
<path fill="none" stroke="black" d="M89.5566,-39.701C97.5139,-38.0967 125.986,-32.3563 133.837,-30.7735"/>
</g>
<!-- 2&#45;&#45;3 -->
<g id="edge14" class="edge"><title>2&#45;&#45;3</title>
<path fill="none" stroke="black" d="M70.4938,-3.88778C69.5021,-15.5729 64.6498,-72.7511 63.6744,-84.2449"/>
</g>
<!-- 2&#45;&#45;4 -->
<g id="edge15" class="edge"><title>2&#45;&#45;4</title>
<path fill="none" stroke="black" d="M71.4696,-3.61449C76.4458,-14.9203 103.15,-75.5927 108.114,-86.8695"/>
</g>
<!-- 2&#45;&#45;5 -->
<g id="edge16" class="edge"><title>2&#45;&#45;5</title>
<path fill="none" stroke="black" d="M69.5737,-3.45127C62.7369,-13.7401 26.0473,-68.9549 19.2281,-79.2172"/>
</g>
<!-- 2&#45;&#45;6 -->
<g id="edge17" class="edge"><title>2&#45;&#45;6</title>
<path fill="none" stroke="black" d="M68.684,-2.27835C58.627,-4.69963 13.4308,-15.5808 3.66442,-17.9321"/>
</g>
<!-- 2&#45;&#45;7 -->
<g id="edge18" class="edge"><title>2&#45;&#45;7</title>
<path fill="none" stroke="black" d="M72.5514,-2.62414C82.0699,-6.79568 124.846,-25.5425 134.089,-29.5935"/>
</g>
<!-- 3&#45;&#45;4 -->
<g id="edge19" class="edge"><title>3&#45;&#45;4</title>
<path fill="none" stroke="black" d="M65.4544,-86.3635C72.923,-86.7606 99.6465,-88.1815 107.015,-88.5733"/>
</g>
<!-- 3&#45;&#45;5 -->
<g id="edge20" class="edge"><title>3&#45;&#45;5</title>
<path fill="none" stroke="black" d="M61.554,-86.0277C54.0917,-85.1394 27.3906,-81.961 20.0284,-81.0846"/>
</g>
<!-- 3&#45;&#45;6 -->
<g id="edge21" class="edge"><title>3&#45;&#45;6</title>
<path fill="none" stroke="black" d="M61.9781,-84.5818C53.3671,-75.109 10.9399,-28.4356 3.06051,-19.7676"/>
</g>
<!-- 3&#45;&#45;7 -->
<g id="edge22" class="edge"><title>3&#45;&#45;7</title>
<path fill="none" stroke="black" d="M65.0145,-85.0923C74.4302,-77.8184 124.959,-38.783 134.351,-31.5278"/>
</g>
<!-- 4&#45;&#45;5 -->
<g id="edge23" class="edge"><title>4&#45;&#45;5</title>
<path fill="none" stroke="black" d="M107.012,-88.5107C95.1991,-87.4938 31.8049,-82.0361 20.0223,-81.0217"/>
</g>
<!-- 4&#45;&#45;7 -->
<g id="edge24" class="edge"><title>4&#45;&#45;7</title>
<path fill="none" stroke="black" d="M109.805,-86.734C113.896,-77.8815 130.771,-41.3648 134.926,-32.3739"/>
</g>
<!-- 5&#45;&#45;6 -->
<g id="edge25" class="edge"><title>5&#45;&#45;6</title>
<path fill="none" stroke="black" d="M17.6655,-79.0569C15.3218,-70.0934 4.93254,-30.361 2.37186,-20.568"/>
</g>
</g>
</svg>
