<?xml version="1.0" encoding="UTF-8" standalone="no"?>
<!DOCTYPE svg PUBLIC "-//W3C//DTD SVG 1.1//EN"
 "http://www.w3.org/Graphics/SVG/1.1/DTD/svg11.dtd">
<!-- Generated by graphviz version 2.36.0 (20140111.2315)
 -->
<!-- Title: %3 Pages: 1 -->
<svg width="127pt" height="114pt"
 viewBox="0.00 0.00 126.64 113.92" xmlns="http://www.w3.org/2000/svg" xmlns:xlink="http://www.w3.org/1999/xlink">
<g id="graph0" class="graph" transform="scale(1 1) rotate(0) translate(4 109.921)">
<title>%3</title>
<!-- 0 -->
<g id="node1" class="node"><title>0</title>
<ellipse fill="black" stroke="black" cx="1.8" cy="-59.6403" rx="1.8" ry="1.8"/>
</g>
<!-- 2 -->
<g id="node2" class="node"><title>2</title>
<ellipse fill="black" stroke="black" cx="91.8369" cy="-100.777" rx="1.8" ry="1.8"/>
</g>
<!-- 0&#45;&#45;2 -->
<g id="edge1" class="edge"><title>0&#45;&#45;2</title>
<path fill="none" stroke="black" d="M3.68055,-60.4995C15.398,-65.8531 78.2794,-94.5828 89.9667,-99.9226"/>
</g>
<!-- 3 -->
<g id="node3" class="node"><title>3</title>
<ellipse fill="black" stroke="black" cx="28.0628" cy="-3.48367" rx="1.8" ry="1.8"/>
</g>
<!-- 0&#45;&#45;3 -->
<g id="edge2" class="edge"><title>0&#45;&#45;3</title>
<path fill="none" stroke="black" d="M2.67381,-57.7719C6.66119,-49.2458 23.1091,-14.076 27.1588,-5.41671"/>
</g>
<!-- 4 -->
<g id="node4" class="node"><title>4</title>
<ellipse fill="black" stroke="black" cx="35.7272" cy="-104.121" rx="1.8" ry="1.8"/>
</g>
<!-- 0&#45;&#45;4 -->
<g id="edge3" class="edge"><title>0&#45;&#45;4</title>
<path fill="none" stroke="black" d="M2.92882,-61.1203C8.07985,-67.8736 29.3278,-95.7311 34.5593,-102.59"/>
</g>
<!-- 5 -->
<g id="node5" class="node"><title>5</title>
<ellipse fill="black" stroke="black" cx="84.4679" cy="-1.8" rx="1.8" ry="1.8"/>
</g>
<!-- 0&#45;&#45;5 -->
<g id="edge4" class="edge"><title>0&#45;&#45;5</title>
<path fill="none" stroke="black" d="M3.52664,-58.4322C14.2851,-50.9049 72.02,-10.5094 82.7508,-3.00143"/>
</g>
<!-- 6 -->
<g id="node6" class="node"><title>6</title>
<ellipse fill="black" stroke="black" cx="70.7502" cy="-59.3865" rx="1.8" ry="1.8"/>
</g>
<!-- 0&#45;&#45;6 -->
<g id="edge5" class="edge"><title>0&#45;&#45;6</title>
<path fill="none" stroke="black" d="M3.78919,-59.633C13.8578,-59.5959 59.106,-59.4294 68.8836,-59.3934"/>
</g>
<!-- 7 -->
<g id="node7" class="node"><title>7</title>
<ellipse fill="black" stroke="black" cx="46.2158" cy="-45.304" rx="1.8" ry="1.8"/>
</g>
<!-- 0&#45;&#45;7 -->
<g id="edge6" class="edge"><title>0&#45;&#45;7</title>
<path fill="none" stroke="black" d="M3.70849,-59.0243C11.0144,-56.6661 37.156,-48.2282 44.3638,-45.9017"/>
</g>
<!-- 2&#45;&#45;4 -->
<g id="edge13" class="edge"><title>2&#45;&#45;4</title>
<path fill="none" stroke="black" d="M89.97,-100.888C81.4511,-101.396 46.3106,-103.49 37.6586,-104.006"/>
</g>
<!-- 2&#45;&#45;5 -->
<g id="edge14" class="edge"><title>2&#45;&#45;5</title>
<path fill="none" stroke="black" d="M91.683,-98.7098C90.724,-85.8289 85.5775,-16.7037 84.621,-3.8559"/>
</g>
<!-- 2&#45;&#45;6 -->
<g id="edge15" class="edge"><title>2&#45;&#45;6</title>
<path fill="none" stroke="black" d="M90.9308,-98.9986C87.4623,-92.1903 75.0514,-67.8292 71.6294,-61.1123"/>
</g>
<!-- 2&#45;&#45;7 -->
<g id="edge16" class="edge"><title>2&#45;&#45;7</title>
<path fill="none" stroke="black" d="M90.319,-98.9314C83.2689,-90.3587 53.7935,-54.5182 47.4302,-46.7806"/>
</g>
<!-- 3&#45;&#45;4 -->
<g id="edge17" class="edge"><title>3&#45;&#45;4</title>
<path fill="none" stroke="black" d="M28.2229,-5.58563C29.2204,-18.6826 34.5731,-88.9674 35.568,-102.031"/>
</g>
<!-- 3&#45;&#45;5 -->
<g id="edge18" class="edge"><title>3&#45;&#45;5</title>
<path fill="none" stroke="black" d="M29.9395,-3.42765C38.5033,-3.17203 73.8288,-2.11757 82.5263,-1.85796"/>
</g>
<!-- 3&#45;&#45;6 -->
<g id="edge19" class="edge"><title>3&#45;&#45;6</title>
<path fill="none" stroke="black" d="M29.4831,-5.34366C36.0799,-13.9827 63.6597,-50.101 69.6139,-57.8985"/>
</g>
<!-- 3&#45;&#45;7 -->
<g id="edge20" class="edge"><title>3&#45;&#45;7</title>
<path fill="none" stroke="black" d="M28.8428,-5.28064C31.8288,-12.1596 42.513,-36.7736 45.4589,-43.5602"/>
</g>
<!-- 4&#45;&#45;6 -->
<g id="edge21" class="edge"><title>4&#45;&#45;6</title>
<path fill="none" stroke="black" d="M36.8925,-102.633C42.2099,-95.8408 64.1441,-67.8244 69.5446,-60.9264"/>
</g>
<!-- 4&#45;&#45;7 -->
<g id="edge22" class="edge"><title>4&#45;&#45;7</title>
<path fill="none" stroke="black" d="M36.0762,-102.164C37.6686,-93.2342 44.2374,-56.3981 45.8547,-47.3286"/>
</g>
<!-- 5&#45;&#45;6 -->
<g id="edge23" class="edge"><title>5&#45;&#45;6</title>
<path fill="none" stroke="black" d="M84.0115,-3.71601C81.9288,-12.4591 73.3376,-48.5245 71.2224,-57.4043"/>
</g>
<!-- 5&#45;&#45;7 -->
<g id="edge24" class="edge"><title>5&#45;&#45;7</title>
<path fill="none" stroke="black" d="M83.1952,-3.24745C77.3875,-9.85248 53.4309,-37.0982 47.5325,-43.8064"/>
</g>
<!-- 1 -->
<g id="node8" class="node"><title>1</title>
<ellipse fill="black" stroke="black" cx="116.841" cy="-46.3207" rx="1.8" ry="1.8"/>
</g>
<!-- 1&#45;&#45;2 -->
<g id="edge7" class="edge"><title>1&#45;&#45;2</title>
<path fill="none" stroke="black" d="M116.009,-48.1326C112.213,-56.4005 96.5532,-90.5055 92.6976,-98.9026"/>
</g>
<!-- 1&#45;&#45;3 -->
<g id="edge8" class="edge"><title>1&#45;&#45;3</title>
<path fill="none" stroke="black" d="M114.987,-45.426C103.433,-39.8512 41.4308,-9.93395 29.9069,-4.37346"/>
</g>
<!-- 1&#45;&#45;4 -->
<g id="edge9" class="edge"><title>1&#45;&#45;4</title>
<path fill="none" stroke="black" d="M115.147,-47.528C104.591,-55.0502 47.9411,-95.4177 37.4121,-102.92"/>
</g>
<!-- 1&#45;&#45;5 -->
<g id="edge10" class="edge"><title>1&#45;&#45;5</title>
<path fill="none" stroke="black" d="M115.764,-44.8395C110.849,-38.0801 90.5741,-10.1975 85.5823,-3.3325"/>
</g>
<!-- 1&#45;&#45;6 -->
<g id="edge11" class="edge"><title>1&#45;&#45;6</title>
<path fill="none" stroke="black" d="M114.861,-46.8822C107.279,-49.0314 80.1516,-56.7214 72.672,-58.8417"/>
</g>
<!-- 1&#45;&#45;7 -->
<g id="edge12" class="edge"><title>1&#45;&#45;7</title>
<path fill="none" stroke="black" d="M114.804,-46.2914C104.49,-46.1429 58.1428,-45.4757 48.1277,-45.3315"/>
</g>
</g>
</svg>
