<?xml version="1.0" encoding="UTF-8" standalone="no"?>
<!DOCTYPE svg PUBLIC "-//W3C//DTD SVG 1.1//EN"
 "http://www.w3.org/Graphics/SVG/1.1/DTD/svg11.dtd">
<!-- Generated by graphviz version 2.36.0 (20140111.2315)
 -->
<!-- Title: %3 Pages: 1 -->
<svg width="274pt" height="199pt"
 viewBox="0.00 0.00 274.06 198.52" xmlns="http://www.w3.org/2000/svg" xmlns:xlink="http://www.w3.org/1999/xlink">
<g id="graph0" class="graph" transform="scale(1 1) rotate(0) translate(4 194.519)">
<title>%3</title>
<!-- 0 -->
<g id="node1" class="node"><title>0</title>
<ellipse fill="black" stroke="black" cx="127.908" cy="-117.985" rx="1.8" ry="1.8"/>
</g>
<!-- 1 -->
<g id="node2" class="node"><title>1</title>
<ellipse fill="black" stroke="black" cx="56.5116" cy="-77.8492" rx="1.8" ry="1.8"/>
</g>
<!-- 0&#45;&#45;1 -->
<g id="edge1" class="edge"><title>0&#45;&#45;1</title>
<path fill="none" stroke="black" d="M126.143,-116.993C116.265,-111.44 67.9309,-84.2686 58.2148,-78.8067"/>
</g>
<!-- 4 -->
<g id="node3" class="node"><title>4</title>
<ellipse fill="black" stroke="black" cx="146.968" cy="-36.339" rx="1.8" ry="1.8"/>
</g>
<!-- 0&#45;&#45;4 -->
<g id="edge2" class="edge"><title>0&#45;&#45;4</title>
<path fill="none" stroke="black" d="M128.379,-115.967C131.016,-104.671 143.919,-49.3976 146.513,-38.2867"/>
</g>
<!-- 5 -->
<g id="node4" class="node"><title>5</title>
<ellipse fill="black" stroke="black" cx="68.251" cy="-176.94" rx="1.8" ry="1.8"/>
</g>
<!-- 0&#45;&#45;5 -->
<g id="edge3" class="edge"><title>0&#45;&#45;5</title>
<path fill="none" stroke="black" d="M126.433,-119.443C118.252,-127.528 78.4926,-166.819 69.8932,-175.317"/>
</g>
<!-- 6 -->
<g id="node5" class="node"><title>6</title>
<ellipse fill="black" stroke="black" cx="196.888" cy="-157.246" rx="1.8" ry="1.8"/>
</g>
<!-- 0&#45;&#45;6 -->
<g id="edge4" class="edge"><title>0&#45;&#45;6</title>
<path fill="none" stroke="black" d="M129.613,-118.956C139.074,-124.34 185.046,-150.506 194.989,-156.165"/>
</g>
<!-- 2 -->
<g id="node6" class="node"><title>2</title>
<ellipse fill="black" stroke="black" cx="75.9484" cy="-1.8" rx="1.8" ry="1.8"/>
</g>
<!-- 1&#45;&#45;2 -->
<g id="edge5" class="edge"><title>1&#45;&#45;2</title>
<path fill="none" stroke="black" d="M56.9921,-75.9693C59.6812,-65.4478 72.8396,-13.9634 75.4847,-3.61417"/>
</g>
<!-- 3 -->
<g id="node7" class="node"><title>3</title>
<ellipse fill="black" stroke="black" cx="1.8" cy="-134.108" rx="1.8" ry="1.8"/>
</g>
<!-- 1&#45;&#45;3 -->
<g id="edge6" class="edge"><title>1&#45;&#45;3</title>
<path fill="none" stroke="black" d="M55.1592,-79.2399C47.6556,-86.9558 11.1926,-124.45 3.30606,-132.56"/>
</g>
<!-- 7 -->
<g id="node8" class="node"><title>7</title>
<ellipse fill="black" stroke="black" cx="264.259" cy="-188.719" rx="1.8" ry="1.8"/>
</g>
<!-- 6&#45;&#45;7 -->
<g id="edge9" class="edge"><title>6&#45;&#45;7</title>
<path fill="none" stroke="black" d="M198.553,-158.024C207.793,-162.34 252.693,-183.316 262.405,-187.853"/>
</g>
<!-- 2&#45;&#45;4 -->
<g id="edge7" class="edge"><title>2&#45;&#45;4</title>
<path fill="none" stroke="black" d="M77.7039,-2.65378C87.5296,-7.43231 135.609,-30.8148 145.274,-35.515"/>
</g>
<!-- 3&#45;&#45;5 -->
<g id="edge8" class="edge"><title>3&#45;&#45;5</title>
<path fill="none" stroke="black" d="M3.44262,-135.167C12.5563,-141.041 56.8431,-169.587 66.4218,-175.761"/>
</g>
</g>
</svg>
