<?xml version="1.0" encoding="UTF-8" standalone="no"?>
<!DOCTYPE svg PUBLIC "-//W3C//DTD SVG 1.1//EN"
 "http://www.w3.org/Graphics/SVG/1.1/DTD/svg11.dtd">
<!-- Generated by graphviz version 2.36.0 (20140111.2315)
 -->
<!-- Title: %3 Pages: 1 -->
<svg width="137pt" height="222pt"
 viewBox="0.00 0.00 136.58 221.51" xmlns="http://www.w3.org/2000/svg" xmlns:xlink="http://www.w3.org/1999/xlink">
<g id="graph0" class="graph" transform="scale(1 1) rotate(0) translate(4 217.508)">
<title>%3</title>
<!-- 0 -->
<g id="node1" class="node"><title>0</title>
<ellipse fill="black" stroke="black" cx="35.2779" cy="-138.03" rx="1.8" ry="1.8"/>
</g>
<!-- 1 -->
<g id="node2" class="node"><title>1</title>
<ellipse fill="black" stroke="black" cx="76.9622" cy="-59.9151" rx="1.8" ry="1.8"/>
</g>
<!-- 0&#45;&#45;1 -->
<g id="edge1" class="edge"><title>0&#45;&#45;1</title>
<path fill="none" stroke="black" d="M36.1485,-136.398C41.5733,-126.232 70.6855,-71.6773 76.0963,-61.5377"/>
</g>
<!-- 3 -->
<g id="node3" class="node"><title>3</title>
<ellipse fill="black" stroke="black" cx="23.8212" cy="-58.718" rx="1.8" ry="1.8"/>
</g>
<!-- 0&#45;&#45;3 -->
<g id="edge2" class="edge"><title>0&#45;&#45;3</title>
<path fill="none" stroke="black" d="M34.9947,-136.069C33.4096,-125.096 25.6536,-71.4032 24.0945,-60.61"/>
</g>
<!-- 4 -->
<g id="node4" class="node"><title>4</title>
<ellipse fill="black" stroke="black" cx="1.8" cy="-92.2212" rx="1.8" ry="1.8"/>
</g>
<!-- 0&#45;&#45;4 -->
<g id="edge3" class="edge"><title>0&#45;&#45;4</title>
<path fill="none" stroke="black" d="M34.164,-136.505C29.0812,-129.551 8.11461,-100.862 2.95238,-93.7981"/>
</g>
<!-- 5 -->
<g id="node5" class="node"><title>5</title>
<ellipse fill="black" stroke="black" cx="88.6619" cy="-190.978" rx="1.8" ry="1.8"/>
</g>
<!-- 0&#45;&#45;5 -->
<g id="edge4" class="edge"><title>0&#45;&#45;5</title>
<path fill="none" stroke="black" d="M36.5975,-139.338C43.919,-146.6 79.4972,-181.888 87.1924,-189.521"/>
</g>
<!-- 6 -->
<g id="node6" class="node"><title>6</title>
<ellipse fill="black" stroke="black" cx="20.4695" cy="-211.708" rx="1.8" ry="1.8"/>
</g>
<!-- 0&#45;&#45;6 -->
<g id="edge5" class="edge"><title>0&#45;&#45;6</title>
<path fill="none" stroke="black" d="M34.9118,-139.851C32.8809,-149.956 23.0117,-199.059 20.8771,-209.679"/>
</g>
<!-- 1&#45;&#45;3 -->
<g id="edge7" class="edge"><title>1&#45;&#45;3</title>
<path fill="none" stroke="black" d="M74.6788,-59.8637C65.9376,-59.6668 34.6608,-58.9622 26.037,-58.7679"/>
</g>
<!-- 1&#45;&#45;4 -->
<g id="edge8" class="edge"><title>1&#45;&#45;4</title>
<path fill="none" stroke="black" d="M75.1042,-60.7137C64.7054,-65.1833 13.8215,-87.0542 3.59301,-91.4506"/>
</g>
<!-- 2 -->
<g id="node7" class="node"><title>2</title>
<ellipse fill="black" stroke="black" cx="86.6807" cy="-114.474" rx="1.8" ry="1.8"/>
</g>
<!-- 1&#45;&#45;2 -->
<g id="edge6" class="edge"><title>1&#45;&#45;2</title>
<path fill="none" stroke="black" d="M77.2855,-61.7304C78.7611,-70.0137 84.8475,-104.183 86.3461,-112.596"/>
</g>
<!-- 7 -->
<g id="node8" class="node"><title>7</title>
<ellipse fill="black" stroke="black" cx="126.777" cy="-1.8" rx="1.8" ry="1.8"/>
</g>
<!-- 1&#45;&#45;7 -->
<g id="edge9" class="edge"><title>1&#45;&#45;7</title>
<path fill="none" stroke="black" d="M78.1936,-58.4785C85.0256,-50.5081 118.225,-11.7769 125.406,-3.39975"/>
</g>
<!-- 5&#45;&#45;6 -->
<g id="edge13" class="edge"><title>5&#45;&#45;6</title>
<path fill="none" stroke="black" d="M86.6946,-191.576C76.7366,-194.603 31.9857,-208.207 22.3155,-211.146"/>
</g>
<!-- 2&#45;&#45;3 -->
<g id="edge10" class="edge"><title>2&#45;&#45;3</title>
<path fill="none" stroke="black" d="M85.1268,-113.095C76.5057,-105.448 34.6126,-68.2898 25.5516,-60.2528"/>
</g>
<!-- 2&#45;&#45;4 -->
<g id="edge11" class="edge"><title>2&#45;&#45;4</title>
<path fill="none" stroke="black" d="M84.9078,-114.009C73.8614,-111.113 14.5811,-95.5719 3.5631,-92.6835"/>
</g>
<!-- 2&#45;&#45;5 -->
<g id="edge12" class="edge"><title>2&#45;&#45;5</title>
<path fill="none" stroke="black" d="M86.7296,-116.365C87.0037,-126.949 88.345,-178.742 88.6146,-189.153"/>
</g>
</g>
</svg>
