<?xml version="1.0" encoding="UTF-8" standalone="no"?>
<!DOCTYPE svg PUBLIC "-//W3C//DTD SVG 1.1//EN"
 "http://www.w3.org/Graphics/SVG/1.1/DTD/svg11.dtd">
<!-- Generated by graphviz version 2.36.0 (20140111.2315)
 -->
<!-- Title: %3 Pages: 1 -->
<svg width="213pt" height="236pt"
 viewBox="0.00 0.00 213.42 236.31" xmlns="http://www.w3.org/2000/svg" xmlns:xlink="http://www.w3.org/1999/xlink">
<g id="graph0" class="graph" transform="scale(1 1) rotate(0) translate(4 232.315)">
<title>%3</title>
<!-- 0 -->
<g id="node1" class="node"><title>0</title>
<ellipse fill="black" stroke="black" cx="87.082" cy="-134.897" rx="1.8" ry="1.8"/>
</g>
<!-- 2 -->
<g id="node2" class="node"><title>2</title>
<ellipse fill="black" stroke="black" cx="135.588" cy="-75.2446" rx="1.8" ry="1.8"/>
</g>
<!-- 0&#45;&#45;2 -->
<g id="edge1" class="edge"><title>0&#45;&#45;2</title>
<path fill="none" stroke="black" d="M88.281,-133.422C94.9335,-125.241 127.26,-85.4853 134.252,-76.8866"/>
</g>
<!-- 5 -->
<g id="node3" class="node"><title>5</title>
<ellipse fill="black" stroke="black" cx="1.8" cy="-140.027" rx="1.8" ry="1.8"/>
</g>
<!-- 0&#45;&#45;5 -->
<g id="edge2" class="edge"><title>0&#45;&#45;5</title>
<path fill="none" stroke="black" d="M84.9739,-135.023C73.175,-135.733 15.4401,-139.206 3.83442,-139.905"/>
</g>
<!-- 6 -->
<g id="node4" class="node"><title>6</title>
<ellipse fill="black" stroke="black" cx="57.0948" cy="-192.331" rx="1.8" ry="1.8"/>
</g>
<!-- 0&#45;&#45;6 -->
<g id="edge3" class="edge"><title>0&#45;&#45;6</title>
<path fill="none" stroke="black" d="M86.0843,-136.808C81.5314,-145.528 62.751,-181.497 58.127,-190.354"/>
</g>
<!-- 7 -->
<g id="node5" class="node"><title>7</title>
<ellipse fill="black" stroke="black" cx="101.174" cy="-221.016" rx="1.8" ry="1.8"/>
</g>
<!-- 0&#45;&#45;7 -->
<g id="edge4" class="edge"><title>0&#45;&#45;7</title>
<path fill="none" stroke="black" d="M87.3763,-136.695C89.2103,-147.903 99.0522,-208.048 100.881,-219.227"/>
</g>
<!-- 3 -->
<g id="node7" class="node"><title>3</title>
<ellipse fill="black" stroke="black" cx="148.055" cy="-1.8" rx="1.8" ry="1.8"/>
</g>
<!-- 2&#45;&#45;3 -->
<g id="edge8" class="edge"><title>2&#45;&#45;3</title>
<path fill="none" stroke="black" d="M135.896,-73.4291C137.606,-63.3562 145.914,-14.4085 147.712,-3.82173"/>
</g>
<!-- 4 -->
<g id="node8" class="node"><title>4</title>
<ellipse fill="black" stroke="black" cx="203.622" cy="-44.9757" rx="1.8" ry="1.8"/>
</g>
<!-- 2&#45;&#45;4 -->
<g id="edge9" class="edge"><title>2&#45;&#45;4</title>
<path fill="none" stroke="black" d="M137.269,-74.4963C146.6,-70.345 191.942,-50.1721 201.749,-45.8089"/>
</g>
<!-- 1 -->
<g id="node6" class="node"><title>1</title>
<ellipse fill="black" stroke="black" cx="9.6528" cy="-226.515" rx="1.8" ry="1.8"/>
</g>
<!-- 1&#45;&#45;5 -->
<g id="edge5" class="edge"><title>1&#45;&#45;5</title>
<path fill="none" stroke="black" d="M9.48878,-224.708C8.46681,-213.453 2.98245,-153.05 1.96311,-141.823"/>
</g>
<!-- 1&#45;&#45;6 -->
<g id="edge6" class="edge"><title>1&#45;&#45;6</title>
<path fill="none" stroke="black" d="M11.2313,-225.377C18.4342,-220.187 48.1463,-198.778 55.4617,-193.507"/>
</g>
<!-- 1&#45;&#45;7 -->
<g id="edge7" class="edge"><title>1&#45;&#45;7</title>
<path fill="none" stroke="black" d="M11.5643,-226.4C23.475,-225.684 87.3932,-221.844 99.2731,-221.13"/>
</g>
<!-- 3&#45;&#45;4 -->
<g id="edge10" class="edge"><title>3&#45;&#45;4</title>
<path fill="none" stroke="black" d="M149.904,-3.23653C158.491,-9.90878 194.392,-37.8041 202.143,-43.8264"/>
</g>
</g>
</svg>
