<?xml version="1.0" encoding="UTF-8" standalone="no"?>
<!DOCTYPE svg PUBLIC "-//W3C//DTD SVG 1.1//EN"
 "http://www.w3.org/Graphics/SVG/1.1/DTD/svg11.dtd">
<!-- Generated by graphviz version 2.36.0 (20140111.2315)
 -->
<!-- Title: %3 Pages: 1 -->
<svg width="171pt" height="342pt"
 viewBox="0.00 0.00 171.04 341.70" xmlns="http://www.w3.org/2000/svg" xmlns:xlink="http://www.w3.org/1999/xlink">
<g id="graph0" class="graph" transform="scale(1 1) rotate(0) translate(4 337.696)">
<title>%3</title>
<!-- 0 -->
<g id="node1" class="node"><title>0</title>
<ellipse fill="black" stroke="black" cx="52.2413" cy="-136.073" rx="1.8" ry="1.8"/>
</g>
<!-- 2 -->
<g id="node2" class="node"><title>2</title>
<ellipse fill="black" stroke="black" cx="110.347" cy="-197.018" rx="1.8" ry="1.8"/>
</g>
<!-- 0&#45;&#45;2 -->
<g id="edge1" class="edge"><title>0&#45;&#45;2</title>
<path fill="none" stroke="black" d="M53.6776,-137.579C61.6467,-145.938 100.371,-186.555 108.747,-195.34"/>
</g>
<!-- 3 -->
<g id="node3" class="node"><title>3</title>
<ellipse fill="black" stroke="black" cx="105.692" cy="-77.397" rx="1.8" ry="1.8"/>
</g>
<!-- 0&#45;&#45;3 -->
<g id="edge2" class="edge"><title>0&#45;&#45;3</title>
<path fill="none" stroke="black" d="M53.5626,-134.622C60.8933,-126.575 96.5163,-87.4701 104.221,-79.0121"/>
</g>
<!-- 5 -->
<g id="node4" class="node"><title>5</title>
<ellipse fill="black" stroke="black" cx="1.8" cy="-196.93" rx="1.8" ry="1.8"/>
</g>
<!-- 0&#45;&#45;5 -->
<g id="edge3" class="edge"><title>0&#45;&#45;5</title>
<path fill="none" stroke="black" d="M50.9944,-137.577C44.0765,-145.924 10.4595,-186.482 3.18851,-195.255"/>
</g>
<!-- 4 -->
<g id="node7" class="node"><title>4</title>
<ellipse fill="black" stroke="black" cx="161.241" cy="-136.674" rx="1.8" ry="1.8"/>
</g>
<!-- 2&#45;&#45;4 -->
<g id="edge7" class="edge"><title>2&#45;&#45;4</title>
<path fill="none" stroke="black" d="M111.605,-195.526C118.585,-187.25 152.503,-147.033 159.84,-138.335"/>
</g>
<!-- 3&#45;&#45;4 -->
<g id="edge8" class="edge"><title>3&#45;&#45;4</title>
<path fill="none" stroke="black" d="M107.066,-78.8622C114.684,-86.992 151.704,-126.497 159.711,-135.042"/>
</g>
<!-- 6 -->
<g id="node8" class="node"><title>6</title>
<ellipse fill="black" stroke="black" cx="110.435" cy="-1.8" rx="1.8" ry="1.8"/>
</g>
<!-- 3&#45;&#45;6 -->
<g id="edge9" class="edge"><title>3&#45;&#45;6</title>
<path fill="none" stroke="black" d="M105.81,-75.5283C106.466,-65.0693 109.676,-13.8911 110.322,-3.60338"/>
</g>
<!-- 1 -->
<g id="node5" class="node"><title>1</title>
<ellipse fill="black" stroke="black" cx="57.2812" cy="-256.081" rx="1.8" ry="1.8"/>
</g>
<!-- 1&#45;&#45;2 -->
<g id="edge4" class="edge"><title>1&#45;&#45;2</title>
<path fill="none" stroke="black" d="M58.593,-254.621C65.8708,-246.521 101.237,-207.157 108.886,-198.644"/>
</g>
<!-- 1&#45;&#45;5 -->
<g id="edge5" class="edge"><title>1&#45;&#45;5</title>
<path fill="none" stroke="black" d="M55.9098,-254.619C48.3006,-246.507 11.3247,-207.085 3.32725,-198.558"/>
</g>
<!-- 7 -->
<g id="node6" class="node"><title>7</title>
<ellipse fill="black" stroke="black" cx="56.2658" cy="-331.896" rx="1.8" ry="1.8"/>
</g>
<!-- 1&#45;&#45;7 -->
<g id="edge6" class="edge"><title>1&#45;&#45;7</title>
<path fill="none" stroke="black" d="M57.2561,-257.955C57.1156,-268.445 56.4282,-319.77 56.2901,-330.088"/>
</g>
</g>
</svg>
