<?xml version="1.0" encoding="UTF-8" standalone="no"?>
<!DOCTYPE svg PUBLIC "-//W3C//DTD SVG 1.1//EN"
 "http://www.w3.org/Graphics/SVG/1.1/DTD/svg11.dtd">
<!-- Generated by graphviz version 2.36.0 (20140111.2315)
 -->
<!-- Title: %3 Pages: 1 -->
<svg width="140pt" height="217pt"
 viewBox="0.00 0.00 140.12 217.17" xmlns="http://www.w3.org/2000/svg" xmlns:xlink="http://www.w3.org/1999/xlink">
<g id="graph0" class="graph" transform="scale(1 1) rotate(0) translate(4 213.173)">
<title>%3</title>
<!-- 0 -->
<g id="node1" class="node"><title>0</title>
<ellipse fill="black" stroke="black" cx="54.3051" cy="-152.488" rx="1.8" ry="1.8"/>
</g>
<!-- 1 -->
<g id="node2" class="node"><title>1</title>
<ellipse fill="black" stroke="black" cx="95.9121" cy="-77.142" rx="1.8" ry="1.8"/>
</g>
<!-- 0&#45;&#45;1 -->
<g id="edge1" class="edge"><title>0&#45;&#45;1</title>
<path fill="none" stroke="black" d="M55.3336,-150.626C61.09,-140.202 89.2575,-89.193 94.9196,-78.9394"/>
</g>
<!-- 2 -->
<g id="node3" class="node"><title>2</title>
<ellipse fill="black" stroke="black" cx="48.4533" cy="-100.295" rx="1.8" ry="1.8"/>
</g>
<!-- 0&#45;&#45;2 -->
<g id="edge2" class="edge"><title>0&#45;&#45;2</title>
<path fill="none" stroke="black" d="M54.0536,-150.246C53.0911,-141.66 49.6469,-110.941 48.6973,-102.471"/>
</g>
<!-- 3 -->
<g id="node4" class="node"><title>3</title>
<ellipse fill="black" stroke="black" cx="109.126" cy="-158.035" rx="1.8" ry="1.8"/>
</g>
<!-- 0&#45;&#45;3 -->
<g id="edge3" class="edge"><title>0&#45;&#45;3</title>
<path fill="none" stroke="black" d="M56.1291,-152.673C64.4524,-153.515 98.786,-156.989 107.239,-157.844"/>
</g>
<!-- 4 -->
<g id="node5" class="node"><title>4</title>
<ellipse fill="black" stroke="black" cx="130.319" cy="-120.176" rx="1.8" ry="1.8"/>
</g>
<!-- 0&#45;&#45;4 -->
<g id="edge4" class="edge"><title>0&#45;&#45;4</title>
<path fill="none" stroke="black" d="M56.1841,-151.69C66.7008,-147.219 118.161,-125.344 128.506,-120.947"/>
</g>
<!-- 5 -->
<g id="node6" class="node"><title>5</title>
<ellipse fill="black" stroke="black" cx="1.8" cy="-207.373" rx="1.8" ry="1.8"/>
</g>
<!-- 0&#45;&#45;5 -->
<g id="edge5" class="edge"><title>0&#45;&#45;5</title>
<path fill="none" stroke="black" d="M53.0072,-153.845C45.8062,-161.373 10.8138,-197.951 3.24532,-205.863"/>
</g>
<!-- 1&#45;&#45;2 -->
<g id="edge6" class="edge"><title>1&#45;&#45;2</title>
<path fill="none" stroke="black" d="M93.8729,-78.1369C86.0664,-81.9453 58.1338,-95.5724 50.4321,-99.3297"/>
</g>
<!-- 1&#45;&#45;3 -->
<g id="edge7" class="edge"><title>1&#45;&#45;3</title>
<path fill="none" stroke="black" d="M96.2388,-79.1416C98.067,-90.3334 107.013,-145.097 108.811,-156.106"/>
</g>
<!-- 1&#45;&#45;4 -->
<g id="edge8" class="edge"><title>1&#45;&#45;4</title>
<path fill="none" stroke="black" d="M97.0569,-78.5738C102.281,-85.1075 123.829,-112.059 129.135,-118.695"/>
</g>
<!-- 6 -->
<g id="node7" class="node"><title>6</title>
<ellipse fill="black" stroke="black" cx="106.24" cy="-1.8" rx="1.8" ry="1.8"/>
</g>
<!-- 1&#45;&#45;6 -->
<g id="edge9" class="edge"><title>1&#45;&#45;6</title>
<path fill="none" stroke="black" d="M96.1674,-75.2796C97.5963,-64.8559 104.588,-13.8503 105.993,-3.5973"/>
</g>
<!-- 2&#45;&#45;3 -->
<g id="edge10" class="edge"><title>2&#45;&#45;3</title>
<path fill="none" stroke="black" d="M49.9531,-101.722C58.2743,-109.641 98.7104,-148.123 107.456,-156.446"/>
</g>
<!-- 2&#45;&#45;4 -->
<g id="edge11" class="edge"><title>2&#45;&#45;4</title>
<path fill="none" stroke="black" d="M50.4769,-100.787C61.8033,-103.537 117.226,-116.996 128.366,-119.702"/>
</g>
</g>
</svg>
