<?xml version="1.0" encoding="UTF-8" standalone="no"?>
<!DOCTYPE svg PUBLIC "-//W3C//DTD SVG 1.1//EN"
 "http://www.w3.org/Graphics/SVG/1.1/DTD/svg11.dtd">
<!-- Generated by graphviz version 2.36.0 (20140111.2315)
 -->
<!-- Title: %3 Pages: 1 -->
<svg width="131pt" height="235pt"
 viewBox="0.00 0.00 130.93 234.55" xmlns="http://www.w3.org/2000/svg" xmlns:xlink="http://www.w3.org/1999/xlink">
<g id="graph0" class="graph" transform="scale(1 1) rotate(0) translate(4 230.55)">
<title>%3</title>
<!-- 0 -->
<g id="node1" class="node"><title>0</title>
<ellipse fill="black" stroke="black" cx="103.819" cy="-131.006" rx="1.8" ry="1.8"/>
</g>
<!-- 2 -->
<g id="node2" class="node"><title>2</title>
<ellipse fill="black" stroke="black" cx="121.131" cy="-179.471" rx="1.8" ry="1.8"/>
</g>
<!-- 0&#45;&#45;2 -->
<g id="edge1" class="edge"><title>0&#45;&#45;2</title>
<path fill="none" stroke="black" d="M104.562,-133.089C107.41,-141.061 117.599,-169.585 120.409,-177.45"/>
</g>
<!-- 3 -->
<g id="node3" class="node"><title>3</title>
<ellipse fill="black" stroke="black" cx="97.3256" cy="-52.8506" rx="1.8" ry="1.8"/>
</g>
<!-- 0&#45;&#45;3 -->
<g id="edge2" class="edge"><title>0&#45;&#45;3</title>
<path fill="none" stroke="black" d="M103.658,-129.074C102.76,-118.261 98.3641,-65.351 97.4805,-54.715"/>
</g>
<!-- 4 -->
<g id="node4" class="node"><title>4</title>
<ellipse fill="black" stroke="black" cx="36.7811" cy="-146.729" rx="1.8" ry="1.8"/>
</g>
<!-- 0&#45;&#45;4 -->
<g id="edge3" class="edge"><title>0&#45;&#45;4</title>
<path fill="none" stroke="black" d="M101.885,-131.46C92.0952,-133.756 48.1022,-144.074 38.5959,-146.303"/>
</g>
<!-- 5 -->
<g id="node5" class="node"><title>5</title>
<ellipse fill="black" stroke="black" cx="97.7404" cy="-224.75" rx="1.8" ry="1.8"/>
</g>
<!-- 0&#45;&#45;5 -->
<g id="edge4" class="edge"><title>0&#45;&#45;5</title>
<path fill="none" stroke="black" d="M103.692,-132.964C102.901,-145.164 98.6556,-210.634 97.8666,-222.803"/>
</g>
<!-- 2&#45;&#45;4 -->
<g id="edge8" class="edge"><title>2&#45;&#45;4</title>
<path fill="none" stroke="black" d="M119.369,-178.787C108.392,-174.526 49.4822,-151.659 38.5331,-147.409"/>
</g>
<!-- 2&#45;&#45;5 -->
<g id="edge9" class="edge"><title>2&#45;&#45;5</title>
<path fill="none" stroke="black" d="M120.126,-181.416C116.278,-188.864 102.511,-215.514 98.7156,-222.862"/>
</g>
<!-- 6 -->
<g id="node7" class="node"><title>6</title>
<ellipse fill="black" stroke="black" cx="10.2924" cy="-15.8216" rx="1.8" ry="1.8"/>
</g>
<!-- 3&#45;&#45;6 -->
<g id="edge10" class="edge"><title>3&#45;&#45;6</title>
<path fill="none" stroke="black" d="M95.5078,-52.0772C84.1812,-47.2582 23.3976,-21.3974 12.1002,-16.5908"/>
</g>
<!-- 7 -->
<g id="node8" class="node"><title>7</title>
<ellipse fill="black" stroke="black" cx="62.4434" cy="-1.8" rx="1.8" ry="1.8"/>
</g>
<!-- 3&#45;&#45;7 -->
<g id="edge11" class="edge"><title>3&#45;&#45;7</title>
<path fill="none" stroke="black" d="M96.165,-51.1521C90.869,-43.4013 69.0229,-11.4292 63.6441,-3.55728"/>
</g>
<!-- 1 -->
<g id="node6" class="node"><title>1</title>
<ellipse fill="black" stroke="black" cx="1.8" cy="-74.7738" rx="1.8" ry="1.8"/>
</g>
<!-- 1&#45;&#45;4 -->
<g id="edge5" class="edge"><title>1&#45;&#45;4</title>
<path fill="none" stroke="black" d="M2.66471,-76.5525C7.5044,-86.5076 31.1862,-135.22 35.9466,-145.012"/>
</g>
<!-- 1&#45;&#45;6 -->
<g id="edge6" class="edge"><title>1&#45;&#45;6</title>
<path fill="none" stroke="black" d="M2.08256,-72.8124C3.37192,-63.8619 8.69055,-26.9412 10.0001,-17.8509"/>
</g>
<!-- 1&#45;&#45;7 -->
<g id="edge7" class="edge"><title>1&#45;&#45;7</title>
<path fill="none" stroke="black" d="M3.06662,-73.2497C10.9588,-63.7528 53.3119,-12.7882 61.1837,-3.31578"/>
</g>
</g>
</svg>
