<?xml version="1.0" encoding="UTF-8" standalone="no"?>
<!DOCTYPE svg PUBLIC "-//W3C//DTD SVG 1.1//EN"
 "http://www.w3.org/Graphics/SVG/1.1/DTD/svg11.dtd">
<!-- Generated by graphviz version 2.36.0 (20140111.2315)
 -->
<!-- Title: %3 Pages: 1 -->
<svg width="150pt" height="158pt"
 viewBox="0.00 0.00 149.68 157.86" xmlns="http://www.w3.org/2000/svg" xmlns:xlink="http://www.w3.org/1999/xlink">
<g id="graph0" class="graph" transform="scale(1 1) rotate(0) translate(4 153.863)">
<title>%3</title>
<!-- 0 -->
<g id="node1" class="node"><title>0</title>
<ellipse fill="black" stroke="black" cx="56.4525" cy="-77.5202" rx="1.8" ry="1.8"/>
</g>
<!-- 1 -->
<g id="node2" class="node"><title>1</title>
<ellipse fill="black" stroke="black" cx="125.877" cy="-72.7847" rx="1.8" ry="1.8"/>
</g>
<!-- 0&#45;&#45;1 -->
<g id="edge1" class="edge"><title>0&#45;&#45;1</title>
<path fill="none" stroke="black" d="M58.4554,-77.3835C68.5933,-76.692 114.153,-73.5844 123.998,-72.9129"/>
</g>
<!-- 2 -->
<g id="node3" class="node"><title>2</title>
<ellipse fill="black" stroke="black" cx="68.0106" cy="-23.5588" rx="1.8" ry="1.8"/>
</g>
<!-- 0&#45;&#45;2 -->
<g id="edge2" class="edge"><title>0&#45;&#45;2</title>
<path fill="none" stroke="black" d="M56.8371,-75.7248C58.5919,-67.532 65.8305,-33.737 67.6127,-25.4163"/>
</g>
<!-- 3 -->
<g id="node4" class="node"><title>3</title>
<ellipse fill="black" stroke="black" cx="24.385" cy="-113.498" rx="1.8" ry="1.8"/>
</g>
<!-- 0&#45;&#45;3 -->
<g id="edge3" class="edge"><title>0&#45;&#45;3</title>
<path fill="none" stroke="black" d="M55.0746,-79.0661C49.7998,-84.9841 30.926,-106.16 25.722,-111.998"/>
</g>
<!-- 4 -->
<g id="node5" class="node"><title>4</title>
<ellipse fill="black" stroke="black" cx="111.309" cy="-131.73" rx="1.8" ry="1.8"/>
</g>
<!-- 0&#45;&#45;4 -->
<g id="edge4" class="edge"><title>0&#45;&#45;4</title>
<path fill="none" stroke="black" d="M57.8085,-78.8602C65.332,-86.295 101.891,-122.424 109.799,-130.238"/>
</g>
<!-- 5 -->
<g id="node6" class="node"><title>5</title>
<ellipse fill="black" stroke="black" cx="72.5632" cy="-148.063" rx="1.8" ry="1.8"/>
</g>
<!-- 0&#45;&#45;5 -->
<g id="edge5" class="edge"><title>0&#45;&#45;5</title>
<path fill="none" stroke="black" d="M56.9173,-79.5553C59.2699,-89.8565 69.8425,-136.15 72.1271,-146.154"/>
</g>
<!-- 6 -->
<g id="node7" class="node"><title>6</title>
<ellipse fill="black" stroke="black" cx="1.8" cy="-15.5158" rx="1.8" ry="1.8"/>
</g>
<!-- 0&#45;&#45;6 -->
<g id="edge6" class="edge"><title>0&#45;&#45;6</title>
<path fill="none" stroke="black" d="M55.1015,-75.9875C47.606,-67.4836 11.1824,-26.1604 3.30443,-17.2226"/>
</g>
<!-- 1&#45;&#45;2 -->
<g id="edge7" class="edge"><title>1&#45;&#45;2</title>
<path fill="none" stroke="black" d="M124.447,-71.5679C116.511,-64.8166 77.9448,-32.0096 69.6035,-24.9139"/>
</g>
<!-- 1&#45;&#45;4 -->
<g id="edge8" class="edge"><title>1&#45;&#45;4</title>
<path fill="none" stroke="black" d="M125.393,-74.7459C123.181,-83.6954 114.057,-120.612 111.81,-129.701"/>
</g>
<!-- 1&#45;&#45;5 -->
<g id="edge9" class="edge"><title>1&#45;&#45;5</title>
<path fill="none" stroke="black" d="M124.764,-74.357C117.826,-84.1538 80.5911,-136.728 73.6706,-146.5"/>
</g>
<!-- 7 -->
<g id="node8" class="node"><title>7</title>
<ellipse fill="black" stroke="black" cx="139.88" cy="-1.8" rx="1.8" ry="1.8"/>
</g>
<!-- 1&#45;&#45;7 -->
<g id="edge10" class="edge"><title>1&#45;&#45;7</title>
<path fill="none" stroke="black" d="M126.281,-70.7368C128.326,-60.3711 137.515,-13.7877 139.501,-3.72164"/>
</g>
<!-- 2&#45;&#45;3 -->
<g id="edge11" class="edge"><title>2&#45;&#45;3</title>
<path fill="none" stroke="black" d="M67.0994,-25.4373C61.4219,-37.1421 30.954,-99.9555 25.2911,-111.63"/>
</g>
<!-- 2&#45;&#45;6 -->
<g id="edge12" class="edge"><title>2&#45;&#45;6</title>
<path fill="none" stroke="black" d="M66.1004,-23.3268C56.4319,-22.1523 12.9815,-16.8741 3.5924,-15.7336"/>
</g>
<!-- 2&#45;&#45;7 -->
<g id="edge13" class="edge"><title>2&#45;&#45;7</title>
<path fill="none" stroke="black" d="M69.7871,-23.0209C79.6439,-20.0367 127.542,-5.53542 137.902,-2.39896"/>
</g>
<!-- 3&#45;&#45;4 -->
<g id="edge14" class="edge"><title>3&#45;&#45;4</title>
<path fill="none" stroke="black" d="M26.2005,-113.879C37.5128,-116.252 98.22,-128.985 109.503,-131.351"/>
</g>
<!-- 3&#45;&#45;5 -->
<g id="edge15" class="edge"><title>3&#45;&#45;5</title>
<path fill="none" stroke="black" d="M25.9879,-114.648C33.3026,-119.896 63.4758,-141.544 70.9048,-146.874"/>
</g>
</g>
</svg>
