<?xml version="1.0" encoding="UTF-8" standalone="no"?>
<!DOCTYPE svg PUBLIC "-//W3C//DTD SVG 1.1//EN"
 "http://www.w3.org/Graphics/SVG/1.1/DTD/svg11.dtd">
<!-- Generated by graphviz version 2.36.0 (20140111.2315)
 -->
<!-- Title: %3 Pages: 1 -->
<svg width="186pt" height="148pt"
 viewBox="0.00 0.00 185.65 147.65" xmlns="http://www.w3.org/2000/svg" xmlns:xlink="http://www.w3.org/1999/xlink">
<g id="graph0" class="graph" transform="scale(1 1) rotate(0) translate(4 143.65)">
<title>%3</title>
<!-- 0 -->
<g id="node1" class="node"><title>0</title>
<ellipse fill="black" stroke="black" cx="86.9341" cy="-60.5609" rx="1.8" ry="1.8"/>
</g>
<!-- 1 -->
<g id="node2" class="node"><title>1</title>
<ellipse fill="black" stroke="black" cx="143.078" cy="-91.4579" rx="1.8" ry="1.8"/>
</g>
<!-- 0&#45;&#45;1 -->
<g id="edge1" class="edge"><title>0&#45;&#45;1</title>
<path fill="none" stroke="black" d="M88.8021,-61.5889C97.3262,-66.2799 132.488,-85.6301 141.146,-90.3944"/>
</g>
<!-- 2 -->
<g id="node3" class="node"><title>2</title>
<ellipse fill="black" stroke="black" cx="48.1431" cy="-5.03529" rx="1.8" ry="1.8"/>
</g>
<!-- 0&#45;&#45;2 -->
<g id="edge2" class="edge"><title>0&#45;&#45;2</title>
<path fill="none" stroke="black" d="M85.6434,-58.7135C79.6488,-50.1327 54.5864,-14.2582 49.1757,-6.51331"/>
</g>
<!-- 3 -->
<g id="node4" class="node"><title>3</title>
<ellipse fill="black" stroke="black" cx="27.4825" cy="-92.0103" rx="1.8" ry="1.8"/>
</g>
<!-- 0&#45;&#45;3 -->
<g id="edge3" class="edge"><title>0&#45;&#45;3</title>
<path fill="none" stroke="black" d="M85.2189,-61.4682C76.5374,-66.0607 37.5225,-86.6992 29.0919,-91.159"/>
</g>
<!-- 4 -->
<g id="node5" class="node"><title>4</title>
<ellipse fill="black" stroke="black" cx="120.406" cy="-1.8" rx="1.8" ry="1.8"/>
</g>
<!-- 0&#45;&#45;4 -->
<g id="edge4" class="edge"><title>0&#45;&#45;4</title>
<path fill="none" stroke="black" d="M87.8997,-58.8657C92.7875,-50.285 114.753,-11.7234 119.5,-3.39073"/>
</g>
<!-- 5 -->
<g id="node6" class="node"><title>5</title>
<ellipse fill="black" stroke="black" cx="85.5039" cy="-137.85" rx="1.8" ry="1.8"/>
</g>
<!-- 0&#45;&#45;5 -->
<g id="edge5" class="edge"><title>0&#45;&#45;5</title>
<path fill="none" stroke="black" d="M86.8987,-62.4715C86.7009,-73.1646 85.7326,-125.489 85.538,-136.007"/>
</g>
<!-- 6 -->
<g id="node7" class="node"><title>6</title>
<ellipse fill="black" stroke="black" cx="1.8" cy="-39.0666" rx="1.8" ry="1.8"/>
</g>
<!-- 0&#45;&#45;6 -->
<g id="edge6" class="edge"><title>0&#45;&#45;6</title>
<path fill="none" stroke="black" d="M85.1559,-60.112C74.0765,-57.3147 14.6192,-42.3032 3.56836,-39.5131"/>
</g>
<!-- 7 -->
<g id="node8" class="node"><title>7</title>
<ellipse fill="black" stroke="black" cx="175.851" cy="-45.5521" rx="1.8" ry="1.8"/>
</g>
<!-- 0&#45;&#45;7 -->
<g id="edge7" class="edge"><title>0&#45;&#45;7</title>
<path fill="none" stroke="black" d="M88.7912,-60.2475C100.363,-58.2942 162.462,-47.8121 174.004,-45.8638"/>
</g>
<!-- 1&#45;&#45;4 -->
<g id="edge8" class="edge"><title>1&#45;&#45;4</title>
<path fill="none" stroke="black" d="M142.605,-89.5853C139.654,-77.9172 123.82,-15.3004 120.877,-3.66233"/>
</g>
<!-- 1&#45;&#45;5 -->
<g id="edge9" class="edge"><title>1&#45;&#45;5</title>
<path fill="none" stroke="black" d="M141.655,-92.6047C133.759,-98.9674 95.3879,-129.886 87.0888,-136.573"/>
</g>
<!-- 1&#45;&#45;7 -->
<g id="edge10" class="edge"><title>1&#45;&#45;7</title>
<path fill="none" stroke="black" d="M144.169,-89.9305C149.144,-82.9608 169.67,-54.2109 174.723,-47.1323"/>
</g>
<!-- 2&#45;&#45;3 -->
<g id="edge11" class="edge"><title>2&#45;&#45;3</title>
<path fill="none" stroke="black" d="M47.7116,-6.85189C45.0228,-18.1709 30.5935,-78.9139 27.9116,-90.2037"/>
</g>
<!-- 2&#45;&#45;4 -->
<g id="edge12" class="edge"><title>2&#45;&#45;4</title>
<path fill="none" stroke="black" d="M50.2279,-4.94196C60.7802,-4.46952 108.202,-2.34637 118.45,-1.88758"/>
</g>
<!-- 2&#45;&#45;6 -->
<g id="edge13" class="edge"><title>2&#45;&#45;6</title>
<path fill="none" stroke="black" d="M46.6012,-6.16758C39.5651,-11.3344 10.5413,-32.6476 3.39524,-37.8952"/>
</g>
<!-- 3&#45;&#45;5 -->
<g id="edge14" class="edge"><title>3&#45;&#45;5</title>
<path fill="none" stroke="black" d="M28.9167,-93.1435C36.8743,-99.4304 75.5431,-129.981 83.9067,-136.589"/>
</g>
<!-- 3&#45;&#45;6 -->
<g id="edge15" class="edge"><title>3&#45;&#45;6</title>
<path fill="none" stroke="black" d="M26.628,-90.2488C22.7287,-82.2106 6.64424,-49.0529 2.68405,-40.8891"/>
</g>
</g>
</svg>
