<?xml version="1.0" encoding="UTF-8" standalone="no"?>
<!DOCTYPE svg PUBLIC "-//W3C//DTD SVG 1.1//EN"
 "http://www.w3.org/Graphics/SVG/1.1/DTD/svg11.dtd">
<!-- Generated by graphviz version 2.36.0 (20140111.2315)
 -->
<!-- Title: %3 Pages: 1 -->
<svg width="179pt" height="161pt"
 viewBox="0.00 0.00 178.88 161.32" xmlns="http://www.w3.org/2000/svg" xmlns:xlink="http://www.w3.org/1999/xlink">
<g id="graph0" class="graph" transform="scale(1 1) rotate(0) translate(4 157.322)">
<title>%3</title>
<!-- 0 -->
<g id="node1" class="node"><title>0</title>
<ellipse fill="black" stroke="black" cx="59.9817" cy="-92.3326" rx="1.8" ry="1.8"/>
</g>
<!-- 1 -->
<g id="node2" class="node"><title>1</title>
<ellipse fill="black" stroke="black" cx="133.136" cy="-68.2201" rx="1.8" ry="1.8"/>
</g>
<!-- 0&#45;&#45;1 -->
<g id="edge1" class="edge"><title>0&#45;&#45;1</title>
<path fill="none" stroke="black" d="M61.79,-91.7366C71.9111,-88.4006 121.436,-72.0767 131.391,-68.7953"/>
</g>
<!-- 2 -->
<g id="node3" class="node"><title>2</title>
<ellipse fill="black" stroke="black" cx="83.8231" cy="-54.3588" rx="1.8" ry="1.8"/>
</g>
<!-- 0&#45;&#45;2 -->
<g id="edge2" class="edge"><title>0&#45;&#45;2</title>
<path fill="none" stroke="black" d="M61.0061,-90.701C64.9278,-84.4547 78.96,-62.1046 82.829,-55.9422"/>
</g>
<!-- 4 -->
<g id="node4" class="node"><title>4</title>
<ellipse fill="black" stroke="black" cx="97.2083" cy="-130.779" rx="1.8" ry="1.8"/>
</g>
<!-- 0&#45;&#45;4 -->
<g id="edge3" class="edge"><title>0&#45;&#45;4</title>
<path fill="none" stroke="black" d="M61.5813,-93.9847C67.7047,-100.309 89.6149,-122.937 95.6561,-129.176"/>
</g>
<!-- 5 -->
<g id="node5" class="node"><title>5</title>
<ellipse fill="black" stroke="black" cx="96.8265" cy="-1.8" rx="1.8" ry="1.8"/>
</g>
<!-- 0&#45;&#45;5 -->
<g id="edge4" class="edge"><title>0&#45;&#45;5</title>
<path fill="none" stroke="black" d="M60.7512,-90.4417C65.5463,-78.6598 91.2786,-15.4321 96.0612,-3.6805"/>
</g>
<!-- 6 -->
<g id="node6" class="node"><title>6</title>
<ellipse fill="black" stroke="black" cx="132.176" cy="-151.522" rx="1.8" ry="1.8"/>
</g>
<!-- 0&#45;&#45;6 -->
<g id="edge5" class="edge"><title>0&#45;&#45;6</title>
<path fill="none" stroke="black" d="M61.4896,-93.5689C70.885,-101.272 121.305,-142.61 130.677,-150.293"/>
</g>
<!-- 7 -->
<g id="node7" class="node"><title>7</title>
<ellipse fill="black" stroke="black" cx="1.8" cy="-60.9254" rx="1.8" ry="1.8"/>
</g>
<!-- 0&#45;&#45;7 -->
<g id="edge6" class="edge"><title>0&#45;&#45;7</title>
<path fill="none" stroke="black" d="M58.0459,-91.2877C49.2124,-86.5192 12.7743,-66.8494 3.80275,-62.0065"/>
</g>
<!-- 1&#45;&#45;2 -->
<g id="edge7" class="edge"><title>1&#45;&#45;2</title>
<path fill="none" stroke="black" d="M131.017,-67.6245C122.906,-65.3445 93.8819,-57.1862 85.8793,-54.9368"/>
</g>
<!-- 1&#45;&#45;4 -->
<g id="edge9" class="edge"><title>1&#45;&#45;4</title>
<path fill="none" stroke="black" d="M132.1,-70.0249C126.853,-79.1603 103.276,-120.214 98.1809,-129.086"/>
</g>
<!-- 1&#45;&#45;5 -->
<g id="edge10" class="edge"><title>1&#45;&#45;5</title>
<path fill="none" stroke="black" d="M132.239,-66.5782C127.259,-57.4688 103.06,-13.2026 97.826,-3.62836"/>
</g>
<!-- 1&#45;&#45;6 -->
<g id="edge11" class="edge"><title>1&#45;&#45;6</title>
<path fill="none" stroke="black" d="M133.113,-70.2793C132.98,-81.8043 132.33,-138.199 132.199,-149.535"/>
</g>
<!-- 3 -->
<g id="node8" class="node"><title>3</title>
<ellipse fill="black" stroke="black" cx="169.084" cy="-102.031" rx="1.8" ry="1.8"/>
</g>
<!-- 1&#45;&#45;3 -->
<g id="edge8" class="edge"><title>1&#45;&#45;3</title>
<path fill="none" stroke="black" d="M134.681,-69.6729C140.594,-75.2345 161.752,-95.1347 167.585,-100.622"/>
</g>
<!-- 2&#45;&#45;4 -->
<g id="edge13" class="edge"><title>2&#45;&#45;4</title>
<path fill="none" stroke="black" d="M84.154,-56.2479C86.0059,-66.8208 95.0675,-118.557 96.889,-128.956"/>
</g>
<!-- 2&#45;&#45;5 -->
<g id="edge14" class="edge"><title>2&#45;&#45;5</title>
<path fill="none" stroke="black" d="M84.2558,-52.6101C86.23,-44.6303 94.3738,-11.7137 96.3789,-3.60919"/>
</g>
<!-- 2&#45;&#45;7 -->
<g id="edge15" class="edge"><title>2&#45;&#45;7</title>
<path fill="none" stroke="black" d="M81.7956,-54.5211C70.4475,-55.4296 14.9189,-59.8751 3.75668,-60.7687"/>
</g>
<!-- 2&#45;&#45;3 -->
<g id="edge12" class="edge"><title>2&#45;&#45;3</title>
<path fill="none" stroke="black" d="M85.6039,-55.3545C96.6998,-61.5587 156.246,-94.853 167.313,-101.041"/>
</g>
<!-- 3&#45;&#45;4 -->
<g id="edge16" class="edge"><title>3&#45;&#45;4</title>
<path fill="none" stroke="black" d="M167.307,-102.742C157.363,-106.719 108.704,-126.181 98.9229,-130.094"/>
</g>
<!-- 3&#45;&#45;6 -->
<g id="edge17" class="edge"><title>3&#45;&#45;6</title>
<path fill="none" stroke="black" d="M167.856,-103.678C162.253,-111.192 139.138,-142.187 133.447,-149.819"/>
</g>
</g>
</svg>
