<?xml version="1.0" encoding="UTF-8" standalone="no"?>
<!DOCTYPE svg PUBLIC "-//W3C//DTD SVG 1.1//EN"
 "http://www.w3.org/Graphics/SVG/1.1/DTD/svg11.dtd">
<!-- Generated by graphviz version 2.36.0 (20140111.2315)
 -->
<!-- Title: %3 Pages: 1 -->
<svg width="148pt" height="291pt"
 viewBox="0.00 0.00 147.63 290.62" xmlns="http://www.w3.org/2000/svg" xmlns:xlink="http://www.w3.org/1999/xlink">
<g id="graph0" class="graph" transform="scale(1 1) rotate(0) translate(4 286.62)">
<title>%3</title>
<!-- 0 -->
<g id="node1" class="node"><title>0</title>
<ellipse fill="black" stroke="black" cx="13.5122" cy="-183.403" rx="1.8" ry="1.8"/>
</g>
<!-- 2 -->
<g id="node2" class="node"><title>2</title>
<ellipse fill="black" stroke="black" cx="87.4323" cy="-144.633" rx="1.8" ry="1.8"/>
</g>
<!-- 0&#45;&#45;2 -->
<g id="edge1" class="edge"><title>0&#45;&#45;2</title>
<path fill="none" stroke="black" d="M15.3394,-182.445C25.5664,-177.081 75.6094,-150.834 85.6689,-145.558"/>
</g>
<!-- 3 -->
<g id="node3" class="node"><title>3</title>
<ellipse fill="black" stroke="black" cx="42.5196" cy="-246.039" rx="1.8" ry="1.8"/>
</g>
<!-- 0&#45;&#45;3 -->
<g id="edge2" class="edge"><title>0&#45;&#45;3</title>
<path fill="none" stroke="black" d="M14.349,-185.21C18.5849,-194.357 37.6209,-235.461 41.7344,-244.343"/>
</g>
<!-- 4 -->
<g id="node4" class="node"><title>4</title>
<ellipse fill="black" stroke="black" cx="1.8" cy="-267.348" rx="1.8" ry="1.8"/>
</g>
<!-- 0&#45;&#45;4 -->
<g id="edge3" class="edge"><title>0&#45;&#45;4</title>
<path fill="none" stroke="black" d="M13.2227,-185.478C11.6023,-197.092 3.67326,-253.922 2.0794,-265.345"/>
</g>
<!-- 5 -->
<g id="node6" class="node"><title>5</title>
<ellipse fill="black" stroke="black" cx="137.831" cy="-210.133" rx="1.8" ry="1.8"/>
</g>
<!-- 2&#45;&#45;5 -->
<g id="edge7" class="edge"><title>2&#45;&#45;5</title>
<path fill="none" stroke="black" d="M88.6781,-146.252C95.5902,-155.236 129.179,-198.889 136.444,-208.33"/>
</g>
<!-- 6 -->
<g id="node7" class="node"><title>6</title>
<ellipse fill="black" stroke="black" cx="103.374" cy="-70.0581" rx="1.8" ry="1.8"/>
</g>
<!-- 2&#45;&#45;6 -->
<g id="edge8" class="edge"><title>2&#45;&#45;6</title>
<path fill="none" stroke="black" d="M87.8264,-142.79C90.0319,-132.472 100.824,-81.9857 102.994,-71.8371"/>
</g>
<!-- 3&#45;&#45;4 -->
<g id="edge9" class="edge"><title>3&#45;&#45;4</title>
<path fill="none" stroke="black" d="M40.77,-246.954C34.072,-250.459 10.1059,-263.001 3.49783,-266.459"/>
</g>
<!-- 1 -->
<g id="node5" class="node"><title>1</title>
<ellipse fill="black" stroke="black" cx="92.0367" cy="-280.82" rx="1.8" ry="1.8"/>
</g>
<!-- 1&#45;&#45;3 -->
<g id="edge4" class="edge"><title>1&#45;&#45;3</title>
<path fill="none" stroke="black" d="M90.3891,-279.663C82.8712,-274.382 51.8596,-252.599 44.2241,-247.236"/>
</g>
<!-- 1&#45;&#45;4 -->
<g id="edge5" class="edge"><title>1&#45;&#45;4</title>
<path fill="none" stroke="black" d="M90.1519,-280.539C78.4085,-278.786 15.3876,-269.376 3.67435,-267.628"/>
</g>
<!-- 1&#45;&#45;5 -->
<g id="edge6" class="edge"><title>1&#45;&#45;5</title>
<path fill="none" stroke="black" d="M93.1687,-279.073C99.5044,-269.293 130.507,-221.439 136.739,-211.82"/>
</g>
<!-- 7 -->
<g id="node8" class="node"><title>7</title>
<ellipse fill="black" stroke="black" cx="129.946" cy="-1.8" rx="1.8" ry="1.8"/>
</g>
<!-- 6&#45;&#45;7 -->
<g id="edge10" class="edge"><title>6&#45;&#45;7</title>
<path fill="none" stroke="black" d="M104.031,-68.3708C107.675,-59.0093 125.384,-13.5182 129.215,-3.67896"/>
</g>
</g>
</svg>
