<?xml version="1.0" encoding="UTF-8" standalone="no"?>
<!DOCTYPE svg PUBLIC "-//W3C//DTD SVG 1.1//EN"
 "http://www.w3.org/Graphics/SVG/1.1/DTD/svg11.dtd">
<!-- Generated by graphviz version 2.36.0 (20140111.2315)
 -->
<!-- Title: %3 Pages: 1 -->
<svg width="140pt" height="147pt"
 viewBox="0.00 0.00 139.83 146.88" xmlns="http://www.w3.org/2000/svg" xmlns:xlink="http://www.w3.org/1999/xlink">
<g id="graph0" class="graph" transform="scale(1 1) rotate(0) translate(4 142.884)">
<title>%3</title>
<!-- 0 -->
<g id="node1" class="node"><title>0</title>
<ellipse fill="black" stroke="black" cx="17.6529" cy="-70.9875" rx="1.8" ry="1.8"/>
</g>
<!-- 1 -->
<g id="node2" class="node"><title>1</title>
<ellipse fill="black" stroke="black" cx="69.1335" cy="-74.5589" rx="1.8" ry="1.8"/>
</g>
<!-- 0&#45;&#45;1 -->
<g id="edge1" class="edge"><title>0&#45;&#45;1</title>
<path fill="none" stroke="black" d="M19.8649,-71.141C28.333,-71.7285 58.6327,-73.8305 66.987,-74.41"/>
</g>
<!-- 2 -->
<g id="node3" class="node"><title>2</title>
<ellipse fill="black" stroke="black" cx="62.2431" cy="-46.2192" rx="1.8" ry="1.8"/>
</g>
<!-- 0&#45;&#45;2 -->
<g id="edge2" class="edge"><title>0&#45;&#45;2</title>
<path fill="none" stroke="black" d="M19.5688,-69.9233C26.9035,-65.8491 53.1477,-51.2713 60.3839,-47.2519"/>
</g>
<!-- 3 -->
<g id="node4" class="node"><title>3</title>
<ellipse fill="black" stroke="black" cx="1.8" cy="-118.434" rx="1.8" ry="1.8"/>
</g>
<!-- 0&#45;&#45;3 -->
<g id="edge3" class="edge"><title>0&#45;&#45;3</title>
<path fill="none" stroke="black" d="M16.9717,-73.0263C14.364,-80.8307 5.03361,-108.756 2.46099,-116.456"/>
</g>
<!-- 4 -->
<g id="node5" class="node"><title>4</title>
<ellipse fill="black" stroke="black" cx="123.363" cy="-81.0008" rx="1.8" ry="1.8"/>
</g>
<!-- 0&#45;&#45;4 -->
<g id="edge4" class="edge"><title>0&#45;&#45;4</title>
<path fill="none" stroke="black" d="M19.4877,-71.1613C32.3186,-72.3767 108.482,-79.5912 121.478,-80.8222"/>
</g>
<!-- 5 -->
<g id="node6" class="node"><title>5</title>
<ellipse fill="black" stroke="black" cx="56.3102" cy="-137.084" rx="1.8" ry="1.8"/>
</g>
<!-- 0&#45;&#45;5 -->
<g id="edge5" class="edge"><title>0&#45;&#45;5</title>
<path fill="none" stroke="black" d="M18.6084,-72.6214C23.9103,-81.6865 49.6738,-125.737 55.2461,-135.265"/>
</g>
<!-- 7 -->
<g id="node7" class="node"><title>7</title>
<ellipse fill="black" stroke="black" cx="13.0618" cy="-1.8" rx="1.8" ry="1.8"/>
</g>
<!-- 0&#45;&#45;7 -->
<g id="edge6" class="edge"><title>0&#45;&#45;7</title>
<path fill="none" stroke="black" d="M17.5204,-68.9915C16.85,-58.8882 13.8372,-13.4842 13.1861,-3.67299"/>
</g>
<!-- 1&#45;&#45;3 -->
<g id="edge7" class="edge"><title>1&#45;&#45;3</title>
<path fill="none" stroke="black" d="M67.4691,-75.6435C58.2344,-81.6609 13.3594,-110.902 3.65351,-117.226"/>
</g>
<!-- 1&#45;&#45;4 -->
<g id="edge8" class="edge"><title>1&#45;&#45;4</title>
<path fill="none" stroke="black" d="M70.9379,-74.7733C79.1713,-75.7513 113.134,-79.7857 121.496,-80.779"/>
</g>
<!-- 1&#45;&#45;5 -->
<g id="edge9" class="edge"><title>1&#45;&#45;5</title>
<path fill="none" stroke="black" d="M68.7636,-76.3628C66.9239,-85.333 58.7691,-125.095 56.7591,-134.896"/>
</g>
<!-- 1&#45;&#45;7 -->
<g id="edge11" class="edge"><title>1&#45;&#45;7</title>
<path fill="none" stroke="black" d="M67.9624,-73.0393C60.6652,-63.5704 21.5049,-12.7558 14.2265,-3.31131"/>
</g>
<!-- 6 -->
<g id="node8" class="node"><title>6</title>
<ellipse fill="black" stroke="black" cx="130.03" cy="-18.3991" rx="1.8" ry="1.8"/>
</g>
<!-- 1&#45;&#45;6 -->
<g id="edge10" class="edge"><title>1&#45;&#45;6</title>
<path fill="none" stroke="black" d="M70.6389,-73.1707C78.9908,-65.4685 119.576,-28.0403 128.354,-19.9451"/>
</g>
<!-- 2&#45;&#45;3 -->
<g id="edge12" class="edge"><title>2&#45;&#45;3</title>
<path fill="none" stroke="black" d="M60.9806,-47.7275C53.1145,-57.1255 10.9013,-107.56 3.05549,-116.934"/>
</g>
<!-- 2&#45;&#45;4 -->
<g id="edge13" class="edge"><title>2&#45;&#45;4</title>
<path fill="none" stroke="black" d="M64.0064,-47.2226C72.9316,-52.3017 113.041,-75.1269 121.709,-80.0592"/>
</g>
<!-- 2&#45;&#45;5 -->
<g id="edge14" class="edge"><title>2&#45;&#45;5</title>
<path fill="none" stroke="black" d="M62.1192,-48.117C61.3471,-59.9423 57.2036,-123.402 56.4335,-135.197"/>
</g>
<!-- 2&#45;&#45;7 -->
<g id="edge16" class="edge"><title>2&#45;&#45;7</title>
<path fill="none" stroke="black" d="M60.6067,-44.7413C53.1397,-37.9973 22.3384,-10.1784 14.7548,-3.32901"/>
</g>
<!-- 2&#45;&#45;6 -->
<g id="edge15" class="edge"><title>2&#45;&#45;6</title>
<path fill="none" stroke="black" d="M63.9187,-45.5315C73.2156,-41.716 118.393,-23.1751 128.164,-19.165"/>
</g>
<!-- 3&#45;&#45;5 -->
<g id="edge17" class="edge"><title>3&#45;&#45;5</title>
<path fill="none" stroke="black" d="M3.61365,-119.054C11.8897,-121.886 46.0285,-133.567 54.4339,-136.442"/>
</g>
<!-- 4&#45;&#45;6 -->
<g id="edge18" class="edge"><title>4&#45;&#45;6</title>
<path fill="none" stroke="black" d="M123.555,-79.1947C124.512,-70.2136 128.752,-30.4028 129.797,-20.5905"/>
</g>
</g>
</svg>
