<?xml version="1.0" encoding="UTF-8" standalone="no"?>
<!DOCTYPE svg PUBLIC "-//W3C//DTD SVG 1.1//EN"
 "http://www.w3.org/Graphics/SVG/1.1/DTD/svg11.dtd">
<!-- Generated by graphviz version 2.36.0 (20140111.2315)
 -->
<!-- Title: %3 Pages: 1 -->
<svg width="105pt" height="228pt"
 viewBox="0.00 0.00 105.34 227.84" xmlns="http://www.w3.org/2000/svg" xmlns:xlink="http://www.w3.org/1999/xlink">
<g id="graph0" class="graph" transform="scale(1 1) rotate(0) translate(4 223.837)">
<title>%3</title>
<!-- 0 -->
<g id="node1" class="node"><title>0</title>
<ellipse fill="black" stroke="black" cx="18.8115" cy="-135.264" rx="1.8" ry="1.8"/>
</g>
<!-- 1 -->
<g id="node2" class="node"><title>1</title>
<ellipse fill="black" stroke="black" cx="83.8109" cy="-75.1307" rx="1.8" ry="1.8"/>
</g>
<!-- 0&#45;&#45;1 -->
<g id="edge1" class="edge"><title>0&#45;&#45;1</title>
<path fill="none" stroke="black" d="M20.4182,-133.778C29.4892,-125.386 74.1827,-84.038 82.4831,-76.3591"/>
</g>
<!-- 2 -->
<g id="node3" class="node"><title>2</title>
<ellipse fill="black" stroke="black" cx="25.9669" cy="-66.6868" rx="1.8" ry="1.8"/>
</g>
<!-- 0&#45;&#45;2 -->
<g id="edge2" class="edge"><title>0&#45;&#45;2</title>
<path fill="none" stroke="black" d="M19.0179,-133.286C20.0628,-123.271 24.7585,-78.2679 25.7732,-68.5432"/>
</g>
<!-- 6 -->
<g id="node4" class="node"><title>6</title>
<ellipse fill="black" stroke="black" cx="1.8" cy="-194.312" rx="1.8" ry="1.8"/>
</g>
<!-- 0&#45;&#45;6 -->
<g id="edge3" class="edge"><title>0&#45;&#45;6</title>
<path fill="none" stroke="black" d="M18.2455,-137.229C15.6627,-146.194 5.00871,-183.175 2.38557,-192.28"/>
</g>
<!-- 7 -->
<g id="node5" class="node"><title>7</title>
<ellipse fill="black" stroke="black" cx="56.5914" cy="-218.037" rx="1.8" ry="1.8"/>
</g>
<!-- 0&#45;&#45;7 -->
<g id="edge4" class="edge"><title>0&#45;&#45;7</title>
<path fill="none" stroke="black" d="M19.6006,-136.993C24.5173,-147.765 50.9026,-205.573 55.8066,-216.318"/>
</g>
<!-- 3 -->
<g id="node6" class="node"><title>3</title>
<ellipse fill="black" stroke="black" cx="73.8815" cy="-137.578" rx="1.8" ry="1.8"/>
</g>
<!-- 1&#45;&#45;3 -->
<g id="edge5" class="edge"><title>1&#45;&#45;3</title>
<path fill="none" stroke="black" d="M83.5244,-76.9322C82.0999,-85.8913 75.7855,-125.604 74.2291,-135.392"/>
</g>
<!-- 4 -->
<g id="node7" class="node"><title>4</title>
<ellipse fill="black" stroke="black" cx="35.0272" cy="-1.8" rx="1.8" ry="1.8"/>
</g>
<!-- 1&#45;&#45;4 -->
<g id="edge6" class="edge"><title>1&#45;&#45;4</title>
<path fill="none" stroke="black" d="M82.792,-73.5991C76.4432,-64.0558 42.3729,-12.8419 36.0405,-3.32319"/>
</g>
<!-- 5 -->
<g id="node8" class="node"><title>5</title>
<ellipse fill="black" stroke="black" cx="95.5399" cy="-11.4421" rx="1.8" ry="1.8"/>
</g>
<!-- 1&#45;&#45;5 -->
<g id="edge7" class="edge"><title>1&#45;&#45;5</title>
<path fill="none" stroke="black" d="M84.1493,-73.2933C85.832,-64.1562 93.2909,-23.6542 95.1293,-13.6715"/>
</g>
<!-- 2&#45;&#45;3 -->
<g id="edge8" class="edge"><title>2&#45;&#45;3</title>
<path fill="none" stroke="black" d="M27.1513,-68.4391C33.7804,-78.2471 66.218,-126.24 72.7385,-135.887"/>
</g>
<!-- 2&#45;&#45;4 -->
<g id="edge9" class="edge"><title>2&#45;&#45;4</title>
<path fill="none" stroke="black" d="M26.2283,-64.8148C27.5281,-55.5058 33.2899,-14.2418 34.71,-4.07131"/>
</g>
<!-- 2&#45;&#45;5 -->
<g id="edge10" class="edge"><title>2&#45;&#45;5</title>
<path fill="none" stroke="black" d="M27.42,-65.5329C36.4743,-58.3433 85.0638,-19.7607 94.0947,-12.5896"/>
</g>
<!-- 6&#45;&#45;7 -->
<g id="edge13" class="edge"><title>6&#45;&#45;7</title>
<path fill="none" stroke="black" d="M3.62301,-195.102C11.9418,-198.704 46.2566,-213.562 54.7054,-217.22"/>
</g>
<!-- 3&#45;&#45;6 -->
<g id="edge11" class="edge"><title>3&#45;&#45;6</title>
<path fill="none" stroke="black" d="M72.376,-138.763C62.9953,-146.146 12.6538,-185.769 3.29724,-193.134"/>
</g>
<!-- 4&#45;&#45;5 -->
<g id="edge12" class="edge"><title>4&#45;&#45;5</title>
<path fill="none" stroke="black" d="M37.0405,-2.12081C46.2279,-3.58473 84.1259,-9.6234 93.4569,-11.1102"/>
</g>
</g>
</svg>
