<?xml version="1.0" encoding="UTF-8" standalone="no"?>
<!DOCTYPE svg PUBLIC "-//W3C//DTD SVG 1.1//EN"
 "http://www.w3.org/Graphics/SVG/1.1/DTD/svg11.dtd">
<!-- Generated by graphviz version 2.36.0 (20140111.2315)
 -->
<!-- Title: %3 Pages: 1 -->
<svg width="171pt" height="147pt"
 viewBox="0.00 0.00 170.67 146.75" xmlns="http://www.w3.org/2000/svg" xmlns:xlink="http://www.w3.org/1999/xlink">
<g id="graph0" class="graph" transform="scale(1 1) rotate(0) translate(4 142.747)">
<title>%3</title>
<!-- 0 -->
<g id="node1" class="node"><title>0</title>
<ellipse fill="black" stroke="black" cx="54.8179" cy="-67.2213" rx="1.8" ry="1.8"/>
</g>
<!-- 1 -->
<g id="node2" class="node"><title>1</title>
<ellipse fill="black" stroke="black" cx="106.432" cy="-69.169" rx="1.8" ry="1.8"/>
</g>
<!-- 0&#45;&#45;1 -->
<g id="edge1" class="edge"><title>0&#45;&#45;1</title>
<path fill="none" stroke="black" d="M57.0358,-67.305C65.5258,-67.6254 95.9042,-68.7717 104.28,-69.0878"/>
</g>
<!-- 2 -->
<g id="node3" class="node"><title>2</title>
<ellipse fill="black" stroke="black" cx="75.1254" cy="-5.41041" rx="1.8" ry="1.8"/>
</g>
<!-- 0&#45;&#45;2 -->
<g id="edge2" class="edge"><title>0&#45;&#45;2</title>
<path fill="none" stroke="black" d="M55.4038,-65.4381C58.3172,-56.5704 71.2315,-17.2625 74.4146,-7.57405"/>
</g>
<!-- 4 -->
<g id="node4" class="node"><title>4</title>
<ellipse fill="black" stroke="black" cx="126.102" cy="-1.8" rx="1.8" ry="1.8"/>
</g>
<!-- 0&#45;&#45;4 -->
<g id="edge3" class="edge"><title>0&#45;&#45;4</title>
<path fill="none" stroke="black" d="M56.3068,-65.8549C65.5838,-57.3409 115.369,-11.6509 124.622,-3.1589"/>
</g>
<!-- 5 -->
<g id="node5" class="node"><title>5</title>
<ellipse fill="black" stroke="black" cx="124.601" cy="-126.341" rx="1.8" ry="1.8"/>
</g>
<!-- 0&#45;&#45;5 -->
<g id="edge4" class="edge"><title>0&#45;&#45;5</title>
<path fill="none" stroke="black" d="M56.2755,-68.4561C65.357,-76.15 114.093,-117.439 123.151,-125.113"/>
</g>
<!-- 6 -->
<g id="node6" class="node"><title>6</title>
<ellipse fill="black" stroke="black" cx="59.3396" cy="-136.947" rx="1.8" ry="1.8"/>
</g>
<!-- 0&#45;&#45;6 -->
<g id="edge5" class="edge"><title>0&#45;&#45;6</title>
<path fill="none" stroke="black" d="M54.9484,-69.2329C55.6087,-79.4147 58.576,-125.171 59.2172,-135.059"/>
</g>
<!-- 7 -->
<g id="node7" class="node"><title>7</title>
<ellipse fill="black" stroke="black" cx="1.8" cy="-16.3538" rx="1.8" ry="1.8"/>
</g>
<!-- 0&#45;&#45;7 -->
<g id="edge6" class="edge"><title>0&#45;&#45;7</title>
<path fill="none" stroke="black" d="M53.5074,-65.9639C46.236,-58.9875 10.9018,-25.0864 3.25944,-17.754"/>
</g>
<!-- 1&#45;&#45;2 -->
<g id="edge7" class="edge"><title>1&#45;&#45;2</title>
<path fill="none" stroke="black" d="M105.529,-67.3296C100.957,-58.0191 80.4124,-16.1778 75.9729,-7.13643"/>
</g>
<!-- 1&#45;&#45;4 -->
<g id="edge9" class="edge"><title>1&#45;&#45;4</title>
<path fill="none" stroke="black" d="M107,-67.2254C109.872,-57.3877 122.78,-13.1771 125.57,-3.62376"/>
</g>
<!-- 1&#45;&#45;6 -->
<g id="edge10" class="edge"><title>1&#45;&#45;6</title>
<path fill="none" stroke="black" d="M105.268,-70.8444C98.8095,-80.14 67.4242,-125.311 60.6359,-135.081"/>
</g>
<!-- 3 -->
<g id="node8" class="node"><title>3</title>
<ellipse fill="black" stroke="black" cx="160.871" cy="-50.5808" rx="1.8" ry="1.8"/>
</g>
<!-- 1&#45;&#45;3 -->
<g id="edge8" class="edge"><title>1&#45;&#45;3</title>
<path fill="none" stroke="black" d="M108.244,-68.5505C116.509,-65.7283 150.603,-54.0869 158.997,-51.2207"/>
</g>
<!-- 2&#45;&#45;4 -->
<g id="edge12" class="edge"><title>2&#45;&#45;4</title>
<path fill="none" stroke="black" d="M77.3158,-5.25528C85.701,-4.6614 115.704,-2.53644 123.977,-1.95054"/>
</g>
<!-- 2&#45;&#45;7 -->
<g id="edge13" class="edge"><title>2&#45;&#45;7</title>
<path fill="none" stroke="black" d="M73.3129,-5.68092C63.2564,-7.18179 14.3881,-14.4751 3.81845,-16.0525"/>
</g>
<!-- 2&#45;&#45;3 -->
<g id="edge11" class="edge"><title>2&#45;&#45;3</title>
<path fill="none" stroke="black" d="M76.9163,-6.35386C88.0753,-12.2324 147.96,-43.7792 159.09,-49.6426"/>
</g>
<!-- 5&#45;&#45;6 -->
<g id="edge16" class="edge"><title>5&#45;&#45;6</title>
<path fill="none" stroke="black" d="M122.718,-126.647C113.355,-128.169 71.8532,-134.913 61.624,-136.575"/>
</g>
<!-- 3&#45;&#45;4 -->
<g id="edge14" class="edge"><title>3&#45;&#45;4</title>
<path fill="none" stroke="black" d="M159.714,-48.9578C154.436,-41.5516 132.66,-11.0011 127.299,-3.47915"/>
</g>
<!-- 3&#45;&#45;5 -->
<g id="edge15" class="edge"><title>3&#45;&#45;5</title>
<path fill="none" stroke="black" d="M159.975,-52.4536C154.957,-62.9351 130.402,-114.224 125.466,-124.534"/>
</g>
</g>
</svg>
