<?xml version="1.0" encoding="UTF-8" standalone="no"?>
<!DOCTYPE svg PUBLIC "-//W3C//DTD SVG 1.1//EN"
 "http://www.w3.org/Graphics/SVG/1.1/DTD/svg11.dtd">
<!-- Generated by graphviz version 2.36.0 (20140111.2315)
 -->
<!-- Title: %3 Pages: 1 -->
<svg width="203pt" height="148pt"
 viewBox="0.00 0.00 202.62 148.31" xmlns="http://www.w3.org/2000/svg" xmlns:xlink="http://www.w3.org/1999/xlink">
<g id="graph0" class="graph" transform="scale(1 1) rotate(0) translate(4 144.31)">
<title>%3</title>
<!-- 0 -->
<g id="node1" class="node"><title>0</title>
<ellipse fill="black" stroke="black" cx="58.5188" cy="-88.5678" rx="1.8" ry="1.8"/>
</g>
<!-- 1 -->
<g id="node2" class="node"><title>1</title>
<ellipse fill="black" stroke="black" cx="78.946" cy="-55.5682" rx="1.8" ry="1.8"/>
</g>
<!-- 0&#45;&#45;1 -->
<g id="edge1" class="edge"><title>0&#45;&#45;1</title>
<path fill="none" stroke="black" d="M59.6171,-86.7936C63.1971,-81.0102 74.4964,-62.7565 77.94,-57.1934"/>
</g>
<!-- 2 -->
<g id="node3" class="node"><title>2</title>
<ellipse fill="black" stroke="black" cx="133.483" cy="-29.2714" rx="1.8" ry="1.8"/>
</g>
<!-- 0&#45;&#45;2 -->
<g id="edge2" class="edge"><title>0&#45;&#45;2</title>
<path fill="none" stroke="black" d="M60.0846,-87.3293C69.8405,-79.6124 122.195,-38.2 131.926,-30.503"/>
</g>
<!-- 3 -->
<g id="node4" class="node"><title>3</title>
<ellipse fill="black" stroke="black" cx="112.858" cy="-138.51" rx="1.8" ry="1.8"/>
</g>
<!-- 0&#45;&#45;3 -->
<g id="edge3" class="edge"><title>0&#45;&#45;3</title>
<path fill="none" stroke="black" d="M59.8621,-89.8023C67.3147,-96.6518 103.53,-129.936 111.363,-137.135"/>
</g>
<!-- 4 -->
<g id="node5" class="node"><title>4</title>
<ellipse fill="black" stroke="black" cx="130.646" cy="-92.1254" rx="1.8" ry="1.8"/>
</g>
<!-- 0&#45;&#45;4 -->
<g id="edge4" class="edge"><title>0&#45;&#45;4</title>
<path fill="none" stroke="black" d="M60.5997,-88.6704C71.1323,-89.1899 118.466,-91.5246 128.694,-92.0291"/>
</g>
<!-- 5 -->
<g id="node6" class="node"><title>5</title>
<ellipse fill="black" stroke="black" cx="60.0595" cy="-1.8" rx="1.8" ry="1.8"/>
</g>
<!-- 0&#45;&#45;5 -->
<g id="edge5" class="edge"><title>0&#45;&#45;5</title>
<path fill="none" stroke="black" d="M58.551,-86.7555C58.7515,-75.4635 59.8275,-14.8652 60.0275,-3.6023"/>
</g>
<!-- 6 -->
<g id="node7" class="node"><title>6</title>
<ellipse fill="black" stroke="black" cx="1.8" cy="-44.1024" rx="1.8" ry="1.8"/>
</g>
<!-- 0&#45;&#45;6 -->
<g id="edge6" class="edge"><title>0&#45;&#45;6</title>
<path fill="none" stroke="black" d="M56.6317,-87.0883C47.8665,-80.2168 11.2211,-51.4882 3.30978,-45.286"/>
</g>
<!-- 1&#45;&#45;2 -->
<g id="edge7" class="edge"><title>1&#45;&#45;2</title>
<path fill="none" stroke="black" d="M80.7606,-54.6932C89.0407,-50.7007 123.196,-34.2315 131.606,-30.1765"/>
</g>
<!-- 1&#45;&#45;3 -->
<g id="edge8" class="edge"><title>1&#45;&#45;3</title>
<path fill="none" stroke="black" d="M79.6543,-57.3005C84.0677,-68.0946 107.752,-126.021 112.154,-136.787"/>
</g>
<!-- 1&#45;&#45;4 -->
<g id="edge9" class="edge"><title>1&#45;&#45;4</title>
<path fill="none" stroke="black" d="M80.6662,-56.7845C88.5156,-62.3348 120.895,-85.23 128.867,-90.867"/>
</g>
<!-- 1&#45;&#45;5 -->
<g id="edge10" class="edge"><title>1&#45;&#45;5</title>
<path fill="none" stroke="black" d="M78.3176,-53.7792C75.4502,-45.6158 63.6219,-11.9418 60.7096,-3.65082"/>
</g>
<!-- 1&#45;&#45;6 -->
<g id="edge11" class="edge"><title>1&#45;&#45;6</title>
<path fill="none" stroke="black" d="M77.039,-55.2847C66.3657,-53.6984 14.1388,-45.9362 3.64033,-44.3759"/>
</g>
<!-- 2&#45;&#45;4 -->
<g id="edge12" class="edge"><title>2&#45;&#45;4</title>
<path fill="none" stroke="black" d="M133.401,-31.0847C132.994,-40.1021 131.19,-80.0733 130.746,-89.9253"/>
</g>
<!-- 2&#45;&#45;5 -->
<g id="edge13" class="edge"><title>2&#45;&#45;5</title>
<path fill="none" stroke="black" d="M131.668,-28.5923C121.51,-24.7916 71.8029,-6.1938 61.811,-2.45533"/>
</g>
<!-- 7 -->
<g id="node8" class="node"><title>7</title>
<ellipse fill="black" stroke="black" cx="192.824" cy="-91.4176" rx="1.8" ry="1.8"/>
</g>
<!-- 2&#45;&#45;7 -->
<g id="edge14" class="edge"><title>2&#45;&#45;7</title>
<path fill="none" stroke="black" d="M134.95,-30.8076C143.088,-39.3308 182.637,-80.7487 191.191,-89.7069"/>
</g>
<!-- 3&#45;&#45;4 -->
<g id="edge15" class="edge"><title>3&#45;&#45;4</title>
<path fill="none" stroke="black" d="M113.623,-136.517C116.549,-128.887 127.018,-101.587 129.905,-94.0595"/>
</g>
<!-- 3&#45;&#45;7 -->
<g id="edge16" class="edge"><title>3&#45;&#45;7</title>
<path fill="none" stroke="black" d="M114.529,-137.527C124.935,-131.398 180.783,-98.5087 191.163,-92.3958"/>
</g>
<!-- 5&#45;&#45;6 -->
<g id="edge17" class="edge"><title>5&#45;&#45;6</title>
<path fill="none" stroke="black" d="M58.1211,-3.20748C49.1179,-9.74476 11.477,-37.0759 3.35079,-42.9763"/>
</g>
</g>
</svg>
