<?xml version="1.0" encoding="UTF-8" standalone="no"?>
<!DOCTYPE svg PUBLIC "-//W3C//DTD SVG 1.1//EN"
 "http://www.w3.org/Graphics/SVG/1.1/DTD/svg11.dtd">
<!-- Generated by graphviz version 2.36.0 (20140111.2315)
 -->
<!-- Title: %3 Pages: 1 -->
<svg width="184pt" height="142pt"
 viewBox="0.00 0.00 184.25 142.37" xmlns="http://www.w3.org/2000/svg" xmlns:xlink="http://www.w3.org/1999/xlink">
<g id="graph0" class="graph" transform="scale(1 1) rotate(0) translate(4 138.372)">
<title>%3</title>
<!-- 0 -->
<g id="node1" class="node"><title>0</title>
<ellipse fill="black" stroke="black" cx="97.577" cy="-55.3163" rx="1.8" ry="1.8"/>
</g>
<!-- 1 -->
<g id="node2" class="node"><title>1</title>
<ellipse fill="black" stroke="black" cx="44.6307" cy="-70.673" rx="1.8" ry="1.8"/>
</g>
<!-- 0&#45;&#45;1 -->
<g id="edge1" class="edge"><title>0&#45;&#45;1</title>
<path fill="none" stroke="black" d="M95.8153,-55.8273C87.7767,-58.1588 54.6174,-67.7764 46.4532,-70.1444"/>
</g>
<!-- 3 -->
<g id="node3" class="node"><title>3</title>
<ellipse fill="black" stroke="black" cx="120.312" cy="-1.8" rx="1.8" ry="1.8"/>
</g>
<!-- 0&#45;&#45;3 -->
<g id="edge2" class="edge"><title>0&#45;&#45;3</title>
<path fill="none" stroke="black" d="M98.3334,-53.5357C101.785,-45.4106 116.023,-11.8943 119.529,-3.64215"/>
</g>
<!-- 4 -->
<g id="node4" class="node"><title>4</title>
<ellipse fill="black" stroke="black" cx="85.7072" cy="-117.648" rx="1.8" ry="1.8"/>
</g>
<!-- 0&#45;&#45;4 -->
<g id="edge3" class="edge"><title>0&#45;&#45;4</title>
<path fill="none" stroke="black" d="M97.2345,-57.1146C95.5316,-66.057 87.9832,-105.696 86.1227,-115.466"/>
</g>
<!-- 5 -->
<g id="node5" class="node"><title>5</title>
<ellipse fill="black" stroke="black" cx="1.8" cy="-28.5528" rx="1.8" ry="1.8"/>
</g>
<!-- 0&#45;&#45;5 -->
<g id="edge4" class="edge"><title>0&#45;&#45;5</title>
<path fill="none" stroke="black" d="M95.5765,-54.7573C83.1121,-51.2743 16.2218,-32.5828 3.78943,-29.1087"/>
</g>
<!-- 6 -->
<g id="node6" class="node"><title>6</title>
<ellipse fill="black" stroke="black" cx="174.451" cy="-54.0484" rx="1.8" ry="1.8"/>
</g>
<!-- 0&#45;&#45;6 -->
<g id="edge5" class="edge"><title>0&#45;&#45;6</title>
<path fill="none" stroke="black" d="M99.4772,-55.285C110.113,-55.1096 162.155,-54.2512 172.617,-54.0787"/>
</g>
<!-- 1&#45;&#45;3 -->
<g id="edge7" class="edge"><title>1&#45;&#45;3</title>
<path fill="none" stroke="black" d="M46.2114,-69.2345C56.0605,-60.2713 108.916,-12.1707 118.74,-3.2306"/>
</g>
<!-- 1&#45;&#45;4 -->
<g id="edge8" class="edge"><title>1&#45;&#45;4</title>
<path fill="none" stroke="black" d="M45.9974,-72.2359C52.2338,-79.3679 77.9593,-108.787 84.2933,-116.031"/>
</g>
<!-- 1&#45;&#45;5 -->
<g id="edge9" class="edge"><title>1&#45;&#45;5</title>
<path fill="none" stroke="black" d="M43.2056,-69.2716C36.7028,-62.8766 9.87874,-36.4975 3.27433,-30.0027"/>
</g>
<!-- 2 -->
<g id="node7" class="node"><title>2</title>
<ellipse fill="black" stroke="black" cx="58.1278" cy="-16.3137" rx="1.8" ry="1.8"/>
</g>
<!-- 1&#45;&#45;2 -->
<g id="edge6" class="edge"><title>1&#45;&#45;2</title>
<path fill="none" stroke="black" d="M45.0797,-68.8643C47.129,-60.6112 55.582,-26.567 57.6632,-18.1849"/>
</g>
<!-- 3&#45;&#45;6 -->
<g id="edge13" class="edge"><title>3&#45;&#45;6</title>
<path fill="none" stroke="black" d="M121.65,-3.09154C129.075,-10.2574 165.156,-45.0787 172.96,-52.6102"/>
</g>
<!-- 7 -->
<g id="node8" class="node"><title>7</title>
<ellipse fill="black" stroke="black" cx="165.719" cy="-132.572" rx="1.8" ry="1.8"/>
</g>
<!-- 4&#45;&#45;7 -->
<g id="edge14" class="edge"><title>4&#45;&#45;7</title>
<path fill="none" stroke="black" d="M87.685,-118.017C98.7548,-120.082 152.922,-130.185 163.81,-132.216"/>
</g>
<!-- 6&#45;&#45;7 -->
<g id="edge15" class="edge"><title>6&#45;&#45;7</title>
<path fill="none" stroke="black" d="M174.235,-55.9895C173.027,-66.8534 167.116,-120.013 165.927,-130.699"/>
</g>
<!-- 2&#45;&#45;3 -->
<g id="edge10" class="edge"><title>2&#45;&#45;3</title>
<path fill="none" stroke="black" d="M59.9218,-15.895C68.843,-13.8128 108.388,-4.58296 118.135,-2.30804"/>
</g>
<!-- 2&#45;&#45;4 -->
<g id="edge11" class="edge"><title>2&#45;&#45;4</title>
<path fill="none" stroke="black" d="M58.6065,-18.0726C61.954,-30.3723 81.8248,-103.383 85.2153,-115.841"/>
</g>
<!-- 2&#45;&#45;5 -->
<g id="edge12" class="edge"><title>2&#45;&#45;5</title>
<path fill="none" stroke="black" d="M56.2537,-16.7209C47.7016,-18.5791 12.4246,-26.2443 3.73893,-28.1315"/>
</g>
</g>
</svg>
