<?xml version="1.0" encoding="UTF-8" standalone="no"?>
<!DOCTYPE svg PUBLIC "-//W3C//DTD SVG 1.1//EN"
 "http://www.w3.org/Graphics/SVG/1.1/DTD/svg11.dtd">
<!-- Generated by graphviz version 2.36.0 (20140111.2315)
 -->
<!-- Title: %3 Pages: 1 -->
<svg width="150pt" height="153pt"
 viewBox="0.00 0.00 149.72 152.58" xmlns="http://www.w3.org/2000/svg" xmlns:xlink="http://www.w3.org/1999/xlink">
<g id="graph0" class="graph" transform="scale(1 1) rotate(0) translate(4 148.576)">
<title>%3</title>
<!-- 0 -->
<g id="node1" class="node"><title>0</title>
<ellipse fill="black" stroke="black" cx="80.425" cy="-63.569" rx="1.8" ry="1.8"/>
</g>
<!-- 1 -->
<g id="node2" class="node"><title>1</title>
<ellipse fill="black" stroke="black" cx="61.7757" cy="-99.0338" rx="1.8" ry="1.8"/>
</g>
<!-- 0&#45;&#45;1 -->
<g id="edge1" class="edge"><title>0&#45;&#45;1</title>
<path fill="none" stroke="black" d="M79.4224,-65.4758C76.154,-71.6912 65.8381,-91.3085 62.6942,-97.2872"/>
</g>
<!-- 3 -->
<g id="node3" class="node"><title>3</title>
<ellipse fill="black" stroke="black" cx="1.8" cy="-73.3515" rx="1.8" ry="1.8"/>
</g>
<!-- 0&#45;&#45;3 -->
<g id="edge2" class="edge"><title>0&#45;&#45;3</title>
<path fill="none" stroke="black" d="M78.4815,-63.8108C67.6036,-65.1643 14.3754,-71.7869 3.67562,-73.1181"/>
</g>
<!-- 4 -->
<g id="node4" class="node"><title>4</title>
<ellipse fill="black" stroke="black" cx="115.866" cy="-136.138" rx="1.8" ry="1.8"/>
</g>
<!-- 0&#45;&#45;4 -->
<g id="edge3" class="edge"><title>0&#45;&#45;4</title>
<path fill="none" stroke="black" d="M81.3011,-65.3629C86.2045,-75.4029 110.198,-124.531 115.021,-134.406"/>
</g>
<!-- 5 -->
<g id="node5" class="node"><title>5</title>
<ellipse fill="black" stroke="black" cx="48.3521" cy="-19.6627" rx="1.8" ry="1.8"/>
</g>
<!-- 0&#45;&#45;5 -->
<g id="edge4" class="edge"><title>0&#45;&#45;5</title>
<path fill="none" stroke="black" d="M79.3579,-62.1082C74.4884,-55.4421 54.4017,-27.9444 49.4562,-21.1741"/>
</g>
<!-- 6 -->
<g id="node6" class="node"><title>6</title>
<ellipse fill="black" stroke="black" cx="38.3602" cy="-142.776" rx="1.8" ry="1.8"/>
</g>
<!-- 0&#45;&#45;6 -->
<g id="edge5" class="edge"><title>0&#45;&#45;6</title>
<path fill="none" stroke="black" d="M79.5465,-65.2234C74.0721,-75.5314 44.6942,-130.849 39.234,-141.131"/>
</g>
<!-- 7 -->
<g id="node7" class="node"><title>7</title>
<ellipse fill="black" stroke="black" cx="139.918" cy="-1.8" rx="1.8" ry="1.8"/>
</g>
<!-- 0&#45;&#45;7 -->
<g id="edge6" class="edge"><title>0&#45;&#45;7</title>
<path fill="none" stroke="black" d="M81.8957,-62.0421C90.0551,-53.5706 129.705,-12.4041 138.281,-3.50033"/>
</g>
<!-- 1&#45;&#45;3 -->
<g id="edge8" class="edge"><title>1&#45;&#45;3</title>
<path fill="none" stroke="black" d="M60.0454,-98.2928C51.441,-94.6083 13.3002,-78.276 3.8994,-74.2505"/>
</g>
<!-- 1&#45;&#45;4 -->
<g id="edge9" class="edge"><title>1&#45;&#45;4</title>
<path fill="none" stroke="black" d="M63.5754,-100.268C71.7877,-105.902 105.664,-129.139 114.004,-134.86"/>
</g>
<!-- 1&#45;&#45;5 -->
<g id="edge10" class="edge"><title>1&#45;&#45;5</title>
<path fill="none" stroke="black" d="M61.4439,-97.0718C59.5867,-86.0906 50.4991,-32.3574 48.6724,-21.5561"/>
</g>
<!-- 1&#45;&#45;6 -->
<g id="edge11" class="edge"><title>1&#45;&#45;6</title>
<path fill="none" stroke="black" d="M60.7696,-100.913C56.918,-108.109 43.1364,-133.854 39.3366,-140.952"/>
</g>
<!-- 2 -->
<g id="node8" class="node"><title>2</title>
<ellipse fill="black" stroke="black" cx="133.584" cy="-64.3458" rx="1.8" ry="1.8"/>
</g>
<!-- 1&#45;&#45;2 -->
<g id="edge7" class="edge"><title>1&#45;&#45;2</title>
<path fill="none" stroke="black" d="M63.5508,-98.1763C73.4855,-93.3772 122.099,-69.8938 131.871,-65.1733"/>
</g>
<!-- 3&#45;&#45;5 -->
<g id="edge15" class="edge"><title>3&#45;&#45;5</title>
<path fill="none" stroke="black" d="M3.34887,-71.5652C10.5429,-63.2683 40.6197,-28.5805 47.113,-21.0919"/>
</g>
<!-- 3&#45;&#45;6 -->
<g id="edge16" class="edge"><title>3&#45;&#45;6</title>
<path fill="none" stroke="black" d="M2.70374,-75.0676C7.71794,-84.5891 32.0838,-130.858 37.3538,-140.865"/>
</g>
<!-- 4&#45;&#45;6 -->
<g id="edge17" class="edge"><title>4&#45;&#45;6</title>
<path fill="none" stroke="black" d="M113.95,-136.302C103.227,-137.22 50.7566,-141.714 40.2092,-142.618"/>
</g>
<!-- 2&#45;&#45;4 -->
<g id="edge12" class="edge"><title>2&#45;&#45;4</title>
<path fill="none" stroke="black" d="M133.146,-66.1204C130.716,-75.9666 118.908,-123.813 116.354,-134.161"/>
</g>
<!-- 2&#45;&#45;5 -->
<g id="edge13" class="edge"><title>2&#45;&#45;5</title>
<path fill="none" stroke="black" d="M131.804,-63.4125C120.711,-57.5974 61.186,-26.391 50.1225,-20.5909"/>
</g>
<!-- 2&#45;&#45;7 -->
<g id="edge14" class="edge"><title>2&#45;&#45;7</title>
<path fill="none" stroke="black" d="M133.766,-62.5414C134.675,-53.5682 138.704,-13.793 139.697,-3.98936"/>
</g>
</g>
</svg>
