<?xml version="1.0" encoding="UTF-8" standalone="no"?>
<!DOCTYPE svg PUBLIC "-//W3C//DTD SVG 1.1//EN"
 "http://www.w3.org/Graphics/SVG/1.1/DTD/svg11.dtd">
<!-- Generated by graphviz version 2.36.0 (20140111.2315)
 -->
<!-- Title: %3 Pages: 1 -->
<svg width="147pt" height="204pt"
 viewBox="0.00 0.00 147.28 203.52" xmlns="http://www.w3.org/2000/svg" xmlns:xlink="http://www.w3.org/1999/xlink">
<g id="graph0" class="graph" transform="scale(1 1) rotate(0) translate(4 199.516)">
<title>%3</title>
<!-- 0 -->
<g id="node1" class="node"><title>0</title>
<ellipse fill="black" stroke="black" cx="41.4595" cy="-124.132" rx="1.8" ry="1.8"/>
</g>
<!-- 1 -->
<g id="node2" class="node"><title>1</title>
<ellipse fill="black" stroke="black" cx="33.5646" cy="-40.9536" rx="1.8" ry="1.8"/>
</g>
<!-- 0&#45;&#45;1 -->
<g id="edge1" class="edge"><title>0&#45;&#45;1</title>
<path fill="none" stroke="black" d="M41.2643,-122.076C40.1721,-110.568 34.8273,-54.2573 33.7529,-42.9379"/>
</g>
<!-- 2 -->
<g id="node3" class="node"><title>2</title>
<ellipse fill="black" stroke="black" cx="1.8" cy="-69.6232" rx="1.8" ry="1.8"/>
</g>
<!-- 0&#45;&#45;2 -->
<g id="edge2" class="edge"><title>0&#45;&#45;2</title>
<path fill="none" stroke="black" d="M40.1399,-122.319C34.1186,-114.043 9.28059,-79.9048 3.16517,-71.4995"/>
</g>
<!-- 3 -->
<g id="node4" class="node"><title>3</title>
<ellipse fill="black" stroke="black" cx="76.5765" cy="-93.2455" rx="1.8" ry="1.8"/>
</g>
<!-- 0&#45;&#45;3 -->
<g id="edge3" class="edge"><title>0&#45;&#45;3</title>
<path fill="none" stroke="black" d="M42.9684,-122.805C48.7448,-117.725 69.4135,-99.5457 75.1123,-94.5333"/>
</g>
<!-- 5 -->
<g id="node5" class="node"><title>5</title>
<ellipse fill="black" stroke="black" cx="128.752" cy="-67.3553" rx="1.8" ry="1.8"/>
</g>
<!-- 0&#45;&#45;5 -->
<g id="edge4" class="edge"><title>0&#45;&#45;5</title>
<path fill="none" stroke="black" d="M42.9746,-123.147C53.57,-116.255 116.463,-75.348 127.195,-68.3679"/>
</g>
<!-- 7 -->
<g id="node6" class="node"><title>7</title>
<ellipse fill="black" stroke="black" cx="79.5168" cy="-193.716" rx="1.8" ry="1.8"/>
</g>
<!-- 0&#45;&#45;7 -->
<g id="edge5" class="edge"><title>0&#45;&#45;7</title>
<path fill="none" stroke="black" d="M42.4002,-125.852C47.6198,-135.396 72.9834,-181.77 78.4692,-191.801"/>
</g>
<!-- 1&#45;&#45;2 -->
<g id="edge6" class="edge"><title>1&#45;&#45;2</title>
<path fill="none" stroke="black" d="M32.1997,-42.1855C27.0698,-46.8156 8.95462,-63.1657 3.41888,-68.1621"/>
</g>
<!-- 1&#45;&#45;3 -->
<g id="edge7" class="edge"><title>1&#45;&#45;3</title>
<path fill="none" stroke="black" d="M34.9957,-42.6935C41.6426,-50.7745 69.4322,-84.5597 75.4316,-91.8535"/>
</g>
<!-- 6 -->
<g id="node7" class="node"><title>6</title>
<ellipse fill="black" stroke="black" cx="74.9594" cy="-1.8" rx="1.8" ry="1.8"/>
</g>
<!-- 1&#45;&#45;6 -->
<g id="edge8" class="edge"><title>1&#45;&#45;6</title>
<path fill="none" stroke="black" d="M34.9419,-39.6509C41.2267,-33.7064 67.1515,-9.18517 73.5345,-3.14776"/>
</g>
<!-- 2&#45;&#45;3 -->
<g id="edge9" class="edge"><title>2&#45;&#45;3</title>
<path fill="none" stroke="black" d="M3.64842,-70.2071C13.9939,-73.4753 64.6167,-89.4673 74.7927,-92.6819"/>
</g>
<!-- 2&#45;&#45;6 -->
<g id="edge10" class="edge"><title>2&#45;&#45;6</title>
<path fill="none" stroke="black" d="M3.32804,-68.2066C12.849,-59.3801 63.9433,-12.0126 73.4397,-3.20879"/>
</g>
<!-- 4 -->
<g id="node8" class="node"><title>4</title>
<ellipse fill="black" stroke="black" cx="137.477" cy="-139.895" rx="1.8" ry="1.8"/>
</g>
<!-- 3&#45;&#45;4 -->
<g id="edge11" class="edge"><title>3&#45;&#45;4</title>
<path fill="none" stroke="black" d="M78.0819,-94.3986C86.4344,-100.797 127.022,-131.887 135.801,-138.611"/>
</g>
<!-- 5&#45;&#45;6 -->
<g id="edge14" class="edge"><title>5&#45;&#45;6</title>
<path fill="none" stroke="black" d="M127.422,-65.7349C120.045,-56.744 84.1942,-13.0542 76.4401,-3.60456"/>
</g>
<!-- 4&#45;&#45;5 -->
<g id="edge12" class="edge"><title>4&#45;&#45;5</title>
<path fill="none" stroke="black" d="M137.262,-138.102C136.065,-128.153 130.25,-79.8086 128.992,-69.3522"/>
</g>
<!-- 4&#45;&#45;7 -->
<g id="edge13" class="edge"><title>4&#45;&#45;7</title>
<path fill="none" stroke="black" d="M136.045,-141.226C128.095,-148.607 89.4672,-184.477 81.1123,-192.235"/>
</g>
</g>
</svg>
