<?xml version="1.0" encoding="UTF-8" standalone="no"?>
<!DOCTYPE svg PUBLIC "-//W3C//DTD SVG 1.1//EN"
 "http://www.w3.org/Graphics/SVG/1.1/DTD/svg11.dtd">
<!-- Generated by graphviz version 2.36.0 (20140111.2315)
 -->
<!-- Title: %3 Pages: 1 -->
<svg width="210pt" height="159pt"
 viewBox="0.00 0.00 210.26 158.67" xmlns="http://www.w3.org/2000/svg" xmlns:xlink="http://www.w3.org/1999/xlink">
<g id="graph0" class="graph" transform="scale(1 1) rotate(0) translate(4 154.665)">
<title>%3</title>
<!-- 0 -->
<g id="node1" class="node"><title>0</title>
<ellipse fill="black" stroke="black" cx="86.2476" cy="-70.456" rx="1.8" ry="1.8"/>
</g>
<!-- 1 -->
<g id="node2" class="node"><title>1</title>
<ellipse fill="black" stroke="black" cx="68.5931" cy="-104.933" rx="1.8" ry="1.8"/>
</g>
<!-- 0&#45;&#45;1 -->
<g id="edge1" class="edge"><title>0&#45;&#45;1</title>
<path fill="none" stroke="black" d="M85.2984,-72.3096C82.2044,-78.352 72.4388,-97.4231 69.4626,-103.235"/>
</g>
<!-- 2 -->
<g id="node3" class="node"><title>2</title>
<ellipse fill="black" stroke="black" cx="137.592" cy="-67.5791" rx="1.8" ry="1.8"/>
</g>
<!-- 0&#45;&#45;2 -->
<g id="edge2" class="edge"><title>0&#45;&#45;2</title>
<path fill="none" stroke="black" d="M88.4538,-70.3324C96.8995,-69.8591 127.119,-68.1659 135.451,-67.699"/>
</g>
<!-- 3 -->
<g id="node4" class="node"><title>3</title>
<ellipse fill="black" stroke="black" cx="40.0988" cy="-47.3611" rx="1.8" ry="1.8"/>
</g>
<!-- 0&#45;&#45;3 -->
<g id="edge3" class="edge"><title>0&#45;&#45;3</title>
<path fill="none" stroke="black" d="M84.2646,-69.4636C76.6736,-65.6648 49.5121,-52.072 42.023,-48.3241"/>
</g>
<!-- 4 -->
<g id="node5" class="node"><title>4</title>
<ellipse fill="black" stroke="black" cx="146.931" cy="-114.255" rx="1.8" ry="1.8"/>
</g>
<!-- 0&#45;&#45;4 -->
<g id="edge4" class="edge"><title>0&#45;&#45;4</title>
<path fill="none" stroke="black" d="M87.7476,-71.5386C96.0702,-77.5456 136.513,-106.736 145.26,-113.049"/>
</g>
<!-- 5 -->
<g id="node6" class="node"><title>5</title>
<ellipse fill="black" stroke="black" cx="119.954" cy="-148.865" rx="1.8" ry="1.8"/>
</g>
<!-- 0&#45;&#45;5 -->
<g id="edge5" class="edge"><title>0&#45;&#45;5</title>
<path fill="none" stroke="black" d="M87.0808,-72.3942C91.7442,-83.2422 114.563,-136.324 119.15,-146.995"/>
</g>
<!-- 7 -->
<g id="node7" class="node"><title>7</title>
<ellipse fill="black" stroke="black" cx="1.8" cy="-102.93" rx="1.8" ry="1.8"/>
</g>
<!-- 0&#45;&#45;7 -->
<g id="edge6" class="edge"><title>0&#45;&#45;7</title>
<path fill="none" stroke="black" d="M84.4838,-71.1342C73.4937,-75.3604 14.5159,-98.0402 3.5541,-102.255"/>
</g>
<!-- 8 -->
<g id="node8" class="node"><title>8</title>
<ellipse fill="black" stroke="black" cx="68.5559" cy="-1.8" rx="1.8" ry="1.8"/>
</g>
<!-- 0&#45;&#45;8 -->
<g id="edge7" class="edge"><title>0&#45;&#45;8</title>
<path fill="none" stroke="black" d="M85.7372,-68.4753C83.1537,-58.4496 71.5436,-13.3945 69.0348,-3.6586"/>
</g>
<!-- 1&#45;&#45;2 -->
<g id="edge8" class="edge"><title>1&#45;&#45;2</title>
<path fill="none" stroke="black" d="M70.2987,-104.01C79.7619,-98.8868 125.747,-73.9918 135.693,-68.6073"/>
</g>
<!-- 1&#45;&#45;3 -->
<g id="edge9" class="edge"><title>1&#45;&#45;3</title>
<path fill="none" stroke="black" d="M67.6451,-103.018C63.3189,-94.2768 45.4734,-58.2204 41.0797,-49.3429"/>
</g>
<!-- 1&#45;&#45;4 -->
<g id="edge10" class="edge"><title>1&#45;&#45;4</title>
<path fill="none" stroke="black" d="M70.5296,-105.164C81.3677,-106.453 134.401,-112.764 145.062,-114.032"/>
</g>
<!-- 1&#45;&#45;5 -->
<g id="edge11" class="edge"><title>1&#45;&#45;5</title>
<path fill="none" stroke="black" d="M70.302,-106.395C78.1,-113.065 110.267,-140.579 118.186,-147.353"/>
</g>
<!-- 1&#45;&#45;7 -->
<g id="edge12" class="edge"><title>1&#45;&#45;7</title>
<path fill="none" stroke="black" d="M66.6662,-104.875C56.9125,-104.583 13.0799,-103.268 3.60817,-102.984"/>
</g>
<!-- 1&#45;&#45;8 -->
<g id="edge13" class="edge"><title>1&#45;&#45;8</title>
<path fill="none" stroke="black" d="M68.5923,-102.779C68.5874,-89.2417 68.561,-16.0833 68.5565,-3.60916"/>
</g>
<!-- 2&#45;&#45;3 -->
<g id="edge14" class="edge"><title>2&#45;&#45;3</title>
<path fill="none" stroke="black" d="M135.556,-67.1568C122.868,-64.5256 54.7791,-50.4055 42.1239,-47.7811"/>
</g>
<!-- 2&#45;&#45;4 -->
<g id="edge15" class="edge"><title>2&#45;&#45;4</title>
<path fill="none" stroke="black" d="M137.993,-69.5847C139.53,-77.2623 145.026,-104.734 146.541,-112.309"/>
</g>
<!-- 2&#45;&#45;5 -->
<g id="edge16" class="edge"><title>2&#45;&#45;5</title>
<path fill="none" stroke="black" d="M137.156,-69.5884C134.716,-80.8345 122.775,-135.864 120.375,-146.926"/>
</g>
<!-- 6 -->
<g id="node9" class="node"><title>6</title>
<ellipse fill="black" stroke="black" cx="200.458" cy="-124.238" rx="1.8" ry="1.8"/>
</g>
<!-- 2&#45;&#45;6 -->
<g id="edge17" class="edge"><title>2&#45;&#45;6</title>
<path fill="none" stroke="black" d="M139.146,-68.9796C147.768,-76.7504 189.665,-114.511 198.727,-122.678"/>
</g>
<!-- 3&#45;&#45;7 -->
<g id="edge18" class="edge"><title>3&#45;&#45;7</title>
<path fill="none" stroke="black" d="M38.8246,-49.21C33.0098,-57.6468 9.02395,-92.4486 3.11833,-101.017"/>
</g>
<!-- 3&#45;&#45;8 -->
<g id="edge19" class="edge"><title>3&#45;&#45;8</title>
<path fill="none" stroke="black" d="M41.3216,-45.4034C46.0025,-37.9091 62.7513,-11.0934 67.3693,-3.6997"/>
</g>
<!-- 4&#45;&#45;5 -->
<g id="edge20" class="edge"><title>4&#45;&#45;5</title>
<path fill="none" stroke="black" d="M145.772,-115.742C141.334,-121.435 125.457,-141.805 121.079,-147.422"/>
</g>
<!-- 4&#45;&#45;6 -->
<g id="edge21" class="edge"><title>4&#45;&#45;6</title>
<path fill="none" stroke="black" d="M148.712,-114.587C156.838,-116.103 190.361,-122.355 198.615,-123.895"/>
</g>
<!-- 5&#45;&#45;6 -->
<g id="edge22" class="edge"><title>5&#45;&#45;6</title>
<path fill="none" stroke="black" d="M121.944,-148.256C133.082,-144.849 187.582,-128.177 198.537,-124.826"/>
</g>
</g>
</svg>
