<?xml version="1.0" encoding="UTF-8" standalone="no"?>
<!DOCTYPE svg PUBLIC "-//W3C//DTD SVG 1.1//EN"
 "http://www.w3.org/Graphics/SVG/1.1/DTD/svg11.dtd">
<!-- Generated by graphviz version 2.36.0 (20140111.2315)
 -->
<!-- Title: %3 Pages: 1 -->
<svg width="161pt" height="155pt"
 viewBox="0.00 0.00 160.55 155.20" xmlns="http://www.w3.org/2000/svg" xmlns:xlink="http://www.w3.org/1999/xlink">
<g id="graph0" class="graph" transform="scale(1 1) rotate(0) translate(4 151.197)">
<title>%3</title>
<!-- 0 -->
<g id="node1" class="node"><title>0</title>
<ellipse fill="black" stroke="black" cx="80.7324" cy="-116.523" rx="1.8" ry="1.8"/>
</g>
<!-- 1 -->
<g id="node2" class="node"><title>1</title>
<ellipse fill="black" stroke="black" cx="74.6218" cy="-60.6211" rx="1.8" ry="1.8"/>
</g>
<!-- 0&#45;&#45;1 -->
<g id="edge1" class="edge"><title>0&#45;&#45;1</title>
<path fill="none" stroke="black" d="M80.5291,-114.663C79.6013,-106.176 75.7744,-71.1653 74.8321,-62.5454"/>
</g>
<!-- 2 -->
<g id="node3" class="node"><title>2</title>
<ellipse fill="black" stroke="black" cx="54.303" cy="-34.8133" rx="1.8" ry="1.8"/>
</g>
<!-- 0&#45;&#45;2 -->
<g id="edge2" class="edge"><title>0&#45;&#45;2</title>
<path fill="none" stroke="black" d="M80.0791,-114.503C76.4225,-103.198 58.5301,-47.882 54.9334,-36.7625"/>
</g>
<!-- 3 -->
<g id="node4" class="node"><title>3</title>
<ellipse fill="black" stroke="black" cx="128.647" cy="-75.5595" rx="1.8" ry="1.8"/>
</g>
<!-- 0&#45;&#45;3 -->
<g id="edge3" class="edge"><title>0&#45;&#45;3</title>
<path fill="none" stroke="black" d="M82.3266,-115.16C89.6012,-108.941 119.609,-83.286 126.997,-76.9695"/>
</g>
<!-- 4 -->
<g id="node5" class="node"><title>4</title>
<ellipse fill="black" stroke="black" cx="43.9834" cy="-114.052" rx="1.8" ry="1.8"/>
</g>
<!-- 0&#45;&#45;4 -->
<g id="edge4" class="edge"><title>0&#45;&#45;4</title>
<path fill="none" stroke="black" d="M78.7566,-116.39C72.3161,-115.957 51.9884,-114.59 45.7932,-114.174"/>
</g>
<!-- 5 -->
<g id="node6" class="node"><title>5</title>
<ellipse fill="black" stroke="black" cx="1.8" cy="-103.235" rx="1.8" ry="1.8"/>
</g>
<!-- 0&#45;&#45;5 -->
<g id="edge5" class="edge"><title>0&#45;&#45;5</title>
<path fill="none" stroke="black" d="M78.7812,-116.194C67.8608,-114.356 14.4245,-105.36 3.68295,-103.552"/>
</g>
<!-- 6 -->
<g id="node7" class="node"><title>6</title>
<ellipse fill="black" stroke="black" cx="4.30954" cy="-57.2388" rx="1.8" ry="1.8"/>
</g>
<!-- 0&#45;&#45;6 -->
<g id="edge6" class="edge"><title>0&#45;&#45;6</title>
<path fill="none" stroke="black" d="M79.1362,-115.285C69.1905,-107.569 15.8171,-66.1656 5.89696,-58.4702"/>
</g>
<!-- 8 -->
<g id="node8" class="node"><title>8</title>
<ellipse fill="black" stroke="black" cx="150.751" cy="-145.397" rx="1.8" ry="1.8"/>
</g>
<!-- 0&#45;&#45;8 -->
<g id="edge7" class="edge"><title>0&#45;&#45;8</title>
<path fill="none" stroke="black" d="M82.4632,-117.237C92.0661,-121.197 138.73,-140.44 148.823,-144.603"/>
</g>
<!-- 1&#45;&#45;2 -->
<g id="edge8" class="edge"><title>1&#45;&#45;2</title>
<path fill="none" stroke="black" d="M73.2886,-58.9278C69.5452,-54.1731 58.9816,-40.7559 55.461,-36.2841"/>
</g>
<!-- 1&#45;&#45;3 -->
<g id="edge9" class="edge"><title>1&#45;&#45;3</title>
<path fill="none" stroke="black" d="M76.4193,-61.1181C84.6217,-63.3862 118.456,-72.7418 126.787,-75.0452"/>
</g>
<!-- 1&#45;&#45;4 -->
<g id="edge10" class="edge"><title>1&#45;&#45;4</title>
<path fill="none" stroke="black" d="M73.6024,-62.3989C68.9507,-70.5111 49.7624,-103.974 45.038,-112.213"/>
</g>
<!-- 1&#45;&#45;5 -->
<g id="edge11" class="edge"><title>1&#45;&#45;5</title>
<path fill="none" stroke="black" d="M72.8217,-61.6745C62.7467,-67.5702 13.4472,-96.419 3.53718,-102.218"/>
</g>
<!-- 1&#45;&#45;6 -->
<g id="edge12" class="edge"><title>1&#45;&#45;6</title>
<path fill="none" stroke="black" d="M72.5933,-60.5235C62.3258,-60.0296 16.1837,-57.81 6.21298,-57.3304"/>
</g>
<!-- 7 -->
<g id="node9" class="node"><title>7</title>
<ellipse fill="black" stroke="black" cx="121.239" cy="-1.8" rx="1.8" ry="1.8"/>
</g>
<!-- 1&#45;&#45;7 -->
<g id="edge13" class="edge"><title>1&#45;&#45;7</title>
<path fill="none" stroke="black" d="M75.7741,-59.1671C82.1677,-51.0999 113.236,-11.8981 119.956,-3.41918"/>
</g>
<!-- 2&#45;&#45;3 -->
<g id="edge14" class="edge"><title>2&#45;&#45;3</title>
<path fill="none" stroke="black" d="M56.1407,-35.8205C66.4263,-41.4578 116.756,-69.0425 126.873,-74.5874"/>
</g>
<!-- 2&#45;&#45;4 -->
<g id="edge15" class="edge"><title>2&#45;&#45;4</title>
<path fill="none" stroke="black" d="M54.0479,-36.772C52.6201,-47.7349 45.6339,-101.379 44.2296,-112.162"/>
</g>
<!-- 2&#45;&#45;5 -->
<g id="edge16" class="edge"><title>2&#45;&#45;5</title>
<path fill="none" stroke="black" d="M53.2064,-36.2424C46.4914,-44.9933 10.9613,-91.2958 3.26939,-101.32"/>
</g>
<!-- 2&#45;&#45;6 -->
<g id="edge17" class="edge"><title>2&#45;&#45;6</title>
<path fill="none" stroke="black" d="M52.6396,-35.5594C45.0493,-38.9642 13.7393,-53.0089 6.03043,-56.4669"/>
</g>
<!-- 2&#45;&#45;7 -->
<g id="edge18" class="edge"><title>2&#45;&#45;7</title>
<path fill="none" stroke="black" d="M55.9576,-33.9972C65.1378,-29.4695 109.748,-7.46753 119.397,-2.70877"/>
</g>
<!-- 3&#45;&#45;4 -->
<g id="edge19" class="edge"><title>3&#45;&#45;4</title>
<path fill="none" stroke="black" d="M126.878,-76.3634C115.86,-81.3729 56.7317,-108.256 45.742,-113.253"/>
</g>
<!-- 3&#45;&#45;8 -->
<g id="edge21" class="edge"><title>3&#45;&#45;8</title>
<path fill="none" stroke="black" d="M129.193,-77.2858C132.225,-86.864 146.956,-133.408 150.142,-143.475"/>
</g>
<!-- 3&#45;&#45;7 -->
<g id="edge20" class="edge"><title>3&#45;&#45;7</title>
<path fill="none" stroke="black" d="M128.464,-73.7362C127.448,-63.6201 122.511,-14.4626 121.443,-3.83039"/>
</g>
<!-- 4&#45;&#45;5 -->
<g id="edge22" class="edge"><title>4&#45;&#45;5</title>
<path fill="none" stroke="black" d="M42.1708,-113.587C35.2321,-111.808 10.4044,-105.441 3.55886,-103.686"/>
</g>
<!-- 4&#45;&#45;6 -->
<g id="edge23" class="edge"><title>4&#45;&#45;6</title>
<path fill="none" stroke="black" d="M42.6634,-112.162C36.5323,-103.382 10.8994,-66.6756 5.3656,-58.7511"/>
</g>
</g>
</svg>
