<?xml version="1.0" encoding="UTF-8" standalone="no"?>
<!DOCTYPE svg PUBLIC "-//W3C//DTD SVG 1.1//EN"
 "http://www.w3.org/Graphics/SVG/1.1/DTD/svg11.dtd">
<!-- Generated by graphviz version 2.36.0 (20140111.2315)
 -->
<!-- Title: %3 Pages: 1 -->
<svg width="155pt" height="186pt"
 viewBox="0.00 0.00 155.43 185.91" xmlns="http://www.w3.org/2000/svg" xmlns:xlink="http://www.w3.org/1999/xlink">
<g id="graph0" class="graph" transform="scale(1 1) rotate(0) translate(4 181.906)">
<title>%3</title>
<!-- 0 -->
<g id="node1" class="node"><title>0</title>
<ellipse fill="black" stroke="black" cx="90.0266" cy="-94.6402" rx="1.8" ry="1.8"/>
</g>
<!-- 1 -->
<g id="node2" class="node"><title>1</title>
<ellipse fill="black" stroke="black" cx="135.379" cy="-118.68" rx="1.8" ry="1.8"/>
</g>
<!-- 0&#45;&#45;1 -->
<g id="edge1" class="edge"><title>0&#45;&#45;1</title>
<path fill="none" stroke="black" d="M91.9754,-95.6732C99.4353,-99.6275 126.128,-113.776 133.488,-117.678"/>
</g>
<!-- 2 -->
<g id="node3" class="node"><title>2</title>
<ellipse fill="black" stroke="black" cx="60.0215" cy="-48.8659" rx="1.8" ry="1.8"/>
</g>
<!-- 0&#45;&#45;2 -->
<g id="edge2" class="edge"><title>0&#45;&#45;2</title>
<path fill="none" stroke="black" d="M89.0283,-93.1172C84.4728,-86.1675 65.6811,-57.4999 61.0543,-50.4416"/>
</g>
<!-- 3 -->
<g id="node4" class="node"><title>3</title>
<ellipse fill="black" stroke="black" cx="38.2903" cy="-106.435" rx="1.8" ry="1.8"/>
</g>
<!-- 0&#45;&#45;3 -->
<g id="edge3" class="edge"><title>0&#45;&#45;3</title>
<path fill="none" stroke="black" d="M87.8036,-95.147C79.2935,-97.0871 48.8433,-104.029 40.4474,-105.943"/>
</g>
<!-- 4 -->
<g id="node5" class="node"><title>4</title>
<ellipse fill="black" stroke="black" cx="145.633" cy="-169.128" rx="1.8" ry="1.8"/>
</g>
<!-- 0&#45;&#45;4 -->
<g id="edge4" class="edge"><title>0&#45;&#45;4</title>
<path fill="none" stroke="black" d="M91.1881,-96.196C98.4247,-105.89 137.26,-157.912 144.478,-167.581"/>
</g>
<!-- 5 -->
<g id="node6" class="node"><title>5</title>
<ellipse fill="black" stroke="black" cx="86.3227" cy="-176.106" rx="1.8" ry="1.8"/>
</g>
<!-- 0&#45;&#45;5 -->
<g id="edge5" class="edge"><title>0&#45;&#45;5</title>
<path fill="none" stroke="black" d="M89.9351,-96.654C89.4226,-107.925 86.9151,-163.076 86.411,-174.163"/>
</g>
<!-- 6 -->
<g id="node7" class="node"><title>6</title>
<ellipse fill="black" stroke="black" cx="1.8" cy="-59.1994" rx="1.8" ry="1.8"/>
</g>
<!-- 0&#45;&#45;6 -->
<g id="edge6" class="edge"><title>0&#45;&#45;6</title>
<path fill="none" stroke="black" d="M88.1839,-93.9C76.702,-89.2877 15.0849,-64.536 3.6326,-59.9355"/>
</g>
<!-- 7 -->
<g id="node8" class="node"><title>7</title>
<ellipse fill="black" stroke="black" cx="138.019" cy="-58.3215" rx="1.8" ry="1.8"/>
</g>
<!-- 0&#45;&#45;7 -->
<g id="edge7" class="edge"><title>0&#45;&#45;7</title>
<path fill="none" stroke="black" d="M91.6234,-93.4318C98.9099,-87.9177 128.966,-65.172 136.367,-59.5717"/>
</g>
<!-- 8 -->
<g id="node9" class="node"><title>8</title>
<ellipse fill="black" stroke="black" cx="123.958" cy="-1.8" rx="1.8" ry="1.8"/>
</g>
<!-- 0&#45;&#45;8 -->
<g id="edge8" class="edge"><title>0&#45;&#45;8</title>
<path fill="none" stroke="black" d="M90.7353,-92.7011C95.1512,-80.6188 118.849,-15.7796 123.254,-3.72843"/>
</g>
<!-- 1&#45;&#45;2 -->
<g id="edge9" class="edge"><title>1&#45;&#45;2</title>
<path fill="none" stroke="black" d="M133.805,-117.222C123.998,-108.136 71.3686,-59.3783 61.5868,-50.3161"/>
</g>
<!-- 1&#45;&#45;4 -->
<g id="edge10" class="edge"><title>1&#45;&#45;4</title>
<path fill="none" stroke="black" d="M135.819,-120.848C137.506,-129.146 143.541,-158.838 145.205,-167.024"/>
</g>
<!-- 1&#45;&#45;5 -->
<g id="edge11" class="edge"><title>1&#45;&#45;5</title>
<path fill="none" stroke="black" d="M134.166,-120.1C127.438,-127.975 94.7443,-166.248 87.6731,-174.525"/>
</g>
<!-- 2&#45;&#45;3 -->
<g id="edge12" class="edge"><title>2&#45;&#45;3</title>
<path fill="none" stroke="black" d="M59.2985,-50.7814C55.9991,-59.5218 42.3892,-95.576 39.0383,-104.453"/>
</g>
<!-- 2&#45;&#45;6 -->
<g id="edge13" class="edge"><title>2&#45;&#45;6</title>
<path fill="none" stroke="black" d="M58.0844,-49.2097C49.2448,-50.7786 12.7818,-57.2503 3.80412,-58.8437"/>
</g>
<!-- 3&#45;&#45;7 -->
<g id="edge14" class="edge"><title>3&#45;&#45;7</title>
<path fill="none" stroke="black" d="M40.0212,-105.6C52.1261,-99.7597 123.98,-65.0946 136.24,-59.1796"/>
</g>
<!-- 4&#45;&#45;5 -->
<g id="edge15" class="edge"><title>4&#45;&#45;5</title>
<path fill="none" stroke="black" d="M143.66,-169.36C134.655,-170.42 97.5098,-174.79 88.3643,-175.866"/>
</g>
</g>
</svg>
