<?xml version="1.0" encoding="UTF-8" standalone="no"?>
<!DOCTYPE svg PUBLIC "-//W3C//DTD SVG 1.1//EN"
 "http://www.w3.org/Graphics/SVG/1.1/DTD/svg11.dtd">
<!-- Generated by graphviz version 2.36.0 (20140111.2315)
 -->
<!-- Title: %3 Pages: 1 -->
<svg width="144pt" height="215pt"
 viewBox="0.00 0.00 144.14 214.55" xmlns="http://www.w3.org/2000/svg" xmlns:xlink="http://www.w3.org/1999/xlink">
<g id="graph0" class="graph" transform="scale(1 1) rotate(0) translate(4 210.552)">
<title>%3</title>
<!-- 0 -->
<g id="node1" class="node"><title>0</title>
<ellipse fill="black" stroke="black" cx="58.9238" cy="-75.8139" rx="1.8" ry="1.8"/>
</g>
<!-- 1 -->
<g id="node2" class="node"><title>1</title>
<ellipse fill="black" stroke="black" cx="89.7952" cy="-63.6488" rx="1.8" ry="1.8"/>
</g>
<!-- 0&#45;&#45;1 -->
<g id="edge1" class="edge"><title>0&#45;&#45;1</title>
<path fill="none" stroke="black" d="M60.9494,-75.0157C66.637,-72.7745 82.6867,-66.45 88.0357,-64.3422"/>
</g>
<!-- 2 -->
<g id="node3" class="node"><title>2</title>
<ellipse fill="black" stroke="black" cx="69.0568" cy="-1.8" rx="1.8" ry="1.8"/>
</g>
<!-- 0&#45;&#45;2 -->
<g id="edge2" class="edge"><title>0&#45;&#45;2</title>
<path fill="none" stroke="black" d="M59.1743,-73.9844C60.564,-63.8334 67.3172,-14.5063 68.7779,-3.8374"/>
</g>
<!-- 3 -->
<g id="node4" class="node"><title>3</title>
<ellipse fill="black" stroke="black" cx="66.0837" cy="-146.343" rx="1.8" ry="1.8"/>
</g>
<!-- 0&#45;&#45;3 -->
<g id="edge3" class="edge"><title>0&#45;&#45;3</title>
<path fill="none" stroke="black" d="M59.1304,-77.8487C60.1759,-88.1478 64.8746,-134.432 65.8899,-144.434"/>
</g>
<!-- 4 -->
<g id="node5" class="node"><title>4</title>
<ellipse fill="black" stroke="black" cx="123.248" cy="-128.615" rx="1.8" ry="1.8"/>
</g>
<!-- 0&#45;&#45;4 -->
<g id="edge4" class="edge"><title>0&#45;&#45;4</title>
<path fill="none" stroke="black" d="M60.5139,-77.1191C69.3359,-84.3608 112.206,-119.551 121.478,-127.162"/>
</g>
<!-- 5 -->
<g id="node6" class="node"><title>5</title>
<ellipse fill="black" stroke="black" cx="1.8" cy="-57.8923" rx="1.8" ry="1.8"/>
</g>
<!-- 0&#45;&#45;5 -->
<g id="edge5" class="edge"><title>0&#45;&#45;5</title>
<path fill="none" stroke="black" d="M57.0232,-75.2176C48.3503,-72.4967 12.5747,-61.2727 3.76633,-58.5092"/>
</g>
<!-- 6 -->
<g id="node7" class="node"><title>6</title>
<ellipse fill="black" stroke="black" cx="18.2302" cy="-9.25227" rx="1.8" ry="1.8"/>
</g>
<!-- 0&#45;&#45;6 -->
<g id="edge6" class="edge"><title>0&#45;&#45;6</title>
<path fill="none" stroke="black" d="M57.9179,-74.1686C52.3368,-65.0397 25.2162,-20.6792 19.3503,-11.0845"/>
</g>
<!-- 7 -->
<g id="node8" class="node"><title>7</title>
<ellipse fill="black" stroke="black" cx="134.335" cy="-16.6905" rx="1.8" ry="1.8"/>
</g>
<!-- 0&#45;&#45;7 -->
<g id="edge7" class="edge"><title>0&#45;&#45;7</title>
<path fill="none" stroke="black" d="M60.4989,-74.5791C70.3129,-66.8847 122.98,-25.5931 132.769,-17.9185"/>
</g>
<!-- 1&#45;&#45;2 -->
<g id="edge8" class="edge"><title>1&#45;&#45;2</title>
<path fill="none" stroke="black" d="M89.1969,-61.8645C86.2216,-52.9914 73.0333,-13.6593 69.7827,-3.96497"/>
</g>
<!-- 1&#45;&#45;3 -->
<g id="edge9" class="edge"><title>1&#45;&#45;3</title>
<path fill="none" stroke="black" d="M89.209,-65.693C85.9285,-77.1338 69.8762,-133.117 66.6494,-144.37"/>
</g>
<!-- 1&#45;&#45;4 -->
<g id="edge10" class="edge"><title>1&#45;&#45;4</title>
<path fill="none" stroke="black" d="M90.6221,-65.2548C95.2102,-74.1648 117.505,-117.462 122.328,-126.827"/>
</g>
<!-- 1&#45;&#45;5 -->
<g id="edge11" class="edge"><title>1&#45;&#45;5</title>
<path fill="none" stroke="black" d="M87.9573,-63.5286C76.5055,-62.7794 15.05,-58.7591 3.62779,-58.0119"/>
</g>
<!-- 1&#45;&#45;6 -->
<g id="edge12" class="edge"><title>1&#45;&#45;6</title>
<path fill="none" stroke="black" d="M88.3004,-62.5127C78.9869,-55.4335 29.0062,-17.4431 19.7167,-10.3822"/>
</g>
<!-- 1&#45;&#45;7 -->
<g id="edge13" class="edge"><title>1&#45;&#45;7</title>
<path fill="none" stroke="black" d="M91.2771,-62.0864C98.0394,-54.9569 125.934,-25.5478 132.802,-18.3069"/>
</g>
<!-- 2&#45;&#45;5 -->
<g id="edge14" class="edge"><title>2&#45;&#45;5</title>
<path fill="none" stroke="black" d="M67.3943,-3.18656C58.1701,-10.8796 13.3463,-48.2627 3.65139,-56.3482"/>
</g>
<!-- 2&#45;&#45;6 -->
<g id="edge15" class="edge"><title>2&#45;&#45;6</title>
<path fill="none" stroke="black" d="M66.8728,-2.12021C58.5124,-3.34604 28.5976,-7.73218 20.3494,-8.94154"/>
</g>
<!-- 2&#45;&#45;7 -->
<g id="edge16" class="edge"><title>2&#45;&#45;7</title>
<path fill="none" stroke="black" d="M70.9401,-2.22958C80.4725,-4.404 123.311,-14.1758 132.568,-16.2874"/>
</g>
<!-- 3&#45;&#45;4 -->
<g id="edge17" class="edge"><title>3&#45;&#45;4</title>
<path fill="none" stroke="black" d="M67.9857,-145.753C76.6648,-143.062 112.466,-131.959 121.281,-129.226"/>
</g>
<!-- 8 -->
<g id="node9" class="node"><title>8</title>
<ellipse fill="black" stroke="black" cx="114.387" cy="-204.752" rx="1.8" ry="1.8"/>
</g>
<!-- 3&#45;&#45;8 -->
<g id="edge18" class="edge"><title>3&#45;&#45;8</title>
<path fill="none" stroke="black" d="M67.2778,-147.787C73.9025,-155.797 106.095,-194.725 113.057,-203.144"/>
</g>
<!-- 4&#45;&#45;8 -->
<g id="edge19" class="edge"><title>4&#45;&#45;8</title>
<path fill="none" stroke="black" d="M123.029,-130.497C121.803,-141.031 115.804,-192.575 114.598,-202.936"/>
</g>
</g>
</svg>
