<?xml version="1.0" encoding="UTF-8" standalone="no"?>
<!DOCTYPE svg PUBLIC "-//W3C//DTD SVG 1.1//EN"
 "http://www.w3.org/Graphics/SVG/1.1/DTD/svg11.dtd">
<!-- Generated by graphviz version 2.36.0 (20140111.2315)
 -->
<!-- Title: %3 Pages: 1 -->
<svg width="163pt" height="140pt"
 viewBox="0.00 0.00 162.98 139.77" xmlns="http://www.w3.org/2000/svg" xmlns:xlink="http://www.w3.org/1999/xlink">
<g id="graph0" class="graph" transform="scale(1 1) rotate(0) translate(4 135.771)">
<title>%3</title>
<!-- 0 -->
<g id="node1" class="node"><title>0</title>
<ellipse fill="black" stroke="black" cx="68.7679" cy="-68.1696" rx="1.8" ry="1.8"/>
</g>
<!-- 2 -->
<g id="node2" class="node"><title>2</title>
<ellipse fill="black" stroke="black" cx="129.84" cy="-90.9613" rx="1.8" ry="1.8"/>
</g>
<!-- 0&#45;&#45;2 -->
<g id="edge1" class="edge"><title>0&#45;&#45;2</title>
<path fill="none" stroke="black" d="M70.5298,-68.8272C79.2916,-72.097 118.13,-86.5911 127.703,-90.1635"/>
</g>
<!-- 3 -->
<g id="node3" class="node"><title>3</title>
<ellipse fill="black" stroke="black" cx="120.21" cy="-1.8" rx="1.8" ry="1.8"/>
</g>
<!-- 0&#45;&#45;3 -->
<g id="edge2" class="edge"><title>0&#45;&#45;3</title>
<path fill="none" stroke="black" d="M70.0395,-66.529C77.0948,-57.4265 111.379,-13.194 118.794,-3.62697"/>
</g>
<!-- 4 -->
<g id="node4" class="node"><title>4</title>
<ellipse fill="black" stroke="black" cx="70.0461" cy="-129.971" rx="1.8" ry="1.8"/>
</g>
<!-- 0&#45;&#45;4 -->
<g id="edge3" class="edge"><title>0&#45;&#45;4</title>
<path fill="none" stroke="black" d="M68.8104,-70.2259C69.0045,-79.609 69.805,-118.314 70.0021,-127.844"/>
</g>
<!-- 5 -->
<g id="node5" class="node"><title>5</title>
<ellipse fill="black" stroke="black" cx="153.176" cy="-43.1647" rx="1.8" ry="1.8"/>
</g>
<!-- 0&#45;&#45;5 -->
<g id="edge4" class="edge"><title>0&#45;&#45;5</title>
<path fill="none" stroke="black" d="M70.5309,-67.6474C81.5159,-64.3932 140.466,-46.9299 151.423,-43.6841"/>
</g>
<!-- 6 -->
<g id="node6" class="node"><title>6</title>
<ellipse fill="black" stroke="black" cx="1.8" cy="-104.894" rx="1.8" ry="1.8"/>
</g>
<!-- 0&#45;&#45;6 -->
<g id="edge5" class="edge"><title>0&#45;&#45;6</title>
<path fill="none" stroke="black" d="M67.1125,-69.0774C57.9279,-74.1141 13.2967,-98.5892 3.64344,-103.883"/>
</g>
<!-- 7 -->
<g id="node7" class="node"><title>7</title>
<ellipse fill="black" stroke="black" cx="2.50621" cy="-31.3115" rx="1.8" ry="1.8"/>
</g>
<!-- 0&#45;&#45;7 -->
<g id="edge6" class="edge"><title>0&#45;&#45;7</title>
<path fill="none" stroke="black" d="M67.13,-67.2585C58.0423,-62.2035 13.8816,-37.6391 4.33021,-32.3261"/>
</g>
<!-- 2&#45;&#45;3 -->
<g id="edge12" class="edge"><title>2&#45;&#45;3</title>
<path fill="none" stroke="black" d="M129.639,-89.099C128.386,-77.4955 121.66,-15.2256 120.41,-3.65201"/>
</g>
<!-- 2&#45;&#45;4 -->
<g id="edge13" class="edge"><title>2&#45;&#45;4</title>
<path fill="none" stroke="black" d="M128.115,-92.0867C119.384,-97.7833 80.144,-123.383 71.6648,-128.915"/>
</g>
<!-- 2&#45;&#45;5 -->
<g id="edge14" class="edge"><title>2&#45;&#45;5</title>
<path fill="none" stroke="black" d="M130.843,-88.9075C134.682,-81.0455 148.416,-52.9141 152.203,-45.1576"/>
</g>
<!-- 3&#45;&#45;5 -->
<g id="edge15" class="edge"><title>3&#45;&#45;5</title>
<path fill="none" stroke="black" d="M121.627,-3.57739C127.049,-10.3815 146.452,-34.7273 151.802,-41.44"/>
</g>
<!-- 4&#45;&#45;6 -->
<g id="edge16" class="edge"><title>4&#45;&#45;6</title>
<path fill="none" stroke="black" d="M68.0772,-129.248C58.1114,-125.586 13.3253,-109.129 3.6475,-105.573"/>
</g>
<!-- 6&#45;&#45;7 -->
<g id="edge17" class="edge"><title>6&#45;&#45;7</title>
<path fill="none" stroke="black" d="M1.81746,-103.075C1.91431,-92.9832 2.38497,-43.9437 2.48677,-33.3371"/>
</g>
<!-- 1 -->
<g id="node8" class="node"><title>1</title>
<ellipse fill="black" stroke="black" cx="78.9971" cy="-37.3433" rx="1.8" ry="1.8"/>
</g>
<!-- 1&#45;&#45;2 -->
<g id="edge7" class="edge"><title>1&#45;&#45;2</title>
<path fill="none" stroke="black" d="M80.2539,-38.6687C87.227,-46.0223 121.112,-81.7565 128.441,-89.4853"/>
</g>
<!-- 1&#45;&#45;3 -->
<g id="edge8" class="edge"><title>1&#45;&#45;3</title>
<path fill="none" stroke="black" d="M80.3684,-36.1607C86.6256,-30.7643 112.437,-8.50419 118.792,-3.02348"/>
</g>
<!-- 1&#45;&#45;4 -->
<g id="edge9" class="edge"><title>1&#45;&#45;4</title>
<path fill="none" stroke="black" d="M78.8102,-39.2779C77.6453,-51.3326 71.3939,-116.024 70.232,-128.047"/>
</g>
<!-- 1&#45;&#45;5 -->
<g id="edge10" class="edge"><title>1&#45;&#45;5</title>
<path fill="none" stroke="black" d="M80.8308,-37.4872C91.0044,-38.2856 140.442,-42.1653 151.134,-43.0045"/>
</g>
<!-- 1&#45;&#45;7 -->
<g id="edge11" class="edge"><title>1&#45;&#45;7</title>
<path fill="none" stroke="black" d="M77.1063,-37.1942C66.5237,-36.3597 14.7403,-32.2763 4.33091,-31.4554"/>
</g>
</g>
</svg>
