<?xml version="1.0" encoding="UTF-8" standalone="no"?>
<!DOCTYPE svg PUBLIC "-//W3C//DTD SVG 1.1//EN"
 "http://www.w3.org/Graphics/SVG/1.1/DTD/svg11.dtd">
<!-- Generated by graphviz version 2.36.0 (20140111.2315)
 -->
<!-- Title: %3 Pages: 1 -->
<svg width="167pt" height="179pt"
 viewBox="0.00 0.00 166.88 179.46" xmlns="http://www.w3.org/2000/svg" xmlns:xlink="http://www.w3.org/1999/xlink">
<g id="graph0" class="graph" transform="scale(1 1) rotate(0) translate(4 175.461)">
<title>%3</title>
<!-- 0 -->
<g id="node1" class="node"><title>0</title>
<ellipse fill="black" stroke="black" cx="35.2152" cy="-91.6077" rx="1.8" ry="1.8"/>
</g>
<!-- 1 -->
<g id="node2" class="node"><title>1</title>
<ellipse fill="black" stroke="black" cx="76.5749" cy="-90.3451" rx="1.8" ry="1.8"/>
</g>
<!-- 0&#45;&#45;1 -->
<g id="edge1" class="edge"><title>0&#45;&#45;1</title>
<path fill="none" stroke="black" d="M37.4389,-91.5398C44.6874,-91.3185 67.5656,-90.6201 74.538,-90.4073"/>
</g>
<!-- 2 -->
<g id="node3" class="node"><title>2</title>
<ellipse fill="black" stroke="black" cx="97.992" cy="-126.504" rx="1.8" ry="1.8"/>
</g>
<!-- 0&#45;&#45;2 -->
<g id="edge2" class="edge"><title>0&#45;&#45;2</title>
<path fill="none" stroke="black" d="M37.0263,-92.6144C46.1934,-97.7101 87.3904,-120.61 96.2926,-125.559"/>
</g>
<!-- 3 -->
<g id="node4" class="node"><title>3</title>
<ellipse fill="black" stroke="black" cx="42.8422" cy="-166.258" rx="1.8" ry="1.8"/>
</g>
<!-- 0&#45;&#45;3 -->
<g id="edge3" class="edge"><title>0&#45;&#45;3</title>
<path fill="none" stroke="black" d="M35.4038,-93.453C36.4498,-103.691 41.5328,-153.443 42.6322,-164.203"/>
</g>
<!-- 4 -->
<g id="node5" class="node"><title>4</title>
<ellipse fill="black" stroke="black" cx="95.6858" cy="-169.661" rx="1.8" ry="1.8"/>
</g>
<!-- 0&#45;&#45;4 -->
<g id="edge4" class="edge"><title>0&#45;&#45;4</title>
<path fill="none" stroke="black" d="M36.4783,-93.2379C44.3479,-103.396 86.5803,-157.908 94.4297,-168.04"/>
</g>
<!-- 5 -->
<g id="node6" class="node"><title>5</title>
<ellipse fill="black" stroke="black" cx="1.8" cy="-132.197" rx="1.8" ry="1.8"/>
</g>
<!-- 0&#45;&#45;5 -->
<g id="edge5" class="edge"><title>0&#45;&#45;5</title>
<path fill="none" stroke="black" d="M33.7794,-93.3517C28.283,-100.028 8.61593,-123.917 3.19327,-130.504"/>
</g>
<!-- 6 -->
<g id="node7" class="node"><title>6</title>
<ellipse fill="black" stroke="black" cx="5.60546" cy="-36.1504" rx="1.8" ry="1.8"/>
</g>
<!-- 0&#45;&#45;6 -->
<g id="edge6" class="edge"><title>0&#45;&#45;6</title>
<path fill="none" stroke="black" d="M34.2301,-89.7625C29.7345,-81.3426 11.1905,-46.6107 6.6247,-38.0593"/>
</g>
<!-- 7 -->
<g id="node8" class="node"><title>7</title>
<ellipse fill="black" stroke="black" cx="49.9034" cy="-1.8" rx="1.8" ry="1.8"/>
</g>
<!-- 0&#45;&#45;7 -->
<g id="edge7" class="edge"><title>0&#45;&#45;7</title>
<path fill="none" stroke="black" d="M35.522,-89.7319C37.4335,-78.0443 47.6917,-15.323 49.5983,-3.66544"/>
</g>
<!-- 1&#45;&#45;2 -->
<g id="edge8" class="edge"><title>1&#45;&#45;2</title>
<path fill="none" stroke="black" d="M77.4952,-91.8988C80.954,-97.7383 93.1681,-118.359 96.9005,-124.661"/>
</g>
<!-- 1&#45;&#45;3 -->
<g id="edge9" class="edge"><title>1&#45;&#45;3</title>
<path fill="none" stroke="black" d="M75.7411,-92.2216C71.0741,-102.724 48.2374,-154.116 43.6469,-164.447"/>
</g>
<!-- 1&#45;&#45;4 -->
<g id="edge10" class="edge"><title>1&#45;&#45;4</title>
<path fill="none" stroke="black" d="M77.0473,-92.3057C79.6914,-103.279 92.6292,-156.975 95.2299,-167.769"/>
</g>
<!-- 1&#45;&#45;5 -->
<g id="edge11" class="edge"><title>1&#45;&#45;5</title>
<path fill="none" stroke="black" d="M74.7266,-91.3796C64.3813,-97.1699 13.7596,-125.503 3.58377,-131.198"/>
</g>
<!-- 1&#45;&#45;6 -->
<g id="edge12" class="edge"><title>1&#45;&#45;6</title>
<path fill="none" stroke="black" d="M75.0926,-89.2132C65.8566,-82.1602 16.2918,-44.3108 7.07961,-37.2761"/>
</g>
<!-- 8 -->
<g id="node9" class="node"><title>8</title>
<ellipse fill="black" stroke="black" cx="157.082" cy="-81.9757" rx="1.8" ry="1.8"/>
</g>
<!-- 1&#45;&#45;8 -->
<g id="edge13" class="edge"><title>1&#45;&#45;8</title>
<path fill="none" stroke="black" d="M78.565,-90.1382C89.7033,-88.9803 144.206,-83.3143 155.162,-82.1754"/>
</g>
<!-- 2&#45;&#45;3 -->
<g id="edge14" class="edge"><title>2&#45;&#45;3</title>
<path fill="none" stroke="black" d="M96.1571,-127.826C87.6344,-133.97 52.0027,-159.655 44.3102,-165.2"/>
</g>
<!-- 2&#45;&#45;4 -->
<g id="edge15" class="edge"><title>2&#45;&#45;4</title>
<path fill="none" stroke="black" d="M97.8929,-128.358C97.5136,-135.457 96.1562,-160.858 95.7819,-167.861"/>
</g>
<!-- 2&#45;&#45;5 -->
<g id="edge16" class="edge"><title>2&#45;&#45;5</title>
<path fill="none" stroke="black" d="M95.9829,-126.622C83.4644,-127.363 16.2843,-131.339 3.79805,-132.078"/>
</g>
<!-- 2&#45;&#45;8 -->
<g id="edge17" class="edge"><title>2&#45;&#45;8</title>
<path fill="none" stroke="black" d="M99.4527,-125.403C107.557,-119.296 146.938,-89.62 155.455,-83.2014"/>
</g>
<!-- 3&#45;&#45;4 -->
<g id="edge18" class="edge"><title>3&#45;&#45;4</title>
<path fill="none" stroke="black" d="M45.1128,-166.404C53.805,-166.964 84.9069,-168.967 93.4824,-169.519"/>
</g>
<!-- 6&#45;&#45;7 -->
<g id="edge19" class="edge"><title>6&#45;&#45;7</title>
<path fill="none" stroke="black" d="M7.07933,-35.0075C13.8049,-29.7922 41.5479,-8.27918 48.3785,-2.98242"/>
</g>
</g>
</svg>
