<?xml version="1.0" encoding="UTF-8" standalone="no"?>
<!DOCTYPE svg PUBLIC "-//W3C//DTD SVG 1.1//EN"
 "http://www.w3.org/Graphics/SVG/1.1/DTD/svg11.dtd">
<!-- Generated by graphviz version 2.36.0 (20140111.2315)
 -->
<!-- Title: %3 Pages: 1 -->
<svg width="172pt" height="194pt"
 viewBox="0.00 0.00 172.25 193.68" xmlns="http://www.w3.org/2000/svg" xmlns:xlink="http://www.w3.org/1999/xlink">
<g id="graph0" class="graph" transform="scale(1 1) rotate(0) translate(4 189.682)">
<title>%3</title>
<!-- 0 -->
<g id="node1" class="node"><title>0</title>
<ellipse fill="black" stroke="black" cx="79.1525" cy="-106.325" rx="1.8" ry="1.8"/>
</g>
<!-- 3 -->
<g id="node2" class="node"><title>3</title>
<ellipse fill="black" stroke="black" cx="93.4519" cy="-51.9956" rx="1.8" ry="1.8"/>
</g>
<!-- 0&#45;&#45;3 -->
<g id="edge1" class="edge"><title>0&#45;&#45;3</title>
<path fill="none" stroke="black" d="M79.6282,-104.518C81.7993,-96.2692 90.7548,-62.2434 92.9597,-53.8658"/>
</g>
<!-- 4 -->
<g id="node3" class="node"><title>4</title>
<ellipse fill="black" stroke="black" cx="83.8089" cy="-8.17004" rx="1.8" ry="1.8"/>
</g>
<!-- 0&#45;&#45;4 -->
<g id="edge2" class="edge"><title>0&#45;&#45;4</title>
<path fill="none" stroke="black" d="M79.2497,-104.275C79.8557,-91.5014 83.1077,-22.95 83.7122,-10.2089"/>
</g>
<!-- 5 -->
<g id="node4" class="node"><title>5</title>
<ellipse fill="black" stroke="black" cx="1.8" cy="-76.403" rx="1.8" ry="1.8"/>
</g>
<!-- 0&#45;&#45;5 -->
<g id="edge3" class="edge"><title>0&#45;&#45;5</title>
<path fill="none" stroke="black" d="M77.2404,-105.586C66.5385,-101.446 14.1718,-81.1888 3.64526,-77.1168"/>
</g>
<!-- 6 -->
<g id="node5" class="node"><title>6</title>
<ellipse fill="black" stroke="black" cx="162.448" cy="-85.313" rx="1.8" ry="1.8"/>
</g>
<!-- 0&#45;&#45;6 -->
<g id="edge4" class="edge"><title>0&#45;&#45;6</title>
<path fill="none" stroke="black" d="M81.2115,-105.806C92.7355,-102.899 149.125,-88.6738 160.46,-85.8142"/>
</g>
<!-- 7 -->
<g id="node6" class="node"><title>7</title>
<ellipse fill="black" stroke="black" cx="75.0834" cy="-183.882" rx="1.8" ry="1.8"/>
</g>
<!-- 0&#45;&#45;7 -->
<g id="edge5" class="edge"><title>0&#45;&#45;7</title>
<path fill="none" stroke="black" d="M79.0519,-108.243C78.4889,-118.973 75.7342,-171.477 75.1805,-182.032"/>
</g>
<!-- 3&#45;&#45;4 -->
<g id="edge13" class="edge"><title>3&#45;&#45;4</title>
<path fill="none" stroke="black" d="M93.0376,-50.1125C91.4514,-42.9036 85.7758,-17.1094 84.211,-9.99737"/>
</g>
<!-- 1 -->
<g id="node7" class="node"><title>1</title>
<ellipse fill="black" stroke="black" cx="36.8545" cy="-1.8" rx="1.8" ry="1.8"/>
</g>
<!-- 1&#45;&#45;3 -->
<g id="edge7" class="edge"><title>1&#45;&#45;3</title>
<path fill="none" stroke="black" d="M38.2535,-3.0408C46.0158,-9.92507 83.7356,-43.3783 91.894,-50.6139"/>
</g>
<!-- 1&#45;&#45;4 -->
<g id="edge8" class="edge"><title>1&#45;&#45;4</title>
<path fill="none" stroke="black" d="M38.8721,-2.07371C46.5956,-3.12152 74.2313,-6.8707 81.8511,-7.90443"/>
</g>
<!-- 1&#45;&#45;5 -->
<g id="edge9" class="edge"><title>1&#45;&#45;5</title>
<path fill="none" stroke="black" d="M35.988,-3.64413C31.1381,-13.9656 7.40666,-64.4709 2.63623,-74.6233"/>
</g>
<!-- 2 -->
<g id="node8" class="node"><title>2</title>
<ellipse fill="black" stroke="black" cx="137.319" cy="-3.09434" rx="1.8" ry="1.8"/>
</g>
<!-- 1&#45;&#45;2 -->
<g id="edge6" class="edge"><title>1&#45;&#45;2</title>
<path fill="none" stroke="black" d="M38.9528,-1.82703C52.0274,-1.99548 122.192,-2.89944 135.233,-3.06745"/>
</g>
<!-- 2&#45;&#45;3 -->
<g id="edge10" class="edge"><title>2&#45;&#45;3</title>
<path fill="none" stroke="black" d="M135.86,-4.72137C129.2,-12.1459 101.726,-42.7718 94.962,-50.3123"/>
</g>
<!-- 2&#45;&#45;4 -->
<g id="edge11" class="edge"><title>2&#45;&#45;4</title>
<path fill="none" stroke="black" d="M135.02,-3.31244C126.218,-4.14734 94.7238,-7.13471 86.04,-7.9584"/>
</g>
<!-- 2&#45;&#45;6 -->
<g id="edge12" class="edge"><title>2&#45;&#45;6</title>
<path fill="none" stroke="black" d="M137.941,-5.12672C141.417,-16.5018 158.428,-72.1628 161.848,-83.3517"/>
</g>
</g>
</svg>
