<?xml version="1.0" encoding="UTF-8" standalone="no"?>
<!DOCTYPE svg PUBLIC "-//W3C//DTD SVG 1.1//EN"
 "http://www.w3.org/Graphics/SVG/1.1/DTD/svg11.dtd">
<!-- Generated by graphviz version 2.36.0 (20140111.2315)
 -->
<!-- Title: %3 Pages: 1 -->
<svg width="132pt" height="168pt"
 viewBox="0.00 0.00 131.78 168.29" xmlns="http://www.w3.org/2000/svg" xmlns:xlink="http://www.w3.org/1999/xlink">
<g id="graph0" class="graph" transform="scale(1 1) rotate(0) translate(4 164.293)">
<title>%3</title>
<!-- 0 -->
<g id="node1" class="node"><title>0</title>
<ellipse fill="black" stroke="black" cx="29.1088" cy="-83.2312" rx="1.8" ry="1.8"/>
</g>
<!-- 1 -->
<g id="node2" class="node"><title>1</title>
<ellipse fill="black" stroke="black" cx="121.984" cy="-88.9234" rx="1.8" ry="1.8"/>
</g>
<!-- 0&#45;&#45;1 -->
<g id="edge1" class="edge"><title>0&#45;&#45;1</title>
<path fill="none" stroke="black" d="M31.0486,-83.3501C43.1355,-84.0909 107.999,-88.0663 120.055,-88.8051"/>
</g>
<!-- 2 -->
<g id="node3" class="node"><title>2</title>
<ellipse fill="black" stroke="black" cx="85.0812" cy="-65.575" rx="1.8" ry="1.8"/>
</g>
<!-- 0&#45;&#45;2 -->
<g id="edge2" class="edge"><title>0&#45;&#45;2</title>
<path fill="none" stroke="black" d="M30.9711,-82.6438C39.4691,-79.9631 74.5237,-68.9053 83.1545,-66.1827"/>
</g>
<!-- 3 -->
<g id="node4" class="node"><title>3</title>
<ellipse fill="black" stroke="black" cx="51.664" cy="-128.972" rx="1.8" ry="1.8"/>
</g>
<!-- 0&#45;&#45;3 -->
<g id="edge3" class="edge"><title>0&#45;&#45;3</title>
<path fill="none" stroke="black" d="M30.0779,-85.1966C33.788,-92.7205 47.0633,-119.642 50.7235,-127.065"/>
</g>
<!-- 4 -->
<g id="node5" class="node"><title>4</title>
<ellipse fill="black" stroke="black" cx="88.2011" cy="-145.313" rx="1.8" ry="1.8"/>
</g>
<!-- 0&#45;&#45;4 -->
<g id="edge4" class="edge"><title>0&#45;&#45;4</title>
<path fill="none" stroke="black" d="M30.5695,-84.7658C38.6739,-93.2803 78.0565,-134.655 86.5745,-143.604"/>
</g>
<!-- 5 -->
<g id="node6" class="node"><title>5</title>
<ellipse fill="black" stroke="black" cx="1.8" cy="-158.493" rx="1.8" ry="1.8"/>
</g>
<!-- 0&#45;&#45;5 -->
<g id="edge5" class="edge"><title>0&#45;&#45;5</title>
<path fill="none" stroke="black" d="M28.4337,-85.0916C24.6555,-95.5043 6.1678,-146.456 2.45146,-156.698"/>
</g>
<!-- 7 -->
<g id="node7" class="node"><title>7</title>
<ellipse fill="black" stroke="black" cx="25.5154" cy="-1.8" rx="1.8" ry="1.8"/>
</g>
<!-- 0&#45;&#45;7 -->
<g id="edge6" class="edge"><title>0&#45;&#45;7</title>
<path fill="none" stroke="black" d="M29.0199,-81.2183C28.5228,-69.9521 26.0902,-14.8242 25.6012,-3.74256"/>
</g>
<!-- 1&#45;&#45;2 -->
<g id="edge7" class="edge"><title>1&#45;&#45;2</title>
<path fill="none" stroke="black" d="M120.399,-87.9201C114.328,-84.0795 92.6086,-70.3375 86.6199,-66.5485"/>
</g>
<!-- 1&#45;&#45;3 -->
<g id="edge8" class="edge"><title>1&#45;&#45;3</title>
<path fill="none" stroke="black" d="M120.246,-89.9133C110.602,-95.4059 63.7362,-122.097 53.5997,-127.869"/>
</g>
<!-- 1&#45;&#45;4 -->
<g id="edge9" class="edge"><title>1&#45;&#45;4</title>
<path fill="none" stroke="black" d="M120.86,-90.7995C115.731,-99.3609 94.5733,-134.677 89.364,-143.372"/>
</g>
<!-- 6 -->
<g id="node8" class="node"><title>6</title>
<ellipse fill="black" stroke="black" cx="109.318" cy="-3.32935" rx="1.8" ry="1.8"/>
</g>
<!-- 1&#45;&#45;6 -->
<g id="edge10" class="edge"><title>1&#45;&#45;6</title>
<path fill="none" stroke="black" d="M121.72,-87.1356C120.085,-76.0924 111.377,-17.2449 109.625,-5.4054"/>
</g>
<!-- 2&#45;&#45;3 -->
<g id="edge11" class="edge"><title>2&#45;&#45;3</title>
<path fill="none" stroke="black" d="M84.1171,-67.4039C79.2373,-76.6616 57.3074,-118.266 52.5686,-127.256"/>
</g>
<!-- 2&#45;&#45;4 -->
<g id="edge12" class="edge"><title>2&#45;&#45;4</title>
<path fill="none" stroke="black" d="M85.1583,-67.546C85.59,-78.5779 87.7021,-132.559 88.1267,-143.411"/>
</g>
<!-- 2&#45;&#45;6 -->
<g id="edge13" class="edge"><title>2&#45;&#45;6</title>
<path fill="none" stroke="black" d="M85.7804,-63.7792C89.3197,-54.6896 105.225,-13.8413 108.662,-5.01441"/>
</g>
<!-- 3&#45;&#45;4 -->
<g id="edge14" class="edge"><title>3&#45;&#45;4</title>
<path fill="none" stroke="black" d="M53.6284,-129.85C60.0317,-132.714 80.2423,-141.753 86.4017,-144.508"/>
</g>
<!-- 3&#45;&#45;5 -->
<g id="edge15" class="edge"><title>3&#45;&#45;5</title>
<path fill="none" stroke="black" d="M50.0049,-129.954C42.4343,-134.436 11.2054,-152.925 3.51643,-157.477"/>
</g>
<!-- 4&#45;&#45;5 -->
<g id="edge16" class="edge"><title>4&#45;&#45;5</title>
<path fill="none" stroke="black" d="M86.3965,-145.588C75.1522,-147.303 14.81,-156.508 3.59468,-158.219"/>
</g>
<!-- 6&#45;&#45;7 -->
<g id="edge17" class="edge"><title>6&#45;&#45;7</title>
<path fill="none" stroke="black" d="M107.247,-3.29154C95.6523,-3.07996 38.9189,-2.04461 27.5146,-1.83648"/>
</g>
</g>
</svg>
