<?xml version="1.0" encoding="UTF-8" standalone="no"?>
<!DOCTYPE svg PUBLIC "-//W3C//DTD SVG 1.1//EN"
 "http://www.w3.org/Graphics/SVG/1.1/DTD/svg11.dtd">
<!-- Generated by graphviz version 2.36.0 (20140111.2315)
 -->
<!-- Title: %3 Pages: 1 -->
<svg width="153pt" height="234pt"
 viewBox="0.00 0.00 153.05 234.14" xmlns="http://www.w3.org/2000/svg" xmlns:xlink="http://www.w3.org/1999/xlink">
<g id="graph0" class="graph" transform="scale(1 1) rotate(0) translate(4 230.138)">
<title>%3</title>
<!-- 0 -->
<g id="node1" class="node"><title>0</title>
<ellipse fill="black" stroke="black" cx="48.0261" cy="-147.368" rx="1.8" ry="1.8"/>
</g>
<!-- 1 -->
<g id="node2" class="node"><title>1</title>
<ellipse fill="black" stroke="black" cx="84.3195" cy="-136.662" rx="1.8" ry="1.8"/>
</g>
<!-- 0&#45;&#45;1 -->
<g id="edge1" class="edge"><title>0&#45;&#45;1</title>
<path fill="none" stroke="black" d="M49.9774,-146.792C56.338,-144.916 76.4138,-138.994 82.5321,-137.189"/>
</g>
<!-- 2 -->
<g id="node3" class="node"><title>2</title>
<ellipse fill="black" stroke="black" cx="6.02907" cy="-172.579" rx="1.8" ry="1.8"/>
</g>
<!-- 0&#45;&#45;2 -->
<g id="edge2" class="edge"><title>0&#45;&#45;2</title>
<path fill="none" stroke="black" d="M46.2216,-148.451C39.3135,-152.598 14.5955,-167.437 7.78016,-171.528"/>
</g>
<!-- 3 -->
<g id="node4" class="node"><title>3</title>
<ellipse fill="black" stroke="black" cx="50.5498" cy="-219.836" rx="1.8" ry="1.8"/>
</g>
<!-- 0&#45;&#45;3 -->
<g id="edge3" class="edge"><title>0&#45;&#45;3</title>
<path fill="none" stroke="black" d="M48.0989,-149.459C48.4674,-160.041 50.1236,-207.597 50.4815,-217.874"/>
</g>
<!-- 4 -->
<g id="node5" class="node"><title>4</title>
<ellipse fill="black" stroke="black" cx="85.4214" cy="-205.631" rx="1.8" ry="1.8"/>
</g>
<!-- 0&#45;&#45;4 -->
<g id="edge4" class="edge"><title>0&#45;&#45;4</title>
<path fill="none" stroke="black" d="M49.2703,-149.307C55.0493,-158.31 79.2099,-195.954 84.426,-204.08"/>
</g>
<!-- 5 -->
<g id="node6" class="node"><title>5</title>
<ellipse fill="black" stroke="black" cx="1.8" cy="-224.338" rx="1.8" ry="1.8"/>
</g>
<!-- 0&#45;&#45;5 -->
<g id="edge5" class="edge"><title>0&#45;&#45;5</title>
<path fill="none" stroke="black" d="M47.0606,-148.976C41.0447,-158.993 8.76059,-212.748 2.76019,-222.739"/>
</g>
<!-- 6 -->
<g id="node7" class="node"><title>6</title>
<ellipse fill="black" stroke="black" cx="39.8425" cy="-71.2129" rx="1.8" ry="1.8"/>
</g>
<!-- 0&#45;&#45;6 -->
<g id="edge6" class="edge"><title>0&#45;&#45;6</title>
<path fill="none" stroke="black" d="M47.8238,-145.486C46.6916,-134.949 41.1514,-83.3932 40.0378,-73.0296"/>
</g>
<!-- 7 -->
<g id="node8" class="node"><title>7</title>
<ellipse fill="black" stroke="black" cx="143.245" cy="-128.571" rx="1.8" ry="1.8"/>
</g>
<!-- 0&#45;&#45;7 -->
<g id="edge7" class="edge"><title>0&#45;&#45;7</title>
<path fill="none" stroke="black" d="M50.0149,-146.975C62.4067,-144.529 128.907,-131.401 141.267,-128.961"/>
</g>
<!-- 1&#45;&#45;2 -->
<g id="edge8" class="edge"><title>1&#45;&#45;2</title>
<path fill="none" stroke="black" d="M82.3843,-137.55C71.5526,-142.519 18.5509,-166.834 7.8967,-171.722"/>
</g>
<!-- 1&#45;&#45;3 -->
<g id="edge9" class="edge"><title>1&#45;&#45;3</title>
<path fill="none" stroke="black" d="M83.6142,-138.399C79.2194,-149.223 55.6347,-207.312 51.2512,-218.108"/>
</g>
<!-- 1&#45;&#45;4 -->
<g id="edge10" class="edge"><title>1&#45;&#45;4</title>
<path fill="none" stroke="black" d="M84.3513,-138.651C84.5122,-148.723 85.2353,-193.984 85.3915,-203.764"/>
</g>
<!-- 1&#45;&#45;6 -->
<g id="edge11" class="edge"><title>1&#45;&#45;6</title>
<path fill="none" stroke="black" d="M83.2201,-135.044C77.1201,-126.068 47.4781,-82.4487 41.0669,-73.0145"/>
</g>
<!-- 1&#45;&#45;7 -->
<g id="edge12" class="edge"><title>1&#45;&#45;7</title>
<path fill="none" stroke="black" d="M86.2801,-136.393C95.2265,-135.164 132.13,-130.097 141.217,-128.85"/>
</g>
<!-- 2&#45;&#45;3 -->
<g id="edge13" class="edge"><title>2&#45;&#45;3</title>
<path fill="none" stroke="black" d="M7.51035,-174.151C14.2698,-181.326 42.1523,-210.922 49.0173,-218.209"/>
</g>
<!-- 2&#45;&#45;4 -->
<g id="edge14" class="edge"><title>2&#45;&#45;4</title>
<path fill="none" stroke="black" d="M7.99159,-173.396C18.9757,-177.969 72.7233,-200.345 83.5275,-204.843"/>
</g>
<!-- 2&#45;&#45;5 -->
<g id="edge15" class="edge"><title>2&#45;&#45;5</title>
<path fill="none" stroke="black" d="M5.84735,-174.803C5.15171,-183.317 2.66263,-213.78 1.97633,-222.18"/>
</g>
<!-- 3&#45;&#45;4 -->
<g id="edge16" class="edge"><title>3&#45;&#45;4</title>
<path fill="none" stroke="black" d="M52.4246,-219.072C58.5361,-216.582 77.8253,-208.725 83.704,-206.331"/>
</g>
<!-- 3&#45;&#45;5 -->
<g id="edge17" class="edge"><title>3&#45;&#45;5</title>
<path fill="none" stroke="black" d="M48.4551,-220.029C40.4362,-220.77 11.7438,-223.42 3.83265,-224.15"/>
</g>
<!-- 4&#45;&#45;5 -->
<g id="edge18" class="edge"><title>4&#45;&#45;5</title>
<path fill="none" stroke="black" d="M83.3543,-206.094C71.7851,-208.682 15.1745,-221.346 3.7948,-223.892"/>
</g>
<!-- 8 -->
<g id="node9" class="node"><title>8</title>
<ellipse fill="black" stroke="black" cx="11.8411" cy="-1.8" rx="1.8" ry="1.8"/>
</g>
<!-- 6&#45;&#45;8 -->
<g id="edge19" class="edge"><title>6&#45;&#45;8</title>
<path fill="none" stroke="black" d="M39.1504,-69.497C35.31,-59.9771 16.6482,-13.7164 12.6119,-3.71074"/>
</g>
</g>
</svg>
