<?xml version="1.0" encoding="UTF-8" standalone="no"?>
<!DOCTYPE svg PUBLIC "-//W3C//DTD SVG 1.1//EN"
 "http://www.w3.org/Graphics/SVG/1.1/DTD/svg11.dtd">
<!-- Generated by graphviz version 2.36.0 (20140111.2315)
 -->
<!-- Title: %3 Pages: 1 -->
<svg width="164pt" height="181pt"
 viewBox="0.00 0.00 163.87 180.99" xmlns="http://www.w3.org/2000/svg" xmlns:xlink="http://www.w3.org/1999/xlink">
<g id="graph0" class="graph" transform="scale(1 1) rotate(0) translate(4 176.988)">
<title>%3</title>
<!-- 0 -->
<g id="node1" class="node"><title>0</title>
<ellipse fill="black" stroke="black" cx="81.132" cy="-116.834" rx="1.8" ry="1.8"/>
</g>
<!-- 1 -->
<g id="node2" class="node"><title>1</title>
<ellipse fill="black" stroke="black" cx="57.9352" cy="-80.7963" rx="1.8" ry="1.8"/>
</g>
<!-- 0&#45;&#45;1 -->
<g id="edge1" class="edge"><title>0&#45;&#45;1</title>
<path fill="none" stroke="black" d="M80.1352,-115.286C76.389,-109.466 63.16,-88.9135 59.1174,-82.633"/>
</g>
<!-- 2 -->
<g id="node3" class="node"><title>2</title>
<ellipse fill="black" stroke="black" cx="90.2861" cy="-33.4462" rx="1.8" ry="1.8"/>
</g>
<!-- 0&#45;&#45;2 -->
<g id="edge2" class="edge"><title>0&#45;&#45;2</title>
<path fill="none" stroke="black" d="M81.3582,-114.773C82.6247,-103.236 88.822,-46.7835 90.0677,-35.4355"/>
</g>
<!-- 3 -->
<g id="node4" class="node"><title>3</title>
<ellipse fill="black" stroke="black" cx="11.6117" cy="-64.6907" rx="1.8" ry="1.8"/>
</g>
<!-- 0&#45;&#45;3 -->
<g id="edge3" class="edge"><title>0&#45;&#45;3</title>
<path fill="none" stroke="black" d="M79.6799,-115.745C70.6325,-108.959 22.0798,-72.5424 13.0557,-65.7738"/>
</g>
<!-- 4 -->
<g id="node5" class="node"><title>4</title>
<ellipse fill="black" stroke="black" cx="135.654" cy="-85.147" rx="1.8" ry="1.8"/>
</g>
<!-- 0&#45;&#45;4 -->
<g id="edge4" class="edge"><title>0&#45;&#45;4</title>
<path fill="none" stroke="black" d="M82.946,-115.78C91.2239,-110.969 125.37,-91.1239 133.778,-86.2377"/>
</g>
<!-- 5 -->
<g id="node6" class="node"><title>5</title>
<ellipse fill="black" stroke="black" cx="91.7663" cy="-161.28" rx="1.8" ry="1.8"/>
</g>
<!-- 0&#45;&#45;5 -->
<g id="edge5" class="edge"><title>0&#45;&#45;5</title>
<path fill="none" stroke="black" d="M81.5889,-118.744C83.3381,-126.055 89.5971,-152.215 91.3229,-159.427"/>
</g>
<!-- 6 -->
<g id="node7" class="node"><title>6</title>
<ellipse fill="black" stroke="black" cx="1.8" cy="-132.739" rx="1.8" ry="1.8"/>
</g>
<!-- 0&#45;&#45;6 -->
<g id="edge6" class="edge"><title>0&#45;&#45;6</title>
<path fill="none" stroke="black" d="M79.1709,-117.228C68.1952,-119.428 14.4884,-130.195 3.69248,-132.36"/>
</g>
<!-- 8 -->
<g id="node8" class="node"><title>8</title>
<ellipse fill="black" stroke="black" cx="154.073" cy="-171.188" rx="1.8" ry="1.8"/>
</g>
<!-- 0&#45;&#45;8 -->
<g id="edge7" class="edge"><title>0&#45;&#45;8</title>
<path fill="none" stroke="black" d="M82.6554,-117.97C92.148,-125.043 143.09,-163.003 152.558,-170.059"/>
</g>
<!-- 1&#45;&#45;2 -->
<g id="edge8" class="edge"><title>1&#45;&#45;2</title>
<path fill="none" stroke="black" d="M59.0116,-79.2209C63.9233,-72.0319 84.184,-42.3774 89.1725,-35.0761"/>
</g>
<!-- 1&#45;&#45;3 -->
<g id="edge9" class="edge"><title>1&#45;&#45;3</title>
<path fill="none" stroke="black" d="M55.9447,-80.1042C48.325,-77.455 21.0606,-67.9759 13.5432,-65.3622"/>
</g>
<!-- 1&#45;&#45;4 -->
<g id="edge10" class="edge"><title>1&#45;&#45;4</title>
<path fill="none" stroke="black" d="M59.8563,-80.9038C70.6089,-81.5058 123.224,-84.4511 133.8,-85.0432"/>
</g>
<!-- 1&#45;&#45;5 -->
<g id="edge11" class="edge"><title>1&#45;&#45;5</title>
<path fill="none" stroke="black" d="M58.6418,-82.4773C63.0446,-92.9516 86.6721,-149.161 91.0636,-159.609"/>
</g>
<!-- 1&#45;&#45;6 -->
<g id="edge12" class="edge"><title>1&#45;&#45;6</title>
<path fill="none" stroke="black" d="M56.5476,-82.0803C48.8487,-89.2042 11.437,-123.822 3.34525,-131.309"/>
</g>
<!-- 7 -->
<g id="node9" class="node"><title>7</title>
<ellipse fill="black" stroke="black" cx="31.0515" cy="-1.8" rx="1.8" ry="1.8"/>
</g>
<!-- 1&#45;&#45;7 -->
<g id="edge13" class="edge"><title>1&#45;&#45;7</title>
<path fill="none" stroke="black" d="M57.2706,-78.8435C53.5512,-67.9143 35.3513,-14.4348 31.6928,-3.68447"/>
</g>
<!-- 2&#45;&#45;3 -->
<g id="edge14" class="edge"><title>2&#45;&#45;3</title>
<path fill="none" stroke="black" d="M88.3413,-34.2186C77.4566,-38.5413 24.195,-59.6934 13.4885,-63.9454"/>
</g>
<!-- 2&#45;&#45;4 -->
<g id="edge15" class="edge"><title>2&#45;&#45;4</title>
<path fill="none" stroke="black" d="M91.7956,-35.1664C98.8067,-43.1561 128.119,-76.5594 134.447,-83.7708"/>
</g>
<!-- 2&#45;&#45;7 -->
<g id="edge16" class="edge"><title>2&#45;&#45;7</title>
<path fill="none" stroke="black" d="M88.5772,-32.5333C79.9273,-27.912 41.0549,-7.14435 32.655,-2.6567"/>
</g>
<!-- 3&#45;&#45;6 -->
<g id="edge17" class="edge"><title>3&#45;&#45;6</title>
<path fill="none" stroke="black" d="M11.3286,-66.6539C9.89585,-76.5908 3.45698,-121.247 2.06561,-130.897"/>
</g>
<!-- 3&#45;&#45;7 -->
<g id="edge18" class="edge"><title>3&#45;&#45;7</title>
<path fill="none" stroke="black" d="M12.1725,-62.8763C14.9615,-53.8537 27.3239,-13.8591 30.371,-4.00144"/>
</g>
<!-- 4&#45;&#45;5 -->
<g id="edge19" class="edge"><title>4&#45;&#45;5</title>
<path fill="none" stroke="black" d="M134.738,-86.7371C129.026,-96.6452 98.3748,-149.816 92.6779,-159.699"/>
</g>
</g>
</svg>
