<?xml version="1.0" encoding="UTF-8" standalone="no"?>
<!DOCTYPE svg PUBLIC "-//W3C//DTD SVG 1.1//EN"
 "http://www.w3.org/Graphics/SVG/1.1/DTD/svg11.dtd">
<!-- Generated by graphviz version 2.36.0 (20140111.2315)
 -->
<!-- Title: %3 Pages: 1 -->
<svg width="169pt" height="233pt"
 viewBox="0.00 0.00 168.71 233.08" xmlns="http://www.w3.org/2000/svg" xmlns:xlink="http://www.w3.org/1999/xlink">
<g id="graph0" class="graph" transform="scale(1 1) rotate(0) translate(4 229.075)">
<title>%3</title>
<!-- 0 -->
<g id="node1" class="node"><title>0</title>
<ellipse fill="black" stroke="black" cx="83.5062" cy="-145.269" rx="1.8" ry="1.8"/>
</g>
<!-- 1 -->
<g id="node2" class="node"><title>1</title>
<ellipse fill="black" stroke="black" cx="119.608" cy="-74.1776" rx="1.8" ry="1.8"/>
</g>
<!-- 0&#45;&#45;1 -->
<g id="edge1" class="edge"><title>0&#45;&#45;1</title>
<path fill="none" stroke="black" d="M84.3986,-143.512C89.3933,-133.676 113.834,-85.5481 118.747,-75.8735"/>
</g>
<!-- 2 -->
<g id="node3" class="node"><title>2</title>
<ellipse fill="black" stroke="black" cx="65.7771" cy="-67.1997" rx="1.8" ry="1.8"/>
</g>
<!-- 0&#45;&#45;2 -->
<g id="edge2" class="edge"><title>0&#45;&#45;2</title>
<path fill="none" stroke="black" d="M83.0679,-143.339C80.6151,-132.538 68.6127,-79.6862 66.2001,-69.062"/>
</g>
<!-- 5 -->
<g id="node4" class="node"><title>5</title>
<ellipse fill="black" stroke="black" cx="1.8" cy="-165.078" rx="1.8" ry="1.8"/>
</g>
<!-- 0&#45;&#45;5 -->
<g id="edge3" class="edge"><title>0&#45;&#45;5</title>
<path fill="none" stroke="black" d="M81.4865,-145.759C70.1823,-148.499 14.8682,-161.91 3.74912,-164.605"/>
</g>
<!-- 6 -->
<g id="node5" class="node"><title>6</title>
<ellipse fill="black" stroke="black" cx="158.908" cy="-183.157" rx="1.8" ry="1.8"/>
</g>
<!-- 0&#45;&#45;6 -->
<g id="edge4" class="edge"><title>0&#45;&#45;6</title>
<path fill="none" stroke="black" d="M85.3701,-146.205C95.802,-151.447 146.848,-177.097 157.109,-182.253"/>
</g>
<!-- 7 -->
<g id="node6" class="node"><title>7</title>
<ellipse fill="black" stroke="black" cx="75.3525" cy="-223.275" rx="1.8" ry="1.8"/>
</g>
<!-- 0&#45;&#45;7 -->
<g id="edge5" class="edge"><title>0&#45;&#45;7</title>
<path fill="none" stroke="black" d="M83.3046,-147.197C82.1766,-157.99 76.6566,-210.799 75.547,-221.415"/>
</g>
<!-- 1&#45;&#45;2 -->
<g id="edge6" class="edge"><title>1&#45;&#45;2</title>
<path fill="none" stroke="black" d="M117.817,-73.9455C109.644,-72.886 75.9307,-68.5159 67.6301,-67.4399"/>
</g>
<!-- 3 -->
<g id="node7" class="node"><title>3</title>
<ellipse fill="black" stroke="black" cx="70.8838" cy="-1.8" rx="1.8" ry="1.8"/>
</g>
<!-- 1&#45;&#45;3 -->
<g id="edge7" class="edge"><title>1&#45;&#45;3</title>
<path fill="none" stroke="black" d="M118.59,-72.6659C112.249,-63.2467 78.2205,-12.6984 71.8959,-3.30339"/>
</g>
<!-- 4 -->
<g id="node8" class="node"><title>4</title>
<ellipse fill="black" stroke="black" cx="132.048" cy="-9.98615" rx="1.8" ry="1.8"/>
</g>
<!-- 1&#45;&#45;4 -->
<g id="edge8" class="edge"><title>1&#45;&#45;4</title>
<path fill="none" stroke="black" d="M119.967,-72.3257C121.751,-63.1165 129.663,-22.2947 131.613,-12.2331"/>
</g>
<!-- 2&#45;&#45;3 -->
<g id="edge9" class="edge"><title>2&#45;&#45;3</title>
<path fill="none" stroke="black" d="M65.9245,-65.3129C66.6571,-55.9303 69.9046,-14.3402 70.705,-4.08926"/>
</g>
<!-- 2&#45;&#45;4 -->
<g id="edge10" class="edge"><title>2&#45;&#45;4</title>
<path fill="none" stroke="black" d="M67.4153,-65.7854C76.5043,-57.9386 120.671,-19.8082 130.224,-11.5611"/>
</g>
<!-- 3&#45;&#45;4 -->
<g id="edge11" class="edge"><title>3&#45;&#45;4</title>
<path fill="none" stroke="black" d="M72.9188,-2.07237C82.2052,-3.31524 120.511,-8.44208 129.943,-9.70437"/>
</g>
</g>
</svg>
