<?xml version="1.0" encoding="UTF-8" standalone="no"?>
<!DOCTYPE svg PUBLIC "-//W3C//DTD SVG 1.1//EN"
 "http://www.w3.org/Graphics/SVG/1.1/DTD/svg11.dtd">
<!-- Generated by graphviz version 2.36.0 (20140111.2315)
 -->
<!-- Title: %3 Pages: 1 -->
<svg width="275pt" height="127pt"
 viewBox="0.00 0.00 275.38 126.82" xmlns="http://www.w3.org/2000/svg" xmlns:xlink="http://www.w3.org/1999/xlink">
<g id="graph0" class="graph" transform="scale(1 1) rotate(0) translate(4 122.822)">
<title>%3</title>
<!-- 0 -->
<g id="node1" class="node"><title>0</title>
<ellipse fill="black" stroke="black" cx="124.712" cy="-53.9622" rx="1.8" ry="1.8"/>
</g>
<!-- 1 -->
<g id="node2" class="node"><title>1</title>
<ellipse fill="black" stroke="black" cx="192.162" cy="-77.285" rx="1.8" ry="1.8"/>
</g>
<!-- 0&#45;&#45;1 -->
<g id="edge1" class="edge"><title>0&#45;&#45;1</title>
<path fill="none" stroke="black" d="M126.658,-54.6351C136.507,-58.0408 180.771,-73.3463 190.336,-76.6536"/>
</g>
<!-- 2 -->
<g id="node3" class="node"><title>2</title>
<ellipse fill="black" stroke="black" cx="65.4133" cy="-58.7112" rx="1.8" ry="1.8"/>
</g>
<!-- 0&#45;&#45;2 -->
<g id="edge2" class="edge"><title>0&#45;&#45;2</title>
<path fill="none" stroke="black" d="M122.739,-54.1202C113.736,-54.8412 76.5983,-57.8155 67.4545,-58.5478"/>
</g>
<!-- 3 -->
<g id="node4" class="node"><title>3</title>
<ellipse fill="black" stroke="black" cx="107.624" cy="-117.022" rx="1.8" ry="1.8"/>
</g>
<!-- 0&#45;&#45;3 -->
<g id="edge3" class="edge"><title>0&#45;&#45;3</title>
<path fill="none" stroke="black" d="M124.219,-55.7815C121.767,-64.8283 110.9,-104.93 108.222,-114.814"/>
</g>
<!-- 4 -->
<g id="node5" class="node"><title>4</title>
<ellipse fill="black" stroke="black" cx="146.735" cy="-115.349" rx="1.8" ry="1.8"/>
</g>
<!-- 0&#45;&#45;4 -->
<g id="edge4" class="edge"><title>0&#45;&#45;4</title>
<path fill="none" stroke="black" d="M125.347,-55.7332C128.507,-64.5401 142.512,-103.578 145.964,-113.2"/>
</g>
<!-- 5 -->
<g id="node6" class="node"><title>5</title>
<ellipse fill="black" stroke="black" cx="49.1005" cy="-114.011" rx="1.8" ry="1.8"/>
</g>
<!-- 0&#45;&#45;5 -->
<g id="edge5" class="edge"><title>0&#45;&#45;5</title>
<path fill="none" stroke="black" d="M123.133,-55.2164C113.293,-63.0313 60.4859,-104.969 50.6711,-112.764"/>
</g>
<!-- 6 -->
<g id="node7" class="node"><title>6</title>
<ellipse fill="black" stroke="black" cx="180.704" cy="-1.8" rx="1.8" ry="1.8"/>
</g>
<!-- 0&#45;&#45;6 -->
<g id="edge6" class="edge"><title>0&#45;&#45;6</title>
<path fill="none" stroke="black" d="M126.096,-52.6728C133.775,-45.5188 171.092,-10.7549 179.163,-3.23588"/>
</g>
<!-- 1&#45;&#45;3 -->
<g id="edge7" class="edge"><title>1&#45;&#45;3</title>
<path fill="none" stroke="black" d="M190.396,-78.1149C179.394,-83.2863 120.353,-111.038 109.38,-116.196"/>
</g>
<!-- 1&#45;&#45;4 -->
<g id="edge8" class="edge"><title>1&#45;&#45;4</title>
<path fill="none" stroke="black" d="M190.65,-78.5514C183.753,-84.3305 155.304,-108.169 148.299,-114.039"/>
</g>
<!-- 1&#45;&#45;6 -->
<g id="edge9" class="edge"><title>1&#45;&#45;6</title>
<path fill="none" stroke="black" d="M191.879,-75.419C190.294,-64.9755 182.537,-13.8732 180.978,-3.60071"/>
</g>
<!-- 7 -->
<g id="node8" class="node"><title>7</title>
<ellipse fill="black" stroke="black" cx="265.58" cy="-101.852" rx="1.8" ry="1.8"/>
</g>
<!-- 1&#45;&#45;7 -->
<g id="edge10" class="edge"><title>1&#45;&#45;7</title>
<path fill="none" stroke="black" d="M193.977,-77.8922C204.134,-81.2911 253.837,-97.9224 263.828,-101.266"/>
</g>
<!-- 2&#45;&#45;3 -->
<g id="edge11" class="edge"><title>2&#45;&#45;3</title>
<path fill="none" stroke="black" d="M66.8177,-60.6513C73.3408,-69.6625 100.612,-107.336 106.5,-115.47"/>
</g>
<!-- 2&#45;&#45;4 -->
<g id="edge12" class="edge"><title>2&#45;&#45;4</title>
<path fill="none" stroke="black" d="M67.1119,-59.8942C77.6951,-67.2651 134.49,-106.821 145.046,-114.173"/>
</g>
<!-- 2&#45;&#45;5 -->
<g id="edge13" class="edge"><title>2&#45;&#45;5</title>
<path fill="none" stroke="black" d="M64.8706,-60.5512C62.3939,-68.9472 52.1774,-103.581 49.662,-112.108"/>
</g>
<!-- 8 -->
<g id="node9" class="node"><title>8</title>
<ellipse fill="black" stroke="black" cx="1.8" cy="-12.9322" rx="1.8" ry="1.8"/>
</g>
<!-- 2&#45;&#45;8 -->
<g id="edge14" class="edge"><title>2&#45;&#45;8</title>
<path fill="none" stroke="black" d="M63.8409,-57.5796C55.1164,-51.3011 12.7208,-20.7913 3.5511,-14.1924"/>
</g>
<!-- 3&#45;&#45;4 -->
<g id="edge15" class="edge"><title>3&#45;&#45;4</title>
<path fill="none" stroke="black" d="M109.726,-116.932C116.581,-116.639 138.215,-115.713 144.809,-115.431"/>
</g>
<!-- 3&#45;&#45;5 -->
<g id="edge16" class="edge"><title>3&#45;&#45;5</title>
<path fill="none" stroke="black" d="M105.676,-116.922C96.7911,-116.465 60.1392,-114.579 51.115,-114.115"/>
</g>
</g>
</svg>
