<?xml version="1.0" encoding="UTF-8" standalone="no"?>
<!DOCTYPE svg PUBLIC "-//W3C//DTD SVG 1.1//EN"
 "http://www.w3.org/Graphics/SVG/1.1/DTD/svg11.dtd">
<!-- Generated by graphviz version 2.36.0 (20140111.2315)
 -->
<!-- Title: %3 Pages: 1 -->
<svg width="145pt" height="212pt"
 viewBox="0.00 0.00 145.12 212.00" xmlns="http://www.w3.org/2000/svg" xmlns:xlink="http://www.w3.org/1999/xlink">
<g id="graph0" class="graph" transform="scale(1 1) rotate(0) translate(4 208)">
<title>%3</title>
<!-- 0 -->
<g id="node1" class="node"><title>0</title>
<ellipse fill="black" stroke="black" cx="69.1467" cy="-120.731" rx="1.8" ry="1.8"/>
</g>
<!-- 1 -->
<g id="node2" class="node"><title>1</title>
<ellipse fill="black" stroke="black" cx="52.1258" cy="-77.7355" rx="1.8" ry="1.8"/>
</g>
<!-- 0&#45;&#45;1 -->
<g id="edge1" class="edge"><title>0&#45;&#45;1</title>
<path fill="none" stroke="black" d="M68.4153,-118.883C65.6156,-111.811 55.5977,-86.5056 52.8355,-79.5283"/>
</g>
<!-- 2 -->
<g id="node3" class="node"><title>2</title>
<ellipse fill="black" stroke="black" cx="6.16324" cy="-126.602" rx="1.8" ry="1.8"/>
</g>
<!-- 0&#45;&#45;2 -->
<g id="edge2" class="edge"><title>0&#45;&#45;2</title>
<path fill="none" stroke="black" d="M67.3297,-120.9C58.2937,-121.742 18.2401,-125.476 8.36792,-126.397"/>
</g>
<!-- 3 -->
<g id="node4" class="node"><title>3</title>
<ellipse fill="black" stroke="black" cx="80.9836" cy="-154.377" rx="1.8" ry="1.8"/>
</g>
<!-- 0&#45;&#45;3 -->
<g id="edge3" class="edge"><title>0&#45;&#45;3</title>
<path fill="none" stroke="black" d="M69.7831,-122.54C71.8192,-128.327 78.1642,-146.363 80.2851,-152.392"/>
</g>
<!-- 4 -->
<g id="node5" class="node"><title>4</title>
<ellipse fill="black" stroke="black" cx="59.6998" cy="-202.2" rx="1.8" ry="1.8"/>
</g>
<!-- 0&#45;&#45;4 -->
<g id="edge4" class="edge"><title>0&#45;&#45;4</title>
<path fill="none" stroke="black" d="M68.9132,-122.745C67.6062,-134.016 61.2108,-189.169 59.9252,-200.256"/>
</g>
<!-- 5 -->
<g id="node6" class="node"><title>5</title>
<ellipse fill="black" stroke="black" cx="12.5001" cy="-167.58" rx="1.8" ry="1.8"/>
</g>
<!-- 0&#45;&#45;5 -->
<g id="edge5" class="edge"><title>0&#45;&#45;5</title>
<path fill="none" stroke="black" d="M67.7464,-121.889C59.9774,-128.314 22.2249,-159.537 14.0594,-166.291"/>
</g>
<!-- 6 -->
<g id="node7" class="node"><title>6</title>
<ellipse fill="black" stroke="black" cx="1.8" cy="-58.2908" rx="1.8" ry="1.8"/>
</g>
<!-- 0&#45;&#45;6 -->
<g id="edge6" class="edge"><title>0&#45;&#45;6</title>
<path fill="none" stroke="black" d="M67.4819,-119.187C58.0834,-110.473 11.7759,-67.5398 3.17579,-59.5663"/>
</g>
<!-- 7 -->
<g id="node8" class="node"><title>7</title>
<ellipse fill="black" stroke="black" cx="135.318" cy="-173.733" rx="1.8" ry="1.8"/>
</g>
<!-- 0&#45;&#45;7 -->
<g id="edge7" class="edge"><title>0&#45;&#45;7</title>
<path fill="none" stroke="black" d="M70.7824,-122.041C79.8577,-129.31 123.958,-164.634 133.496,-172.274"/>
</g>
<!-- 1&#45;&#45;2 -->
<g id="edge8" class="edge"><title>1&#45;&#45;2</title>
<path fill="none" stroke="black" d="M50.5965,-79.3614C43.6182,-86.7806 14.8327,-117.385 7.74537,-124.92"/>
</g>
<!-- 1&#45;&#45;3 -->
<g id="edge9" class="edge"><title>1&#45;&#45;3</title>
<path fill="none" stroke="black" d="M52.8391,-79.6301C56.8317,-90.2336 76.368,-142.119 80.2952,-152.549"/>
</g>
<!-- 1&#45;&#45;5 -->
<g id="edge10" class="edge"><title>1&#45;&#45;5</title>
<path fill="none" stroke="black" d="M51.2982,-79.6121C46.1412,-91.3045 18.4668,-154.052 13.3232,-165.714"/>
</g>
<!-- 1&#45;&#45;6 -->
<g id="edge11" class="edge"><title>1&#45;&#45;6</title>
<path fill="none" stroke="black" d="M49.9634,-76.9C41.6853,-73.7016 12.0653,-62.2571 3.89836,-59.1016"/>
</g>
<!-- 8 -->
<g id="node9" class="node"><title>8</title>
<ellipse fill="black" stroke="black" cx="44.0431" cy="-1.8" rx="1.8" ry="1.8"/>
</g>
<!-- 1&#45;&#45;8 -->
<g id="edge12" class="edge"><title>1&#45;&#45;8</title>
<path fill="none" stroke="black" d="M51.926,-75.8585C50.8077,-65.3526 45.3359,-13.9452 44.2359,-3.61146"/>
</g>
<!-- 2&#45;&#45;3 -->
<g id="edge13" class="edge"><title>2&#45;&#45;3</title>
<path fill="none" stroke="black" d="M8.01274,-127.289C18.3643,-131.131 69.0167,-149.935 79.1987,-153.715"/>
</g>
<!-- 2&#45;&#45;4 -->
<g id="edge14" class="edge"><title>2&#45;&#45;4</title>
<path fill="none" stroke="black" d="M7.28142,-128.181C14.2487,-138.019 51.6384,-190.816 58.5878,-200.629"/>
</g>
<!-- 2&#45;&#45;5 -->
<g id="edge15" class="edge"><title>2&#45;&#45;5</title>
<path fill="none" stroke="black" d="M6.50394,-128.805C7.61451,-135.987 11.1197,-158.654 12.188,-165.562"/>
</g>
<!-- 2&#45;&#45;6 -->
<g id="edge16" class="edge"><title>2&#45;&#45;6</title>
<path fill="none" stroke="black" d="M6.03736,-124.631C5.40021,-114.656 2.53685,-69.8271 1.91812,-60.1401"/>
</g>
<!-- 3&#45;&#45;4 -->
<g id="edge17" class="edge"><title>3&#45;&#45;4</title>
<path fill="none" stroke="black" d="M80.069,-156.432C76.5681,-164.299 64.0412,-192.445 60.5873,-200.206"/>
</g>
<!-- 3&#45;&#45;5 -->
<g id="edge18" class="edge"><title>3&#45;&#45;5</title>
<path fill="none" stroke="black" d="M79.0079,-154.758C69.0074,-156.686 24.0655,-165.351 14.354,-167.223"/>
</g>
<!-- 3&#45;&#45;7 -->
<g id="edge19" class="edge"><title>3&#45;&#45;7</title>
<path fill="none" stroke="black" d="M82.7914,-155.021C91.0407,-157.96 125.069,-170.082 133.448,-173.067"/>
</g>
<!-- 4&#45;&#45;5 -->
<g id="edge20" class="edge"><title>4&#45;&#45;5</title>
<path fill="none" stroke="black" d="M58.1294,-201.048C50.9633,-195.792 21.4029,-174.11 14.1248,-168.772"/>
</g>
<!-- 4&#45;&#45;7 -->
<g id="edge21" class="edge"><title>4&#45;&#45;7</title>
<path fill="none" stroke="black" d="M61.569,-201.496C72.0309,-197.558 123.223,-178.286 133.514,-174.412"/>
</g>
<!-- 6&#45;&#45;8 -->
<g id="edge22" class="edge"><title>6&#45;&#45;8</title>
<path fill="none" stroke="black" d="M3.2055,-56.4112C9.73364,-47.6813 37.0265,-11.1832 42.9187,-3.30371"/>
</g>
</g>
</svg>
