<?xml version="1.0" encoding="UTF-8" standalone="no"?>
<!DOCTYPE svg PUBLIC "-//W3C//DTD SVG 1.1//EN"
 "http://www.w3.org/Graphics/SVG/1.1/DTD/svg11.dtd">
<!-- Generated by graphviz version 2.36.0 (20140111.2315)
 -->
<!-- Title: %3 Pages: 1 -->
<svg width="151pt" height="170pt"
 viewBox="0.00 0.00 150.93 170.49" xmlns="http://www.w3.org/2000/svg" xmlns:xlink="http://www.w3.org/1999/xlink">
<g id="graph0" class="graph" transform="scale(1 1) rotate(0) translate(4 166.491)">
<title>%3</title>
<!-- 0 -->
<g id="node1" class="node"><title>0</title>
<ellipse fill="black" stroke="black" cx="58.3166" cy="-94.7244" rx="1.8" ry="1.8"/>
</g>
<!-- 1 -->
<g id="node2" class="node"><title>1</title>
<ellipse fill="black" stroke="black" cx="80.8377" cy="-60.1706" rx="1.8" ry="1.8"/>
</g>
<!-- 0&#45;&#45;1 -->
<g id="edge1" class="edge"><title>0&#45;&#45;1</title>
<path fill="none" stroke="black" d="M59.5274,-92.8666C63.4744,-86.8109 75.932,-67.6975 79.7286,-61.8724"/>
</g>
<!-- 2 -->
<g id="node3" class="node"><title>2</title>
<ellipse fill="black" stroke="black" cx="35.261" cy="-27.9767" rx="1.8" ry="1.8"/>
</g>
<!-- 0&#45;&#45;2 -->
<g id="edge2" class="edge"><title>0&#45;&#45;2</title>
<path fill="none" stroke="black" d="M57.6514,-92.7988C54.2847,-83.0518 39.1546,-39.2489 35.8852,-29.7836"/>
</g>
<!-- 3 -->
<g id="node4" class="node"><title>3</title>
<ellipse fill="black" stroke="black" cx="123.508" cy="-124.07" rx="1.8" ry="1.8"/>
</g>
<!-- 0&#45;&#45;3 -->
<g id="edge3" class="edge"><title>0&#45;&#45;3</title>
<path fill="none" stroke="black" d="M60.1973,-95.571C69.7171,-99.8562 112.499,-119.114 121.743,-123.275"/>
</g>
<!-- 4 -->
<g id="node5" class="node"><title>4</title>
<ellipse fill="black" stroke="black" cx="1.8" cy="-95.1673" rx="1.8" ry="1.8"/>
</g>
<!-- 0&#45;&#45;4 -->
<g id="edge4" class="edge"><title>0&#45;&#45;4</title>
<path fill="none" stroke="black" d="M56.4362,-94.7391C47.8555,-94.8064 12.4602,-95.0837 3.74543,-95.152"/>
</g>
<!-- 6 -->
<g id="node6" class="node"><title>6</title>
<ellipse fill="black" stroke="black" cx="51.9092" cy="-160.691" rx="1.8" ry="1.8"/>
</g>
<!-- 0&#45;&#45;6 -->
<g id="edge5" class="edge"><title>0&#45;&#45;6</title>
<path fill="none" stroke="black" d="M58.1317,-96.6275C57.2125,-106.092 53.1378,-148.042 52.1335,-158.382"/>
</g>
<!-- 7 -->
<g id="node7" class="node"><title>7</title>
<ellipse fill="black" stroke="black" cx="98.5781" cy="-1.8" rx="1.8" ry="1.8"/>
</g>
<!-- 0&#45;&#45;7 -->
<g id="edge6" class="edge"><title>0&#45;&#45;7</title>
<path fill="none" stroke="black" d="M59.1575,-92.7835C64.3971,-80.6903 92.5156,-15.7923 97.7418,-3.73018"/>
</g>
<!-- 1&#45;&#45;2 -->
<g id="edge7" class="edge"><title>1&#45;&#45;2</title>
<path fill="none" stroke="black" d="M79.3213,-59.0995C72.4016,-54.2116 43.8577,-34.0491 36.8299,-29.0849"/>
</g>
<!-- 1&#45;&#45;3 -->
<g id="edge8" class="edge"><title>1&#45;&#45;3</title>
<path fill="none" stroke="black" d="M81.8925,-61.7502C87.7447,-70.5138 116.183,-113.1 122.334,-122.311"/>
</g>
<!-- 1&#45;&#45;4 -->
<g id="edge9" class="edge"><title>1&#45;&#45;4</title>
<path fill="none" stroke="black" d="M79.1869,-60.9016C68.9896,-65.4168 14.6496,-89.4776 3.71703,-94.3184"/>
</g>
<!-- 1&#45;&#45;7 -->
<g id="edge10" class="edge"><title>1&#45;&#45;7</title>
<path fill="none" stroke="black" d="M81.428,-58.2285C84.1214,-49.3664 95.2319,-12.8099 97.9674,-3.80925"/>
</g>
<!-- 2&#45;&#45;4 -->
<g id="edge11" class="edge"><title>2&#45;&#45;4</title>
<path fill="none" stroke="black" d="M34.4339,-29.6376C29.8448,-38.8527 7.5444,-83.6324 2.72109,-93.3177"/>
</g>
<!-- 5 -->
<g id="node8" class="node"><title>5</title>
<ellipse fill="black" stroke="black" cx="141.133" cy="-45.435" rx="1.8" ry="1.8"/>
</g>
<!-- 2&#45;&#45;5 -->
<g id="edge12" class="edge"><title>2&#45;&#45;5</title>
<path fill="none" stroke="black" d="M37.0986,-28.2797C49.9491,-30.3988 126.229,-42.9774 139.244,-45.1237"/>
</g>
<!-- 3&#45;&#45;6 -->
<g id="edge14" class="edge"><title>3&#45;&#45;6</title>
<path fill="none" stroke="black" d="M121.738,-124.975C111.832,-130.042 63.3609,-154.834 53.6172,-159.818"/>
</g>
<!-- 3&#45;&#45;5 -->
<g id="edge13" class="edge"><title>3&#45;&#45;5</title>
<path fill="none" stroke="black" d="M123.944,-122.126C126.382,-111.247 138.314,-58.0119 140.712,-47.3109"/>
</g>
<!-- 4&#45;&#45;6 -->
<g id="edge15" class="edge"><title>4&#45;&#45;6</title>
<path fill="none" stroke="black" d="M3.03866,-96.787C9.91109,-105.774 43.3068,-149.443 50.5299,-158.888"/>
</g>
<!-- 5&#45;&#45;7 -->
<g id="edge16" class="edge"><title>5&#45;&#45;7</title>
<path fill="none" stroke="black" d="M139.717,-43.9832C133.256,-37.3583 106.605,-10.0305 100.043,-3.30202"/>
</g>
</g>
</svg>
