<?xml version="1.0" encoding="UTF-8" standalone="no"?>
<!DOCTYPE svg PUBLIC "-//W3C//DTD SVG 1.1//EN"
 "http://www.w3.org/Graphics/SVG/1.1/DTD/svg11.dtd">
<!-- Generated by graphviz version 2.36.0 (20140111.2315)
 -->
<!-- Title: %3 Pages: 1 -->
<svg width="167pt" height="146pt"
 viewBox="0.00 0.00 167.26 146.21" xmlns="http://www.w3.org/2000/svg" xmlns:xlink="http://www.w3.org/1999/xlink">
<g id="graph0" class="graph" transform="scale(1 1) rotate(0) translate(4 142.211)">
<title>%3</title>
<!-- 0 -->
<g id="node1" class="node"><title>0</title>
<ellipse fill="black" stroke="black" cx="67.6146" cy="-59.9275" rx="1.8" ry="1.8"/>
</g>
<!-- 1 -->
<g id="node2" class="node"><title>1</title>
<ellipse fill="black" stroke="black" cx="117.104" cy="-70.624" rx="1.8" ry="1.8"/>
</g>
<!-- 0&#45;&#45;1 -->
<g id="edge1" class="edge"><title>0&#45;&#45;1</title>
<path fill="none" stroke="black" d="M69.7411,-60.3871C77.8817,-62.1466 107.01,-68.4422 115.041,-70.178"/>
</g>
<!-- 3 -->
<g id="node3" class="node"><title>3</title>
<ellipse fill="black" stroke="black" cx="148.135" cy="-11.8417" rx="1.8" ry="1.8"/>
</g>
<!-- 0&#45;&#45;3 -->
<g id="edge2" class="edge"><title>0&#45;&#45;3</title>
<path fill="none" stroke="black" d="M69.2964,-58.9231C79.7753,-52.6652 136.01,-19.0823 146.462,-12.8405"/>
</g>
<!-- 4 -->
<g id="node4" class="node"><title>4</title>
<ellipse fill="black" stroke="black" cx="68.8549" cy="-121.979" rx="1.8" ry="1.8"/>
</g>
<!-- 0&#45;&#45;4 -->
<g id="edge3" class="edge"><title>0&#45;&#45;4</title>
<path fill="none" stroke="black" d="M67.6558,-61.9921C67.8442,-71.4131 68.6209,-110.275 68.8122,-119.843"/>
</g>
<!-- 5 -->
<g id="node5" class="node"><title>5</title>
<ellipse fill="black" stroke="black" cx="97.9975" cy="-1.8" rx="1.8" ry="1.8"/>
</g>
<!-- 0&#45;&#45;5 -->
<g id="edge4" class="edge"><title>0&#45;&#45;5</title>
<path fill="none" stroke="black" d="M68.6255,-57.9935C73.2384,-49.1682 92.2667,-12.764 96.9517,-3.80088"/>
</g>
<!-- 6 -->
<g id="node6" class="node"><title>6</title>
<ellipse fill="black" stroke="black" cx="132.783" cy="-136.411" rx="1.8" ry="1.8"/>
</g>
<!-- 0&#45;&#45;6 -->
<g id="edge5" class="edge"><title>0&#45;&#45;6</title>
<path fill="none" stroke="black" d="M68.9757,-61.525C77.4568,-71.4786 122.97,-124.895 131.43,-134.823"/>
</g>
<!-- 7 -->
<g id="node7" class="node"><title>7</title>
<ellipse fill="black" stroke="black" cx="1.8" cy="-90.7081" rx="1.8" ry="1.8"/>
</g>
<!-- 0&#45;&#45;7 -->
<g id="edge6" class="edge"><title>0&#45;&#45;7</title>
<path fill="none" stroke="black" d="M65.7158,-60.8155C56.1051,-65.3103 12.9146,-85.5099 3.58168,-89.8748"/>
</g>
<!-- 1&#45;&#45;3 -->
<g id="edge7" class="edge"><title>1&#45;&#45;3</title>
<path fill="none" stroke="black" d="M118,-68.9282C122.451,-60.495 142.185,-23.113 147.049,-13.8993"/>
</g>
<!-- 1&#45;&#45;4 -->
<g id="edge8" class="edge"><title>1&#45;&#45;4</title>
<path fill="none" stroke="black" d="M115.499,-72.3327C108.043,-80.269 76.8692,-113.449 70.1392,-120.612"/>
</g>
<!-- 1&#45;&#45;5 -->
<g id="edge9" class="edge"><title>1&#45;&#45;5</title>
<path fill="none" stroke="black" d="M116.553,-68.6385C113.763,-58.5883 101.224,-13.4229 98.5148,-3.66315"/>
</g>
<!-- 1&#45;&#45;6 -->
<g id="edge10" class="edge"><title>1&#45;&#45;6</title>
<path fill="none" stroke="black" d="M117.557,-72.522C119.846,-82.1287 130.136,-125.301 132.359,-134.63"/>
</g>
<!-- 3&#45;&#45;5 -->
<g id="edge15" class="edge"><title>3&#45;&#45;5</title>
<path fill="none" stroke="black" d="M145.98,-11.4102C137.733,-9.75845 108.224,-3.84827 100.088,-2.21869"/>
</g>
<!-- 4&#45;&#45;7 -->
<g id="edge16" class="edge"><title>4&#45;&#45;7</title>
<path fill="none" stroke="black" d="M67.1973,-121.206C58.0008,-116.917 13.3116,-96.0766 3.64584,-91.5689"/>
</g>
<!-- 2 -->
<g id="node8" class="node"><title>2</title>
<ellipse fill="black" stroke="black" cx="157.456" cy="-76.6743" rx="1.8" ry="1.8"/>
</g>
<!-- 2&#45;&#45;3 -->
<g id="edge11" class="edge"><title>2&#45;&#45;3</title>
<path fill="none" stroke="black" d="M157.188,-74.8039C155.85,-65.5026 149.922,-24.2731 148.461,-14.1111"/>
</g>
<!-- 2&#45;&#45;4 -->
<g id="edge12" class="edge"><title>2&#45;&#45;4</title>
<path fill="none" stroke="black" d="M155.606,-77.6205C144.075,-83.5165 82.1962,-115.157 70.6953,-121.038"/>
</g>
<!-- 2&#45;&#45;5 -->
<g id="edge13" class="edge"><title>2&#45;&#45;5</title>
<path fill="none" stroke="black" d="M156.215,-75.1104C148.477,-65.3662 106.951,-13.0743 99.2326,-3.35525"/>
</g>
<!-- 2&#45;&#45;6 -->
<g id="edge14" class="edge"><title>2&#45;&#45;6</title>
<path fill="none" stroke="black" d="M156.745,-78.3977C153.205,-86.9679 137.514,-124.957 133.647,-134.32"/>
</g>
</g>
</svg>
