<?xml version="1.0" encoding="UTF-8" standalone="no"?>
<!DOCTYPE svg PUBLIC "-//W3C//DTD SVG 1.1//EN"
 "http://www.w3.org/Graphics/SVG/1.1/DTD/svg11.dtd">
<!-- Generated by graphviz version 2.36.0 (20140111.2315)
 -->
<!-- Title: %3 Pages: 1 -->
<svg width="166pt" height="161pt"
 viewBox="0.00 0.00 166.40 160.97" xmlns="http://www.w3.org/2000/svg" xmlns:xlink="http://www.w3.org/1999/xlink">
<g id="graph0" class="graph" transform="scale(1 1) rotate(0) translate(4 156.974)">
<title>%3</title>
<!-- 0 -->
<g id="node1" class="node"><title>0</title>
<ellipse fill="black" stroke="black" cx="69.0432" cy="-64.9574" rx="1.8" ry="1.8"/>
</g>
<!-- 1 -->
<g id="node2" class="node"><title>1</title>
<ellipse fill="black" stroke="black" cx="89.4365" cy="-90.8893" rx="1.8" ry="1.8"/>
</g>
<!-- 0&#45;&#45;1 -->
<g id="edge1" class="edge"><title>0&#45;&#45;1</title>
<path fill="none" stroke="black" d="M70.3812,-66.6588C74.1384,-71.4364 84.7407,-84.9182 88.2743,-89.4114"/>
</g>
<!-- 2 -->
<g id="node3" class="node"><title>2</title>
<ellipse fill="black" stroke="black" cx="27.8195" cy="-96.7446" rx="1.8" ry="1.8"/>
</g>
<!-- 0&#45;&#45;2 -->
<g id="edge2" class="edge"><title>0&#45;&#45;2</title>
<path fill="none" stroke="black" d="M67.2718,-66.3232C60.491,-71.5519 36.2282,-90.2608 29.5383,-95.4193"/>
</g>
<!-- 3 -->
<g id="node4" class="node"><title>3</title>
<ellipse fill="black" stroke="black" cx="8.01564" cy="-130.438" rx="1.8" ry="1.8"/>
</g>
<!-- 0&#45;&#45;3 -->
<g id="edge3" class="edge"><title>0&#45;&#45;3</title>
<path fill="none" stroke="black" d="M67.5346,-66.576C59.0179,-75.7141 17.0554,-120.738 9.26234,-129.1"/>
</g>
<!-- 4 -->
<g id="node5" class="node"><title>4</title>
<ellipse fill="black" stroke="black" cx="45.9894" cy="-143.578" rx="1.8" ry="1.8"/>
</g>
<!-- 0&#45;&#45;4 -->
<g id="edge4" class="edge"><title>0&#45;&#45;4</title>
<path fill="none" stroke="black" d="M68.4733,-66.9008C65.2838,-77.7782 49.6766,-131.004 46.5393,-141.703"/>
</g>
<!-- 5 -->
<g id="node6" class="node"><title>5</title>
<ellipse fill="black" stroke="black" cx="89.8883" cy="-151.174" rx="1.8" ry="1.8"/>
</g>
<!-- 0&#45;&#45;5 -->
<g id="edge5" class="edge"><title>0&#45;&#45;5</title>
<path fill="none" stroke="black" d="M69.4785,-66.7581C72.1913,-77.9783 86.7495,-138.191 89.4553,-149.383"/>
</g>
<!-- 6 -->
<g id="node7" class="node"><title>6</title>
<ellipse fill="black" stroke="black" cx="1.8" cy="-61.7647" rx="1.8" ry="1.8"/>
</g>
<!-- 0&#45;&#45;6 -->
<g id="edge6" class="edge"><title>0&#45;&#45;6</title>
<path fill="none" stroke="black" d="M67.1032,-64.8653C57.2839,-64.3991 13.1559,-62.3039 3.62035,-61.8512"/>
</g>
<!-- 7 -->
<g id="node8" class="node"><title>7</title>
<ellipse fill="black" stroke="black" cx="156.605" cy="-70.6771" rx="1.8" ry="1.8"/>
</g>
<!-- 0&#45;&#45;7 -->
<g id="edge7" class="edge"><title>0&#45;&#45;7</title>
<path fill="none" stroke="black" d="M70.872,-65.0768C82.2673,-65.8212 143.42,-69.8158 154.786,-70.5582"/>
</g>
<!-- 8 -->
<g id="node9" class="node"><title>8</title>
<ellipse fill="black" stroke="black" cx="96.0978" cy="-1.8" rx="1.8" ry="1.8"/>
</g>
<!-- 0&#45;&#45;8 -->
<g id="edge8" class="edge"><title>0&#45;&#45;8</title>
<path fill="none" stroke="black" d="M69.8237,-63.1353C73.7744,-53.9126 91.5288,-12.4659 95.3654,-3.50974"/>
</g>
<!-- 1&#45;&#45;2 -->
<g id="edge9" class="edge"><title>1&#45;&#45;2</title>
<path fill="none" stroke="black" d="M87.3864,-91.0841C78.0313,-91.9731 39.4417,-95.6402 29.9405,-96.5431"/>
</g>
<!-- 1&#45;&#45;3 -->
<g id="edge10" class="edge"><title>1&#45;&#45;3</title>
<path fill="none" stroke="black" d="M87.7359,-91.7153C77.1398,-96.8622 20.2757,-124.483 9.70687,-129.616"/>
</g>
<!-- 1&#45;&#45;4 -->
<g id="edge11" class="edge"><title>1&#45;&#45;4</title>
<path fill="none" stroke="black" d="M87.991,-92.6424C81.2768,-100.785 53.206,-134.826 47.1459,-142.176"/>
</g>
<!-- 1&#45;&#45;5 -->
<g id="edge12" class="edge"><title>1&#45;&#45;5</title>
<path fill="none" stroke="black" d="M89.4516,-92.8951C89.5201,-102.048 89.8031,-139.803 89.8728,-149.098"/>
</g>
<!-- 1&#45;&#45;6 -->
<g id="edge13" class="edge"><title>1&#45;&#45;6</title>
<path fill="none" stroke="black" d="M87.6061,-90.281C76.201,-86.4907 14.996,-66.1502 3.62034,-62.3697"/>
</g>
<!-- 1&#45;&#45;7 -->
<g id="edge14" class="edge"><title>1&#45;&#45;7</title>
<path fill="none" stroke="black" d="M91.3743,-90.3062C101.183,-87.3547 145.261,-74.0905 154.786,-71.2242"/>
</g>
<!-- 1&#45;&#45;8 -->
<g id="edge15" class="edge"><title>1&#45;&#45;8</title>
<path fill="none" stroke="black" d="M89.5756,-89.0286C90.4425,-77.4344 95.0947,-15.2148 95.9594,-3.65052"/>
</g>
<!-- 2&#45;&#45;3 -->
<g id="edge16" class="edge"><title>2&#45;&#45;3</title>
<path fill="none" stroke="black" d="M26.7547,-98.5561C23.284,-104.461 12.3295,-123.098 8.99096,-128.778"/>
</g>
<!-- 2&#45;&#45;4 -->
<g id="edge17" class="edge"><title>2&#45;&#45;4</title>
<path fill="none" stroke="black" d="M28.6002,-98.757C31.589,-106.461 42.2831,-134.025 45.2318,-141.625"/>
</g>
<!-- 2&#45;&#45;5 -->
<g id="edge18" class="edge"><title>2&#45;&#45;5</title>
<path fill="none" stroke="black" d="M29.3538,-98.0901C37.8665,-105.555 79.2327,-141.829 88.1797,-149.675"/>
</g>
<!-- 2&#45;&#45;6 -->
<g id="edge19" class="edge"><title>2&#45;&#45;6</title>
<path fill="none" stroke="black" d="M26.7015,-95.2416C22.4215,-89.4878 7.10737,-68.8998 2.8849,-63.2232"/>
</g>
<!-- 3&#45;&#45;4 -->
<g id="edge20" class="edge"><title>3&#45;&#45;4</title>
<path fill="none" stroke="black" d="M10.0573,-131.144C16.7124,-133.447 37.7176,-140.716 44.1192,-142.931"/>
</g>
<!-- 3&#45;&#45;5 -->
<g id="edge21" class="edge"><title>3&#45;&#45;5</title>
<path fill="none" stroke="black" d="M10.0395,-130.95C21.3667,-133.819 76.7935,-147.857 87.9352,-150.679"/>
</g>
<!-- 3&#45;&#45;6 -->
<g id="edge22" class="edge"><title>3&#45;&#45;6</title>
<path fill="none" stroke="black" d="M7.83632,-128.457C6.92866,-118.428 2.84968,-73.3621 1.96826,-63.6238"/>
</g>
<!-- 4&#45;&#45;5 -->
<g id="edge23" class="edge"><title>4&#45;&#45;5</title>
<path fill="none" stroke="black" d="M47.8757,-143.905C55.0966,-145.154 80.934,-149.624 88.0579,-150.857"/>
</g>
<!-- 4&#45;&#45;6 -->
<g id="edge24" class="edge"><title>4&#45;&#45;6</title>
<path fill="none" stroke="black" d="M45.0664,-141.869C39.3156,-131.222 8.4539,-74.084 2.71788,-63.4641"/>
</g>
</g>
</svg>
