<?xml version="1.0" encoding="UTF-8" standalone="no"?>
<!DOCTYPE svg PUBLIC "-//W3C//DTD SVG 1.1//EN"
 "http://www.w3.org/Graphics/SVG/1.1/DTD/svg11.dtd">
<!-- Generated by graphviz version 2.36.0 (20140111.2315)
 -->
<!-- Title: %3 Pages: 1 -->
<svg width="155pt" height="169pt"
 viewBox="0.00 0.00 155.47 169.39" xmlns="http://www.w3.org/2000/svg" xmlns:xlink="http://www.w3.org/1999/xlink">
<g id="graph0" class="graph" transform="scale(1 1) rotate(0) translate(4 165.387)">
<title>%3</title>
<!-- 0 -->
<g id="node1" class="node"><title>0</title>
<ellipse fill="black" stroke="black" cx="64.2408" cy="-71.9557" rx="1.8" ry="1.8"/>
</g>
<!-- 1 -->
<g id="node2" class="node"><title>1</title>
<ellipse fill="black" stroke="black" cx="4.2597" cy="-70.8648" rx="1.8" ry="1.8"/>
</g>
<!-- 0&#45;&#45;1 -->
<g id="edge1" class="edge"><title>0&#45;&#45;1</title>
<path fill="none" stroke="black" d="M62.2451,-71.9194C53.1384,-71.7538 15.5734,-71.0706 6.32438,-70.9023"/>
</g>
<!-- 2 -->
<g id="node3" class="node"><title>2</title>
<ellipse fill="black" stroke="black" cx="101.487" cy="-136.198" rx="1.8" ry="1.8"/>
</g>
<!-- 0&#45;&#45;2 -->
<g id="edge2" class="edge"><title>0&#45;&#45;2</title>
<path fill="none" stroke="black" d="M65.1615,-73.5437C70.2697,-82.3545 95.0925,-125.169 100.461,-134.43"/>
</g>
<!-- 3 -->
<g id="node4" class="node"><title>3</title>
<ellipse fill="black" stroke="black" cx="35.5492" cy="-159.587" rx="1.8" ry="1.8"/>
</g>
<!-- 0&#45;&#45;3 -->
<g id="edge3" class="edge"><title>0&#45;&#45;3</title>
<path fill="none" stroke="black" d="M63.6415,-73.786C59.9076,-85.1904 39.8695,-146.392 36.1451,-157.767"/>
</g>
<!-- 4 -->
<g id="node5" class="node"><title>4</title>
<ellipse fill="black" stroke="black" cx="54.4551" cy="-122.707" rx="1.8" ry="1.8"/>
</g>
<!-- 0&#45;&#45;4 -->
<g id="edge4" class="edge"><title>0&#45;&#45;4</title>
<path fill="none" stroke="black" d="M63.8203,-74.1364C62.2107,-82.4845 56.4512,-112.355 54.8631,-120.591"/>
</g>
<!-- 5 -->
<g id="node6" class="node"><title>5</title>
<ellipse fill="black" stroke="black" cx="1.8" cy="-127.905" rx="1.8" ry="1.8"/>
</g>
<!-- 0&#45;&#45;5 -->
<g id="edge5" class="edge"><title>0&#45;&#45;5</title>
<path fill="none" stroke="black" d="M62.6973,-73.3387C54.1336,-81.0121 12.5195,-118.3 3.51882,-126.365"/>
</g>
<!-- 6 -->
<g id="node7" class="node"><title>6</title>
<ellipse fill="black" stroke="black" cx="2.20246" cy="-9.20608" rx="1.8" ry="1.8"/>
</g>
<!-- 0&#45;&#45;6 -->
<g id="edge6" class="edge"><title>0&#45;&#45;6</title>
<path fill="none" stroke="black" d="M62.7073,-70.4046C54.0495,-61.6476 11.392,-18.501 3.46981,-10.488"/>
</g>
<!-- 7 -->
<g id="node8" class="node"><title>7</title>
<ellipse fill="black" stroke="black" cx="58.1693" cy="-1.8" rx="1.8" ry="1.8"/>
</g>
<!-- 0&#45;&#45;7 -->
<g id="edge7" class="edge"><title>0&#45;&#45;7</title>
<path fill="none" stroke="black" d="M64.0656,-69.9317C63.179,-59.6871 59.1947,-13.6477 58.3337,-3.6992"/>
</g>
<!-- 8 -->
<g id="node9" class="node"><title>8</title>
<ellipse fill="black" stroke="black" cx="145.67" cy="-75.8544" rx="1.8" ry="1.8"/>
</g>
<!-- 0&#45;&#45;8 -->
<g id="edge8" class="edge"><title>0&#45;&#45;8</title>
<path fill="none" stroke="black" d="M66.2537,-72.0521C77.5195,-72.5915 132.646,-75.2308 143.727,-75.7614"/>
</g>
<!-- 1&#45;&#45;3 -->
<g id="edge9" class="edge"><title>1&#45;&#45;3</title>
<path fill="none" stroke="black" d="M4.91322,-72.7179C8.98525,-84.2642 30.8377,-146.227 34.8992,-157.744"/>
</g>
<!-- 1&#45;&#45;4 -->
<g id="edge10" class="edge"><title>1&#45;&#45;4</title>
<path fill="none" stroke="black" d="M5.92979,-72.5897C13.6868,-80.6012 46.1175,-114.096 53.119,-121.327"/>
</g>
<!-- 1&#45;&#45;5 -->
<g id="edge11" class="edge"><title>1&#45;&#45;5</title>
<path fill="none" stroke="black" d="M4.17786,-72.7626C3.80441,-81.4228 2.26395,-117.146 1.88467,-125.942"/>
</g>
<!-- 1&#45;&#45;6 -->
<g id="edge12" class="edge"><title>1&#45;&#45;6</title>
<path fill="none" stroke="black" d="M4.19125,-68.8133C3.87891,-59.4519 2.5905,-20.8362 2.27327,-11.3285"/>
</g>
<!-- 1&#45;&#45;7 -->
<g id="edge13" class="edge"><title>1&#45;&#45;7</title>
<path fill="none" stroke="black" d="M5.38568,-69.4223C12.4015,-60.4341 50.0518,-12.1996 57.0495,-3.23458"/>
</g>
<!-- 2&#45;&#45;3 -->
<g id="edge14" class="edge"><title>2&#45;&#45;3</title>
<path fill="none" stroke="black" d="M99.5843,-136.873C89.9557,-140.288 46.6845,-155.637 37.3342,-158.954"/>
</g>
<!-- 2&#45;&#45;4 -->
<g id="edge15" class="edge"><title>2&#45;&#45;4</title>
<path fill="none" stroke="black" d="M99.4657,-135.619C91.7295,-133.399 64.0484,-125.459 56.4161,-123.269"/>
</g>
<!-- 2&#45;&#45;5 -->
<g id="edge16" class="edge"><title>2&#45;&#45;5</title>
<path fill="none" stroke="black" d="M99.4045,-136.025C86.4312,-134.946 16.8105,-129.154 3.87064,-128.077"/>
</g>
<!-- 2&#45;&#45;8 -->
<g id="edge17" class="edge"><title>2&#45;&#45;8</title>
<path fill="none" stroke="black" d="M102.579,-134.707C108.638,-126.431 138.084,-86.2139 144.453,-77.5155"/>
</g>
<!-- 3&#45;&#45;4 -->
<g id="edge18" class="edge"><title>3&#45;&#45;4</title>
<path fill="none" stroke="black" d="M36.5656,-157.604C39.879,-151.141 50.3368,-130.74 53.524,-124.523"/>
</g>
<!-- 3&#45;&#45;5 -->
<g id="edge19" class="edge"><title>3&#45;&#45;5</title>
<path fill="none" stroke="black" d="M34.099,-158.226C28.5476,-153.014 8.68404,-134.367 3.20719,-129.226"/>
</g>
<!-- 4&#45;&#45;5 -->
<g id="edge20" class="edge"><title>4&#45;&#45;5</title>
<path fill="none" stroke="black" d="M52.1926,-122.93C43.5314,-123.785 12.5404,-126.845 3.99549,-127.688"/>
</g>
<!-- 6&#45;&#45;7 -->
<g id="edge21" class="edge"><title>6&#45;&#45;7</title>
<path fill="none" stroke="black" d="M4.06458,-8.95967C12.5618,-7.83523 47.6128,-3.19694 56.2428,-2.05493"/>
</g>
</g>
</svg>
