<?xml version="1.0" encoding="UTF-8" standalone="no"?>
<!DOCTYPE svg PUBLIC "-//W3C//DTD SVG 1.1//EN"
 "http://www.w3.org/Graphics/SVG/1.1/DTD/svg11.dtd">
<!-- Generated by graphviz version 2.36.0 (20140111.2315)
 -->
<!-- Title: %3 Pages: 1 -->
<svg width="223pt" height="265pt"
 viewBox="0.00 0.00 223.45 264.68" xmlns="http://www.w3.org/2000/svg" xmlns:xlink="http://www.w3.org/1999/xlink">
<g id="graph0" class="graph" transform="scale(1 1) rotate(0) translate(4 260.684)">
<title>%3</title>
<!-- 0 -->
<g id="node1" class="node"><title>0</title>
<ellipse fill="black" stroke="black" cx="75.0744" cy="-171.969" rx="1.8" ry="1.8"/>
</g>
<!-- 1 -->
<g id="node2" class="node"><title>1</title>
<ellipse fill="black" stroke="black" cx="155.71" cy="-135.378" rx="1.8" ry="1.8"/>
</g>
<!-- 0&#45;&#45;1 -->
<g id="edge1" class="edge"><title>0&#45;&#45;1</title>
<path fill="none" stroke="black" d="M76.7586,-171.205C87.2527,-166.443 143.569,-140.888 154.036,-136.138"/>
</g>
<!-- 2 -->
<g id="node3" class="node"><title>2</title>
<ellipse fill="black" stroke="black" cx="110.904" cy="-109.01" rx="1.8" ry="1.8"/>
</g>
<!-- 0&#45;&#45;2 -->
<g id="edge2" class="edge"><title>0&#45;&#45;2</title>
<path fill="none" stroke="black" d="M76.1081,-170.153C81.3403,-160.959 104.853,-119.643 109.934,-110.715"/>
</g>
<!-- 3 -->
<g id="node4" class="node"><title>3</title>
<ellipse fill="black" stroke="black" cx="144.014" cy="-188.397" rx="1.8" ry="1.8"/>
</g>
<!-- 0&#45;&#45;3 -->
<g id="edge3" class="edge"><title>0&#45;&#45;3</title>
<path fill="none" stroke="black" d="M77.0633,-172.443C87.1303,-174.842 132.371,-185.623 142.147,-187.952"/>
</g>
<!-- 5 -->
<g id="node5" class="node"><title>5</title>
<ellipse fill="black" stroke="black" cx="74.66" cy="-254.884" rx="1.8" ry="1.8"/>
</g>
<!-- 0&#45;&#45;5 -->
<g id="edge4" class="edge"><title>0&#45;&#45;5</title>
<path fill="none" stroke="black" d="M75.0642,-174.019C75.0069,-185.49 74.7263,-241.622 74.6699,-252.906"/>
</g>
<!-- 6 -->
<g id="node6" class="node"><title>6</title>
<ellipse fill="black" stroke="black" cx="19.306" cy="-225.473" rx="1.8" ry="1.8"/>
</g>
<!-- 0&#45;&#45;6 -->
<g id="edge5" class="edge"><title>0&#45;&#45;6</title>
<path fill="none" stroke="black" d="M73.6959,-173.292C66.0473,-180.63 28.88,-216.288 20.8411,-224"/>
</g>
<!-- 8 -->
<g id="node7" class="node"><title>8</title>
<ellipse fill="black" stroke="black" cx="1.8" cy="-129.897" rx="1.8" ry="1.8"/>
</g>
<!-- 0&#45;&#45;8 -->
<g id="edge6" class="edge"><title>0&#45;&#45;8</title>
<path fill="none" stroke="black" d="M73.2632,-170.929C63.1255,-165.108 13.5196,-136.626 3.54798,-130.901"/>
</g>
<!-- 1&#45;&#45;2 -->
<g id="edge7" class="edge"><title>1&#45;&#45;2</title>
<path fill="none" stroke="black" d="M153.785,-134.245C146.415,-129.908 120.044,-114.389 112.773,-110.11"/>
</g>
<!-- 1&#45;&#45;3 -->
<g id="edge8" class="edge"><title>1&#45;&#45;3</title>
<path fill="none" stroke="black" d="M155.321,-137.142C153.545,-145.192 146.22,-178.397 144.416,-186.572"/>
</g>
<!-- 4 -->
<g id="node8" class="node"><title>4</title>
<ellipse fill="black" stroke="black" cx="173.032" cy="-63.2471" rx="1.8" ry="1.8"/>
</g>
<!-- 1&#45;&#45;4 -->
<g id="edge9" class="edge"><title>1&#45;&#45;4</title>
<path fill="none" stroke="black" d="M156.139,-133.595C158.514,-123.702 170.059,-75.6301 172.555,-65.2326"/>
</g>
<!-- 2&#45;&#45;3 -->
<g id="edge10" class="edge"><title>2&#45;&#45;3</title>
<path fill="none" stroke="black" d="M111.723,-110.973C116.304,-121.956 138.718,-175.7 143.224,-186.503"/>
</g>
<!-- 2&#45;&#45;4 -->
<g id="edge11" class="edge"><title>2&#45;&#45;4</title>
<path fill="none" stroke="black" d="M112.44,-107.879C120.961,-101.603 162.367,-71.1034 171.322,-64.5068"/>
</g>
<!-- 5&#45;&#45;6 -->
<g id="edge13" class="edge"><title>5&#45;&#45;6</title>
<path fill="none" stroke="black" d="M72.8183,-253.905C64.4141,-249.44 29.7469,-231.021 21.2114,-226.485"/>
</g>
<!-- 7 -->
<g id="node9" class="node"><title>7</title>
<ellipse fill="black" stroke="black" cx="213.654" cy="-1.8" rx="1.8" ry="1.8"/>
</g>
<!-- 4&#45;&#45;7 -->
<g id="edge12" class="edge"><title>4&#45;&#45;7</title>
<path fill="none" stroke="black" d="M174.036,-61.7281C179.608,-53.3007 206.681,-12.3489 212.536,-3.49147"/>
</g>
</g>
</svg>
