<?xml version="1.0" encoding="UTF-8" standalone="no"?>
<!DOCTYPE svg PUBLIC "-//W3C//DTD SVG 1.1//EN"
 "http://www.w3.org/Graphics/SVG/1.1/DTD/svg11.dtd">
<!-- Generated by graphviz version 2.36.0 (20140111.2315)
 -->
<!-- Title: %3 Pages: 1 -->
<svg width="167pt" height="337pt"
 viewBox="0.00 0.00 166.68 336.85" xmlns="http://www.w3.org/2000/svg" xmlns:xlink="http://www.w3.org/1999/xlink">
<g id="graph0" class="graph" transform="scale(1 1) rotate(0) translate(4 332.854)">
<title>%3</title>
<!-- 0 -->
<g id="node1" class="node"><title>0</title>
<ellipse fill="black" stroke="black" cx="57.9794" cy="-216.28" rx="1.8" ry="1.8"/>
</g>
<!-- 1 -->
<g id="node2" class="node"><title>1</title>
<ellipse fill="black" stroke="black" cx="64.4015" cy="-141.194" rx="1.8" ry="1.8"/>
</g>
<!-- 0&#45;&#45;1 -->
<g id="edge1" class="edge"><title>0&#45;&#45;1</title>
<path fill="none" stroke="black" d="M58.1382,-214.424C59.0189,-204.126 63.299,-154.084 64.2247,-143.261"/>
</g>
<!-- 2 -->
<g id="node3" class="node"><title>2</title>
<ellipse fill="black" stroke="black" cx="13.1313" cy="-201.63" rx="1.8" ry="1.8"/>
</g>
<!-- 0&#45;&#45;2 -->
<g id="edge2" class="edge"><title>0&#45;&#45;2</title>
<path fill="none" stroke="black" d="M56.0523,-215.651C48.6753,-213.241 22.2792,-204.618 15.0012,-202.241"/>
</g>
<!-- 3 -->
<g id="node4" class="node"><title>3</title>
<ellipse fill="black" stroke="black" cx="108.4" cy="-194.969" rx="1.8" ry="1.8"/>
</g>
<!-- 0&#45;&#45;3 -->
<g id="edge3" class="edge"><title>0&#45;&#45;3</title>
<path fill="none" stroke="black" d="M59.657,-215.571C67.3121,-212.336 98.8896,-198.989 106.664,-195.702"/>
</g>
<!-- 4 -->
<g id="node5" class="node"><title>4</title>
<ellipse fill="black" stroke="black" cx="1.8" cy="-145.487" rx="1.8" ry="1.8"/>
</g>
<!-- 0&#45;&#45;4 -->
<g id="edge4" class="edge"><title>0&#45;&#45;4</title>
<path fill="none" stroke="black" d="M56.806,-214.802C49.4948,-205.588 10.2593,-156.146 2.96693,-146.957"/>
</g>
<!-- 5 -->
<g id="node6" class="node"><title>5</title>
<ellipse fill="black" stroke="black" cx="114.04" cy="-267.481" rx="1.8" ry="1.8"/>
</g>
<!-- 0&#45;&#45;5 -->
<g id="edge5" class="edge"><title>0&#45;&#45;5</title>
<path fill="none" stroke="black" d="M59.3652,-217.546C67.0539,-224.568 104.416,-258.691 112.497,-266.071"/>
</g>
<!-- 1&#45;&#45;2 -->
<g id="edge6" class="edge"><title>1&#45;&#45;2</title>
<path fill="none" stroke="black" d="M63.1341,-142.688C56.1025,-150.976 21.933,-191.255 14.5426,-199.966"/>
</g>
<!-- 1&#45;&#45;3 -->
<g id="edge7" class="edge"><title>1&#45;&#45;3</title>
<path fill="none" stroke="black" d="M65.8654,-142.983C72.6648,-151.293 101.092,-186.037 107.229,-193.537"/>
</g>
<!-- 1&#45;&#45;4 -->
<g id="edge8" class="edge"><title>1&#45;&#45;4</title>
<path fill="none" stroke="black" d="M62.5955,-141.318C53.6143,-141.933 13.8036,-144.663 3.99131,-145.336"/>
</g>
<!-- 6 -->
<g id="node7" class="node"><title>6</title>
<ellipse fill="black" stroke="black" cx="29.0679" cy="-74.7774" rx="1.8" ry="1.8"/>
</g>
<!-- 1&#45;&#45;6 -->
<g id="edge9" class="edge"><title>1&#45;&#45;6</title>
<path fill="none" stroke="black" d="M63.5281,-139.552C58.6821,-130.443 35.1338,-86.1794 30.0405,-76.6056"/>
</g>
<!-- 2&#45;&#45;3 -->
<g id="edge10" class="edge"><title>2&#45;&#45;3</title>
<path fill="none" stroke="black" d="M15.1211,-201.491C27.5194,-200.624 94.0547,-195.972 106.421,-195.107"/>
</g>
<!-- 2&#45;&#45;4 -->
<g id="edge11" class="edge"><title>2&#45;&#45;4</title>
<path fill="none" stroke="black" d="M12.7543,-199.762C11.0339,-191.238 3.93731,-156.076 2.19005,-147.419"/>
</g>
<!-- 3&#45;&#45;5 -->
<g id="edge12" class="edge"><title>3&#45;&#45;5</title>
<path fill="none" stroke="black" d="M108.563,-197.061C109.386,-207.649 113.088,-255.235 113.888,-265.518"/>
</g>
<!-- 4&#45;&#45;6 -->
<g id="edge13" class="edge"><title>4&#45;&#45;6</title>
<path fill="none" stroke="black" d="M2.47404,-143.739C6.24661,-133.956 24.7066,-86.0867 28.4174,-76.4642"/>
</g>
<!-- 7 -->
<g id="node8" class="node"><title>7</title>
<ellipse fill="black" stroke="black" cx="156.884" cy="-327.054" rx="1.8" ry="1.8"/>
</g>
<!-- 5&#45;&#45;7 -->
<g id="edge14" class="edge"><title>5&#45;&#45;7</title>
<path fill="none" stroke="black" d="M115.099,-268.953C120.975,-277.124 149.529,-316.826 155.705,-325.414"/>
</g>
<!-- 8 -->
<g id="node9" class="node"><title>8</title>
<ellipse fill="black" stroke="black" cx="18.9913" cy="-1.8" rx="1.8" ry="1.8"/>
</g>
<!-- 6&#45;&#45;8 -->
<g id="edge15" class="edge"><title>6&#45;&#45;8</title>
<path fill="none" stroke="black" d="M28.8188,-72.9734C27.4368,-62.9647 20.7212,-14.3283 19.2687,-3.80887"/>
</g>
</g>
</svg>
