<?xml version="1.0" encoding="UTF-8" standalone="no"?>
<!DOCTYPE svg PUBLIC "-//W3C//DTD SVG 1.1//EN"
 "http://www.w3.org/Graphics/SVG/1.1/DTD/svg11.dtd">
<!-- Generated by graphviz version 2.36.0 (20140111.2315)
 -->
<!-- Title: %3 Pages: 1 -->
<svg width="150pt" height="151pt"
 viewBox="0.00 0.00 149.93 150.99" xmlns="http://www.w3.org/2000/svg" xmlns:xlink="http://www.w3.org/1999/xlink">
<g id="graph0" class="graph" transform="scale(1 1) rotate(0) translate(4 146.987)">
<title>%3</title>
<!-- 0 -->
<g id="node1" class="node"><title>0</title>
<ellipse fill="black" stroke="black" cx="44.9261" cy="-71.0446" rx="1.8" ry="1.8"/>
</g>
<!-- 1 -->
<g id="node2" class="node"><title>1</title>
<ellipse fill="black" stroke="black" cx="70.6657" cy="-55.9136" rx="1.8" ry="1.8"/>
</g>
<!-- 0&#45;&#45;1 -->
<g id="edge1" class="edge"><title>0&#45;&#45;1</title>
<path fill="none" stroke="black" d="M46.6149,-70.0518C51.2676,-67.3167 64.237,-59.6927 68.9369,-56.9299"/>
</g>
<!-- 2 -->
<g id="node3" class="node"><title>2</title>
<ellipse fill="black" stroke="black" cx="5.02392" cy="-63.9154" rx="1.8" ry="1.8"/>
</g>
<!-- 0&#45;&#45;2 -->
<g id="edge2" class="edge"><title>0&#45;&#45;2</title>
<path fill="none" stroke="black" d="M42.7808,-70.6613C35.7877,-69.4119 13.7158,-65.4684 6.98906,-64.2665"/>
</g>
<!-- 3 -->
<g id="node4" class="node"><title>3</title>
<ellipse fill="black" stroke="black" cx="85.2619" cy="-102.366" rx="1.8" ry="1.8"/>
</g>
<!-- 0&#45;&#45;3 -->
<g id="edge3" class="edge"><title>0&#45;&#45;3</title>
<path fill="none" stroke="black" d="M46.6593,-72.3904C53.2941,-77.5424 77.0343,-95.9769 83.5801,-101.06"/>
</g>
<!-- 4 -->
<g id="node5" class="node"><title>4</title>
<ellipse fill="black" stroke="black" cx="47.8762" cy="-141.187" rx="1.8" ry="1.8"/>
</g>
<!-- 0&#45;&#45;4 -->
<g id="edge4" class="edge"><title>0&#45;&#45;4</title>
<path fill="none" stroke="black" d="M45.0112,-73.0682C45.442,-83.3108 47.378,-129.341 47.7963,-139.288"/>
</g>
<!-- 5 -->
<g id="node6" class="node"><title>5</title>
<ellipse fill="black" stroke="black" cx="3.33606" cy="-121.268" rx="1.8" ry="1.8"/>
</g>
<!-- 0&#45;&#45;5 -->
<g id="edge5" class="edge"><title>0&#45;&#45;5</title>
<path fill="none" stroke="black" d="M43.5423,-72.7156C37.2279,-80.3409 11.1808,-111.795 4.76769,-119.539"/>
</g>
<!-- 6 -->
<g id="node7" class="node"><title>6</title>
<ellipse fill="black" stroke="black" cx="1.8" cy="-1.8" rx="1.8" ry="1.8"/>
</g>
<!-- 0&#45;&#45;6 -->
<g id="edge6" class="edge"><title>0&#45;&#45;6</title>
<path fill="none" stroke="black" d="M43.86,-69.3329C37.9454,-59.8361 9.20364,-13.6875 2.98714,-3.70611"/>
</g>
<!-- 7 -->
<g id="node8" class="node"><title>7</title>
<ellipse fill="black" stroke="black" cx="140.129" cy="-72.3343" rx="1.8" ry="1.8"/>
</g>
<!-- 0&#45;&#45;7 -->
<g id="edge7" class="edge"><title>0&#45;&#45;7</title>
<path fill="none" stroke="black" d="M46.9145,-71.0715C59.3043,-71.2394 125.794,-72.1401 138.152,-72.3075"/>
</g>
<!-- 8 -->
<g id="node9" class="node"><title>8</title>
<ellipse fill="black" stroke="black" cx="75.8503" cy="-6.79195" rx="1.8" ry="1.8"/>
</g>
<!-- 0&#45;&#45;8 -->
<g id="edge8" class="edge"><title>0&#45;&#45;8</title>
<path fill="none" stroke="black" d="M45.8182,-69.1909C50.334,-59.8083 70.6279,-17.6428 75.0131,-8.53134"/>
</g>
<!-- 1&#45;&#45;2 -->
<g id="edge9" class="edge"><title>1&#45;&#45;2</title>
<path fill="none" stroke="black" d="M68.772,-56.1444C59.3547,-57.2924 17.6105,-62.3811 7.32165,-63.6353"/>
</g>
<!-- 1&#45;&#45;3 -->
<g id="edge10" class="edge"><title>1&#45;&#45;3</title>
<path fill="none" stroke="black" d="M71.2929,-57.9096C73.6938,-65.5505 82.2846,-92.8905 84.6533,-100.429"/>
</g>
<!-- 1&#45;&#45;4 -->
<g id="edge11" class="edge"><title>1&#45;&#45;4</title>
<path fill="none" stroke="black" d="M70.1897,-57.6946C67.2239,-68.7921 51.3077,-128.346 48.3495,-139.415"/>
</g>
<!-- 1&#45;&#45;5 -->
<g id="edge12" class="edge"><title>1&#45;&#45;5</title>
<path fill="none" stroke="black" d="M69.0014,-57.5291C59.6052,-66.6497 13.3094,-111.587 4.71151,-119.933"/>
</g>
<!-- 1&#45;&#45;6 -->
<g id="edge13" class="edge"><title>1&#45;&#45;6</title>
<path fill="none" stroke="black" d="M69.2274,-54.7833C60.2651,-47.741 12.1696,-9.94826 3.23044,-2.92402"/>
</g>
<!-- 1&#45;&#45;7 -->
<g id="edge14" class="edge"><title>1&#45;&#45;7</title>
<path fill="none" stroke="black" d="M72.6697,-56.3873C82.8133,-58.7852 128.398,-69.5612 138.249,-71.8898"/>
</g>
<!-- 2&#45;&#45;3 -->
<g id="edge15" class="edge"><title>2&#45;&#45;3</title>
<path fill="none" stroke="black" d="M6.6998,-64.7185C17.142,-69.7224 73.1799,-96.576 83.5953,-101.567"/>
</g>
<!-- 2&#45;&#45;4 -->
<g id="edge16" class="edge"><title>2&#45;&#45;4</title>
<path fill="none" stroke="black" d="M5.91895,-65.5293C11.4958,-75.5855 41.4236,-129.551 46.986,-139.582"/>
</g>
<!-- 2&#45;&#45;5 -->
<g id="edge17" class="edge"><title>2&#45;&#45;5</title>
<path fill="none" stroke="black" d="M4.96776,-65.8237C4.7115,-74.5313 3.65443,-110.45 3.39416,-119.294"/>
</g>
<!-- 2&#45;&#45;6 -->
<g id="edge18" class="edge"><title>2&#45;&#45;6</title>
<path fill="none" stroke="black" d="M4.91665,-61.8487C4.42718,-52.418 2.4081,-13.5162 1.91097,-3.93815"/>
</g>
<!-- 2&#45;&#45;8 -->
<g id="edge19" class="edge"><title>2&#45;&#45;8</title>
<path fill="none" stroke="black" d="M6.50323,-62.7223C15.7206,-55.2882 65.1855,-15.3934 74.3791,-7.97849"/>
</g>
<!-- 3&#45;&#45;4 -->
<g id="edge20" class="edge"><title>3&#45;&#45;4</title>
<path fill="none" stroke="black" d="M83.6555,-104.034C77.5059,-110.419 55.502,-133.268 49.435,-139.568"/>
</g>
<!-- 3&#45;&#45;5 -->
<g id="edge21" class="edge"><title>3&#45;&#45;5</title>
<path fill="none" stroke="black" d="M83.2368,-102.833C71.9022,-105.448 16.4394,-118.245 5.29042,-120.817"/>
</g>
<!-- 3&#45;&#45;7 -->
<g id="edge22" class="edge"><title>3&#45;&#45;7</title>
<path fill="none" stroke="black" d="M87.0875,-101.366C95.4178,-96.8069 129.78,-77.9989 138.241,-73.3681"/>
</g>
<!-- 3&#45;&#45;8 -->
<g id="edge23" class="edge"><title>3&#45;&#45;8</title>
<path fill="none" stroke="black" d="M85.0653,-100.369C83.8405,-87.9315 77.2674,-21.1831 76.0458,-8.77716"/>
</g>
</g>
</svg>
