<?xml version="1.0" encoding="UTF-8" standalone="no"?>
<!DOCTYPE svg PUBLIC "-//W3C//DTD SVG 1.1//EN"
 "http://www.w3.org/Graphics/SVG/1.1/DTD/svg11.dtd">
<!-- Generated by graphviz version 2.36.0 (20140111.2315)
 -->
<!-- Title: %3 Pages: 1 -->
<svg width="152pt" height="159pt"
 viewBox="0.00 0.00 152.22 158.89" xmlns="http://www.w3.org/2000/svg" xmlns:xlink="http://www.w3.org/1999/xlink">
<g id="graph0" class="graph" transform="scale(1 1) rotate(0) translate(4 154.893)">
<title>%3</title>
<!-- 0 -->
<g id="node1" class="node"><title>0</title>
<ellipse fill="black" stroke="black" cx="61.5204" cy="-78.5753" rx="1.8" ry="1.8"/>
</g>
<!-- 1 -->
<g id="node2" class="node"><title>1</title>
<ellipse fill="black" stroke="black" cx="89.5107" cy="-81.6614" rx="1.8" ry="1.8"/>
</g>
<!-- 0&#45;&#45;1 -->
<g id="edge1" class="edge"><title>0&#45;&#45;1</title>
<path fill="none" stroke="black" d="M63.3569,-78.7778C68.4164,-79.3357 82.5198,-80.8906 87.6307,-81.4541"/>
</g>
<!-- 2 -->
<g id="node3" class="node"><title>2</title>
<ellipse fill="black" stroke="black" cx="138.164" cy="-60.7859" rx="1.8" ry="1.8"/>
</g>
<!-- 0&#45;&#45;2 -->
<g id="edge2" class="edge"><title>0&#45;&#45;2</title>
<path fill="none" stroke="black" d="M63.415,-78.1356C74.0188,-75.6744 125.906,-63.6312 136.336,-61.2103"/>
</g>
<!-- 3 -->
<g id="node4" class="node"><title>3</title>
<ellipse fill="black" stroke="black" cx="56.7601" cy="-149.093" rx="1.8" ry="1.8"/>
</g>
<!-- 0&#45;&#45;3 -->
<g id="edge3" class="edge"><title>0&#45;&#45;3</title>
<path fill="none" stroke="black" d="M61.3831,-80.6098C60.6879,-90.9073 57.564,-137.184 56.889,-147.184"/>
</g>
<!-- 4 -->
<g id="node5" class="node"><title>4</title>
<ellipse fill="black" stroke="black" cx="142.419" cy="-120.511" rx="1.8" ry="1.8"/>
</g>
<!-- 0&#45;&#45;4 -->
<g id="edge4" class="edge"><title>0&#45;&#45;4</title>
<path fill="none" stroke="black" d="M63.2101,-79.4512C73.7382,-84.9087 130.237,-114.196 140.738,-119.64"/>
</g>
<!-- 5 -->
<g id="node6" class="node"><title>5</title>
<ellipse fill="black" stroke="black" cx="110.646" cy="-145.521" rx="1.8" ry="1.8"/>
</g>
<!-- 0&#45;&#45;5 -->
<g id="edge5" class="edge"><title>0&#45;&#45;5</title>
<path fill="none" stroke="black" d="M62.7348,-80.2302C69.4723,-89.4117 102.213,-134.028 109.294,-143.678"/>
</g>
<!-- 6 -->
<g id="node7" class="node"><title>6</title>
<ellipse fill="black" stroke="black" cx="57.9053" cy="-13.7272" rx="1.8" ry="1.8"/>
</g>
<!-- 0&#45;&#45;6 -->
<g id="edge6" class="edge"><title>0&#45;&#45;6</title>
<path fill="none" stroke="black" d="M61.4161,-76.7045C60.8975,-67.401 58.5985,-26.1616 58.0319,-15.9971"/>
</g>
<!-- 7 -->
<g id="node8" class="node"><title>7</title>
<ellipse fill="black" stroke="black" cx="105.57" cy="-1.8" rx="1.8" ry="1.8"/>
</g>
<!-- 0&#45;&#45;7 -->
<g id="edge7" class="edge"><title>0&#45;&#45;7</title>
<path fill="none" stroke="black" d="M62.4405,-76.9718C68.1731,-66.9802 98.9374,-13.3606 104.655,-3.39474"/>
</g>
<!-- 8 -->
<g id="node9" class="node"><title>8</title>
<ellipse fill="black" stroke="black" cx="1.8" cy="-107.352" rx="1.8" ry="1.8"/>
</g>
<!-- 0&#45;&#45;8 -->
<g id="edge8" class="edge"><title>0&#45;&#45;8</title>
<path fill="none" stroke="black" d="M59.7975,-79.4055C51.2297,-83.534 13.2512,-101.834 3.89046,-106.344"/>
</g>
<!-- 1&#45;&#45;2 -->
<g id="edge9" class="edge"><title>1&#45;&#45;2</title>
<path fill="none" stroke="black" d="M91.6012,-80.7644C99.6043,-77.3306 128.24,-65.044 136.136,-61.6563"/>
</g>
<!-- 1&#45;&#45;3 -->
<g id="edge10" class="edge"><title>1&#45;&#45;3</title>
<path fill="none" stroke="black" d="M88.7011,-83.3283C84.2094,-92.5765 62.3826,-137.517 57.6617,-147.237"/>
</g>
<!-- 1&#45;&#45;4 -->
<g id="edge11" class="edge"><title>1&#45;&#45;4</title>
<path fill="none" stroke="black" d="M91.271,-82.954C99.3038,-88.8523 132.439,-113.183 140.597,-119.173"/>
</g>
<!-- 1&#45;&#45;5 -->
<g id="edge12" class="edge"><title>1&#45;&#45;5</title>
<path fill="none" stroke="black" d="M90.1204,-83.5037C93.2068,-92.8289 107.077,-134.736 110.074,-143.792"/>
</g>
<!-- 1&#45;&#45;6 -->
<g id="edge13" class="edge"><title>1&#45;&#45;6</title>
<path fill="none" stroke="black" d="M88.7294,-79.9821C84.3948,-70.665 63.3311,-25.3897 58.7753,-15.5972"/>
</g>
<!-- 1&#45;&#45;7 -->
<g id="edge14" class="edge"><title>1&#45;&#45;7</title>
<path fill="none" stroke="black" d="M89.9076,-79.6873C92.1295,-68.6383 103.002,-14.5731 105.187,-3.70511"/>
</g>
<!-- 1&#45;&#45;8 -->
<g id="edge15" class="edge"><title>1&#45;&#45;8</title>
<path fill="none" stroke="black" d="M87.6787,-82.198C76.264,-85.5413 15.0072,-103.483 3.62188,-106.818"/>
</g>
<!-- 2&#45;&#45;4 -->
<g id="edge16" class="edge"><title>2&#45;&#45;4</title>
<path fill="none" stroke="black" d="M138.306,-62.7731C138.952,-71.8408 141.616,-109.245 142.272,-118.455"/>
</g>
<!-- 2&#45;&#45;5 -->
<g id="edge17" class="edge"><title>2&#45;&#45;5</title>
<path fill="none" stroke="black" d="M137.59,-62.5557C134.008,-73.5832 114.79,-132.762 111.218,-143.761"/>
</g>
<!-- 2&#45;&#45;6 -->
<g id="edge18" class="edge"><title>2&#45;&#45;6</title>
<path fill="none" stroke="black" d="M136.488,-59.803C126.043,-53.6788 69.9905,-20.8132 59.5724,-14.7047"/>
</g>
<!-- 3&#45;&#45;4 -->
<g id="edge19" class="edge"><title>3&#45;&#45;4</title>
<path fill="none" stroke="black" d="M58.5492,-148.496C69.6969,-144.777 129.52,-124.815 140.639,-121.104"/>
</g>
<!-- 3&#45;&#45;5 -->
<g id="edge20" class="edge"><title>3&#45;&#45;5</title>
<path fill="none" stroke="black" d="M59.0756,-148.94C67.9393,-148.352 99.6548,-146.25 108.399,-145.67"/>
</g>
<!-- 3&#45;&#45;8 -->
<g id="edge21" class="edge"><title>3&#45;&#45;8</title>
<path fill="none" stroke="black" d="M54.9315,-147.705C46.4381,-141.254 10.929,-114.285 3.26296,-108.463"/>
</g>
<!-- 4&#45;&#45;5 -->
<g id="edge22" class="edge"><title>4&#45;&#45;5</title>
<path fill="none" stroke="black" d="M140.71,-121.855C135.142,-126.239 117.567,-140.073 112.211,-144.289"/>
</g>
<!-- 6&#45;&#45;7 -->
<g id="edge23" class="edge"><title>6&#45;&#45;7</title>
<path fill="none" stroke="black" d="M59.9534,-13.2147C67.7938,-11.2528 95.8477,-4.23287 103.583,-2.29731"/>
</g>
</g>
</svg>
