<?xml version="1.0" encoding="UTF-8" standalone="no"?>
<!DOCTYPE svg PUBLIC "-//W3C//DTD SVG 1.1//EN"
 "http://www.w3.org/Graphics/SVG/1.1/DTD/svg11.dtd">
<!-- Generated by graphviz version 2.36.0 (20140111.2315)
 -->
<!-- Title: %3 Pages: 1 -->
<svg width="147pt" height="228pt"
 viewBox="0.00 0.00 146.61 227.95" xmlns="http://www.w3.org/2000/svg" xmlns:xlink="http://www.w3.org/1999/xlink">
<g id="graph0" class="graph" transform="scale(1 1) rotate(0) translate(4 223.952)">
<title>%3</title>
<!-- 0 -->
<g id="node1" class="node"><title>0</title>
<ellipse fill="black" stroke="black" cx="73.4757" cy="-142.99" rx="1.8" ry="1.8"/>
</g>
<!-- 1 -->
<g id="node2" class="node"><title>1</title>
<ellipse fill="black" stroke="black" cx="59.317" cy="-74.3052" rx="1.8" ry="1.8"/>
</g>
<!-- 0&#45;&#45;1 -->
<g id="edge1" class="edge"><title>0&#45;&#45;1</title>
<path fill="none" stroke="black" d="M73.0672,-141.008C70.9997,-130.978 61.7081,-85.9045 59.7003,-76.1646"/>
</g>
<!-- 4 -->
<g id="node3" class="node"><title>4</title>
<ellipse fill="black" stroke="black" cx="133.032" cy="-86.1008" rx="1.8" ry="1.8"/>
</g>
<!-- 0&#45;&#45;4 -->
<g id="edge2" class="edge"><title>0&#45;&#45;4</title>
<path fill="none" stroke="black" d="M74.9479,-141.583C83.1159,-133.781 122.807,-95.8671 131.392,-87.6668"/>
</g>
<!-- 5 -->
<g id="node4" class="node"><title>5</title>
<ellipse fill="black" stroke="black" cx="1.8" cy="-105.649" rx="1.8" ry="1.8"/>
</g>
<!-- 0&#45;&#45;5 -->
<g id="edge3" class="edge"><title>0&#45;&#45;5</title>
<path fill="none" stroke="black" d="M71.704,-142.067C61.7875,-136.901 13.2639,-111.621 3.50984,-106.54"/>
</g>
<!-- 7 -->
<g id="node5" class="node"><title>7</title>
<ellipse fill="black" stroke="black" cx="84.5606" cy="-218.152" rx="1.8" ry="1.8"/>
</g>
<!-- 0&#45;&#45;7 -->
<g id="edge4" class="edge"><title>0&#45;&#45;7</title>
<path fill="none" stroke="black" d="M73.7497,-144.848C75.2833,-155.247 82.7876,-206.131 84.2961,-216.359"/>
</g>
<!-- 1&#45;&#45;5 -->
<g id="edge7" class="edge"><title>1&#45;&#45;5</title>
<path fill="none" stroke="black" d="M57.4034,-75.3481C48.6708,-80.1069 12.6489,-99.737 3.77987,-104.57"/>
</g>
<!-- 2 -->
<g id="node6" class="node"><title>2</title>
<ellipse fill="black" stroke="black" cx="136.814" cy="-27.0122" rx="1.8" ry="1.8"/>
</g>
<!-- 1&#45;&#45;2 -->
<g id="edge5" class="edge"><title>1&#45;&#45;2</title>
<path fill="none" stroke="black" d="M60.9357,-73.3174C71.0212,-67.1627 125.145,-34.1334 135.205,-27.9945"/>
</g>
<!-- 3 -->
<g id="node7" class="node"><title>3</title>
<ellipse fill="black" stroke="black" cx="7.48312" cy="-26.4621" rx="1.8" ry="1.8"/>
</g>
<!-- 1&#45;&#45;3 -->
<g id="edge6" class="edge"><title>1&#45;&#45;3</title>
<path fill="none" stroke="black" d="M57.5924,-72.7134C49.5822,-65.3198 16.0928,-34.409 8.86287,-27.7356"/>
</g>
<!-- 6 -->
<g id="node8" class="node"><title>6</title>
<ellipse fill="black" stroke="black" cx="84.0136" cy="-1.8" rx="1.8" ry="1.8"/>
</g>
<!-- 4&#45;&#45;6 -->
<g id="edge12" class="edge"><title>4&#45;&#45;6</title>
<path fill="none" stroke="black" d="M132.008,-84.34C125.628,-73.3691 91.3946,-14.4938 85.0318,-3.55105"/>
</g>
<!-- 2&#45;&#45;4 -->
<g id="edge8" class="edge"><title>2&#45;&#45;4</title>
<path fill="none" stroke="black" d="M136.689,-28.9781C136.114,-37.9493 133.745,-74.9555 133.162,-84.0668"/>
</g>
<!-- 2&#45;&#45;6 -->
<g id="edge9" class="edge"><title>2&#45;&#45;6</title>
<path fill="none" stroke="black" d="M135.058,-26.1733C127.041,-22.3455 93.9729,-6.55553 85.8311,-2.66786"/>
</g>
<!-- 3&#45;&#45;5 -->
<g id="edge10" class="edge"><title>3&#45;&#45;5</title>
<path fill="none" stroke="black" d="M7.34264,-28.4196C6.55637,-39.3752 2.70897,-92.9839 1.93557,-103.76"/>
</g>
<!-- 3&#45;&#45;6 -->
<g id="edge11" class="edge"><title>3&#45;&#45;6</title>
<path fill="none" stroke="black" d="M9.3749,-25.8525C19.963,-22.4404 71.7732,-5.74449 82.188,-2.38832"/>
</g>
</g>
</svg>
