<?xml version="1.0" encoding="UTF-8" standalone="no"?>
<!DOCTYPE svg PUBLIC "-//W3C//DTD SVG 1.1//EN"
 "http://www.w3.org/Graphics/SVG/1.1/DTD/svg11.dtd">
<!-- Generated by graphviz version 2.36.0 (20140111.2315)
 -->
<!-- Title: %3 Pages: 1 -->
<svg width="149pt" height="179pt"
 viewBox="0.00 0.00 149.44 179.04" xmlns="http://www.w3.org/2000/svg" xmlns:xlink="http://www.w3.org/1999/xlink">
<g id="graph0" class="graph" transform="scale(1 1) rotate(0) translate(4 175.042)">
<title>%3</title>
<!-- 0 -->
<g id="node1" class="node"><title>0</title>
<ellipse fill="black" stroke="black" cx="62.7965" cy="-66.1448" rx="1.8" ry="1.8"/>
</g>
<!-- 1 -->
<g id="node2" class="node"><title>1</title>
<ellipse fill="black" stroke="black" cx="60.7972" cy="-118.206" rx="1.8" ry="1.8"/>
</g>
<!-- 0&#45;&#45;1 -->
<g id="edge1" class="edge"><title>0&#45;&#45;1</title>
<path fill="none" stroke="black" d="M62.7105,-68.3818C62.3817,-76.9453 61.205,-107.587 60.8806,-116.035"/>
</g>
<!-- 2 -->
<g id="node3" class="node"><title>2</title>
<ellipse fill="black" stroke="black" cx="86.8873" cy="-96.2316" rx="1.8" ry="1.8"/>
</g>
<!-- 0&#45;&#45;2 -->
<g id="edge2" class="edge"><title>0&#45;&#45;2</title>
<path fill="none" stroke="black" d="M64.0917,-67.7624C68.3137,-73.0353 81.6396,-89.6778 85.7008,-94.7499"/>
</g>
<!-- 3 -->
<g id="node4" class="node"><title>3</title>
<ellipse fill="black" stroke="black" cx="20.9844" cy="-135.918" rx="1.8" ry="1.8"/>
</g>
<!-- 0&#45;&#45;3 -->
<g id="edge3" class="edge"><title>0&#45;&#45;3</title>
<path fill="none" stroke="black" d="M61.7629,-67.8695C56.0284,-77.4388 28.1625,-123.939 22.1354,-133.997"/>
</g>
<!-- 4 -->
<g id="node5" class="node"><title>4</title>
<ellipse fill="black" stroke="black" cx="119.27" cy="-132.313" rx="1.8" ry="1.8"/>
</g>
<!-- 0&#45;&#45;4 -->
<g id="edge4" class="edge"><title>0&#45;&#45;4</title>
<path fill="none" stroke="black" d="M64.1924,-67.7804C71.9377,-76.8553 109.575,-120.953 117.715,-130.491"/>
</g>
<!-- 5 -->
<g id="node6" class="node"><title>5</title>
<ellipse fill="black" stroke="black" cx="71.9009" cy="-169.242" rx="1.8" ry="1.8"/>
</g>
<!-- 0&#45;&#45;5 -->
<g id="edge5" class="edge"><title>0&#45;&#45;5</title>
<path fill="none" stroke="black" d="M62.9866,-68.2981C64.1817,-81.8309 70.64,-154.964 71.7411,-167.433"/>
</g>
<!-- 6 -->
<g id="node7" class="node"><title>6</title>
<ellipse fill="black" stroke="black" cx="1.8" cy="-70.2299" rx="1.8" ry="1.8"/>
</g>
<!-- 0&#45;&#45;6 -->
<g id="edge6" class="edge"><title>0&#45;&#45;6</title>
<path fill="none" stroke="black" d="M60.767,-66.2807C51.5062,-66.9009 13.3052,-69.4594 3.89964,-70.0893"/>
</g>
<!-- 7 -->
<g id="node8" class="node"><title>7</title>
<ellipse fill="black" stroke="black" cx="139.639" cy="-63.1986" rx="1.8" ry="1.8"/>
</g>
<!-- 0&#45;&#45;7 -->
<g id="edge7" class="edge"><title>0&#45;&#45;7</title>
<path fill="none" stroke="black" d="M64.6959,-66.072C75.3272,-65.6643 127.348,-63.6698 137.806,-63.2688"/>
</g>
<!-- 8 -->
<g id="node9" class="node"><title>8</title>
<ellipse fill="black" stroke="black" cx="20.7144" cy="-1.8" rx="1.8" ry="1.8"/>
</g>
<!-- 0&#45;&#45;8 -->
<g id="edge8" class="edge"><title>0&#45;&#45;8</title>
<path fill="none" stroke="black" d="M61.7562,-64.5542C55.9847,-55.7294 27.9388,-12.8463 21.8728,-3.57123"/>
</g>
<!-- 1&#45;&#45;2 -->
<g id="edge9" class="edge"><title>1&#45;&#45;2</title>
<path fill="none" stroke="black" d="M62.2,-117.025C66.6877,-113.245 80.6729,-101.466 85.3478,-97.5282"/>
</g>
<!-- 1&#45;&#45;3 -->
<g id="edge10" class="edge"><title>1&#45;&#45;3</title>
<path fill="none" stroke="black" d="M59.0865,-118.967C52.5377,-121.88 29.1053,-132.305 22.6444,-135.179"/>
</g>
<!-- 1&#45;&#45;4 -->
<g id="edge11" class="edge"><title>1&#45;&#45;4</title>
<path fill="none" stroke="black" d="M62.7427,-118.675C71.6204,-120.817 108.241,-129.652 117.257,-131.827"/>
</g>
<!-- 1&#45;&#45;5 -->
<g id="edge12" class="edge"><title>1&#45;&#45;5</title>
<path fill="none" stroke="black" d="M61.2743,-120.399C63.1008,-128.794 69.636,-158.832 71.4379,-167.114"/>
</g>
<!-- 1&#45;&#45;6 -->
<g id="edge13" class="edge"><title>1&#45;&#45;6</title>
<path fill="none" stroke="black" d="M59.3389,-117.02C51.2475,-110.44 11.9283,-78.4662 3.42403,-71.5506"/>
</g>
<!-- 1&#45;&#45;7 -->
<g id="edge14" class="edge"><title>1&#45;&#45;7</title>
<path fill="none" stroke="black" d="M62.444,-117.057C72.7044,-109.898 127.767,-71.4814 138.001,-64.3412"/>
</g>
<!-- 2&#45;&#45;3 -->
<g id="edge15" class="edge"><title>2&#45;&#45;3</title>
<path fill="none" stroke="black" d="M85.2582,-97.2126C76.2197,-102.656 32.2982,-129.105 22.7985,-134.825"/>
</g>
<!-- 2&#45;&#45;4 -->
<g id="edge16" class="edge"><title>2&#45;&#45;4</title>
<path fill="none" stroke="black" d="M88.2787,-97.782C93.6053,-103.717 112.665,-124.953 117.92,-130.808"/>
</g>
<!-- 2&#45;&#45;5 -->
<g id="edge17" class="edge"><title>2&#45;&#45;5</title>
<path fill="none" stroke="black" d="M86.5168,-98.0364C84.4614,-108.05 74.4736,-156.708 72.3134,-167.232"/>
</g>
<!-- 2&#45;&#45;6 -->
<g id="edge18" class="edge"><title>2&#45;&#45;6</title>
<path fill="none" stroke="black" d="M85.1101,-95.6885C74.0368,-92.3047 14.6122,-74.1452 3.56739,-70.77"/>
</g>
<!-- 3&#45;&#45;4 -->
<g id="edge19" class="edge"><title>3&#45;&#45;4</title>
<path fill="none" stroke="black" d="M23.0372,-135.842C35.8282,-135.373 104.47,-132.856 117.228,-132.388"/>
</g>
<!-- 3&#45;&#45;5 -->
<g id="edge20" class="edge"><title>3&#45;&#45;5</title>
<path fill="none" stroke="black" d="M22.6785,-137.026C30.4089,-142.086 62.297,-162.956 70.1482,-168.095"/>
</g>
<!-- 3&#45;&#45;6 -->
<g id="edge21" class="edge"><title>3&#45;&#45;6</title>
<path fill="none" stroke="black" d="M20.4309,-134.023C17.6295,-124.43 5.03982,-81.3231 2.31934,-72.0082"/>
</g>
<!-- 4&#45;&#45;5 -->
<g id="edge22" class="edge"><title>4&#45;&#45;5</title>
<path fill="none" stroke="black" d="M117.694,-133.542C110.502,-139.148 80.8356,-162.276 73.5314,-167.971"/>
</g>
<!-- 4&#45;&#45;7 -->
<g id="edge23" class="edge"><title>4&#45;&#45;7</title>
<path fill="none" stroke="black" d="M119.858,-130.319C122.832,-120.226 136.199,-74.8704 139.087,-65.0696"/>
</g>
<!-- 6&#45;&#45;8 -->
<g id="edge24" class="edge"><title>6&#45;&#45;8</title>
<path fill="none" stroke="black" d="M2.34567,-68.2558C5.10769,-58.2631 17.5202,-13.3563 20.2023,-3.65248"/>
</g>
</g>
</svg>
