<?xml version="1.0" encoding="UTF-8" standalone="no"?>
<!DOCTYPE svg PUBLIC "-//W3C//DTD SVG 1.1//EN"
 "http://www.w3.org/Graphics/SVG/1.1/DTD/svg11.dtd">
<!-- Generated by graphviz version 2.36.0 (20140111.2315)
 -->
<!-- Title: %3 Pages: 1 -->
<svg width="200pt" height="205pt"
 viewBox="0.00 0.00 200.39 205.07" xmlns="http://www.w3.org/2000/svg" xmlns:xlink="http://www.w3.org/1999/xlink">
<g id="graph0" class="graph" transform="scale(1 1) rotate(0) translate(4 201.073)">
<title>%3</title>
<!-- 0 -->
<g id="node1" class="node"><title>0</title>
<ellipse fill="black" stroke="black" cx="69.6298" cy="-130.704" rx="1.8" ry="1.8"/>
</g>
<!-- 1 -->
<g id="node2" class="node"><title>1</title>
<ellipse fill="black" stroke="black" cx="127.43" cy="-153.993" rx="1.8" ry="1.8"/>
</g>
<!-- 0&#45;&#45;1 -->
<g id="edge1" class="edge"><title>0&#45;&#45;1</title>
<path fill="none" stroke="black" d="M71.553,-131.479C80.3286,-135.015 116.528,-149.6 125.441,-153.191"/>
</g>
<!-- 2 -->
<g id="node3" class="node"><title>2</title>
<ellipse fill="black" stroke="black" cx="113.888" cy="-73.5831" rx="1.8" ry="1.8"/>
</g>
<!-- 0&#45;&#45;2 -->
<g id="edge2" class="edge"><title>0&#45;&#45;2</title>
<path fill="none" stroke="black" d="M71.1024,-128.804C77.9419,-119.976 106.536,-83.071 112.71,-75.1035"/>
</g>
<!-- 4 -->
<g id="node4" class="node"><title>4</title>
<ellipse fill="black" stroke="black" cx="1.8" cy="-116.267" rx="1.8" ry="1.8"/>
</g>
<!-- 0&#45;&#45;4 -->
<g id="edge3" class="edge"><title>0&#45;&#45;4</title>
<path fill="none" stroke="black" d="M67.673,-130.288C57.768,-128.179 13.255,-118.705 3.63623,-116.658"/>
</g>
<!-- 5 -->
<g id="node5" class="node"><title>5</title>
<ellipse fill="black" stroke="black" cx="47.6003" cy="-187.027" rx="1.8" ry="1.8"/>
</g>
<!-- 0&#45;&#45;5 -->
<g id="edge4" class="edge"><title>0&#45;&#45;5</title>
<path fill="none" stroke="black" d="M68.8969,-132.578C65.5522,-141.129 51.7555,-176.404 48.3586,-185.088"/>
</g>
<!-- 1&#45;&#45;2 -->
<g id="edge5" class="edge"><title>1&#45;&#45;2</title>
<path fill="none" stroke="black" d="M127.096,-152.005C125.222,-140.881 116.054,-86.4439 114.211,-75.5013"/>
</g>
<!-- 1&#45;&#45;5 -->
<g id="edge6" class="edge"><title>1&#45;&#45;5</title>
<path fill="none" stroke="black" d="M125.763,-154.683C115.464,-158.945 60.5788,-181.657 49.5366,-186.226"/>
</g>
<!-- 7 -->
<g id="node6" class="node"><title>7</title>
<ellipse fill="black" stroke="black" cx="190.588" cy="-195.273" rx="1.8" ry="1.8"/>
</g>
<!-- 1&#45;&#45;7 -->
<g id="edge7" class="edge"><title>1&#45;&#45;7</title>
<path fill="none" stroke="black" d="M128.992,-155.014C137.654,-160.675 179.746,-188.186 188.85,-194.137"/>
</g>
<!-- 3 -->
<g id="node7" class="node"><title>3</title>
<ellipse fill="black" stroke="black" cx="38.9261" cy="-42.6657" rx="1.8" ry="1.8"/>
</g>
<!-- 2&#45;&#45;3 -->
<g id="edge8" class="edge"><title>2&#45;&#45;3</title>
<path fill="none" stroke="black" d="M112.035,-72.8188C101.664,-68.5413 50.9155,-47.6107 40.7143,-43.4033"/>
</g>
<!-- 6 -->
<g id="node8" class="node"><title>6</title>
<ellipse fill="black" stroke="black" cx="99.4462" cy="-1.8" rx="1.8" ry="1.8"/>
</g>
<!-- 2&#45;&#45;6 -->
<g id="edge9" class="edge"><title>2&#45;&#45;6</title>
<path fill="none" stroke="black" d="M113.531,-71.8086C111.55,-61.9637 101.925,-14.1233 99.8437,-3.77599"/>
</g>
<!-- 4&#45;&#45;5 -->
<g id="edge12" class="edge"><title>4&#45;&#45;5</title>
<path fill="none" stroke="black" d="M2.93215,-118.017C9.26871,-127.806 40.275,-175.71 46.5078,-185.339"/>
</g>
<!-- 3&#45;&#45;4 -->
<g id="edge10" class="edge"><title>3&#45;&#45;4</title>
<path fill="none" stroke="black" d="M38.0083,-44.4851C32.8719,-54.6681 7.73799,-104.496 2.68565,-114.512"/>
</g>
<!-- 3&#45;&#45;6 -->
<g id="edge11" class="edge"><title>3&#45;&#45;6</title>
<path fill="none" stroke="black" d="M40.4221,-41.6556C48.7224,-36.0509 89.0564,-8.81559 97.7802,-2.92492"/>
</g>
</g>
</svg>
