<?xml version="1.0" encoding="UTF-8" standalone="no"?>
<!DOCTYPE svg PUBLIC "-//W3C//DTD SVG 1.1//EN"
 "http://www.w3.org/Graphics/SVG/1.1/DTD/svg11.dtd">
<!-- Generated by graphviz version 2.36.0 (20140111.2315)
 -->
<!-- Title: %3 Pages: 1 -->
<svg width="181pt" height="209pt"
 viewBox="0.00 0.00 181.10 208.94" xmlns="http://www.w3.org/2000/svg" xmlns:xlink="http://www.w3.org/1999/xlink">
<g id="graph0" class="graph" transform="scale(1 1) rotate(0) translate(4 204.936)">
<title>%3</title>
<!-- 0 -->
<g id="node1" class="node"><title>0</title>
<ellipse fill="black" stroke="black" cx="64.4296" cy="-105.283" rx="1.8" ry="1.8"/>
</g>
<!-- 1 -->
<g id="node2" class="node"><title>1</title>
<ellipse fill="black" stroke="black" cx="90.796" cy="-128.153" rx="1.8" ry="1.8"/>
</g>
<!-- 0&#45;&#45;1 -->
<g id="edge1" class="edge"><title>0&#45;&#45;1</title>
<path fill="none" stroke="black" d="M65.8472,-106.513C70.3825,-110.447 84.5159,-122.706 89.2402,-126.803"/>
</g>
<!-- 2 -->
<g id="node3" class="node"><title>2</title>
<ellipse fill="black" stroke="black" cx="26.2732" cy="-140.402" rx="1.8" ry="1.8"/>
</g>
<!-- 0&#45;&#45;2 -->
<g id="edge2" class="edge"><title>0&#45;&#45;2</title>
<path fill="none" stroke="black" d="M62.7901,-106.792C56.5137,-112.569 34.0562,-133.238 27.8642,-138.937"/>
</g>
<!-- 3 -->
<g id="node4" class="node"><title>3</title>
<ellipse fill="black" stroke="black" cx="20.0754" cy="-173.08" rx="1.8" ry="1.8"/>
</g>
<!-- 0&#45;&#45;3 -->
<g id="edge3" class="edge"><title>0&#45;&#45;3</title>
<path fill="none" stroke="black" d="M63.3332,-106.959C57.2501,-116.258 27.6899,-161.441 21.2963,-171.214"/>
</g>
<!-- 4 -->
<g id="node5" class="node"><title>4</title>
<ellipse fill="black" stroke="black" cx="101.464" cy="-179.914" rx="1.8" ry="1.8"/>
</g>
<!-- 0&#45;&#45;4 -->
<g id="edge4" class="edge"><title>0&#45;&#45;4</title>
<path fill="none" stroke="black" d="M65.3451,-107.128C70.4688,-117.453 95.5404,-167.977 100.58,-178.133"/>
</g>
<!-- 5 -->
<g id="node6" class="node"><title>5</title>
<ellipse fill="black" stroke="black" cx="64.938" cy="-199.136" rx="1.8" ry="1.8"/>
</g>
<!-- 0&#45;&#45;5 -->
<g id="edge5" class="edge"><title>0&#45;&#45;5</title>
<path fill="none" stroke="black" d="M64.4402,-107.244C64.5064,-119.458 64.8615,-185.004 64.9275,-197.187"/>
</g>
<!-- 6 -->
<g id="node7" class="node"><title>6</title>
<ellipse fill="black" stroke="black" cx="1.8" cy="-91.1758" rx="1.8" ry="1.8"/>
</g>
<!-- 0&#45;&#45;6 -->
<g id="edge6" class="edge"><title>0&#45;&#45;6</title>
<path fill="none" stroke="black" d="M62.6228,-104.876C53.6376,-102.852 13.809,-93.8809 3.9923,-91.6697"/>
</g>
<!-- 7 -->
<g id="node8" class="node"><title>7</title>
<ellipse fill="black" stroke="black" cx="128.122" cy="-61.7462" rx="1.8" ry="1.8"/>
</g>
<!-- 0&#45;&#45;7 -->
<g id="edge7" class="edge"><title>0&#45;&#45;7</title>
<path fill="none" stroke="black" d="M66.004,-104.207C74.7393,-98.2361 117.187,-69.2204 126.368,-62.9446"/>
</g>
<!-- 1&#45;&#45;2 -->
<g id="edge8" class="edge"><title>1&#45;&#45;2</title>
<path fill="none" stroke="black" d="M88.9345,-128.506C79.6777,-130.263 38.6453,-138.053 28.5318,-139.973"/>
</g>
<!-- 1&#45;&#45;3 -->
<g id="edge9" class="edge"><title>1&#45;&#45;3</title>
<path fill="none" stroke="black" d="M89.0478,-129.263C79.2635,-135.479 31.3865,-165.895 21.7625,-172.009"/>
</g>
<!-- 1&#45;&#45;4 -->
<g id="edge10" class="edge"><title>1&#45;&#45;4</title>
<path fill="none" stroke="black" d="M91.2544,-130.377C93.0091,-138.891 99.2877,-169.356 101.019,-177.755"/>
</g>
<!-- 1&#45;&#45;5 -->
<g id="edge11" class="edge"><title>1&#45;&#45;5</title>
<path fill="none" stroke="black" d="M90.1568,-129.907C86.5793,-139.728 69.0738,-187.783 65.5549,-197.443"/>
</g>
<!-- 1&#45;&#45;6 -->
<g id="edge12" class="edge"><title>1&#45;&#45;6</title>
<path fill="none" stroke="black" d="M88.9372,-127.38C77.3552,-122.568 15.2007,-96.7437 3.64858,-91.9439"/>
</g>
<!-- 1&#45;&#45;7 -->
<g id="edge13" class="edge"><title>1&#45;&#45;7</title>
<path fill="none" stroke="black" d="M91.7187,-126.511C96.8378,-117.404 121.714,-73.1464 127.094,-63.5741"/>
</g>
<!-- 2&#45;&#45;3 -->
<g id="edge14" class="edge"><title>2&#45;&#45;3</title>
<path fill="none" stroke="black" d="M25.8666,-142.546C24.7247,-148.566 21.5025,-165.556 20.4286,-171.218"/>
</g>
<!-- 2&#45;&#45;4 -->
<g id="edge15" class="edge"><title>2&#45;&#45;4</title>
<path fill="none" stroke="black" d="M28.1319,-141.378C38.5346,-146.845 89.4376,-173.594 99.67,-178.971"/>
</g>
<!-- 2&#45;&#45;5 -->
<g id="edge16" class="edge"><title>2&#45;&#45;5</title>
<path fill="none" stroke="black" d="M27.3887,-142.096C33.0348,-150.673 58.4084,-189.217 63.8913,-197.546"/>
</g>
<!-- 2&#45;&#45;6 -->
<g id="edge17" class="edge"><title>2&#45;&#45;6</title>
<path fill="none" stroke="black" d="M25.459,-138.764C21.7433,-131.29 6.41615,-100.461 2.64242,-92.8703"/>
</g>
<!-- 3&#45;&#45;4 -->
<g id="edge18" class="edge"><title>3&#45;&#45;4</title>
<path fill="none" stroke="black" d="M22.0873,-173.249C33.3475,-174.195 88.4463,-178.821 99.5221,-179.751"/>
</g>
<!-- 3&#45;&#45;5 -->
<g id="edge19" class="edge"><title>3&#45;&#45;5</title>
<path fill="none" stroke="black" d="M22.0031,-174.2C29.3825,-178.486 55.7871,-193.822 63.0675,-198.05"/>
</g>
<!-- 3&#45;&#45;6 -->
<g id="edge20" class="edge"><title>3&#45;&#45;6</title>
<path fill="none" stroke="black" d="M19.6236,-171.056C17.0952,-159.724 4.72299,-104.276 2.23596,-93.1297"/>
</g>
<!-- 8 -->
<g id="node9" class="node"><title>8</title>
<ellipse fill="black" stroke="black" cx="171.304" cy="-1.8" rx="1.8" ry="1.8"/>
</g>
<!-- 7&#45;&#45;8 -->
<g id="edge21" class="edge"><title>7&#45;&#45;8</title>
<path fill="none" stroke="black" d="M129.189,-60.2643C135.112,-52.0428 163.891,-12.0912 170.116,-3.45015"/>
</g>
</g>
</svg>
