<?xml version="1.0" encoding="UTF-8" standalone="no"?>
<!DOCTYPE svg PUBLIC "-//W3C//DTD SVG 1.1//EN"
 "http://www.w3.org/Graphics/SVG/1.1/DTD/svg11.dtd">
<!-- Generated by graphviz version 2.36.0 (20140111.2315)
 -->
<!-- Title: %3 Pages: 1 -->
<svg width="172pt" height="166pt"
 viewBox="0.00 0.00 171.51 166.01" xmlns="http://www.w3.org/2000/svg" xmlns:xlink="http://www.w3.org/1999/xlink">
<g id="graph0" class="graph" transform="scale(1 1) rotate(0) translate(4 162.01)">
<title>%3</title>
<!-- 0 -->
<g id="node1" class="node"><title>0</title>
<ellipse fill="black" stroke="black" cx="90.3901" cy="-79.2707" rx="1.8" ry="1.8"/>
</g>
<!-- 1 -->
<g id="node2" class="node"><title>1</title>
<ellipse fill="black" stroke="black" cx="107.443" cy="-150.641" rx="1.8" ry="1.8"/>
</g>
<!-- 0&#45;&#45;1 -->
<g id="edge1" class="edge"><title>0&#45;&#45;1</title>
<path fill="none" stroke="black" d="M90.8117,-81.0349C93.1504,-90.8232 104.515,-138.388 106.974,-148.676"/>
</g>
<!-- 2 -->
<g id="node3" class="node"><title>2</title>
<ellipse fill="black" stroke="black" cx="23.3497" cy="-127.908" rx="1.8" ry="1.8"/>
</g>
<!-- 0&#45;&#45;2 -->
<g id="edge2" class="edge"><title>0&#45;&#45;2</title>
<path fill="none" stroke="black" d="M88.7329,-80.473C79.5384,-87.1435 34.8588,-119.558 25.1951,-126.569"/>
</g>
<!-- 3 -->
<g id="node4" class="node"><title>3</title>
<ellipse fill="black" stroke="black" cx="44.9475" cy="-156.21" rx="1.8" ry="1.8"/>
</g>
<!-- 0&#45;&#45;3 -->
<g id="edge3" class="edge"><title>0&#45;&#45;3</title>
<path fill="none" stroke="black" d="M89.441,-80.8777C83.5271,-90.8906 51.7901,-144.625 45.8914,-154.612"/>
</g>
<!-- 4 -->
<g id="node5" class="node"><title>4</title>
<ellipse fill="black" stroke="black" cx="84.9293" cy="-122.385" rx="1.8" ry="1.8"/>
</g>
<!-- 0&#45;&#45;4 -->
<g id="edge4" class="edge"><title>0&#45;&#45;4</title>
<path fill="none" stroke="black" d="M90.1555,-81.1233C89.2572,-88.2152 86.0432,-113.591 85.157,-120.588"/>
</g>
<!-- 5 -->
<g id="node6" class="node"><title>5</title>
<ellipse fill="black" stroke="black" cx="47.7582" cy="-66.2907" rx="1.8" ry="1.8"/>
</g>
<!-- 0&#45;&#45;5 -->
<g id="edge5" class="edge"><title>0&#45;&#45;5</title>
<path fill="none" stroke="black" d="M88.5583,-78.713C81.5458,-76.5779 56.4541,-68.9383 49.5358,-66.8319"/>
</g>
<!-- 6 -->
<g id="node7" class="node"><title>6</title>
<ellipse fill="black" stroke="black" cx="1.8" cy="-88.4111" rx="1.8" ry="1.8"/>
</g>
<!-- 0&#45;&#45;6 -->
<g id="edge6" class="edge"><title>0&#45;&#45;6</title>
<path fill="none" stroke="black" d="M88.5398,-79.4616C77.0106,-80.6512 15.1396,-87.0347 3.64015,-88.2212"/>
</g>
<!-- 7 -->
<g id="node8" class="node"><title>7</title>
<ellipse fill="black" stroke="black" cx="161.709" cy="-107.973" rx="1.8" ry="1.8"/>
</g>
<!-- 0&#45;&#45;7 -->
<g id="edge7" class="edge"><title>0&#45;&#45;7</title>
<path fill="none" stroke="black" d="M92.1531,-79.9802C102.02,-83.9513 150.302,-103.383 160.007,-107.289"/>
</g>
<!-- 8 -->
<g id="node9" class="node"><title>8</title>
<ellipse fill="black" stroke="black" cx="86.052" cy="-1.8" rx="1.8" ry="1.8"/>
</g>
<!-- 0&#45;&#45;8 -->
<g id="edge8" class="edge"><title>0&#45;&#45;8</title>
<path fill="none" stroke="black" d="M90.2829,-77.3557C89.6827,-66.6375 86.7458,-14.1908 86.1555,-3.64808"/>
</g>
<!-- 1&#45;&#45;2 -->
<g id="edge9" class="edge"><title>1&#45;&#45;2</title>
<path fill="none" stroke="black" d="M105.687,-150.166C94.7427,-147.207 36.0122,-131.331 25.0964,-128.38"/>
</g>
<!-- 1&#45;&#45;3 -->
<g id="edge10" class="edge"><title>1&#45;&#45;3</title>
<path fill="none" stroke="black" d="M105.64,-150.801C96.6741,-151.6 56.9308,-155.142 47.1351,-156.015"/>
</g>
<!-- 1&#45;&#45;4 -->
<g id="edge11" class="edge"><title>1&#45;&#45;4</title>
<path fill="none" stroke="black" d="M106.233,-149.121C102.36,-144.261 90.2918,-129.115 86.2577,-124.053"/>
</g>
<!-- 1&#45;&#45;5 -->
<g id="edge12" class="edge"><title>1&#45;&#45;5</title>
<path fill="none" stroke="black" d="M106.196,-148.879C98.3621,-137.807 56.0242,-77.9726 48.8052,-67.7704"/>
</g>
<!-- 1&#45;&#45;7 -->
<g id="edge13" class="edge"><title>1&#45;&#45;7</title>
<path fill="none" stroke="black" d="M109.249,-149.221C117.635,-142.627 152.695,-115.06 160.264,-109.109"/>
</g>
<!-- 2&#45;&#45;3 -->
<g id="edge14" class="edge"><title>2&#45;&#45;3</title>
<path fill="none" stroke="black" d="M24.5108,-129.43C28.2259,-134.298 39.8032,-149.469 43.6731,-154.54"/>
</g>
<!-- 2&#45;&#45;4 -->
<g id="edge15" class="edge"><title>2&#45;&#45;4</title>
<path fill="none" stroke="black" d="M25.3985,-127.724C34.7479,-126.886 73.3141,-123.427 82.8096,-122.575"/>
</g>
<!-- 2&#45;&#45;5 -->
<g id="edge16" class="edge"><title>2&#45;&#45;5</title>
<path fill="none" stroke="black" d="M24.0538,-126.13C27.5556,-117.29 43.078,-78.1056 46.9038,-68.4476"/>
</g>
<!-- 2&#45;&#45;6 -->
<g id="edge17" class="edge"><title>2&#45;&#45;6</title>
<path fill="none" stroke="black" d="M22.4237,-126.211C18.879,-119.714 6.19563,-96.4675 2.69853,-90.0579"/>
</g>
<!-- 3&#45;&#45;4 -->
<g id="edge18" class="edge"><title>3&#45;&#45;4</title>
<path fill="none" stroke="black" d="M46.6655,-154.756C53.2421,-149.193 76.7739,-129.285 83.2622,-123.796"/>
</g>
<!-- 3&#45;&#45;5 -->
<g id="edge19" class="edge"><title>3&#45;&#45;5</title>
<path fill="none" stroke="black" d="M45.0062,-154.332C45.372,-142.63 47.335,-79.8304 47.6998,-68.1585"/>
</g>
<!-- 3&#45;&#45;6 -->
<g id="edge20" class="edge"><title>3&#45;&#45;6</title>
<path fill="none" stroke="black" d="M43.8809,-154.534C37.9633,-145.235 9.20731,-100.05 2.98773,-90.2774"/>
</g>
<!-- 4&#45;&#45;6 -->
<g id="edge21" class="edge"><title>4&#45;&#45;6</title>
<path fill="none" stroke="black" d="M83.193,-121.676C72.3745,-117.254 14.3174,-93.5268 3.52672,-89.1168"/>
</g>
<!-- 4&#45;&#45;7 -->
<g id="edge22" class="edge"><title>4&#45;&#45;7</title>
<path fill="none" stroke="black" d="M86.8272,-122.029C97.4498,-120.035 149.429,-110.278 159.877,-108.317"/>
</g>
<!-- 5&#45;&#45;8 -->
<g id="edge23" class="edge"><title>5&#45;&#45;8</title>
<path fill="none" stroke="black" d="M48.7048,-64.6965C53.9568,-55.8517 79.4779,-12.8714 84.9978,-3.57525"/>
</g>
</g>
</svg>
