<?xml version="1.0" encoding="UTF-8" standalone="no"?>
<!DOCTYPE svg PUBLIC "-//W3C//DTD SVG 1.1//EN"
 "http://www.w3.org/Graphics/SVG/1.1/DTD/svg11.dtd">
<!-- Generated by graphviz version 2.36.0 (20140111.2315)
 -->
<!-- Title: %3 Pages: 1 -->
<svg width="120pt" height="192pt"
 viewBox="0.00 0.00 120.03 191.92" xmlns="http://www.w3.org/2000/svg" xmlns:xlink="http://www.w3.org/1999/xlink">
<g id="graph0" class="graph" transform="scale(1 1) rotate(0) translate(4 187.924)">
<title>%3</title>
<!-- 0 -->
<g id="node1" class="node"><title>0</title>
<ellipse fill="black" stroke="black" cx="75.7696" cy="-108.846" rx="1.8" ry="1.8"/>
</g>
<!-- 3 -->
<g id="node2" class="node"><title>3</title>
<ellipse fill="black" stroke="black" cx="85.9932" cy="-7.66839" rx="1.8" ry="1.8"/>
</g>
<!-- 0&#45;&#45;3 -->
<g id="edge1" class="edge"><title>0&#45;&#45;3</title>
<path fill="none" stroke="black" d="M75.9831,-106.733C77.3136,-93.5655 84.4538,-22.9034 85.7808,-9.77"/>
</g>
<!-- 4 -->
<g id="node3" class="node"><title>4</title>
<ellipse fill="black" stroke="black" cx="43.8958" cy="-48.0953" rx="1.8" ry="1.8"/>
</g>
<!-- 0&#45;&#45;4 -->
<g id="edge2" class="edge"><title>0&#45;&#45;4</title>
<path fill="none" stroke="black" d="M74.8501,-107.093C70.1956,-98.2221 49.2786,-58.3547 44.7587,-49.7399"/>
</g>
<!-- 5 -->
<g id="node4" class="node"><title>5</title>
<ellipse fill="black" stroke="black" cx="11.8618" cy="-85.7092" rx="1.8" ry="1.8"/>
</g>
<!-- 0&#45;&#45;5 -->
<g id="edge3" class="edge"><title>0&#45;&#45;5</title>
<path fill="none" stroke="black" d="M73.9259,-108.179C64.5936,-104.8 22.6544,-89.6165 13.5919,-86.3356"/>
</g>
<!-- 6 -->
<g id="node5" class="node"><title>6</title>
<ellipse fill="black" stroke="black" cx="100.634" cy="-182.124" rx="1.8" ry="1.8"/>
</g>
<!-- 0&#45;&#45;6 -->
<g id="edge4" class="edge"><title>0&#45;&#45;6</title>
<path fill="none" stroke="black" d="M76.3842,-110.657C79.8242,-120.796 96.657,-170.404 100.041,-180.376"/>
</g>
<!-- 1 -->
<g id="node6" class="node"><title>1</title>
<ellipse fill="black" stroke="black" cx="110.234" cy="-57.3776" rx="1.8" ry="1.8"/>
</g>
<!-- 1&#45;&#45;3 -->
<g id="edge5" class="edge"><title>1&#45;&#45;3</title>
<path fill="none" stroke="black" d="M109.428,-55.7237C105.747,-48.1765 90.5656,-17.0446 86.8276,-9.37949"/>
</g>
<!-- 1&#45;&#45;4 -->
<g id="edge6" class="edge"><title>1&#45;&#45;4</title>
<path fill="none" stroke="black" d="M108.321,-57.1098C98.6334,-55.7543 55.099,-49.6629 45.6917,-48.3466"/>
</g>
<!-- 1&#45;&#45;5 -->
<g id="edge7" class="edge"><title>1&#45;&#45;5</title>
<path fill="none" stroke="black" d="M108.18,-57.9693C95.3776,-61.6564 26.6745,-81.4431 13.9052,-85.1207"/>
</g>
<!-- 2 -->
<g id="node7" class="node"><title>2</title>
<ellipse fill="black" stroke="black" cx="1.8" cy="-1.8" rx="1.8" ry="1.8"/>
</g>
<!-- 2&#45;&#45;3 -->
<g id="edge8" class="edge"><title>2&#45;&#45;3</title>
<path fill="none" stroke="black" d="M3.88119,-1.94506C15.5295,-2.75697 72.5272,-6.72979 83.9847,-7.5284"/>
</g>
<!-- 2&#45;&#45;4 -->
<g id="edge9" class="edge"><title>2&#45;&#45;4</title>
<path fill="none" stroke="black" d="M3.2006,-3.34033C9.59184,-10.3692 35.9557,-39.3631 42.4468,-46.5017"/>
</g>
<!-- 2&#45;&#45;5 -->
<g id="edge10" class="edge"><title>2&#45;&#45;5</title>
<path fill="none" stroke="black" d="M2.04872,-3.87417C3.44079,-15.4832 10.2525,-72.2887 11.6218,-83.7075"/>
</g>
</g>
</svg>
