<?xml version="1.0" encoding="UTF-8" standalone="no"?>
<!DOCTYPE svg PUBLIC "-//W3C//DTD SVG 1.1//EN"
 "http://www.w3.org/Graphics/SVG/1.1/DTD/svg11.dtd">
<!-- Generated by graphviz version 2.36.0 (20140111.2315)
 -->
<!-- Title: %3 Pages: 1 -->
<svg width="185pt" height="230pt"
 viewBox="0.00 0.00 184.57 230.34" xmlns="http://www.w3.org/2000/svg" xmlns:xlink="http://www.w3.org/1999/xlink">
<g id="graph0" class="graph" transform="scale(1 1) rotate(0) translate(4 226.343)">
<title>%3</title>
<!-- 0 -->
<g id="node1" class="node"><title>0</title>
<ellipse fill="black" stroke="black" cx="59.9929" cy="-87.6026" rx="1.8" ry="1.8"/>
</g>
<!-- 2 -->
<g id="node2" class="node"><title>2</title>
<ellipse fill="black" stroke="black" cx="109.318" cy="-124.525" rx="1.8" ry="1.8"/>
</g>
<!-- 0&#45;&#45;2 -->
<g id="edge1" class="edge"><title>0&#45;&#45;2</title>
<path fill="none" stroke="black" d="M61.634,-88.831C69.1229,-94.4367 100.014,-117.56 107.62,-123.254"/>
</g>
<!-- 3 -->
<g id="node3" class="node"><title>3</title>
<ellipse fill="black" stroke="black" cx="7.48354" cy="-148.576" rx="1.8" ry="1.8"/>
</g>
<!-- 0&#45;&#45;3 -->
<g id="edge2" class="edge"><title>0&#45;&#45;3</title>
<path fill="none" stroke="black" d="M58.6949,-89.1098C51.4933,-97.4723 16.498,-138.109 8.92897,-146.898"/>
</g>
<!-- 6 -->
<g id="node4" class="node"><title>6</title>
<ellipse fill="black" stroke="black" cx="156.582" cy="-71.7018" rx="1.8" ry="1.8"/>
</g>
<!-- 0&#45;&#45;6 -->
<g id="edge3" class="edge"><title>0&#45;&#45;6</title>
<path fill="none" stroke="black" d="M62.0103,-87.2705C74.5805,-85.2011 142.038,-74.0961 154.576,-72.0321"/>
</g>
<!-- 4 -->
<g id="node7" class="node"><title>4</title>
<ellipse fill="black" stroke="black" cx="106.619" cy="-27.3731" rx="1.8" ry="1.8"/>
</g>
<!-- 2&#45;&#45;4 -->
<g id="edge7" class="edge"><title>2&#45;&#45;4</title>
<path fill="none" stroke="black" d="M109.262,-122.495C108.911,-109.852 107.026,-42.0019 106.675,-29.3911"/>
</g>
<!-- 5 -->
<g id="node6" class="node"><title>5</title>
<ellipse fill="black" stroke="black" cx="1.8" cy="-220.543" rx="1.8" ry="1.8"/>
</g>
<!-- 3&#45;&#45;5 -->
<g id="edge8" class="edge"><title>3&#45;&#45;5</title>
<path fill="none" stroke="black" d="M7.31957,-150.652C6.48962,-161.162 2.75982,-208.389 1.95386,-218.594"/>
</g>
<!-- 7 -->
<g id="node8" class="node"><title>7</title>
<ellipse fill="black" stroke="black" cx="174.767" cy="-1.8" rx="1.8" ry="1.8"/>
</g>
<!-- 6&#45;&#45;7 -->
<g id="edge10" class="edge"><title>6&#45;&#45;7</title>
<path fill="none" stroke="black" d="M157.107,-69.6851C159.762,-59.4776 171.696,-13.6049 174.275,-3.69232"/>
</g>
<!-- 1 -->
<g id="node5" class="node"><title>1</title>
<ellipse fill="black" stroke="black" cx="68.0778" cy="-192.967" rx="1.8" ry="1.8"/>
</g>
<!-- 1&#45;&#45;2 -->
<g id="edge4" class="edge"><title>1&#45;&#45;2</title>
<path fill="none" stroke="black" d="M69.0972,-191.275C74.7533,-181.888 102.238,-136.274 108.183,-126.409"/>
</g>
<!-- 1&#45;&#45;3 -->
<g id="edge5" class="edge"><title>1&#45;&#45;3</title>
<path fill="none" stroke="black" d="M66.58,-191.869C58.2695,-185.781 17.886,-156.197 9.15153,-149.798"/>
</g>
<!-- 1&#45;&#45;5 -->
<g id="edge6" class="edge"><title>1&#45;&#45;5</title>
<path fill="none" stroke="black" d="M66.1657,-193.762C56.4873,-197.789 12.9929,-215.886 3.59422,-219.796"/>
</g>
<!-- 4&#45;&#45;7 -->
<g id="edge9" class="edge"><title>4&#45;&#45;7</title>
<path fill="none" stroke="black" d="M108.585,-26.6353C118.537,-22.9009 163.259,-6.11873 172.923,-2.49229"/>
</g>
</g>
</svg>
