<?xml version="1.0" encoding="UTF-8" standalone="no"?>
<!DOCTYPE svg PUBLIC "-//W3C//DTD SVG 1.1//EN"
 "http://www.w3.org/Graphics/SVG/1.1/DTD/svg11.dtd">
<!-- Generated by graphviz version 2.36.0 (20140111.2315)
 -->
<!-- Title: %3 Pages: 1 -->
<svg width="206pt" height="159pt"
 viewBox="0.00 0.00 205.98 159.23" xmlns="http://www.w3.org/2000/svg" xmlns:xlink="http://www.w3.org/1999/xlink">
<g id="graph0" class="graph" transform="scale(1 1) rotate(0) translate(4 155.229)">
<title>%3</title>
<!-- 0 -->
<g id="node1" class="node"><title>0</title>
<ellipse fill="black" stroke="black" cx="66.0376" cy="-72.3429" rx="1.8" ry="1.8"/>
</g>
<!-- 1 -->
<g id="node2" class="node"><title>1</title>
<ellipse fill="black" stroke="black" cx="126.652" cy="-125.365" rx="1.8" ry="1.8"/>
</g>
<!-- 0&#45;&#45;1 -->
<g id="edge1" class="edge"><title>0&#45;&#45;1</title>
<path fill="none" stroke="black" d="M67.536,-73.6535C75.8491,-80.9255 116.246,-116.263 124.983,-123.906"/>
</g>
<!-- 2 -->
<g id="node3" class="node"><title>2</title>
<ellipse fill="black" stroke="black" cx="70.8018" cy="-1.8" rx="1.8" ry="1.8"/>
</g>
<!-- 0&#45;&#45;2 -->
<g id="edge2" class="edge"><title>0&#45;&#45;2</title>
<path fill="none" stroke="black" d="M66.1751,-70.3077C66.8708,-60.0066 69.9973,-13.7131 70.6729,-3.70968"/>
</g>
<!-- 3 -->
<g id="node4" class="node"><title>3</title>
<ellipse fill="black" stroke="black" cx="143.033" cy="-15.2497" rx="1.8" ry="1.8"/>
</g>
<!-- 0&#45;&#45;3 -->
<g id="edge3" class="edge"><title>0&#45;&#45;3</title>
<path fill="none" stroke="black" d="M67.6458,-71.1504C77.666,-63.7203 131.439,-23.8466 141.434,-16.4356"/>
</g>
<!-- 4 -->
<g id="node5" class="node"><title>4</title>
<ellipse fill="black" stroke="black" cx="117.91" cy="-57.1563" rx="1.8" ry="1.8"/>
</g>
<!-- 0&#45;&#45;4 -->
<g id="edge4" class="edge"><title>0&#45;&#45;4</title>
<path fill="none" stroke="black" d="M68.2666,-71.6903C76.7991,-69.1923 107.33,-60.254 115.748,-57.7895"/>
</g>
<!-- 5 -->
<g id="node6" class="node"><title>5</title>
<ellipse fill="black" stroke="black" cx="59.7264" cy="-149.429" rx="1.8" ry="1.8"/>
</g>
<!-- 0&#45;&#45;5 -->
<g id="edge5" class="edge"><title>0&#45;&#45;5</title>
<path fill="none" stroke="black" d="M65.8816,-74.2484C65.0085,-84.9133 60.7358,-137.099 59.877,-147.59"/>
</g>
<!-- 6 -->
<g id="node7" class="node"><title>6</title>
<ellipse fill="black" stroke="black" cx="1.8" cy="-29.3177" rx="1.8" ry="1.8"/>
</g>
<!-- 0&#45;&#45;6 -->
<g id="edge6" class="edge"><title>0&#45;&#45;6</title>
<path fill="none" stroke="black" d="M64.4497,-71.2793C55.6396,-65.3785 12.8279,-36.704 3.56829,-30.5021"/>
</g>
<!-- 1&#45;&#45;4 -->
<g id="edge7" class="edge"><title>1&#45;&#45;4</title>
<path fill="none" stroke="black" d="M126.399,-123.397C125.123,-113.437 119.387,-68.6753 118.147,-59.0028"/>
</g>
<!-- 1&#45;&#45;5 -->
<g id="edge8" class="edge"><title>1&#45;&#45;5</title>
<path fill="none" stroke="black" d="M124.721,-126.059C114.948,-129.573 71.0286,-145.365 61.5381,-148.777"/>
</g>
<!-- 7 -->
<g id="node8" class="node"><title>7</title>
<ellipse fill="black" stroke="black" cx="196.181" cy="-82.6222" rx="1.8" ry="1.8"/>
</g>
<!-- 1&#45;&#45;7 -->
<g id="edge9" class="edge"><title>1&#45;&#45;7</title>
<path fill="none" stroke="black" d="M128.37,-124.309C137.906,-118.446 184.245,-89.9601 194.267,-83.7988"/>
</g>
<!-- 2&#45;&#45;3 -->
<g id="edge10" class="edge"><title>2&#45;&#45;3</title>
<path fill="none" stroke="black" d="M72.5873,-2.13247C82.4938,-3.97708 130.633,-12.9407 141.045,-14.8795"/>
</g>
<!-- 2&#45;&#45;4 -->
<g id="edge11" class="edge"><title>2&#45;&#45;4</title>
<path fill="none" stroke="black" d="M72.3692,-3.6418C79.6493,-12.1964 110.086,-47.9615 116.657,-55.6828"/>
</g>
<!-- 2&#45;&#45;6 -->
<g id="edge12" class="edge"><title>2&#45;&#45;6</title>
<path fill="none" stroke="black" d="M69.0962,-2.48022C59.6326,-6.25424 13.6458,-24.5937 3.69943,-28.5603"/>
</g>
<!-- 3&#45;&#45;4 -->
<g id="edge13" class="edge"><title>3&#45;&#45;4</title>
<path fill="none" stroke="black" d="M141.954,-17.0504C137.821,-23.9436 123.035,-48.6084 118.958,-55.409"/>
</g>
<!-- 3&#45;&#45;7 -->
<g id="edge14" class="edge"><title>3&#45;&#45;7</title>
<path fill="none" stroke="black" d="M144.347,-16.9151C151.636,-26.1552 187.057,-71.0561 194.718,-80.7676"/>
</g>
</g>
</svg>
