<?xml version="1.0" encoding="UTF-8" standalone="no"?>
<!DOCTYPE svg PUBLIC "-//W3C//DTD SVG 1.1//EN"
 "http://www.w3.org/Graphics/SVG/1.1/DTD/svg11.dtd">
<!-- Generated by graphviz version 2.36.0 (20140111.2315)
 -->
<!-- Title: %3 Pages: 1 -->
<svg width="172pt" height="161pt"
 viewBox="0.00 0.00 172.23 161.11" xmlns="http://www.w3.org/2000/svg" xmlns:xlink="http://www.w3.org/1999/xlink">
<g id="graph0" class="graph" transform="scale(1 1) rotate(0) translate(4 157.114)">
<title>%3</title>
<!-- 0 -->
<g id="node1" class="node"><title>0</title>
<ellipse fill="black" stroke="black" cx="77.5517" cy="-113.986" rx="1.8" ry="1.8"/>
</g>
<!-- 1 -->
<g id="node2" class="node"><title>1</title>
<ellipse fill="black" stroke="black" cx="60.9697" cy="-68.0749" rx="1.8" ry="1.8"/>
</g>
<!-- 0&#45;&#45;1 -->
<g id="edge1" class="edge"><title>0&#45;&#45;1</title>
<path fill="none" stroke="black" d="M76.8392,-112.013C74.1116,-104.461 64.352,-77.4396 61.6611,-69.9891"/>
</g>
<!-- 2 -->
<g id="node3" class="node"><title>2</title>
<ellipse fill="black" stroke="black" cx="113.049" cy="-77.2356" rx="1.8" ry="1.8"/>
</g>
<!-- 0&#45;&#45;2 -->
<g id="edge2" class="edge"><title>0&#45;&#45;2</title>
<path fill="none" stroke="black" d="M79.077,-112.407C84.9158,-106.362 105.808,-84.7318 111.568,-78.7679"/>
</g>
<!-- 3 -->
<g id="node4" class="node"><title>3</title>
<ellipse fill="black" stroke="black" cx="78.165" cy="-151.314" rx="1.8" ry="1.8"/>
</g>
<!-- 0&#45;&#45;3 -->
<g id="edge3" class="edge"><title>0&#45;&#45;3</title>
<path fill="none" stroke="black" d="M77.5847,-115.993C77.6922,-122.535 78.0314,-143.183 78.1348,-149.476"/>
</g>
<!-- 4 -->
<g id="node5" class="node"><title>4</title>
<ellipse fill="black" stroke="black" cx="129.744" cy="-144.384" rx="1.8" ry="1.8"/>
</g>
<!-- 0&#45;&#45;4 -->
<g id="edge4" class="edge"><title>0&#45;&#45;4</title>
<path fill="none" stroke="black" d="M79.2882,-114.997C87.2124,-119.612 119.899,-138.651 127.947,-143.338"/>
</g>
<!-- 5 -->
<g id="node6" class="node"><title>5</title>
<ellipse fill="black" stroke="black" cx="20.9651" cy="-127.871" rx="1.8" ry="1.8"/>
</g>
<!-- 0&#45;&#45;5 -->
<g id="edge5" class="edge"><title>0&#45;&#45;5</title>
<path fill="none" stroke="black" d="M75.669,-114.448C67.0777,-116.556 31.6385,-125.252 22.9129,-127.393"/>
</g>
<!-- 6 -->
<g id="node7" class="node"><title>6</title>
<ellipse fill="black" stroke="black" cx="1.8" cy="-91.8871" rx="1.8" ry="1.8"/>
</g>
<!-- 0&#45;&#45;6 -->
<g id="edge6" class="edge"><title>0&#45;&#45;6</title>
<path fill="none" stroke="black" d="M75.6792,-113.439C65.1988,-110.382 13.9158,-95.4216 3.60707,-92.4143"/>
</g>
<!-- 7 -->
<g id="node8" class="node"><title>7</title>
<ellipse fill="black" stroke="black" cx="162.43" cy="-118.097" rx="1.8" ry="1.8"/>
</g>
<!-- 0&#45;&#45;7 -->
<g id="edge7" class="edge"><title>0&#45;&#45;7</title>
<path fill="none" stroke="black" d="M79.6498,-114.087C91.3929,-114.656 148.854,-117.44 160.405,-117.999"/>
</g>
<!-- 1&#45;&#45;2 -->
<g id="edge8" class="edge"><title>1&#45;&#45;2</title>
<path fill="none" stroke="black" d="M63.2074,-68.4685C71.7739,-69.9753 102.426,-75.367 110.877,-76.8537"/>
</g>
<!-- 1&#45;&#45;3 -->
<g id="edge9" class="edge"><title>1&#45;&#45;3</title>
<path fill="none" stroke="black" d="M61.3947,-70.1325C63.7737,-81.6488 75.4148,-138.001 77.7548,-149.328"/>
</g>
<!-- 1&#45;&#45;4 -->
<g id="edge10" class="edge"><title>1&#45;&#45;4</title>
<path fill="none" stroke="black" d="M62.4061,-69.6687C71.3564,-79.5996 119.388,-132.894 128.315,-142.799"/>
</g>
<!-- 1&#45;&#45;5 -->
<g id="edge11" class="edge"><title>1&#45;&#45;5</title>
<path fill="none" stroke="black" d="M59.8155,-69.8C53.9738,-78.5319 27.7209,-117.773 22.048,-126.253"/>
</g>
<!-- 1&#45;&#45;6 -->
<g id="edge12" class="edge"><title>1&#45;&#45;6</title>
<path fill="none" stroke="black" d="M59.2626,-68.7618C50.7738,-72.1781 13.1456,-87.3212 3.87119,-91.0536"/>
</g>
<!-- 8 -->
<g id="node9" class="node"><title>8</title>
<ellipse fill="black" stroke="black" cx="99.4364" cy="-1.8" rx="1.8" ry="1.8"/>
</g>
<!-- 1&#45;&#45;8 -->
<g id="edge13" class="edge"><title>1&#45;&#45;8</title>
<path fill="none" stroke="black" d="M61.9205,-66.4366C67.1962,-57.3471 92.8327,-13.1777 98.3775,-3.62436"/>
</g>
<!-- 2&#45;&#45;3 -->
<g id="edge14" class="edge"><title>2&#45;&#45;3</title>
<path fill="none" stroke="black" d="M112.186,-79.0668C107.36,-89.3157 83.7443,-139.466 78.9972,-149.547"/>
</g>
<!-- 2&#45;&#45;4 -->
<g id="edge15" class="edge"><title>2&#45;&#45;4</title>
<path fill="none" stroke="black" d="M113.53,-79.1728C115.968,-88.9784 126.924,-133.044 129.292,-142.567"/>
</g>
<!-- 2&#45;&#45;5 -->
<g id="edge16" class="edge"><title>2&#45;&#45;5</title>
<path fill="none" stroke="black" d="M111.45,-78.1145C100.273,-84.2606 33.9279,-120.743 22.6073,-126.968"/>
</g>
<!-- 2&#45;&#45;7 -->
<g id="edge17" class="edge"><title>2&#45;&#45;7</title>
<path fill="none" stroke="black" d="M114.692,-78.5952C122.189,-84.7991 153.116,-110.39 160.73,-116.691"/>
</g>
<!-- 2&#45;&#45;8 -->
<g id="edge18" class="edge"><title>2&#45;&#45;8</title>
<path fill="none" stroke="black" d="M112.712,-75.3709C110.829,-64.9343 101.614,-13.8653 99.7611,-3.59953"/>
</g>
<!-- 3&#45;&#45;4 -->
<g id="edge19" class="edge"><title>3&#45;&#45;4</title>
<path fill="none" stroke="black" d="M80.3813,-151.016C88.8655,-149.876 119.223,-145.798 127.593,-144.673"/>
</g>
<!-- 3&#45;&#45;6 -->
<g id="edge20" class="edge"><title>3&#45;&#45;6</title>
<path fill="none" stroke="black" d="M76.57,-150.073C66.6319,-142.339 13.2988,-100.835 3.38622,-93.1215"/>
</g>
<!-- 3&#45;&#45;7 -->
<g id="edge21" class="edge"><title>3&#45;&#45;7</title>
<path fill="none" stroke="black" d="M79.925,-150.62C90.8913,-146.298 149.742,-123.099 160.68,-118.787"/>
</g>
</g>
</svg>
