<?xml version="1.0" encoding="UTF-8" standalone="no"?>
<!DOCTYPE svg PUBLIC "-//W3C//DTD SVG 1.1//EN"
 "http://www.w3.org/Graphics/SVG/1.1/DTD/svg11.dtd">
<!-- Generated by graphviz version 2.36.0 (20140111.2315)
 -->
<!-- Title: %3 Pages: 1 -->
<svg width="149pt" height="156pt"
 viewBox="0.00 0.00 149.07 155.65" xmlns="http://www.w3.org/2000/svg" xmlns:xlink="http://www.w3.org/1999/xlink">
<g id="graph0" class="graph" transform="scale(1 1) rotate(0) translate(4 151.65)">
<title>%3</title>
<!-- 0 -->
<g id="node1" class="node"><title>0</title>
<ellipse fill="black" stroke="black" cx="82.0918" cy="-63.6487" rx="1.8" ry="1.8"/>
</g>
<!-- 1 -->
<g id="node2" class="node"><title>1</title>
<ellipse fill="black" stroke="black" cx="54.4455" cy="-95.2002" rx="1.8" ry="1.8"/>
</g>
<!-- 0&#45;&#45;1 -->
<g id="edge1" class="edge"><title>0&#45;&#45;1</title>
<path fill="none" stroke="black" d="M80.9039,-65.0044C76.439,-70.1 60.6725,-88.0936 55.8544,-93.5922"/>
</g>
<!-- 2 -->
<g id="node3" class="node"><title>2</title>
<ellipse fill="black" stroke="black" cx="132.809" cy="-70.9366" rx="1.8" ry="1.8"/>
</g>
<!-- 0&#45;&#45;2 -->
<g id="edge2" class="edge"><title>0&#45;&#45;2</title>
<path fill="none" stroke="black" d="M84.2711,-63.9619C92.6136,-65.1606 122.464,-69.4501 130.695,-70.6327"/>
</g>
<!-- 3 -->
<g id="node4" class="node"><title>3</title>
<ellipse fill="black" stroke="black" cx="73.1679" cy="-14.3093" rx="1.8" ry="1.8"/>
</g>
<!-- 0&#45;&#45;3 -->
<g id="edge3" class="edge"><title>0&#45;&#45;3</title>
<path fill="none" stroke="black" d="M81.7084,-61.5286C80.2405,-53.4128 74.9881,-24.3734 73.54,-16.3665"/>
</g>
<!-- 4 -->
<g id="node5" class="node"><title>4</title>
<ellipse fill="black" stroke="black" cx="134.805" cy="-126.554" rx="1.8" ry="1.8"/>
</g>
<!-- 0&#45;&#45;4 -->
<g id="edge4" class="edge"><title>0&#45;&#45;4</title>
<path fill="none" stroke="black" d="M83.3948,-65.2037C90.6244,-73.8311 125.756,-115.755 133.354,-124.823"/>
</g>
<!-- 5 -->
<g id="node6" class="node"><title>5</title>
<ellipse fill="black" stroke="black" cx="85.833" cy="-145.85" rx="1.8" ry="1.8"/>
</g>
<!-- 0&#45;&#45;5 -->
<g id="edge5" class="edge"><title>0&#45;&#45;5</title>
<path fill="none" stroke="black" d="M82.1843,-65.6807C82.7019,-77.0534 85.2346,-132.703 85.7437,-143.889"/>
</g>
<!-- 6 -->
<g id="node7" class="node"><title>6</title>
<ellipse fill="black" stroke="black" cx="1.8" cy="-68.9563" rx="1.8" ry="1.8"/>
</g>
<!-- 0&#45;&#45;6 -->
<g id="edge6" class="edge"><title>0&#45;&#45;6</title>
<path fill="none" stroke="black" d="M80.107,-63.7799C68.9985,-64.5142 14.642,-68.1074 3.71538,-68.8297"/>
</g>
<!-- 7 -->
<g id="node8" class="node"><title>7</title>
<ellipse fill="black" stroke="black" cx="139.275" cy="-1.8" rx="1.8" ry="1.8"/>
</g>
<!-- 0&#45;&#45;7 -->
<g id="edge7" class="edge"><title>0&#45;&#45;7</title>
<path fill="none" stroke="black" d="M83.5053,-62.1198C91.3479,-53.6374 129.458,-12.4178 137.701,-3.50252"/>
</g>
<!-- 8 -->
<g id="node9" class="node"><title>8</title>
<ellipse fill="black" stroke="black" cx="10.3869" cy="-20.397" rx="1.8" ry="1.8"/>
</g>
<!-- 0&#45;&#45;8 -->
<g id="edge8" class="edge"><title>0&#45;&#45;8</title>
<path fill="none" stroke="black" d="M80.3193,-62.5796C70.3988,-56.5956 21.8555,-27.3147 12.0975,-21.4288"/>
</g>
<!-- 1&#45;&#45;2 -->
<g id="edge9" class="edge"><title>1&#45;&#45;2</title>
<path fill="none" stroke="black" d="M56.3825,-94.6004C67.2243,-91.2435 120.276,-74.8174 130.94,-71.5154"/>
</g>
<!-- 1&#45;&#45;3 -->
<g id="edge10" class="edge"><title>1&#45;&#45;3</title>
<path fill="none" stroke="black" d="M54.9083,-93.2007C57.4985,-82.0092 70.1734,-27.2471 72.7212,-16.239"/>
</g>
<!-- 1&#45;&#45;4 -->
<g id="edge11" class="edge"><title>1&#45;&#45;4</title>
<path fill="none" stroke="black" d="M56.1239,-95.8551C66.4918,-99.9003 121.741,-121.457 132.856,-125.794"/>
</g>
<!-- 1&#45;&#45;5 -->
<g id="edge12" class="edge"><title>1&#45;&#45;5</title>
<path fill="none" stroke="black" d="M55.4898,-96.8854C60.2552,-104.575 79.9126,-136.297 84.7525,-144.107"/>
</g>
<!-- 1&#45;&#45;6 -->
<g id="edge13" class="edge"><title>1&#45;&#45;6</title>
<path fill="none" stroke="black" d="M52.6938,-94.327C44.7009,-90.3425 11.73,-73.9065 3.61218,-69.8597"/>
</g>
<!-- 1&#45;&#45;8 -->
<g id="edge14" class="edge"><title>1&#45;&#45;8</title>
<path fill="none" stroke="black" d="M53.5252,-93.6378C47.7914,-83.9029 17.0211,-31.6607 11.3021,-21.9508"/>
</g>
<!-- 2&#45;&#45;3 -->
<g id="edge15" class="edge"><title>2&#45;&#45;3</title>
<path fill="none" stroke="black" d="M131.335,-69.5368C123.155,-61.7705 83.4068,-24.0308 74.8096,-15.8681"/>
</g>
<!-- 2&#45;&#45;4 -->
<g id="edge16" class="edge"><title>2&#45;&#45;4</title>
<path fill="none" stroke="black" d="M132.876,-72.7871C133.179,-81.2313 134.429,-116.064 134.737,-124.64"/>
</g>
<!-- 2&#45;&#45;5 -->
<g id="edge17" class="edge"><title>2&#45;&#45;5</title>
<path fill="none" stroke="black" d="M131.828,-72.5013C125.715,-82.2506 92.9065,-134.57 86.8087,-144.294"/>
</g>
<!-- 2&#45;&#45;7 -->
<g id="edge18" class="edge"><title>2&#45;&#45;7</title>
<path fill="none" stroke="black" d="M132.996,-68.9421C133.94,-58.8462 138.183,-13.4756 139.1,-3.67161"/>
</g>
<!-- 3&#45;&#45;6 -->
<g id="edge19" class="edge"><title>3&#45;&#45;6</title>
<path fill="none" stroke="black" d="M71.6773,-15.4507C62.3894,-22.5625 12.5464,-60.7277 3.28242,-67.8212"/>
</g>
<!-- 3&#45;&#45;7 -->
<g id="edge20" class="edge"><title>3&#45;&#45;7</title>
<path fill="none" stroke="black" d="M75.075,-13.9484C84.7284,-12.1217 128.111,-3.91255 137.485,-2.13864"/>
</g>
</g>
</svg>
