<?xml version="1.0" encoding="UTF-8" standalone="no"?>
<!DOCTYPE svg PUBLIC "-//W3C//DTD SVG 1.1//EN"
 "http://www.w3.org/Graphics/SVG/1.1/DTD/svg11.dtd">
<!-- Generated by graphviz version 2.36.0 (20140111.2315)
 -->
<!-- Title: %3 Pages: 1 -->
<svg width="218pt" height="162pt"
 viewBox="0.00 0.00 217.82 161.81" xmlns="http://www.w3.org/2000/svg" xmlns:xlink="http://www.w3.org/1999/xlink">
<g id="graph0" class="graph" transform="scale(1 1) rotate(0) translate(4 157.807)">
<title>%3</title>
<!-- 0 -->
<g id="node1" class="node"><title>0</title>
<ellipse fill="black" stroke="black" cx="68.1006" cy="-82.9697" rx="1.8" ry="1.8"/>
</g>
<!-- 1 -->
<g id="node2" class="node"><title>1</title>
<ellipse fill="black" stroke="black" cx="139.262" cy="-92.2909" rx="1.8" ry="1.8"/>
</g>
<!-- 0&#45;&#45;1 -->
<g id="edge1" class="edge"><title>0&#45;&#45;1</title>
<path fill="none" stroke="black" d="M70.1536,-83.2386C80.5451,-84.5998 127.244,-90.7167 137.336,-92.0385"/>
</g>
<!-- 2 -->
<g id="node3" class="node"><title>2</title>
<ellipse fill="black" stroke="black" cx="1.8" cy="-96" rx="1.8" ry="1.8"/>
</g>
<!-- 0&#45;&#45;2 -->
<g id="edge2" class="edge"><title>0&#45;&#45;2</title>
<path fill="none" stroke="black" d="M66.1879,-83.3457C56.5062,-85.2484 12.9967,-93.7995 3.59484,-95.6472"/>
</g>
<!-- 3 -->
<g id="node4" class="node"><title>3</title>
<ellipse fill="black" stroke="black" cx="71.3026" cy="-142.131" rx="1.8" ry="1.8"/>
</g>
<!-- 0&#45;&#45;3 -->
<g id="edge3" class="edge"><title>0&#45;&#45;3</title>
<path fill="none" stroke="black" d="M68.2072,-84.9381C68.6933,-93.9203 70.6986,-130.972 71.1924,-140.094"/>
</g>
<!-- 4 -->
<g id="node5" class="node"><title>4</title>
<ellipse fill="black" stroke="black" cx="137.409" cy="-144.737" rx="1.8" ry="1.8"/>
</g>
<!-- 0&#45;&#45;4 -->
<g id="edge4" class="edge"><title>0&#45;&#45;4</title>
<path fill="none" stroke="black" d="M69.5482,-84.2598C78.568,-92.2982 126.972,-135.436 135.969,-143.454"/>
</g>
<!-- 6 -->
<g id="node6" class="node"><title>6</title>
<ellipse fill="black" stroke="black" cx="1.86455" cy="-152.007" rx="1.8" ry="1.8"/>
</g>
<!-- 0&#45;&#45;6 -->
<g id="edge5" class="edge"><title>0&#45;&#45;6</title>
<path fill="none" stroke="black" d="M66.7172,-84.4117C58.0972,-93.3962 11.8382,-141.612 3.24038,-150.573"/>
</g>
<!-- 7 -->
<g id="node7" class="node"><title>7</title>
<ellipse fill="black" stroke="black" cx="6.26095" cy="-30.755" rx="1.8" ry="1.8"/>
</g>
<!-- 0&#45;&#45;7 -->
<g id="edge6" class="edge"><title>0&#45;&#45;7</title>
<path fill="none" stroke="black" d="M66.572,-81.679C58.0908,-74.5178 16.8772,-39.7189 7.96322,-32.1923"/>
</g>
<!-- 8 -->
<g id="node8" class="node"><title>8</title>
<ellipse fill="black" stroke="black" cx="91.7804" cy="-1.8" rx="1.8" ry="1.8"/>
</g>
<!-- 0&#45;&#45;8 -->
<g id="edge7" class="edge"><title>0&#45;&#45;8</title>
<path fill="none" stroke="black" d="M68.686,-80.9633C71.9621,-69.7333 87.993,-14.7824 91.2155,-3.73632"/>
</g>
<!-- 1&#45;&#45;3 -->
<g id="edge8" class="edge"><title>1&#45;&#45;3</title>
<path fill="none" stroke="black" d="M137.582,-93.5229C128.261,-100.358 82.9695,-133.574 73.1733,-140.759"/>
</g>
<!-- 1&#45;&#45;4 -->
<g id="edge9" class="edge"><title>1&#45;&#45;4</title>
<path fill="none" stroke="black" d="M139.182,-94.5444C138.877,-103.171 137.787,-134.039 137.486,-142.55"/>
</g>
<!-- 5 -->
<g id="node9" class="node"><title>5</title>
<ellipse fill="black" stroke="black" cx="208.021" cy="-127.619" rx="1.8" ry="1.8"/>
</g>
<!-- 1&#45;&#45;5 -->
<g id="edge10" class="edge"><title>1&#45;&#45;5</title>
<path fill="none" stroke="black" d="M140.962,-93.1642C150.392,-98.0094 196.217,-121.554 206.128,-126.647"/>
</g>
<!-- 2&#45;&#45;3 -->
<g id="edge11" class="edge"><title>2&#45;&#45;3</title>
<path fill="none" stroke="black" d="M3.51805,-97.1403C13.0503,-103.467 59.3708,-134.211 69.3894,-140.861"/>
</g>
<!-- 2&#45;&#45;6 -->
<g id="edge12" class="edge"><title>2&#45;&#45;6</title>
<path fill="none" stroke="black" d="M1.80215,-97.8634C1.81195,-106.367 1.85238,-141.443 1.86233,-150.079"/>
</g>
<!-- 2&#45;&#45;7 -->
<g id="edge13" class="edge"><title>2&#45;&#45;7</title>
<path fill="none" stroke="black" d="M1.9287,-94.1177C2.56869,-84.7573 5.40557,-43.2655 6.1048,-33.0388"/>
</g>
<!-- 4&#45;&#45;5 -->
<g id="edge14" class="edge"><title>4&#45;&#45;5</title>
<path fill="none" stroke="black" d="M139.446,-144.243C149.757,-141.743 196.096,-130.51 206.109,-128.082"/>
</g>
</g>
</svg>
