<?xml version="1.0" encoding="UTF-8" standalone="no"?>
<!DOCTYPE svg PUBLIC "-//W3C//DTD SVG 1.1//EN"
 "http://www.w3.org/Graphics/SVG/1.1/DTD/svg11.dtd">
<!-- Generated by graphviz version 2.36.0 (20140111.2315)
 -->
<!-- Title: %3 Pages: 1 -->
<svg width="354pt" height="189pt"
 viewBox="0.00 0.00 353.72 189.43" xmlns="http://www.w3.org/2000/svg" xmlns:xlink="http://www.w3.org/1999/xlink">
<g id="graph0" class="graph" transform="scale(1 1) rotate(0) translate(4 185.434)">
<title>%3</title>
<!-- 0 -->
<g id="node1" class="node"><title>0</title>
<ellipse fill="black" stroke="black" cx="142.955" cy="-100.945" rx="1.8" ry="1.8"/>
</g>
<!-- 1 -->
<g id="node2" class="node"><title>1</title>
<ellipse fill="black" stroke="black" cx="72.471" cy="-69.0911" rx="1.8" ry="1.8"/>
</g>
<!-- 0&#45;&#45;1 -->
<g id="edge1" class="edge"><title>0&#45;&#45;1</title>
<path fill="none" stroke="black" d="M141.213,-100.158C131.461,-95.7509 83.7443,-74.1859 74.1524,-69.851"/>
</g>
<!-- 2 -->
<g id="node3" class="node"><title>2</title>
<ellipse fill="black" stroke="black" cx="207.15" cy="-57.5529" rx="1.8" ry="1.8"/>
</g>
<!-- 0&#45;&#45;2 -->
<g id="edge2" class="edge"><title>0&#45;&#45;2</title>
<path fill="none" stroke="black" d="M144.542,-99.8728C153.346,-93.9216 196.13,-65.0023 205.383,-58.7474"/>
</g>
<!-- 3 -->
<g id="node4" class="node"><title>3</title>
<ellipse fill="black" stroke="black" cx="138.247" cy="-29.7735" rx="1.8" ry="1.8"/>
</g>
<!-- 0&#45;&#45;3 -->
<g id="edge3" class="edge"><title>0&#45;&#45;3</title>
<path fill="none" stroke="black" d="M142.819,-98.8921C142.132,-88.4991 139.042,-41.7929 138.375,-31.7002"/>
</g>
<!-- 4 -->
<g id="node5" class="node"><title>4</title>
<ellipse fill="black" stroke="black" cx="85.2059" cy="-144.036" rx="1.8" ry="1.8"/>
</g>
<!-- 0&#45;&#45;4 -->
<g id="edge4" class="edge"><title>0&#45;&#45;4</title>
<path fill="none" stroke="black" d="M141.034,-102.379C132.109,-109.038 94.7981,-136.878 86.7431,-142.889"/>
</g>
<!-- 5 -->
<g id="node6" class="node"><title>5</title>
<ellipse fill="black" stroke="black" cx="146.353" cy="-179.634" rx="1.8" ry="1.8"/>
</g>
<!-- 0&#45;&#45;5 -->
<g id="edge5" class="edge"><title>0&#45;&#45;5</title>
<path fill="none" stroke="black" d="M143.039,-102.891C143.509,-113.777 145.81,-167.049 146.272,-177.757"/>
</g>
<!-- 1&#45;&#45;3 -->
<g id="edge6" class="edge"><title>1&#45;&#45;3</title>
<path fill="none" stroke="black" d="M74.0969,-68.1192C83.1181,-62.7268 126.955,-36.5233 136.437,-30.8558"/>
</g>
<!-- 1&#45;&#45;4 -->
<g id="edge7" class="edge"><title>1&#45;&#45;4</title>
<path fill="none" stroke="black" d="M72.7858,-70.9437C74.5477,-81.3124 83.1691,-132.049 84.9021,-142.248"/>
</g>
<!-- 8 -->
<g id="node7" class="node"><title>8</title>
<ellipse fill="black" stroke="black" cx="1.8" cy="-38.7738" rx="1.8" ry="1.8"/>
</g>
<!-- 1&#45;&#45;8 -->
<g id="edge8" class="edge"><title>1&#45;&#45;8</title>
<path fill="none" stroke="black" d="M70.7241,-68.3417C60.9466,-64.1472 13.1032,-43.6228 3.48587,-39.497"/>
</g>
<!-- 2&#45;&#45;3 -->
<g id="edge9" class="edge"><title>2&#45;&#45;3</title>
<path fill="none" stroke="black" d="M205.447,-56.8662C195.997,-53.0563 150.076,-34.5425 140.144,-30.5382"/>
</g>
<!-- 6 -->
<g id="node8" class="node"><title>6</title>
<ellipse fill="black" stroke="black" cx="278.169" cy="-33.6537" rx="1.8" ry="1.8"/>
</g>
<!-- 2&#45;&#45;6 -->
<g id="edge10" class="edge"><title>2&#45;&#45;6</title>
<path fill="none" stroke="black" d="M208.906,-56.9622C218.646,-53.6844 265.977,-37.7566 276.214,-34.3116"/>
</g>
<!-- 4&#45;&#45;5 -->
<g id="edge11" class="edge"><title>4&#45;&#45;5</title>
<path fill="none" stroke="black" d="M86.97,-145.063C95.8991,-150.261 136.027,-173.622 144.698,-178.67"/>
</g>
<!-- 7 -->
<g id="node9" class="node"><title>7</title>
<ellipse fill="black" stroke="black" cx="343.919" cy="-1.8" rx="1.8" ry="1.8"/>
</g>
<!-- 6&#45;&#45;7 -->
<g id="edge12" class="edge"><title>6&#45;&#45;7</title>
<path fill="none" stroke="black" d="M279.795,-32.8663C288.812,-28.4976 332.631,-7.26845 342.109,-2.67684"/>
</g>
</g>
</svg>
