<?xml version="1.0" encoding="UTF-8" standalone="no"?>
<!DOCTYPE svg PUBLIC "-//W3C//DTD SVG 1.1//EN"
 "http://www.w3.org/Graphics/SVG/1.1/DTD/svg11.dtd">
<!-- Generated by graphviz version 2.36.0 (20140111.2315)
 -->
<!-- Title: %3 Pages: 1 -->
<svg width="144pt" height="162pt"
 viewBox="0.00 0.00 144.20 161.84" xmlns="http://www.w3.org/2000/svg" xmlns:xlink="http://www.w3.org/1999/xlink">
<g id="graph0" class="graph" transform="scale(1 1) rotate(0) translate(4 157.836)">
<title>%3</title>
<!-- 0 -->
<g id="node1" class="node"><title>0</title>
<ellipse fill="black" stroke="black" cx="54.605" cy="-69.7359" rx="1.8" ry="1.8"/>
</g>
<!-- 1 -->
<g id="node2" class="node"><title>1</title>
<ellipse fill="black" stroke="black" cx="93.2126" cy="-80.1708" rx="1.8" ry="1.8"/>
</g>
<!-- 0&#45;&#45;1 -->
<g id="edge1" class="edge"><title>0&#45;&#45;1</title>
<path fill="none" stroke="black" d="M56.6807,-70.297C63.4469,-72.1257 84.8028,-77.8978 91.3113,-79.6569"/>
</g>
<!-- 2 -->
<g id="node3" class="node"><title>2</title>
<ellipse fill="black" stroke="black" cx="121.182" cy="-112.243" rx="1.8" ry="1.8"/>
</g>
<!-- 0&#45;&#45;2 -->
<g id="edge2" class="edge"><title>0&#45;&#45;2</title>
<path fill="none" stroke="black" d="M56.2508,-70.7867C65.3817,-76.6164 109.753,-104.945 119.349,-111.072"/>
</g>
<!-- 3 -->
<g id="node4" class="node"><title>3</title>
<ellipse fill="black" stroke="black" cx="52.8982" cy="-151.364" rx="1.8" ry="1.8"/>
</g>
<!-- 0&#45;&#45;3 -->
<g id="edge3" class="edge"><title>0&#45;&#45;3</title>
<path fill="none" stroke="black" d="M54.5628,-71.7537C54.3267,-83.0472 53.1712,-138.309 52.9389,-149.417"/>
</g>
<!-- 4 -->
<g id="node5" class="node"><title>4</title>
<ellipse fill="black" stroke="black" cx="95.0797" cy="-152.036" rx="1.8" ry="1.8"/>
</g>
<!-- 0&#45;&#45;4 -->
<g id="edge4" class="edge"><title>0&#45;&#45;4</title>
<path fill="none" stroke="black" d="M55.4504,-71.4549C60.7178,-82.1655 88.9851,-139.643 94.239,-150.326"/>
</g>
<!-- 5 -->
<g id="node6" class="node"><title>5</title>
<ellipse fill="black" stroke="black" cx="27.713" cy="-119.368" rx="1.8" ry="1.8"/>
</g>
<!-- 0&#45;&#45;5 -->
<g id="edge5" class="edge"><title>0&#45;&#45;5</title>
<path fill="none" stroke="black" d="M53.7103,-71.3873C49.6274,-78.9227 32.7854,-110.006 28.6387,-117.66"/>
</g>
<!-- 6 -->
<g id="node7" class="node"><title>6</title>
<ellipse fill="black" stroke="black" cx="72.9793" cy="-1.8" rx="1.8" ry="1.8"/>
</g>
<!-- 0&#45;&#45;6 -->
<g id="edge6" class="edge"><title>0&#45;&#45;6</title>
<path fill="none" stroke="black" d="M55.1351,-67.776C57.8183,-57.8555 69.8763,-13.2729 72.4819,-3.63911"/>
</g>
<!-- 7 -->
<g id="node8" class="node"><title>7</title>
<ellipse fill="black" stroke="black" cx="134.4" cy="-34.6498" rx="1.8" ry="1.8"/>
</g>
<!-- 0&#45;&#45;7 -->
<g id="edge7" class="edge"><title>0&#45;&#45;7</title>
<path fill="none" stroke="black" d="M56.2717,-69.0031C66.6562,-64.437 122.385,-39.933 132.743,-35.3786"/>
</g>
<!-- 8 -->
<g id="node9" class="node"><title>8</title>
<ellipse fill="black" stroke="black" cx="1.8" cy="-11.7744" rx="1.8" ry="1.8"/>
</g>
<!-- 0&#45;&#45;8 -->
<g id="edge8" class="edge"><title>0&#45;&#45;8</title>
<path fill="none" stroke="black" d="M53.2997,-68.3032C46.0576,-60.3538 10.8653,-21.7249 3.25358,-13.3699"/>
</g>
<!-- 1&#45;&#45;2 -->
<g id="edge9" class="edge"><title>1&#45;&#45;2</title>
<path fill="none" stroke="black" d="M94.4145,-81.5489C98.9315,-86.7284 114.882,-105.019 119.757,-110.608"/>
</g>
<!-- 1&#45;&#45;3 -->
<g id="edge10" class="edge"><title>1&#45;&#45;3</title>
<path fill="none" stroke="black" d="M92.2161,-81.9306C86.6385,-91.7804 59.3461,-139.978 53.8599,-149.666"/>
</g>
<!-- 1&#45;&#45;4 -->
<g id="edge11" class="edge"><title>1&#45;&#45;4</title>
<path fill="none" stroke="black" d="M93.2665,-82.2441C93.5391,-92.7383 94.7644,-139.899 95.0291,-150.09"/>
</g>
<!-- 1&#45;&#45;5 -->
<g id="edge12" class="edge"><title>1&#45;&#45;5</title>
<path fill="none" stroke="black" d="M91.5935,-81.1397C82.6103,-86.5156 38.9576,-112.639 29.516,-118.289"/>
</g>
<!-- 1&#45;&#45;6 -->
<g id="edge13" class="edge"><title>1&#45;&#45;6</title>
<path fill="none" stroke="black" d="M92.7125,-78.2335C89.9132,-67.3908 76.2155,-14.3347 73.462,-3.66955"/>
</g>
<!-- 1&#45;&#45;7 -->
<g id="edge14" class="edge"><title>1&#45;&#45;7</title>
<path fill="none" stroke="black" d="M94.583,-78.6562C100.836,-71.745 126.631,-43.236 132.982,-36.2168"/>
</g>
<!-- 2&#45;&#45;3 -->
<g id="edge15" class="edge"><title>2&#45;&#45;3</title>
<path fill="none" stroke="black" d="M119.494,-113.21C110.129,-118.575 64.6208,-144.648 54.7778,-150.287"/>
</g>
<!-- 2&#45;&#45;4 -->
<g id="edge16" class="edge"><title>2&#45;&#45;4</title>
<path fill="none" stroke="black" d="M120.06,-113.952C115.767,-120.498 100.404,-143.919 96.168,-150.377"/>
</g>
<!-- 2&#45;&#45;5 -->
<g id="edge17" class="edge"><title>2&#45;&#45;5</title>
<path fill="none" stroke="black" d="M119.23,-112.391C107.066,-113.319 41.7873,-118.295 29.6545,-119.22"/>
</g>
<!-- 2&#45;&#45;7 -->
<g id="edge18" class="edge"><title>2&#45;&#45;7</title>
<path fill="none" stroke="black" d="M121.509,-110.325C123.338,-99.5894 132.286,-47.0601 134.085,-36.5008"/>
</g>
<!-- 3&#45;&#45;4 -->
<g id="edge19" class="edge"><title>3&#45;&#45;4</title>
<path fill="none" stroke="black" d="M54.7107,-151.393C61.5229,-151.502 85.5788,-151.885 92.9299,-152.002"/>
</g>
<!-- 3&#45;&#45;5 -->
<g id="edge20" class="edge"><title>3&#45;&#45;5</title>
<path fill="none" stroke="black" d="M51.5441,-149.644C47.1303,-144.037 33.1991,-126.338 28.9534,-120.944"/>
</g>
<!-- 4&#45;&#45;5 -->
<g id="edge21" class="edge"><title>4&#45;&#45;5</title>
<path fill="none" stroke="black" d="M93.4144,-151.228C84.1752,-146.748 39.2781,-124.976 29.5674,-120.267"/>
</g>
<!-- 6&#45;&#45;7 -->
<g id="edge22" class="edge"><title>6&#45;&#45;7</title>
<path fill="none" stroke="black" d="M74.7513,-2.7477C83.7204,-7.54468 124.027,-29.1022 132.737,-33.7605"/>
</g>
<!-- 6&#45;&#45;8 -->
<g id="edge23" class="edge"><title>6&#45;&#45;8</title>
<path fill="none" stroke="black" d="M70.9258,-2.08776C60.5317,-3.54429 13.8206,-10.0899 3.72691,-11.5043"/>
</g>
</g>
</svg>
