<?xml version="1.0" encoding="UTF-8" standalone="no"?>
<!DOCTYPE svg PUBLIC "-//W3C//DTD SVG 1.1//EN"
 "http://www.w3.org/Graphics/SVG/1.1/DTD/svg11.dtd">
<!-- Generated by graphviz version 2.36.0 (20140111.2315)
 -->
<!-- Title: %3 Pages: 1 -->
<svg width="189pt" height="182pt"
 viewBox="0.00 0.00 188.83 181.67" xmlns="http://www.w3.org/2000/svg" xmlns:xlink="http://www.w3.org/1999/xlink">
<g id="graph0" class="graph" transform="scale(1 1) rotate(0) translate(4 177.669)">
<title>%3</title>
<!-- 0 -->
<g id="node1" class="node"><title>0</title>
<ellipse fill="black" stroke="black" cx="62.5791" cy="-116.934" rx="1.8" ry="1.8"/>
</g>
<!-- 1 -->
<g id="node2" class="node"><title>1</title>
<ellipse fill="black" stroke="black" cx="81.8708" cy="-64.9486" rx="1.8" ry="1.8"/>
</g>
<!-- 0&#45;&#45;1 -->
<g id="edge1" class="edge"><title>0&#45;&#45;1</title>
<path fill="none" stroke="black" d="M63.221,-115.204C66.15,-107.312 78.232,-74.7541 81.2068,-66.738"/>
</g>
<!-- 2 -->
<g id="node3" class="node"><title>2</title>
<ellipse fill="black" stroke="black" cx="131.082" cy="-76.8937" rx="1.8" ry="1.8"/>
</g>
<!-- 0&#45;&#45;2 -->
<g id="edge2" class="edge"><title>0&#45;&#45;2</title>
<path fill="none" stroke="black" d="M64.2725,-115.944C73.6676,-110.453 119.322,-83.7676 129.197,-77.9959"/>
</g>
<!-- 3 -->
<g id="node4" class="node"><title>3</title>
<ellipse fill="black" stroke="black" cx="134.199" cy="-130.82" rx="1.8" ry="1.8"/>
</g>
<!-- 0&#45;&#45;3 -->
<g id="edge3" class="edge"><title>0&#45;&#45;3</title>
<path fill="none" stroke="black" d="M64.3495,-117.277C74.1721,-119.182 121.904,-128.436 132.227,-130.437"/>
</g>
<!-- 4 -->
<g id="node5" class="node"><title>4</title>
<ellipse fill="black" stroke="black" cx="1.8" cy="-104.001" rx="1.8" ry="1.8"/>
</g>
<!-- 0&#45;&#45;4 -->
<g id="edge4" class="edge"><title>0&#45;&#45;4</title>
<path fill="none" stroke="black" d="M60.5569,-116.504C51.329,-114.54 13.2642,-106.44 3.89215,-104.446"/>
</g>
<!-- 5 -->
<g id="node6" class="node"><title>5</title>
<ellipse fill="black" stroke="black" cx="104.293" cy="-171.869" rx="1.8" ry="1.8"/>
</g>
<!-- 0&#45;&#45;5 -->
<g id="edge5" class="edge"><title>0&#45;&#45;5</title>
<path fill="none" stroke="black" d="M63.967,-118.762C70.4134,-127.251 97.3644,-162.744 103.183,-170.407"/>
</g>
<!-- 7 -->
<g id="node7" class="node"><title>7</title>
<ellipse fill="black" stroke="black" cx="17.1069" cy="-46.4005" rx="1.8" ry="1.8"/>
</g>
<!-- 0&#45;&#45;7 -->
<g id="edge6" class="edge"><title>0&#45;&#45;7</title>
<path fill="none" stroke="black" d="M61.4551,-115.191C55.1639,-105.432 24.3798,-57.6817 18.1916,-48.0831"/>
</g>
<!-- 1&#45;&#45;2 -->
<g id="edge7" class="edge"><title>1&#45;&#45;2</title>
<path fill="none" stroke="black" d="M83.9854,-65.4619C92.0801,-67.4267 121.044,-74.4572 129.03,-76.3957"/>
</g>
<!-- 1&#45;&#45;3 -->
<g id="edge8" class="edge"><title>1&#45;&#45;3</title>
<path fill="none" stroke="black" d="M83.1643,-66.5769C90.3411,-75.611 125.215,-119.511 132.758,-129.006"/>
</g>
<!-- 1&#45;&#45;4 -->
<g id="edge9" class="edge"><title>1&#45;&#45;4</title>
<path fill="none" stroke="black" d="M80.1984,-65.7642C69.778,-70.8465 13.8568,-98.1203 3.46319,-103.189"/>
</g>
<!-- 1&#45;&#45;7 -->
<g id="edge11" class="edge"><title>1&#45;&#45;7</title>
<path fill="none" stroke="black" d="M80.0024,-64.4135C70.5451,-61.705 28.0441,-49.5329 18.8601,-46.9026"/>
</g>
<!-- 6 -->
<g id="node8" class="node"><title>6</title>
<ellipse fill="black" stroke="black" cx="179.027" cy="-86.4938" rx="1.8" ry="1.8"/>
</g>
<!-- 1&#45;&#45;6 -->
<g id="edge10" class="edge"><title>1&#45;&#45;6</title>
<path fill="none" stroke="black" d="M83.9001,-65.3986C96.5441,-68.2025 164.398,-83.2495 177.009,-86.0462"/>
</g>
<!-- 2&#45;&#45;3 -->
<g id="edge12" class="edge"><title>2&#45;&#45;3</title>
<path fill="none" stroke="black" d="M131.216,-79.2109C131.729,-88.0811 133.563,-119.82 134.069,-128.571"/>
</g>
<!-- 2&#45;&#45;5 -->
<g id="edge13" class="edge"><title>2&#45;&#45;5</title>
<path fill="none" stroke="black" d="M130.523,-78.8774C127.036,-91.2375 108.327,-157.568 104.85,-169.896"/>
</g>
<!-- 2&#45;&#45;6 -->
<g id="edge14" class="edge"><title>2&#45;&#45;6</title>
<path fill="none" stroke="black" d="M133.142,-77.3062C141.029,-78.8853 169.248,-84.5356 177.028,-86.0935"/>
</g>
<!-- 8 -->
<g id="node9" class="node"><title>8</title>
<ellipse fill="black" stroke="black" cx="173.395" cy="-1.8" rx="1.8" ry="1.8"/>
</g>
<!-- 2&#45;&#45;8 -->
<g id="edge15" class="edge"><title>2&#45;&#45;8</title>
<path fill="none" stroke="black" d="M131.966,-75.3253C137.425,-65.6368 166.516,-14.0084 172.368,-3.62137"/>
</g>
<!-- 3&#45;&#45;5 -->
<g id="edge16" class="edge"><title>3&#45;&#45;5</title>
<path fill="none" stroke="black" d="M132.914,-132.583C127.995,-139.336 110.393,-163.496 105.54,-170.157"/>
</g>
<!-- 3&#45;&#45;6 -->
<g id="edge17" class="edge"><title>3&#45;&#45;6</title>
<path fill="none" stroke="black" d="M135.69,-129.345C142.497,-122.615 170.572,-94.8545 177.484,-88.0195"/>
</g>
<!-- 4&#45;&#45;7 -->
<g id="edge18" class="edge"><title>4&#45;&#45;7</title>
<path fill="none" stroke="black" d="M2.30929,-102.084C4.63327,-93.339 14.2197,-57.2651 16.58,-48.3832"/>
</g>
</g>
</svg>
