<?xml version="1.0" encoding="UTF-8" standalone="no"?>
<!DOCTYPE svg PUBLIC "-//W3C//DTD SVG 1.1//EN"
 "http://www.w3.org/Graphics/SVG/1.1/DTD/svg11.dtd">
<!-- Generated by graphviz version 2.36.0 (20140111.2315)
 -->
<!-- Title: %3 Pages: 1 -->
<svg width="174pt" height="172pt"
 viewBox="0.00 0.00 173.76 172.38" xmlns="http://www.w3.org/2000/svg" xmlns:xlink="http://www.w3.org/1999/xlink">
<g id="graph0" class="graph" transform="scale(1 1) rotate(0) translate(4 168.384)">
<title>%3</title>
<!-- 0 -->
<g id="node1" class="node"><title>0</title>
<ellipse fill="black" stroke="black" cx="78.5094" cy="-59.5422" rx="1.8" ry="1.8"/>
</g>
<!-- 1 -->
<g id="node2" class="node"><title>1</title>
<ellipse fill="black" stroke="black" cx="119.317" cy="-85.4137" rx="1.8" ry="1.8"/>
</g>
<!-- 0&#45;&#45;1 -->
<g id="edge1" class="edge"><title>0&#45;&#45;1</title>
<path fill="none" stroke="black" d="M80.2628,-60.6539C86.9752,-64.9095 110.993,-80.1365 117.615,-84.335"/>
</g>
<!-- 2 -->
<g id="node3" class="node"><title>2</title>
<ellipse fill="black" stroke="black" cx="37.5989" cy="-85.456" rx="1.8" ry="1.8"/>
</g>
<!-- 0&#45;&#45;2 -->
<g id="edge2" class="edge"><title>0&#45;&#45;2</title>
<path fill="none" stroke="black" d="M76.7515,-60.6557C70.0221,-64.9182 45.9437,-80.1702 39.3047,-84.3755"/>
</g>
<!-- 3 -->
<g id="node4" class="node"><title>3</title>
<ellipse fill="black" stroke="black" cx="24.4832" cy="-123.05" rx="1.8" ry="1.8"/>
</g>
<!-- 0&#45;&#45;3 -->
<g id="edge3" class="edge"><title>0&#45;&#45;3</title>
<path fill="none" stroke="black" d="M77.1739,-61.1121C69.7643,-69.8221 33.7581,-112.147 25.9704,-121.302"/>
</g>
<!-- 4 -->
<g id="node5" class="node"><title>4</title>
<ellipse fill="black" stroke="black" cx="75.1016" cy="-118.581" rx="1.8" ry="1.8"/>
</g>
<!-- 0&#45;&#45;4 -->
<g id="edge4" class="edge"><title>0&#45;&#45;4</title>
<path fill="none" stroke="black" d="M78.396,-61.5065C77.8786,-70.4702 75.7444,-107.445 75.2189,-116.549"/>
</g>
<!-- 5 -->
<g id="node6" class="node"><title>5</title>
<ellipse fill="black" stroke="black" cx="71.0399" cy="-162.584" rx="1.8" ry="1.8"/>
</g>
<!-- 0&#45;&#45;5 -->
<g id="edge5" class="edge"><title>0&#45;&#45;5</title>
<path fill="none" stroke="black" d="M78.3534,-61.6944C77.3729,-75.2199 72.0744,-148.314 71.1709,-160.777"/>
</g>
<!-- 6 -->
<g id="node7" class="node"><title>6</title>
<ellipse fill="black" stroke="black" cx="1.8" cy="-53.55" rx="1.8" ry="1.8"/>
</g>
<!-- 0&#45;&#45;6 -->
<g id="edge6" class="edge"><title>0&#45;&#45;6</title>
<path fill="none" stroke="black" d="M76.6132,-59.3941C66.0003,-58.565 14.069,-54.5084 3.62992,-53.6929"/>
</g>
<!-- 7 -->
<g id="node8" class="node"><title>7</title>
<ellipse fill="black" stroke="black" cx="163.962" cy="-44.2019" rx="1.8" ry="1.8"/>
</g>
<!-- 0&#45;&#45;7 -->
<g id="edge7" class="edge"><title>0&#45;&#45;7</title>
<path fill="none" stroke="black" d="M80.2942,-59.2218C91.4149,-57.2254 151.094,-46.5118 162.187,-44.5206"/>
</g>
<!-- 8 -->
<g id="node9" class="node"><title>8</title>
<ellipse fill="black" stroke="black" cx="119.118" cy="-1.8" rx="1.8" ry="1.8"/>
</g>
<!-- 0&#45;&#45;8 -->
<g id="edge8" class="edge"><title>0&#45;&#45;8</title>
<path fill="none" stroke="black" d="M79.8605,-57.621C86.136,-48.6977 112.373,-11.3911 118.037,-3.33702"/>
</g>
<!-- 1&#45;&#45;2 -->
<g id="edge9" class="edge"><title>1&#45;&#45;2</title>
<path fill="none" stroke="black" d="M117.297,-85.4148C105.991,-85.4206 50.669,-85.4493 39.5483,-85.455"/>
</g>
<!-- 1&#45;&#45;3 -->
<g id="edge10" class="edge"><title>1&#45;&#45;3</title>
<path fill="none" stroke="black" d="M117.336,-86.1998C104.994,-91.0978 38.763,-117.383 26.453,-122.268"/>
</g>
<!-- 1&#45;&#45;4 -->
<g id="edge11" class="edge"><title>1&#45;&#45;4</title>
<path fill="none" stroke="black" d="M117.846,-86.5173C111.133,-91.553 83.4415,-112.325 76.6236,-117.44"/>
</g>
<!-- 1&#45;&#45;7 -->
<g id="edge12" class="edge"><title>1&#45;&#45;7</title>
<path fill="none" stroke="black" d="M120.802,-84.0425C127.581,-77.7855 155.541,-51.9753 162.425,-45.6205"/>
</g>
<!-- 1&#45;&#45;8 -->
<g id="edge13" class="edge"><title>1&#45;&#45;8</title>
<path fill="none" stroke="black" d="M119.312,-83.3469C119.284,-71.7787 119.15,-15.1733 119.123,-3.79462"/>
</g>
<!-- 2&#45;&#45;3 -->
<g id="edge14" class="edge"><title>2&#45;&#45;3</title>
<path fill="none" stroke="black" d="M36.8938,-87.4773C34.5952,-94.0658 27.3402,-114.861 25.1291,-121.198"/>
</g>
<!-- 2&#45;&#45;4 -->
<g id="edge15" class="edge"><title>2&#45;&#45;4</title>
<path fill="none" stroke="black" d="M39.2104,-86.8794C45.3792,-92.3282 67.4519,-111.825 73.5379,-117.2"/>
</g>
<!-- 2&#45;&#45;5 -->
<g id="edge16" class="edge"><title>2&#45;&#45;5</title>
<path fill="none" stroke="black" d="M38.4256,-87.3626C43.0522,-98.0334 65.6913,-150.248 70.2421,-160.744"/>
</g>
<!-- 2&#45;&#45;6 -->
<g id="edge17" class="edge"><title>2&#45;&#45;6</title>
<path fill="none" stroke="black" d="M36.0607,-84.0851C30.1721,-78.8369 9.10214,-60.0581 3.29266,-54.8803"/>
</g>
<!-- 3&#45;&#45;4 -->
<g id="edge18" class="edge"><title>3&#45;&#45;4</title>
<path fill="none" stroke="black" d="M26.6582,-122.858C34.9844,-122.123 64.7766,-119.493 72.991,-118.768"/>
</g>
<!-- 3&#45;&#45;5 -->
<g id="edge19" class="edge"><title>3&#45;&#45;5</title>
<path fill="none" stroke="black" d="M26.0322,-124.365C33.1007,-130.368 62.2583,-155.127 69.4373,-161.223"/>
</g>
<!-- 3&#45;&#45;6 -->
<g id="edge20" class="edge"><title>3&#45;&#45;6</title>
<path fill="none" stroke="black" d="M23.9225,-121.332C20.8115,-111.8 5.69412,-65.4813 2.42441,-55.4631"/>
</g>
<!-- 4&#45;&#45;5 -->
<g id="edge21" class="edge"><title>4&#45;&#45;5</title>
<path fill="none" stroke="black" d="M74.9271,-120.472C74.259,-127.71 71.8684,-153.609 71.2092,-160.75"/>
</g>
<!-- 4&#45;&#45;6 -->
<g id="edge22" class="edge"><title>4&#45;&#45;6</title>
<path fill="none" stroke="black" d="M73.5706,-117.223C64.0311,-108.76 12.8375,-63.3422 3.32258,-54.9008"/>
</g>
<!-- 7&#45;&#45;8 -->
<g id="edge23" class="edge"><title>7&#45;&#45;8</title>
<path fill="none" stroke="black" d="M162.469,-42.7911C155.661,-36.3534 127.576,-9.79787 120.661,-3.25957"/>
</g>
</g>
</svg>
