<?xml version="1.0" encoding="UTF-8" standalone="no"?>
<!DOCTYPE svg PUBLIC "-//W3C//DTD SVG 1.1//EN"
 "http://www.w3.org/Graphics/SVG/1.1/DTD/svg11.dtd">
<!-- Generated by graphviz version 2.36.0 (20140111.2315)
 -->
<!-- Title: %3 Pages: 1 -->
<svg width="166pt" height="151pt"
 viewBox="0.00 0.00 165.59 151.39" xmlns="http://www.w3.org/2000/svg" xmlns:xlink="http://www.w3.org/1999/xlink">
<g id="graph0" class="graph" transform="scale(1 1) rotate(0) translate(4 147.387)">
<title>%3</title>
<!-- 0 -->
<g id="node1" class="node"><title>0</title>
<ellipse fill="black" stroke="black" cx="81.571" cy="-87.4302" rx="1.8" ry="1.8"/>
</g>
<!-- 1 -->
<g id="node2" class="node"><title>1</title>
<ellipse fill="black" stroke="black" cx="61.9666" cy="-140.648" rx="1.8" ry="1.8"/>
</g>
<!-- 0&#45;&#45;1 -->
<g id="edge1" class="edge"><title>0&#45;&#45;1</title>
<path fill="none" stroke="black" d="M80.9187,-89.2008C77.9423,-97.2807 65.6644,-130.61 62.6414,-138.816"/>
</g>
<!-- 2 -->
<g id="node3" class="node"><title>2</title>
<ellipse fill="black" stroke="black" cx="40.027" cy="-53.1897" rx="1.8" ry="1.8"/>
</g>
<!-- 0&#45;&#45;2 -->
<g id="edge2" class="edge"><title>0&#45;&#45;2</title>
<path fill="none" stroke="black" d="M79.7859,-85.9589C72.9523,-80.3267 48.501,-60.1739 41.7592,-54.6173"/>
</g>
<!-- 3 -->
<g id="node4" class="node"><title>3</title>
<ellipse fill="black" stroke="black" cx="120.693" cy="-141.587" rx="1.8" ry="1.8"/>
</g>
<!-- 0&#45;&#45;3 -->
<g id="edge3" class="edge"><title>0&#45;&#45;3</title>
<path fill="none" stroke="black" d="M82.8726,-89.232C88.8124,-97.4544 113.314,-131.372 119.346,-139.722"/>
</g>
<!-- 5 -->
<g id="node5" class="node"><title>5</title>
<ellipse fill="black" stroke="black" cx="155.788" cy="-122.017" rx="1.8" ry="1.8"/>
</g>
<!-- 0&#45;&#45;5 -->
<g id="edge4" class="edge"><title>0&#45;&#45;5</title>
<path fill="none" stroke="black" d="M83.4056,-88.2851C93.6736,-93.0703 143.917,-116.485 154.017,-121.192"/>
</g>
<!-- 6 -->
<g id="node6" class="node"><title>6</title>
<ellipse fill="black" stroke="black" cx="1.8" cy="-109.097" rx="1.8" ry="1.8"/>
</g>
<!-- 0&#45;&#45;6 -->
<g id="edge5" class="edge"><title>0&#45;&#45;6</title>
<path fill="none" stroke="black" d="M79.5991,-87.9658C68.5626,-90.9634 14.5587,-105.632 3.70295,-108.58"/>
</g>
<!-- 7 -->
<g id="node7" class="node"><title>7</title>
<ellipse fill="black" stroke="black" cx="80.5404" cy="-1.8" rx="1.8" ry="1.8"/>
</g>
<!-- 0&#45;&#45;7 -->
<g id="edge6" class="edge"><title>0&#45;&#45;7</title>
<path fill="none" stroke="black" d="M81.5455,-85.3134C81.4029,-73.4664 80.7052,-15.4958 80.565,-3.84272"/>
</g>
<!-- 1&#45;&#45;2 -->
<g id="edge7" class="edge"><title>1&#45;&#45;2</title>
<path fill="none" stroke="black" d="M61.5084,-138.821C58.6531,-127.439 43.3306,-66.3589 40.4827,-55.0063"/>
</g>
<!-- 1&#45;&#45;3 -->
<g id="edge8" class="edge"><title>1&#45;&#45;3</title>
<path fill="none" stroke="black" d="M63.9205,-140.679C72.8367,-140.822 109.616,-141.41 118.671,-141.554"/>
</g>
<!-- 1&#45;&#45;5 -->
<g id="edge9" class="edge"><title>1&#45;&#45;5</title>
<path fill="none" stroke="black" d="M63.9262,-140.259C76.1361,-137.834 141.66,-124.822 153.839,-122.404"/>
</g>
<!-- 1&#45;&#45;6 -->
<g id="edge10" class="edge"><title>1&#45;&#45;6</title>
<path fill="none" stroke="black" d="M60.2308,-139.738C51.4448,-135.13 11.9608,-114.426 3.42878,-109.951"/>
</g>
<!-- 2&#45;&#45;6 -->
<g id="edge12" class="edge"><title>2&#45;&#45;6</title>
<path fill="none" stroke="black" d="M38.7551,-55.0498C32.8476,-63.6896 8.14957,-99.8109 2.81755,-107.609"/>
</g>
<!-- 2&#45;&#45;7 -->
<g id="edge13" class="edge"><title>2&#45;&#45;7</title>
<path fill="none" stroke="black" d="M41.3749,-51.4798C47.5259,-43.6775 72.8987,-11.4931 79.1458,-3.56895"/>
</g>
<!-- 4 -->
<g id="node8" class="node"><title>4</title>
<ellipse fill="black" stroke="black" cx="129.002" cy="-43.6796" rx="1.8" ry="1.8"/>
</g>
<!-- 2&#45;&#45;4 -->
<g id="edge11" class="edge"><title>2&#45;&#45;4</title>
<path fill="none" stroke="black" d="M41.8853,-52.991C53.4646,-51.7534 115.604,-45.1116 127.154,-43.8771"/>
</g>
<!-- 3&#45;&#45;5 -->
<g id="edge15" class="edge"><title>3&#45;&#45;5</title>
<path fill="none" stroke="black" d="M122.58,-140.535C128.73,-137.105 148.143,-126.28 154.059,-122.981"/>
</g>
<!-- 3&#45;&#45;4 -->
<g id="edge14" class="edge"><title>3&#45;&#45;4</title>
<path fill="none" stroke="black" d="M120.867,-139.542C121.948,-126.8 127.751,-58.4221 128.829,-45.7133"/>
</g>
<!-- 4&#45;&#45;7 -->
<g id="edge16" class="edge"><title>4&#45;&#45;7</title>
<path fill="none" stroke="black" d="M127.389,-42.2862C120.032,-35.9278 89.6812,-9.69935 82.2085,-3.24159"/>
</g>
</g>
</svg>
