<?xml version="1.0" encoding="UTF-8" standalone="no"?>
<!DOCTYPE svg PUBLIC "-//W3C//DTD SVG 1.1//EN"
 "http://www.w3.org/Graphics/SVG/1.1/DTD/svg11.dtd">
<!-- Generated by graphviz version 2.36.0 (20140111.2315)
 -->
<!-- Title: %3 Pages: 1 -->
<svg width="179pt" height="187pt"
 viewBox="0.00 0.00 179.37 186.72" xmlns="http://www.w3.org/2000/svg" xmlns:xlink="http://www.w3.org/1999/xlink">
<g id="graph0" class="graph" transform="scale(1 1) rotate(0) translate(4 182.723)">
<title>%3</title>
<!-- 0 -->
<g id="node1" class="node"><title>0</title>
<ellipse fill="black" stroke="black" cx="91.4907" cy="-82.8769" rx="1.8" ry="1.8"/>
</g>
<!-- 1 -->
<g id="node2" class="node"><title>1</title>
<ellipse fill="black" stroke="black" cx="100.504" cy="-138.718" rx="1.8" ry="1.8"/>
</g>
<!-- 0&#45;&#45;1 -->
<g id="edge1" class="edge"><title>0&#45;&#45;1</title>
<path fill="none" stroke="black" d="M91.7906,-84.7349C93.1592,-93.2131 98.8043,-128.186 100.194,-136.796"/>
</g>
<!-- 2 -->
<g id="node3" class="node"><title>2</title>
<ellipse fill="black" stroke="black" cx="34.1052" cy="-80.3939" rx="1.8" ry="1.8"/>
</g>
<!-- 0&#45;&#45;2 -->
<g id="edge2" class="edge"><title>0&#45;&#45;2</title>
<path fill="none" stroke="black" d="M89.5814,-82.7943C80.8688,-82.4173 44.9293,-80.8622 36.0806,-80.4793"/>
</g>
<!-- 3 -->
<g id="node4" class="node"><title>3</title>
<ellipse fill="black" stroke="black" cx="68.8051" cy="-176.923" rx="1.8" ry="1.8"/>
</g>
<!-- 0&#45;&#45;3 -->
<g id="edge3" class="edge"><title>0&#45;&#45;3</title>
<path fill="none" stroke="black" d="M91.0169,-84.8412C88.0646,-97.0804 72.221,-162.762 69.2763,-174.969"/>
</g>
<!-- 4 -->
<g id="node5" class="node"><title>4</title>
<ellipse fill="black" stroke="black" cx="161.51" cy="-132.104" rx="1.8" ry="1.8"/>
</g>
<!-- 0&#45;&#45;4 -->
<g id="edge4" class="edge"><title>0&#45;&#45;4</title>
<path fill="none" stroke="black" d="M93.2216,-84.0938C102.825,-90.8452 149.489,-123.653 159.582,-130.749"/>
</g>
<!-- 5 -->
<g id="node6" class="node"><title>5</title>
<ellipse fill="black" stroke="black" cx="1.8" cy="-118.452" rx="1.8" ry="1.8"/>
</g>
<!-- 0&#45;&#45;5 -->
<g id="edge5" class="edge"><title>0&#45;&#45;5</title>
<path fill="none" stroke="black" d="M89.6174,-83.6199C77.945,-88.2497 15.3054,-113.095 3.66301,-117.713"/>
</g>
<!-- 6 -->
<g id="node7" class="node"><title>6</title>
<ellipse fill="black" stroke="black" cx="34.267" cy="-19.292" rx="1.8" ry="1.8"/>
</g>
<!-- 0&#45;&#45;6 -->
<g id="edge6" class="edge"><title>0&#45;&#45;6</title>
<path fill="none" stroke="black" d="M90.0762,-81.3052C82.228,-72.5845 44.0908,-30.2079 35.8422,-21.0423"/>
</g>
<!-- 7 -->
<g id="node8" class="node"><title>7</title>
<ellipse fill="black" stroke="black" cx="169.572" cy="-52.0629" rx="1.8" ry="1.8"/>
</g>
<!-- 0&#45;&#45;7 -->
<g id="edge7" class="edge"><title>0&#45;&#45;7</title>
<path fill="none" stroke="black" d="M93.4208,-82.1152C104.224,-77.852 157.084,-56.9913 167.709,-52.798"/>
</g>
<!-- 8 -->
<g id="node9" class="node"><title>8</title>
<ellipse fill="black" stroke="black" cx="112.836" cy="-1.8" rx="1.8" ry="1.8"/>
</g>
<!-- 0&#45;&#45;8 -->
<g id="edge8" class="edge"><title>0&#45;&#45;8</title>
<path fill="none" stroke="black" d="M92.0184,-80.8728C94.9716,-69.6556 109.422,-14.7675 112.327,-3.73411"/>
</g>
<!-- 1&#45;&#45;2 -->
<g id="edge9" class="edge"><title>1&#45;&#45;2</title>
<path fill="none" stroke="black" d="M98.8631,-137.277C89.5968,-129.137 43.9407,-89.0333 35.4617,-81.5854"/>
</g>
<!-- 1&#45;&#45;3 -->
<g id="edge10" class="edge"><title>1&#45;&#45;3</title>
<path fill="none" stroke="black" d="M99.1424,-140.36C93.9282,-146.644 75.271,-169.13 70.1268,-175.33"/>
</g>
<!-- 1&#45;&#45;4 -->
<g id="edge11" class="edge"><title>1&#45;&#45;4</title>
<path fill="none" stroke="black" d="M102.534,-138.498C111.796,-137.494 150.003,-133.352 159.41,-132.332"/>
</g>
<!-- 2&#45;&#45;5 -->
<g id="edge12" class="edge"><title>2&#45;&#45;5</title>
<path fill="none" stroke="black" d="M32.7171,-82.0292C27.4032,-88.2893 8.38951,-110.689 3.14699,-116.865"/>
</g>
<!-- 2&#45;&#45;6 -->
<g id="edge13" class="edge"><title>2&#45;&#45;6</title>
<path fill="none" stroke="black" d="M34.1106,-78.3609C34.1352,-69.0841 34.2365,-30.8171 34.2614,-21.3953"/>
</g>
</g>
</svg>
