<?xml version="1.0" encoding="UTF-8" standalone="no"?>
<!DOCTYPE svg PUBLIC "-//W3C//DTD SVG 1.1//EN"
 "http://www.w3.org/Graphics/SVG/1.1/DTD/svg11.dtd">
<!-- Generated by graphviz version 2.36.0 (20140111.2315)
 -->
<!-- Title: %3 Pages: 1 -->
<svg width="163pt" height="165pt"
 viewBox="0.00 0.00 163.32 165.27" xmlns="http://www.w3.org/2000/svg" xmlns:xlink="http://www.w3.org/1999/xlink">
<g id="graph0" class="graph" transform="scale(1 1) rotate(0) translate(4 161.27)">
<title>%3</title>
<!-- 0 -->
<g id="node1" class="node"><title>0</title>
<ellipse fill="black" stroke="black" cx="81.6571" cy="-74.8887" rx="1.8" ry="1.8"/>
</g>
<!-- 1 -->
<g id="node2" class="node"><title>1</title>
<ellipse fill="black" stroke="black" cx="71.9957" cy="-109.255" rx="1.8" ry="1.8"/>
</g>
<!-- 0&#45;&#45;1 -->
<g id="edge1" class="edge"><title>0&#45;&#45;1</title>
<path fill="none" stroke="black" d="M81.1377,-76.7363C79.4758,-82.6477 74.2969,-101.069 72.5658,-107.227"/>
</g>
<!-- 2 -->
<g id="node3" class="node"><title>2</title>
<ellipse fill="black" stroke="black" cx="18.3" cy="-72.5521" rx="1.8" ry="1.8"/>
</g>
<!-- 0&#45;&#45;2 -->
<g id="edge2" class="edge"><title>0&#45;&#45;2</title>
<path fill="none" stroke="black" d="M79.8293,-74.8213C70.7397,-74.486 30.4485,-73.0001 20.5178,-72.6339"/>
</g>
<!-- 3 -->
<g id="node4" class="node"><title>3</title>
<ellipse fill="black" stroke="black" cx="52.2115" cy="-155.47" rx="1.8" ry="1.8"/>
</g>
<!-- 0&#45;&#45;3 -->
<g id="edge3" class="edge"><title>0&#45;&#45;3</title>
<path fill="none" stroke="black" d="M80.9293,-76.8806C76.8554,-88.0291 56.921,-142.581 52.9139,-153.547"/>
</g>
<!-- 4 -->
<g id="node5" class="node"><title>4</title>
<ellipse fill="black" stroke="black" cx="125.461" cy="-146.056" rx="1.8" ry="1.8"/>
</g>
<!-- 0&#45;&#45;4 -->
<g id="edge4" class="edge"><title>0&#45;&#45;4</title>
<path fill="none" stroke="black" d="M82.7399,-76.6479C88.8003,-86.4941 118.455,-134.674 124.416,-144.359"/>
</g>
<!-- 5 -->
<g id="node6" class="node"><title>5</title>
<ellipse fill="black" stroke="black" cx="1.8" cy="-127.601" rx="1.8" ry="1.8"/>
</g>
<!-- 0&#45;&#45;5 -->
<g id="edge5" class="edge"><title>0&#45;&#45;5</title>
<path fill="none" stroke="black" d="M79.9892,-75.9896C69.5966,-82.8497 13.8246,-119.664 3.45875,-126.506"/>
</g>
<!-- 6 -->
<g id="node7" class="node"><title>6</title>
<ellipse fill="black" stroke="black" cx="31.1815" cy="-22.9832" rx="1.8" ry="1.8"/>
</g>
<!-- 0&#45;&#45;6 -->
<g id="edge6" class="edge"><title>0&#45;&#45;6</title>
<path fill="none" stroke="black" d="M79.9777,-73.1617C72.1774,-65.1404 39.5656,-31.6048 32.5251,-24.3648"/>
</g>
<!-- 7 -->
<g id="node8" class="node"><title>7</title>
<ellipse fill="black" stroke="black" cx="78.8153" cy="-1.8" rx="1.8" ry="1.8"/>
</g>
<!-- 0&#45;&#45;7 -->
<g id="edge7" class="edge"><title>0&#45;&#45;7</title>
<path fill="none" stroke="black" d="M81.5869,-73.082C81.1971,-63.0579 79.3032,-14.3474 78.8935,-3.81193"/>
</g>
<!-- 8 -->
<g id="node9" class="node"><title>8</title>
<ellipse fill="black" stroke="black" cx="153.52" cy="-88.1321" rx="1.8" ry="1.8"/>
</g>
<!-- 0&#45;&#45;8 -->
<g id="edge8" class="edge"><title>0&#45;&#45;8</title>
<path fill="none" stroke="black" d="M83.4335,-75.216C93.2895,-77.0324 141.183,-85.8586 151.542,-87.7676"/>
</g>
<!-- 1&#45;&#45;2 -->
<g id="edge9" class="edge"><title>1&#45;&#45;2</title>
<path fill="none" stroke="black" d="M70.2092,-108.034C62.0568,-102.461 28.4281,-79.475 20.1483,-73.8155"/>
</g>
<!-- 1&#45;&#45;3 -->
<g id="edge10" class="edge"><title>1&#45;&#45;3</title>
<path fill="none" stroke="black" d="M71.1456,-111.241C67.8913,-118.843 56.247,-146.043 53.0364,-153.543"/>
</g>
<!-- 1&#45;&#45;4 -->
<g id="edge11" class="edge"><title>1&#45;&#45;4</title>
<path fill="none" stroke="black" d="M73.7746,-110.479C81.8921,-116.067 115.377,-139.115 123.621,-144.789"/>
</g>
<!-- 1&#45;&#45;5 -->
<g id="edge12" class="edge"><title>1&#45;&#45;5</title>
<path fill="none" stroke="black" d="M69.9706,-109.784C59.7201,-112.463 13.6545,-124.503 3.70028,-127.105"/>
</g>
<!-- 1&#45;&#45;6 -->
<g id="edge13" class="edge"><title>1&#45;&#45;6</title>
<path fill="none" stroke="black" d="M71.1433,-107.453C65.8317,-96.2256 37.3272,-35.9737 32.0293,-24.7752"/>
</g>
<!-- 1&#45;&#45;8 -->
<g id="edge14" class="edge"><title>1&#45;&#45;8</title>
<path fill="none" stroke="black" d="M74.0109,-108.733C85.29,-105.81 140.481,-91.5105 151.576,-88.636"/>
</g>
<!-- 2&#45;&#45;3 -->
<g id="edge15" class="edge"><title>2&#45;&#45;3</title>
<path fill="none" stroke="black" d="M19.0083,-74.284C23.4215,-85.0749 47.1052,-142.984 51.5071,-153.747"/>
</g>
<!-- 2&#45;&#45;5 -->
<g id="edge16" class="edge"><title>2&#45;&#45;5</title>
<path fill="none" stroke="black" d="M17.751,-74.3837C15.2459,-82.7416 4.91224,-117.218 2.36797,-125.706"/>
</g>
<!-- 2&#45;&#45;6 -->
<g id="edge17" class="edge"><title>2&#45;&#45;6</title>
<path fill="none" stroke="black" d="M18.8535,-70.4222C20.9724,-62.2686 28.554,-33.0941 30.6444,-25.05"/>
</g>
<!-- 2&#45;&#45;7 -->
<g id="edge18" class="edge"><title>2&#45;&#45;7</title>
<path fill="none" stroke="black" d="M19.5639,-71.0743C27.4394,-61.8666 69.7031,-12.4536 77.5583,-3.26963"/>
</g>
<!-- 3&#45;&#45;4 -->
<g id="edge19" class="edge"><title>3&#45;&#45;4</title>
<path fill="none" stroke="black" d="M54.0222,-155.237C64.0683,-153.946 112.886,-147.672 123.445,-146.315"/>
</g>
<!-- 3&#45;&#45;5 -->
<g id="edge20" class="edge"><title>3&#45;&#45;5</title>
<path fill="none" stroke="black" d="M50.5342,-154.542C42.8804,-150.311 11.3086,-132.858 3.53528,-128.561"/>
</g>
<!-- 4&#45;&#45;8 -->
<g id="edge21" class="edge"><title>4&#45;&#45;8</title>
<path fill="none" stroke="black" d="M126.395,-144.129C130.655,-135.335 148.228,-99.0578 152.554,-90.126"/>
</g>
<!-- 6&#45;&#45;7 -->
<g id="edge22" class="edge"><title>6&#45;&#45;7</title>
<path fill="none" stroke="black" d="M33.2283,-22.0729C41.0636,-18.5885 69.0991,-6.12087 76.8292,-2.68324"/>
</g>
</g>
</svg>
