<?xml version="1.0" encoding="UTF-8" standalone="no"?>
<!DOCTYPE svg PUBLIC "-//W3C//DTD SVG 1.1//EN"
 "http://www.w3.org/Graphics/SVG/1.1/DTD/svg11.dtd">
<!-- Generated by graphviz version 2.36.0 (20140111.2315)
 -->
<!-- Title: %3 Pages: 1 -->
<svg width="156pt" height="161pt"
 viewBox="0.00 0.00 156.09 160.64" xmlns="http://www.w3.org/2000/svg" xmlns:xlink="http://www.w3.org/1999/xlink">
<g id="graph0" class="graph" transform="scale(1 1) rotate(0) translate(4 156.645)">
<title>%3</title>
<!-- 0 -->
<g id="node1" class="node"><title>0</title>
<ellipse fill="black" stroke="black" cx="67.2831" cy="-61.3406" rx="1.8" ry="1.8"/>
</g>
<!-- 1 -->
<g id="node2" class="node"><title>1</title>
<ellipse fill="black" stroke="black" cx="62.267" cy="-113.245" rx="1.8" ry="1.8"/>
</g>
<!-- 0&#45;&#45;1 -->
<g id="edge1" class="edge"><title>0&#45;&#45;1</title>
<path fill="none" stroke="black" d="M67.0676,-63.5709C66.2425,-72.1087 63.2902,-102.658 62.4761,-111.081"/>
</g>
<!-- 2 -->
<g id="node3" class="node"><title>2</title>
<ellipse fill="black" stroke="black" cx="25.5106" cy="-131.211" rx="1.8" ry="1.8"/>
</g>
<!-- 0&#45;&#45;2 -->
<g id="edge2" class="edge"><title>0&#45;&#45;2</title>
<path fill="none" stroke="black" d="M66.2505,-63.0677C60.5215,-72.6504 32.6819,-119.216 26.6605,-129.288"/>
</g>
<!-- 3 -->
<g id="node4" class="node"><title>3</title>
<ellipse fill="black" stroke="black" cx="98.8776" cy="-79.4309" rx="1.8" ry="1.8"/>
</g>
<!-- 0&#45;&#45;3 -->
<g id="edge3" class="edge"><title>0&#45;&#45;3</title>
<path fill="none" stroke="black" d="M68.9818,-62.3132C74.4163,-65.4249 91.3522,-75.122 97.0133,-78.3634"/>
</g>
<!-- 4 -->
<g id="node5" class="node"><title>4</title>
<ellipse fill="black" stroke="black" cx="99.6197" cy="-150.845" rx="1.8" ry="1.8"/>
</g>
<!-- 0&#45;&#45;4 -->
<g id="edge4" class="edge"><title>0&#45;&#45;4</title>
<path fill="none" stroke="black" d="M67.9585,-63.21C72.1668,-74.8581 94.7506,-137.367 98.9481,-148.986"/>
</g>
<!-- 5 -->
<g id="node6" class="node"><title>5</title>
<ellipse fill="black" stroke="black" cx="2.07888" cy="-89.0904" rx="1.8" ry="1.8"/>
</g>
<!-- 0&#45;&#45;5 -->
<g id="edge5" class="edge"><title>0&#45;&#45;5</title>
<path fill="none" stroke="black" d="M65.402,-62.1412C55.8804,-66.1934 13.0904,-84.4041 3.84403,-88.3392"/>
</g>
<!-- 6 -->
<g id="node7" class="node"><title>6</title>
<ellipse fill="black" stroke="black" cx="1.8" cy="-45.8812" rx="1.8" ry="1.8"/>
</g>
<!-- 0&#45;&#45;6 -->
<g id="edge6" class="edge"><title>0&#45;&#45;6</title>
<path fill="none" stroke="black" d="M65.394,-60.8946C55.8316,-58.6371 12.8587,-48.4919 3.57271,-46.2997"/>
</g>
<!-- 7 -->
<g id="node8" class="node"><title>7</title>
<ellipse fill="black" stroke="black" cx="146.292" cy="-109.687" rx="1.8" ry="1.8"/>
</g>
<!-- 0&#45;&#45;7 -->
<g id="edge7" class="edge"><title>0&#45;&#45;7</title>
<path fill="none" stroke="black" d="M68.9333,-62.3504C79.2155,-68.6423 134.395,-102.407 144.651,-108.683"/>
</g>
<!-- 8 -->
<g id="node9" class="node"><title>8</title>
<ellipse fill="black" stroke="black" cx="114.62" cy="-1.8" rx="1.8" ry="1.8"/>
</g>
<!-- 0&#45;&#45;8 -->
<g id="edge8" class="edge"><title>0&#45;&#45;8</title>
<path fill="none" stroke="black" d="M68.4533,-59.8688C74.9455,-51.7029 106.494,-12.0216 113.317,-3.43899"/>
</g>
<!-- 1&#45;&#45;2 -->
<g id="edge9" class="edge"><title>1&#45;&#45;2</title>
<path fill="none" stroke="black" d="M60.2908,-114.211C53.849,-117.36 33.5172,-127.298 27.3208,-130.327"/>
</g>
<!-- 1&#45;&#45;3 -->
<g id="edge10" class="edge"><title>1&#45;&#45;3</title>
<path fill="none" stroke="black" d="M63.8401,-111.792C69.8622,-106.23 91.4099,-86.3282 97.3511,-80.8408"/>
</g>
<!-- 1&#45;&#45;4 -->
<g id="edge11" class="edge"><title>1&#45;&#45;4</title>
<path fill="none" stroke="black" d="M63.872,-114.861C70.0161,-121.046 92.0007,-143.175 98.0623,-149.277"/>
</g>
<!-- 1&#45;&#45;5 -->
<g id="edge12" class="edge"><title>1&#45;&#45;5</title>
<path fill="none" stroke="black" d="M60.5306,-112.549C51.8957,-109.083 13.6198,-93.7221 4.18571,-89.9359"/>
</g>
<!-- 1&#45;&#45;6 -->
<g id="edge13" class="edge"><title>1&#45;&#45;6</title>
<path fill="none" stroke="black" d="M60.7723,-111.58C52.3338,-102.179 10.7568,-55.8596 3.03525,-47.2573"/>
</g>
<!-- 1&#45;&#45;7 -->
<g id="edge14" class="edge"><title>1&#45;&#45;7</title>
<path fill="none" stroke="black" d="M64.344,-113.157C75.969,-112.665 132.853,-110.256 144.287,-109.772"/>
</g>
<!-- 2&#45;&#45;3 -->
<g id="edge15" class="edge"><title>2&#45;&#45;3</title>
<path fill="none" stroke="black" d="M27.043,-130.13C36.591,-123.391 87.8302,-87.2278 97.3536,-80.5064"/>
</g>
<!-- 2&#45;&#45;4 -->
<g id="edge16" class="edge"><title>2&#45;&#45;4</title>
<path fill="none" stroke="black" d="M27.3425,-131.697C37.5957,-134.413 87.7666,-147.704 97.8519,-150.376"/>
</g>
<!-- 2&#45;&#45;5 -->
<g id="edge17" class="edge"><title>2&#45;&#45;5</title>
<path fill="none" stroke="black" d="M24.5038,-129.402C20.6495,-122.473 6.8584,-97.6821 3.05588,-90.8467"/>
</g>
<!-- 2&#45;&#45;6 -->
<g id="edge18" class="edge"><title>2&#45;&#45;6</title>
<path fill="none" stroke="black" d="M25.0154,-129.429C21.9297,-118.324 5.37027,-58.7299 2.2925,-47.6536"/>
</g>
<!-- 3&#45;&#45;4 -->
<g id="edge19" class="edge"><title>3&#45;&#45;4</title>
<path fill="none" stroke="black" d="M98.899,-81.4911C99.0073,-91.9195 99.4944,-138.784 99.5996,-148.911"/>
</g>
<!-- 3&#45;&#45;5 -->
<g id="edge20" class="edge"><title>3&#45;&#45;5</title>
<path fill="none" stroke="black" d="M96.8558,-79.6326C84.2583,-80.8897 16.6545,-87.6359 4.08953,-88.8898"/>
</g>
<!-- 3&#45;&#45;8 -->
<g id="edge21" class="edge"><title>3&#45;&#45;8</title>
<path fill="none" stroke="black" d="M99.2667,-77.5119C101.445,-66.7715 112.102,-14.2164 114.245,-3.6519"/>
</g>
<!-- 4&#45;&#45;7 -->
<g id="edge22" class="edge"><title>4&#45;&#45;7</title>
<path fill="none" stroke="black" d="M101.173,-149.475C108.259,-143.227 137.488,-117.45 144.685,-111.104"/>
</g>
<!-- 5&#45;&#45;6 -->
<g id="edge23" class="edge"><title>5&#45;&#45;6</title>
<path fill="none" stroke="black" d="M2.06689,-87.2338C2.02102,-80.1263 1.85688,-54.6949 1.81163,-47.6828"/>
</g>
</g>
</svg>
