<?xml version="1.0" encoding="UTF-8" standalone="no"?>
<!DOCTYPE svg PUBLIC "-//W3C//DTD SVG 1.1//EN"
 "http://www.w3.org/Graphics/SVG/1.1/DTD/svg11.dtd">
<!-- Generated by graphviz version 2.36.0 (20140111.2315)
 -->
<!-- Title: %3 Pages: 1 -->
<svg width="173pt" height="288pt"
 viewBox="0.00 0.00 172.60 287.59" xmlns="http://www.w3.org/2000/svg" xmlns:xlink="http://www.w3.org/1999/xlink">
<g id="graph0" class="graph" transform="scale(1 1) rotate(0) translate(4 283.589)">
<title>%3</title>
<!-- 0 -->
<g id="node1" class="node"><title>0</title>
<ellipse fill="black" stroke="black" cx="73.0586" cy="-208.197" rx="1.8" ry="1.8"/>
</g>
<!-- 1 -->
<g id="node2" class="node"><title>1</title>
<ellipse fill="black" stroke="black" cx="118.153" cy="-144.083" rx="1.8" ry="1.8"/>
</g>
<!-- 0&#45;&#45;1 -->
<g id="edge1" class="edge"><title>0&#45;&#45;1</title>
<path fill="none" stroke="black" d="M74.1733,-206.612C80.358,-197.819 110.412,-155.09 116.912,-145.848"/>
</g>
<!-- 2 -->
<g id="node3" class="node"><title>2</title>
<ellipse fill="black" stroke="black" cx="71.4295" cy="-129.024" rx="1.8" ry="1.8"/>
</g>
<!-- 0&#45;&#45;2 -->
<g id="edge2" class="edge"><title>0&#45;&#45;2</title>
<path fill="none" stroke="black" d="M73.0183,-206.24C72.793,-195.286 71.6901,-141.687 71.4684,-130.913"/>
</g>
<!-- 3 -->
<g id="node4" class="node"><title>3</title>
<ellipse fill="black" stroke="black" cx="144.324" cy="-215.128" rx="1.8" ry="1.8"/>
</g>
<!-- 0&#45;&#45;3 -->
<g id="edge3" class="edge"><title>0&#45;&#45;3</title>
<path fill="none" stroke="black" d="M75.1146,-208.397C85.5213,-209.409 132.289,-213.957 142.395,-214.94"/>
</g>
<!-- 5 -->
<g id="node5" class="node"><title>5</title>
<ellipse fill="black" stroke="black" cx="112.942" cy="-277.789" rx="1.8" ry="1.8"/>
</g>
<!-- 0&#45;&#45;5 -->
<g id="edge4" class="edge"><title>0&#45;&#45;5</title>
<path fill="none" stroke="black" d="M74.0445,-209.917C79.5144,-219.462 106.095,-265.842 111.844,-275.873"/>
</g>
<!-- 8 -->
<g id="node6" class="node"><title>8</title>
<ellipse fill="black" stroke="black" cx="1.8" cy="-244.274" rx="1.8" ry="1.8"/>
</g>
<!-- 0&#45;&#45;8 -->
<g id="edge5" class="edge"><title>0&#45;&#45;8</title>
<path fill="none" stroke="black" d="M71.2972,-209.089C61.4384,-214.08 13.1972,-238.504 3.49989,-243.414"/>
</g>
<!-- 1&#45;&#45;2 -->
<g id="edge6" class="edge"><title>1&#45;&#45;2</title>
<path fill="none" stroke="black" d="M116.146,-143.436C108.46,-140.959 80.9601,-132.096 73.3777,-129.652"/>
</g>
<!-- 1&#45;&#45;3 -->
<g id="edge7" class="edge"><title>1&#45;&#45;3</title>
<path fill="none" stroke="black" d="M118.8,-145.839C122.421,-155.668 140.138,-203.765 143.7,-213.433"/>
</g>
<!-- 4 -->
<g id="node7" class="node"><title>4</title>
<ellipse fill="black" stroke="black" cx="69.7603" cy="-67.5923" rx="1.8" ry="1.8"/>
</g>
<!-- 1&#45;&#45;4 -->
<g id="edge8" class="edge"><title>1&#45;&#45;4</title>
<path fill="none" stroke="black" d="M117.143,-142.485C110.845,-132.531 77.0472,-79.1101 70.7655,-69.1812"/>
</g>
<!-- 6 -->
<g id="node8" class="node"><title>6</title>
<ellipse fill="black" stroke="black" cx="162.797" cy="-97.7675" rx="1.8" ry="1.8"/>
</g>
<!-- 1&#45;&#45;6 -->
<g id="edge9" class="edge"><title>1&#45;&#45;6</title>
<path fill="none" stroke="black" d="M119.639,-142.542C126.417,-135.51 154.376,-106.504 161.26,-99.3618"/>
</g>
<!-- 2&#45;&#45;4 -->
<g id="edge10" class="edge"><title>2&#45;&#45;4</title>
<path fill="none" stroke="black" d="M71.374,-126.98C71.1205,-117.653 70.0751,-79.1797 69.8177,-69.707"/>
</g>
<!-- 2&#45;&#45;6 -->
<g id="edge11" class="edge"><title>2&#45;&#45;6</title>
<path fill="none" stroke="black" d="M73.3379,-128.372C85.2285,-124.304 149.039,-102.474 160.899,-98.4168"/>
</g>
<!-- 3&#45;&#45;5 -->
<g id="edge12" class="edge"><title>3&#45;&#45;5</title>
<path fill="none" stroke="black" d="M143.419,-216.936C138.836,-226.086 118.242,-267.207 113.791,-276.093"/>
</g>
<!-- 7 -->
<g id="node9" class="node"><title>7</title>
<ellipse fill="black" stroke="black" cx="33.5925" cy="-1.8" rx="1.8" ry="1.8"/>
</g>
<!-- 4&#45;&#45;7 -->
<g id="edge13" class="edge"><title>4&#45;&#45;7</title>
<path fill="none" stroke="black" d="M68.8662,-65.966C63.9059,-56.9427 39.8016,-13.0948 34.5881,-3.61108"/>
</g>
</g>
</svg>
