<?xml version="1.0" encoding="UTF-8" standalone="no"?>
<!DOCTYPE svg PUBLIC "-//W3C//DTD SVG 1.1//EN"
 "http://www.w3.org/Graphics/SVG/1.1/DTD/svg11.dtd">
<!-- Generated by graphviz version 2.36.0 (20140111.2315)
 -->
<!-- Title: %3 Pages: 1 -->
<svg width="141pt" height="171pt"
 viewBox="0.00 0.00 141.28 171.33" xmlns="http://www.w3.org/2000/svg" xmlns:xlink="http://www.w3.org/1999/xlink">
<g id="graph0" class="graph" transform="scale(1 1) rotate(0) translate(4 167.33)">
<title>%3</title>
<!-- 0 -->
<g id="node1" class="node"><title>0</title>
<ellipse fill="black" stroke="black" cx="43.9464" cy="-74.4549" rx="1.8" ry="1.8"/>
</g>
<!-- 1 -->
<g id="node2" class="node"><title>1</title>
<ellipse fill="black" stroke="black" cx="80.7491" cy="-77.7433" rx="1.8" ry="1.8"/>
</g>
<!-- 0&#45;&#45;1 -->
<g id="edge1" class="edge"><title>0&#45;&#45;1</title>
<path fill="none" stroke="black" d="M45.9251,-74.6317C52.375,-75.208 72.7324,-77.027 78.9366,-77.5813"/>
</g>
<!-- 2 -->
<g id="node3" class="node"><title>2</title>
<ellipse fill="black" stroke="black" cx="58.3267" cy="-118.629" rx="1.8" ry="1.8"/>
</g>
<!-- 0&#45;&#45;2 -->
<g id="edge2" class="edge"><title>0&#45;&#45;2</title>
<path fill="none" stroke="black" d="M44.5643,-76.353C46.9297,-83.6191 55.3934,-109.618 57.7271,-116.787"/>
</g>
<!-- 3 -->
<g id="node4" class="node"><title>3</title>
<ellipse fill="black" stroke="black" cx="60.5443" cy="-161.53" rx="1.8" ry="1.8"/>
</g>
<!-- 0&#45;&#45;3 -->
<g id="edge3" class="edge"><title>0&#45;&#45;3</title>
<path fill="none" stroke="black" d="M44.2931,-76.2735C46.4531,-87.6056 58.045,-148.419 60.1995,-159.721"/>
</g>
<!-- 4 -->
<g id="node5" class="node"><title>4</title>
<ellipse fill="black" stroke="black" cx="93.0782" cy="-142.933" rx="1.8" ry="1.8"/>
</g>
<!-- 0&#45;&#45;4 -->
<g id="edge4" class="edge"><title>0&#45;&#45;4</title>
<path fill="none" stroke="black" d="M45.1609,-76.1476C51.8993,-85.5393 84.6435,-131.177 91.7257,-141.048"/>
</g>
<!-- 5 -->
<g id="node6" class="node"><title>5</title>
<ellipse fill="black" stroke="black" cx="12.1061" cy="-149.284" rx="1.8" ry="1.8"/>
</g>
<!-- 0&#45;&#45;5 -->
<g id="edge5" class="edge"><title>0&#45;&#45;5</title>
<path fill="none" stroke="black" d="M43.1593,-76.3046C38.7542,-86.6573 17.1987,-137.316 12.8657,-147.499"/>
</g>
<!-- 6 -->
<g id="node7" class="node"><title>6</title>
<ellipse fill="black" stroke="black" cx="1.8" cy="-105.613" rx="1.8" ry="1.8"/>
</g>
<!-- 0&#45;&#45;6 -->
<g id="edge6" class="edge"><title>0&#45;&#45;6</title>
<path fill="none" stroke="black" d="M42.1354,-75.7937C35.2028,-80.9188 10.3969,-99.2572 3.55732,-104.314"/>
</g>
<!-- 7 -->
<g id="node8" class="node"><title>7</title>
<ellipse fill="black" stroke="black" cx="131.483" cy="-106.861" rx="1.8" ry="1.8"/>
</g>
<!-- 0&#45;&#45;7 -->
<g id="edge7" class="edge"><title>0&#45;&#45;7</title>
<path fill="none" stroke="black" d="M45.7747,-75.1317C57.1668,-79.3491 118.302,-101.982 129.665,-106.188"/>
</g>
<!-- 8 -->
<g id="node9" class="node"><title>8</title>
<ellipse fill="black" stroke="black" cx="63.9587" cy="-1.8" rx="1.8" ry="1.8"/>
</g>
<!-- 0&#45;&#45;8 -->
<g id="edge8" class="edge"><title>0&#45;&#45;8</title>
<path fill="none" stroke="black" d="M44.4411,-72.6589C47.1858,-62.6944 60.5231,-14.273 63.4078,-3.79999"/>
</g>
<!-- 1&#45;&#45;2 -->
<g id="edge9" class="edge"><title>1&#45;&#45;2</title>
<path fill="none" stroke="black" d="M79.7857,-79.5001C76.0974,-86.2254 62.9003,-110.289 59.2616,-116.924"/>
</g>
<!-- 1&#45;&#45;3 -->
<g id="edge10" class="edge"><title>1&#45;&#45;3</title>
<path fill="none" stroke="black" d="M80.3271,-79.4933C77.7203,-90.3034 63.8291,-147.908 61.0343,-159.498"/>
</g>
<!-- 1&#45;&#45;4 -->
<g id="edge11" class="edge"><title>1&#45;&#45;4</title>
<path fill="none" stroke="black" d="M81.1048,-79.624C82.8736,-88.9765 90.7141,-130.433 92.6466,-140.651"/>
</g>
<!-- 1&#45;&#45;5 -->
<g id="edge12" class="edge"><title>1&#45;&#45;5</title>
<path fill="none" stroke="black" d="M79.3154,-79.2375C70.3822,-88.5478 22.4422,-138.511 13.5319,-147.798"/>
</g>
<!-- 1&#45;&#45;6 -->
<g id="edge13" class="edge"><title>1&#45;&#45;6</title>
<path fill="none" stroke="black" d="M78.7976,-78.4322C67.8748,-82.288 14.4272,-101.155 3.68335,-104.948"/>
</g>
<!-- 1&#45;&#45;7 -->
<g id="edge14" class="edge"><title>1&#45;&#45;7</title>
<path fill="none" stroke="black" d="M82.4371,-78.7121C90.1399,-83.133 121.914,-101.369 129.737,-105.859"/>
</g>
<!-- 1&#45;&#45;8 -->
<g id="edge15" class="edge"><title>1&#45;&#45;8</title>
<path fill="none" stroke="black" d="M80.3341,-75.866C78.0111,-65.3591 66.6442,-13.9465 64.3593,-3.61164"/>
</g>
<!-- 2&#45;&#45;3 -->
<g id="edge16" class="edge"><title>2&#45;&#45;3</title>
<path fill="none" stroke="black" d="M58.422,-120.472C58.7801,-127.401 60.0448,-151.867 60.4312,-159.344"/>
</g>
<!-- 2&#45;&#45;4 -->
<g id="edge17" class="edge"><title>2&#45;&#45;4</title>
<path fill="none" stroke="black" d="M59.8199,-119.673C65.4322,-123.598 85.2508,-137.459 91.3071,-141.694"/>
</g>
<!-- 2&#45;&#45;5 -->
<g id="edge18" class="edge"><title>2&#45;&#45;5</title>
<path fill="none" stroke="black" d="M56.7888,-119.649C49.7714,-124.303 20.8242,-143.502 13.6971,-148.229"/>
</g>
<!-- 2&#45;&#45;6 -->
<g id="edge19" class="edge"><title>2&#45;&#45;6</title>
<path fill="none" stroke="black" d="M56.4459,-118.196C47.8637,-116.22 12.4621,-108.068 3.74578,-106.061"/>
</g>
<!-- 2&#45;&#45;7 -->
<g id="edge20" class="edge"><title>2&#45;&#45;7</title>
<path fill="none" stroke="black" d="M60.1351,-118.338C70.1684,-116.724 118.924,-108.882 129.469,-107.185"/>
</g>
<!-- 3&#45;&#45;4 -->
<g id="edge21" class="edge"><title>3&#45;&#45;4</title>
<path fill="none" stroke="black" d="M62.2934,-160.53C67.9952,-157.271 85.9913,-146.984 91.4759,-143.849"/>
</g>
<!-- 3&#45;&#45;5 -->
<g id="edge22" class="edge"><title>3&#45;&#45;5</title>
<path fill="none" stroke="black" d="M58.4629,-161.004C50.4954,-158.99 21.9864,-151.782 14.1258,-149.794"/>
</g>
<!-- 3&#45;&#45;6 -->
<g id="edge23" class="edge"><title>3&#45;&#45;6</title>
<path fill="none" stroke="black" d="M59.0921,-160.148C51.0354,-152.479 11.8849,-115.212 3.41707,-107.152"/>
</g>
<!-- 3&#45;&#45;7 -->
<g id="edge24" class="edge"><title>3&#45;&#45;7</title>
<path fill="none" stroke="black" d="M62.0259,-160.388C71.258,-153.274 120.801,-115.093 130.01,-107.997"/>
</g>
<!-- 4&#45;&#45;5 -->
<g id="edge25" class="edge"><title>4&#45;&#45;5</title>
<path fill="none" stroke="black" d="M91.0766,-143.09C79.874,-143.969 25.0569,-148.268 14.0377,-149.132"/>
</g>
<!-- 4&#45;&#45;6 -->
<g id="edge26" class="edge"><title>4&#45;&#45;6</title>
<path fill="none" stroke="black" d="M91.1717,-142.154C79.2927,-137.297 15.5444,-111.232 3.69599,-106.388"/>
</g>
<!-- 4&#45;&#45;7 -->
<g id="edge27" class="edge"><title>4&#45;&#45;7</title>
<path fill="none" stroke="black" d="M94.7284,-141.383C101.046,-135.45 123.65,-114.219 129.882,-108.365"/>
</g>
<!-- 5&#45;&#45;6 -->
<g id="edge28" class="edge"><title>5&#45;&#45;6</title>
<path fill="none" stroke="black" d="M11.6633,-147.407C9.96801,-140.224 3.9022,-114.521 2.22972,-107.434"/>
</g>
</g>
</svg>
