<?xml version="1.0" encoding="UTF-8" standalone="no"?>
<!DOCTYPE svg PUBLIC "-//W3C//DTD SVG 1.1//EN"
 "http://www.w3.org/Graphics/SVG/1.1/DTD/svg11.dtd">
<!-- Generated by graphviz version 2.36.0 (20140111.2315)
 -->
<!-- Title: %3 Pages: 1 -->
<svg width="185pt" height="155pt"
 viewBox="0.00 0.00 185.42 155.30" xmlns="http://www.w3.org/2000/svg" xmlns:xlink="http://www.w3.org/1999/xlink">
<g id="graph0" class="graph" transform="scale(1 1) rotate(0) translate(4 151.304)">
<title>%3</title>
<!-- 0 -->
<g id="node1" class="node"><title>0</title>
<ellipse fill="black" stroke="black" cx="82.8582" cy="-49.4411" rx="1.8" ry="1.8"/>
</g>
<!-- 1 -->
<g id="node2" class="node"><title>1</title>
<ellipse fill="black" stroke="black" cx="131.541" cy="-77.2492" rx="1.8" ry="1.8"/>
</g>
<!-- 0&#45;&#45;1 -->
<g id="edge1" class="edge"><title>0&#45;&#45;1</title>
<path fill="none" stroke="black" d="M84.478,-50.3663C91.8693,-54.5883 122.359,-72.004 129.865,-76.292"/>
</g>
<!-- 2 -->
<g id="node3" class="node"><title>2</title>
<ellipse fill="black" stroke="black" cx="54.4332" cy="-81.163" rx="1.8" ry="1.8"/>
</g>
<!-- 0&#45;&#45;2 -->
<g id="edge2" class="edge"><title>0&#45;&#45;2</title>
<path fill="none" stroke="black" d="M81.6368,-50.8041C77.0462,-55.9272 60.8356,-74.018 55.8819,-79.5463"/>
</g>
<!-- 3 -->
<g id="node4" class="node"><title>3</title>
<ellipse fill="black" stroke="black" cx="93.2505" cy="-145.504" rx="1.8" ry="1.8"/>
</g>
<!-- 0&#45;&#45;3 -->
<g id="edge3" class="edge"><title>0&#45;&#45;3</title>
<path fill="none" stroke="black" d="M83.0752,-51.4475C84.4277,-63.9492 91.6856,-131.039 93.0346,-143.509"/>
</g>
<!-- 4 -->
<g id="node5" class="node"><title>4</title>
<ellipse fill="black" stroke="black" cx="118.278" cy="-118.117" rx="1.8" ry="1.8"/>
</g>
<!-- 0&#45;&#45;4 -->
<g id="edge4" class="edge"><title>0&#45;&#45;4</title>
<path fill="none" stroke="black" d="M83.7337,-51.1387C88.5915,-60.5576 112.197,-106.327 117.303,-116.227"/>
</g>
<!-- 5 -->
<g id="node6" class="node"><title>5</title>
<ellipse fill="black" stroke="black" cx="43.3261" cy="-116.815" rx="1.8" ry="1.8"/>
</g>
<!-- 0&#45;&#45;5 -->
<g id="edge5" class="edge"><title>0&#45;&#45;5</title>
<path fill="none" stroke="black" d="M81.881,-51.1065C76.4592,-60.3468 50.1127,-105.249 44.4143,-114.961"/>
</g>
<!-- 6 -->
<g id="node7" class="node"><title>6</title>
<ellipse fill="black" stroke="black" cx="1.8" cy="-46.2371" rx="1.8" ry="1.8"/>
</g>
<!-- 0&#45;&#45;6 -->
<g id="edge6" class="edge"><title>0&#45;&#45;6</title>
<path fill="none" stroke="black" d="M80.8545,-49.3619C69.6399,-48.9186 14.7645,-46.7496 3.73366,-46.3136"/>
</g>
<!-- 8 -->
<g id="node8" class="node"><title>8</title>
<ellipse fill="black" stroke="black" cx="141.842" cy="-1.8" rx="1.8" ry="1.8"/>
</g>
<!-- 0&#45;&#45;8 -->
<g id="edge7" class="edge"><title>0&#45;&#45;8</title>
<path fill="none" stroke="black" d="M84.3162,-48.2634C92.4057,-41.7295 131.716,-9.97874 140.218,-3.11143"/>
</g>
<!-- 1&#45;&#45;2 -->
<g id="edge8" class="edge"><title>1&#45;&#45;2</title>
<path fill="none" stroke="black" d="M129.635,-77.3459C118.967,-77.8874 66.7659,-80.537 56.2726,-81.0696"/>
</g>
<!-- 1&#45;&#45;3 -->
<g id="edge9" class="edge"><title>1&#45;&#45;3</title>
<path fill="none" stroke="black" d="M130.595,-78.9364C125.343,-88.2975 99.824,-133.786 94.3045,-143.625"/>
</g>
<!-- 1&#45;&#45;4 -->
<g id="edge10" class="edge"><title>1&#45;&#45;4</title>
<path fill="none" stroke="black" d="M130.971,-79.0052C128.829,-85.6054 121.265,-108.912 118.954,-116.035"/>
</g>
<!-- 1&#45;&#45;5 -->
<g id="edge11" class="edge"><title>1&#45;&#45;5</title>
<path fill="none" stroke="black" d="M129.699,-78.0756C118.218,-83.2247 56.6092,-110.858 45.1584,-115.993"/>
</g>
<!-- 1&#45;&#45;8 -->
<g id="edge13" class="edge"><title>1&#45;&#45;8</title>
<path fill="none" stroke="black" d="M131.796,-75.3841C133.221,-64.9456 140.194,-13.8674 141.596,-3.59985"/>
</g>
<!-- 7 -->
<g id="node9" class="node"><title>7</title>
<ellipse fill="black" stroke="black" cx="175.618" cy="-144.726" rx="1.8" ry="1.8"/>
</g>
<!-- 1&#45;&#45;7 -->
<g id="edge12" class="edge"><title>1&#45;&#45;7</title>
<path fill="none" stroke="black" d="M132.631,-78.9172C138.676,-88.1715 168.051,-133.142 174.405,-142.868"/>
</g>
<!-- 2&#45;&#45;3 -->
<g id="edge14" class="edge"><title>2&#45;&#45;3</title>
<path fill="none" stroke="black" d="M55.3927,-82.7534C60.7165,-91.5777 86.5865,-134.458 92.1819,-143.733"/>
</g>
<!-- 2&#45;&#45;4 -->
<g id="edge15" class="edge"><title>2&#45;&#45;4</title>
<path fill="none" stroke="black" d="M56.0114,-82.0765C64.7676,-87.1447 107.318,-111.773 116.521,-117.1"/>
</g>
<!-- 2&#45;&#45;5 -->
<g id="edge16" class="edge"><title>2&#45;&#45;5</title>
<path fill="none" stroke="black" d="M53.836,-83.0798C51.8894,-89.3281 45.7455,-109.049 43.8731,-115.059"/>
</g>
<!-- 2&#45;&#45;6 -->
<g id="edge17" class="edge"><title>2&#45;&#45;6</title>
<path fill="none" stroke="black" d="M52.682,-80.0009C44.6909,-74.6983 11.7277,-52.8249 3.61175,-47.4394"/>
</g>
<!-- 3&#45;&#45;4 -->
<g id="edge18" class="edge"><title>3&#45;&#45;4</title>
<path fill="none" stroke="black" d="M94.5961,-144.032C98.9823,-139.232 112.826,-124.083 117.046,-119.466"/>
</g>
<!-- 3&#45;&#45;5 -->
<g id="edge19" class="edge"><title>3&#45;&#45;5</title>
<path fill="none" stroke="black" d="M91.5894,-144.55C84.0096,-140.194 52.7428,-122.227 45.0446,-117.803"/>
</g>
<!-- 3&#45;&#45;7 -->
<g id="edge20" class="edge"><title>3&#45;&#45;7</title>
<path fill="none" stroke="black" d="M95.2865,-145.485C106.682,-145.377 162.444,-144.85 173.653,-144.744"/>
</g>
<!-- 4&#45;&#45;5 -->
<g id="edge21" class="edge"><title>4&#45;&#45;5</title>
<path fill="none" stroke="black" d="M116.425,-118.085C106.146,-117.907 56.1934,-117.039 45.3893,-116.851"/>
</g>
<!-- 4&#45;&#45;7 -->
<g id="edge22" class="edge"><title>4&#45;&#45;7</title>
<path fill="none" stroke="black" d="M120.186,-119.003C128.892,-123.043 164.803,-139.707 173.644,-143.81"/>
</g>
<!-- 5&#45;&#45;6 -->
<g id="edge23" class="edge"><title>5&#45;&#45;6</title>
<path fill="none" stroke="black" d="M42.2996,-115.071C36.5544,-105.306 8.44173,-57.5255 2.79061,-47.9208"/>
</g>
</g>
</svg>
