<?xml version="1.0" encoding="UTF-8" standalone="no"?>
<!DOCTYPE svg PUBLIC "-//W3C//DTD SVG 1.1//EN"
 "http://www.w3.org/Graphics/SVG/1.1/DTD/svg11.dtd">
<!-- Generated by graphviz version 2.36.0 (20140111.2315)
 -->
<!-- Title: %3 Pages: 1 -->
<svg width="141pt" height="227pt"
 viewBox="0.00 0.00 141.14 226.84" xmlns="http://www.w3.org/2000/svg" xmlns:xlink="http://www.w3.org/1999/xlink">
<g id="graph0" class="graph" transform="scale(1 1) rotate(0) translate(4 222.843)">
<title>%3</title>
<!-- 0 -->
<g id="node1" class="node"><title>0</title>
<ellipse fill="black" stroke="black" cx="54.3796" cy="-129.36" rx="1.8" ry="1.8"/>
</g>
<!-- 1 -->
<g id="node2" class="node"><title>1</title>
<ellipse fill="black" stroke="black" cx="93.4747" cy="-184.727" rx="1.8" ry="1.8"/>
</g>
<!-- 0&#45;&#45;1 -->
<g id="edge1" class="edge"><title>0&#45;&#45;1</title>
<path fill="none" stroke="black" d="M55.6803,-131.202C61.722,-139.758 86.9809,-175.53 92.434,-183.253"/>
</g>
<!-- 2 -->
<g id="node3" class="node"><title>2</title>
<ellipse fill="black" stroke="black" cx="97.7995" cy="-61.8771" rx="1.8" ry="1.8"/>
</g>
<!-- 0&#45;&#45;2 -->
<g id="edge2" class="edge"><title>0&#45;&#45;2</title>
<path fill="none" stroke="black" d="M55.4529,-127.692C61.4079,-118.437 90.3454,-73.4621 96.6043,-63.7347"/>
</g>
<!-- 3 -->
<g id="node4" class="node"><title>3</title>
<ellipse fill="black" stroke="black" cx="6.34633" cy="-181.133" rx="1.8" ry="1.8"/>
</g>
<!-- 0&#45;&#45;3 -->
<g id="edge3" class="edge"><title>0&#45;&#45;3</title>
<path fill="none" stroke="black" d="M52.7814,-131.082C45.3585,-139.083 14.3247,-172.533 7.62491,-179.755"/>
</g>
<!-- 4 -->
<g id="node5" class="node"><title>4</title>
<ellipse fill="black" stroke="black" cx="131.343" cy="-122.202" rx="1.8" ry="1.8"/>
</g>
<!-- 0&#45;&#45;4 -->
<g id="edge4" class="edge"><title>0&#45;&#45;4</title>
<path fill="none" stroke="black" d="M56.2821,-129.183C66.93,-128.193 119.033,-123.347 129.507,-122.373"/>
</g>
<!-- 5 -->
<g id="node6" class="node"><title>5</title>
<ellipse fill="black" stroke="black" cx="46.9201" cy="-217.043" rx="1.8" ry="1.8"/>
</g>
<!-- 0&#45;&#45;5 -->
<g id="edge5" class="edge"><title>0&#45;&#45;5</title>
<path fill="none" stroke="black" d="M54.2238,-131.191C53.253,-142.602 48.0434,-203.84 47.0751,-215.221"/>
</g>
<!-- 6 -->
<g id="node7" class="node"><title>6</title>
<ellipse fill="black" stroke="black" cx="1.8" cy="-65.693" rx="1.8" ry="1.8"/>
</g>
<!-- 0&#45;&#45;6 -->
<g id="edge6" class="edge"><title>0&#45;&#45;6</title>
<path fill="none" stroke="black" d="M53.0799,-127.786C45.8686,-119.054 10.8266,-76.6229 3.24737,-67.4455"/>
</g>
<!-- 1&#45;&#45;3 -->
<g id="edge7" class="edge"><title>1&#45;&#45;3</title>
<path fill="none" stroke="black" d="M91.6549,-184.652C80.3159,-184.184 19.4659,-181.674 8.15612,-181.208"/>
</g>
<!-- 1&#45;&#45;4 -->
<g id="edge8" class="edge"><title>1&#45;&#45;4</title>
<path fill="none" stroke="black" d="M94.4107,-183.182C99.6043,-174.606 124.842,-132.936 130.3,-123.923"/>
</g>
<!-- 1&#45;&#45;5 -->
<g id="edge9" class="edge"><title>1&#45;&#45;5</title>
<path fill="none" stroke="black" d="M91.9257,-185.802C84.8575,-190.709 55.7013,-210.947 48.5226,-215.93"/>
</g>
<!-- 2&#45;&#45;4 -->
<g id="edge10" class="edge"><title>2&#45;&#45;4</title>
<path fill="none" stroke="black" d="M98.7672,-63.6174C103.665,-72.4266 125.678,-112.015 130.434,-120.569"/>
</g>
<!-- 7 -->
<g id="node8" class="node"><title>7</title>
<ellipse fill="black" stroke="black" cx="48.2808" cy="-1.8" rx="1.8" ry="1.8"/>
</g>
<!-- 2&#45;&#45;7 -->
<g id="edge11" class="edge"><title>2&#45;&#45;7</title>
<path fill="none" stroke="black" d="M96.5754,-60.392C89.784,-52.1525 56.7818,-12.1137 49.6439,-3.45376"/>
</g>
<!-- 3&#45;&#45;5 -->
<g id="edge12" class="edge"><title>3&#45;&#45;5</title>
<path fill="none" stroke="black" d="M7.69629,-182.328C13.8564,-187.78 39.2671,-210.269 45.5235,-215.806"/>
</g>
<!-- 6&#45;&#45;7 -->
<g id="edge13" class="edge"><title>6&#45;&#45;7</title>
<path fill="none" stroke="black" d="M2.94897,-64.1136C9.32375,-55.3507 40.3012,-12.7688 47.0013,-3.5588"/>
</g>
</g>
</svg>
