<?xml version="1.0" encoding="UTF-8" standalone="no"?>
<!DOCTYPE svg PUBLIC "-//W3C//DTD SVG 1.1//EN"
 "http://www.w3.org/Graphics/SVG/1.1/DTD/svg11.dtd">
<!-- Generated by graphviz version 2.36.0 (20140111.2315)
 -->
<!-- Title: %3 Pages: 1 -->
<svg width="141pt" height="146pt"
 viewBox="0.00 0.00 141.34 145.61" xmlns="http://www.w3.org/2000/svg" xmlns:xlink="http://www.w3.org/1999/xlink">
<g id="graph0" class="graph" transform="scale(1 1) rotate(0) translate(4 141.61)">
<title>%3</title>
<!-- 0 -->
<g id="node1" class="node"><title>0</title>
<ellipse fill="black" stroke="black" cx="65.7042" cy="-79.2461" rx="1.8" ry="1.8"/>
</g>
<!-- 2 -->
<g id="node2" class="node"><title>2</title>
<ellipse fill="black" stroke="black" cx="95.6272" cy="-135.81" rx="1.8" ry="1.8"/>
</g>
<!-- 0&#45;&#45;2 -->
<g id="edge1" class="edge"><title>0&#45;&#45;2</title>
<path fill="none" stroke="black" d="M66.6997,-81.1281C71.2428,-89.7159 89.9831,-125.141 94.5972,-133.863"/>
</g>
<!-- 3 -->
<g id="node3" class="node"><title>3</title>
<ellipse fill="black" stroke="black" cx="86.213" cy="-1.8" rx="1.8" ry="1.8"/>
</g>
<!-- 0&#45;&#45;3 -->
<g id="edge2" class="edge"><title>0&#45;&#45;3</title>
<path fill="none" stroke="black" d="M66.2111,-77.3317C69.0486,-66.6169 82.9328,-14.1868 85.7238,-3.64749"/>
</g>
<!-- 4 -->
<g id="node4" class="node"><title>4</title>
<ellipse fill="black" stroke="black" cx="12.8339" cy="-110.606" rx="1.8" ry="1.8"/>
</g>
<!-- 0&#45;&#45;4 -->
<g id="edge3" class="edge"><title>0&#45;&#45;4</title>
<path fill="none" stroke="black" d="M63.9451,-80.2895C55.918,-85.0507 22.8063,-104.691 14.6538,-109.526"/>
</g>
<!-- 5 -->
<g id="node5" class="node"><title>5</title>
<ellipse fill="black" stroke="black" cx="131.539" cy="-47.0218" rx="1.8" ry="1.8"/>
</g>
<!-- 0&#45;&#45;5 -->
<g id="edge4" class="edge"><title>0&#45;&#45;5</title>
<path fill="none" stroke="black" d="M67.3315,-78.4496C76.3607,-74.0301 120.237,-52.5539 129.727,-47.9089"/>
</g>
<!-- 6 -->
<g id="node6" class="node"><title>6</title>
<ellipse fill="black" stroke="black" cx="128.753" cy="-80.453" rx="1.8" ry="1.8"/>
</g>
<!-- 0&#45;&#45;6 -->
<g id="edge5" class="edge"><title>0&#45;&#45;6</title>
<path fill="none" stroke="black" d="M67.5231,-79.281C76.5685,-79.4541 116.664,-80.2216 126.546,-80.4108"/>
</g>
<!-- 7 -->
<g id="node7" class="node"><title>7</title>
<ellipse fill="black" stroke="black" cx="1.8" cy="-33.141" rx="1.8" ry="1.8"/>
</g>
<!-- 0&#45;&#45;7 -->
<g id="edge6" class="edge"><title>0&#45;&#45;7</title>
<path fill="none" stroke="black" d="M64.1245,-78.1065C55.3601,-71.7832 12.7707,-41.0561 3.55911,-34.4102"/>
</g>
<!-- 2&#45;&#45;4 -->
<g id="edge11" class="edge"><title>2&#45;&#45;4</title>
<path fill="none" stroke="black" d="M93.898,-135.283C83.2161,-132.031 26.2941,-114.703 14.842,-111.217"/>
</g>
<!-- 2&#45;&#45;5 -->
<g id="edge12" class="edge"><title>2&#45;&#45;5</title>
<path fill="none" stroke="black" d="M96.3773,-133.955C101.051,-122.4 126.132,-60.3912 130.793,-48.8661"/>
</g>
<!-- 2&#45;&#45;6 -->
<g id="edge13" class="edge"><title>2&#45;&#45;6</title>
<path fill="none" stroke="black" d="M96.7294,-133.968C101.759,-125.563 122.505,-90.8944 127.613,-82.3585"/>
</g>
<!-- 3&#45;&#45;5 -->
<g id="edge14" class="edge"><title>3&#45;&#45;5</title>
<path fill="none" stroke="black" d="M87.7211,-3.30461C94.6028,-10.1705 122.99,-38.4921 129.979,-45.4652"/>
</g>
<!-- 3&#45;&#45;6 -->
<g id="edge15" class="edge"><title>3&#45;&#45;6</title>
<path fill="none" stroke="black" d="M87.1015,-3.44278C92.6378,-13.6787 122.348,-68.6097 127.87,-78.8193"/>
</g>
<!-- 3&#45;&#45;7 -->
<g id="edge16" class="edge"><title>3&#45;&#45;7</title>
<path fill="none" stroke="black" d="M84.4499,-2.4546C73.4644,-6.53334 14.5107,-28.4218 3.55339,-32.49"/>
</g>
<!-- 4&#45;&#45;7 -->
<g id="edge17" class="edge"><title>4&#45;&#45;7</title>
<path fill="none" stroke="black" d="M12.5612,-108.691C11.0346,-97.9734 3.56478,-45.5308 2.06322,-34.989"/>
</g>
<!-- 1 -->
<g id="node8" class="node"><title>1</title>
<ellipse fill="black" stroke="black" cx="56.189" cy="-40.4972" rx="1.8" ry="1.8"/>
</g>
<!-- 1&#45;&#45;4 -->
<g id="edge7" class="edge"><title>1&#45;&#45;4</title>
<path fill="none" stroke="black" d="M55.1173,-42.2302C49.1712,-51.8455 20.2769,-98.5699 14.0274,-108.676"/>
</g>
<!-- 1&#45;&#45;5 -->
<g id="edge8" class="edge"><title>1&#45;&#45;5</title>
<path fill="none" stroke="black" d="M58.0516,-40.6585C68.4764,-41.5612 119.487,-45.9783 129.742,-46.8662"/>
</g>
<!-- 1&#45;&#45;6 -->
<g id="edge9" class="edge"><title>1&#45;&#45;6</title>
<path fill="none" stroke="black" d="M57.9827,-41.4849C68.0221,-47.0128 117.147,-74.0624 127.022,-79.4999"/>
</g>
<!-- 1&#45;&#45;7 -->
<g id="edge10" class="edge"><title>1&#45;&#45;7</title>
<path fill="none" stroke="black" d="M54.3793,-40.2524C46.1217,-39.1356 12.0589,-34.5285 3.67219,-33.3942"/>
</g>
</g>
</svg>
