<?xml version="1.0" encoding="UTF-8" standalone="no"?>
<!DOCTYPE svg PUBLIC "-//W3C//DTD SVG 1.1//EN"
 "http://www.w3.org/Graphics/SVG/1.1/DTD/svg11.dtd">
<!-- Generated by graphviz version 2.36.0 (20140111.2315)
 -->
<!-- Title: %3 Pages: 1 -->
<svg width="159pt" height="169pt"
 viewBox="0.00 0.00 158.69 169.36" xmlns="http://www.w3.org/2000/svg" xmlns:xlink="http://www.w3.org/1999/xlink">
<g id="graph0" class="graph" transform="scale(1 1) rotate(0) translate(4 165.356)">
<title>%3</title>
<!-- 0 -->
<g id="node1" class="node"><title>0</title>
<ellipse fill="black" stroke="black" cx="90.4541" cy="-75.9869" rx="1.8" ry="1.8"/>
</g>
<!-- 1 -->
<g id="node2" class="node"><title>1</title>
<ellipse fill="black" stroke="black" cx="46.2398" cy="-70.3729" rx="1.8" ry="1.8"/>
</g>
<!-- 0&#45;&#45;1 -->
<g id="edge1" class="edge"><title>0&#45;&#45;1</title>
<path fill="none" stroke="black" d="M88.5543,-75.7456C81.2815,-74.8222 55.2585,-71.518 48.0833,-70.607"/>
</g>
<!-- 2 -->
<g id="node3" class="node"><title>2</title>
<ellipse fill="black" stroke="black" cx="86.5506" cy="-113.351" rx="1.8" ry="1.8"/>
</g>
<!-- 0&#45;&#45;2 -->
<g id="edge2" class="edge"><title>0&#45;&#45;2</title>
<path fill="none" stroke="black" d="M90.2443,-77.9957C89.5601,-84.544 87.4009,-105.212 86.7428,-111.511"/>
</g>
<!-- 3 -->
<g id="node4" class="node"><title>3</title>
<ellipse fill="black" stroke="black" cx="98.1954" cy="-159.556" rx="1.8" ry="1.8"/>
</g>
<!-- 0&#45;&#45;3 -->
<g id="edge3" class="edge"><title>0&#45;&#45;3</title>
<path fill="none" stroke="black" d="M90.6455,-78.0526C91.7165,-89.6145 96.9572,-146.19 98.0107,-157.562"/>
</g>
<!-- 4 -->
<g id="node5" class="node"><title>4</title>
<ellipse fill="black" stroke="black" cx="55.2354" cy="-139.426" rx="1.8" ry="1.8"/>
</g>
<!-- 0&#45;&#45;4 -->
<g id="edge4" class="edge"><title>0&#45;&#45;4</title>
<path fill="none" stroke="black" d="M89.4381,-77.8171C84.2952,-87.081 61.1831,-128.713 56.1888,-137.709"/>
</g>
<!-- 5 -->
<g id="node6" class="node"><title>5</title>
<ellipse fill="black" stroke="black" cx="22.0573" cy="-143.563" rx="1.8" ry="1.8"/>
</g>
<!-- 0&#45;&#45;5 -->
<g id="edge5" class="edge"><title>0&#45;&#45;5</title>
<path fill="none" stroke="black" d="M89.0256,-77.3983C80.1244,-86.1927 32.3563,-133.388 23.478,-142.16"/>
</g>
<!-- 6 -->
<g id="node7" class="node"><title>6</title>
<ellipse fill="black" stroke="black" cx="1.8" cy="-82.3996" rx="1.8" ry="1.8"/>
</g>
<!-- 0&#45;&#45;6 -->
<g id="edge6" class="edge"><title>0&#45;&#45;6</title>
<path fill="none" stroke="black" d="M88.6025,-76.1208C77.065,-76.9553 15.1493,-81.434 3.64148,-82.2664"/>
</g>
<!-- 7 -->
<g id="node8" class="node"><title>7</title>
<ellipse fill="black" stroke="black" cx="148.894" cy="-124.931" rx="1.8" ry="1.8"/>
</g>
<!-- 0&#45;&#45;7 -->
<g id="edge7" class="edge"><title>0&#45;&#45;7</title>
<path fill="none" stroke="black" d="M91.8987,-77.1967C99.9137,-83.9094 138.861,-116.529 147.285,-123.584"/>
</g>
<!-- 8 -->
<g id="node9" class="node"><title>8</title>
<ellipse fill="black" stroke="black" cx="86.2272" cy="-1.8" rx="1.8" ry="1.8"/>
</g>
<!-- 0&#45;&#45;8 -->
<g id="edge8" class="edge"><title>0&#45;&#45;8</title>
<path fill="none" stroke="black" d="M90.3496,-74.153C89.7699,-63.9784 86.9529,-14.536 86.3436,-3.84216"/>
</g>
<!-- 1&#45;&#45;2 -->
<g id="edge9" class="edge"><title>1&#45;&#45;2</title>
<path fill="none" stroke="black" d="M47.581,-71.8029C53.7012,-78.3281 78.9471,-105.244 85.163,-111.872"/>
</g>
<!-- 1&#45;&#45;3 -->
<g id="edge10" class="edge"><title>1&#45;&#45;3</title>
<path fill="none" stroke="black" d="M47.3249,-72.2356C54.1448,-83.942 90.9999,-147.205 97.284,-157.991"/>
</g>
<!-- 1&#45;&#45;4 -->
<g id="edge11" class="edge"><title>1&#45;&#45;4</title>
<path fill="none" stroke="black" d="M46.4993,-72.3651C47.8129,-82.4488 53.7163,-127.765 54.9919,-137.557"/>
</g>
<!-- 1&#45;&#45;5 -->
<g id="edge12" class="edge"><title>1&#45;&#45;5</title>
<path fill="none" stroke="black" d="M45.642,-72.1821C42.2963,-82.3082 25.9251,-131.857 22.6342,-141.817"/>
</g>
<!-- 1&#45;&#45;6 -->
<g id="edge13" class="edge"><title>1&#45;&#45;6</title>
<path fill="none" stroke="black" d="M44.3303,-70.8897C37.0204,-72.8679 10.8647,-79.9464 3.65294,-81.8981"/>
</g>
<!-- 1&#45;&#45;8 -->
<g id="edge14" class="edge"><title>1&#45;&#45;8</title>
<path fill="none" stroke="black" d="M47.2282,-68.6778C52.7125,-59.2731 79.3624,-13.5722 85.1265,-3.68762"/>
</g>
<!-- 2&#45;&#45;3 -->
<g id="edge15" class="edge"><title>2&#45;&#45;3</title>
<path fill="none" stroke="black" d="M87.051,-115.336C88.9664,-122.937 95.8201,-150.131 97.7099,-157.629"/>
</g>
<!-- 2&#45;&#45;4 -->
<g id="edge16" class="edge"><title>2&#45;&#45;4</title>
<path fill="none" stroke="black" d="M84.8669,-114.753C79.3788,-119.323 62.0568,-133.746 56.7777,-138.142"/>
</g>
<!-- 2&#45;&#45;5 -->
<g id="edge17" class="edge"><title>2&#45;&#45;5</title>
<path fill="none" stroke="black" d="M84.69,-114.223C75.2722,-118.634 32.9488,-138.461 23.8032,-142.746"/>
</g>
<!-- 2&#45;&#45;6 -->
<g id="edge18" class="edge"><title>2&#45;&#45;6</title>
<path fill="none" stroke="black" d="M84.7805,-112.705C73.751,-108.677 14.5615,-87.0602 3.5604,-83.0425"/>
</g>
<!-- 2&#45;&#45;7 -->
<g id="edge19" class="edge"><title>2&#45;&#45;7</title>
<path fill="none" stroke="black" d="M88.3492,-113.685C97.2933,-115.346 136.94,-122.711 146.712,-124.526"/>
</g>
<!-- 3&#45;&#45;4 -->
<g id="edge20" class="edge"><title>3&#45;&#45;4</title>
<path fill="none" stroke="black" d="M96.3495,-158.691C89.283,-155.38 63.9983,-143.532 57.0267,-140.266"/>
</g>
<!-- 3&#45;&#45;5 -->
<g id="edge21" class="edge"><title>3&#45;&#45;5</title>
<path fill="none" stroke="black" d="M96.3133,-159.161C85.7795,-156.948 34.2349,-146.121 23.8736,-143.945"/>
</g>
<!-- 3&#45;&#45;7 -->
<g id="edge22" class="edge"><title>3&#45;&#45;7</title>
<path fill="none" stroke="black" d="M99.8822,-158.404C107.58,-153.147 139.331,-131.462 147.149,-126.123"/>
</g>
<!-- 4&#45;&#45;6 -->
<g id="edge23" class="edge"><title>4&#45;&#45;6</title>
<path fill="none" stroke="black" d="M53.9145,-138.017C46.5859,-130.196 10.9735,-92.1896 3.27093,-83.9694"/>
</g>
<!-- 4&#45;&#45;7 -->
<g id="edge24" class="edge"><title>4&#45;&#45;7</title>
<path fill="none" stroke="black" d="M57.1916,-139.124C69.3804,-137.237 134.791,-127.114 146.949,-125.232"/>
</g>
</g>
</svg>
