<?xml version="1.0" encoding="UTF-8" standalone="no"?>
<!DOCTYPE svg PUBLIC "-//W3C//DTD SVG 1.1//EN"
 "http://www.w3.org/Graphics/SVG/1.1/DTD/svg11.dtd">
<!-- Generated by graphviz version 2.36.0 (20140111.2315)
 -->
<!-- Title: %3 Pages: 1 -->
<svg width="146pt" height="143pt"
 viewBox="0.00 0.00 146.08 143.49" xmlns="http://www.w3.org/2000/svg" xmlns:xlink="http://www.w3.org/1999/xlink">
<g id="graph0" class="graph" transform="scale(1 1) rotate(0) translate(4 139.486)">
<title>%3</title>
<!-- 0 -->
<g id="node1" class="node"><title>0</title>
<ellipse fill="black" stroke="black" cx="78.3283" cy="-81.4413" rx="1.8" ry="1.8"/>
</g>
<!-- 1 -->
<g id="node2" class="node"><title>1</title>
<ellipse fill="black" stroke="black" cx="73.1511" cy="-46.703" rx="1.8" ry="1.8"/>
</g>
<!-- 0&#45;&#45;1 -->
<g id="edge1" class="edge"><title>0&#45;&#45;1</title>
<path fill="none" stroke="black" d="M78.05,-79.5736C77.1594,-73.5983 74.3842,-54.9772 73.4566,-48.7528"/>
</g>
<!-- 2 -->
<g id="node3" class="node"><title>2</title>
<ellipse fill="black" stroke="black" cx="31.6322" cy="-75.3256" rx="1.8" ry="1.8"/>
</g>
<!-- 0&#45;&#45;2 -->
<g id="edge2" class="edge"><title>0&#45;&#45;2</title>
<path fill="none" stroke="black" d="M76.3218,-81.1785C68.6408,-80.1726 41.1572,-76.5731 33.5793,-75.5806"/>
</g>
<!-- 3 -->
<g id="node4" class="node"><title>3</title>
<ellipse fill="black" stroke="black" cx="73.9128" cy="-133.686" rx="1.8" ry="1.8"/>
</g>
<!-- 0&#45;&#45;3 -->
<g id="edge3" class="edge"><title>0&#45;&#45;3</title>
<path fill="none" stroke="black" d="M78.1386,-83.6862C77.4123,-92.2798 74.8135,-123.029 74.0969,-131.507"/>
</g>
<!-- 4 -->
<g id="node5" class="node"><title>4</title>
<ellipse fill="black" stroke="black" cx="129.147" cy="-68.4652" rx="1.8" ry="1.8"/>
</g>
<!-- 0&#45;&#45;4 -->
<g id="edge4" class="edge"><title>0&#45;&#45;4</title>
<path fill="none" stroke="black" d="M80.512,-80.8838C88.8712,-78.7493 118.782,-71.112 127.029,-69.0062"/>
</g>
<!-- 5 -->
<g id="node6" class="node"><title>5</title>
<ellipse fill="black" stroke="black" cx="5.45102" cy="-109.333" rx="1.8" ry="1.8"/>
</g>
<!-- 0&#45;&#45;5 -->
<g id="edge5" class="edge"><title>0&#45;&#45;5</title>
<path fill="none" stroke="black" d="M76.5268,-82.1308C66.4441,-85.9897 17.1071,-104.872 7.18952,-108.668"/>
</g>
<!-- 6 -->
<g id="node7" class="node"><title>6</title>
<ellipse fill="black" stroke="black" cx="1.8" cy="-31.6712" rx="1.8" ry="1.8"/>
</g>
<!-- 0&#45;&#45;6 -->
<g id="edge6" class="edge"><title>0&#45;&#45;6</title>
<path fill="none" stroke="black" d="M76.7299,-80.4018C66.7705,-73.9247 13.3234,-39.1654 3.38961,-32.705"/>
</g>
<!-- 7 -->
<g id="node8" class="node"><title>7</title>
<ellipse fill="black" stroke="black" cx="136.284" cy="-123.534" rx="1.8" ry="1.8"/>
</g>
<!-- 0&#45;&#45;7 -->
<g id="edge7" class="edge"><title>0&#45;&#45;7</title>
<path fill="none" stroke="black" d="M80.2566,-82.8418C89.213,-89.3466 126.658,-116.542 134.742,-122.413"/>
</g>
<!-- 8 -->
<g id="node9" class="node"><title>8</title>
<ellipse fill="black" stroke="black" cx="123.317" cy="-1.8" rx="1.8" ry="1.8"/>
</g>
<!-- 0&#45;&#45;8 -->
<g id="edge8" class="edge"><title>0&#45;&#45;8</title>
<path fill="none" stroke="black" d="M79.268,-79.7779C85.1228,-69.4133 116.543,-13.7921 122.383,-3.45427"/>
</g>
<!-- 1&#45;&#45;2 -->
<g id="edge9" class="edge"><title>1&#45;&#45;2</title>
<path fill="none" stroke="black" d="M71.3671,-47.9329C64.5377,-52.641 40.1011,-69.4872 33.3634,-74.1322"/>
</g>
<!-- 1&#45;&#45;3 -->
<g id="edge10" class="edge"><title>1&#45;&#45;3</title>
<path fill="none" stroke="black" d="M73.167,-48.5198C73.2661,-59.8397 73.7981,-120.588 73.897,-131.879"/>
</g>
<!-- 1&#45;&#45;4 -->
<g id="edge11" class="edge"><title>1&#45;&#45;4</title>
<path fill="none" stroke="black" d="M75.0142,-47.4271C83.5159,-50.7311 118.585,-64.3604 127.22,-67.7161"/>
</g>
<!-- 1&#45;&#45;5 -->
<g id="edge12" class="edge"><title>1&#45;&#45;5</title>
<path fill="none" stroke="black" d="M71.4776,-48.2512C62.0297,-56.9915 15.4792,-100.056 6.83403,-108.054"/>
</g>
<!-- 1&#45;&#45;6 -->
<g id="edge13" class="edge"><title>1&#45;&#45;6</title>
<path fill="none" stroke="black" d="M71.3874,-46.3314C61.6016,-44.2698 14.0491,-34.2517 3.7641,-32.085"/>
</g>
<!-- 1&#45;&#45;7 -->
<g id="edge14" class="edge"><title>1&#45;&#45;7</title>
<path fill="none" stroke="black" d="M74.4697,-48.3077C82.6859,-58.3065 126.778,-111.965 134.973,-121.938"/>
</g>
<!-- 1&#45;&#45;8 -->
<g id="edge15" class="edge"><title>1&#45;&#45;8</title>
<path fill="none" stroke="black" d="M74.8202,-45.209C82.4367,-38.3916 113.855,-10.2696 121.59,-3.34566"/>
</g>
<!-- 2&#45;&#45;3 -->
<g id="edge16" class="edge"><title>2&#45;&#45;3</title>
<path fill="none" stroke="black" d="M33.039,-77.2673C39.5729,-86.2861 66.8899,-123.992 72.7873,-132.132"/>
</g>
<!-- 2&#45;&#45;4 -->
<g id="edge17" class="edge"><title>2&#45;&#45;4</title>
<path fill="none" stroke="black" d="M33.669,-75.1823C46.3597,-74.2895 114.464,-69.4982 127.122,-68.6077"/>
</g>
<!-- 2&#45;&#45;5 -->
<g id="edge18" class="edge"><title>2&#45;&#45;5</title>
<path fill="none" stroke="black" d="M30.5073,-76.7868C26.279,-82.279 11.348,-101.673 6.78534,-107.6"/>
</g>
<!-- 2&#45;&#45;6 -->
<g id="edge19" class="edge"><title>2&#45;&#45;6</title>
<path fill="none" stroke="black" d="M30.3504,-73.4498C25.4433,-66.2691 7.88508,-40.5756 3.04387,-33.4914"/>
</g>
<!-- 3&#45;&#45;4 -->
<g id="edge20" class="edge"><title>3&#45;&#45;4</title>
<path fill="none" stroke="black" d="M75.2782,-132.073C82.8535,-123.129 119.665,-79.6619 127.627,-70.2605"/>
</g>
<!-- 3&#45;&#45;5 -->
<g id="edge21" class="edge"><title>3&#45;&#45;5</title>
<path fill="none" stroke="black" d="M71.9377,-132.983C61.9404,-129.427 17.0127,-113.446 7.30436,-109.992"/>
</g>
<!-- 3&#45;&#45;7 -->
<g id="edge22" class="edge"><title>3&#45;&#45;7</title>
<path fill="none" stroke="black" d="M75.7122,-133.393C84.6603,-131.936 124.325,-125.48 134.101,-123.889"/>
</g>
<!-- 4&#45;&#45;7 -->
<g id="edge23" class="edge"><title>4&#45;&#45;7</title>
<path fill="none" stroke="black" d="M129.385,-70.2974C130.468,-78.6582 134.938,-113.147 136.039,-121.638"/>
</g>
<!-- 4&#45;&#45;8 -->
<g id="edge24" class="edge"><title>4&#45;&#45;8</title>
<path fill="none" stroke="black" d="M128.979,-66.5419C128.128,-56.807 124.302,-13.0583 123.475,-3.60471"/>
</g>
<!-- 5&#45;&#45;6 -->
<g id="edge25" class="edge"><title>5&#45;&#45;6</title>
<path fill="none" stroke="black" d="M5.36077,-107.413C4.85564,-96.6687 2.38395,-44.0925 1.8871,-33.5238"/>
</g>
</g>
</svg>
