<?xml version="1.0" encoding="UTF-8" standalone="no"?>
<!DOCTYPE svg PUBLIC "-//W3C//DTD SVG 1.1//EN"
 "http://www.w3.org/Graphics/SVG/1.1/DTD/svg11.dtd">
<!-- Generated by graphviz version 2.36.0 (20140111.2315)
 -->
<!-- Title: %3 Pages: 1 -->
<svg width="201pt" height="191pt"
 viewBox="0.00 0.00 201.30 191.10" xmlns="http://www.w3.org/2000/svg" xmlns:xlink="http://www.w3.org/1999/xlink">
<g id="graph0" class="graph" transform="scale(1 1) rotate(0) translate(4 187.098)">
<title>%3</title>
<!-- 0 -->
<g id="node1" class="node"><title>0</title>
<ellipse fill="black" stroke="black" cx="80.3249" cy="-94.7058" rx="1.8" ry="1.8"/>
</g>
<!-- 2 -->
<g id="node2" class="node"><title>2</title>
<ellipse fill="black" stroke="black" cx="85.4643" cy="-12.7418" rx="1.8" ry="1.8"/>
</g>
<!-- 0&#45;&#45;2 -->
<g id="edge1" class="edge"><title>0&#45;&#45;2</title>
<path fill="none" stroke="black" d="M80.452,-92.6797C81.163,-81.3399 84.6423,-25.8513 85.3417,-14.6971"/>
</g>
<!-- 3 -->
<g id="node3" class="node"><title>3</title>
<ellipse fill="black" stroke="black" cx="170.671" cy="-108.793" rx="1.8" ry="1.8"/>
</g>
<!-- 0&#45;&#45;3 -->
<g id="edge2" class="edge"><title>0&#45;&#45;3</title>
<path fill="none" stroke="black" d="M82.2119,-95.0001C93.9696,-96.8334 157.067,-106.672 168.794,-108.501"/>
</g>
<!-- 4 -->
<g id="node4" class="node"><title>4</title>
<ellipse fill="black" stroke="black" cx="126.618" cy="-142.896" rx="1.8" ry="1.8"/>
</g>
<!-- 0&#45;&#45;4 -->
<g id="edge3" class="edge"><title>0&#45;&#45;4</title>
<path fill="none" stroke="black" d="M81.8652,-96.3092C88.8938,-103.626 117.887,-133.806 125.025,-141.237"/>
</g>
<!-- 7 -->
<g id="node5" class="node"><title>7</title>
<ellipse fill="black" stroke="black" cx="1.8" cy="-82.1138" rx="1.8" ry="1.8"/>
</g>
<!-- 0&#45;&#45;7 -->
<g id="edge4" class="edge"><title>0&#45;&#45;7</title>
<path fill="none" stroke="black" d="M78.3839,-94.3946C67.5198,-92.6524 14.3594,-84.1278 3.67323,-82.4142"/>
</g>
<!-- 5 -->
<g id="node7" class="node"><title>5</title>
<ellipse fill="black" stroke="black" cx="6.83099" cy="-1.8" rx="1.8" ry="1.8"/>
</g>
<!-- 2&#45;&#45;5 -->
<g id="edge8" class="edge"><title>2&#45;&#45;5</title>
<path fill="none" stroke="black" d="M83.5205,-12.4714C72.6414,-10.9575 19.4077,-3.55005 8.7068,-2.06102"/>
</g>
<!-- 6 -->
<g id="node8" class="node"><title>6</title>
<ellipse fill="black" stroke="black" cx="191.503" cy="-181.298" rx="1.8" ry="1.8"/>
</g>
<!-- 3&#45;&#45;6 -->
<g id="edge9" class="edge"><title>3&#45;&#45;6</title>
<path fill="none" stroke="black" d="M171.186,-110.586C174.043,-120.53 187.927,-168.851 190.929,-179.303"/>
</g>
<!-- 4&#45;&#45;6 -->
<g id="edge10" class="edge"><title>4&#45;&#45;6</title>
<path fill="none" stroke="black" d="M128.222,-143.845C137.121,-149.112 180.364,-174.706 189.717,-180.241"/>
</g>
<!-- 1 -->
<g id="node6" class="node"><title>1</title>
<ellipse fill="black" stroke="black" cx="154.263" cy="-49.6002" rx="1.8" ry="1.8"/>
</g>
<!-- 1&#45;&#45;2 -->
<g id="edge5" class="edge"><title>1&#45;&#45;2</title>
<path fill="none" stroke="black" d="M152.562,-48.6891C143.126,-43.634 97.2752,-19.0695 87.3581,-13.7565"/>
</g>
<!-- 1&#45;&#45;3 -->
<g id="edge6" class="edge"><title>1&#45;&#45;3</title>
<path fill="none" stroke="black" d="M154.809,-51.5696C157.3,-60.5567 167.576,-97.6283 170.106,-106.756"/>
</g>
<!-- 1&#45;&#45;4 -->
<g id="edge7" class="edge"><title>1&#45;&#45;4</title>
<path fill="none" stroke="black" d="M153.685,-51.5488C150.088,-63.6904 130.781,-128.848 127.193,-140.958"/>
</g>
<!-- 5&#45;&#45;7 -->
<g id="edge11" class="edge"><title>5&#45;&#45;7</title>
<path fill="none" stroke="black" d="M6.70663,-3.7853C6.01058,-14.8969 2.60466,-69.2683 1.92002,-80.1979"/>
</g>
</g>
</svg>
