<?xml version="1.0" encoding="UTF-8" standalone="no"?>
<!DOCTYPE svg PUBLIC "-//W3C//DTD SVG 1.1//EN"
 "http://www.w3.org/Graphics/SVG/1.1/DTD/svg11.dtd">
<!-- Generated by graphviz version 2.36.0 (20140111.2315)
 -->
<!-- Title: %3 Pages: 1 -->
<svg width="161pt" height="204pt"
 viewBox="0.00 0.00 161.45 204.05" xmlns="http://www.w3.org/2000/svg" xmlns:xlink="http://www.w3.org/1999/xlink">
<g id="graph0" class="graph" transform="scale(1 1) rotate(0) translate(4 200.049)">
<title>%3</title>
<!-- 0 -->
<g id="node1" class="node"><title>0</title>
<ellipse fill="black" stroke="black" cx="79.578" cy="-133.401" rx="1.8" ry="1.8"/>
</g>
<!-- 1 -->
<g id="node2" class="node"><title>1</title>
<ellipse fill="black" stroke="black" cx="98.5671" cy="-106.669" rx="1.8" ry="1.8"/>
</g>
<!-- 0&#45;&#45;1 -->
<g id="edge1" class="edge"><title>0&#45;&#45;1</title>
<path fill="none" stroke="black" d="M80.8239,-131.647C84.3224,-126.722 94.1946,-112.824 97.4849,-108.192"/>
</g>
<!-- 2 -->
<g id="node3" class="node"><title>2</title>
<ellipse fill="black" stroke="black" cx="31.5491" cy="-123.243" rx="1.8" ry="1.8"/>
</g>
<!-- 0&#45;&#45;2 -->
<g id="edge2" class="edge"><title>0&#45;&#45;2</title>
<path fill="none" stroke="black" d="M77.5142,-132.964C69.614,-131.293 41.3459,-125.315 33.5517,-123.666"/>
</g>
<!-- 3 -->
<g id="node4" class="node"><title>3</title>
<ellipse fill="black" stroke="black" cx="20.6456" cy="-157.368" rx="1.8" ry="1.8"/>
</g>
<!-- 0&#45;&#45;3 -->
<g id="edge3" class="edge"><title>0&#45;&#45;3</title>
<path fill="none" stroke="black" d="M77.8778,-134.092C69.423,-137.531 31.9457,-152.772 22.7085,-156.529"/>
</g>
<!-- 4 -->
<g id="node5" class="node"><title>4</title>
<ellipse fill="black" stroke="black" cx="102.25" cy="-180.344" rx="1.8" ry="1.8"/>
</g>
<!-- 0&#45;&#45;4 -->
<g id="edge4" class="edge"><title>0&#45;&#45;4</title>
<path fill="none" stroke="black" d="M80.5522,-135.418C84.2815,-143.14 97.6257,-170.768 101.305,-178.386"/>
</g>
<!-- 5 -->
<g id="node6" class="node"><title>5</title>
<ellipse fill="black" stroke="black" cx="66.9881" cy="-194.249" rx="1.8" ry="1.8"/>
</g>
<!-- 0&#45;&#45;5 -->
<g id="edge5" class="edge"><title>0&#45;&#45;5</title>
<path fill="none" stroke="black" d="M79.1591,-135.425C77.2476,-144.664 69.3628,-182.772 67.4214,-192.155"/>
</g>
<!-- 6 -->
<g id="node7" class="node"><title>6</title>
<ellipse fill="black" stroke="black" cx="35.3661" cy="-68.2015" rx="1.8" ry="1.8"/>
</g>
<!-- 0&#45;&#45;6 -->
<g id="edge6" class="edge"><title>0&#45;&#45;6</title>
<path fill="none" stroke="black" d="M78.4851,-131.789C72.4215,-122.847 42.9562,-79.3945 36.5832,-69.9962"/>
</g>
<!-- 7 -->
<g id="node8" class="node"><title>7</title>
<ellipse fill="black" stroke="black" cx="151.646" cy="-156.725" rx="1.8" ry="1.8"/>
</g>
<!-- 0&#45;&#45;7 -->
<g id="edge7" class="edge"><title>0&#45;&#45;7</title>
<path fill="none" stroke="black" d="M81.3594,-133.977C91.3302,-137.204 140.12,-152.995 149.927,-156.169"/>
</g>
<!-- 1&#45;&#45;2 -->
<g id="edge8" class="edge"><title>1&#45;&#45;2</title>
<path fill="none" stroke="black" d="M96.6337,-107.147C86.8472,-109.567 42.867,-120.444 33.3634,-122.794"/>
</g>
<!-- 1&#45;&#45;3 -->
<g id="edge9" class="edge"><title>1&#45;&#45;3</title>
<path fill="none" stroke="black" d="M96.9396,-107.727C86.7989,-114.326 32.3788,-149.734 22.2642,-156.315"/>
</g>
<!-- 1&#45;&#45;4 -->
<g id="edge10" class="edge"><title>1&#45;&#45;4</title>
<path fill="none" stroke="black" d="M98.6582,-108.49C99.1633,-118.594 101.618,-167.696 102.149,-178.316"/>
</g>
<!-- 1&#45;&#45;5 -->
<g id="edge11" class="edge"><title>1&#45;&#45;5</title>
<path fill="none" stroke="black" d="M97.9076,-108.498C93.7978,-119.896 71.7432,-181.062 67.644,-192.43"/>
</g>
<!-- 1&#45;&#45;6 -->
<g id="edge12" class="edge"><title>1&#45;&#45;6</title>
<path fill="none" stroke="black" d="M97.0048,-105.718C88.3369,-100.442 46.2161,-74.8053 37.1059,-69.2604"/>
</g>
<!-- 1&#45;&#45;7 -->
<g id="edge13" class="edge"><title>1&#45;&#45;7</title>
<path fill="none" stroke="black" d="M99.8792,-107.906C107.159,-114.771 142.534,-148.132 150.185,-155.347"/>
</g>
<!-- 2&#45;&#45;3 -->
<g id="edge14" class="edge"><title>2&#45;&#45;3</title>
<path fill="none" stroke="black" d="M30.9629,-125.077C29.0874,-130.947 23.2427,-149.24 21.289,-155.354"/>
</g>
<!-- 2&#45;&#45;4 -->
<g id="edge15" class="edge"><title>2&#45;&#45;4</title>
<path fill="none" stroke="black" d="M33.0258,-124.435C42.2269,-131.866 91.6043,-171.746 100.782,-179.158"/>
</g>
<!-- 2&#45;&#45;5 -->
<g id="edge16" class="edge"><title>2&#45;&#45;5</title>
<path fill="none" stroke="black" d="M32.4251,-124.998C37.3282,-134.822 61.3199,-182.892 66.1427,-192.556"/>
</g>
<!-- 2&#45;&#45;6 -->
<g id="edge17" class="edge"><title>2&#45;&#45;6</title>
<path fill="none" stroke="black" d="M31.6761,-121.411C32.2556,-113.055 34.6462,-78.5833 35.2347,-70.0961"/>
</g>
<!-- 3&#45;&#45;4 -->
<g id="edge18" class="edge"><title>3&#45;&#45;4</title>
<path fill="none" stroke="black" d="M22.6628,-157.936C33.953,-161.115 89.1984,-176.669 100.304,-179.796"/>
</g>
<!-- 3&#45;&#45;5 -->
<g id="edge19" class="edge"><title>3&#45;&#45;5</title>
<path fill="none" stroke="black" d="M22.1875,-158.595C29.2235,-164.195 58.2469,-187.293 65.3929,-192.98"/>
</g>
<!-- 3&#45;&#45;6 -->
<g id="edge20" class="edge"><title>3&#45;&#45;6</title>
<path fill="none" stroke="black" d="M20.9531,-155.506C22.8688,-143.901 33.1496,-81.6279 35.0604,-70.0536"/>
</g>
<!-- 4&#45;&#45;5 -->
<g id="edge21" class="edge"><title>4&#45;&#45;5</title>
<path fill="none" stroke="black" d="M100.354,-181.091C94.1746,-183.528 74.6692,-191.22 68.7247,-193.565"/>
</g>
<!-- 4&#45;&#45;7 -->
<g id="edge22" class="edge"><title>4&#45;&#45;7</title>
<path fill="none" stroke="black" d="M103.894,-179.558C111.393,-175.972 142.329,-161.18 149.946,-157.538"/>
</g>
<!-- 5&#45;&#45;7 -->
<g id="edge23" class="edge"><title>5&#45;&#45;7</title>
<path fill="none" stroke="black" d="M68.7563,-193.466C79.7737,-188.582 138.899,-162.375 149.888,-157.504"/>
</g>
<!-- 8 -->
<g id="node9" class="node"><title>8</title>
<ellipse fill="black" stroke="black" cx="1.8" cy="-1.8" rx="1.8" ry="1.8"/>
</g>
<!-- 6&#45;&#45;8 -->
<g id="edge24" class="edge"><title>6&#45;&#45;8</title>
<path fill="none" stroke="black" d="M34.5364,-66.5601C29.9328,-57.4532 7.56244,-13.1994 2.72398,-3.62785"/>
</g>
</g>
</svg>
