<?xml version="1.0" encoding="UTF-8" standalone="no"?>
<!DOCTYPE svg PUBLIC "-//W3C//DTD SVG 1.1//EN"
 "http://www.w3.org/Graphics/SVG/1.1/DTD/svg11.dtd">
<!-- Generated by graphviz version 2.36.0 (20140111.2315)
 -->
<!-- Title: %3 Pages: 1 -->
<svg width="177pt" height="237pt"
 viewBox="0.00 0.00 177.24 237.31" xmlns="http://www.w3.org/2000/svg" xmlns:xlink="http://www.w3.org/1999/xlink">
<g id="graph0" class="graph" transform="scale(1 1) rotate(0) translate(4 233.312)">
<title>%3</title>
<!-- 0 -->
<g id="node1" class="node"><title>0</title>
<ellipse fill="black" stroke="black" cx="56.7856" cy="-144.335" rx="1.8" ry="1.8"/>
</g>
<!-- 1 -->
<g id="node2" class="node"><title>1</title>
<ellipse fill="black" stroke="black" cx="122.242" cy="-95.7353" rx="1.8" ry="1.8"/>
</g>
<!-- 0&#45;&#45;1 -->
<g id="edge1" class="edge"><title>0&#45;&#45;1</title>
<path fill="none" stroke="black" d="M58.4037,-143.133C67.3809,-136.468 111.005,-104.079 120.44,-97.0731"/>
</g>
<!-- 2 -->
<g id="node3" class="node"><title>2</title>
<ellipse fill="black" stroke="black" cx="72.3693" cy="-74.6241" rx="1.8" ry="1.8"/>
</g>
<!-- 0&#45;&#45;2 -->
<g id="edge2" class="edge"><title>0&#45;&#45;2</title>
<path fill="none" stroke="black" d="M57.2352,-142.324C59.5109,-132.144 69.7376,-86.3967 71.9475,-76.5113"/>
</g>
<!-- 3 -->
<g id="node4" class="node"><title>3</title>
<ellipse fill="black" stroke="black" cx="37.2093" cy="-227.512" rx="1.8" ry="1.8"/>
</g>
<!-- 0&#45;&#45;3 -->
<g id="edge3" class="edge"><title>0&#45;&#45;3</title>
<path fill="none" stroke="black" d="M56.3017,-146.391C53.5933,-157.899 40.3404,-214.208 37.6763,-225.527"/>
</g>
<!-- 4 -->
<g id="node5" class="node"><title>4</title>
<ellipse fill="black" stroke="black" cx="85.7632" cy="-211.049" rx="1.8" ry="1.8"/>
</g>
<!-- 0&#45;&#45;4 -->
<g id="edge4" class="edge"><title>0&#45;&#45;4</title>
<path fill="none" stroke="black" d="M57.6216,-146.259C61.8531,-156.002 80.8695,-199.782 84.9787,-209.243"/>
</g>
<!-- 5 -->
<g id="node6" class="node"><title>5</title>
<ellipse fill="black" stroke="black" cx="1.9173" cy="-189.469" rx="1.8" ry="1.8"/>
</g>
<!-- 0&#45;&#45;5 -->
<g id="edge5" class="edge"><title>0&#45;&#45;5</title>
<path fill="none" stroke="black" d="M54.9601,-145.836C46.4809,-152.811 11.031,-181.972 3.37783,-188.267"/>
</g>
<!-- 6 -->
<g id="node7" class="node"><title>6</title>
<ellipse fill="black" stroke="black" cx="1.8" cy="-86.3593" rx="1.8" ry="1.8"/>
</g>
<!-- 0&#45;&#45;6 -->
<g id="edge6" class="edge"><title>0&#45;&#45;6</title>
<path fill="none" stroke="black" d="M55.4264,-142.902C47.8852,-134.95 11.2396,-96.3122 3.3136,-87.9552"/>
</g>
<!-- 1&#45;&#45;2 -->
<g id="edge7" class="edge"><title>1&#45;&#45;2</title>
<path fill="none" stroke="black" d="M120.583,-95.0329C113.011,-91.8277 81.7763,-78.6061 74.0861,-75.3508"/>
</g>
<!-- 7 -->
<g id="node8" class="node"><title>7</title>
<ellipse fill="black" stroke="black" cx="167.441" cy="-65.4958" rx="1.8" ry="1.8"/>
</g>
<!-- 1&#45;&#45;7 -->
<g id="edge8" class="edge"><title>1&#45;&#45;7</title>
<path fill="none" stroke="black" d="M123.746,-94.7292C130.608,-90.138 158.915,-71.1996 165.885,-66.5367"/>
</g>
<!-- 8 -->
<g id="node9" class="node"><title>8</title>
<ellipse fill="black" stroke="black" cx="128.145" cy="-1.8" rx="1.8" ry="1.8"/>
</g>
<!-- 1&#45;&#45;8 -->
<g id="edge9" class="edge"><title>1&#45;&#45;8</title>
<path fill="none" stroke="black" d="M122.365,-93.7733C123.134,-81.5485 127.256,-15.9445 128.023,-3.75118"/>
</g>
<!-- 2&#45;&#45;6 -->
<g id="edge10" class="edge"><title>2&#45;&#45;6</title>
<path fill="none" stroke="black" d="M70.3334,-74.9627C60.0284,-76.6763 13.7176,-84.3775 3.7104,-86.0416"/>
</g>
<!-- 2&#45;&#45;7 -->
<g id="edge11" class="edge"><title>2&#45;&#45;7</title>
<path fill="none" stroke="black" d="M74.355,-74.4335C86.7276,-73.2455 153.125,-66.8703 165.466,-65.6854"/>
</g>
<!-- 3&#45;&#45;4 -->
<g id="edge12" class="edge"><title>3&#45;&#45;4</title>
<path fill="none" stroke="black" d="M39.2956,-226.804C47.2822,-224.096 75.8593,-214.407 83.7387,-211.735"/>
</g>
<!-- 3&#45;&#45;5 -->
<g id="edge13" class="edge"><title>3&#45;&#45;5</title>
<path fill="none" stroke="black" d="M35.6929,-225.877C29.8877,-219.619 9.11605,-197.229 3.38883,-191.055"/>
</g>
<!-- 4&#45;&#45;5 -->
<g id="edge14" class="edge"><title>4&#45;&#45;5</title>
<path fill="none" stroke="black" d="M84.0119,-210.598C73.1943,-207.814 15.5486,-192.977 3.95095,-189.992"/>
</g>
</g>
</svg>
