<?xml version="1.0" encoding="UTF-8" standalone="no"?>
<!DOCTYPE svg PUBLIC "-//W3C//DTD SVG 1.1//EN"
 "http://www.w3.org/Graphics/SVG/1.1/DTD/svg11.dtd">
<!-- Generated by graphviz version 2.36.0 (20140111.2315)
 -->
<!-- Title: %3 Pages: 1 -->
<svg width="180pt" height="182pt"
 viewBox="0.00 0.00 179.62 181.95" xmlns="http://www.w3.org/2000/svg" xmlns:xlink="http://www.w3.org/1999/xlink">
<g id="graph0" class="graph" transform="scale(1 1) rotate(0) translate(4 177.946)">
<title>%3</title>
<!-- 0 -->
<g id="node1" class="node"><title>0</title>
<ellipse fill="black" stroke="black" cx="50.1189" cy="-102.551" rx="1.8" ry="1.8"/>
</g>
<!-- 1 -->
<g id="node2" class="node"><title>1</title>
<ellipse fill="black" stroke="black" cx="126.316" cy="-97.9147" rx="1.8" ry="1.8"/>
</g>
<!-- 0&#45;&#45;1 -->
<g id="edge1" class="edge"><title>0&#45;&#45;1</title>
<path fill="none" stroke="black" d="M52.0024,-102.436C62.5444,-101.795 114.129,-98.6562 124.498,-98.0253"/>
</g>
<!-- 2 -->
<g id="node3" class="node"><title>2</title>
<ellipse fill="black" stroke="black" cx="74.6781" cy="-32.9205" rx="1.8" ry="1.8"/>
</g>
<!-- 0&#45;&#45;2 -->
<g id="edge2" class="edge"><title>0&#45;&#45;2</title>
<path fill="none" stroke="black" d="M50.7259,-100.83C54.0942,-91.28 70.4619,-44.8743 74.002,-34.8373"/>
</g>
<!-- 3 -->
<g id="node4" class="node"><title>3</title>
<ellipse fill="black" stroke="black" cx="112.572" cy="-56.6283" rx="1.8" ry="1.8"/>
</g>
<!-- 0&#45;&#45;3 -->
<g id="edge3" class="edge"><title>0&#45;&#45;3</title>
<path fill="none" stroke="black" d="M51.6627,-101.416C60.2281,-95.1175 101.851,-64.512 110.853,-57.8924"/>
</g>
<!-- 6 -->
<g id="node5" class="node"><title>6</title>
<ellipse fill="black" stroke="black" cx="89.313" cy="-164.225" rx="1.8" ry="1.8"/>
</g>
<!-- 0&#45;&#45;6 -->
<g id="edge4" class="edge"><title>0&#45;&#45;6</title>
<path fill="none" stroke="black" d="M51.0877,-104.075C56.4631,-112.534 82.5843,-153.637 88.234,-162.527"/>
</g>
<!-- 7 -->
<g id="node6" class="node"><title>7</title>
<ellipse fill="black" stroke="black" cx="17.2012" cy="-172.146" rx="1.8" ry="1.8"/>
</g>
<!-- 0&#45;&#45;7 -->
<g id="edge5" class="edge"><title>0&#45;&#45;7</title>
<path fill="none" stroke="black" d="M49.3052,-104.271C44.7905,-113.816 22.8523,-160.198 18.1073,-170.23"/>
</g>
<!-- 8 -->
<g id="node7" class="node"><title>8</title>
<ellipse fill="black" stroke="black" cx="1.8" cy="-42.7018" rx="1.8" ry="1.8"/>
</g>
<!-- 0&#45;&#45;8 -->
<g id="edge6" class="edge"><title>0&#45;&#45;8</title>
<path fill="none" stroke="black" d="M48.9245,-101.071C42.2976,-92.8633 10.0951,-52.9763 3.13009,-44.3493"/>
</g>
<!-- 1&#45;&#45;2 -->
<g id="edge7" class="edge"><title>1&#45;&#45;2</title>
<path fill="none" stroke="black" d="M125.04,-96.3081C117.957,-87.3942 83.543,-44.0784 76.0995,-34.7096"/>
</g>
<!-- 1&#45;&#45;3 -->
<g id="edge8" class="edge"><title>1&#45;&#45;3</title>
<path fill="none" stroke="black" d="M125.725,-96.1407C123.465,-89.3495 115.376,-65.0498 113.145,-58.3498"/>
</g>
<!-- 1&#45;&#45;6 -->
<g id="edge11" class="edge"><title>1&#45;&#45;6</title>
<path fill="none" stroke="black" d="M125.401,-99.5539C120.326,-108.648 95.6654,-152.841 90.3315,-162.4"/>
</g>
<!-- 4 -->
<g id="node8" class="node"><title>4</title>
<ellipse fill="black" stroke="black" cx="169.819" cy="-45.5963" rx="1.8" ry="1.8"/>
</g>
<!-- 1&#45;&#45;4 -->
<g id="edge9" class="edge"><title>1&#45;&#45;4</title>
<path fill="none" stroke="black" d="M127.763,-96.174C134.486,-88.0889 162.593,-54.2865 168.661,-46.9889"/>
</g>
<!-- 5 -->
<g id="node9" class="node"><title>5</title>
<ellipse fill="black" stroke="black" cx="133.88" cy="-1.8" rx="1.8" ry="1.8"/>
</g>
<!-- 1&#45;&#45;5 -->
<g id="edge10" class="edge"><title>1&#45;&#45;5</title>
<path fill="none" stroke="black" d="M126.474,-95.9072C127.458,-83.3988 132.741,-16.2727 133.723,-3.79645"/>
</g>
<!-- 2&#45;&#45;3 -->
<g id="edge12" class="edge"><title>2&#45;&#45;3</title>
<path fill="none" stroke="black" d="M76.3063,-33.9392C82.5395,-37.8389 104.843,-51.7925 110.992,-55.6398"/>
</g>
<!-- 2&#45;&#45;8 -->
<g id="edge15" class="edge"><title>2&#45;&#45;8</title>
<path fill="none" stroke="black" d="M72.8766,-33.1623C62.8814,-34.5038 14.3113,-41.0226 3.80613,-42.4326"/>
</g>
<!-- 2&#45;&#45;4 -->
<g id="edge13" class="edge"><title>2&#45;&#45;4</title>
<path fill="none" stroke="black" d="M76.6652,-33.1853C89.0469,-34.8349 155.493,-43.6876 167.843,-45.333"/>
</g>
<!-- 2&#45;&#45;5 -->
<g id="edge14" class="edge"><title>2&#45;&#45;5</title>
<path fill="none" stroke="black" d="M76.386,-32.0227C85.0312,-27.4783 123.882,-7.05557 132.278,-2.64247"/>
</g>
<!-- 3&#45;&#45;4 -->
<g id="edge16" class="edge"><title>3&#45;&#45;4</title>
<path fill="none" stroke="black" d="M114.477,-56.2613C123.168,-54.5863 159.021,-47.6772 167.848,-45.976"/>
</g>
<!-- 3&#45;&#45;5 -->
<g id="edge17" class="edge"><title>3&#45;&#45;5</title>
<path fill="none" stroke="black" d="M113.281,-54.8041C116.516,-46.4797 129.861,-12.1417 133.147,-3.68731"/>
</g>
<!-- 6&#45;&#45;7 -->
<g id="edge19" class="edge"><title>6&#45;&#45;7</title>
<path fill="none" stroke="black" d="M87.2326,-164.453C76.7023,-165.61 29.3793,-170.808 19.1534,-171.931"/>
</g>
<!-- 4&#45;&#45;5 -->
<g id="edge18" class="edge"><title>4&#45;&#45;5</title>
<path fill="none" stroke="black" d="M168.623,-44.1391C163.167,-37.4897 140.659,-10.0609 135.117,-3.30757"/>
</g>
</g>
</svg>
