<?xml version="1.0" encoding="UTF-8" standalone="no"?>
<!DOCTYPE svg PUBLIC "-//W3C//DTD SVG 1.1//EN"
 "http://www.w3.org/Graphics/SVG/1.1/DTD/svg11.dtd">
<!-- Generated by graphviz version 2.36.0 (20140111.2315)
 -->
<!-- Title: %3 Pages: 1 -->
<svg width="165pt" height="173pt"
 viewBox="0.00 0.00 164.61 172.91" xmlns="http://www.w3.org/2000/svg" xmlns:xlink="http://www.w3.org/1999/xlink">
<g id="graph0" class="graph" transform="scale(1 1) rotate(0) translate(4 168.907)">
<title>%3</title>
<!-- 0 -->
<g id="node1" class="node"><title>0</title>
<ellipse fill="black" stroke="black" cx="75.181" cy="-84.8768" rx="1.8" ry="1.8"/>
</g>
<!-- 1 -->
<g id="node2" class="node"><title>1</title>
<ellipse fill="black" stroke="black" cx="103.852" cy="-72.4568" rx="1.8" ry="1.8"/>
</g>
<!-- 0&#45;&#45;1 -->
<g id="edge1" class="edge"><title>0&#45;&#45;1</title>
<path fill="none" stroke="black" d="M77.0622,-84.0619C82.2447,-81.8169 96.6911,-75.5589 101.926,-73.291"/>
</g>
<!-- 2 -->
<g id="node3" class="node"><title>2</title>
<ellipse fill="black" stroke="black" cx="50.0416" cy="-50.5891" rx="1.8" ry="1.8"/>
</g>
<!-- 0&#45;&#45;2 -->
<g id="edge2" class="edge"><title>0&#45;&#45;2</title>
<path fill="none" stroke="black" d="M74.1008,-83.4035C70.0408,-77.8661 55.704,-58.3121 51.3229,-52.3366"/>
</g>
<!-- 3 -->
<g id="node4" class="node"><title>3</title>
<ellipse fill="black" stroke="black" cx="48.4174" cy="-133.637" rx="1.8" ry="1.8"/>
</g>
<!-- 0&#45;&#45;3 -->
<g id="edge3" class="edge"><title>0&#45;&#45;3</title>
<path fill="none" stroke="black" d="M74.2905,-86.4991C70.2271,-93.9023 53.4656,-124.44 49.3387,-131.959"/>
</g>
<!-- 4 -->
<g id="node5" class="node"><title>4</title>
<ellipse fill="black" stroke="black" cx="124.178" cy="-121.92" rx="1.8" ry="1.8"/>
</g>
<!-- 0&#45;&#45;4 -->
<g id="edge4" class="edge"><title>0&#45;&#45;4</title>
<path fill="none" stroke="black" d="M76.8112,-86.1093C84.2503,-91.7334 114.937,-114.933 122.492,-120.645"/>
</g>
<!-- 5 -->
<g id="node6" class="node"><title>5</title>
<ellipse fill="black" stroke="black" cx="98.6782" cy="-163.107" rx="1.8" ry="1.8"/>
</g>
<!-- 0&#45;&#45;5 -->
<g id="edge5" class="edge"><title>0&#45;&#45;5</title>
<path fill="none" stroke="black" d="M75.7618,-86.8106C79.0127,-97.634 94.92,-150.595 98.1177,-161.241"/>
</g>
<!-- 6 -->
<g id="node7" class="node"><title>6</title>
<ellipse fill="black" stroke="black" cx="96.2345" cy="-1.8" rx="1.8" ry="1.8"/>
</g>
<!-- 0&#45;&#45;6 -->
<g id="edge6" class="edge"><title>0&#45;&#45;6</title>
<path fill="none" stroke="black" d="M75.7014,-82.8232C78.6142,-71.3294 92.8672,-15.0874 95.7323,-3.78181"/>
</g>
<!-- 7 -->
<g id="node8" class="node"><title>7</title>
<ellipse fill="black" stroke="black" cx="154.808" cy="-30.9936" rx="1.8" ry="1.8"/>
</g>
<!-- 0&#45;&#45;7 -->
<g id="edge7" class="edge"><title>0&#45;&#45;7</title>
<path fill="none" stroke="black" d="M76.8441,-83.7514C87.2068,-76.739 142.818,-39.1071 153.154,-32.1128"/>
</g>
<!-- 8 -->
<g id="node9" class="node"><title>8</title>
<ellipse fill="black" stroke="black" cx="1.8" cy="-59.2503" rx="1.8" ry="1.8"/>
</g>
<!-- 0&#45;&#45;8 -->
<g id="edge8" class="edge"><title>0&#45;&#45;8</title>
<path fill="none" stroke="black" d="M73.3671,-84.2433C63.2147,-80.6978 13.5366,-63.349 3.55052,-59.8616"/>
</g>
<!-- 1&#45;&#45;2 -->
<g id="edge9" class="edge"><title>1&#45;&#45;2</title>
<path fill="none" stroke="black" d="M102.062,-71.7293C93.8919,-68.4092 60.1914,-54.7138 51.8939,-51.3419"/>
</g>
<!-- 1&#45;&#45;3 -->
<g id="edge10" class="edge"><title>1&#45;&#45;3</title>
<path fill="none" stroke="black" d="M102.482,-73.9692C94.879,-82.36 57.9341,-123.134 49.9434,-131.953"/>
</g>
<!-- 1&#45;&#45;4 -->
<g id="edge11" class="edge"><title>1&#45;&#45;4</title>
<path fill="none" stroke="black" d="M104.725,-74.5822C108.069,-82.7183 120.032,-111.831 123.331,-119.857"/>
</g>
<!-- 1&#45;&#45;5 -->
<g id="edge12" class="edge"><title>1&#45;&#45;5</title>
<path fill="none" stroke="black" d="M103.744,-74.3502C103.071,-86.1475 99.4572,-149.458 98.7857,-161.225"/>
</g>
<!-- 1&#45;&#45;6 -->
<g id="edge13" class="edge"><title>1&#45;&#45;6</title>
<path fill="none" stroke="black" d="M103.632,-70.4184C102.52,-60.1006 97.5209,-13.7324 96.4407,-3.71276"/>
</g>
<!-- 1&#45;&#45;7 -->
<g id="edge14" class="edge"><title>1&#45;&#45;7</title>
<path fill="none" stroke="black" d="M105.547,-71.0773C113.284,-64.7821 145.197,-38.8144 153.054,-32.4208"/>
</g>
<!-- 1&#45;&#45;8 -->
<g id="edge15" class="edge"><title>1&#45;&#45;8</title>
<path fill="none" stroke="black" d="M101.721,-72.181C88.3249,-70.4475 15.9335,-61.0793 3.59019,-59.4819"/>
</g>
<!-- 2&#45;&#45;3 -->
<g id="edge16" class="edge"><title>2&#45;&#45;3</title>
<path fill="none" stroke="black" d="M50.0015,-52.642C49.7768,-64.1319 48.6772,-120.355 48.4562,-131.656"/>
</g>
<!-- 2&#45;&#45;4 -->
<g id="edge17" class="edge"><title>2&#45;&#45;4</title>
<path fill="none" stroke="black" d="M51.5901,-52.079C61.2383,-61.362 113.015,-111.179 122.639,-120.438"/>
</g>
<!-- 2&#45;&#45;6 -->
<g id="edge18" class="edge"><title>2&#45;&#45;6</title>
<path fill="none" stroke="black" d="M51.5786,-48.9658C58.5918,-41.5584 87.5216,-11.0026 94.6444,-3.47943"/>
</g>
<!-- 2&#45;&#45;8 -->
<g id="edge19" class="edge"><title>2&#45;&#45;8</title>
<path fill="none" stroke="black" d="M47.9688,-50.9613C40.0335,-52.386 11.6402,-57.4836 3.81146,-58.8891"/>
</g>
<!-- 3&#45;&#45;4 -->
<g id="edge20" class="edge"><title>3&#45;&#45;4</title>
<path fill="none" stroke="black" d="M50.2902,-133.348C60.7719,-131.727 112.061,-123.794 122.371,-122.199"/>
</g>
<!-- 3&#45;&#45;5 -->
<g id="edge21" class="edge"><title>3&#45;&#45;5</title>
<path fill="none" stroke="black" d="M50.0897,-134.618C57.7206,-139.092 89.198,-157.549 96.9481,-162.093"/>
</g>
<!-- 4&#45;&#45;5 -->
<g id="edge22" class="edge"><title>4&#45;&#45;5</title>
<path fill="none" stroke="black" d="M123.083,-123.69C118.888,-130.465 103.88,-154.706 99.7414,-161.39"/>
</g>
<!-- 6&#45;&#45;7 -->
<g id="edge23" class="edge"><title>6&#45;&#45;7</title>
<path fill="none" stroke="black" d="M97.9243,-2.64222C106.328,-6.83049 143.577,-25.3958 152.758,-29.9717"/>
</g>
</g>
</svg>
