<?xml version="1.0" encoding="UTF-8" standalone="no"?>
<!DOCTYPE svg PUBLIC "-//W3C//DTD SVG 1.1//EN"
 "http://www.w3.org/Graphics/SVG/1.1/DTD/svg11.dtd">
<!-- Generated by graphviz version 2.36.0 (20140111.2315)
 -->
<!-- Title: %3 Pages: 1 -->
<svg width="179pt" height="170pt"
 viewBox="0.00 0.00 179.48 169.74" xmlns="http://www.w3.org/2000/svg" xmlns:xlink="http://www.w3.org/1999/xlink">
<g id="graph0" class="graph" transform="scale(1 1) rotate(0) translate(4 165.74)">
<title>%3</title>
<!-- 0 -->
<g id="node1" class="node"><title>0</title>
<ellipse fill="black" stroke="black" cx="82.4632" cy="-65.6922" rx="1.8" ry="1.8"/>
</g>
<!-- 1 -->
<g id="node2" class="node"><title>1</title>
<ellipse fill="black" stroke="black" cx="132.466" cy="-117.803" rx="1.8" ry="1.8"/>
</g>
<!-- 0&#45;&#45;1 -->
<g id="edge1" class="edge"><title>0&#45;&#45;1</title>
<path fill="none" stroke="black" d="M84.1269,-67.426C91.8542,-75.479 124.161,-109.147 131.135,-116.416"/>
</g>
<!-- 2 -->
<g id="node3" class="node"><title>2</title>
<ellipse fill="black" stroke="black" cx="102.897" cy="-99.8161" rx="1.8" ry="1.8"/>
</g>
<!-- 0&#45;&#45;2 -->
<g id="edge2" class="edge"><title>0&#45;&#45;2</title>
<path fill="none" stroke="black" d="M83.5618,-67.5268C87.1429,-73.5072 98.4459,-92.3829 101.891,-98.1356"/>
</g>
<!-- 3 -->
<g id="node4" class="node"><title>3</title>
<ellipse fill="black" stroke="black" cx="40.2702" cy="-118.7" rx="1.8" ry="1.8"/>
</g>
<!-- 0&#45;&#45;3 -->
<g id="edge3" class="edge"><title>0&#45;&#45;3</title>
<path fill="none" stroke="black" d="M81.0593,-67.4559C74.539,-75.6476 47.2785,-109.896 41.3933,-117.289"/>
</g>
<!-- 4 -->
<g id="node5" class="node"><title>4</title>
<ellipse fill="black" stroke="black" cx="84.5613" cy="-159.94" rx="1.8" ry="1.8"/>
</g>
<!-- 0&#45;&#45;4 -->
<g id="edge4" class="edge"><title>0&#45;&#45;4</title>
<path fill="none" stroke="black" d="M82.507,-67.6607C82.78,-79.9261 84.2454,-145.748 84.5177,-157.982"/>
</g>
<!-- 5 -->
<g id="node6" class="node"><title>5</title>
<ellipse fill="black" stroke="black" cx="169.683" cy="-67.595" rx="1.8" ry="1.8"/>
</g>
<!-- 0&#45;&#45;5 -->
<g id="edge5" class="edge"><title>0&#45;&#45;5</title>
<path fill="none" stroke="black" d="M84.2849,-65.7319C95.6357,-65.9796 156.55,-67.3085 167.871,-67.5555"/>
</g>
<!-- 6 -->
<g id="node7" class="node"><title>6</title>
<ellipse fill="black" stroke="black" cx="97.2967" cy="-21.1997" rx="1.8" ry="1.8"/>
</g>
<!-- 0&#45;&#45;6 -->
<g id="edge6" class="edge"><title>0&#45;&#45;6</title>
<path fill="none" stroke="black" d="M83.1005,-63.7804C85.5405,-56.4618 94.271,-30.2751 96.6782,-23.0548"/>
</g>
<!-- 7 -->
<g id="node8" class="node"><title>7</title>
<ellipse fill="black" stroke="black" cx="150.532" cy="-1.8" rx="1.8" ry="1.8"/>
</g>
<!-- 0&#45;&#45;7 -->
<g id="edge7" class="edge"><title>0&#45;&#45;7</title>
<path fill="none" stroke="black" d="M83.8849,-64.3577C92.7434,-56.0427 140.282,-11.4207 149.118,-3.12714"/>
</g>
<!-- 8 -->
<g id="node9" class="node"><title>8</title>
<ellipse fill="black" stroke="black" cx="1.8" cy="-55.9659" rx="1.8" ry="1.8"/>
</g>
<!-- 0&#45;&#45;8 -->
<g id="edge8" class="edge"><title>0&#45;&#45;8</title>
<path fill="none" stroke="black" d="M80.4692,-65.4517C69.3093,-64.1061 14.7014,-57.5215 3.72423,-56.1979"/>
</g>
<!-- 1&#45;&#45;2 -->
<g id="edge9" class="edge"><title>1&#45;&#45;2</title>
<path fill="none" stroke="black" d="M130.877,-116.836C125.79,-113.742 109.94,-104.1 104.642,-100.877"/>
</g>
<!-- 1&#45;&#45;3 -->
<g id="edge10" class="edge"><title>1&#45;&#45;3</title>
<path fill="none" stroke="black" d="M130.541,-117.822C118.542,-117.938 54.1528,-118.565 42.1853,-118.682"/>
</g>
<!-- 1&#45;&#45;4 -->
<g id="edge11" class="edge"><title>1&#45;&#45;4</title>
<path fill="none" stroke="black" d="M130.872,-119.205C123.599,-125.602 93.5972,-151.992 86.2103,-158.49"/>
</g>
<!-- 1&#45;&#45;5 -->
<g id="edge12" class="edge"><title>1&#45;&#45;5</title>
<path fill="none" stroke="black" d="M133.705,-116.132C139.355,-108.51 162.663,-77.0653 168.402,-69.3233"/>
</g>
<!-- 1&#45;&#45;6 -->
<g id="edge13" class="edge"><title>1&#45;&#45;6</title>
<path fill="none" stroke="black" d="M131.732,-115.785C127.115,-103.105 102.167,-34.5786 97.9136,-22.8943"/>
</g>
<!-- 2&#45;&#45;3 -->
<g id="edge14" class="edge"><title>2&#45;&#45;3</title>
<path fill="none" stroke="black" d="M101.09,-100.361C92.1054,-103.07 52.2787,-115.079 42.4624,-118.039"/>
</g>
<!-- 2&#45;&#45;4 -->
<g id="edge15" class="edge"><title>2&#45;&#45;4</title>
<path fill="none" stroke="black" d="M102.368,-101.551C99.7375,-110.176 88.0771,-148.411 85.2031,-157.835"/>
</g>
<!-- 2&#45;&#45;5 -->
<g id="edge16" class="edge"><title>2&#45;&#45;5</title>
<path fill="none" stroke="black" d="M104.548,-99.0197C113.707,-94.6006 158.217,-73.1266 167.844,-68.482"/>
</g>
<!-- 2&#45;&#45;6 -->
<g id="edge17" class="edge"><title>2&#45;&#45;6</title>
<path fill="none" stroke="black" d="M102.759,-97.8728C101.984,-86.9961 98.1924,-33.7737 97.4303,-23.0751"/>
</g>
<!-- 3&#45;&#45;4 -->
<g id="edge18" class="edge"><title>3&#45;&#45;4</title>
<path fill="none" stroke="black" d="M41.7438,-120.073C48.4684,-126.334 76.2071,-152.161 83.0367,-158.52"/>
</g>
<!-- 3&#45;&#45;8 -->
<g id="edge19" class="edge"><title>3&#45;&#45;8</title>
<path fill="none" stroke="black" d="M39.3192,-117.15C34.0431,-108.546 8.40434,-66.7358 2.85898,-57.6928"/>
</g>
<!-- 5&#45;&#45;7 -->
<g id="edge20" class="edge"><title>5&#45;&#45;7</title>
<path fill="none" stroke="black" d="M169.13,-65.6969C166.334,-56.089 153.766,-12.9113 151.05,-3.58115"/>
</g>
</g>
</svg>
