<?xml version="1.0" encoding="UTF-8" standalone="no"?>
<!DOCTYPE svg PUBLIC "-//W3C//DTD SVG 1.1//EN"
 "http://www.w3.org/Graphics/SVG/1.1/DTD/svg11.dtd">
<!-- Generated by graphviz version 2.36.0 (20140111.2315)
 -->
<!-- Title: %3 Pages: 1 -->
<svg width="155pt" height="113pt"
 viewBox="0.00 0.00 155.28 113.49" xmlns="http://www.w3.org/2000/svg" xmlns:xlink="http://www.w3.org/1999/xlink">
<g id="graph0" class="graph" transform="scale(1 1) rotate(0) translate(4 109.493)">
<title>%3</title>
<!-- 0 -->
<g id="node1" class="node"><title>0</title>
<ellipse fill="black" stroke="black" cx="63.6516" cy="-75.481" rx="1.8" ry="1.8"/>
</g>
<!-- 1 -->
<g id="node2" class="node"><title>1</title>
<ellipse fill="black" stroke="black" cx="73.7002" cy="-40.4774" rx="1.8" ry="1.8"/>
</g>
<!-- 0&#45;&#45;1 -->
<g id="edge1" class="edge"><title>0&#45;&#45;1</title>
<path fill="none" stroke="black" d="M64.1918,-73.599C65.9203,-67.5781 71.3068,-48.8148 73.1073,-42.5428"/>
</g>
<!-- 2 -->
<g id="node3" class="node"><title>2</title>
<ellipse fill="black" stroke="black" cx="92.9897" cy="-9.61977" rx="1.8" ry="1.8"/>
</g>
<!-- 0&#45;&#45;2 -->
<g id="edge2" class="edge"><title>0&#45;&#45;2</title>
<path fill="none" stroke="black" d="M64.4979,-73.5809C68.7821,-63.9634 88.0351,-20.7423 92.1955,-11.4027"/>
</g>
<!-- 3 -->
<g id="node4" class="node"><title>3</title>
<ellipse fill="black" stroke="black" cx="18.5639" cy="-97.4601" rx="1.8" ry="1.8"/>
</g>
<!-- 0&#45;&#45;3 -->
<g id="edge3" class="edge"><title>0&#45;&#45;3</title>
<path fill="none" stroke="black" d="M61.7142,-76.4254C54.2977,-80.0407 27.7607,-92.9769 20.4439,-96.5437"/>
</g>
<!-- 4 -->
<g id="node5" class="node"><title>4</title>
<ellipse fill="black" stroke="black" cx="25.5329" cy="-1.8" rx="1.8" ry="1.8"/>
</g>
<!-- 0&#45;&#45;4 -->
<g id="edge4" class="edge"><title>0&#45;&#45;4</title>
<path fill="none" stroke="black" d="M62.7093,-73.6596C57.4355,-63.4657 31.6297,-13.5846 26.4422,-3.55767"/>
</g>
<!-- 5 -->
<g id="node6" class="node"><title>5</title>
<ellipse fill="black" stroke="black" cx="106.518" cy="-103.693" rx="1.8" ry="1.8"/>
</g>
<!-- 0&#45;&#45;5 -->
<g id="edge5" class="edge"><title>0&#45;&#45;5</title>
<path fill="none" stroke="black" d="M65.4935,-76.6932C72.5445,-81.3338 97.7741,-97.9383 104.731,-102.517"/>
</g>
<!-- 6 -->
<g id="node7" class="node"><title>6</title>
<ellipse fill="black" stroke="black" cx="1.8" cy="-40.2684" rx="1.8" ry="1.8"/>
</g>
<!-- 0&#45;&#45;6 -->
<g id="edge6" class="edge"><title>0&#45;&#45;6</title>
<path fill="none" stroke="black" d="M61.8672,-74.4651C52.8351,-69.3231 12.2454,-46.215 3.47439,-41.2216"/>
</g>
<!-- 7 -->
<g id="node8" class="node"><title>7</title>
<ellipse fill="black" stroke="black" cx="145.483" cy="-52.9192" rx="1.8" ry="1.8"/>
</g>
<!-- 0&#45;&#45;7 -->
<g id="edge7" class="edge"><title>0&#45;&#45;7</title>
<path fill="none" stroke="black" d="M65.6744,-74.9233C76.9959,-71.8018 132.395,-56.5278 143.531,-53.4574"/>
</g>
<!-- 1&#45;&#45;3 -->
<g id="edge8" class="edge"><title>1&#45;&#45;3</title>
<path fill="none" stroke="black" d="M72.3373,-41.8859C64.7754,-49.7011 28.0294,-87.6776 20.0817,-95.8915"/>
</g>
<!-- 1&#45;&#45;4 -->
<g id="edge9" class="edge"><title>1&#45;&#45;4</title>
<path fill="none" stroke="black" d="M72.0976,-39.1905C64.7846,-33.3183 34.6183,-9.09534 27.1909,-3.13136"/>
</g>
<!-- 1&#45;&#45;5 -->
<g id="edge10" class="edge"><title>1&#45;&#45;5</title>
<path fill="none" stroke="black" d="M74.647,-42.3011C79.4393,-51.5323 100.976,-93.0172 105.629,-101.982"/>
</g>
<!-- 1&#45;&#45;6 -->
<g id="edge11" class="edge"><title>1&#45;&#45;6</title>
<path fill="none" stroke="black" d="M71.6259,-40.4713C61.1265,-40.4408 13.9424,-40.3037 3.74642,-40.2741"/>
</g>
<!-- 1&#45;&#45;7 -->
<g id="edge12" class="edge"><title>1&#45;&#45;7</title>
<path fill="none" stroke="black" d="M75.4746,-40.7849C85.3195,-42.4913 133.16,-50.7833 143.507,-52.5767"/>
</g>
<!-- 2&#45;&#45;4 -->
<g id="edge13" class="edge"><title>2&#45;&#45;4</title>
<path fill="none" stroke="black" d="M91.0436,-9.39417C81.1931,-8.25227 36.9249,-3.12059 27.3591,-2.01169"/>
</g>
<!-- 2&#45;&#45;5 -->
<g id="edge14" class="edge"><title>2&#45;&#45;5</title>
<path fill="none" stroke="black" d="M93.2723,-11.5846C95.0328,-23.8273 104.481,-89.5276 106.237,-101.739"/>
</g>
<!-- 2&#45;&#45;6 -->
<g id="edge15" class="edge"><title>2&#45;&#45;6</title>
<path fill="none" stroke="black" d="M91.0851,-10.2599C79.2176,-14.2485 15.5311,-35.6534 3.69415,-39.6318"/>
</g>
<!-- 2&#45;&#45;7 -->
<g id="edge16" class="edge"><title>2&#45;&#45;7</title>
<path fill="none" stroke="black" d="M94.7362,-11.0604C102.848,-17.7518 136.764,-45.7271 144.085,-51.7666"/>
</g>
<!-- 3&#45;&#45;4 -->
<g id="edge17" class="edge"><title>3&#45;&#45;4</title>
<path fill="none" stroke="black" d="M18.7095,-95.4621C19.6164,-83.0128 24.4835,-16.2042 25.3882,-3.787"/>
</g>
<!-- 3&#45;&#45;5 -->
<g id="edge18" class="edge"><title>3&#45;&#45;5</title>
<path fill="none" stroke="black" d="M20.401,-97.5903C31.8473,-98.4014 93.274,-102.754 104.691,-103.563"/>
</g>
<!-- 3&#45;&#45;6 -->
<g id="edge19" class="edge"><title>3&#45;&#45;6</title>
<path fill="none" stroke="black" d="M18.0062,-95.5572C15.461,-86.874 4.96202,-51.0559 2.37705,-42.2371"/>
</g>
<!-- 4&#45;&#45;6 -->
<g id="edge20" class="edge"><title>4&#45;&#45;6</title>
<path fill="none" stroke="black" d="M24.5131,-3.45294C20.6093,-9.7806 6.64096,-32.4217 2.78956,-38.6644"/>
</g>
<!-- 5&#45;&#45;7 -->
<g id="edge21" class="edge"><title>5&#45;&#45;7</title>
<path fill="none" stroke="black" d="M107.814,-102.004C113.73,-94.2948 138.133,-62.4962 144.142,-54.667"/>
</g>
</g>
</svg>
