<?xml version="1.0" encoding="UTF-8" standalone="no"?>
<!DOCTYPE svg PUBLIC "-//W3C//DTD SVG 1.1//EN"
 "http://www.w3.org/Graphics/SVG/1.1/DTD/svg11.dtd">
<!-- Generated by graphviz version 2.36.0 (20140111.2315)
 -->
<!-- Title: %3 Pages: 1 -->
<svg width="156pt" height="143pt"
 viewBox="0.00 0.00 156.21 143.21" xmlns="http://www.w3.org/2000/svg" xmlns:xlink="http://www.w3.org/1999/xlink">
<g id="graph0" class="graph" transform="scale(1 1) rotate(0) translate(4 139.211)">
<title>%3</title>
<!-- 0 -->
<g id="node1" class="node"><title>0</title>
<ellipse fill="black" stroke="black" cx="64.5468" cy="-83.2209" rx="1.8" ry="1.8"/>
</g>
<!-- 1 -->
<g id="node2" class="node"><title>1</title>
<ellipse fill="black" stroke="black" cx="109.998" cy="-69.8889" rx="1.8" ry="1.8"/>
</g>
<!-- 0&#45;&#45;1 -->
<g id="edge1" class="edge"><title>0&#45;&#45;1</title>
<path fill="none" stroke="black" d="M66.4998,-82.6481C73.976,-80.4551 100.727,-72.6083 108.103,-70.4448"/>
</g>
<!-- 3 -->
<g id="node3" class="node"><title>3</title>
<ellipse fill="black" stroke="black" cx="110.706" cy="-1.8" rx="1.8" ry="1.8"/>
</g>
<!-- 0&#45;&#45;3 -->
<g id="edge2" class="edge"><title>0&#45;&#45;3</title>
<path fill="none" stroke="black" d="M65.5109,-81.5203C71.5181,-70.9242 103.756,-14.0601 109.747,-3.49123"/>
</g>
<!-- 4 -->
<g id="node4" class="node"><title>4</title>
<ellipse fill="black" stroke="black" cx="70.6087" cy="-133.411" rx="1.8" ry="1.8"/>
</g>
<!-- 0&#45;&#45;4 -->
<g id="edge3" class="edge"><title>0&#45;&#45;4</title>
<path fill="none" stroke="black" d="M64.8073,-85.3775C65.8044,-93.6332 69.3722,-123.173 70.356,-131.318"/>
</g>
<!-- 6 -->
<g id="node5" class="node"><title>6</title>
<ellipse fill="black" stroke="black" cx="1.8" cy="-85.8615" rx="1.8" ry="1.8"/>
</g>
<!-- 0&#45;&#45;6 -->
<g id="edge4" class="edge"><title>0&#45;&#45;6</title>
<path fill="none" stroke="black" d="M62.7366,-83.2971C53.7346,-83.6759 13.8315,-85.3552 3.9964,-85.7691"/>
</g>
<!-- 7 -->
<g id="node6" class="node"><title>7</title>
<ellipse fill="black" stroke="black" cx="146.409" cy="-127.269" rx="1.8" ry="1.8"/>
</g>
<!-- 0&#45;&#45;7 -->
<g id="edge5" class="edge"><title>0&#45;&#45;7</title>
<path fill="none" stroke="black" d="M66.2566,-84.1409C76.9102,-89.8734 134.082,-120.637 144.709,-126.354"/>
</g>
<!-- 1&#45;&#45;3 -->
<g id="edge6" class="edge"><title>1&#45;&#45;3</title>
<path fill="none" stroke="black" d="M110.018,-67.9245C110.122,-57.9817 110.587,-13.2987 110.687,-3.64325"/>
</g>
<!-- 1&#45;&#45;4 -->
<g id="edge7" class="edge"><title>1&#45;&#45;4</title>
<path fill="none" stroke="black" d="M109.024,-71.4591C103.622,-80.171 77.3708,-122.506 71.693,-131.662"/>
</g>
<!-- 1&#45;&#45;7 -->
<g id="edge9" class="edge"><title>1&#45;&#45;7</title>
<path fill="none" stroke="black" d="M111.209,-71.798C116.836,-80.6654 140.361,-117.738 145.44,-125.742"/>
</g>
<!-- 5 -->
<g id="node7" class="node"><title>5</title>
<ellipse fill="black" stroke="black" cx="54.4472" cy="-19.0355" rx="1.8" ry="1.8"/>
</g>
<!-- 1&#45;&#45;5 -->
<g id="edge8" class="edge"><title>1&#45;&#45;5</title>
<path fill="none" stroke="black" d="M108.625,-68.6318C101.006,-61.6573 63.9838,-27.7657 55.9764,-20.4353"/>
</g>
<!-- 3&#45;&#45;5 -->
<g id="edge14" class="edge"><title>3&#45;&#45;5</title>
<path fill="none" stroke="black" d="M108.834,-2.37345C100.293,-4.99024 65.0588,-15.7845 56.3838,-18.4422"/>
</g>
<!-- 4&#45;&#45;6 -->
<g id="edge15" class="edge"><title>4&#45;&#45;6</title>
<path fill="none" stroke="black" d="M68.9078,-132.235C59.4708,-125.714 13.6127,-94.0244 3.69411,-87.1704"/>
</g>
<!-- 5&#45;&#45;6 -->
<g id="edge16" class="edge"><title>5&#45;&#45;6</title>
<path fill="none" stroke="black" d="M53.1458,-20.6874C45.9253,-29.8525 10.8382,-74.3892 3.24923,-84.0219"/>
</g>
<!-- 2 -->
<g id="node8" class="node"><title>2</title>
<ellipse fill="black" stroke="black" cx="142.524" cy="-59.7409" rx="1.8" ry="1.8"/>
</g>
<!-- 2&#45;&#45;3 -->
<g id="edge10" class="edge"><title>2&#45;&#45;3</title>
<path fill="none" stroke="black" d="M141.465,-57.8131C136.635,-49.0161 116.708,-12.7288 111.801,-3.79446"/>
</g>
<!-- 2&#45;&#45;4 -->
<g id="edge11" class="edge"><title>2&#45;&#45;4</title>
<path fill="none" stroke="black" d="M141.022,-61.2796C131.663,-70.867 81.4375,-122.318 72.1025,-131.88"/>
</g>
<!-- 2&#45;&#45;7 -->
<g id="edge13" class="edge"><title>2&#45;&#45;7</title>
<path fill="none" stroke="black" d="M142.636,-61.689C143.203,-71.55 145.753,-115.865 146.304,-125.441"/>
</g>
<!-- 2&#45;&#45;5 -->
<g id="edge12" class="edge"><title>2&#45;&#45;5</title>
<path fill="none" stroke="black" d="M140.685,-58.8907C129.222,-53.5933 67.7096,-25.1648 56.2767,-19.881"/>
</g>
</g>
</svg>
