<?xml version="1.0" encoding="UTF-8" standalone="no"?>
<!DOCTYPE svg PUBLIC "-//W3C//DTD SVG 1.1//EN"
 "http://www.w3.org/Graphics/SVG/1.1/DTD/svg11.dtd">
<!-- Generated by graphviz version 2.36.0 (20140111.2315)
 -->
<!-- Title: %3 Pages: 1 -->
<svg width="209pt" height="114pt"
 viewBox="0.00 0.00 209.40 113.98" xmlns="http://www.w3.org/2000/svg" xmlns:xlink="http://www.w3.org/1999/xlink">
<g id="graph0" class="graph" transform="scale(1 1) rotate(0) translate(4 109.981)">
<title>%3</title>
<!-- 0 -->
<g id="node1" class="node"><title>0</title>
<ellipse fill="black" stroke="black" cx="66.263" cy="-73.9153" rx="1.8" ry="1.8"/>
</g>
<!-- 1 -->
<g id="node2" class="node"><title>1</title>
<ellipse fill="black" stroke="black" cx="129.117" cy="-26.9998" rx="1.8" ry="1.8"/>
</g>
<!-- 0&#45;&#45;1 -->
<g id="edge1" class="edge"><title>0&#45;&#45;1</title>
<path fill="none" stroke="black" d="M67.8167,-72.7555C76.437,-66.3211 118.326,-35.054 127.387,-28.2912"/>
</g>
<!-- 2 -->
<g id="node3" class="node"><title>2</title>
<ellipse fill="black" stroke="black" cx="56.8771" cy="-33.473" rx="1.8" ry="1.8"/>
</g>
<!-- 0&#45;&#45;2 -->
<g id="edge2" class="edge"><title>0&#45;&#45;2</title>
<path fill="none" stroke="black" d="M65.7583,-71.7409C64.1134,-64.6532 58.9216,-42.2825 57.3394,-35.4648"/>
</g>
<!-- 3 -->
<g id="node4" class="node"><title>3</title>
<ellipse fill="black" stroke="black" cx="151.126" cy="-69.9921" rx="1.8" ry="1.8"/>
</g>
<!-- 0&#45;&#45;3 -->
<g id="edge3" class="edge"><title>0&#45;&#45;3</title>
<path fill="none" stroke="black" d="M68.3607,-73.8183C80.1017,-73.2755 137.553,-70.6196 149.102,-70.0857"/>
</g>
<!-- 4 -->
<g id="node5" class="node"><title>4</title>
<ellipse fill="black" stroke="black" cx="116.279" cy="-104.181" rx="1.8" ry="1.8"/>
</g>
<!-- 0&#45;&#45;4 -->
<g id="edge4" class="edge"><title>0&#45;&#45;4</title>
<path fill="none" stroke="black" d="M67.9271,-74.9223C75.5208,-79.5174 106.845,-98.4723 114.557,-103.139"/>
</g>
<!-- 7 -->
<g id="node6" class="node"><title>7</title>
<ellipse fill="black" stroke="black" cx="1.8" cy="-100.218" rx="1.8" ry="1.8"/>
</g>
<!-- 0&#45;&#45;7 -->
<g id="edge5" class="edge"><title>0&#45;&#45;7</title>
<path fill="none" stroke="black" d="M64.4032,-74.6741C54.9899,-78.515 12.6864,-95.7761 3.54509,-99.506"/>
</g>
<!-- 8 -->
<g id="node7" class="node"><title>8</title>
<ellipse fill="black" stroke="black" cx="6.68932" cy="-1.8" rx="1.8" ry="1.8"/>
</g>
<!-- 0&#45;&#45;8 -->
<g id="edge6" class="edge"><title>0&#45;&#45;8</title>
<path fill="none" stroke="black" d="M65.0187,-72.409C57.2657,-63.0239 15.6597,-12.6589 7.92675,-3.29794"/>
</g>
<!-- 1&#45;&#45;2 -->
<g id="edge7" class="edge"><title>1&#45;&#45;2</title>
<path fill="none" stroke="black" d="M127.033,-27.1865C116.484,-28.1318 69.0768,-32.3798 58.8327,-33.2978"/>
</g>
<!-- 1&#45;&#45;3 -->
<g id="edge8" class="edge"><title>1&#45;&#45;3</title>
<path fill="none" stroke="black" d="M130.063,-28.8471C133.683,-35.9189 146.637,-61.2227 150.208,-68.1995"/>
</g>
<!-- 1&#45;&#45;4 -->
<g id="edge9" class="edge"><title>1&#45;&#45;4</title>
<path fill="none" stroke="black" d="M128.8,-28.9076C127.023,-39.5858 118.332,-91.8366 116.585,-102.34"/>
</g>
<!-- 5 -->
<g id="node8" class="node"><title>5</title>
<ellipse fill="black" stroke="black" cx="199.306" cy="-79.9579" rx="1.8" ry="1.8"/>
</g>
<!-- 1&#45;&#45;5 -->
<g id="edge10" class="edge"><title>1&#45;&#45;5</title>
<path fill="none" stroke="black" d="M130.583,-28.1059C139.717,-34.9979 188.737,-71.9836 197.848,-78.8578"/>
</g>
<!-- 6 -->
<g id="node9" class="node"><title>6</title>
<ellipse fill="black" stroke="black" cx="199.598" cy="-9.52204" rx="1.8" ry="1.8"/>
</g>
<!-- 1&#45;&#45;6 -->
<g id="edge11" class="edge"><title>1&#45;&#45;6</title>
<path fill="none" stroke="black" d="M131.15,-26.4955C141.442,-23.9433 187.696,-12.4736 197.69,-9.99518"/>
</g>
<!-- 2&#45;&#45;4 -->
<g id="edge12" class="edge"><title>2&#45;&#45;4</title>
<path fill="none" stroke="black" d="M58.1178,-34.9498C65.8484,-44.1518 107.334,-93.534 115.045,-102.712"/>
</g>
<!-- 2&#45;&#45;7 -->
<g id="edge13" class="edge"><title>2&#45;&#45;7</title>
<path fill="none" stroke="black" d="M55.5157,-35.1229C47.9619,-44.2769 11.2553,-88.7597 3.31612,-98.3807"/>
</g>
<!-- 2&#45;&#45;8 -->
<g id="edge14" class="edge"><title>2&#45;&#45;8</title>
<path fill="none" stroke="black" d="M55.2073,-32.4192C47.5875,-27.6104 16.1558,-7.77418 8.4169,-2.89026"/>
</g>
<!-- 3&#45;&#45;4 -->
<g id="edge15" class="edge"><title>3&#45;&#45;4</title>
<path fill="none" stroke="black" d="M149.629,-71.4612C143.897,-77.0849 123.387,-97.2073 117.732,-102.756"/>
</g>
<!-- 3&#45;&#45;5 -->
<g id="edge16" class="edge"><title>3&#45;&#45;5</title>
<path fill="none" stroke="black" d="M153.196,-70.4203C161.121,-72.0596 189.478,-77.9251 197.297,-79.5423"/>
</g>
<!-- 3&#45;&#45;6 -->
<g id="edge17" class="edge"><title>3&#45;&#45;6</title>
<path fill="none" stroke="black" d="M152.324,-68.4973C158.972,-60.2039 191.277,-19.9032 198.264,-11.1866"/>
</g>
<!-- 4&#45;&#45;5 -->
<g id="edge18" class="edge"><title>4&#45;&#45;5</title>
<path fill="none" stroke="black" d="M118.013,-103.675C128.725,-100.55 185.808,-83.896 197.292,-80.5454"/>
</g>
<!-- 5&#45;&#45;6 -->
<g id="edge19" class="edge"><title>5&#45;&#45;6</title>
<path fill="none" stroke="black" d="M199.315,-77.9258C199.357,-67.6403 199.549,-21.4171 199.591,-11.4288"/>
</g>
</g>
</svg>
