<?xml version="1.0" encoding="UTF-8" standalone="no"?>
<!DOCTYPE svg PUBLIC "-//W3C//DTD SVG 1.1//EN"
 "http://www.w3.org/Graphics/SVG/1.1/DTD/svg11.dtd">
<!-- Generated by graphviz version 2.36.0 (20140111.2315)
 -->
<!-- Title: %3 Pages: 1 -->
<svg width="93pt" height="154pt"
 viewBox="0.00 0.00 93.11 153.76" xmlns="http://www.w3.org/2000/svg" xmlns:xlink="http://www.w3.org/1999/xlink">
<g id="graph0" class="graph" transform="scale(1 1) rotate(0) translate(4 149.755)">
<title>%3</title>
<!-- 0 -->
<g id="node1" class="node"><title>0</title>
<ellipse fill="black" stroke="black" cx="12.2806" cy="-66.7548" rx="1.8" ry="1.8"/>
</g>
<!-- 1 -->
<g id="node2" class="node"><title>1</title>
<ellipse fill="black" stroke="black" cx="82.7823" cy="-73.0834" rx="1.8" ry="1.8"/>
</g>
<!-- 0&#45;&#45;1 -->
<g id="edge1" class="edge"><title>0&#45;&#45;1</title>
<path fill="none" stroke="black" d="M14.3146,-66.9374C24.6097,-67.8615 70.8761,-72.0146 80.8737,-72.9121"/>
</g>
<!-- 2 -->
<g id="node3" class="node"><title>2</title>
<ellipse fill="black" stroke="black" cx="47.7559" cy="-67.7039" rx="1.8" ry="1.8"/>
</g>
<!-- 0&#45;&#45;2 -->
<g id="edge2" class="edge"><title>0&#45;&#45;2</title>
<path fill="none" stroke="black" d="M14.1879,-66.8058C20.29,-66.9691 39.3061,-67.4778 45.6626,-67.6479"/>
</g>
<!-- 3 -->
<g id="node4" class="node"><title>3</title>
<ellipse fill="black" stroke="black" cx="40.7967" cy="-143.955" rx="1.8" ry="1.8"/>
</g>
<!-- 0&#45;&#45;3 -->
<g id="edge3" class="edge"><title>0&#45;&#45;3</title>
<path fill="none" stroke="black" d="M12.9855,-68.6631C16.9308,-79.3439 36.2358,-131.608 40.1165,-142.113"/>
</g>
<!-- 4 -->
<g id="node5" class="node"><title>4</title>
<ellipse fill="black" stroke="black" cx="83.3123" cy="-128.503" rx="1.8" ry="1.8"/>
</g>
<!-- 0&#45;&#45;4 -->
<g id="edge4" class="edge"><title>0&#45;&#45;4</title>
<path fill="none" stroke="black" d="M13.7642,-68.0445C23.0083,-76.0805 72.6166,-119.205 81.8369,-127.221"/>
</g>
<!-- 5 -->
<g id="node6" class="node"><title>5</title>
<ellipse fill="black" stroke="black" cx="1.8" cy="-121.077" rx="1.8" ry="1.8"/>
</g>
<!-- 0&#45;&#45;5 -->
<g id="edge5" class="edge"><title>0&#45;&#45;5</title>
<path fill="none" stroke="black" d="M11.9319,-68.5622C10.3407,-76.8097 3.77686,-110.83 2.16077,-119.207"/>
</g>
<!-- 6 -->
<g id="node7" class="node"><title>6</title>
<ellipse fill="black" stroke="black" cx="24.2266" cy="-1.8" rx="1.8" ry="1.8"/>
</g>
<!-- 0&#45;&#45;6 -->
<g id="edge6" class="edge"><title>0&#45;&#45;6</title>
<path fill="none" stroke="black" d="M12.6253,-64.8809C14.3391,-55.5621 21.936,-14.2549 23.8085,-4.07369"/>
</g>
<!-- 7 -->
<g id="node8" class="node"><title>7</title>
<ellipse fill="black" stroke="black" cx="82.3301" cy="-6.89474" rx="1.8" ry="1.8"/>
</g>
<!-- 0&#45;&#45;7 -->
<g id="edge7" class="edge"><title>0&#45;&#45;7</title>
<path fill="none" stroke="black" d="M13.7437,-65.5045C22.86,-57.7143 71.7823,-15.9083 80.8751,-8.13812"/>
</g>
<!-- 1&#45;&#45;2 -->
<g id="edge8" class="edge"><title>1&#45;&#45;2</title>
<path fill="none" stroke="black" d="M80.8991,-72.7942C74.8742,-71.8688 56.0987,-68.9852 49.8226,-68.0213"/>
</g>
<!-- 1&#45;&#45;3 -->
<g id="edge9" class="edge"><title>1&#45;&#45;3</title>
<path fill="none" stroke="black" d="M81.7444,-74.8353C75.9356,-84.6405 47.512,-132.62 41.7983,-142.264"/>
</g>
<!-- 1&#45;&#45;4 -->
<g id="edge10" class="edge"><title>1&#45;&#45;4</title>
<path fill="none" stroke="black" d="M82.7999,-74.9273C82.8804,-83.3415 83.2123,-118.05 83.2941,-126.596"/>
</g>
<!-- 1&#45;&#45;5 -->
<g id="edge11" class="edge"><title>1&#45;&#45;5</title>
<path fill="none" stroke="black" d="M81.0908,-74.0858C70.5518,-80.3317 13.9941,-113.85 3.48212,-120.08"/>
</g>
<!-- 1&#45;&#45;6 -->
<g id="edge12" class="edge"><title>1&#45;&#45;6</title>
<path fill="none" stroke="black" d="M81.5592,-71.5945C73.9388,-62.3177 33.0438,-12.5336 25.4429,-3.28066"/>
</g>
<!-- 1&#45;&#45;7 -->
<g id="edge13" class="edge"><title>1&#45;&#45;7</title>
<path fill="none" stroke="black" d="M82.7692,-71.1739C82.7043,-61.6781 82.4168,-19.5862 82.3459,-9.21162"/>
</g>
<!-- 2&#45;&#45;3 -->
<g id="edge14" class="edge"><title>2&#45;&#45;3</title>
<path fill="none" stroke="black" d="M47.5838,-69.5888C46.621,-80.1383 41.9098,-131.759 40.9628,-142.136"/>
</g>
<!-- 2&#45;&#45;4 -->
<g id="edge15" class="edge"><title>2&#45;&#45;4</title>
<path fill="none" stroke="black" d="M48.7817,-69.458C53.9739,-78.3363 77.3076,-118.236 82.3498,-126.857"/>
</g>
<!-- 2&#45;&#45;5 -->
<g id="edge16" class="edge"><title>2&#45;&#45;5</title>
<path fill="none" stroke="black" d="M46.2268,-69.4797C39.1249,-77.7278 9.43336,-112.211 3.02328,-119.656"/>
</g>
<!-- 2&#45;&#45;6 -->
<g id="edge17" class="edge"><title>2&#45;&#45;6</title>
<path fill="none" stroke="black" d="M47.0771,-65.8026C43.6411,-56.1788 28.2002,-12.9297 24.8636,-3.5841"/>
</g>
<!-- 2&#45;&#45;7 -->
<g id="edge18" class="edge"><title>2&#45;&#45;7</title>
<path fill="none" stroke="black" d="M48.7533,-65.9496C53.8021,-57.0698 76.4913,-17.1641 81.3942,-8.54091"/>
</g>
<!-- 3&#45;&#45;4 -->
<g id="edge19" class="edge"><title>3&#45;&#45;4</title>
<path fill="none" stroke="black" d="M42.6236,-143.291C49.617,-140.75 74.6401,-131.655 81.5396,-129.148"/>
</g>
<!-- 3&#45;&#45;5 -->
<g id="edge20" class="edge"><title>3&#45;&#45;5</title>
<path fill="none" stroke="black" d="M39.1211,-142.972C32.7065,-139.209 9.75443,-125.743 3.42599,-122.031"/>
</g>
<!-- 4&#45;&#45;5 -->
<g id="edge21" class="edge"><title>4&#45;&#45;5</title>
<path fill="none" stroke="black" d="M81.2974,-128.32C70.02,-127.292 14.8372,-122.265 3.74449,-121.254"/>
</g>
<!-- 6&#45;&#45;7 -->
<g id="edge22" class="edge"><title>6&#45;&#45;7</title>
<path fill="none" stroke="black" d="M26.1599,-1.96951C34.9815,-2.74302 71.3706,-5.93377 80.3301,-6.71937"/>
</g>
</g>
</svg>
