<?xml version="1.0" encoding="UTF-8" standalone="no"?>
<!DOCTYPE svg PUBLIC "-//W3C//DTD SVG 1.1//EN"
 "http://www.w3.org/Graphics/SVG/1.1/DTD/svg11.dtd">
<!-- Generated by graphviz version 2.36.0 (20140111.2315)
 -->
<!-- Title: %3 Pages: 1 -->
<svg width="187pt" height="149pt"
 viewBox="0.00 0.00 186.73 149.36" xmlns="http://www.w3.org/2000/svg" xmlns:xlink="http://www.w3.org/1999/xlink">
<g id="graph0" class="graph" transform="scale(1 1) rotate(0) translate(4 145.36)">
<title>%3</title>
<!-- 0 -->
<g id="node1" class="node"><title>0</title>
<ellipse fill="black" stroke="black" cx="103.602" cy="-75.053" rx="1.8" ry="1.8"/>
</g>
<!-- 1 -->
<g id="node2" class="node"><title>1</title>
<ellipse fill="black" stroke="black" cx="66.5247" cy="-74.4591" rx="1.8" ry="1.8"/>
</g>
<!-- 0&#45;&#45;1 -->
<g id="edge1" class="edge"><title>0&#45;&#45;1</title>
<path fill="none" stroke="black" d="M101.609,-75.0211C95.1106,-74.917 74.6012,-74.5885 68.3507,-74.4884"/>
</g>
<!-- 2 -->
<g id="node3" class="node"><title>2</title>
<ellipse fill="black" stroke="black" cx="48.8527" cy="-34.8043" rx="1.8" ry="1.8"/>
</g>
<!-- 0&#45;&#45;2 -->
<g id="edge2" class="edge"><title>0&#45;&#45;2</title>
<path fill="none" stroke="black" d="M101.78,-73.7139C93.3196,-67.494 57.9466,-41.4897 50.31,-35.8757"/>
</g>
<!-- 3 -->
<g id="node4" class="node"><title>3</title>
<ellipse fill="black" stroke="black" cx="28.3486" cy="-111.791" rx="1.8" ry="1.8"/>
</g>
<!-- 0&#45;&#45;3 -->
<g id="edge3" class="edge"><title>0&#45;&#45;3</title>
<path fill="none" stroke="black" d="M101.742,-75.9612C91.3304,-81.044 40.3847,-105.915 30.1438,-110.915"/>
</g>
<!-- 4 -->
<g id="node5" class="node"><title>4</title>
<ellipse fill="black" stroke="black" cx="115.257" cy="-139.56" rx="1.8" ry="1.8"/>
</g>
<!-- 0&#45;&#45;4 -->
<g id="edge4" class="edge"><title>0&#45;&#45;4</title>
<path fill="none" stroke="black" d="M103.938,-76.914C105.61,-86.1686 113.022,-127.191 114.849,-137.302"/>
</g>
<!-- 5 -->
<g id="node6" class="node"><title>5</title>
<ellipse fill="black" stroke="black" cx="62.9597" cy="-138.32" rx="1.8" ry="1.8"/>
</g>
<!-- 0&#45;&#45;5 -->
<g id="edge5" class="edge"><title>0&#45;&#45;5</title>
<path fill="none" stroke="black" d="M102.597,-76.6169C97.0233,-85.2939 69.9369,-127.458 64.0784,-136.578"/>
</g>
<!-- 6 -->
<g id="node7" class="node"><title>6</title>
<ellipse fill="black" stroke="black" cx="1.8" cy="-56.4618" rx="1.8" ry="1.8"/>
</g>
<!-- 0&#45;&#45;6 -->
<g id="edge6" class="edge"><title>0&#45;&#45;6</title>
<path fill="none" stroke="black" d="M101.476,-74.6647C88.113,-72.2244 15.8989,-59.0366 3.58581,-56.7879"/>
</g>
<!-- 7 -->
<g id="node8" class="node"><title>7</title>
<ellipse fill="black" stroke="black" cx="109.021" cy="-1.8" rx="1.8" ry="1.8"/>
</g>
<!-- 0&#45;&#45;7 -->
<g id="edge7" class="edge"><title>0&#45;&#45;7</title>
<path fill="none" stroke="black" d="M103.736,-73.2423C104.479,-63.1957 108.09,-14.3757 108.871,-3.81645"/>
</g>
<!-- 8 -->
<g id="node9" class="node"><title>8</title>
<ellipse fill="black" stroke="black" cx="176.93" cy="-102.922" rx="1.8" ry="1.8"/>
</g>
<!-- 0&#45;&#45;8 -->
<g id="edge8" class="edge"><title>0&#45;&#45;8</title>
<path fill="none" stroke="black" d="M105.415,-75.7419C115.56,-79.5976 165.202,-98.4643 175.18,-102.257"/>
</g>
<!-- 1&#45;&#45;2 -->
<g id="edge9" class="edge"><title>1&#45;&#45;2</title>
<path fill="none" stroke="black" d="M65.7653,-72.7552C62.8585,-66.2324 52.4573,-42.893 49.5895,-36.4577"/>
</g>
<!-- 1&#45;&#45;3 -->
<g id="edge10" class="edge"><title>1&#45;&#45;3</title>
<path fill="none" stroke="black" d="M64.8843,-76.0632C58.6047,-82.204 36.1356,-104.176 29.9404,-110.235"/>
</g>
<!-- 1&#45;&#45;4 -->
<g id="edge11" class="edge"><title>1&#45;&#45;4</title>
<path fill="none" stroke="black" d="M67.7293,-76.0684C74.4129,-84.9969 106.891,-128.384 113.915,-137.768"/>
</g>
<!-- 1&#45;&#45;5 -->
<g id="edge12" class="edge"><title>1&#45;&#45;5</title>
<path fill="none" stroke="black" d="M66.4218,-76.3015C65.9104,-85.4633 63.6432,-126.075 63.0845,-136.084"/>
</g>
<!-- 1&#45;&#45;6 -->
<g id="edge13" class="edge"><title>1&#45;&#45;6</title>
<path fill="none" stroke="black" d="M64.6574,-73.9399C55.2058,-71.3118 12.7306,-59.5012 3.55217,-56.949"/>
</g>
<!-- 1&#45;&#45;7 -->
<g id="edge14" class="edge"><title>1&#45;&#45;7</title>
<path fill="none" stroke="black" d="M67.5752,-72.6631C73.4545,-62.6105 102.224,-13.4212 108.007,-3.5333"/>
</g>
<!-- 2&#45;&#45;3 -->
<g id="edge15" class="edge"><title>2&#45;&#45;3</title>
<path fill="none" stroke="black" d="M48.3458,-36.7074C45.509,-47.3586 31.628,-99.4777 28.8377,-109.955"/>
</g>
<!-- 2&#45;&#45;5 -->
<g id="edge16" class="edge"><title>2&#45;&#45;5</title>
<path fill="none" stroke="black" d="M49.0975,-36.601C50.8098,-49.1655 60.9738,-123.747 62.7081,-136.473"/>
</g>
<!-- 2&#45;&#45;6 -->
<g id="edge17" class="edge"><title>2&#45;&#45;6</title>
<path fill="none" stroke="black" d="M46.8309,-35.7349C39.0912,-39.2973 11.3976,-52.0442 3.76189,-55.5588"/>
</g>
<!-- 2&#45;&#45;7 -->
<g id="edge18" class="edge"><title>2&#45;&#45;7</title>
<path fill="none" stroke="black" d="M50.5885,-33.8521C59.3746,-29.0326 98.8595,-7.3737 107.392,-2.69347"/>
</g>
<!-- 3&#45;&#45;4 -->
<g id="edge19" class="edge"><title>3&#45;&#45;4</title>
<path fill="none" stroke="black" d="M30.1638,-112.371C41.4741,-115.985 102.17,-135.379 113.452,-138.983"/>
</g>
<!-- 3&#45;&#45;5 -->
<g id="edge20" class="edge"><title>3&#45;&#45;5</title>
<path fill="none" stroke="black" d="M29.8358,-112.931C35.529,-117.295 55.8998,-132.908 61.5165,-137.214"/>
</g>
<!-- 3&#45;&#45;6 -->
<g id="edge21" class="edge"><title>3&#45;&#45;6</title>
<path fill="none" stroke="black" d="M27.4653,-109.95C23.4345,-101.55 6.80761,-66.898 2.71386,-58.3664"/>
</g>
<!-- 4&#45;&#45;5 -->
<g id="edge22" class="edge"><title>4&#45;&#45;5</title>
<path fill="none" stroke="black" d="M113.01,-139.507C104.407,-139.303 73.627,-138.573 65.1402,-138.371"/>
</g>
<!-- 4&#45;&#45;8 -->
<g id="edge23" class="edge"><title>4&#45;&#45;8</title>
<path fill="none" stroke="black" d="M117.036,-138.503C126.042,-133.153 166.515,-109.109 175.26,-103.913"/>
</g>
</g>
</svg>
