<?xml version="1.0" encoding="UTF-8" standalone="no"?>
<!DOCTYPE svg PUBLIC "-//W3C//DTD SVG 1.1//EN"
 "http://www.w3.org/Graphics/SVG/1.1/DTD/svg11.dtd">
<!-- Generated by graphviz version 2.36.0 (20140111.2315)
 -->
<!-- Title: %3 Pages: 1 -->
<svg width="152pt" height="228pt"
 viewBox="0.00 0.00 151.88 227.54" xmlns="http://www.w3.org/2000/svg" xmlns:xlink="http://www.w3.org/1999/xlink">
<g id="graph0" class="graph" transform="scale(1 1) rotate(0) translate(4 223.541)">
<title>%3</title>
<!-- 0 -->
<g id="node1" class="node"><title>0</title>
<ellipse fill="black" stroke="black" cx="65.6279" cy="-154.313" rx="1.8" ry="1.8"/>
</g>
<!-- 1 -->
<g id="node2" class="node"><title>1</title>
<ellipse fill="black" stroke="black" cx="82.5804" cy="-125.532" rx="1.8" ry="1.8"/>
</g>
<!-- 0&#45;&#45;1 -->
<g id="edge1" class="edge"><title>0&#45;&#45;1</title>
<path fill="none" stroke="black" d="M66.7402,-152.425C69.8635,-147.122 78.6769,-132.159 81.6143,-127.173"/>
</g>
<!-- 2 -->
<g id="node3" class="node"><title>2</title>
<ellipse fill="black" stroke="black" cx="52.7711" cy="-76.4107" rx="1.8" ry="1.8"/>
</g>
<!-- 0&#45;&#45;2 -->
<g id="edge2" class="edge"><title>0&#45;&#45;2</title>
<path fill="none" stroke="black" d="M65.3101,-152.388C63.5314,-141.61 54.8274,-88.8706 53.0778,-78.2691"/>
</g>
<!-- 3 -->
<g id="node4" class="node"><title>3</title>
<ellipse fill="black" stroke="black" cx="55.3017" cy="-217.741" rx="1.8" ry="1.8"/>
</g>
<!-- 0&#45;&#45;3 -->
<g id="edge3" class="edge"><title>0&#45;&#45;3</title>
<path fill="none" stroke="black" d="M65.33,-156.143C63.8486,-165.243 57.2817,-205.579 55.6631,-215.521"/>
</g>
<!-- 4 -->
<g id="node5" class="node"><title>4</title>
<ellipse fill="black" stroke="black" cx="94.9153" cy="-201.273" rx="1.8" ry="1.8"/>
</g>
<!-- 0&#45;&#45;4 -->
<g id="edge4" class="edge"><title>0&#45;&#45;4</title>
<path fill="none" stroke="black" d="M66.6024,-155.876C71.049,-163.005 89.3911,-192.415 93.9071,-199.656"/>
</g>
<!-- 5 -->
<g id="node6" class="node"><title>5</title>
<ellipse fill="black" stroke="black" cx="17.8532" cy="-161.74" rx="1.8" ry="1.8"/>
</g>
<!-- 0&#45;&#45;5 -->
<g id="edge5" class="edge"><title>0&#45;&#45;5</title>
<path fill="none" stroke="black" d="M63.5751,-154.632C55.7167,-155.854 27.5981,-160.225 19.8452,-161.43"/>
</g>
<!-- 6 -->
<g id="node7" class="node"><title>6</title>
<ellipse fill="black" stroke="black" cx="1.8" cy="-102.064" rx="1.8" ry="1.8"/>
</g>
<!-- 0&#45;&#45;6 -->
<g id="edge6" class="edge"><title>0&#45;&#45;6</title>
<path fill="none" stroke="black" d="M64.0502,-153.022C55.2962,-145.856 12.7576,-111.034 3.55701,-103.502"/>
</g>
<!-- 7 -->
<g id="node8" class="node"><title>7</title>
<ellipse fill="black" stroke="black" cx="142.08" cy="-197.309" rx="1.8" ry="1.8"/>
</g>
<!-- 0&#45;&#45;7 -->
<g id="edge7" class="edge"><title>0&#45;&#45;7</title>
<path fill="none" stroke="black" d="M67.2247,-155.211C77.1743,-160.807 130.568,-190.835 140.492,-196.416"/>
</g>
<!-- 1&#45;&#45;2 -->
<g id="edge8" class="edge"><title>1&#45;&#45;2</title>
<path fill="none" stroke="black" d="M81.5886,-123.898C77.0628,-116.44 58.3937,-85.6761 53.7972,-78.1016"/>
</g>
<!-- 1&#45;&#45;3 -->
<g id="edge9" class="edge"><title>1&#45;&#45;3</title>
<path fill="none" stroke="black" d="M82.0107,-127.458C78.4606,-139.458 59.4092,-203.856 55.8683,-215.826"/>
</g>
<!-- 1&#45;&#45;4 -->
<g id="edge10" class="edge"><title>1&#45;&#45;4</title>
<path fill="none" stroke="black" d="M82.8853,-127.405C84.5919,-137.883 92.9424,-189.159 94.621,-199.466"/>
</g>
<!-- 1&#45;&#45;5 -->
<g id="edge11" class="edge"><title>1&#45;&#45;5</title>
<path fill="none" stroke="black" d="M80.9804,-126.427C72.1032,-131.393 28.9652,-155.524 19.6349,-160.743"/>
</g>
<!-- 1&#45;&#45;6 -->
<g id="edge12" class="edge"><title>1&#45;&#45;6</title>
<path fill="none" stroke="black" d="M80.5836,-124.952C69.4075,-121.705 14.7201,-105.818 3.72703,-102.624"/>
</g>
<!-- 2&#45;&#45;5 -->
<g id="edge13" class="edge"><title>2&#45;&#45;5</title>
<path fill="none" stroke="black" d="M52.0418,-78.193C47.4975,-89.2977 23.111,-148.891 18.5785,-159.967"/>
</g>
<!-- 2&#45;&#45;6 -->
<g id="edge14" class="edge"><title>2&#45;&#45;6</title>
<path fill="none" stroke="black" d="M51.0752,-77.2643C43.3364,-81.1591 11.4142,-97.2253 3.55454,-101.181"/>
</g>
<!-- 8 -->
<g id="node9" class="node"><title>8</title>
<ellipse fill="black" stroke="black" cx="68.4358" cy="-1.8" rx="1.8" ry="1.8"/>
</g>
<!-- 2&#45;&#45;8 -->
<g id="edge15" class="edge"><title>2&#45;&#45;8</title>
<path fill="none" stroke="black" d="M53.1583,-74.5664C55.3255,-64.2439 65.9304,-13.7333 68.0622,-3.57985"/>
</g>
<!-- 3&#45;&#45;4 -->
<g id="edge16" class="edge"><title>3&#45;&#45;4</title>
<path fill="none" stroke="black" d="M57.0038,-217.033C63.4014,-214.374 85.9928,-204.982 92.8964,-202.112"/>
</g>
<!-- 3&#45;&#45;5 -->
<g id="edge17" class="edge"><title>3&#45;&#45;5</title>
<path fill="none" stroke="black" d="M54.0557,-215.878C48.37,-207.375 24.9167,-172.303 19.1422,-163.667"/>
</g>
<!-- 3&#45;&#45;7 -->
<g id="edge18" class="edge"><title>3&#45;&#45;7</title>
<path fill="none" stroke="black" d="M57.1142,-217.314C68.4076,-214.655 129.013,-200.385 140.278,-197.733"/>
</g>
<!-- 4&#45;&#45;5 -->
<g id="edge19" class="edge"><title>4&#45;&#45;5</title>
<path fill="none" stroke="black" d="M93.3057,-200.447C83.3633,-195.346 30.3816,-168.167 19.7223,-162.698"/>
</g>
<!-- 4&#45;&#45;7 -->
<g id="edge20" class="edge"><title>4&#45;&#45;7</title>
<path fill="none" stroke="black" d="M96.9419,-201.102C104.7,-200.45 132.46,-198.117 140.114,-197.474"/>
</g>
</g>
</svg>
