<?xml version="1.0" encoding="UTF-8" standalone="no"?>
<!DOCTYPE svg PUBLIC "-//W3C//DTD SVG 1.1//EN"
 "http://www.w3.org/Graphics/SVG/1.1/DTD/svg11.dtd">
<!-- Generated by graphviz version 2.36.0 (20140111.2315)
 -->
<!-- Title: %3 Pages: 1 -->
<svg width="144pt" height="221pt"
 viewBox="0.00 0.00 143.86 220.70" xmlns="http://www.w3.org/2000/svg" xmlns:xlink="http://www.w3.org/1999/xlink">
<g id="graph0" class="graph" transform="scale(1 1) rotate(0) translate(4 216.698)">
<title>%3</title>
<!-- 0 -->
<g id="node1" class="node"><title>0</title>
<ellipse fill="black" stroke="black" cx="91.1928" cy="-158.093" rx="1.8" ry="1.8"/>
</g>
<!-- 1 -->
<g id="node2" class="node"><title>1</title>
<ellipse fill="black" stroke="black" cx="35.2332" cy="-140.769" rx="1.8" ry="1.8"/>
</g>
<!-- 0&#45;&#45;1 -->
<g id="edge1" class="edge"><title>0&#45;&#45;1</title>
<path fill="none" stroke="black" d="M89.3309,-157.517C80.8348,-154.886 45.7883,-144.037 37.1595,-141.366"/>
</g>
<!-- 2 -->
<g id="node3" class="node"><title>2</title>
<ellipse fill="black" stroke="black" cx="118.489" cy="-73.325" rx="1.8" ry="1.8"/>
</g>
<!-- 0&#45;&#45;2 -->
<g id="edge2" class="edge"><title>0&#45;&#45;2</title>
<path fill="none" stroke="black" d="M91.7629,-156.322C95.3153,-145.291 114.379,-86.0891 117.922,-75.0857"/>
</g>
<!-- 4 -->
<g id="node4" class="node"><title>4</title>
<ellipse fill="black" stroke="black" cx="134.061" cy="-134.534" rx="1.8" ry="1.8"/>
</g>
<!-- 0&#45;&#45;4 -->
<g id="edge3" class="edge"><title>0&#45;&#45;4</title>
<path fill="none" stroke="black" d="M93.0348,-157.081C100.086,-153.205 125.317,-139.339 132.274,-135.516"/>
</g>
<!-- 5 -->
<g id="node5" class="node"><title>5</title>
<ellipse fill="black" stroke="black" cx="38.0136" cy="-210.898" rx="1.8" ry="1.8"/>
</g>
<!-- 0&#45;&#45;5 -->
<g id="edge4" class="edge"><title>0&#45;&#45;5</title>
<path fill="none" stroke="black" d="M89.8782,-159.398C82.5848,-166.64 47.1431,-201.832 39.4775,-209.444"/>
</g>
<!-- 1&#45;&#45;4 -->
<g id="edge5" class="edge"><title>1&#45;&#45;4</title>
<path fill="none" stroke="black" d="M37.2974,-140.639C50.159,-139.828 119.18,-135.473 132.009,-134.663"/>
</g>
<!-- 1&#45;&#45;5 -->
<g id="edge6" class="edge"><title>1&#45;&#45;5</title>
<path fill="none" stroke="black" d="M35.3135,-142.793C35.7195,-153.033 37.5441,-199.054 37.9384,-208.999"/>
</g>
<!-- 6 -->
<g id="node6" class="node"><title>6</title>
<ellipse fill="black" stroke="black" cx="1.8" cy="-68.5825" rx="1.8" ry="1.8"/>
</g>
<!-- 1&#45;&#45;6 -->
<g id="edge7" class="edge"><title>1&#45;&#45;6</title>
<path fill="none" stroke="black" d="M34.4068,-138.985C29.7812,-128.998 7.14735,-80.1282 2.59756,-70.3046"/>
</g>
<!-- 2&#45;&#45;4 -->
<g id="edge9" class="edge"><title>2&#45;&#45;4</title>
<path fill="none" stroke="black" d="M118.939,-75.0908C121.173,-83.8721 131.075,-122.797 133.516,-132.391"/>
</g>
<!-- 3 -->
<g id="node7" class="node"><title>3</title>
<ellipse fill="black" stroke="black" cx="62.3742" cy="-18.3157" rx="1.8" ry="1.8"/>
</g>
<!-- 2&#45;&#45;3 -->
<g id="edge8" class="edge"><title>2&#45;&#45;3</title>
<path fill="none" stroke="black" d="M117.102,-71.9652C109.406,-64.4207 72.0077,-27.7594 63.9189,-19.83"/>
</g>
<!-- 7 -->
<g id="node8" class="node"><title>7</title>
<ellipse fill="black" stroke="black" cx="132.743" cy="-1.8" rx="1.8" ry="1.8"/>
</g>
<!-- 2&#45;&#45;7 -->
<g id="edge10" class="edge"><title>2&#45;&#45;7</title>
<path fill="none" stroke="black" d="M118.842,-71.5569C120.796,-61.7474 130.296,-14.079 132.35,-3.76889"/>
</g>
<!-- 3&#45;&#45;6 -->
<g id="edge11" class="edge"><title>3&#45;&#45;6</title>
<path fill="none" stroke="black" d="M60.8769,-19.5583C52.5692,-26.4523 12.199,-59.953 3.46744,-67.1988"/>
</g>
<!-- 3&#45;&#45;7 -->
<g id="edge12" class="edge"><title>3&#45;&#45;7</title>
<path fill="none" stroke="black" d="M64.4043,-17.8392C74.68,-15.4275 120.859,-4.58914 130.838,-2.2471"/>
</g>
</g>
</svg>
