<?xml version="1.0" encoding="UTF-8" standalone="no"?>
<!DOCTYPE svg PUBLIC "-//W3C//DTD SVG 1.1//EN"
 "http://www.w3.org/Graphics/SVG/1.1/DTD/svg11.dtd">
<!-- Generated by graphviz version 2.36.0 (20140111.2315)
 -->
<!-- Title: %3 Pages: 1 -->
<svg width="151pt" height="106pt"
 viewBox="0.00 0.00 151.08 105.97" xmlns="http://www.w3.org/2000/svg" xmlns:xlink="http://www.w3.org/1999/xlink">
<g id="graph0" class="graph" transform="scale(1 1) rotate(0) translate(4 101.971)">
<title>%3</title>
<!-- 0 -->
<g id="node1" class="node"><title>0</title>
<ellipse fill="black" stroke="black" cx="76.8152" cy="-36.253" rx="1.8" ry="1.8"/>
</g>
<!-- 1 -->
<g id="node2" class="node"><title>1</title>
<ellipse fill="black" stroke="black" cx="74.521" cy="-5.14778" rx="1.8" ry="1.8"/>
</g>
<!-- 0&#45;&#45;1 -->
<g id="edge1" class="edge"><title>0&#45;&#45;1</title>
<path fill="none" stroke="black" d="M76.6647,-34.2121C76.25,-28.5895 75.094,-12.9166 74.6751,-7.23698"/>
</g>
<!-- 2 -->
<g id="node3" class="node"><title>2</title>
<ellipse fill="black" stroke="black" cx="39.9202" cy="-50.6387" rx="1.8" ry="1.8"/>
</g>
<!-- 0&#45;&#45;2 -->
<g id="edge2" class="edge"><title>0&#45;&#45;2</title>
<path fill="none" stroke="black" d="M74.8316,-37.0264C68.3655,-39.5476 47.957,-47.5051 41.7372,-49.9302"/>
</g>
<!-- 3 -->
<g id="node4" class="node"><title>3</title>
<ellipse fill="black" stroke="black" cx="80.8458" cy="-96.1705" rx="1.8" ry="1.8"/>
</g>
<!-- 0&#45;&#45;3 -->
<g id="edge3" class="edge"><title>0&#45;&#45;3</title>
<path fill="none" stroke="black" d="M76.9493,-38.2465C77.5613,-47.3436 80.0855,-84.8689 80.707,-94.108"/>
</g>
<!-- 4 -->
<g id="node5" class="node"><title>4</title>
<ellipse fill="black" stroke="black" cx="110.091" cy="-80.6051" rx="1.8" ry="1.8"/>
</g>
<!-- 0&#45;&#45;4 -->
<g id="edge4" class="edge"><title>0&#45;&#45;4</title>
<path fill="none" stroke="black" d="M77.9224,-37.7286C82.9744,-44.4624 103.814,-72.2394 108.945,-79.0784"/>
</g>
<!-- 5 -->
<g id="node6" class="node"><title>5</title>
<ellipse fill="black" stroke="black" cx="18.3249" cy="-81.3002" rx="1.8" ry="1.8"/>
</g>
<!-- 0&#45;&#45;5 -->
<g id="edge5" class="edge"><title>0&#45;&#45;5</title>
<path fill="none" stroke="black" d="M75.3694,-37.3665C67.3475,-43.5447 28.3662,-73.5667 19.935,-80.0601"/>
</g>
<!-- 6 -->
<g id="node7" class="node"><title>6</title>
<ellipse fill="black" stroke="black" cx="1.8" cy="-1.8" rx="1.8" ry="1.8"/>
</g>
<!-- 0&#45;&#45;6 -->
<g id="edge6" class="edge"><title>0&#45;&#45;6</title>
<path fill="none" stroke="black" d="M74.9609,-35.4013C64.5824,-30.6347 13.798,-7.31045 3.5895,-2.62188"/>
</g>
<!-- 7 -->
<g id="node8" class="node"><title>7</title>
<ellipse fill="black" stroke="black" cx="137.35" cy="-54.9965" rx="1.8" ry="1.8"/>
</g>
<!-- 0&#45;&#45;7 -->
<g id="edge7" class="edge"><title>0&#45;&#45;7</title>
<path fill="none" stroke="black" d="M78.5616,-36.7937C87.2463,-39.4828 125.743,-51.4025 135.231,-54.3404"/>
</g>
<!-- 8 -->
<g id="node9" class="node"><title>8</title>
<ellipse fill="black" stroke="black" cx="141.283" cy="-11.8016" rx="1.8" ry="1.8"/>
</g>
<!-- 0&#45;&#45;8 -->
<g id="edge8" class="edge"><title>0&#45;&#45;8</title>
<path fill="none" stroke="black" d="M78.6751,-35.5476C88.0892,-31.977 130.396,-15.9309 139.538,-12.4635"/>
</g>
<!-- 1&#45;&#45;2 -->
<g id="edge9" class="edge"><title>1&#45;&#45;2</title>
<path fill="none" stroke="black" d="M73.3698,-6.66135C68.1165,-13.5681 46.4466,-42.0582 41.1112,-49.0728"/>
</g>
<!-- 1&#45;&#45;3 -->
<g id="edge10" class="edge"><title>1&#45;&#45;3</title>
<path fill="none" stroke="black" d="M74.6531,-7.04892C75.4762,-18.8947 79.8934,-82.4646 80.7144,-94.2798"/>
</g>
<!-- 1&#45;&#45;4 -->
<g id="edge11" class="edge"><title>1&#45;&#45;4</title>
<path fill="none" stroke="black" d="M75.4003,-7.01303C80.3214,-17.4527 104.402,-68.5363 109.242,-78.805"/>
</g>
<!-- 1&#45;&#45;5 -->
<g id="edge12" class="edge"><title>1&#45;&#45;5</title>
<path fill="none" stroke="black" d="M73.3473,-6.73833C66.0339,-16.6488 26.7867,-69.8334 19.4922,-79.7184"/>
</g>
<!-- 1&#45;&#45;6 -->
<g id="edge13" class="edge"><title>1&#45;&#45;6</title>
<path fill="none" stroke="black" d="M72.4231,-5.0512C61.8038,-4.56233 14.081,-2.36537 3.76864,-1.89063"/>
</g>
<!-- 1&#45;&#45;7 -->
<g id="edge14" class="edge"><title>1&#45;&#45;7</title>
<path fill="none" stroke="black" d="M76.0741,-6.38C84.691,-13.2167 126.564,-46.4387 135.62,-53.6243"/>
</g>
<!-- 1&#45;&#45;8 -->
<g id="edge15" class="edge"><title>1&#45;&#45;8</title>
<path fill="none" stroke="black" d="M76.4471,-5.33974C86.1962,-6.31138 130.008,-10.6779 139.476,-11.6214"/>
</g>
<!-- 2&#45;&#45;3 -->
<g id="edge16" class="edge"><title>2&#45;&#45;3</title>
<path fill="none" stroke="black" d="M41.2818,-52.1537C47.4954,-59.0666 73.1264,-87.5823 79.437,-94.6032"/>
</g>
<!-- 2&#45;&#45;4 -->
<g id="edge17" class="edge"><title>2&#45;&#45;4</title>
<path fill="none" stroke="black" d="M41.6547,-51.3795C51.2785,-55.4893 98.0442,-75.4606 108.159,-79.7802"/>
</g>
<!-- 2&#45;&#45;5 -->
<g id="edge18" class="edge"><title>2&#45;&#45;5</title>
<path fill="none" stroke="black" d="M38.7591,-52.2872C34.9744,-57.6608 23.029,-74.6212 19.3884,-79.7901"/>
</g>
<!-- 2&#45;&#45;6 -->
<g id="edge19" class="edge"><title>2&#45;&#45;6</title>
<path fill="none" stroke="black" d="M38.6518,-49.0138C32.8642,-41.5988 8.99024,-11.012 3.11218,-3.48114"/>
</g>
<!-- 2&#45;&#45;7 -->
<g id="edge20" class="edge"><title>2&#45;&#45;7</title>
<path fill="none" stroke="black" d="M41.9551,-50.7297C54.6347,-51.2969 122.679,-54.3403 135.326,-54.906"/>
</g>
<!-- 3&#45;&#45;4 -->
<g id="edge21" class="edge"><title>3&#45;&#45;4</title>
<path fill="none" stroke="black" d="M82.7646,-95.1492C88.1526,-92.2815 103.357,-84.1892 108.424,-81.4922"/>
</g>
<!-- 3&#45;&#45;5 -->
<g id="edge22" class="edge"><title>3&#45;&#45;5</title>
<path fill="none" stroke="black" d="M79.0421,-95.7415C70.0725,-93.6081 30.3131,-84.1515 20.5134,-81.8207"/>
</g>
<!-- 3&#45;&#45;7 -->
<g id="edge23" class="edge"><title>3&#45;&#45;7</title>
<path fill="none" stroke="black" d="M82.7258,-94.8006C91.4578,-88.4377 127.964,-61.8356 135.846,-56.0925"/>
</g>
<!-- 3&#45;&#45;8 -->
<g id="edge24" class="edge"><title>3&#45;&#45;8</title>
<path fill="none" stroke="black" d="M81.8948,-94.7061C89.2305,-84.4656 132.775,-23.6784 140.205,-13.3063"/>
</g>
<!-- 4&#45;&#45;5 -->
<g id="edge25" class="edge"><title>4&#45;&#45;5</title>
<path fill="none" stroke="black" d="M108.174,-80.6196C96.2315,-80.7101 32.1427,-81.1955 20.231,-81.2857"/>
</g>
<!-- 4&#45;&#45;8 -->
<g id="edge26" class="edge"><title>4&#45;&#45;8</title>
<path fill="none" stroke="black" d="M110.862,-78.9043C115.14,-69.468 135.928,-23.6134 140.424,-13.6955"/>
</g>
<!-- 5&#45;&#45;6 -->
<g id="edge27" class="edge"><title>5&#45;&#45;6</title>
<path fill="none" stroke="black" d="M17.9164,-79.335C15.6301,-68.336 4.44301,-14.5154 2.1942,-3.69649"/>
</g>
</g>
</svg>
