<?xml version="1.0" encoding="UTF-8" standalone="no"?>
<!DOCTYPE svg PUBLIC "-//W3C//DTD SVG 1.1//EN"
 "http://www.w3.org/Graphics/SVG/1.1/DTD/svg11.dtd">
<!-- Generated by graphviz version 2.36.0 (20140111.2315)
 -->
<!-- Title: %3 Pages: 1 -->
<svg width="194pt" height="166pt"
 viewBox="0.00 0.00 193.68 166.47" xmlns="http://www.w3.org/2000/svg" xmlns:xlink="http://www.w3.org/1999/xlink">
<g id="graph0" class="graph" transform="scale(1 1) rotate(0) translate(4 162.47)">
<title>%3</title>
<!-- 0 -->
<g id="node1" class="node"><title>0</title>
<ellipse fill="black" stroke="black" cx="130.706" cy="-90.1201" rx="1.8" ry="1.8"/>
</g>
<!-- 1 -->
<g id="node2" class="node"><title>1</title>
<ellipse fill="black" stroke="black" cx="62.7918" cy="-95.1855" rx="1.8" ry="1.8"/>
</g>
<!-- 0&#45;&#45;1 -->
<g id="edge1" class="edge"><title>0&#45;&#45;1</title>
<path fill="none" stroke="black" d="M128.747,-90.2662C118.83,-91.0059 74.2611,-94.3301 64.6304,-95.0484"/>
</g>
<!-- 2 -->
<g id="node3" class="node"><title>2</title>
<ellipse fill="black" stroke="black" cx="123.07" cy="-52.7718" rx="1.8" ry="1.8"/>
</g>
<!-- 0&#45;&#45;2 -->
<g id="edge2" class="edge"><title>0&#45;&#45;2</title>
<path fill="none" stroke="black" d="M130.296,-88.1121C128.957,-81.5666 124.734,-60.9073 123.446,-54.6111"/>
</g>
<!-- 3 -->
<g id="node4" class="node"><title>3</title>
<ellipse fill="black" stroke="black" cx="74.5068" cy="-156.67" rx="1.8" ry="1.8"/>
</g>
<!-- 0&#45;&#45;3 -->
<g id="edge3" class="edge"><title>0&#45;&#45;3</title>
<path fill="none" stroke="black" d="M129.317,-91.7651C121.609,-100.892 84.1548,-145.245 76.0538,-154.838"/>
</g>
<!-- 4 -->
<g id="node5" class="node"><title>4</title>
<ellipse fill="black" stroke="black" cx="183.881" cy="-49.3591" rx="1.8" ry="1.8"/>
</g>
<!-- 0&#45;&#45;4 -->
<g id="edge4" class="edge"><title>0&#45;&#45;4</title>
<path fill="none" stroke="black" d="M132.475,-88.7639C140.549,-82.5753 173.851,-57.0475 182.05,-50.7622"/>
</g>
<!-- 5 -->
<g id="node6" class="node"><title>5</title>
<ellipse fill="black" stroke="black" cx="132.976" cy="-143.673" rx="1.8" ry="1.8"/>
</g>
<!-- 0&#45;&#45;5 -->
<g id="edge5" class="edge"><title>0&#45;&#45;5</title>
<path fill="none" stroke="black" d="M130.804,-92.4212C131.177,-101.23 132.513,-132.75 132.881,-141.44"/>
</g>
<!-- 6 -->
<g id="node7" class="node"><title>6</title>
<ellipse fill="black" stroke="black" cx="83.9411" cy="-24.2675" rx="1.8" ry="1.8"/>
</g>
<!-- 0&#45;&#45;6 -->
<g id="edge6" class="edge"><title>0&#45;&#45;6</title>
<path fill="none" stroke="black" d="M129.55,-88.4922C123.136,-79.4606 91.9695,-35.5727 85.2284,-26.0803"/>
</g>
<!-- 7 -->
<g id="node8" class="node"><title>7</title>
<ellipse fill="black" stroke="black" cx="164.633" cy="-1.8" rx="1.8" ry="1.8"/>
</g>
<!-- 0&#45;&#45;7 -->
<g id="edge7" class="edge"><title>0&#45;&#45;7</title>
<path fill="none" stroke="black" d="M131.415,-88.2754C135.83,-76.7814 159.525,-15.099 163.929,-3.63454"/>
</g>
<!-- 1&#45;&#45;2 -->
<g id="edge8" class="edge"><title>1&#45;&#45;2</title>
<path fill="none" stroke="black" d="M64.2819,-94.1371C72.549,-88.3201 112.722,-60.0531 121.411,-53.9393"/>
</g>
<!-- 1&#45;&#45;3 -->
<g id="edge9" class="edge"><title>1&#45;&#45;3</title>
<path fill="none" stroke="black" d="M63.1298,-96.9593C64.8105,-105.78 72.2605,-144.88 74.0967,-154.518"/>
</g>
<!-- 1&#45;&#45;5 -->
<g id="edge10" class="edge"><title>1&#45;&#45;5</title>
<path fill="none" stroke="black" d="M64.5267,-96.3841C74.1524,-103.034 120.927,-135.349 131.044,-142.338"/>
</g>
<!-- 1&#45;&#45;6 -->
<g id="edge11" class="edge"><title>1&#45;&#45;6</title>
<path fill="none" stroke="black" d="M63.3146,-93.4325C66.2152,-83.7061 80.3103,-36.4423 83.3589,-26.2197"/>
</g>
<!-- 8 -->
<g id="node9" class="node"><title>8</title>
<ellipse fill="black" stroke="black" cx="1.8" cy="-139.402" rx="1.8" ry="1.8"/>
</g>
<!-- 1&#45;&#45;8 -->
<g id="edge12" class="edge"><title>1&#45;&#45;8</title>
<path fill="none" stroke="black" d="M61.2842,-96.2785C52.9192,-102.343 12.2707,-131.811 3.47894,-138.185"/>
</g>
<!-- 2&#45;&#45;4 -->
<g id="edge13" class="edge"><title>2&#45;&#45;4</title>
<path fill="none" stroke="black" d="M125.094,-52.6582C134.326,-52.1401 172.411,-50.0028 181.788,-49.4766"/>
</g>
<!-- 2&#45;&#45;5 -->
<g id="edge14" class="edge"><title>2&#45;&#45;5</title>
<path fill="none" stroke="black" d="M123.277,-54.6704C124.566,-66.5003 131.484,-129.986 132.77,-141.785"/>
</g>
<!-- 2&#45;&#45;6 -->
<g id="edge15" class="edge"><title>2&#45;&#45;6</title>
<path fill="none" stroke="black" d="M121.389,-51.547C114.953,-46.8583 91.9226,-30.0817 85.5726,-25.456"/>
</g>
<!-- 2&#45;&#45;7 -->
<g id="edge16" class="edge"><title>2&#45;&#45;7</title>
<path fill="none" stroke="black" d="M124.453,-51.0758C130.764,-43.337 156.794,-11.4143 163.203,-3.55456"/>
</g>
<!-- 3&#45;&#45;5 -->
<g id="edge17" class="edge"><title>3&#45;&#45;5</title>
<path fill="none" stroke="black" d="M76.4522,-156.237C85.3293,-154.264 121.947,-146.125 130.963,-144.121"/>
</g>
<!-- 3&#45;&#45;8 -->
<g id="edge18" class="edge"><title>3&#45;&#45;8</title>
<path fill="none" stroke="black" d="M72.7095,-156.243C62.7379,-153.875 14.2819,-142.366 3.80142,-139.877"/>
</g>
<!-- 4&#45;&#45;6 -->
<g id="edge19" class="edge"><title>4&#45;&#45;6</title>
<path fill="none" stroke="black" d="M181.794,-48.835C168.675,-45.5415 97.7821,-27.7426 85.6942,-24.7077"/>
</g>
<!-- 4&#45;&#45;7 -->
<g id="edge20" class="edge"><title>4&#45;&#45;7</title>
<path fill="none" stroke="black" d="M183.054,-47.3156C179.888,-39.4926 168.559,-11.5009 165.436,-3.78301"/>
</g>
</g>
</svg>
