<?xml version="1.0" encoding="UTF-8" standalone="no"?>
<!DOCTYPE svg PUBLIC "-//W3C//DTD SVG 1.1//EN"
 "http://www.w3.org/Graphics/SVG/1.1/DTD/svg11.dtd">
<!-- Generated by graphviz version 2.36.0 (20140111.2315)
 -->
<!-- Title: %3 Pages: 1 -->
<svg width="221pt" height="138pt"
 viewBox="0.00 0.00 221.27 138.36" xmlns="http://www.w3.org/2000/svg" xmlns:xlink="http://www.w3.org/1999/xlink">
<g id="graph0" class="graph" transform="scale(1 1) rotate(0) translate(4 134.365)">
<title>%3</title>
<!-- 0 -->
<g id="node1" class="node"><title>0</title>
<ellipse fill="black" stroke="black" cx="63.6468" cy="-92.8577" rx="1.8" ry="1.8"/>
</g>
<!-- 1 -->
<g id="node2" class="node"><title>1</title>
<ellipse fill="black" stroke="black" cx="132.549" cy="-47.3057" rx="1.8" ry="1.8"/>
</g>
<!-- 0&#45;&#45;1 -->
<g id="edge1" class="edge"><title>0&#45;&#45;1</title>
<path fill="none" stroke="black" d="M65.35,-91.7317C74.7998,-85.4843 120.72,-55.1258 130.652,-48.5596"/>
</g>
<!-- 2 -->
<g id="node3" class="node"><title>2</title>
<ellipse fill="black" stroke="black" cx="67.9435" cy="-54.3207" rx="1.8" ry="1.8"/>
</g>
<!-- 0&#45;&#45;2 -->
<g id="edge2" class="edge"><title>0&#45;&#45;2</title>
<path fill="none" stroke="black" d="M63.8778,-90.7857C64.6308,-84.0319 67.0075,-62.7152 67.7318,-56.2186"/>
</g>
<!-- 3 -->
<g id="node4" class="node"><title>3</title>
<ellipse fill="black" stroke="black" cx="145.158" cy="-84.1547" rx="1.8" ry="1.8"/>
</g>
<!-- 0&#45;&#45;3 -->
<g id="edge3" class="edge"><title>0&#45;&#45;3</title>
<path fill="none" stroke="black" d="M65.6617,-92.6425C76.939,-91.4385 132.121,-85.5467 143.214,-84.3623"/>
</g>
<!-- 4 -->
<g id="node5" class="node"><title>4</title>
<ellipse fill="black" stroke="black" cx="108.78" cy="-128.565" rx="1.8" ry="1.8"/>
</g>
<!-- 0&#45;&#45;4 -->
<g id="edge4" class="edge"><title>0&#45;&#45;4</title>
<path fill="none" stroke="black" d="M65.1484,-94.0457C72.0009,-99.467 100.267,-121.83 107.226,-127.336"/>
</g>
<!-- 5 -->
<g id="node6" class="node"><title>5</title>
<ellipse fill="black" stroke="black" cx="1.8" cy="-117.104" rx="1.8" ry="1.8"/>
</g>
<!-- 0&#45;&#45;5 -->
<g id="edge5" class="edge"><title>0&#45;&#45;5</title>
<path fill="none" stroke="black" d="M61.8625,-93.5572C52.9897,-97.0357 13.6589,-112.455 3.9649,-116.255"/>
</g>
<!-- 6 -->
<g id="node7" class="node"><title>6</title>
<ellipse fill="black" stroke="black" cx="8.62654" cy="-22.3588" rx="1.8" ry="1.8"/>
</g>
<!-- 0&#45;&#45;6 -->
<g id="edge6" class="edge"><title>0&#45;&#45;6</title>
<path fill="none" stroke="black" d="M62.4976,-91.3852C55.3372,-82.2104 16.9113,-32.9743 9.7694,-23.8232"/>
</g>
<!-- 1&#45;&#45;2 -->
<g id="edge7" class="edge"><title>1&#45;&#45;2</title>
<path fill="none" stroke="black" d="M130.685,-47.5081C121.416,-48.5145 80.3314,-52.9756 70.2049,-54.0752"/>
</g>
<!-- 1&#45;&#45;3 -->
<g id="edge8" class="edge"><title>1&#45;&#45;3</title>
<path fill="none" stroke="black" d="M133.227,-49.2868C135.437,-55.7448 142.412,-76.1279 144.537,-82.34"/>
</g>
<!-- 1&#45;&#45;4 -->
<g id="edge9" class="edge"><title>1&#45;&#45;4</title>
<path fill="none" stroke="black" d="M131.961,-49.3143C128.673,-60.5567 112.582,-115.568 109.347,-126.626"/>
</g>
<!-- 7 -->
<g id="node8" class="node"><title>7</title>
<ellipse fill="black" stroke="black" cx="211.471" cy="-91.4635" rx="1.8" ry="1.8"/>
</g>
<!-- 1&#45;&#45;7 -->
<g id="edge10" class="edge"><title>1&#45;&#45;7</title>
<path fill="none" stroke="black" d="M134.197,-48.228C144.468,-53.9747 199.587,-84.8144 209.831,-90.5463"/>
</g>
<!-- 8 -->
<g id="node9" class="node"><title>8</title>
<ellipse fill="black" stroke="black" cx="181.774" cy="-1.8" rx="1.8" ry="1.8"/>
</g>
<!-- 1&#45;&#45;8 -->
<g id="edge11" class="edge"><title>1&#45;&#45;8</title>
<path fill="none" stroke="black" d="M134.187,-45.7916C141.66,-38.8827 172.489,-10.3833 180.08,-3.36641"/>
</g>
<!-- 2&#45;&#45;3 -->
<g id="edge12" class="edge"><title>2&#45;&#45;3</title>
<path fill="none" stroke="black" d="M69.8521,-55.0582C80.535,-59.1858 132.808,-79.383 143.316,-83.443"/>
</g>
<!-- 2&#45;&#45;4 -->
<g id="edge13" class="edge"><title>2&#45;&#45;4</title>
<path fill="none" stroke="black" d="M68.9529,-56.156C74.6027,-66.4278 102.249,-116.69 107.806,-126.794"/>
</g>
<!-- 2&#45;&#45;5 -->
<g id="edge14" class="edge"><title>2&#45;&#45;5</title>
<path fill="none" stroke="black" d="M66.3084,-55.8727C57.0778,-64.6344 11.5976,-107.804 3.15121,-115.822"/>
</g>
<!-- 2&#45;&#45;6 -->
<g id="edge15" class="edge"><title>2&#45;&#45;6</title>
<path fill="none" stroke="black" d="M66.2322,-53.3986C57.5703,-48.7313 18.6439,-27.7565 10.2323,-23.2241"/>
</g>
<!-- 3&#45;&#45;4 -->
<g id="edge16" class="edge"><title>3&#45;&#45;4</title>
<path fill="none" stroke="black" d="M143.948,-85.6323C138.425,-92.375 115.642,-120.188 110.032,-127.036"/>
</g>
<!-- 3&#45;&#45;7 -->
<g id="edge17" class="edge"><title>3&#45;&#45;7</title>
<path fill="none" stroke="black" d="M147.071,-84.3656C156.755,-85.4329 200.272,-90.2292 209.676,-91.2657"/>
</g>
<!-- 3&#45;&#45;8 -->
<g id="edge18" class="edge"><title>3&#45;&#45;8</title>
<path fill="none" stroke="black" d="M145.923,-82.4346C150.688,-71.717 176.261,-14.2007 181.014,-3.51063"/>
</g>
</g>
</svg>
