<?xml version="1.0" encoding="UTF-8" standalone="no"?>
<!DOCTYPE svg PUBLIC "-//W3C//DTD SVG 1.1//EN"
 "http://www.w3.org/Graphics/SVG/1.1/DTD/svg11.dtd">
<!-- Generated by graphviz version 2.36.0 (20140111.2315)
 -->
<!-- Title: %3 Pages: 1 -->
<svg width="115pt" height="203pt"
 viewBox="0.00 0.00 115.49 202.51" xmlns="http://www.w3.org/2000/svg" xmlns:xlink="http://www.w3.org/1999/xlink">
<g id="graph0" class="graph" transform="scale(1 1) rotate(0) translate(4 198.506)">
<title>%3</title>
<!-- 0 -->
<g id="node1" class="node"><title>0</title>
<ellipse fill="black" stroke="black" cx="12.686" cy="-132.982" rx="1.8" ry="1.8"/>
</g>
<!-- 1 -->
<g id="node2" class="node"><title>1</title>
<ellipse fill="black" stroke="black" cx="54.8873" cy="-110.195" rx="1.8" ry="1.8"/>
</g>
<!-- 0&#45;&#45;1 -->
<g id="edge1" class="edge"><title>0&#45;&#45;1</title>
<path fill="none" stroke="black" d="M14.4994,-132.003C21.4411,-128.254 46.2792,-114.843 53.1277,-111.145"/>
</g>
<!-- 3 -->
<g id="node3" class="node"><title>3</title>
<ellipse fill="black" stroke="black" cx="36.1528" cy="-38.617" rx="1.8" ry="1.8"/>
</g>
<!-- 0&#45;&#45;3 -->
<g id="edge2" class="edge"><title>0&#45;&#45;3</title>
<path fill="none" stroke="black" d="M13.1762,-131.011C16.2302,-118.73 32.6193,-52.8262 35.6654,-40.5771"/>
</g>
<!-- 4 -->
<g id="node4" class="node"><title>4</title>
<ellipse fill="black" stroke="black" cx="1.8" cy="-72.6842" rx="1.8" ry="1.8"/>
</g>
<!-- 0&#45;&#45;4 -->
<g id="edge3" class="edge"><title>0&#45;&#45;4</title>
<path fill="none" stroke="black" d="M12.3238,-130.976C10.6711,-121.821 3.85333,-84.0576 2.17472,-74.7598"/>
</g>
<!-- 5 -->
<g id="node5" class="node"><title>5</title>
<ellipse fill="black" stroke="black" cx="102.844" cy="-155.974" rx="1.8" ry="1.8"/>
</g>
<!-- 0&#45;&#45;5 -->
<g id="edge4" class="edge"><title>0&#45;&#45;5</title>
<path fill="none" stroke="black" d="M14.5691,-133.462C26.3023,-136.454 89.2681,-152.512 100.971,-155.496"/>
</g>
<!-- 6 -->
<g id="node6" class="node"><title>6</title>
<ellipse fill="black" stroke="black" cx="44.4011" cy="-192.706" rx="1.8" ry="1.8"/>
</g>
<!-- 0&#45;&#45;6 -->
<g id="edge5" class="edge"><title>0&#45;&#45;6</title>
<path fill="none" stroke="black" d="M13.601,-134.705C18.2323,-143.426 39.0451,-182.62 43.5426,-191.09"/>
</g>
<!-- 1&#45;&#45;3 -->
<g id="edge7" class="edge"><title>1&#45;&#45;3</title>
<path fill="none" stroke="black" d="M54.4242,-108.425C51.8548,-98.6086 39.369,-50.905 36.6685,-40.5873"/>
</g>
<!-- 1&#45;&#45;4 -->
<g id="edge8" class="edge"><title>1&#45;&#45;4</title>
<path fill="none" stroke="black" d="M53.121,-108.947C45.061,-103.252 11.8134,-79.7594 3.62739,-73.9754"/>
</g>
<!-- 1&#45;&#45;6 -->
<g id="edge9" class="edge"><title>1&#45;&#45;6</title>
<path fill="none" stroke="black" d="M54.6281,-112.234C53.1773,-123.65 46.0783,-179.509 44.6513,-190.738"/>
</g>
<!-- 2 -->
<g id="node7" class="node"><title>2</title>
<ellipse fill="black" stroke="black" cx="105.69" cy="-75.7263" rx="1.8" ry="1.8"/>
</g>
<!-- 1&#45;&#45;2 -->
<g id="edge6" class="edge"><title>1&#45;&#45;2</title>
<path fill="none" stroke="black" d="M56.5776,-109.048C64.2908,-103.815 96.1078,-82.2277 103.941,-76.9128"/>
</g>
<!-- 3&#45;&#45;4 -->
<g id="edge13" class="edge"><title>3&#45;&#45;4</title>
<path fill="none" stroke="black" d="M34.6767,-40.0808C29.026,-45.6845 8.80717,-65.7353 3.23236,-71.2637"/>
</g>
<!-- 7 -->
<g id="node8" class="node"><title>7</title>
<ellipse fill="black" stroke="black" cx="104.078" cy="-1.8" rx="1.8" ry="1.8"/>
</g>
<!-- 3&#45;&#45;7 -->
<g id="edge14" class="edge"><title>3&#45;&#45;7</title>
<path fill="none" stroke="black" d="M37.8319,-37.7069C47.1477,-32.6575 92.4166,-8.12053 102.208,-2.81347"/>
</g>
<!-- 5&#45;&#45;6 -->
<g id="edge15" class="edge"><title>5&#45;&#45;6</title>
<path fill="none" stroke="black" d="M100.899,-157.196C91.8677,-162.873 54.1086,-186.605 45.9568,-191.729"/>
</g>
<!-- 2&#45;&#45;4 -->
<g id="edge10" class="edge"><title>2&#45;&#45;4</title>
<path fill="none" stroke="black" d="M103.887,-75.6735C91.277,-75.3042 16.4249,-73.1124 3.65285,-72.7384"/>
</g>
<!-- 2&#45;&#45;5 -->
<g id="edge11" class="edge"><title>2&#45;&#45;5</title>
<path fill="none" stroke="black" d="M105.62,-77.7099C105.226,-88.8124 103.299,-143.139 102.912,-154.06"/>
</g>
<!-- 2&#45;&#45;7 -->
<g id="edge12" class="edge"><title>2&#45;&#45;7</title>
<path fill="none" stroke="black" d="M105.65,-73.8989C105.429,-63.76 104.354,-14.4912 104.122,-3.83499"/>
</g>
</g>
</svg>
