<?xml version="1.0" encoding="UTF-8" standalone="no"?>
<!DOCTYPE svg PUBLIC "-//W3C//DTD SVG 1.1//EN"
 "http://www.w3.org/Graphics/SVG/1.1/DTD/svg11.dtd">
<!-- Generated by graphviz version 2.36.0 (20140111.2315)
 -->
<!-- Title: %3 Pages: 1 -->
<svg width="236pt" height="213pt"
 viewBox="0.00 0.00 236.23 212.87" xmlns="http://www.w3.org/2000/svg" xmlns:xlink="http://www.w3.org/1999/xlink">
<g id="graph0" class="graph" transform="scale(1 1) rotate(0) translate(4 208.873)">
<title>%3</title>
<!-- 0 -->
<g id="node1" class="node"><title>0</title>
<ellipse fill="black" stroke="black" cx="65.1963" cy="-156.1" rx="1.8" ry="1.8"/>
</g>
<!-- 1 -->
<g id="node2" class="node"><title>1</title>
<ellipse fill="black" stroke="black" cx="94.1973" cy="-112.856" rx="1.8" ry="1.8"/>
</g>
<!-- 0&#45;&#45;1 -->
<g id="edge1" class="edge"><title>0&#45;&#45;1</title>
<path fill="none" stroke="black" d="M66.4424,-154.242C71.2128,-147.129 88.2818,-121.677 92.9881,-114.659"/>
</g>
<!-- 2 -->
<g id="node3" class="node"><title>2</title>
<ellipse fill="black" stroke="black" cx="150.878" cy="-147.344" rx="1.8" ry="1.8"/>
</g>
<!-- 0&#45;&#45;2 -->
<g id="edge2" class="edge"><title>0&#45;&#45;2</title>
<path fill="none" stroke="black" d="M67.3143,-155.884C79.1686,-154.672 137.174,-148.744 148.834,-147.553"/>
</g>
<!-- 3 -->
<g id="node4" class="node"><title>3</title>
<ellipse fill="black" stroke="black" cx="8.36876" cy="-130.797" rx="1.8" ry="1.8"/>
</g>
<!-- 0&#45;&#45;3 -->
<g id="edge3" class="edge"><title>0&#45;&#45;3</title>
<path fill="none" stroke="black" d="M63.3055,-155.258C54.6776,-151.417 19.0876,-135.57 10.3249,-131.668"/>
</g>
<!-- 4 -->
<g id="node5" class="node"><title>4</title>
<ellipse fill="black" stroke="black" cx="39.599" cy="-72.5856" rx="1.8" ry="1.8"/>
</g>
<!-- 0&#45;&#45;4 -->
<g id="edge4" class="edge"><title>0&#45;&#45;4</title>
<path fill="none" stroke="black" d="M64.6616,-154.356C61.3304,-143.487 43.4534,-85.161 40.1307,-74.3203"/>
</g>
<!-- 5 -->
<g id="node6" class="node"><title>5</title>
<ellipse fill="black" stroke="black" cx="116.041" cy="-198.131" rx="1.8" ry="1.8"/>
</g>
<!-- 0&#45;&#45;5 -->
<g id="edge5" class="edge"><title>0&#45;&#45;5</title>
<path fill="none" stroke="black" d="M66.888,-157.499C74.6075,-163.88 106.451,-190.203 114.291,-196.684"/>
</g>
<!-- 6 -->
<g id="node7" class="node"><title>6</title>
<ellipse fill="black" stroke="black" cx="1.8" cy="-203.073" rx="1.8" ry="1.8"/>
</g>
<!-- 0&#45;&#45;6 -->
<g id="edge6" class="edge"><title>0&#45;&#45;6</title>
<path fill="none" stroke="black" d="M63.6292,-157.261C54.9344,-163.703 12.6835,-195.009 3.54512,-201.78"/>
</g>
<!-- 1&#45;&#45;2 -->
<g id="edge7" class="edge"><title>1&#45;&#45;2</title>
<path fill="none" stroke="black" d="M96.0832,-114.003C104.689,-119.239 140.187,-140.839 148.927,-146.157"/>
</g>
<!-- 1&#45;&#45;3 -->
<g id="edge8" class="edge"><title>1&#45;&#45;3</title>
<path fill="none" stroke="black" d="M92.4046,-113.231C81.2349,-115.566 21.2926,-128.096 10.1515,-130.425"/>
</g>
<!-- 1&#45;&#45;4 -->
<g id="edge9" class="edge"><title>1&#45;&#45;4</title>
<path fill="none" stroke="black" d="M92.3807,-111.516C83.9433,-105.293 48.6679,-79.2746 41.0523,-73.6576"/>
</g>
<!-- 1&#45;&#45;5 -->
<g id="edge10" class="edge"><title>1&#45;&#45;5</title>
<path fill="none" stroke="black" d="M94.6535,-114.637C97.4963,-125.735 112.752,-185.291 115.587,-196.36"/>
</g>
<!-- 2&#45;&#45;5 -->
<g id="edge11" class="edge"><title>2&#45;&#45;5</title>
<path fill="none" stroke="black" d="M149.719,-149.034C144.43,-156.744 122.612,-188.551 117.24,-196.383"/>
</g>
<!-- 8 -->
<g id="node8" class="node"><title>8</title>
<ellipse fill="black" stroke="black" cx="226.435" cy="-146.878" rx="1.8" ry="1.8"/>
</g>
<!-- 2&#45;&#45;8 -->
<g id="edge12" class="edge"><title>2&#45;&#45;8</title>
<path fill="none" stroke="black" d="M152.746,-147.332C163.199,-147.268 214.35,-146.953 224.632,-146.889"/>
</g>
<!-- 3&#45;&#45;4 -->
<g id="edge13" class="edge"><title>3&#45;&#45;4</title>
<path fill="none" stroke="black" d="M9.40784,-128.861C14.1494,-120.023 33.7083,-83.5656 38.524,-74.5894"/>
</g>
<!-- 3&#45;&#45;6 -->
<g id="edge14" class="edge"><title>3&#45;&#45;6</title>
<path fill="none" stroke="black" d="M8.17925,-132.883C7.22003,-143.437 2.90932,-190.867 1.97782,-201.116"/>
</g>
<!-- 7 -->
<g id="node9" class="node"><title>7</title>
<ellipse fill="black" stroke="black" cx="12.2276" cy="-1.8" rx="1.8" ry="1.8"/>
</g>
<!-- 4&#45;&#45;7 -->
<g id="edge15" class="edge"><title>4&#45;&#45;7</title>
<path fill="none" stroke="black" d="M38.9224,-70.8358C35.1355,-61.0425 16.6054,-13.1215 12.8806,-3.4886"/>
</g>
</g>
</svg>
