<?xml version="1.0" encoding="UTF-8" standalone="no"?>
<!DOCTYPE svg PUBLIC "-//W3C//DTD SVG 1.1//EN"
 "http://www.w3.org/Graphics/SVG/1.1/DTD/svg11.dtd">
<!-- Generated by graphviz version 2.36.0 (20140111.2315)
 -->
<!-- Title: %3 Pages: 1 -->
<svg width="179pt" height="106pt"
 viewBox="0.00 0.00 179.08 105.95" xmlns="http://www.w3.org/2000/svg" xmlns:xlink="http://www.w3.org/1999/xlink">
<g id="graph0" class="graph" transform="scale(1 1) rotate(0) translate(4 101.951)">
<title>%3</title>
<!-- 0 -->
<g id="node1" class="node"><title>0</title>
<ellipse fill="black" stroke="black" cx="77.7112" cy="-63.5221" rx="1.8" ry="1.8"/>
</g>
<!-- 1 -->
<g id="node2" class="node"><title>1</title>
<ellipse fill="black" stroke="black" cx="88.3575" cy="-20.575" rx="1.8" ry="1.8"/>
</g>
<!-- 0&#45;&#45;1 -->
<g id="edge1" class="edge"><title>0&#45;&#45;1</title>
<path fill="none" stroke="black" d="M78.1686,-61.6768C79.9199,-54.6124 86.1859,-29.3352 87.9136,-22.3657"/>
</g>
<!-- 2 -->
<g id="node3" class="node"><title>2</title>
<ellipse fill="black" stroke="black" cx="52.1617" cy="-19.1513" rx="1.8" ry="1.8"/>
</g>
<!-- 0&#45;&#45;2 -->
<g id="edge2" class="edge"><title>0&#45;&#45;2</title>
<path fill="none" stroke="black" d="M76.6134,-61.6156C72.4107,-54.317 57.3732,-28.2019 53.227,-21.0013"/>
</g>
<!-- 3 -->
<g id="node4" class="node"><title>3</title>
<ellipse fill="black" stroke="black" cx="112.53" cy="-96.1513" rx="1.8" ry="1.8"/>
</g>
<!-- 0&#45;&#45;3 -->
<g id="edge3" class="edge"><title>0&#45;&#45;3</title>
<path fill="none" stroke="black" d="M79.2073,-64.9242C84.9346,-70.2913 105.428,-89.4957 111.078,-94.7908"/>
</g>
<!-- 4 -->
<g id="node5" class="node"><title>4</title>
<ellipse fill="black" stroke="black" cx="124.834" cy="-60.5286" rx="1.8" ry="1.8"/>
</g>
<!-- 0&#45;&#45;4 -->
<g id="edge4" class="edge"><title>0&#45;&#45;4</title>
<path fill="none" stroke="black" d="M79.736,-63.3935C87.4871,-62.9011 115.222,-61.1393 122.869,-60.6535"/>
</g>
<!-- 5 -->
<g id="node6" class="node"><title>5</title>
<ellipse fill="black" stroke="black" cx="42.8549" cy="-94.703" rx="1.8" ry="1.8"/>
</g>
<!-- 0&#45;&#45;5 -->
<g id="edge5" class="edge"><title>0&#45;&#45;5</title>
<path fill="none" stroke="black" d="M76.2135,-64.8619C70.4799,-69.9909 49.9647,-88.3429 44.3082,-93.4029"/>
</g>
<!-- 6 -->
<g id="node7" class="node"><title>6</title>
<ellipse fill="black" stroke="black" cx="132.359" cy="-1.8" rx="1.8" ry="1.8"/>
</g>
<!-- 0&#45;&#45;6 -->
<g id="edge6" class="edge"><title>0&#45;&#45;6</title>
<path fill="none" stroke="black" d="M79.062,-61.9964C86.557,-53.5313 122.978,-12.3961 130.855,-3.49904"/>
</g>
<!-- 7 -->
<g id="node8" class="node"><title>7</title>
<ellipse fill="black" stroke="black" cx="169.277" cy="-51.2103" rx="1.8" ry="1.8"/>
</g>
<!-- 0&#45;&#45;7 -->
<g id="edge7" class="edge"><title>0&#45;&#45;7</title>
<path fill="none" stroke="black" d="M79.6237,-63.265C91.5401,-61.6627 155.489,-53.0642 167.375,-51.4661"/>
</g>
<!-- 8 -->
<g id="node9" class="node"><title>8</title>
<ellipse fill="black" stroke="black" cx="1.8" cy="-40.2508" rx="1.8" ry="1.8"/>
</g>
<!-- 0&#45;&#45;8 -->
<g id="edge8" class="edge"><title>0&#45;&#45;8</title>
<path fill="none" stroke="black" d="M75.8347,-62.9469C65.3323,-59.7272 13.9413,-43.9728 3.61088,-40.8059"/>
</g>
<!-- 1&#45;&#45;2 -->
<g id="edge9" class="edge"><title>1&#45;&#45;2</title>
<path fill="none" stroke="black" d="M86.4114,-20.4984C80.1854,-20.2535 60.7831,-19.4904 54.2975,-19.2353"/>
</g>
<!-- 1&#45;&#45;3 -->
<g id="edge10" class="edge"><title>1&#45;&#45;3</title>
<path fill="none" stroke="black" d="M88.955,-22.4432C92.2993,-32.8993 108.664,-84.0635 111.953,-94.3484"/>
</g>
<!-- 1&#45;&#45;4 -->
<g id="edge11" class="edge"><title>1&#45;&#45;4</title>
<path fill="none" stroke="black" d="M89.5711,-21.9043C95.1091,-27.9703 117.954,-52.9926 123.578,-59.1534"/>
</g>
<!-- 1&#45;&#45;5 -->
<g id="edge12" class="edge"><title>1&#45;&#45;5</title>
<path fill="none" stroke="black" d="M87.4071,-22.1232C81.4854,-31.7703 49.7065,-83.5411 43.8,-93.1633"/>
</g>
<!-- 1&#45;&#45;6 -->
<g id="edge13" class="edge"><title>1&#45;&#45;6</title>
<path fill="none" stroke="black" d="M90.2482,-19.7682C97.486,-16.6799 123.384,-5.62966 130.525,-2.58283"/>
</g>
<!-- 1&#45;&#45;7 -->
<g id="edge14" class="edge"><title>1&#45;&#45;7</title>
<path fill="none" stroke="black" d="M90.0476,-21.2148C100.488,-25.1674 156.121,-46.2298 167.314,-50.4673"/>
</g>
<!-- 1&#45;&#45;8 -->
<g id="edge15" class="edge"><title>1&#45;&#45;8</title>
<path fill="none" stroke="black" d="M86.5496,-20.9859C75.285,-23.5466 14.8336,-37.288 3.59793,-39.8421"/>
</g>
<!-- 2&#45;&#45;3 -->
<g id="edge16" class="edge"><title>2&#45;&#45;3</title>
<path fill="none" stroke="black" d="M53.4226,-20.7595C61.2789,-30.7803 103.44,-84.5568 111.276,-94.5519"/>
</g>
<!-- 2&#45;&#45;4 -->
<g id="edge17" class="edge"><title>2&#45;&#45;4</title>
<path fill="none" stroke="black" d="M53.9581,-20.1741C64.0124,-25.8987 113.21,-53.9107 123.1,-59.5416"/>
</g>
<!-- 2&#45;&#45;5 -->
<g id="edge18" class="edge"><title>2&#45;&#45;5</title>
<path fill="none" stroke="black" d="M51.9317,-21.0188C50.6441,-31.4716 44.3434,-82.6192 43.0769,-92.9007"/>
</g>
<!-- 2&#45;&#45;6 -->
<g id="edge19" class="edge"><title>2&#45;&#45;6</title>
<path fill="none" stroke="black" d="M54.1442,-18.7224C65.2396,-16.3218 119.532,-4.57518 130.446,-2.21392"/>
</g>
<!-- 2&#45;&#45;8 -->
<g id="edge20" class="edge"><title>2&#45;&#45;8</title>
<path fill="none" stroke="black" d="M50.4861,-19.8533C42.8399,-23.0567 11.2993,-36.271 3.53356,-39.5245"/>
</g>
<!-- 3&#45;&#45;4 -->
<g id="edge21" class="edge"><title>3&#45;&#45;4</title>
<path fill="none" stroke="black" d="M113.191,-94.236C115.348,-87.993 122.153,-68.2883 124.228,-62.283"/>
</g>
<!-- 3&#45;&#45;5 -->
<g id="edge22" class="edge"><title>3&#45;&#45;5</title>
<path fill="none" stroke="black" d="M110.52,-96.1095C100.345,-95.898 54.6214,-94.9476 44.741,-94.7422"/>
</g>
<!-- 3&#45;&#45;6 -->
<g id="edge23" class="edge"><title>3&#45;&#45;6</title>
<path fill="none" stroke="black" d="M112.944,-94.1806C115.524,-81.9017 129.373,-16.0071 131.947,-3.75982"/>
</g>
<!-- 3&#45;&#45;7 -->
<g id="edge24" class="edge"><title>3&#45;&#45;7</title>
<path fill="none" stroke="black" d="M114.418,-94.656C123.187,-87.711 159.851,-58.6751 167.766,-52.4066"/>
</g>
<!-- 4&#45;&#45;5 -->
<g id="edge25" class="edge"><title>4&#45;&#45;5</title>
<path fill="none" stroke="black" d="M123.121,-61.2424C112.453,-65.6899 55.199,-89.5572 44.5577,-93.9932"/>
</g>
<!-- 4&#45;&#45;6 -->
<g id="edge26" class="edge"><title>4&#45;&#45;6</title>
<path fill="none" stroke="black" d="M125.084,-58.5746C126.227,-49.6581 130.94,-12.8774 132.1,-3.82157"/>
</g>
<!-- 4&#45;&#45;7 -->
<g id="edge27" class="edge"><title>4&#45;&#45;7</title>
<path fill="none" stroke="black" d="M126.743,-60.1283C134.054,-58.5955 160.212,-53.111 167.424,-51.5989"/>
</g>
<!-- 5&#45;&#45;8 -->
<g id="edge28" class="edge"><title>5&#45;&#45;8</title>
<path fill="none" stroke="black" d="M41.4889,-92.8913C35.1444,-84.4764 8.61929,-49.2954 2.89282,-41.7002"/>
</g>
<!-- 6&#45;&#45;7 -->
<g id="edge29" class="edge"><title>6&#45;&#45;7</title>
<path fill="none" stroke="black" d="M133.588,-3.44397C139.193,-10.9457 162.314,-41.8905 168.006,-49.5095"/>
</g>
</g>
</svg>
