<?xml version="1.0" encoding="UTF-8" standalone="no"?>
<!DOCTYPE svg PUBLIC "-//W3C//DTD SVG 1.1//EN"
 "http://www.w3.org/Graphics/SVG/1.1/DTD/svg11.dtd">
<!-- Generated by graphviz version 2.36.0 (20140111.2315)
 -->
<!-- Title: %3 Pages: 1 -->
<svg width="173pt" height="127pt"
 viewBox="0.00 0.00 173.06 127.24" xmlns="http://www.w3.org/2000/svg" xmlns:xlink="http://www.w3.org/1999/xlink">
<g id="graph0" class="graph" transform="scale(1 1) rotate(0) translate(4 123.239)">
<title>%3</title>
<!-- 0 -->
<g id="node1" class="node"><title>0</title>
<ellipse fill="black" stroke="black" cx="85.4144" cy="-18.6698" rx="1.8" ry="1.8"/>
</g>
<!-- 1 -->
<g id="node2" class="node"><title>1</title>
<ellipse fill="black" stroke="black" cx="131.759" cy="-80.2729" rx="1.8" ry="1.8"/>
</g>
<!-- 0&#45;&#45;1 -->
<g id="edge1" class="edge"><title>0&#45;&#45;1</title>
<path fill="none" stroke="black" d="M86.56,-20.1926C92.9161,-28.6414 123.802,-69.6973 130.483,-78.5772"/>
</g>
<!-- 2 -->
<g id="node3" class="node"><title>2</title>
<ellipse fill="black" stroke="black" cx="120.788" cy="-46.122" rx="1.8" ry="1.8"/>
</g>
<!-- 0&#45;&#45;2 -->
<g id="edge2" class="edge"><title>0&#45;&#45;2</title>
<path fill="none" stroke="black" d="M86.9344,-19.8494C92.753,-24.365 113.573,-40.5224 119.313,-44.9774"/>
</g>
<!-- 3 -->
<g id="node4" class="node"><title>3</title>
<ellipse fill="black" stroke="black" cx="37.8304" cy="-91.1871" rx="1.8" ry="1.8"/>
</g>
<!-- 0&#45;&#45;3 -->
<g id="edge3" class="edge"><title>0&#45;&#45;3</title>
<path fill="none" stroke="black" d="M84.4206,-20.1844C78.228,-29.6219 44.9954,-80.2676 38.8187,-89.6808"/>
</g>
<!-- 4 -->
<g id="node5" class="node"><title>4</title>
<ellipse fill="black" stroke="black" cx="68.3529" cy="-80.8413" rx="1.8" ry="1.8"/>
</g>
<!-- 0&#45;&#45;4 -->
<g id="edge4" class="edge"><title>0&#45;&#45;4</title>
<path fill="none" stroke="black" d="M84.9222,-20.4634C82.4745,-29.3829 71.6244,-68.9201 68.9501,-78.665"/>
</g>
<!-- 5 -->
<g id="node6" class="node"><title>5</title>
<ellipse fill="black" stroke="black" cx="96.3105" cy="-117.439" rx="1.8" ry="1.8"/>
</g>
<!-- 0&#45;&#45;5 -->
<g id="edge5" class="edge"><title>0&#45;&#45;5</title>
<path fill="none" stroke="black" d="M85.642,-20.7328C87.06,-33.5866 94.6698,-102.567 96.0841,-115.387"/>
</g>
<!-- 6 -->
<g id="node7" class="node"><title>6</title>
<ellipse fill="black" stroke="black" cx="53.2499" cy="-42.1532" rx="1.8" ry="1.8"/>
</g>
<!-- 0&#45;&#45;6 -->
<g id="edge6" class="edge"><title>0&#45;&#45;6</title>
<path fill="none" stroke="black" d="M83.6851,-19.9324C78.0481,-24.048 60.2563,-37.0378 54.834,-40.9967"/>
</g>
<!-- 7 -->
<g id="node8" class="node"><title>7</title>
<ellipse fill="black" stroke="black" cx="163.256" cy="-1.8" rx="1.8" ry="1.8"/>
</g>
<!-- 0&#45;&#45;7 -->
<g id="edge7" class="edge"><title>0&#45;&#45;7</title>
<path fill="none" stroke="black" d="M87.3386,-18.2528C98.1082,-15.9188 150.806,-4.49818 161.399,-2.20243"/>
</g>
<!-- 8 -->
<g id="node9" class="node"><title>8</title>
<ellipse fill="black" stroke="black" cx="1.8" cy="-25.0209" rx="1.8" ry="1.8"/>
</g>
<!-- 0&#45;&#45;8 -->
<g id="edge8" class="edge"><title>0&#45;&#45;8</title>
<path fill="none" stroke="black" d="M83.3476,-18.8268C71.7793,-19.7055 15.1734,-24.0051 3.79464,-24.8694"/>
</g>
<!-- 1&#45;&#45;2 -->
<g id="edge9" class="edge"><title>1&#45;&#45;2</title>
<path fill="none" stroke="black" d="M131.169,-78.4368C129.282,-72.5625 123.401,-54.2563 121.435,-48.1371"/>
</g>
<!-- 1&#45;&#45;3 -->
<g id="edge10" class="edge"><title>1&#45;&#45;3</title>
<path fill="none" stroke="black" d="M129.797,-80.5009C117.573,-81.9213 51.9738,-89.5436 39.7814,-90.9603"/>
</g>
<!-- 1&#45;&#45;4 -->
<g id="edge11" class="edge"><title>1&#45;&#45;4</title>
<path fill="none" stroke="black" d="M129.929,-80.2893C120.833,-80.3709 80.5107,-80.7323 70.5723,-80.8214"/>
</g>
<!-- 1&#45;&#45;5 -->
<g id="edge12" class="edge"><title>1&#45;&#45;5</title>
<path fill="none" stroke="black" d="M130.235,-81.8699C124.405,-87.9834 103.541,-109.858 97.7885,-115.889"/>
</g>
<!-- 1&#45;&#45;6 -->
<g id="edge13" class="edge"><title>1&#45;&#45;6</title>
<path fill="none" stroke="black" d="M130.119,-79.4767C119.902,-74.5158 65.0715,-47.8931 54.8807,-42.945"/>
</g>
<!-- 1&#45;&#45;7 -->
<g id="edge14" class="edge"><title>1&#45;&#45;7</title>
<path fill="none" stroke="black" d="M132.537,-78.3331C136.895,-67.4763 158.218,-14.3511 162.505,-3.67199"/>
</g>
<!-- 2&#45;&#45;3 -->
<g id="edge15" class="edge"><title>2&#45;&#45;3</title>
<path fill="none" stroke="black" d="M119.055,-47.0633C108.259,-52.9281 50.3219,-84.4013 39.5535,-90.251"/>
</g>
<!-- 2&#45;&#45;4 -->
<g id="edge16" class="edge"><title>2&#45;&#45;4</title>
<path fill="none" stroke="black" d="M119.043,-47.2772C111.082,-52.5485 78.2432,-74.2925 70.1578,-79.6462"/>
</g>
<!-- 2&#45;&#45;5 -->
<g id="edge17" class="edge"><title>2&#45;&#45;5</title>
<path fill="none" stroke="black" d="M120.183,-47.8849C116.826,-57.666 100.513,-105.196 96.9843,-115.476"/>
</g>
<!-- 2&#45;&#45;6 -->
<g id="edge18" class="edge"><title>2&#45;&#45;6</title>
<path fill="none" stroke="black" d="M118.839,-46.0075C108.977,-45.428 64.6556,-42.8234 55.0783,-42.2606"/>
</g>
<!-- 2&#45;&#45;7 -->
<g id="edge19" class="edge"><title>2&#45;&#45;7</title>
<path fill="none" stroke="black" d="M122.201,-44.6474C128.649,-37.9181 155.246,-10.16 161.794,-3.32566"/>
</g>
<!-- 3&#45;&#45;4 -->
<g id="edge20" class="edge"><title>3&#45;&#45;4</title>
<path fill="none" stroke="black" d="M39.833,-90.5082C45.4564,-88.6022 61.3247,-83.2235 66.6133,-81.4309"/>
</g>
<!-- 3&#45;&#45;5 -->
<g id="edge21" class="edge"><title>3&#45;&#45;5</title>
<path fill="none" stroke="black" d="M39.5175,-91.9444C47.9074,-95.7107 85.0971,-112.405 94.2634,-116.52"/>
</g>
<!-- 3&#45;&#45;6 -->
<g id="edge22" class="edge"><title>3&#45;&#45;6</title>
<path fill="none" stroke="black" d="M38.4929,-89.0801C41.0293,-81.0146 50.1047,-52.155 52.607,-44.1977"/>
</g>
<!-- 3&#45;&#45;8 -->
<g id="edge23" class="edge"><title>3&#45;&#45;8</title>
<path fill="none" stroke="black" d="M36.9397,-89.5515C31.9982,-80.4769 7.98548,-36.3799 2.79182,-26.8423"/>
</g>
<!-- 4&#45;&#45;5 -->
<g id="edge24" class="edge"><title>4&#45;&#45;5</title>
<path fill="none" stroke="black" d="M69.5542,-82.4139C74.1529,-88.4338 90.6078,-109.974 95.1448,-115.913"/>
</g>
<!-- 4&#45;&#45;6 -->
<g id="edge25" class="edge"><title>4&#45;&#45;6</title>
<path fill="none" stroke="black" d="M67.5409,-78.7613C64.894,-71.981 56.5398,-50.5806 53.9938,-44.0585"/>
</g>
<!-- 4&#45;&#45;8 -->
<g id="edge26" class="edge"><title>4&#45;&#45;8</title>
<path fill="none" stroke="black" d="M66.7077,-79.4615C57.5801,-71.8058 13.2254,-34.6038 3.63202,-26.5575"/>
</g>
<!-- 5&#45;&#45;6 -->
<g id="edge27" class="edge"><title>5&#45;&#45;6</title>
<path fill="none" stroke="black" d="M95.4111,-115.867C89.8072,-106.069 59.7339,-53.4895 54.1444,-43.717"/>
</g>
</g>
</svg>
