<?xml version="1.0" encoding="UTF-8" standalone="no"?>
<!DOCTYPE svg PUBLIC "-//W3C//DTD SVG 1.1//EN"
 "http://www.w3.org/Graphics/SVG/1.1/DTD/svg11.dtd">
<!-- Generated by graphviz version 2.36.0 (20140111.2315)
 -->
<!-- Title: %3 Pages: 1 -->
<svg width="192pt" height="171pt"
 viewBox="0.00 0.00 192.11 170.78" xmlns="http://www.w3.org/2000/svg" xmlns:xlink="http://www.w3.org/1999/xlink">
<g id="graph0" class="graph" transform="scale(1 1) rotate(0) translate(4 166.78)">
<title>%3</title>
<!-- 0 -->
<g id="node1" class="node"><title>0</title>
<ellipse fill="black" stroke="black" cx="95.8406" cy="-71.9208" rx="1.8" ry="1.8"/>
</g>
<!-- 1 -->
<g id="node2" class="node"><title>1</title>
<ellipse fill="black" stroke="black" cx="53.3085" cy="-81.5365" rx="1.8" ry="1.8"/>
</g>
<!-- 0&#45;&#45;1 -->
<g id="edge1" class="edge"><title>0&#45;&#45;1</title>
<path fill="none" stroke="black" d="M94.013,-72.334C87.0169,-73.9157 61.984,-79.5751 55.0819,-81.1356"/>
</g>
<!-- 2 -->
<g id="node3" class="node"><title>2</title>
<ellipse fill="black" stroke="black" cx="128.023" cy="-112.356" rx="1.8" ry="1.8"/>
</g>
<!-- 0&#45;&#45;2 -->
<g id="edge2" class="edge"><title>0&#45;&#45;2</title>
<path fill="none" stroke="black" d="M97.2234,-73.6583C102.517,-80.3095 121.458,-104.108 126.681,-110.67"/>
</g>
<!-- 3 -->
<g id="node4" class="node"><title>3</title>
<ellipse fill="black" stroke="black" cx="44.4911" cy="-133.792" rx="1.8" ry="1.8"/>
</g>
<!-- 0&#45;&#45;3 -->
<g id="edge3" class="edge"><title>0&#45;&#45;3</title>
<path fill="none" stroke="black" d="M94.5713,-73.4502C87.5287,-81.9357 53.3065,-123.17 45.9046,-132.088"/>
</g>
<!-- 4 -->
<g id="node5" class="node"><title>4</title>
<ellipse fill="black" stroke="black" cx="182.312" cy="-90.2932" rx="1.8" ry="1.8"/>
</g>
<!-- 0&#45;&#45;4 -->
<g id="edge4" class="edge"><title>0&#45;&#45;4</title>
<path fill="none" stroke="black" d="M97.6467,-72.3046C108.9,-74.6956 169.292,-87.5268 180.516,-89.9116"/>
</g>
<!-- 5 -->
<g id="node6" class="node"><title>5</title>
<ellipse fill="black" stroke="black" cx="87.1812" cy="-160.98" rx="1.8" ry="1.8"/>
</g>
<!-- 0&#45;&#45;5 -->
<g id="edge5" class="edge"><title>0&#45;&#45;5</title>
<path fill="none" stroke="black" d="M95.6597,-73.781C94.5328,-85.3712 88.4851,-147.57 87.3611,-159.13"/>
</g>
<!-- 6 -->
<g id="node7" class="node"><title>6</title>
<ellipse fill="black" stroke="black" cx="1.8" cy="-77.4436" rx="1.8" ry="1.8"/>
</g>
<!-- 0&#45;&#45;6 -->
<g id="edge6" class="edge"><title>0&#45;&#45;6</title>
<path fill="none" stroke="black" d="M93.8764,-72.0362C81.6379,-72.7549 15.9603,-76.612 3.75336,-77.3289"/>
</g>
<!-- 7 -->
<g id="node8" class="node"><title>7</title>
<ellipse fill="black" stroke="black" cx="159.923" cy="-36.732" rx="1.8" ry="1.8"/>
</g>
<!-- 0&#45;&#45;7 -->
<g id="edge7" class="edge"><title>0&#45;&#45;7</title>
<path fill="none" stroke="black" d="M97.4247,-71.051C106.214,-66.2249 148.922,-42.773 158.159,-37.7007"/>
</g>
<!-- 8 -->
<g id="node9" class="node"><title>8</title>
<ellipse fill="black" stroke="black" cx="61.6168" cy="-1.8" rx="1.8" ry="1.8"/>
</g>
<!-- 0&#45;&#45;8 -->
<g id="edge8" class="edge"><title>0&#45;&#45;8</title>
<path fill="none" stroke="black" d="M94.9946,-70.1875C90.3008,-60.5705 67.4921,-13.8379 62.5589,-3.73023"/>
</g>
<!-- 1&#45;&#45;2 -->
<g id="edge9" class="edge"><title>1&#45;&#45;2</title>
<path fill="none" stroke="black" d="M55.1554,-82.2983C65.4922,-86.5623 116.073,-107.427 126.241,-111.621"/>
</g>
<!-- 1&#45;&#45;3 -->
<g id="edge10" class="edge"><title>1&#45;&#45;3</title>
<path fill="none" stroke="black" d="M52.9296,-83.7818C51.4792,-92.3773 46.2896,-123.133 44.8587,-131.613"/>
</g>
<!-- 1&#45;&#45;5 -->
<g id="edge11" class="edge"><title>1&#45;&#45;5</title>
<path fill="none" stroke="black" d="M54.016,-83.1958C58.3862,-93.4455 81.6743,-148.064 86.3596,-159.053"/>
</g>
<!-- 1&#45;&#45;6 -->
<g id="edge12" class="edge"><title>1&#45;&#45;6</title>
<path fill="none" stroke="black" d="M51.0952,-81.3606C42.6226,-80.6874 12.3065,-78.2784 3.94768,-77.6142"/>
</g>
<!-- 1&#45;&#45;8 -->
<g id="edge13" class="edge"><title>1&#45;&#45;8</title>
<path fill="none" stroke="black" d="M53.5139,-79.5655C54.6633,-68.5338 60.288,-14.5532 61.4186,-3.70213"/>
</g>
<!-- 2&#45;&#45;3 -->
<g id="edge14" class="edge"><title>2&#45;&#45;3</title>
<path fill="none" stroke="black" d="M126.278,-112.804C115.501,-115.569 58.0714,-130.307 46.5171,-133.272"/>
</g>
<!-- 2&#45;&#45;4 -->
<g id="edge15" class="edge"><title>2&#45;&#45;4</title>
<path fill="none" stroke="black" d="M129.829,-111.622C138.072,-108.272 172.072,-94.4547 180.444,-91.0527"/>
</g>
<!-- 2&#45;&#45;7 -->
<g id="edge16" class="edge"><title>2&#45;&#45;7</title>
<path fill="none" stroke="black" d="M128.811,-110.487C133.225,-100.024 154.821,-48.8274 159.162,-38.536"/>
</g>
<!-- 3&#45;&#45;5 -->
<g id="edge17" class="edge"><title>3&#45;&#45;5</title>
<path fill="none" stroke="black" d="M46.3254,-134.96C53.3475,-139.432 78.4734,-155.434 85.4012,-159.846"/>
</g>
<!-- 3&#45;&#45;6 -->
<g id="edge18" class="edge"><title>3&#45;&#45;6</title>
<path fill="none" stroke="black" d="M43.0707,-131.917C36.4733,-123.209 8.89107,-86.8031 2.93638,-78.9435"/>
</g>
<!-- 4&#45;&#45;7 -->
<g id="edge19" class="edge"><title>4&#45;&#45;7</title>
<path fill="none" stroke="black" d="M181.568,-88.5112C178.168,-80.3792 164.146,-46.8347 160.694,-38.5757"/>
</g>
</g>
</svg>
