<?xml version="1.0" encoding="UTF-8" standalone="no"?>
<!DOCTYPE svg PUBLIC "-//W3C//DTD SVG 1.1//EN"
 "http://www.w3.org/Graphics/SVG/1.1/DTD/svg11.dtd">
<!-- Generated by graphviz version 2.36.0 (20140111.2315)
 -->
<!-- Title: %3 Pages: 1 -->
<svg width="197pt" height="158pt"
 viewBox="0.00 0.00 196.71 157.73" xmlns="http://www.w3.org/2000/svg" xmlns:xlink="http://www.w3.org/1999/xlink">
<g id="graph0" class="graph" transform="scale(1 1) rotate(0) translate(4 153.729)">
<title>%3</title>
<!-- 0 -->
<g id="node1" class="node"><title>0</title>
<ellipse fill="black" stroke="black" cx="119.137" cy="-80.5085" rx="1.8" ry="1.8"/>
</g>
<!-- 2 -->
<g id="node2" class="node"><title>2</title>
<ellipse fill="black" stroke="black" cx="150.948" cy="-16.851" rx="1.8" ry="1.8"/>
</g>
<!-- 0&#45;&#45;2 -->
<g id="edge1" class="edge"><title>0&#45;&#45;2</title>
<path fill="none" stroke="black" d="M120.054,-78.672C124.7,-69.3762 145.576,-27.6013 150.087,-18.5742"/>
</g>
<!-- 3 -->
<g id="node3" class="node"><title>3</title>
<ellipse fill="black" stroke="black" cx="137.686" cy="-147.929" rx="1.8" ry="1.8"/>
</g>
<!-- 0&#45;&#45;3 -->
<g id="edge2" class="edge"><title>0&#45;&#45;3</title>
<path fill="none" stroke="black" d="M119.672,-82.4535C122.38,-92.2988 134.553,-136.543 137.183,-146.104"/>
</g>
<!-- 4 -->
<g id="node4" class="node"><title>4</title>
<ellipse fill="black" stroke="black" cx="26.155" cy="-74.1667" rx="1.8" ry="1.8"/>
</g>
<!-- 0&#45;&#45;4 -->
<g id="edge3" class="edge"><title>0&#45;&#45;4</title>
<path fill="none" stroke="black" d="M117.195,-80.376C105.094,-79.5507 40.1559,-75.1216 28.0864,-74.2984"/>
</g>
<!-- 6 -->
<g id="node5" class="node"><title>6</title>
<ellipse fill="black" stroke="black" cx="186.914" cy="-87.0252" rx="1.8" ry="1.8"/>
</g>
<!-- 0&#45;&#45;6 -->
<g id="edge4" class="edge"><title>0&#45;&#45;6</title>
<path fill="none" stroke="black" d="M121.092,-80.6965C130.989,-81.6481 175.468,-85.9247 185.079,-86.8488"/>
</g>
<!-- 2&#45;&#45;6 -->
<g id="edge9" class="edge"><title>2&#45;&#45;6</title>
<path fill="none" stroke="black" d="M151.837,-18.5856C156.77,-28.2099 180.74,-74.9781 185.924,-85.0935"/>
</g>
<!-- 5 -->
<g id="node7" class="node"><title>5</title>
<ellipse fill="black" stroke="black" cx="73.5513" cy="-18.4496" rx="1.8" ry="1.8"/>
</g>
<!-- 2&#45;&#45;5 -->
<g id="edge8" class="edge"><title>2&#45;&#45;5</title>
<path fill="none" stroke="black" d="M149.035,-16.8905C138.327,-17.1117 85.9303,-18.1939 75.3976,-18.4114"/>
</g>
<!-- 3&#45;&#45;6 -->
<g id="edge10" class="edge"><title>3&#45;&#45;6</title>
<path fill="none" stroke="black" d="M138.902,-146.424C145.654,-138.071 178.463,-97.4808 185.559,-88.7017"/>
</g>
<!-- 7 -->
<g id="node8" class="node"><title>7</title>
<ellipse fill="black" stroke="black" cx="1.8" cy="-1.8" rx="1.8" ry="1.8"/>
</g>
<!-- 4&#45;&#45;7 -->
<g id="edge11" class="edge"><title>4&#45;&#45;7</title>
<path fill="none" stroke="black" d="M25.553,-72.3778C22.1834,-62.3657 5.69537,-13.3744 2.38099,-3.52632"/>
</g>
<!-- 1 -->
<g id="node6" class="node"><title>1</title>
<ellipse fill="black" stroke="black" cx="62.947" cy="-119.281" rx="1.8" ry="1.8"/>
</g>
<!-- 1&#45;&#45;3 -->
<g id="edge5" class="edge"><title>1&#45;&#45;3</title>
<path fill="none" stroke="black" d="M64.7945,-119.989C75.1347,-123.952 125.732,-143.347 135.903,-147.246"/>
</g>
<!-- 1&#45;&#45;4 -->
<g id="edge6" class="edge"><title>1&#45;&#45;4</title>
<path fill="none" stroke="black" d="M61.7229,-117.78C56.1369,-110.93 33.0948,-82.6761 27.4215,-75.7196"/>
</g>
<!-- 1&#45;&#45;5 -->
<g id="edge7" class="edge"><title>1&#45;&#45;5</title>
<path fill="none" stroke="black" d="M63.1685,-117.175C64.5485,-104.053 71.9545,-33.6324 73.331,-20.544"/>
</g>
<!-- 5&#45;&#45;7 -->
<g id="edge12" class="edge"><title>5&#45;&#45;7</title>
<path fill="none" stroke="black" d="M71.7777,-18.038C61.9371,-15.7545 14.1178,-4.6583 3.77512,-2.25832"/>
</g>
</g>
</svg>
