<?xml version="1.0" encoding="UTF-8" standalone="no"?>
<!DOCTYPE svg PUBLIC "-//W3C//DTD SVG 1.1//EN"
 "http://www.w3.org/Graphics/SVG/1.1/DTD/svg11.dtd">
<!-- Generated by graphviz version 2.36.0 (20140111.2315)
 -->
<!-- Title: %3 Pages: 1 -->
<svg width="165pt" height="137pt"
 viewBox="0.00 0.00 164.65 136.66" xmlns="http://www.w3.org/2000/svg" xmlns:xlink="http://www.w3.org/1999/xlink">
<g id="graph0" class="graph" transform="scale(1 1) rotate(0) translate(4 132.66)">
<title>%3</title>
<!-- 0 -->
<g id="node1" class="node"><title>0</title>
<ellipse fill="black" stroke="black" cx="41.2191" cy="-73.9125" rx="1.8" ry="1.8"/>
</g>
<!-- 2 -->
<g id="node2" class="node"><title>2</title>
<ellipse fill="black" stroke="black" cx="134.668" cy="-113.282" rx="1.8" ry="1.8"/>
</g>
<!-- 0&#45;&#45;2 -->
<g id="edge1" class="edge"><title>0&#45;&#45;2</title>
<path fill="none" stroke="black" d="M43.1709,-74.7348C55.3324,-79.8583 120.597,-107.354 132.727,-112.464"/>
</g>
<!-- 3 -->
<g id="node3" class="node"><title>3</title>
<ellipse fill="black" stroke="black" cx="76.5477" cy="-1.8" rx="1.8" ry="1.8"/>
</g>
<!-- 0&#45;&#45;3 -->
<g id="edge2" class="edge"><title>0&#45;&#45;3</title>
<path fill="none" stroke="black" d="M42.0924,-72.13C46.9801,-62.153 70.8972,-13.3338 75.7049,-3.52026"/>
</g>
<!-- 4 -->
<g id="node4" class="node"><title>4</title>
<ellipse fill="black" stroke="black" cx="87.6919" cy="-126.86" rx="1.8" ry="1.8"/>
</g>
<!-- 0&#45;&#45;4 -->
<g id="edge3" class="edge"><title>0&#45;&#45;4</title>
<path fill="none" stroke="black" d="M42.7653,-75.6742C49.9471,-83.8566 79.9727,-118.066 86.4549,-125.451"/>
</g>
<!-- 5 -->
<g id="node5" class="node"><title>5</title>
<ellipse fill="black" stroke="black" cx="110.298" cy="-46.7213" rx="1.8" ry="1.8"/>
</g>
<!-- 0&#45;&#45;5 -->
<g id="edge4" class="edge"><title>0&#45;&#45;5</title>
<path fill="none" stroke="black" d="M42.9266,-73.2404C52.4007,-69.5111 98.4387,-51.3893 108.396,-47.4698"/>
</g>
<!-- 6 -->
<g id="node6" class="node"><title>6</title>
<ellipse fill="black" stroke="black" cx="90.473" cy="-74.0985" rx="1.8" ry="1.8"/>
</g>
<!-- 0&#45;&#45;6 -->
<g id="edge5" class="edge"><title>0&#45;&#45;6</title>
<path fill="none" stroke="black" d="M43.3354,-73.9205C51.4372,-73.9511 80.4264,-74.0606 88.4194,-74.0908"/>
</g>
<!-- 7 -->
<g id="node7" class="node"><title>7</title>
<ellipse fill="black" stroke="black" cx="1.8" cy="-9.52065" rx="1.8" ry="1.8"/>
</g>
<!-- 0&#45;&#45;7 -->
<g id="edge6" class="edge"><title>0&#45;&#45;7</title>
<path fill="none" stroke="black" d="M40.2447,-72.3208C34.8384,-63.4895 8.56723,-20.5751 2.8851,-11.2932"/>
</g>
<!-- 2&#45;&#45;4 -->
<g id="edge12" class="edge"><title>2&#45;&#45;4</title>
<path fill="none" stroke="black" d="M132.65,-113.865C124.923,-116.099 97.274,-124.091 89.6506,-126.294"/>
</g>
<!-- 2&#45;&#45;5 -->
<g id="edge13" class="edge"><title>2&#45;&#45;5</title>
<path fill="none" stroke="black" d="M133.965,-111.362C130.406,-101.642 114.413,-57.9619 110.957,-48.5232"/>
</g>
<!-- 2&#45;&#45;6 -->
<g id="edge14" class="edge"><title>2&#45;&#45;6</title>
<path fill="none" stroke="black" d="M133.198,-111.978C126.488,-106.029 98.8092,-81.4893 91.9943,-75.4473"/>
</g>
<!-- 3&#45;&#45;5 -->
<g id="edge15" class="edge"><title>3&#45;&#45;5</title>
<path fill="none" stroke="black" d="M77.6706,-3.29461C82.7947,-10.1148 103.932,-38.2482 109.136,-45.175"/>
</g>
<!-- 3&#45;&#45;6 -->
<g id="edge16" class="edge"><title>3&#45;&#45;6</title>
<path fill="none" stroke="black" d="M76.8919,-3.58716C78.8017,-13.5028 88.0824,-61.6867 90.0897,-72.1083"/>
</g>
<!-- 3&#45;&#45;7 -->
<g id="edge17" class="edge"><title>3&#45;&#45;7</title>
<path fill="none" stroke="black" d="M74.6999,-1.99085C64.4484,-3.04973 14.6322,-8.19522 3.8576,-9.30813"/>
</g>
<!-- 4&#45;&#45;5 -->
<g id="edge18" class="edge"><title>4&#45;&#45;5</title>
<path fill="none" stroke="black" d="M88.2507,-124.879C91.3783,-113.792 106.682,-59.5388 109.758,-48.633"/>
</g>
<!-- 4&#45;&#45;6 -->
<g id="edge19" class="edge"><title>4&#45;&#45;6</title>
<path fill="none" stroke="black" d="M87.8114,-124.593C88.2689,-115.915 89.9058,-84.8607 90.3571,-76.2985"/>
</g>
<!-- 1 -->
<g id="node8" class="node"><title>1</title>
<ellipse fill="black" stroke="black" cx="154.85" cy="-53.2694" rx="1.8" ry="1.8"/>
</g>
<!-- 1&#45;&#45;2 -->
<g id="edge7" class="edge"><title>1&#45;&#45;2</title>
<path fill="none" stroke="black" d="M154.268,-55.0007C151.373,-63.6104 138.538,-101.775 135.375,-111.181"/>
</g>
<!-- 1&#45;&#45;3 -->
<g id="edge8" class="edge"><title>1&#45;&#45;3</title>
<path fill="none" stroke="black" d="M153.215,-52.1944C143.024,-45.4961 88.3382,-9.5501 78.1741,-2.8691"/>
</g>
<!-- 1&#45;&#45;4 -->
<g id="edge9" class="edge"><title>1&#45;&#45;4</title>
<path fill="none" stroke="black" d="M153.448,-54.8064C144.708,-64.3836 97.8044,-115.779 89.0869,-125.332"/>
</g>
<!-- 1&#45;&#45;5 -->
<g id="edge10" class="edge"><title>1&#45;&#45;5</title>
<path fill="none" stroke="black" d="M152.936,-52.988C145.607,-51.9109 119.385,-48.0569 112.155,-46.9943"/>
</g>
<!-- 1&#45;&#45;6 -->
<g id="edge11" class="edge"><title>1&#45;&#45;6</title>
<path fill="none" stroke="black" d="M152.993,-53.8703C143.592,-56.9119 101.345,-70.5809 92.2158,-73.5346"/>
</g>
</g>
</svg>
