<?xml version="1.0" encoding="UTF-8" standalone="no"?>
<!DOCTYPE svg PUBLIC "-//W3C//DTD SVG 1.1//EN"
 "http://www.w3.org/Graphics/SVG/1.1/DTD/svg11.dtd">
<!-- Generated by graphviz version 2.36.0 (20140111.2315)
 -->
<!-- Title: %3 Pages: 1 -->
<svg width="155pt" height="246pt"
 viewBox="0.00 0.00 155.00 245.59" xmlns="http://www.w3.org/2000/svg" xmlns:xlink="http://www.w3.org/1999/xlink">
<g id="graph0" class="graph" transform="scale(1 1) rotate(0) translate(4 241.595)">
<title>%3</title>
<!-- 0 -->
<g id="node1" class="node"><title>0</title>
<ellipse fill="black" stroke="black" cx="98.2193" cy="-153.624" rx="1.8" ry="1.8"/>
</g>
<!-- 1 -->
<g id="node2" class="node"><title>1</title>
<ellipse fill="black" stroke="black" cx="48.939" cy="-171.89" rx="1.8" ry="1.8"/>
</g>
<!-- 0&#45;&#45;1 -->
<g id="edge1" class="edge"><title>0&#45;&#45;1</title>
<path fill="none" stroke="black" d="M96.1018,-154.409C87.9957,-157.414 58.9911,-168.165 50.9938,-171.129"/>
</g>
<!-- 2 -->
<g id="node3" class="node"><title>2</title>
<ellipse fill="black" stroke="black" cx="75.1052" cy="-122.346" rx="1.8" ry="1.8"/>
</g>
<!-- 0&#45;&#45;2 -->
<g id="edge2" class="edge"><title>0&#45;&#45;2</title>
<path fill="none" stroke="black" d="M96.9766,-151.943C92.9257,-146.461 80.1401,-129.159 76.2435,-123.886"/>
</g>
<!-- 3 -->
<g id="node4" class="node"><title>3</title>
<ellipse fill="black" stroke="black" cx="76.3859" cy="-75.8255" rx="1.8" ry="1.8"/>
</g>
<!-- 0&#45;&#45;3 -->
<g id="edge3" class="edge"><title>0&#45;&#45;3</title>
<path fill="none" stroke="black" d="M97.6796,-151.701C94.6589,-140.938 79.8779,-88.2687 76.9067,-77.6814"/>
</g>
<!-- 4 -->
<g id="node5" class="node"><title>4</title>
<ellipse fill="black" stroke="black" cx="124.723" cy="-200.962" rx="1.8" ry="1.8"/>
</g>
<!-- 0&#45;&#45;4 -->
<g id="edge4" class="edge"><title>0&#45;&#45;4</title>
<path fill="none" stroke="black" d="M99.1012,-155.199C103.125,-162.386 119.724,-192.034 123.811,-199.333"/>
</g>
<!-- 5 -->
<g id="node6" class="node"><title>5</title>
<ellipse fill="black" stroke="black" cx="75.7947" cy="-235.795" rx="1.8" ry="1.8"/>
</g>
<!-- 0&#45;&#45;5 -->
<g id="edge5" class="edge"><title>0&#45;&#45;5</title>
<path fill="none" stroke="black" d="M97.665,-155.655C94.5625,-167.024 79.3814,-222.652 76.3297,-233.834"/>
</g>
<!-- 6 -->
<g id="node7" class="node"><title>6</title>
<ellipse fill="black" stroke="black" cx="1.8" cy="-143.001" rx="1.8" ry="1.8"/>
</g>
<!-- 0&#45;&#45;6 -->
<g id="edge6" class="edge"><title>0&#45;&#45;6</title>
<path fill="none" stroke="black" d="M96.2055,-153.402C83.6574,-152.02 16.3185,-144.6 3.80277,-143.222"/>
</g>
<!-- 7 -->
<g id="node8" class="node"><title>7</title>
<ellipse fill="black" stroke="black" cx="145.203" cy="-93.6835" rx="1.8" ry="1.8"/>
</g>
<!-- 0&#45;&#45;7 -->
<g id="edge7" class="edge"><title>0&#45;&#45;7</title>
<path fill="none" stroke="black" d="M99.3807,-152.143C105.825,-143.922 137.137,-103.974 143.91,-95.3335"/>
</g>
<!-- 1&#45;&#45;2 -->
<g id="edge8" class="edge"><title>1&#45;&#45;2</title>
<path fill="none" stroke="black" d="M49.8096,-170.242C53.7823,-162.72 70.1697,-131.691 74.2045,-124.051"/>
</g>
<!-- 1&#45;&#45;3 -->
<g id="edge9" class="edge"><title>1&#45;&#45;3</title>
<path fill="none" stroke="black" d="M49.5123,-169.884C53.0842,-157.382 72.253,-90.2906 75.8158,-77.8209"/>
</g>
<!-- 1&#45;&#45;4 -->
<g id="edge10" class="edge"><title>1&#45;&#45;4</title>
<path fill="none" stroke="black" d="M50.8124,-172.609C61.2973,-176.631 112.602,-196.313 122.916,-200.269"/>
</g>
<!-- 1&#45;&#45;5 -->
<g id="edge11" class="edge"><title>1&#45;&#45;5</title>
<path fill="none" stroke="black" d="M49.7138,-173.734C53.6355,-183.066 71.2594,-225.003 75.0677,-234.065"/>
</g>
<!-- 1&#45;&#45;6 -->
<g id="edge12" class="edge"><title>1&#45;&#45;6</title>
<path fill="none" stroke="black" d="M47.3706,-170.929C40.2137,-166.543 10.6914,-148.45 3.42263,-143.995"/>
</g>
<!-- 2&#45;&#45;3 -->
<g id="edge13" class="edge"><title>2&#45;&#45;3</title>
<path fill="none" stroke="black" d="M75.1602,-120.347C75.3709,-112.695 76.1246,-85.3146 76.3325,-77.7652"/>
</g>
<!-- 2&#45;&#45;4 -->
<g id="edge14" class="edge"><title>2&#45;&#45;4</title>
<path fill="none" stroke="black" d="M76.1415,-123.988C82.5989,-134.219 117.252,-189.125 123.693,-199.329"/>
</g>
<!-- 2&#45;&#45;6 -->
<g id="edge15" class="edge"><title>2&#45;&#45;6</title>
<path fill="none" stroke="black" d="M73.2931,-122.857C63.1512,-125.714 13.5245,-139.697 3.54871,-142.508"/>
</g>
<!-- 2&#45;&#45;7 -->
<g id="edge16" class="edge"><title>2&#45;&#45;7</title>
<path fill="none" stroke="black" d="M76.8379,-121.637C86.4518,-117.706 133.169,-98.6041 143.274,-94.4725"/>
</g>
<!-- 3&#45;&#45;7 -->
<g id="edge17" class="edge"><title>3&#45;&#45;7</title>
<path fill="none" stroke="black" d="M78.3712,-76.3407C88.4204,-78.9484 133.581,-90.6677 143.34,-93.2001"/>
</g>
<!-- 8 -->
<g id="node9" class="node"><title>8</title>
<ellipse fill="black" stroke="black" cx="58.3314" cy="-1.8" rx="1.8" ry="1.8"/>
</g>
<!-- 3&#45;&#45;8 -->
<g id="edge18" class="edge"><title>3&#45;&#45;8</title>
<path fill="none" stroke="black" d="M75.9396,-73.9956C73.4417,-63.754 61.219,-13.6397 58.7621,-3.56589"/>
</g>
<!-- 4&#45;&#45;5 -->
<g id="edge19" class="edge"><title>4&#45;&#45;5</title>
<path fill="none" stroke="black" d="M123.095,-202.121C115.667,-207.41 85.0237,-229.225 77.479,-234.596"/>
</g>
</g>
</svg>
