<?xml version="1.0" encoding="UTF-8" standalone="no"?>
<!DOCTYPE svg PUBLIC "-//W3C//DTD SVG 1.1//EN"
 "http://www.w3.org/Graphics/SVG/1.1/DTD/svg11.dtd">
<!-- Generated by graphviz version 2.36.0 (20140111.2315)
 -->
<!-- Title: %3 Pages: 1 -->
<svg width="138pt" height="283pt"
 viewBox="0.00 0.00 138.27 283.04" xmlns="http://www.w3.org/2000/svg" xmlns:xlink="http://www.w3.org/1999/xlink">
<g id="graph0" class="graph" transform="scale(1 1) rotate(0) translate(4 279.044)">
<title>%3</title>
<!-- 0 -->
<g id="node1" class="node"><title>0</title>
<ellipse fill="black" stroke="black" cx="60.8988" cy="-123.961" rx="1.8" ry="1.8"/>
</g>
<!-- 1 -->
<g id="node2" class="node"><title>1</title>
<ellipse fill="black" stroke="black" cx="124.196" cy="-132.08" rx="1.8" ry="1.8"/>
</g>
<!-- 0&#45;&#45;1 -->
<g id="edge1" class="edge"><title>0&#45;&#45;1</title>
<path fill="none" stroke="black" d="M62.7249,-124.195C71.8059,-125.36 112.059,-130.523 121.98,-131.796"/>
</g>
<!-- 2 -->
<g id="node3" class="node"><title>2</title>
<ellipse fill="black" stroke="black" cx="72.1565" cy="-56.7112" rx="1.8" ry="1.8"/>
</g>
<!-- 0&#45;&#45;2 -->
<g id="edge2" class="edge"><title>0&#45;&#45;2</title>
<path fill="none" stroke="black" d="M61.2236,-122.021C62.8675,-112.201 70.2553,-68.0682 71.8517,-58.5317"/>
</g>
<!-- 3 -->
<g id="node4" class="node"><title>3</title>
<ellipse fill="black" stroke="black" cx="71.2089" cy="-171.28" rx="1.8" ry="1.8"/>
</g>
<!-- 0&#45;&#45;3 -->
<g id="edge3" class="edge"><title>0&#45;&#45;3</title>
<path fill="none" stroke="black" d="M61.3418,-125.994C63.0377,-133.778 69.1059,-161.628 70.779,-169.307"/>
</g>
<!-- 4 -->
<g id="node5" class="node"><title>4</title>
<ellipse fill="black" stroke="black" cx="125.449" cy="-85.0196" rx="1.8" ry="1.8"/>
</g>
<!-- 0&#45;&#45;4 -->
<g id="edge4" class="edge"><title>0&#45;&#45;4</title>
<path fill="none" stroke="black" d="M62.4944,-122.998C71.3475,-117.658 114.368,-91.7049 123.672,-86.0916"/>
</g>
<!-- 5 -->
<g id="node6" class="node"><title>5</title>
<ellipse fill="black" stroke="black" cx="112.803" cy="-200.805" rx="1.8" ry="1.8"/>
</g>
<!-- 0&#45;&#45;5 -->
<g id="edge5" class="edge"><title>0&#45;&#45;5</title>
<path fill="none" stroke="black" d="M61.9829,-125.566C68.7378,-135.567 104.988,-189.234 111.725,-199.209"/>
</g>
<!-- 6 -->
<g id="node7" class="node"><title>6</title>
<ellipse fill="black" stroke="black" cx="1.8" cy="-74.328" rx="1.8" ry="1.8"/>
</g>
<!-- 0&#45;&#45;6 -->
<g id="edge6" class="edge"><title>0&#45;&#45;6</title>
<path fill="none" stroke="black" d="M59.4379,-122.734C51.3326,-115.927 11.9457,-82.8487 3.42683,-75.6943"/>
</g>
<!-- 1&#45;&#45;2 -->
<g id="edge7" class="edge"><title>1&#45;&#45;2</title>
<path fill="none" stroke="black" d="M123.109,-130.506C116.337,-120.698 79.9924,-68.0601 73.2374,-58.2767"/>
</g>
<!-- 1&#45;&#45;3 -->
<g id="edge8" class="edge"><title>1&#45;&#45;3</title>
<path fill="none" stroke="black" d="M122.433,-133.385C114.388,-139.336 81.2033,-163.887 73.0328,-169.931"/>
</g>
<!-- 1&#45;&#45;4 -->
<g id="edge9" class="edge"><title>1&#45;&#45;4</title>
<path fill="none" stroke="black" d="M124.25,-130.058C124.456,-122.317 125.194,-94.6189 125.397,-86.9818"/>
</g>
<!-- 1&#45;&#45;5 -->
<g id="edge10" class="edge"><title>1&#45;&#45;5</title>
<path fill="none" stroke="black" d="M123.867,-134.063C122.204,-144.099 114.727,-189.199 113.112,-198.945"/>
</g>
<!-- 2&#45;&#45;4 -->
<g id="edge11" class="edge"><title>2&#45;&#45;4</title>
<path fill="none" stroke="black" d="M73.9296,-57.6531C82.0208,-61.951 115.397,-79.6801 123.615,-84.0452"/>
</g>
<!-- 2&#45;&#45;6 -->
<g id="edge12" class="edge"><title>2&#45;&#45;6</title>
<path fill="none" stroke="black" d="M70.1267,-57.2195C59.8527,-59.792 13.6817,-71.3529 3.70463,-73.8511"/>
</g>
<!-- 7 -->
<g id="node8" class="node"><title>7</title>
<ellipse fill="black" stroke="black" cx="21.7394" cy="-1.8" rx="1.8" ry="1.8"/>
</g>
<!-- 2&#45;&#45;7 -->
<g id="edge13" class="edge"><title>2&#45;&#45;7</title>
<path fill="none" stroke="black" d="M70.9102,-55.3538C63.9955,-47.8228 30.3947,-11.2268 23.1272,-3.31155"/>
</g>
<!-- 3&#45;&#45;4 -->
<g id="edge14" class="edge"><title>3&#45;&#45;4</title>
<path fill="none" stroke="black" d="M72.3418,-169.479C79.4006,-158.253 117.282,-98.0085 124.323,-86.8114"/>
</g>
<!-- 3&#45;&#45;5 -->
<g id="edge15" class="edge"><title>3&#45;&#45;5</title>
<path fill="none" stroke="black" d="M72.9962,-172.549C79.838,-177.406 104.319,-194.783 111.069,-199.574"/>
</g>
<!-- 8 -->
<g id="node9" class="node"><title>8</title>
<ellipse fill="black" stroke="black" cx="128.475" cy="-273.244" rx="1.8" ry="1.8"/>
</g>
<!-- 5&#45;&#45;8 -->
<g id="edge16" class="edge"><title>5&#45;&#45;8</title>
<path fill="none" stroke="black" d="M113.191,-202.596C115.34,-212.531 125.784,-260.808 128.043,-271.25"/>
</g>
<!-- 6&#45;&#45;7 -->
<g id="edge17" class="edge"><title>6&#45;&#45;7</title>
<path fill="none" stroke="black" d="M2.29289,-72.5352C5.02755,-62.588 18.3163,-14.2512 21.1905,-3.7965"/>
</g>
</g>
</svg>
