<?xml version="1.0" encoding="UTF-8" standalone="no"?>
<!DOCTYPE svg PUBLIC "-//W3C//DTD SVG 1.1//EN"
 "http://www.w3.org/Graphics/SVG/1.1/DTD/svg11.dtd">
<!-- Generated by graphviz version 2.36.0 (20140111.2315)
 -->
<!-- Title: %3 Pages: 1 -->
<svg width="187pt" height="357pt"
 viewBox="0.00 0.00 187.50 356.56" xmlns="http://www.w3.org/2000/svg" xmlns:xlink="http://www.w3.org/1999/xlink">
<g id="graph0" class="graph" transform="scale(1 1) rotate(0) translate(4 352.563)">
<title>%3</title>
<!-- 0 -->
<g id="node1" class="node"><title>0</title>
<ellipse fill="black" stroke="black" cx="76.2503" cy="-279.565" rx="1.8" ry="1.8"/>
</g>
<!-- 1 -->
<g id="node2" class="node"><title>1</title>
<ellipse fill="black" stroke="black" cx="122.712" cy="-214.851" rx="1.8" ry="1.8"/>
</g>
<!-- 0&#45;&#45;1 -->
<g id="edge1" class="edge"><title>0&#45;&#45;1</title>
<path fill="none" stroke="black" d="M77.3988,-277.966C83.771,-269.09 114.736,-225.961 121.433,-216.633"/>
</g>
<!-- 2 -->
<g id="node3" class="node"><title>2</title>
<ellipse fill="black" stroke="black" cx="123.568" cy="-281.091" rx="1.8" ry="1.8"/>
</g>
<!-- 0&#45;&#45;2 -->
<g id="edge2" class="edge"><title>0&#45;&#45;2</title>
<path fill="none" stroke="black" d="M78.2835,-279.631C86.0668,-279.882 113.916,-280.78 121.595,-281.028"/>
</g>
<!-- 3 -->
<g id="node4" class="node"><title>3</title>
<ellipse fill="black" stroke="black" cx="165.723" cy="-282.049" rx="1.8" ry="1.8"/>
</g>
<!-- 0&#45;&#45;3 -->
<g id="edge3" class="edge"><title>0&#45;&#45;3</title>
<path fill="none" stroke="black" d="M78.1191,-279.617C89.7631,-279.941 152.251,-281.675 163.865,-281.998"/>
</g>
<!-- 4 -->
<g id="node5" class="node"><title>4</title>
<ellipse fill="black" stroke="black" cx="123.181" cy="-346.763" rx="1.8" ry="1.8"/>
</g>
<!-- 0&#45;&#45;4 -->
<g id="edge4" class="edge"><title>0&#45;&#45;4</title>
<path fill="none" stroke="black" d="M77.4104,-281.226C83.8468,-290.443 115.124,-335.227 121.889,-344.913"/>
</g>
<!-- 7 -->
<g id="node6" class="node"><title>7</title>
<ellipse fill="black" stroke="black" cx="1.8" cy="-296.419" rx="1.8" ry="1.8"/>
</g>
<!-- 0&#45;&#45;7 -->
<g id="edge5" class="edge"><title>0&#45;&#45;7</title>
<path fill="none" stroke="black" d="M74.4099,-279.982C64.1096,-282.314 13.7077,-293.723 3.57603,-296.016"/>
</g>
<!-- 1&#45;&#45;2 -->
<g id="edge6" class="edge"><title>1&#45;&#45;2</title>
<path fill="none" stroke="black" d="M122.737,-216.762C122.86,-226.265 123.404,-268.39 123.538,-278.773"/>
</g>
<!-- 1&#45;&#45;3 -->
<g id="edge7" class="edge"><title>1&#45;&#45;3</title>
<path fill="none" stroke="black" d="M123.775,-216.512C129.674,-225.729 158.339,-270.513 164.539,-280.2"/>
</g>
<!-- 6 -->
<g id="node7" class="node"><title>6</title>
<ellipse fill="black" stroke="black" cx="136.628" cy="-141.217" rx="1.8" ry="1.8"/>
</g>
<!-- 1&#45;&#45;6 -->
<g id="edge8" class="edge"><title>1&#45;&#45;6</title>
<path fill="none" stroke="black" d="M123.056,-213.031C124.965,-202.932 134.239,-153.858 136.245,-143.244"/>
</g>
<!-- 2&#45;&#45;3 -->
<g id="edge9" class="edge"><title>2&#45;&#45;3</title>
<path fill="none" stroke="black" d="M125.38,-281.132C132.187,-281.287 156.228,-281.834 163.575,-282"/>
</g>
<!-- 2&#45;&#45;4 -->
<g id="edge10" class="edge"><title>2&#45;&#45;4</title>
<path fill="none" stroke="black" d="M123.557,-282.986C123.501,-292.407 123.255,-334.171 123.194,-344.464"/>
</g>
<!-- 3&#45;&#45;4 -->
<g id="edge11" class="edge"><title>3&#45;&#45;4</title>
<path fill="none" stroke="black" d="M164.671,-283.649C158.837,-292.524 130.484,-335.654 124.352,-344.982"/>
</g>
<!-- 5 -->
<g id="node8" class="node"><title>5</title>
<ellipse fill="black" stroke="black" cx="162.557" cy="-72.6929" rx="1.8" ry="1.8"/>
</g>
<!-- 5&#45;&#45;6 -->
<g id="edge12" class="edge"><title>5&#45;&#45;6</title>
<path fill="none" stroke="black" d="M161.916,-74.3868C158.36,-83.7848 141.079,-129.453 137.342,-139.331"/>
</g>
<!-- 8 -->
<g id="node9" class="node"><title>8</title>
<ellipse fill="black" stroke="black" cx="177.7" cy="-1.8" rx="1.8" ry="1.8"/>
</g>
<!-- 5&#45;&#45;8 -->
<g id="edge13" class="edge"><title>5&#45;&#45;8</title>
<path fill="none" stroke="black" d="M162.994,-70.6477C165.205,-60.2954 175.142,-13.7723 177.29,-3.71916"/>
</g>
</g>
</svg>
