<?xml version="1.0" encoding="UTF-8" standalone="no"?>
<!DOCTYPE svg PUBLIC "-//W3C//DTD SVG 1.1//EN"
 "http://www.w3.org/Graphics/SVG/1.1/DTD/svg11.dtd">
<!-- Generated by graphviz version 2.36.0 (20140111.2315)
 -->
<!-- Title: %3 Pages: 1 -->
<svg width="117pt" height="153pt"
 viewBox="0.00 0.00 116.75 152.56" xmlns="http://www.w3.org/2000/svg" xmlns:xlink="http://www.w3.org/1999/xlink">
<g id="graph0" class="graph" transform="scale(1 1) rotate(0) translate(4 148.564)">
<title>%3</title>
<!-- 0 -->
<g id="node1" class="node"><title>0</title>
<ellipse fill="black" stroke="black" cx="32.0154" cy="-69.1755" rx="1.8" ry="1.8"/>
</g>
<!-- 1 -->
<g id="node2" class="node"><title>1</title>
<ellipse fill="black" stroke="black" cx="104.554" cy="-65.3837" rx="1.8" ry="1.8"/>
</g>
<!-- 0&#45;&#45;1 -->
<g id="edge1" class="edge"><title>0&#45;&#45;1</title>
<path fill="none" stroke="black" d="M34.1082,-69.0661C44.7008,-68.5124 92.3042,-66.0241 102.591,-65.4864"/>
</g>
<!-- 2 -->
<g id="node3" class="node"><title>2</title>
<ellipse fill="black" stroke="black" cx="73.2542" cy="-49.4578" rx="1.8" ry="1.8"/>
</g>
<!-- 0&#45;&#45;2 -->
<g id="edge2" class="edge"><title>0&#45;&#45;2</title>
<path fill="none" stroke="black" d="M33.7874,-68.3283C40.5708,-65.0849 64.8425,-53.4797 71.5347,-50.2799"/>
</g>
<!-- 3 -->
<g id="node4" class="node"><title>3</title>
<ellipse fill="black" stroke="black" cx="49.9132" cy="-122.957" rx="1.8" ry="1.8"/>
</g>
<!-- 0&#45;&#45;3 -->
<g id="edge3" class="edge"><title>0&#45;&#45;3</title>
<path fill="none" stroke="black" d="M32.6109,-70.965C35.3283,-79.1305 46.5373,-112.813 49.2971,-121.106"/>
</g>
<!-- 4 -->
<g id="node5" class="node"><title>4</title>
<ellipse fill="black" stroke="black" cx="90.9975" cy="-129.246" rx="1.8" ry="1.8"/>
</g>
<!-- 0&#45;&#45;4 -->
<g id="edge4" class="edge"><title>0&#45;&#45;4</title>
<path fill="none" stroke="black" d="M33.4734,-70.6604C41.5628,-78.8991 80.8718,-118.934 89.3739,-127.593"/>
</g>
<!-- 5 -->
<g id="node6" class="node"><title>5</title>
<ellipse fill="black" stroke="black" cx="1.8" cy="-142.764" rx="1.8" ry="1.8"/>
</g>
<!-- 0&#45;&#45;5 -->
<g id="edge5" class="edge"><title>0&#45;&#45;5</title>
<path fill="none" stroke="black" d="M31.2685,-70.9946C27.0882,-81.1757 6.63269,-130.994 2.5208,-141.009"/>
</g>
<!-- 6 -->
<g id="node7" class="node"><title>6</title>
<ellipse fill="black" stroke="black" cx="25.3424" cy="-4.12592" rx="1.8" ry="1.8"/>
</g>
<!-- 0&#45;&#45;6 -->
<g id="edge6" class="edge"><title>0&#45;&#45;6</title>
<path fill="none" stroke="black" d="M31.8229,-67.2989C30.8656,-57.9665 26.6219,-16.599 25.576,-6.40293"/>
</g>
<!-- 7 -->
<g id="node8" class="node"><title>7</title>
<ellipse fill="black" stroke="black" cx="106.955" cy="-1.8" rx="1.8" ry="1.8"/>
</g>
<!-- 0&#45;&#45;7 -->
<g id="edge7" class="edge"><title>0&#45;&#45;7</title>
<path fill="none" stroke="black" d="M33.5807,-67.7683C43.3333,-59 95.6707,-11.9452 105.398,-3.19949"/>
</g>
<!-- 1&#45;&#45;3 -->
<g id="edge8" class="edge"><title>1&#45;&#45;3</title>
<path fill="none" stroke="black" d="M103.204,-66.8069C95.7097,-74.7031 59.2937,-113.074 51.4173,-121.373"/>
</g>
<!-- 1&#45;&#45;4 -->
<g id="edge9" class="edge"><title>1&#45;&#45;4</title>
<path fill="none" stroke="black" d="M104.163,-67.2262C102.218,-76.3882 93.597,-117.001 91.4721,-127.011"/>
</g>
<!-- 1&#45;&#45;6 -->
<g id="edge10" class="edge"><title>1&#45;&#45;6</title>
<path fill="none" stroke="black" d="M102.9,-64.1043C92.5913,-56.1322 37.2699,-13.3499 26.9877,-5.39834"/>
</g>
<!-- 1&#45;&#45;7 -->
<g id="edge11" class="edge"><title>1&#45;&#45;7</title>
<path fill="none" stroke="black" d="M104.624,-63.5494C104.968,-54.4273 106.495,-13.992 106.871,-4.0257"/>
</g>
<!-- 2&#45;&#45;3 -->
<g id="edge12" class="edge"><title>2&#45;&#45;3</title>
<path fill="none" stroke="black" d="M72.6772,-51.2746C69.448,-61.4434 53.6464,-111.202 50.47,-121.204"/>
</g>
<!-- 2&#45;&#45;4 -->
<g id="edge13" class="edge"><title>2&#45;&#45;4</title>
<path fill="none" stroke="black" d="M73.6928,-51.4301C76.1476,-62.469 88.1596,-116.485 90.5743,-127.343"/>
</g>
<!-- 2&#45;&#45;6 -->
<g id="edge14" class="edge"><title>2&#45;&#45;6</title>
<path fill="none" stroke="black" d="M71.6601,-47.9495C64.3858,-41.0669 34.3795,-12.6764 26.9916,-5.68635"/>
</g>
<!-- 2&#45;&#45;7 -->
<g id="edge15" class="edge"><title>2&#45;&#45;7</title>
<path fill="none" stroke="black" d="M74.3755,-47.8721C79.4921,-40.6364 100.598,-10.7892 105.795,-3.44049"/>
</g>
<!-- 3&#45;&#45;4 -->
<g id="edge16" class="edge"><title>3&#45;&#45;4</title>
<path fill="none" stroke="black" d="M52.1221,-123.296C59.3223,-124.398 82.0481,-127.876 88.9742,-128.937"/>
</g>
<!-- 3&#45;&#45;5 -->
<g id="edge17" class="edge"><title>3&#45;&#45;5</title>
<path fill="none" stroke="black" d="M47.8459,-123.809C39.9317,-127.067 11.614,-138.724 3.80611,-141.938"/>
</g>
<!-- 4&#45;&#45;5 -->
<g id="edge18" class="edge"><title>4&#45;&#45;5</title>
<path fill="none" stroke="black" d="M89.1345,-129.529C77.5263,-131.288 15.2311,-140.729 3.65277,-142.484"/>
</g>
</g>
</svg>
