<?xml version="1.0" encoding="UTF-8" standalone="no"?>
<!DOCTYPE svg PUBLIC "-//W3C//DTD SVG 1.1//EN"
 "http://www.w3.org/Graphics/SVG/1.1/DTD/svg11.dtd">
<!-- Generated by graphviz version 2.36.0 (20140111.2315)
 -->
<!-- Title: %3 Pages: 1 -->
<svg width="233pt" height="165pt"
 viewBox="0.00 0.00 232.84 165.30" xmlns="http://www.w3.org/2000/svg" xmlns:xlink="http://www.w3.org/1999/xlink">
<g id="graph0" class="graph" transform="scale(1 1) rotate(0) translate(4 161.298)">
<title>%3</title>
<!-- 0 -->
<g id="node1" class="node"><title>0</title>
<ellipse fill="black" stroke="black" cx="67.5417" cy="-67.6762" rx="1.8" ry="1.8"/>
</g>
<!-- 1 -->
<g id="node2" class="node"><title>1</title>
<ellipse fill="black" stroke="black" cx="149.964" cy="-74.4352" rx="1.8" ry="1.8"/>
</g>
<!-- 0&#45;&#45;1 -->
<g id="edge1" class="edge"><title>0&#45;&#45;1</title>
<path fill="none" stroke="black" d="M69.5791,-67.8432C80.9825,-68.7784 136.781,-73.3541 147.998,-74.2739"/>
</g>
<!-- 2 -->
<g id="node3" class="node"><title>2</title>
<ellipse fill="black" stroke="black" cx="17.3603" cy="-102.419" rx="1.8" ry="1.8"/>
</g>
<!-- 0&#45;&#45;2 -->
<g id="edge2" class="edge"><title>0&#45;&#45;2</title>
<path fill="none" stroke="black" d="M65.8721,-68.8321C58.2533,-74.1071 26.8255,-95.8662 19.0876,-101.224"/>
</g>
<!-- 3 -->
<g id="node4" class="node"><title>3</title>
<ellipse fill="black" stroke="black" cx="99.5274" cy="-142.271" rx="1.8" ry="1.8"/>
</g>
<!-- 0&#45;&#45;3 -->
<g id="edge3" class="edge"><title>0&#45;&#45;3</title>
<path fill="none" stroke="black" d="M68.3324,-69.5201C72.7577,-79.8404 94.4115,-130.34 98.7643,-140.492"/>
</g>
<!-- 4 -->
<g id="node5" class="node"><title>4</title>
<ellipse fill="black" stroke="black" cx="92.1725" cy="-104.503" rx="1.8" ry="1.8"/>
</g>
<!-- 0&#45;&#45;4 -->
<g id="edge4" class="edge"><title>0&#45;&#45;4</title>
<path fill="none" stroke="black" d="M68.6001,-69.2586C72.6516,-75.3163 87.1484,-96.9916 91.1455,-102.968"/>
</g>
<!-- 5 -->
<g id="node6" class="node"><title>5</title>
<ellipse fill="black" stroke="black" cx="38.7082" cy="-155.498" rx="1.8" ry="1.8"/>
</g>
<!-- 0&#45;&#45;5 -->
<g id="edge5" class="edge"><title>0&#45;&#45;5</title>
<path fill="none" stroke="black" d="M66.9395,-69.5104C63.1871,-80.9396 43.0499,-142.274 39.3071,-153.673"/>
</g>
<!-- 6 -->
<g id="node7" class="node"><title>6</title>
<ellipse fill="black" stroke="black" cx="1.8" cy="-29.584" rx="1.8" ry="1.8"/>
</g>
<!-- 0&#45;&#45;6 -->
<g id="edge6" class="edge"><title>0&#45;&#45;6</title>
<path fill="none" stroke="black" d="M65.9166,-66.7346C56.9002,-61.5103 13.0862,-36.1234 3.60969,-30.6325"/>
</g>
<!-- 1&#45;&#45;3 -->
<g id="edge7" class="edge"><title>1&#45;&#45;3</title>
<path fill="none" stroke="black" d="M148.717,-76.112C141.8,-85.4156 108.186,-130.625 100.916,-140.404"/>
</g>
<!-- 1&#45;&#45;4 -->
<g id="edge8" class="edge"><title>1&#45;&#45;4</title>
<path fill="none" stroke="black" d="M148.041,-75.4356C139.267,-80.0007 103.073,-98.832 94.1619,-103.468"/>
</g>
<!-- 7 -->
<g id="node8" class="node"><title>7</title>
<ellipse fill="black" stroke="black" cx="223.038" cy="-108.215" rx="1.8" ry="1.8"/>
</g>
<!-- 1&#45;&#45;7 -->
<g id="edge9" class="edge"><title>1&#45;&#45;7</title>
<path fill="none" stroke="black" d="M151.771,-75.2702C161.88,-79.9437 211.35,-102.812 221.295,-107.409"/>
</g>
<!-- 8 -->
<g id="node9" class="node"><title>8</title>
<ellipse fill="black" stroke="black" cx="184.215" cy="-1.8" rx="1.8" ry="1.8"/>
</g>
<!-- 1&#45;&#45;8 -->
<g id="edge10" class="edge"><title>1&#45;&#45;8</title>
<path fill="none" stroke="black" d="M150.811,-72.6397C155.55,-62.5905 178.737,-13.4174 183.398,-3.53273"/>
</g>
<!-- 2&#45;&#45;3 -->
<g id="edge11" class="edge"><title>2&#45;&#45;3</title>
<path fill="none" stroke="black" d="M19.0764,-103.252C29.7697,-108.438 87.1549,-136.27 97.8206,-141.443"/>
</g>
<!-- 2&#45;&#45;4 -->
<g id="edge12" class="edge"><title>2&#45;&#45;4</title>
<path fill="none" stroke="black" d="M19.2096,-102.471C29.47,-102.757 79.3292,-104.146 90.1132,-104.446"/>
</g>
<!-- 2&#45;&#45;5 -->
<g id="edge13" class="edge"><title>2&#45;&#45;5</title>
<path fill="none" stroke="black" d="M18.0705,-104.185C21.3117,-112.244 34.6816,-145.486 37.9734,-153.671"/>
</g>
<!-- 2&#45;&#45;6 -->
<g id="edge14" class="edge"><title>2&#45;&#45;6</title>
<path fill="none" stroke="black" d="M16.9756,-100.619C14.8415,-90.6297 4.47129,-42.0879 2.22833,-31.5889"/>
</g>
<!-- 3&#45;&#45;4 -->
<g id="edge15" class="edge"><title>3&#45;&#45;4</title>
<path fill="none" stroke="black" d="M99.1319,-140.24C97.843,-133.622 93.7746,-112.73 92.5348,-106.363"/>
</g>
<!-- 3&#45;&#45;5 -->
<g id="edge16" class="edge"><title>3&#45;&#45;5</title>
<path fill="none" stroke="black" d="M97.5038,-142.711C88.2699,-144.719 50.18,-153.003 40.8018,-155.042"/>
</g>
<!-- 4&#45;&#45;5 -->
<g id="edge17" class="edge"><title>4&#45;&#45;5</title>
<path fill="none" stroke="black" d="M90.8509,-105.764C83.5184,-112.758 47.8867,-146.743 40.18,-154.094"/>
</g>
</g>
</svg>
