<?xml version="1.0" encoding="UTF-8" standalone="no"?>
<!DOCTYPE svg PUBLIC "-//W3C//DTD SVG 1.1//EN"
 "http://www.w3.org/Graphics/SVG/1.1/DTD/svg11.dtd">
<!-- Generated by graphviz version 2.36.0 (20140111.2315)
 -->
<!-- Title: %3 Pages: 1 -->
<svg width="163pt" height="223pt"
 viewBox="0.00 0.00 162.76 223.15" xmlns="http://www.w3.org/2000/svg" xmlns:xlink="http://www.w3.org/1999/xlink">
<g id="graph0" class="graph" transform="scale(1 1) rotate(0) translate(4 219.145)">
<title>%3</title>
<!-- 0 -->
<g id="node1" class="node"><title>0</title>
<ellipse fill="black" stroke="black" cx="80.08" cy="-133.252" rx="1.8" ry="1.8"/>
</g>
<!-- 1 -->
<g id="node2" class="node"><title>1</title>
<ellipse fill="black" stroke="black" cx="97.0671" cy="-63.9326" rx="1.8" ry="1.8"/>
</g>
<!-- 0&#45;&#45;1 -->
<g id="edge1" class="edge"><title>0&#45;&#45;1</title>
<path fill="none" stroke="black" d="M80.57,-131.253C83.0506,-121.13 94.1983,-75.6392 96.6072,-65.8092"/>
</g>
<!-- 2 -->
<g id="node3" class="node"><title>2</title>
<ellipse fill="black" stroke="black" cx="27.9998" cy="-70.9593" rx="1.8" ry="1.8"/>
</g>
<!-- 0&#45;&#45;2 -->
<g id="edge2" class="edge"><title>0&#45;&#45;2</title>
<path fill="none" stroke="black" d="M78.7926,-131.713C71.6498,-123.169 36.9406,-81.6535 29.4334,-72.6741"/>
</g>
<!-- 3 -->
<g id="node4" class="node"><title>3</title>
<ellipse fill="black" stroke="black" cx="34.6196" cy="-196.06" rx="1.8" ry="1.8"/>
</g>
<!-- 0&#45;&#45;3 -->
<g id="edge3" class="edge"><title>0&#45;&#45;3</title>
<path fill="none" stroke="black" d="M78.9562,-134.805C72.7214,-143.419 42.424,-185.277 35.871,-194.331"/>
</g>
<!-- 4 -->
<g id="node5" class="node"><title>4</title>
<ellipse fill="black" stroke="black" cx="150.066" cy="-129.405" rx="1.8" ry="1.8"/>
</g>
<!-- 0&#45;&#45;4 -->
<g id="edge4" class="edge"><title>0&#45;&#45;4</title>
<path fill="none" stroke="black" d="M82.099,-133.141C92.319,-132.58 138.247,-130.055 148.172,-129.51"/>
</g>
<!-- 5 -->
<g id="node6" class="node"><title>5</title>
<ellipse fill="black" stroke="black" cx="1.8" cy="-134.706" rx="1.8" ry="1.8"/>
</g>
<!-- 0&#45;&#45;5 -->
<g id="edge5" class="edge"><title>0&#45;&#45;5</title>
<path fill="none" stroke="black" d="M78.1449,-133.288C67.3147,-133.489 14.3202,-134.474 3.66738,-134.671"/>
</g>
<!-- 6 -->
<g id="node7" class="node"><title>6</title>
<ellipse fill="black" stroke="black" cx="152.965" cy="-80.2814" rx="1.8" ry="1.8"/>
</g>
<!-- 0&#45;&#45;6 -->
<g id="edge6" class="edge"><title>0&#45;&#45;6</title>
<path fill="none" stroke="black" d="M81.6023,-132.146C91.0875,-125.252 141.99,-88.2576 151.451,-81.3817"/>
</g>
<!-- 7 -->
<g id="node8" class="node"><title>7</title>
<ellipse fill="black" stroke="black" cx="98.0017" cy="-213.345" rx="1.8" ry="1.8"/>
</g>
<!-- 0&#45;&#45;7 -->
<g id="edge7" class="edge"><title>0&#45;&#45;7</title>
<path fill="none" stroke="black" d="M80.523,-135.232C83.0025,-146.313 95.1353,-200.535 97.5742,-211.435"/>
</g>
<!-- 1&#45;&#45;2 -->
<g id="edge8" class="edge"><title>1&#45;&#45;2</title>
<path fill="none" stroke="black" d="M95.0745,-64.1353C84.9888,-65.1614 39.6637,-69.7727 29.8695,-70.7691"/>
</g>
<!-- 1&#45;&#45;4 -->
<g id="edge9" class="edge"><title>1&#45;&#45;4</title>
<path fill="none" stroke="black" d="M98.3772,-65.5511C105.646,-74.5306 140.968,-118.165 148.608,-127.603"/>
</g>
<!-- 1&#45;&#45;6 -->
<g id="edge10" class="edge"><title>1&#45;&#45;6</title>
<path fill="none" stroke="black" d="M98.9269,-64.4766C107.414,-66.9587 142.421,-77.1977 151.041,-79.7187"/>
</g>
<!-- 8 -->
<g id="node9" class="node"><title>8</title>
<ellipse fill="black" stroke="black" cx="54.1939" cy="-1.8" rx="1.8" ry="1.8"/>
</g>
<!-- 1&#45;&#45;8 -->
<g id="edge11" class="edge"><title>1&#45;&#45;8</title>
<path fill="none" stroke="black" d="M96.0073,-62.3967C90.1273,-53.8753 61.5541,-12.4666 55.3741,-3.51034"/>
</g>
<!-- 2&#45;&#45;5 -->
<g id="edge12" class="edge"><title>2&#45;&#45;5</title>
<path fill="none" stroke="black" d="M27.2439,-72.7984C23.418,-82.1072 6.22456,-123.941 2.50926,-132.98"/>
</g>
<!-- 2&#45;&#45;8 -->
<g id="edge13" class="edge"><title>2&#45;&#45;8</title>
<path fill="none" stroke="black" d="M28.6473,-69.2498C32.2398,-59.7647 49.697,-13.6729 53.4728,-3.70377"/>
</g>
<!-- 3&#45;&#45;5 -->
<g id="edge14" class="edge"><title>3&#45;&#45;5</title>
<path fill="none" stroke="black" d="M33.6728,-194.29C28.8802,-185.33 7.34251,-145.067 2.68847,-136.367"/>
</g>
<!-- 3&#45;&#45;7 -->
<g id="edge15" class="edge"><title>3&#45;&#45;7</title>
<path fill="none" stroke="black" d="M36.4482,-196.558C45.5413,-199.038 85.8484,-210.031 95.7831,-212.74"/>
</g>
<!-- 4&#45;&#45;6 -->
<g id="edge16" class="edge"><title>4&#45;&#45;6</title>
<path fill="none" stroke="black" d="M150.191,-127.295C150.668,-119.214 152.374,-90.3016 152.844,-82.3297"/>
</g>
</g>
</svg>
