<?xml version="1.0" encoding="UTF-8" standalone="no"?>
<!DOCTYPE svg PUBLIC "-//W3C//DTD SVG 1.1//EN"
 "http://www.w3.org/Graphics/SVG/1.1/DTD/svg11.dtd">
<!-- Generated by graphviz version 2.36.0 (20140111.2315)
 -->
<!-- Title: %3 Pages: 1 -->
<svg width="219pt" height="273pt"
 viewBox="0.00 0.00 218.93 272.95" xmlns="http://www.w3.org/2000/svg" xmlns:xlink="http://www.w3.org/1999/xlink">
<g id="graph0" class="graph" transform="scale(1 1) rotate(0) translate(4 268.954)">
<title>%3</title>
<!-- 0 -->
<g id="node1" class="node"><title>0</title>
<ellipse fill="black" stroke="black" cx="71.287" cy="-182.812" rx="1.8" ry="1.8"/>
</g>
<!-- 1 -->
<g id="node2" class="node"><title>1</title>
<ellipse fill="black" stroke="black" cx="112.817" cy="-195.86" rx="1.8" ry="1.8"/>
</g>
<!-- 0&#45;&#45;1 -->
<g id="edge1" class="edge"><title>0&#45;&#45;1</title>
<path fill="none" stroke="black" d="M73.0715,-183.372C79.9027,-185.519 104.346,-193.199 111.085,-195.316"/>
</g>
<!-- 2 -->
<g id="node3" class="node"><title>2</title>
<ellipse fill="black" stroke="black" cx="127.078" cy="-124.331" rx="1.8" ry="1.8"/>
</g>
<!-- 0&#45;&#45;2 -->
<g id="edge2" class="edge"><title>0&#45;&#45;2</title>
<path fill="none" stroke="black" d="M72.6661,-181.366C80.3178,-173.345 117.5,-134.371 125.542,-125.941"/>
</g>
<!-- 3 -->
<g id="node4" class="node"><title>3</title>
<ellipse fill="black" stroke="black" cx="85.0482" cy="-263.154" rx="1.8" ry="1.8"/>
</g>
<!-- 0&#45;&#45;3 -->
<g id="edge3" class="edge"><title>0&#45;&#45;3</title>
<path fill="none" stroke="black" d="M71.6272,-184.798C73.5311,-195.913 82.8472,-250.304 84.7199,-261.238"/>
</g>
<!-- 5 -->
<g id="node5" class="node"><title>5</title>
<ellipse fill="black" stroke="black" cx="142.672" cy="-252.208" rx="1.8" ry="1.8"/>
</g>
<!-- 0&#45;&#45;5 -->
<g id="edge4" class="edge"><title>0&#45;&#45;5</title>
<path fill="none" stroke="black" d="M72.778,-184.261C82.0681,-193.292 131.923,-241.759 141.19,-250.767"/>
</g>
<!-- 6 -->
<g id="node6" class="node"><title>6</title>
<ellipse fill="black" stroke="black" cx="22.4935" cy="-225.229" rx="1.8" ry="1.8"/>
</g>
<!-- 0&#45;&#45;6 -->
<g id="edge5" class="edge"><title>0&#45;&#45;6</title>
<path fill="none" stroke="black" d="M69.6636,-184.223C62.2555,-190.663 31.697,-217.228 24.1731,-223.769"/>
</g>
<!-- 7 -->
<g id="node7" class="node"><title>7</title>
<ellipse fill="black" stroke="black" cx="1.8" cy="-138.606" rx="1.8" ry="1.8"/>
</g>
<!-- 0&#45;&#45;7 -->
<g id="edge6" class="edge"><title>0&#45;&#45;7</title>
<path fill="none" stroke="black" d="M69.5693,-181.719C60.0393,-175.656 13.7291,-146.195 3.71279,-139.823"/>
</g>
<!-- 1&#45;&#45;2 -->
<g id="edge7" class="edge"><title>1&#45;&#45;2</title>
<path fill="none" stroke="black" d="M113.169,-194.092C115.125,-184.282 124.63,-136.611 126.686,-126.3"/>
</g>
<!-- 1&#45;&#45;3 -->
<g id="edge8" class="edge"><title>1&#45;&#45;3</title>
<path fill="none" stroke="black" d="M112.015,-197.802C107.961,-207.628 89.7377,-251.79 85.7999,-261.333"/>
</g>
<!-- 1&#45;&#45;6 -->
<g id="edge9" class="edge"><title>1&#45;&#45;6</title>
<path fill="none" stroke="black" d="M110.93,-196.474C99.1754,-200.296 36.0941,-220.807 24.3697,-224.619"/>
</g>
<!-- 4 -->
<g id="node8" class="node"><title>4</title>
<ellipse fill="black" stroke="black" cx="177.306" cy="-67.9779" rx="1.8" ry="1.8"/>
</g>
<!-- 2&#45;&#45;4 -->
<g id="edge10" class="edge"><title>2&#45;&#45;4</title>
<path fill="none" stroke="black" d="M128.32,-122.938C135.209,-115.209 168.683,-77.6523 175.924,-69.5292"/>
</g>
<!-- 3&#45;&#45;5 -->
<g id="edge11" class="edge"><title>3&#45;&#45;5</title>
<path fill="none" stroke="black" d="M86.9655,-262.79C95.7143,-261.128 131.803,-254.273 140.689,-252.585"/>
</g>
<!-- 8 -->
<g id="node9" class="node"><title>8</title>
<ellipse fill="black" stroke="black" cx="209.132" cy="-1.8" rx="1.8" ry="1.8"/>
</g>
<!-- 4&#45;&#45;8 -->
<g id="edge12" class="edge"><title>4&#45;&#45;8</title>
<path fill="none" stroke="black" d="M178.093,-66.3421C182.458,-57.2658 203.668,-13.161 208.256,-3.6217"/>
</g>
</g>
</svg>
