<?xml version="1.0" encoding="UTF-8" standalone="no"?>
<!DOCTYPE svg PUBLIC "-//W3C//DTD SVG 1.1//EN"
 "http://www.w3.org/Graphics/SVG/1.1/DTD/svg11.dtd">
<!-- Generated by graphviz version 2.36.0 (20140111.2315)
 -->
<!-- Title: %3 Pages: 1 -->
<svg width="129pt" height="175pt"
 viewBox="0.00 0.00 129.49 175.36" xmlns="http://www.w3.org/2000/svg" xmlns:xlink="http://www.w3.org/1999/xlink">
<g id="graph0" class="graph" transform="scale(1 1) rotate(0) translate(4 171.365)">
<title>%3</title>
<!-- 0 -->
<g id="node1" class="node"><title>0</title>
<ellipse fill="black" stroke="black" cx="77.7246" cy="-68.6291" rx="1.8" ry="1.8"/>
</g>
<!-- 1 -->
<g id="node2" class="node"><title>1</title>
<ellipse fill="black" stroke="black" cx="28.0416" cy="-110.083" rx="1.8" ry="1.8"/>
</g>
<!-- 0&#45;&#45;1 -->
<g id="edge1" class="edge"><title>0&#45;&#45;1</title>
<path fill="none" stroke="black" d="M76.0716,-70.0084C68.5284,-76.3021 37.4128,-102.264 29.7518,-108.656"/>
</g>
<!-- 2 -->
<g id="node3" class="node"><title>2</title>
<ellipse fill="black" stroke="black" cx="73.0702" cy="-108.276" rx="1.8" ry="1.8"/>
</g>
<!-- 0&#45;&#45;2 -->
<g id="edge2" class="edge"><title>0&#45;&#45;2</title>
<path fill="none" stroke="black" d="M77.4744,-70.7607C76.6587,-77.7089 74.0841,-99.6394 73.2994,-106.323"/>
</g>
<!-- 3 -->
<g id="node4" class="node"><title>3</title>
<ellipse fill="black" stroke="black" cx="33.5132" cy="-147.637" rx="1.8" ry="1.8"/>
</g>
<!-- 0&#45;&#45;3 -->
<g id="edge3" class="edge"><title>0&#45;&#45;3</title>
<path fill="none" stroke="black" d="M76.8012,-70.2793C71.0475,-80.5614 40.1704,-135.74 34.4315,-145.996"/>
</g>
<!-- 4 -->
<g id="node5" class="node"><title>4</title>
<ellipse fill="black" stroke="black" cx="119.69" cy="-126.236" rx="1.8" ry="1.8"/>
</g>
<!-- 0&#45;&#45;4 -->
<g id="edge4" class="edge"><title>0&#45;&#45;4</title>
<path fill="none" stroke="black" d="M79.1209,-70.5458C85.6061,-79.4482 112.719,-116.667 118.573,-124.703"/>
</g>
<!-- 5 -->
<g id="node6" class="node"><title>5</title>
<ellipse fill="black" stroke="black" cx="86.0764" cy="-165.565" rx="1.8" ry="1.8"/>
</g>
<!-- 0&#45;&#45;5 -->
<g id="edge5" class="edge"><title>0&#45;&#45;5</title>
<path fill="none" stroke="black" d="M77.899,-70.6538C78.9859,-83.269 84.8188,-150.968 85.9029,-163.551"/>
</g>
<!-- 6 -->
<g id="node7" class="node"><title>6</title>
<ellipse fill="black" stroke="black" cx="1.8" cy="-66.2472" rx="1.8" ry="1.8"/>
</g>
<!-- 0&#45;&#45;6 -->
<g id="edge6" class="edge"><title>0&#45;&#45;6</title>
<path fill="none" stroke="black" d="M75.8478,-68.5703C65.3435,-68.2407 13.9435,-66.6282 3.6112,-66.304"/>
</g>
<!-- 7 -->
<g id="node8" class="node"><title>7</title>
<ellipse fill="black" stroke="black" cx="115.117" cy="-1.8" rx="1.8" ry="1.8"/>
</g>
<!-- 0&#45;&#45;7 -->
<g id="edge7" class="edge"><title>0&#45;&#45;7</title>
<path fill="none" stroke="black" d="M78.6489,-66.9772C83.7773,-57.8116 108.698,-13.2728 114.088,-3.63962"/>
</g>
<!-- 1&#45;&#45;2 -->
<g id="edge8" class="edge"><title>1&#45;&#45;2</title>
<path fill="none" stroke="black" d="M29.9764,-110.005C37.3832,-109.708 63.8854,-108.644 71.1927,-108.351"/>
</g>
<!-- 1&#45;&#45;3 -->
<g id="edge9" class="edge"><title>1&#45;&#45;3</title>
<path fill="none" stroke="black" d="M28.3358,-112.102C29.2947,-118.683 32.3213,-139.456 33.2437,-145.787"/>
</g>
<!-- 1&#45;&#45;4 -->
<g id="edge10" class="edge"><title>1&#45;&#45;4</title>
<path fill="none" stroke="black" d="M29.9558,-110.42C41.8829,-112.522 105.89,-123.804 117.786,-125.901"/>
</g>
<!-- 1&#45;&#45;5 -->
<g id="edge11" class="edge"><title>1&#45;&#45;5</title>
<path fill="none" stroke="black" d="M29.4762,-111.454C37.4356,-119.063 76.1133,-156.04 84.4788,-164.037"/>
</g>
<!-- 1&#45;&#45;6 -->
<g id="edge12" class="edge"><title>1&#45;&#45;6</title>
<path fill="none" stroke="black" d="M26.914,-108.199C22.5975,-100.989 7.15267,-75.1886 2.89416,-68.0749"/>
</g>
<!-- 2&#45;&#45;3 -->
<g id="edge13" class="edge"><title>2&#45;&#45;3</title>
<path fill="none" stroke="black" d="M71.7541,-109.585C65.7483,-115.561 40.9745,-140.212 34.8749,-146.282"/>
</g>
<!-- 2&#45;&#45;4 -->
<g id="edge14" class="edge"><title>2&#45;&#45;4</title>
<path fill="none" stroke="black" d="M75.0734,-109.047C82.7419,-112.002 110.181,-122.573 117.746,-125.487"/>
</g>
<!-- 2&#45;&#45;5 -->
<g id="edge15" class="edge"><title>2&#45;&#45;5</title>
<path fill="none" stroke="black" d="M73.503,-110.182C75.4776,-118.88 83.6231,-154.759 85.6287,-163.593"/>
</g>
<!-- 2&#45;&#45;6 -->
<g id="edge16" class="edge"><title>2&#45;&#45;6</title>
<path fill="none" stroke="black" d="M71.3085,-107.237C61.4481,-101.422 13.199,-72.9693 3.50016,-67.2498"/>
</g>
<!-- 3&#45;&#45;4 -->
<g id="edge17" class="edge"><title>3&#45;&#45;4</title>
<path fill="none" stroke="black" d="M35.3131,-147.19C46.5282,-144.405 106.714,-129.459 117.9,-126.681"/>
</g>
<!-- 3&#45;&#45;5 -->
<g id="edge18" class="edge"><title>3&#45;&#45;5</title>
<path fill="none" stroke="black" d="M35.2621,-148.233C43.2425,-150.955 76.1619,-162.183 84.267,-164.948"/>
</g>
<!-- 3&#45;&#45;6 -->
<g id="edge19" class="edge"><title>3&#45;&#45;6</title>
<path fill="none" stroke="black" d="M32.8508,-145.937C28.7237,-135.345 6.57528,-78.5026 2.45873,-67.9378"/>
</g>
<!-- 4&#45;&#45;5 -->
<g id="edge20" class="edge"><title>4&#45;&#45;5</title>
<path fill="none" stroke="black" d="M118.246,-127.926C112.716,-134.395 92.9327,-157.543 87.4779,-163.925"/>
</g>
</g>
</svg>
