<?xml version="1.0" encoding="UTF-8" standalone="no"?>
<!DOCTYPE svg PUBLIC "-//W3C//DTD SVG 1.1//EN"
 "http://www.w3.org/Graphics/SVG/1.1/DTD/svg11.dtd">
<!-- Generated by graphviz version 2.36.0 (20140111.2315)
 -->
<!-- Title: %3 Pages: 1 -->
<svg width="204pt" height="134pt"
 viewBox="0.00 0.00 204.27 134.07" xmlns="http://www.w3.org/2000/svg" xmlns:xlink="http://www.w3.org/1999/xlink">
<g id="graph0" class="graph" transform="scale(1 1) rotate(0) translate(4 130.069)">
<title>%3</title>
<!-- 0 -->
<g id="node1" class="node"><title>0</title>
<ellipse fill="black" stroke="black" cx="71.0782" cy="-85.3963" rx="1.8" ry="1.8"/>
</g>
<!-- 1 -->
<g id="node2" class="node"><title>1</title>
<ellipse fill="black" stroke="black" cx="132.697" cy="-44.8458" rx="1.8" ry="1.8"/>
</g>
<!-- 0&#45;&#45;1 -->
<g id="edge1" class="edge"><title>0&#45;&#45;1</title>
<path fill="none" stroke="black" d="M72.6014,-84.3939C81.0524,-78.8325 122.119,-51.8073 131.001,-45.962"/>
</g>
<!-- 2 -->
<g id="node3" class="node"><title>2</title>
<ellipse fill="black" stroke="black" cx="63.1779" cy="-39.1774" rx="1.8" ry="1.8"/>
</g>
<!-- 0&#45;&#45;2 -->
<g id="edge2" class="edge"><title>0&#45;&#45;2</title>
<path fill="none" stroke="black" d="M70.7387,-83.4103C69.4392,-75.8078 64.7894,-48.605 63.5073,-41.1046"/>
</g>
<!-- 3 -->
<g id="node4" class="node"><title>3</title>
<ellipse fill="black" stroke="black" cx="164.414" cy="-73.1045" rx="1.8" ry="1.8"/>
</g>
<!-- 0&#45;&#45;3 -->
<g id="edge3" class="edge"><title>0&#45;&#45;3</title>
<path fill="none" stroke="black" d="M73.0277,-85.1396C85.1744,-83.5399 150.36,-74.9554 162.475,-73.3599"/>
</g>
<!-- 4 -->
<g id="node5" class="node"><title>4</title>
<ellipse fill="black" stroke="black" cx="117.624" cy="-115.453" rx="1.8" ry="1.8"/>
</g>
<!-- 0&#45;&#45;4 -->
<g id="edge4" class="edge"><title>0&#45;&#45;4</title>
<path fill="none" stroke="black" d="M72.6269,-86.3963C79.6937,-90.9598 108.844,-109.784 116.022,-114.419"/>
</g>
<!-- 5 -->
<g id="node6" class="node"><title>5</title>
<ellipse fill="black" stroke="black" cx="1.8" cy="-94.5643" rx="1.8" ry="1.8"/>
</g>
<!-- 0&#45;&#45;5 -->
<g id="edge5" class="edge"><title>0&#45;&#45;5</title>
<path fill="none" stroke="black" d="M69.0796,-85.6608C58.9631,-86.9996 13.4996,-93.016 3.67544,-94.3161"/>
</g>
<!-- 7 -->
<g id="node7" class="node"><title>7</title>
<ellipse fill="black" stroke="black" cx="2.62648" cy="-31.3566" rx="1.8" ry="1.8"/>
</g>
<!-- 0&#45;&#45;7 -->
<g id="edge6" class="edge"><title>0&#45;&#45;7</title>
<path fill="none" stroke="black" d="M69.6485,-84.2676C60.7402,-77.2348 12.9337,-39.4937 4.04833,-32.4791"/>
</g>
<!-- 1&#45;&#45;2 -->
<g id="edge7" class="edge"><title>1&#45;&#45;2</title>
<path fill="none" stroke="black" d="M130.692,-44.6823C120.54,-43.8545 74.9182,-40.1347 65.0598,-39.3309"/>
</g>
<!-- 1&#45;&#45;3 -->
<g id="edge8" class="edge"><title>1&#45;&#45;3</title>
<path fill="none" stroke="black" d="M134.06,-46.06C139.182,-50.6238 157.27,-66.7396 162.797,-71.6643"/>
</g>
<!-- 1&#45;&#45;4 -->
<g id="edge9" class="edge"><title>1&#45;&#45;4</title>
<path fill="none" stroke="black" d="M132.262,-46.8828C130.061,-57.1934 120.169,-103.529 118.032,-113.542"/>
</g>
<!-- 6 -->
<g id="node8" class="node"><title>6</title>
<ellipse fill="black" stroke="black" cx="188.469" cy="-124.269" rx="1.8" ry="1.8"/>
</g>
<!-- 1&#45;&#45;6 -->
<g id="edge10" class="edge"><title>1&#45;&#45;6</title>
<path fill="none" stroke="black" d="M133.862,-46.5046C141.12,-56.8408 180.071,-112.309 187.31,-122.619"/>
</g>
<!-- 8 -->
<g id="node9" class="node"><title>8</title>
<ellipse fill="black" stroke="black" cx="194.466" cy="-1.8" rx="1.8" ry="1.8"/>
</g>
<!-- 1&#45;&#45;8 -->
<g id="edge11" class="edge"><title>1&#45;&#45;8</title>
<path fill="none" stroke="black" d="M134.224,-43.7817C142.696,-37.878 183.862,-9.18985 192.766,-2.98493"/>
</g>
<!-- 2&#45;&#45;4 -->
<g id="edge12" class="edge"><title>2&#45;&#45;4</title>
<path fill="none" stroke="black" d="M64.315,-40.7706C71.4007,-50.6971 109.426,-103.968 116.493,-113.869"/>
</g>
<!-- 2&#45;&#45;5 -->
<g id="edge13" class="edge"><title>2&#45;&#45;5</title>
<path fill="none" stroke="black" d="M61.6607,-40.5466C53.2427,-48.1428 12.337,-85.0558 3.48956,-93.0397"/>
</g>
<!-- 2&#45;&#45;7 -->
<g id="edge14" class="edge"><title>2&#45;&#45;7</title>
<path fill="none" stroke="black" d="M61.1632,-38.9172C51.9699,-37.7298 14.0477,-32.8318 4.7108,-31.6258"/>
</g>
<!-- 3&#45;&#45;4 -->
<g id="edge15" class="edge"><title>3&#45;&#45;4</title>
<path fill="none" stroke="black" d="M162.857,-74.5136C155.753,-80.9432 126.449,-107.465 119.234,-113.995"/>
</g>
<!-- 3&#45;&#45;6 -->
<g id="edge16" class="edge"><title>3&#45;&#45;6</title>
<path fill="none" stroke="black" d="M165.214,-74.8069C168.866,-82.5749 183.932,-114.618 187.641,-122.507"/>
</g>
<!-- 3&#45;&#45;8 -->
<g id="edge17" class="edge"><title>3&#45;&#45;8</title>
<path fill="none" stroke="black" d="M165.157,-71.342C169.314,-61.4768 189.659,-13.2045 193.749,-3.50098"/>
</g>
<!-- 4&#45;&#45;6 -->
<g id="edge18" class="edge"><title>4&#45;&#45;6</title>
<path fill="none" stroke="black" d="M119.668,-115.708C130.013,-116.995 176.505,-122.78 186.551,-124.03"/>
</g>
<!-- 5&#45;&#45;7 -->
<g id="edge19" class="edge"><title>5&#45;&#45;7</title>
<path fill="none" stroke="black" d="M1.82384,-92.7408C1.94242,-83.6727 2.46801,-43.4765 2.59755,-33.5691"/>
</g>
</g>
</svg>
