<?xml version="1.0" encoding="UTF-8" standalone="no"?>
<!DOCTYPE svg PUBLIC "-//W3C//DTD SVG 1.1//EN"
 "http://www.w3.org/Graphics/SVG/1.1/DTD/svg11.dtd">
<!-- Generated by graphviz version 2.36.0 (20140111.2315)
 -->
<!-- Title: %3 Pages: 1 -->
<svg width="247pt" height="207pt"
 viewBox="0.00 0.00 247.16 206.97" xmlns="http://www.w3.org/2000/svg" xmlns:xlink="http://www.w3.org/1999/xlink">
<g id="graph0" class="graph" transform="scale(1 1) rotate(0) translate(4 202.973)">
<title>%3</title>
<!-- 0 -->
<g id="node1" class="node"><title>0</title>
<ellipse fill="black" stroke="black" cx="138.798" cy="-70.3717" rx="1.8" ry="1.8"/>
</g>
<!-- 1 -->
<g id="node2" class="node"><title>1</title>
<ellipse fill="black" stroke="black" cx="205.293" cy="-70.5107" rx="1.8" ry="1.8"/>
</g>
<!-- 0&#45;&#45;1 -->
<g id="edge1" class="edge"><title>0&#45;&#45;1</title>
<path fill="none" stroke="black" d="M140.717,-70.3757C150.427,-70.396 194.064,-70.4872 203.493,-70.5069"/>
</g>
<!-- 2 -->
<g id="node3" class="node"><title>2</title>
<ellipse fill="black" stroke="black" cx="210.445" cy="-13.5789" rx="1.8" ry="1.8"/>
</g>
<!-- 0&#45;&#45;2 -->
<g id="edge2" class="edge"><title>0&#45;&#45;2</title>
<path fill="none" stroke="black" d="M140.295,-69.1855C149.619,-61.7944 199.656,-22.1306 208.957,-14.7586"/>
</g>
<!-- 3 -->
<g id="node4" class="node"><title>3</title>
<ellipse fill="black" stroke="black" cx="189.178" cy="-137.333" rx="1.8" ry="1.8"/>
</g>
<!-- 0&#45;&#45;3 -->
<g id="edge3" class="edge"><title>0&#45;&#45;3</title>
<path fill="none" stroke="black" d="M140.044,-72.0269C146.953,-81.2106 180.529,-125.837 187.791,-135.49"/>
</g>
<!-- 4 -->
<g id="node5" class="node"><title>4</title>
<ellipse fill="black" stroke="black" cx="160.172" cy="-1.8" rx="1.8" ry="1.8"/>
</g>
<!-- 0&#45;&#45;4 -->
<g id="edge4" class="edge"><title>0&#45;&#45;4</title>
<path fill="none" stroke="black" d="M139.415,-68.3934C142.536,-58.3801 156.562,-13.3802 159.593,-3.65632"/>
</g>
<!-- 5 -->
<g id="node6" class="node"><title>5</title>
<ellipse fill="black" stroke="black" cx="71.2368" cy="-116.144" rx="1.8" ry="1.8"/>
</g>
<!-- 0&#45;&#45;5 -->
<g id="edge5" class="edge"><title>0&#45;&#45;5</title>
<path fill="none" stroke="black" d="M137.128,-71.5031C127.862,-77.7808 82.8354,-108.286 73.0966,-114.884"/>
</g>
<!-- 8 -->
<g id="node7" class="node"><title>8</title>
<ellipse fill="black" stroke="black" cx="77.2947" cy="-13.494" rx="1.8" ry="1.8"/>
</g>
<!-- 0&#45;&#45;8 -->
<g id="edge6" class="edge"><title>0&#45;&#45;8</title>
<path fill="none" stroke="black" d="M137.278,-68.9657C128.843,-61.165 87.8533,-23.2584 78.9877,-15.0597"/>
</g>
<!-- 1&#45;&#45;2 -->
<g id="edge7" class="edge"><title>1&#45;&#45;2</title>
<path fill="none" stroke="black" d="M205.465,-68.6165C206.247,-59.9727 209.473,-24.3174 210.267,-15.5386"/>
</g>
<!-- 1&#45;&#45;3 -->
<g id="edge8" class="edge"><title>1&#45;&#45;3</title>
<path fill="none" stroke="black" d="M204.828,-72.4385C202.475,-82.1963 191.899,-126.048 189.614,-135.524"/>
</g>
<!-- 1&#45;&#45;4 -->
<g id="edge9" class="edge"><title>1&#45;&#45;4</title>
<path fill="none" stroke="black" d="M204.178,-68.8122C197.99,-59.3886 167.918,-13.5959 161.414,-3.69142"/>
</g>
<!-- 2&#45;&#45;4 -->
<g id="edge10" class="edge"><title>2&#45;&#45;4</title>
<path fill="none" stroke="black" d="M208.285,-13.0728C200.015,-11.1353 170.426,-4.20262 162.268,-2.29113"/>
</g>
<!-- 7 -->
<g id="node8" class="node"><title>7</title>
<ellipse fill="black" stroke="black" cx="237.356" cy="-197.173" rx="1.8" ry="1.8"/>
</g>
<!-- 3&#45;&#45;7 -->
<g id="edge11" class="edge"><title>3&#45;&#45;7</title>
<path fill="none" stroke="black" d="M190.368,-138.812C196.976,-147.019 229.085,-186.9 236.029,-195.526"/>
</g>
<!-- 6 -->
<g id="node9" class="node"><title>6</title>
<ellipse fill="black" stroke="black" cx="1.8" cy="-147.306" rx="1.8" ry="1.8"/>
</g>
<!-- 5&#45;&#45;6 -->
<g id="edge12" class="edge"><title>5&#45;&#45;6</title>
<path fill="none" stroke="black" d="M69.5204,-116.915C59.9972,-121.188 13.7205,-141.956 3.7114,-146.448"/>
</g>
</g>
</svg>
